<?xml version="1.0" encoding="UTF-8" standalone="no"?>
<!-- Created with Inkscape (http://www.inkscape.org/) -->

<svg
   xmlns:dc="http://purl.org/dc/elements/1.1/"
   xmlns:cc="http://creativecommons.org/ns#"
   xmlns:rdf="http://www.w3.org/1999/02/22-rdf-syntax-ns#"
   xmlns:svg="http://www.w3.org/2000/svg"
   xmlns="http://www.w3.org/2000/svg"
   xmlns:sodipodi="http://sodipodi.sourceforge.net/DTD/sodipodi-0.dtd"
   xmlns:inkscape="http://www.inkscape.org/namespaces/inkscape"
   viewBox="0 0 508 127.00035"
   version="1.1"
   id="svg1575"
   inkscape:version="0.92.3 (2405546, 2018-03-11)"
   sodipodi:docname="header.svg">
  <defs
     id="defs1569">
    <clipPath
       clipPathUnits="userSpaceOnUse"
       id="clipPath60">
      <path
         d="M 0,2296 H 1440 V 0 H 0 Z"
         id="path58"
         inkscape:connector-curvature="0" />
    </clipPath>
  </defs>
  <sodipodi:namedview
     id="base"
     pagecolor="#ffffff"
     bordercolor="#666666"
     borderopacity="1.0"
     inkscape:pageopacity="0.0"
     inkscape:pageshadow="2"
     inkscape:zoom="0.49497475"
     inkscape:cx="99.753837"
     inkscape:cy="43.429447"
     inkscape:document-units="mm"
     inkscape:current-layer="layer1"
     showgrid="false"
     fit-margin-top="0"
     fit-margin-left="0"
     fit-margin-right="0"
     fit-margin-bottom="0"
     inkscape:window-width="1920"
     inkscape:window-height="1052"
     inkscape:window-x="0"
     inkscape:window-y="0"
     inkscape:window-maximized="1" />
  <metadata
     id="metadata1572">
    <rdf:RDF>
      <cc:Work
         rdf:about="">
        <dc:format>image/svg+xml</dc:format>
        <dc:type
           rdf:resource="http://purl.org/dc/dcmitype/StillImage" />
        <dc:title></dc:title>
      </cc:Work>
    </rdf:RDF>
  </metadata>
  <g
     inkscape:label="Layer 1"
     inkscape:groupmode="layer"
     id="layer1"
     transform="translate(182.94048,-7.4700652)">
    <path
       d="M -182.94048,134.47042 H -55.940476 V 7.4704182 H -182.94048 Z"
       style="fill:#29abe2;fill-opacity:1;fill-rule:nonzero;stroke:none;stroke-width:0.35277775"
       id="path12"
       inkscape:connector-curvature="0" />
    <path
       d="M 71.05951,7.4700652 H 198.05952 V 134.47007 H 71.05951 Z"
       style="fill:#29abe2;fill-opacity:1;fill-rule:nonzero;stroke:none;stroke-width:0.35277775"
       id="path14"
       inkscape:connector-curvature="0" />
    <path
       d="M -55.940476,7.4700652 H 71.05951 V 134.47007 H -55.940476 Z"
       style="fill:#f7adcb;fill-opacity:1;fill-rule:nonzero;stroke:none;stroke-width:0.35277775"
       id="path16"
       inkscape:connector-curvature="0" />
    <path
       d="m 198.05952,134.47042 h 127 V 7.4704182 h -127 z"
       style="fill:#ffde17;fill-opacity:1;fill-rule:nonzero;stroke:none;stroke-width:0.35277775"
       id="path18"
       inkscape:connector-curvature="0" />
    <g
       id="g78"
       transform="matrix(0.35277777,0,0,-0.35277777,-111.9381,64.436937)">
      <path
         d="m 0,0 c 0,-28.695 -23.262,-51.957 -51.957,-51.957 -28.694,0 -51.957,23.262 -51.957,51.957 0,28.695 23.263,51.957 51.957,51.957 C -23.262,51.957 0,28.695 0,0"
         style="fill:#ffffff;fill-opacity:1;fill-rule:nonzero;stroke:none"
         id="path80"
         inkscape:connector-curvature="0" />
    </g>
    <g
       id="g82"
       transform="matrix(0.35277777,0,0,-0.35277777,-87.37404,64.436937)">
      <path
         d="m 0,0 c 0,-28.695 -23.262,-51.957 -51.957,-51.957 -28.695,0 -51.957,23.262 -51.957,51.957 0,28.695 23.262,51.957 51.957,51.957 C -23.262,51.957 0,28.695 0,0"
         style="fill:#ffffff;fill-opacity:1;fill-rule:nonzero;stroke:none"
         id="path84"
         inkscape:connector-curvature="0" />
    </g>
    <g
       id="g86"
       transform="matrix(0.35277777,0,0,-0.35277777,-133.60274,57.667308)">
      <path
         d="m 0,0 c 0,-28.695 -23.262,-51.957 -51.957,-51.957 -28.695,0 -51.957,23.262 -51.957,51.957 0,28.695 23.262,51.957 51.957,51.957 C -23.262,51.957 0,28.695 0,0"
         style="fill:#ffffff;fill-opacity:1;fill-rule:nonzero;stroke:none"
         id="path88"
         inkscape:connector-curvature="0" />
    </g>
    <g
       id="g90"
       transform="matrix(0.35277777,0,0,-0.35277777,-101.40232,50.511705)">
      <path
         d="m 0,0 c 0,-28.695 -23.262,-51.957 -51.957,-51.957 -28.695,0 -51.957,23.262 -51.957,51.957 0,28.695 23.262,51.957 51.957,51.957 C -23.262,51.957 0,28.695 0,0"
         style="fill:#ffffff;fill-opacity:1;fill-rule:nonzero;stroke:none"
         id="path92"
         inkscape:connector-curvature="0" />
    </g>
    <g
       id="g94"
       transform="matrix(0.35277777,0,0,-0.35277777,-69.201858,57.667308)">
      <path
         d="m 0,0 c 0,-28.695 -23.262,-51.957 -51.957,-51.957 -28.695,0 -51.957,23.262 -51.957,51.957 0,28.695 23.262,51.957 51.957,51.957 C -23.262,51.957 0,28.695 0,0"
         style="fill:#ffffff;fill-opacity:1;fill-rule:nonzero;stroke:none"
         id="path96"
         inkscape:connector-curvature="0" />
    </g>
    <g
       id="g98"
       transform="matrix(0.35277777,0,0,-0.35277777,-133.0207,84.272926)">
      <path
         d="m 0,0 c 0,28.695 -23.262,51.957 -51.957,51.957 -28.694,0 -51.957,-23.262 -51.957,-51.957 0,-28.695 23.263,-51.957 51.957,-51.957 C -23.262,-51.957 0,-28.695 0,0"
         style="fill:#ffffff;fill-opacity:1;fill-rule:nonzero;stroke:none"
         id="path100"
         inkscape:connector-curvature="0" />
    </g>
    <g
       id="g102"
       transform="matrix(0.35277777,0,0,-0.35277777,-100.82027,91.428741)">
      <path
         d="m 0,0 c 0,28.695 -23.262,51.957 -51.957,51.957 -28.695,0 -51.957,-23.262 -51.957,-51.957 0,-28.695 23.262,-51.957 51.957,-51.957 C -23.262,-51.957 0,-28.695 0,0"
         style="fill:#ffffff;fill-opacity:1;fill-rule:nonzero;stroke:none"
         id="path104"
         inkscape:connector-curvature="0" />
    </g>
    <g
       id="g106"
       transform="matrix(0.35277777,0,0,-0.35277777,-68.61981,84.272926)">
      <path
         d="m 0,0 c 0,28.695 -23.262,51.957 -51.957,51.957 -28.695,0 -51.957,-23.262 -51.957,-51.957 0,-28.695 23.262,-51.957 51.957,-51.957 C -23.262,-51.957 0,-28.695 0,0"
         style="fill:#ffffff;fill-opacity:1;fill-rule:nonzero;stroke:none"
         id="path108"
         inkscape:connector-curvature="0" />
    </g>
    <g
       id="g110"
       transform="matrix(0.35277777,0,0,-0.35277777,190.70889,37.280528)">
      <path
         d="m 0,0 -254.662,-254.662 -63.665,63.666 254.661,254.662 z"
         style="fill:#8cc63f;fill-opacity:1;fill-rule:nonzero;stroke:none"
         id="path112"
         inkscape:connector-curvature="0" />
    </g>
    <g
       id="g114"
       transform="matrix(0.35277777,0,0,-0.35277777,100.86994,14.820755)">
      <path
         d="M 0,0 254.662,-254.662 190.996,-318.327 -63.666,-63.666 Z"
         style="fill:#8cc63f;fill-opacity:1;fill-rule:nonzero;stroke:none"
         id="path116"
         inkscape:connector-curvature="0" />
    </g>
    <g
       id="g118"
       transform="matrix(0.35277777,0,0,-0.35277777,7.5595158,7.4702066)">
      <path
         d="M 0,0 180,-180 0,-360 Z"
         style="fill:#f26522;fill-opacity:1;fill-rule:nonzero;stroke:none"
         id="path120"
         inkscape:connector-curvature="0" />
    </g>
    <path
       d="M -55.940483,49.803398 H 23.731554 V 92.13673 h -79.672037 z"
       style="fill:#f26522;fill-opacity:1;fill-rule:nonzero;stroke:none;stroke-width:0.35277778"
       id="path122"
       inkscape:connector-curvature="0" />
    <path
       d="m 198.05951,7.4700655 h 127 V 134.47006 h -127 z"
       style="fill:#ffde17;fill-opacity:1;fill-rule:nonzero;stroke:none;stroke-width:0.35277778"
       id="path134"
       inkscape:connector-curvature="0" />
    <g
       id="g136"
       transform="matrix(0.35277777,0,0,-0.35277777,211.39444,41.998331)">
      <path
         d="m 0,0 v -164.25 l 142.2,-82.125 142.2,82.125 V 0 L 142.2,82.125 Z"
         style="fill:#6e559e;fill-opacity:1;fill-rule:nonzero;stroke:none"
         id="path138"
         inkscape:connector-curvature="0" />
    </g>
  </g>
</svg>
