<?xml version="1.0" encoding="utf-8"?>
<!-- Generator: Adobe Illustrator 17.0.0, SVG Export Plug-In . SVG Version: 6.00 Build 0)  -->
<!DOCTYPE svg PUBLIC "-//W3C//DTD SVG 1.1//EN" "http://www.w3.org/Graphics/SVG/1.1/DTD/svg11.dtd">
<svg version="1.1" id="Layer_1" xmlns="http://www.w3.org/2000/svg" xmlns:xlink="http://www.w3.org/1999/xlink" x="0px" y="0px"
	 width="638.394px" height="245.589px" viewBox="0 0 638.394 245.589" enable-background="new 0 0 638.394 245.589"
	 xml:space="preserve">
<g>
	<path d="M348.894,95.577c9.926-6.725,14.76-15.872,14.76-27.86v-0.376c0-9.508-3.132-17.26-9.578-23.7
		c-7.974-7.974-20.303-12.189-35.654-12.189h-62.805l0.006,134.952h64.292c32.424,0,51.025-13.83,51.025-37.945v-0.368
		C370.941,112.58,364.107,102.425,348.894,95.577z M319.916,137.058h-32.153v-24.672h31.215c12.774,0,19.254,4.085,19.254,12.148
		v0.375C338.232,132.974,332.072,137.058,319.916,137.058z M287.763,84.353V60.798h26.36c7.675,0,16.823,1.973,16.823,11.398v0.375
		c0,7.814-6.293,11.781-18.699,11.781H287.763z"/>
	<path d="M479.042,31.452h-53.089l0.034,134.96l53.055-0.008c20.198,0,38.522-6.917,51.609-19.476
		c12.885-12.364,19.976-29.416,19.976-48.004v-0.376C550.627,59.672,520.516,31.452,479.042,31.452z M516.426,98.925v0.374
		c0,22.138-15.024,37.017-37.383,37.017H458.85V61.548h20.192C501.401,61.548,516.426,76.565,516.426,98.925z"/>
	<path d="M396.463,31.236c9.084,0,16.455,7.363,16.455,16.447v118.748h-32.897V31.232L396.463,31.236z"/>
</g>
<path d="M115.606,119.282c-17.348,28.089,38.381,28.513,12.597,80.998c-0.756,0.126-1.506,0.271-2.277,0.383
	C65.823,209.462,9.97,167.872,1.17,107.77c-4.166-28.501,3.007-56.041,18.091-78.062C16.455,93.13,131.807,93.06,115.606,119.282
	 M140.196,197.58c5.938-11.049,18.869-27.159,46.513-59.638c41.34-48.577-81.166-32.265-102.159-69.028
	C67.26,38.624,131.606,16.854,170.488,0c25.276,16.659,43.617,43.603,48.338,75.916C226.91,131.123,192.453,182.72,140.196,197.58z
	 M103.905,58.868c-4.125,2.165,3.257,11.748,22.139,12.261C144.932,71.651,120.585,50.109,103.905,58.868z M145.578,69.117
	c-14.153-4.583-4.84,6.743,1.895,7.493C154.202,77.353,155.606,72.366,145.578,69.117z M160.349,80.204
	c-4.709-0.195-5.549,2.647,1.52,4.142C171.852,86.454,165.055,80.401,160.349,80.204z"/>
<g>
	<path d="M296.323,233.501v-34.798l-16.152,27.318h-1.301l-16.152-27.318v34.798h-1.897v-38.484h1.734l16.966,28.674l16.965-28.674
		h1.734v38.484H296.323z"/>
	<path d="M317.787,234.043c-1.916,0-3.704-0.389-5.366-1.166c-1.663-0.776-3.117-1.843-4.364-3.198
		c-1.247-1.355-2.222-2.927-2.927-4.716s-1.057-3.694-1.057-5.718c0-1.987,0.343-3.849,1.03-5.583
		c0.686-1.734,1.644-3.252,2.873-4.553c1.228-1.301,2.656-2.331,4.282-3.089c1.626-0.759,3.396-1.138,5.312-1.138
		c1.952,0,3.758,0.379,5.42,1.138c1.662,0.759,3.107,1.798,4.336,3.117c1.228,1.319,2.195,2.864,2.9,4.634
		c0.705,1.771,1.057,3.65,1.057,5.637c0,0.073,0,0.217,0,0.434s-0.019,0.344-0.054,0.379h-25.258
		c0.144,1.734,0.55,3.352,1.219,4.851c0.668,1.5,1.536,2.792,2.602,3.875c1.065,1.084,2.294,1.943,3.686,2.575
		c1.391,0.633,2.864,0.949,4.417,0.949c1.011,0,2.014-0.136,3.008-0.407c0.994-0.271,1.924-0.659,2.792-1.165
		c0.867-0.506,1.626-1.111,2.277-1.816s1.174-1.472,1.572-2.304l1.68,0.434c-0.398,0.976-0.976,1.889-1.734,2.737
		c-0.759,0.85-1.653,1.572-2.683,2.168s-2.141,1.066-3.333,1.41C320.281,233.871,319.052,234.043,317.787,234.043z M329.441,218.649
		c-0.108-1.77-0.488-3.396-1.138-4.878c-0.65-1.481-1.509-2.764-2.575-3.849c-1.066-1.084-2.286-1.924-3.659-2.52
		c-1.374-0.596-2.855-0.895-4.445-0.895c-1.59,0-3.072,0.308-4.444,0.921c-1.374,0.615-2.575,1.463-3.604,2.547
		c-1.03,1.084-1.862,2.367-2.494,3.849c-0.632,1.482-1.002,3.09-1.111,4.824H329.441z"/>
	<path d="M330.85,242.878c-1.084,0-2.114-0.135-3.09-0.406c-0.976-0.271-1.824-0.768-2.547-1.491l1.138-1.192
		c0.615,0.542,1.31,0.903,2.087,1.084c0.777,0.181,1.527,0.271,2.25,0.271c0.723,0,1.437-0.154,2.141-0.46
		c0.705-0.308,1.328-0.724,1.87-1.247c0.542-0.524,0.984-1.138,1.328-1.843c0.343-0.705,0.515-1.473,0.515-2.304v-29.974h1.843
		v29.92c0,1.12-0.226,2.149-0.678,3.09c-0.452,0.939-1.03,1.743-1.734,2.412c-0.705,0.668-1.509,1.192-2.412,1.572
		C332.657,242.688,331.753,242.878,330.85,242.878z M336.541,198.486v-4.553h1.843v4.553H336.541z"/>
	<path d="M357.355,234.043c-1.916,0-3.695-0.389-5.339-1.166c-1.645-0.776-3.081-1.824-4.309-3.144
		c-1.229-1.319-2.187-2.863-2.873-4.634c-0.687-1.77-1.03-3.632-1.03-5.583c0-1.987,0.353-3.866,1.057-5.637
		c0.705-1.77,1.671-3.324,2.9-4.662c1.228-1.336,2.665-2.393,4.309-3.171c1.644-0.776,3.406-1.165,5.285-1.165
		c1.878,0,3.649,0.389,5.312,1.165c1.662,0.778,3.107,1.834,4.336,3.171c1.228,1.337,2.195,2.892,2.9,4.662
		c0.705,1.771,1.057,3.65,1.057,5.637c0,1.951-0.352,3.813-1.057,5.583c-0.705,1.771-1.663,3.315-2.873,4.634
		c-1.211,1.319-2.647,2.367-4.309,3.144C361.058,233.654,359.27,234.043,357.355,234.043z M345.647,219.571
		c0,1.734,0.307,3.379,0.921,4.933c0.614,1.554,1.445,2.909,2.493,4.065c1.048,1.157,2.285,2.069,3.713,2.737
		c1.427,0.669,2.936,1.003,4.526,1.003c1.626,0,3.152-0.343,4.581-1.03c1.427-0.686,2.673-1.607,3.74-2.765
		c1.065-1.156,1.906-2.521,2.521-4.092c0.614-1.572,0.921-3.225,0.921-4.959s-0.308-3.388-0.921-4.959
		c-0.615-1.572-1.455-2.936-2.521-4.092c-1.066-1.156-2.313-2.078-3.74-2.765c-1.428-0.686-2.937-1.03-4.526-1.03
		c-1.59,0-3.089,0.344-4.499,1.03c-1.41,0.687-2.647,1.618-3.713,2.792c-1.066,1.175-1.916,2.547-2.548,4.12
		C345.963,216.129,345.647,217.801,345.647,219.571z"/>
	<path d="M389.009,207.05c-2.602,0.108-4.861,0.931-6.775,2.466c-1.916,1.536-3.252,3.623-4.011,6.26v17.725h-1.843v-28.186h1.789
		v7.155c0.976-1.987,2.276-3.613,3.903-4.878c1.626-1.264,3.36-2.005,5.203-2.222c0.361-0.036,0.695-0.054,1.003-0.054
		c0.307,0,0.55,0,0.732,0V207.05z"/>
	<path d="M399.416,234.043c-1.301,0-2.512-0.226-3.632-0.678c-1.121-0.451-2.096-1.065-2.927-1.843
		c-0.832-0.776-1.482-1.688-1.952-2.737c-0.47-1.047-0.705-2.186-0.705-3.415c0-1.192,0.289-2.285,0.867-3.279
		c0.578-0.994,1.382-1.852,2.412-2.575c1.03-0.723,2.258-1.282,3.686-1.68c1.427-0.397,2.99-0.596,4.688-0.596
		c1.59,0,3.188,0.127,4.797,0.379c1.607,0.253,3.063,0.632,4.363,1.138v-3.036c0-2.818-0.804-5.068-2.412-6.748
		c-1.608-1.68-3.768-2.521-6.478-2.521c-1.374,0-2.837,0.298-4.391,0.895c-1.554,0.596-3.108,1.455-4.661,2.574l-0.867-1.355
		c3.613-2.457,6.956-3.686,10.027-3.686c3.288,0,5.881,0.976,7.778,2.927c1.897,1.951,2.846,4.626,2.846,8.022v14.744
		c0,0.795,0.325,1.192,0.976,1.192v1.734c-0.108,0.036-0.208,0.054-0.298,0.054c-0.09,0-0.172,0-0.244,0
		c-0.615,0-1.13-0.225-1.545-0.678c-0.416-0.451-0.624-1.002-0.624-1.653v-2.494c-1.301,1.699-2.981,3.008-5.041,3.93
		C404.023,233.582,401.801,234.043,399.416,234.043z M399.633,232.471c1.336,0,2.683-0.181,4.038-0.542
		c1.355-0.361,2.575-0.858,3.659-1.491c1.084-0.632,1.969-1.364,2.656-2.195c0.686-0.831,1.03-1.716,1.03-2.656v-5.312
		c-2.818-1.084-5.818-1.626-8.998-1.626c-1.482,0-2.837,0.163-4.065,0.488c-1.229,0.325-2.286,0.777-3.171,1.355
		c-0.886,0.579-1.572,1.274-2.06,2.087s-0.731,1.726-0.731,2.737c0,1.012,0.198,1.951,0.596,2.818
		c0.397,0.867,0.939,1.626,1.626,2.277c0.686,0.65,1.491,1.157,2.412,1.518C397.546,232.29,398.549,232.471,399.633,232.471z"/>
	<path d="M442.399,233.501h-1.843v-15.719c0-3.866-0.551-6.694-1.653-8.483c-1.103-1.789-2.846-2.683-5.23-2.683
		c-1.266,0-2.53,0.235-3.794,0.705c-1.265,0.47-2.431,1.121-3.496,1.951c-1.066,0.832-2.005,1.808-2.818,2.927
		c-0.813,1.121-1.401,2.349-1.762,3.686v17.616h-1.843v-28.186h1.789v7.046c0.578-1.12,1.301-2.141,2.168-3.063
		s1.843-1.708,2.927-2.358s2.23-1.156,3.442-1.518c1.21-0.361,2.447-0.542,3.713-0.542c2.962,0,5.104,1.057,6.423,3.171
		c1.319,2.114,1.979,5.285,1.979,9.513V233.501z"/>
	<path d="M461.044,234.043c-1.951,0-3.758-0.416-5.42-1.247c-1.663-0.831-3.099-1.924-4.31-3.279c-1.211-1.355-2.15-2.9-2.818-4.634
		c-0.669-1.735-1.003-3.523-1.003-5.366c0-1.951,0.325-3.812,0.976-5.583c0.651-1.77,1.554-3.324,2.71-4.662
		c1.156-1.336,2.529-2.402,4.12-3.198c1.589-0.794,3.324-1.192,5.203-1.192c1.265,0,2.457,0.181,3.578,0.542
		c1.12,0.361,2.159,0.859,3.117,1.491c0.957,0.632,1.824,1.364,2.602,2.195c0.777,0.832,1.437,1.699,1.979,2.602v-17.779h1.843
		v36.642c0,0.795,0.325,1.192,0.976,1.192v1.734c-0.108,0.036-0.253,0.054-0.434,0.054c-0.65,0-1.192-0.244-1.626-0.732
		s-0.65-1.038-0.65-1.653v-3.415c-0.579,0.94-1.274,1.798-2.087,2.575c-0.813,0.777-1.689,1.437-2.629,1.979
		c-0.94,0.542-1.934,0.967-2.981,1.274C463.14,233.889,462.092,234.043,461.044,234.043z M461.261,232.309
		c1.048,0,2.168-0.217,3.361-0.65s2.304-1.021,3.333-1.762c1.03-0.74,1.897-1.607,2.602-2.602c0.705-0.994,1.111-2.033,1.22-3.117
		v-9.703c-0.398-1.084-0.985-2.104-1.762-3.063c-0.777-0.957-1.672-1.789-2.683-2.493c-1.012-0.705-2.087-1.265-3.225-1.68
		c-1.138-0.415-2.25-0.624-3.333-0.624c-1.734,0-3.306,0.371-4.715,1.111c-1.41,0.741-2.602,1.717-3.578,2.927
		c-0.976,1.211-1.734,2.584-2.276,4.12c-0.542,1.536-0.813,3.117-0.813,4.743c0,1.699,0.307,3.315,0.921,4.851
		c0.614,1.537,1.454,2.892,2.521,4.065c1.065,1.174,2.321,2.114,3.767,2.818C458.045,231.956,459.599,232.309,461.261,232.309z"/>
	<path d="M492.699,234.043c-1.916,0-3.695-0.389-5.339-1.166c-1.645-0.776-3.081-1.824-4.309-3.144
		c-1.229-1.319-2.187-2.863-2.873-4.634c-0.687-1.77-1.03-3.632-1.03-5.583c0-1.987,0.353-3.866,1.057-5.637
		c0.705-1.77,1.671-3.324,2.9-4.662c1.228-1.336,2.665-2.393,4.309-3.171c1.644-0.776,3.406-1.165,5.285-1.165
		c1.878,0,3.649,0.389,5.312,1.165c1.662,0.778,3.107,1.834,4.336,3.171c1.228,1.337,2.195,2.892,2.9,4.662
		c0.705,1.771,1.057,3.65,1.057,5.637c0,1.951-0.352,3.813-1.057,5.583c-0.705,1.771-1.663,3.315-2.873,4.634
		c-1.211,1.319-2.647,2.367-4.309,3.144C496.402,233.654,494.614,234.043,492.699,234.043z M480.991,219.571
		c0,1.734,0.307,3.379,0.921,4.933c0.614,1.554,1.445,2.909,2.493,4.065c1.048,1.157,2.285,2.069,3.713,2.737
		c1.427,0.669,2.936,1.003,4.526,1.003c1.626,0,3.152-0.343,4.581-1.03c1.427-0.686,2.673-1.607,3.74-2.765
		c1.065-1.156,1.906-2.521,2.521-4.092c0.614-1.572,0.921-3.225,0.921-4.959s-0.308-3.388-0.921-4.959
		c-0.615-1.572-1.455-2.936-2.521-4.092c-1.066-1.156-2.313-2.078-3.74-2.765c-1.428-0.686-2.937-1.03-4.526-1.03
		c-1.59,0-3.089,0.344-4.499,1.03c-1.41,0.687-2.647,1.618-3.713,2.792c-1.066,1.175-1.916,2.547-2.548,4.12
		C481.307,216.129,480.991,217.801,480.991,219.571z"/>
	<path d="M531.833,233.501L519.8,205.315h1.951l11.003,26.072l11.058-26.072h1.897l-12.033,28.186H531.833z"/>
	<path d="M549.99,198.486v-4.553h1.843v4.553H549.99z M549.99,233.501v-28.186h1.843v28.186H549.99z"/>
	<path d="M570.858,234.043c-1.951,0-3.758-0.416-5.42-1.247c-1.663-0.831-3.099-1.924-4.31-3.279c-1.211-1.355-2.15-2.9-2.818-4.634
		c-0.669-1.735-1.003-3.523-1.003-5.366c0-1.951,0.325-3.812,0.976-5.583c0.651-1.77,1.554-3.324,2.71-4.662
		c1.156-1.336,2.529-2.402,4.12-3.198c1.589-0.794,3.324-1.192,5.203-1.192c1.265,0,2.457,0.181,3.578,0.542
		c1.12,0.361,2.159,0.859,3.117,1.491c0.957,0.632,1.824,1.364,2.602,2.195c0.777,0.832,1.437,1.699,1.979,2.602v-17.779h1.843
		v36.642c0,0.795,0.325,1.192,0.976,1.192v1.734c-0.108,0.036-0.253,0.054-0.434,0.054c-0.65,0-1.192-0.244-1.626-0.732
		s-0.65-1.038-0.65-1.653v-3.415c-0.579,0.94-1.274,1.798-2.087,2.575c-0.813,0.777-1.689,1.437-2.629,1.979
		c-0.94,0.542-1.934,0.967-2.981,1.274C572.953,233.889,571.906,234.043,570.858,234.043z M571.075,232.309
		c1.048,0,2.168-0.217,3.361-0.65s2.304-1.021,3.333-1.762c1.03-0.74,1.897-1.607,2.602-2.602c0.705-0.994,1.111-2.033,1.22-3.117
		v-9.703c-0.398-1.084-0.985-2.104-1.762-3.063c-0.777-0.957-1.672-1.789-2.683-2.493c-1.012-0.705-2.087-1.265-3.225-1.68
		c-1.138-0.415-2.25-0.624-3.333-0.624c-1.734,0-3.306,0.371-4.715,1.111c-1.41,0.741-2.602,1.717-3.578,2.927
		c-0.976,1.211-1.734,2.584-2.276,4.12c-0.542,1.536-0.813,3.117-0.813,4.743c0,1.699,0.307,3.315,0.921,4.851
		c0.614,1.537,1.454,2.892,2.521,4.065c1.065,1.174,2.321,2.114,3.767,2.818C567.858,231.956,569.412,232.309,571.075,232.309z"/>
	<path d="M597.797,234.043c-1.301,0-2.512-0.226-3.632-0.678c-1.121-0.451-2.096-1.065-2.927-1.843
		c-0.832-0.776-1.482-1.688-1.952-2.737c-0.47-1.047-0.705-2.186-0.705-3.415c0-1.192,0.289-2.285,0.867-3.279
		c0.578-0.994,1.382-1.852,2.412-2.575c1.03-0.723,2.258-1.282,3.686-1.68c1.427-0.397,2.99-0.596,4.688-0.596
		c1.59,0,3.188,0.127,4.797,0.379c1.607,0.253,3.063,0.632,4.363,1.138v-3.036c0-2.818-0.804-5.068-2.412-6.748
		c-1.608-1.68-3.768-2.521-6.478-2.521c-1.374,0-2.837,0.298-4.391,0.895c-1.554,0.596-3.108,1.455-4.661,2.574l-0.867-1.355
		c3.613-2.457,6.956-3.686,10.027-3.686c3.288,0,5.881,0.976,7.778,2.927c1.897,1.951,2.846,4.626,2.846,8.022v14.744
		c0,0.795,0.325,1.192,0.976,1.192v1.734c-0.108,0.036-0.208,0.054-0.298,0.054c-0.09,0-0.172,0-0.244,0
		c-0.615,0-1.13-0.225-1.545-0.678c-0.416-0.451-0.624-1.002-0.624-1.653v-2.494c-1.301,1.699-2.981,3.008-5.041,3.93
		C602.404,233.582,600.182,234.043,597.797,234.043z M598.014,232.471c1.336,0,2.683-0.181,4.038-0.542
		c1.355-0.361,2.575-0.858,3.659-1.491c1.084-0.632,1.969-1.364,2.656-2.195c0.686-0.831,1.03-1.716,1.03-2.656v-5.312
		c-2.818-1.084-5.818-1.626-8.998-1.626c-1.482,0-2.837,0.163-4.065,0.488c-1.229,0.325-2.286,0.777-3.171,1.355
		c-0.886,0.579-1.572,1.274-2.06,2.087s-0.731,1.726-0.731,2.737c0,1.012,0.198,1.951,0.596,2.818
		c0.397,0.867,0.939,1.626,1.626,2.277c0.686,0.65,1.491,1.157,2.412,1.518C595.927,232.29,596.93,232.471,598.014,232.471z"/>
	<path d="M626.903,234.043c-2.168,0-4.192-0.362-6.071-1.084c-1.879-0.723-3.542-1.843-4.987-3.361l1.03-1.247
		c1.518,1.374,3.071,2.404,4.662,3.09c1.59,0.687,3.361,1.03,5.312,1.03c2.637,0,4.77-0.56,6.396-1.68
		c1.626-1.12,2.439-2.692,2.439-4.716c0-0.939-0.208-1.725-0.623-2.358c-0.416-0.632-1.021-1.174-1.816-1.626
		c-0.795-0.452-1.78-0.849-2.954-1.192c-1.175-0.343-2.521-0.695-4.038-1.057c-1.554-0.361-2.9-0.713-4.038-1.057
		c-1.138-0.343-2.087-0.75-2.846-1.219c-0.759-0.469-1.32-1.065-1.68-1.789c-0.362-0.722-0.542-1.644-0.542-2.764
		c0-1.409,0.271-2.62,0.813-3.632c0.542-1.011,1.273-1.851,2.195-2.52c0.922-0.668,1.987-1.166,3.198-1.491
		c1.21-0.325,2.502-0.488,3.875-0.488c2.276,0,4.236,0.379,5.881,1.138c1.644,0.759,2.846,1.717,3.604,2.873l-1.247,0.921
		c-0.795-1.084-1.96-1.915-3.496-2.493c-1.536-0.578-3.171-0.867-4.905-0.867c-1.121,0-2.168,0.118-3.144,0.353
		c-0.976,0.235-1.834,0.615-2.574,1.138c-0.741,0.524-1.328,1.184-1.762,1.978c-0.434,0.795-0.65,1.735-0.65,2.819
		c0,0.867,0.144,1.59,0.434,2.168c0.289,0.579,0.75,1.057,1.382,1.437c0.631,0.379,1.427,0.705,2.385,0.976
		c0.957,0.271,2.123,0.569,3.496,0.895c1.734,0.398,3.27,0.795,4.607,1.192c1.336,0.398,2.475,0.867,3.415,1.409
		c0.939,0.542,1.653,1.211,2.141,2.005c0.488,0.795,0.732,1.808,0.732,3.036c0,1.265-0.253,2.394-0.759,3.388
		c-0.506,0.994-1.219,1.852-2.141,2.575c-0.922,0.723-2.042,1.273-3.361,1.653C629.947,233.853,628.493,234.043,626.903,234.043z"/>
</g>
</svg>
