<?xml version="1.0" encoding="UTF-8" standalone="no"?>
<!-- Generator: Adobe Illustrator 17.0.0, SVG Export Plug-In . SVG Version: 6.00 Build 0)  -->

<svg
   xmlns:dc="http://purl.org/dc/elements/1.1/"
   xmlns:cc="http://creativecommons.org/ns#"
   xmlns:rdf="http://www.w3.org/1999/02/22-rdf-syntax-ns#"
   xmlns:svg="http://www.w3.org/2000/svg"
   xmlns="http://www.w3.org/2000/svg"
   xmlns:sodipodi="http://sodipodi.sourceforge.net/DTD/sodipodi-0.dtd"
   xmlns:inkscape="http://www.inkscape.org/namespaces/inkscape"
   version="1.1"
   id="Layer_1"
   x="0px"
   y="0px"
   viewBox="0 0 953.36907 67.426393"
   enable-background="new 0 0 1254.41 57.21"
   xml:space="preserve"
   sodipodi:docname="congreso-logo-wide.svg"
   inkscape:version="0.92.3 (2405546, 2018-03-11)"><metadata
   id="metadata144"><rdf:RDF><cc:Work
       rdf:about=""><dc:format>image/svg+xml</dc:format><dc:type
         rdf:resource="http://purl.org/dc/dcmitype/StillImage" /><dc:title></dc:title></cc:Work></rdf:RDF></metadata><defs
   id="defs142">
	
	
	
	
	
	
	
	
	
	
	
	
	
	
	
	
	
	
	
	
	
	
	
	
	
	
	
	
	
	
	
	
</defs><sodipodi:namedview
   pagecolor="#ffffff"
   bordercolor="#666666"
   borderopacity="1"
   objecttolerance="10"
   gridtolerance="10"
   guidetolerance="10"
   inkscape:pageopacity="0"
   inkscape:pageshadow="2"
   inkscape:window-width="1920"
   inkscape:window-height="1052"
   id="namedview140"
   showgrid="false"
   fit-margin-top="0"
   fit-margin-left="0"
   fit-margin-right="0"
   fit-margin-bottom="0"
   inkscape:zoom="0.77113707"
   inkscape:cx="361.5844"
   inkscape:cy="89.687271"
   inkscape:window-x="0"
   inkscape:window-y="0"
   inkscape:window-maximized="1"
   inkscape:current-layer="Layer_1" />
<g
   id="g1639"
   style="fill:#ffffff"><path
     d="m 28.981,18.788 c 3.052,2.489 4.977,5.907 5.771,10.257 H 23.398 c -0.335,-1.506 -1.025,-2.676 -2.07,-3.513 -1.046,-0.836 -2.363,-1.255 -3.952,-1.255 -1.882,0 -3.43,0.743 -4.642,2.227 -1.213,1.485 -1.819,3.649 -1.819,6.492 0,2.844 0.606,5.009 1.819,6.493 1.212,1.485 2.76,2.227 4.642,2.227 1.589,0 2.906,-0.418 3.952,-1.255 1.045,-0.836 1.735,-2.007 2.07,-3.513 h 11.354 c -0.795,4.35 -2.719,7.769 -5.771,10.256 -3.053,2.489 -6.837,3.733 -11.354,3.733 -3.43,0 -6.472,-0.721 -9.127,-2.164 C 5.844,47.33 3.764,45.25 2.258,42.531 0.753,39.813 0,36.635 0,32.996 0,29.317 0.742,26.127 2.227,23.43 c 1.484,-2.697 3.565,-4.768 6.242,-6.21 2.676,-1.443 5.729,-2.164 9.159,-2.164 4.516,-10e-4 8.3,1.244 11.353,3.732 z"
     id="path73"
     style="fill:#ffffff"
     inkscape:connector-curvature="0" /><path
     d="M 41.089,1.6 C 42.259,0.534 43.807,0 45.731,0 c 1.923,0 3.471,0.533 4.642,1.6 1.17,1.067 1.757,2.415 1.757,4.046 0,1.59 -0.586,2.917 -1.757,3.983 -1.171,1.066 -2.719,1.6 -4.642,1.6 -1.924,0 -3.472,-0.533 -4.642,-1.6 -1.171,-1.066 -1.757,-2.394 -1.757,-3.983 0,-1.631 0.585,-2.98 1.757,-4.046 z m 9.974,13.895 V 50.499 H 40.336 V 15.495 Z"
     id="path75"
     style="fill:#ffffff"
     inkscape:connector-curvature="0" /><path
     d="M 93.28,15.495 V 50.499 H 82.49 v -6.336 c -1.004,2.049 -2.5,3.68 -4.485,4.893 -1.987,1.214 -4.297,1.819 -6.932,1.819 -4.015,0 -7.204,-1.338 -9.566,-4.015 -2.363,-2.676 -3.544,-6.356 -3.544,-11.041 V 15.495 h 10.664 v 19.007 c 0,2.384 0.617,4.234 1.851,5.552 1.233,1.317 2.896,1.976 4.987,1.976 2.174,0 3.889,-0.69 5.144,-2.07 1.254,-1.38 1.882,-3.345 1.882,-5.897 V 15.495 Z"
     id="path77"
     style="fill:#ffffff"
     inkscape:connector-curvature="0" /><path
     d="m 120.88,16.875 c 1.923,1.213 3.325,2.865 4.203,4.956 V 4.078 h 10.727 v 46.421 h -10.727 v -6.336 c -0.878,2.092 -2.28,3.743 -4.203,4.956 -1.924,1.213 -4.225,1.819 -6.9,1.819 -2.886,0 -5.468,-0.721 -7.747,-2.164 -2.28,-1.443 -4.078,-3.523 -5.395,-6.242 -1.317,-2.718 -1.976,-5.897 -1.976,-9.535 0,-3.679 0.659,-6.869 1.976,-9.566 1.317,-2.697 3.115,-4.768 5.395,-6.21 2.279,-1.443 4.861,-2.164 7.747,-2.164 2.676,-0.002 4.977,0.605 6.9,1.818 z m -9.002,9.848 c -1.401,1.506 -2.102,3.597 -2.102,6.273 0,2.677 0.7,4.768 2.102,6.273 1.401,1.506 3.251,2.258 5.552,2.258 2.258,0 4.109,-0.773 5.552,-2.321 1.443,-1.547 2.164,-3.617 2.164,-6.21 0,-2.635 -0.721,-4.715 -2.164,-6.242 -1.443,-1.526 -3.293,-2.29 -5.552,-2.29 -2.3,0.001 -4.151,0.754 -5.552,2.259 z"
     id="path79"
     style="fill:#ffffff"
     inkscape:connector-curvature="0" /><path
     d="m 163.412,16.875 c 1.923,1.213 3.345,2.865 4.266,4.956 v -6.336 h 10.664 v 35.004 h -10.664 v -6.336 c -0.92,2.092 -2.343,3.743 -4.266,4.956 -1.924,1.213 -4.225,1.819 -6.9,1.819 -2.886,0 -5.468,-0.721 -7.747,-2.164 -2.28,-1.443 -4.078,-3.523 -5.395,-6.242 -1.317,-2.718 -1.976,-5.897 -1.976,-9.535 0,-3.679 0.659,-6.869 1.976,-9.566 1.317,-2.697 3.115,-4.768 5.395,-6.21 2.279,-1.443 4.861,-2.164 7.747,-2.164 2.675,-0.002 4.976,0.605 6.9,1.818 z m -9.002,9.848 c -1.401,1.506 -2.102,3.597 -2.102,6.273 0,2.677 0.7,4.768 2.102,6.273 1.401,1.506 3.251,2.258 5.552,2.258 2.258,0 4.109,-0.773 5.552,-2.321 1.443,-1.547 2.164,-3.617 2.164,-6.21 0,-2.635 -0.721,-4.715 -2.164,-6.242 -1.443,-1.526 -3.293,-2.29 -5.552,-2.29 -2.301,0.001 -4.151,0.754 -5.552,2.259 z"
     id="path81"
     style="fill:#ffffff"
     inkscape:connector-curvature="0" /><path
     d="m 205.942,16.875 c 1.923,1.213 3.325,2.865 4.203,4.956 V 4.078 h 10.727 v 46.421 h -10.727 v -6.336 c -0.878,2.092 -2.28,3.743 -4.203,4.956 -1.924,1.213 -4.225,1.819 -6.9,1.819 -2.886,0 -5.468,-0.721 -7.747,-2.164 -2.28,-1.443 -4.078,-3.523 -5.395,-6.242 -1.317,-2.718 -1.976,-5.897 -1.976,-9.535 0,-3.679 0.659,-6.869 1.976,-9.566 1.317,-2.697 3.115,-4.768 5.395,-6.21 2.279,-1.443 4.861,-2.164 7.747,-2.164 2.676,-0.002 4.977,0.605 6.9,1.818 z m -9.002,9.848 c -1.401,1.506 -2.102,3.597 -2.102,6.273 0,2.677 0.7,4.768 2.102,6.273 1.401,1.506 3.251,2.258 5.552,2.258 2.258,0 4.109,-0.773 5.552,-2.321 1.443,-1.547 2.164,-3.617 2.164,-6.21 0,-2.635 -0.721,-4.715 -2.164,-6.242 -1.443,-1.526 -3.293,-2.29 -5.552,-2.29 -2.3,0.001 -4.151,0.754 -5.552,2.259 z"
     id="path83"
     style="fill:#ffffff"
     inkscape:connector-curvature="0" /><path
     d="m 261.208,34.941 h -24.277 c 0.125,2.635 0.794,4.527 2.007,5.677 1.212,1.151 2.76,1.725 4.642,1.725 1.589,0 2.906,-0.397 3.952,-1.192 1.045,-0.794 1.735,-1.819 2.07,-3.074 h 11.354 c -0.46,2.468 -1.464,4.673 -3.011,6.618 -1.547,1.945 -3.513,3.472 -5.896,4.579 -2.384,1.108 -5.04,1.662 -7.967,1.662 -3.43,0 -6.472,-0.721 -9.127,-2.164 -2.656,-1.443 -4.736,-3.523 -6.242,-6.242 -1.505,-2.718 -2.258,-5.897 -2.258,-9.535 0,-3.679 0.742,-6.869 2.227,-9.566 1.484,-2.697 3.565,-4.768 6.242,-6.21 2.676,-1.443 5.729,-2.164 9.159,-2.164 3.471,0 6.524,0.712 9.159,2.133 2.635,1.422 4.673,3.419 6.116,5.991 1.443,2.572 2.164,5.531 2.164,8.876 -10e-4,0.879 -0.105,1.841 -0.314,2.886 z m -12.389,-9.692 c -1.276,-1.15 -2.854,-1.725 -4.736,-1.725 -1.966,0 -3.597,0.586 -4.893,1.756 -1.297,1.171 -2.029,2.886 -2.195,5.144 h 13.675 c 0.04,-2.299 -0.576,-4.024 -1.851,-5.175 z"
     id="path85"
     style="fill:#ffffff"
     inkscape:connector-curvature="0" /><path
     d="m 290.471,18.38 c 2.655,2.217 4.317,5.144 4.987,8.782 h -10.037 c -0.293,-1.421 -0.952,-2.541 -1.976,-3.356 -1.025,-0.815 -2.311,-1.223 -3.858,-1.223 -1.213,0 -2.133,0.261 -2.76,0.784 -0.627,0.523 -0.941,1.265 -0.941,2.227 0,1.088 0.574,1.904 1.725,2.447 1.15,0.544 2.958,1.088 5.426,1.631 2.676,0.627 4.872,1.265 6.586,1.913 1.714,0.649 3.2,1.705 4.454,3.168 1.254,1.464 1.882,3.429 1.882,5.897 0,2.007 -0.544,3.785 -1.631,5.332 -1.088,1.548 -2.656,2.76 -4.705,3.638 -2.049,0.878 -4.475,1.317 -7.276,1.317 -4.727,0 -8.511,-1.045 -11.354,-3.137 -2.844,-2.091 -4.579,-5.081 -5.207,-8.97 h 10.351 c 0.167,1.506 0.805,2.656 1.913,3.45 1.108,0.795 2.541,1.192 4.297,1.192 1.212,0 2.133,-0.282 2.76,-0.847 0.627,-0.564 0.941,-1.306 0.941,-2.227 0,-1.212 -0.576,-2.08 -1.725,-2.603 -1.151,-0.522 -3.022,-1.076 -5.615,-1.662 -2.593,-0.543 -4.726,-1.129 -6.398,-1.757 -1.673,-0.627 -3.116,-1.641 -4.329,-3.042 -1.213,-1.401 -1.819,-3.314 -1.819,-5.74 0,-3.136 1.192,-5.677 3.576,-7.622 2.384,-1.945 5.75,-2.917 10.1,-2.917 4.433,0 7.977,1.109 10.633,3.325 z"
     id="path87"
     style="fill:#ffffff"
     inkscape:connector-curvature="0" /><path
     d="m 341.627,18.788 c 3.052,2.489 4.977,5.907 5.771,10.257 h -11.354 c -0.335,-1.506 -1.025,-2.676 -2.07,-3.513 -1.046,-0.836 -2.363,-1.255 -3.952,-1.255 -1.882,0 -3.43,0.743 -4.642,2.227 -1.213,1.485 -1.819,3.649 -1.819,6.492 0,2.844 0.606,5.009 1.819,6.493 1.212,1.485 2.76,2.227 4.642,2.227 1.589,0 2.906,-0.418 3.952,-1.255 1.045,-0.836 1.735,-2.007 2.07,-3.513 h 11.354 c -0.795,4.35 -2.719,7.769 -5.771,10.256 -3.053,2.489 -6.837,3.733 -11.354,3.733 -3.43,0 -6.472,-0.721 -9.127,-2.164 -2.656,-1.443 -4.736,-3.523 -6.242,-6.242 -1.505,-2.718 -2.258,-5.897 -2.258,-9.535 0,-3.679 0.742,-6.869 2.227,-9.566 1.484,-2.697 3.565,-4.768 6.242,-6.21 2.676,-1.443 5.729,-2.164 9.159,-2.164 4.516,-10e-4 8.3,1.244 11.353,3.732 z"
     id="path89"
     style="fill:#ffffff"
     inkscape:connector-curvature="0" /><path
     d="m 378.669,17.22 c 2.739,1.443 4.893,3.524 6.461,6.242 1.568,2.719 2.353,5.897 2.353,9.535 0,3.638 -0.784,6.817 -2.353,9.535 -1.568,2.719 -3.723,4.799 -6.461,6.242 -2.739,1.443 -5.845,2.164 -9.315,2.164 -3.472,0 -6.586,-0.721 -9.347,-2.164 -2.761,-1.443 -4.924,-3.523 -6.493,-6.242 -1.568,-2.718 -2.353,-5.897 -2.353,-9.535 0,-3.638 0.784,-6.816 2.353,-9.535 1.568,-2.718 3.732,-4.799 6.493,-6.242 2.76,-1.443 5.875,-2.164 9.347,-2.164 3.471,-10e-4 6.576,0.721 9.315,2.164 z m -14.49,9.347 c -1.401,1.485 -2.102,3.628 -2.102,6.43 0,2.802 0.7,4.935 2.102,6.399 1.401,1.464 3.126,2.196 5.175,2.196 2.049,0 3.764,-0.731 5.144,-2.196 1.38,-1.463 2.07,-3.596 2.07,-6.399 0,-2.801 -0.69,-4.945 -2.07,-6.43 -1.38,-1.484 -3.095,-2.227 -5.144,-2.227 -2.049,0 -3.774,0.743 -5.175,2.227 z"
     id="path91"
     style="fill:#ffffff"
     inkscape:connector-curvature="0" /><path
     d="m 448.583,19.102 c 2.467,2.656 3.701,6.347 3.701,11.072 V 50.499 H 441.62 v -19.07 c 0,-2.216 -0.596,-3.941 -1.788,-5.175 -1.192,-1.233 -2.813,-1.851 -4.862,-1.851 -2.133,0 -3.816,0.659 -5.05,1.976 -1.234,1.317 -1.851,3.168 -1.851,5.552 v 18.568 h -10.727 v -19.07 c 0,-2.216 -0.586,-3.941 -1.757,-5.175 -1.171,-1.233 -2.781,-1.851 -4.83,-1.851 -2.133,0 -3.827,0.649 -5.081,1.945 -1.255,1.297 -1.882,3.158 -1.882,5.583 V 50.499 H 393.065 V 15.495 h 10.727 v 5.959 c 0.919,-1.965 2.331,-3.513 4.234,-4.642 1.902,-1.129 4.129,-1.694 6.681,-1.694 2.676,0 5.039,0.617 7.088,1.851 2.049,1.234 3.596,3.001 4.642,5.301 1.212,-2.174 2.875,-3.91 4.987,-5.207 2.111,-1.296 4.443,-1.945 6.994,-1.945 4.309,0 7.696,1.328 10.165,3.984 z"
     id="path93"
     style="fill:#ffffff"
     inkscape:connector-curvature="0" /><path
     d="m 494.25,15.495 v 35.004 h -10.79 v -6.336 c -1.004,2.049 -2.5,3.68 -4.485,4.893 -1.987,1.214 -4.297,1.819 -6.932,1.819 -4.015,0 -7.204,-1.338 -9.566,-4.015 -2.363,-2.676 -3.544,-6.356 -3.544,-11.041 V 15.495 h 10.664 v 19.007 c 0,2.384 0.617,4.234 1.851,5.552 1.233,1.317 2.896,1.976 4.987,1.976 2.174,0 3.889,-0.69 5.144,-2.07 1.254,-1.38 1.882,-3.345 1.882,-5.897 V 15.495 Z"
     id="path95"
     style="fill:#ffffff"
     inkscape:connector-curvature="0" /><path
     d="m 533.425,19.133 c 2.362,2.677 3.544,6.357 3.544,11.041 v 20.325 h -10.727 v -19.07 c 0,-2.342 -0.618,-4.172 -1.851,-5.489 -1.234,-1.317 -2.876,-1.976 -4.924,-1.976 -2.175,0 -3.9,0.69 -5.175,2.07 -1.276,1.38 -1.913,3.346 -1.913,5.896 V 50.498 H 501.652 V 15.495 h 10.727 v 6.398 c 1.003,-2.091 2.498,-3.742 4.485,-4.956 1.986,-1.212 4.318,-1.819 6.995,-1.819 4.014,0 7.203,1.339 9.566,4.015 z"
     id="path97"
     style="fill:#ffffff"
     inkscape:connector-curvature="0" /><path
     d="m 576.991,34.941 h -24.277 c 0.125,2.635 0.794,4.527 2.007,5.677 1.212,1.151 2.76,1.725 4.642,1.725 1.589,0 2.906,-0.397 3.952,-1.192 1.045,-0.794 1.735,-1.819 2.07,-3.074 h 11.354 c -0.46,2.468 -1.464,4.673 -3.011,6.618 -1.547,1.945 -3.513,3.472 -5.896,4.579 -2.384,1.108 -5.04,1.662 -7.967,1.662 -3.43,0 -6.472,-0.721 -9.127,-2.164 -2.656,-1.443 -4.736,-3.523 -6.242,-6.242 -1.505,-2.718 -2.258,-5.897 -2.258,-9.535 0,-3.679 0.742,-6.869 2.227,-9.566 1.484,-2.697 3.565,-4.768 6.242,-6.21 2.676,-1.443 5.729,-2.164 9.159,-2.164 3.471,0 6.524,0.712 9.159,2.133 2.635,1.422 4.673,3.419 6.116,5.991 1.443,2.572 2.164,5.531 2.164,8.876 -10e-4,0.879 -0.106,1.841 -0.314,2.886 z m -12.389,-9.692 c -1.276,-1.15 -2.854,-1.725 -4.736,-1.725 -1.966,0 -3.597,0.586 -4.893,1.756 -1.297,1.171 -2.029,2.886 -2.195,5.144 h 13.675 c 0.04,-2.299 -0.577,-4.024 -1.851,-5.175 z"
     id="path99"
     style="fill:#ffffff"
     inkscape:connector-curvature="0" /><path
     d="m 606.254,18.38 c 2.655,2.217 4.317,5.144 4.987,8.782 h -10.037 c -0.293,-1.421 -0.952,-2.541 -1.976,-3.356 -1.025,-0.815 -2.311,-1.223 -3.858,-1.223 -1.213,0 -2.133,0.261 -2.76,0.784 -0.627,0.523 -0.941,1.265 -0.941,2.227 0,1.088 0.574,1.904 1.725,2.447 1.15,0.544 2.958,1.088 5.426,1.631 2.676,0.627 4.872,1.265 6.586,1.913 1.714,0.649 3.2,1.705 4.454,3.168 1.254,1.464 1.882,3.429 1.882,5.897 0,2.007 -0.544,3.785 -1.631,5.332 -1.088,1.548 -2.656,2.76 -4.705,3.638 -2.049,0.878 -4.475,1.317 -7.276,1.317 -4.727,0 -8.511,-1.045 -11.354,-3.137 -2.844,-2.091 -4.579,-5.081 -5.207,-8.97 h 10.351 c 0.167,1.506 0.805,2.656 1.913,3.45 1.108,0.795 2.541,1.192 4.297,1.192 1.212,0 2.133,-0.282 2.76,-0.847 0.627,-0.564 0.941,-1.306 0.941,-2.227 0,-1.212 -0.576,-2.08 -1.725,-2.603 -1.151,-0.522 -3.022,-1.076 -5.615,-1.662 -2.593,-0.543 -4.726,-1.129 -6.398,-1.757 -1.673,-0.627 -3.116,-1.641 -4.329,-3.042 -1.213,-1.401 -1.819,-3.314 -1.819,-5.74 0,-3.136 1.192,-5.677 3.576,-7.622 2.384,-1.945 5.75,-2.917 10.1,-2.917 4.432,0 7.977,1.109 10.633,3.325 z"
     id="path101"
     style="fill:#ffffff"
     inkscape:connector-curvature="0" /><path
     d="m 636.208,57.21 h -5.771 V 0.565 h 5.771 z"
     id="path103"
     style="fill:#ffffff"
     inkscape:connector-curvature="0" /></g>
<g
   aria-label="congreso"
   style="font-style:normal;font-variant:normal;font-weight:normal;font-stretch:normal;font-size:40px;line-height:4.25;font-family:Poppins;-inkscape-font-specification:Poppins;letter-spacing:0px;word-spacing:0px;fill:#ffffff;fill-opacity:1;stroke:none"
   id="text1496"
   transform="translate(0.972485,2.3142062)"><path
     d="m 671.6626,12.312187 q 6.72,0 11.136,3.584 4.416,3.584 5.44,9.6 h -6.144 q -0.64,-3.776 -3.52,-5.888 -2.816,-2.176 -7.04,-2.176 -3.072,0 -5.632,1.408 -2.496,1.408 -4.032,4.352 -1.536,2.88 -1.536,7.168 0,4.288 1.536,7.232 1.536,2.88 4.032,4.288 2.56,1.408 5.632,1.408 4.224,0 7.04,-2.176 2.88,-2.176 3.52,-5.952 h 6.144 q -1.024,6.08 -5.44,9.664 -4.416,3.52 -11.136,3.52 -5.056,0 -8.96,-2.176 -3.904,-2.176 -6.144,-6.208 -2.176,-4.096 -2.176,-9.6 0,-5.504 2.176,-9.6 2.24,-4.096 6.144,-6.272 3.904,-2.176 8.96,-2.176 z"
     style="font-size:64px;line-height:1.25;fill:#ffffff"
     id="path1606"
     inkscape:connector-curvature="0" /><path
     d="m 711.7966,12.312187 q 5.056,0 9.024,2.176 4.032,2.176 6.272,6.272 2.304,4.096 2.304,9.6 0,5.504 -2.304,9.6 -2.24,4.032 -6.272,6.208 -3.968,2.176 -9.024,2.176 -5.056,0 -9.088,-2.176 -3.968,-2.176 -6.272,-6.208 -2.304,-4.096 -2.304,-9.6 0,-5.504 2.304,-9.6 2.304,-4.096 6.272,-6.272 4.032,-2.176 9.088,-2.176 z m 0,5.12 q -3.136,0 -5.824,1.408 -2.624,1.408 -4.288,4.352 -1.6,2.88 -1.6,7.168 0,4.224 1.6,7.168 1.664,2.88 4.288,4.288 2.688,1.408 5.824,1.408 3.136,0 5.76,-1.408 2.688,-1.408 4.288,-4.288 1.664,-2.944 1.664,-7.168 0,-4.288 -1.664,-7.168 -1.6,-2.944 -4.288,-4.352 -2.624,-1.408 -5.76,-1.408 z"
     style="font-size:64px;line-height:1.25;fill:#ffffff"
     id="path1608"
     inkscape:connector-curvature="0" /><path
     d="m 755.4816,12.184187 q 6.144,0 9.92,3.968 3.776,3.904 3.776,11.328 v 20.416 h -5.824 v -19.904 q 0,-5.248 -2.688,-8.064 -2.688,-2.816 -7.296,-2.816 -4.8,0 -7.68,3.136 -2.88,3.072 -2.88,9.024 v 18.624 h -5.824 v -35.136 h 5.824 v 8.32 q 1.344,-4.288 4.736,-6.592 3.456,-2.304 7.936,-2.304 z"
     style="font-size:64px;line-height:1.25;fill:#ffffff"
     id="path1610"
     inkscape:connector-curvature="0" /><path
     d="m 792.5106,12.312187 q 5.12,0 8.64,2.56 3.584,2.56 4.992,6.848 v -8.96 h 5.824 v 35.712 q 0,4.864 -2.048,8.64 -2.048,3.776 -5.76,5.888 -3.712,2.112 -8.64,2.112 -7.104,0 -11.584,-3.456 -4.48,-3.392 -5.696,-9.216 h 5.76 q 1.024,3.52 3.84,5.504 2.88,2.048 7.36,2.048 4.736,0 7.808,-3.072 3.136,-3.008 3.136,-8.448 v -9.536 q -1.408,4.288 -4.992,6.848 -3.52,2.56 -8.64,2.56 -4.672,0 -8.32,-2.176 -3.648,-2.176 -5.76,-6.208 -2.048,-4.096 -2.048,-9.6 0,-5.504 2.048,-9.6 2.112,-4.096 5.76,-6.272 3.648,-2.176 8.32,-2.176 z m 1.664,5.184 q -5.376,0 -8.64,3.456 -3.2,3.392 -3.2,9.408 0,6.016 3.2,9.472 3.264,3.392 8.64,3.392 3.456,0 6.144,-1.6 2.752,-1.6 4.288,-4.48 1.536,-2.944 1.536,-6.784 0,-3.84 -1.536,-6.784 -1.536,-2.944 -4.288,-4.48 -2.688,-1.6 -6.144,-1.6 z"
     style="font-size:64px;line-height:1.25;fill:#ffffff"
     id="path1612"
     inkscape:connector-curvature="0" /><path
     d="m 827.0596,19.864187 q 1.728,-3.648 5.056,-5.632 3.328,-2.048 7.936,-2.048 v 6.336 h -1.792 q -4.928,0 -8.064,2.56 -3.136,2.496 -3.136,8.32 v 18.496 h -5.824 v -35.136 h 5.824 z"
     style="font-size:64px;line-height:1.25;fill:#ffffff"
     id="path1614"
     inkscape:connector-curvature="0" /><path
     d="m 878.1806,28.376187 q 0,1.856 -0.256,3.2 h -28.096 q 0.192,6.016 3.392,9.024 3.264,3.008 7.936,3.008 4.224,0 7.04,-2.112 2.88,-2.176 3.52,-5.76 h 6.208 q -0.64,3.648 -2.88,6.528 -2.176,2.88 -5.696,4.48 -3.52,1.6 -7.936,1.6 -5.056,0 -8.96,-2.176 -3.904,-2.176 -6.144,-6.208 -2.176,-4.096 -2.176,-9.6 0,-5.504 2.176,-9.6 2.24,-4.096 6.144,-6.272 3.904,-2.176 8.96,-2.176 5.12,0 8.896,2.176 3.84,2.176 5.824,5.824 2.048,3.648 2.048,8.064 z m -5.888,0.384 q 0.192,-3.904 -1.28,-6.528 -1.472,-2.624 -4.032,-3.904 -2.56,-1.28 -5.568,-1.28 -4.8,0 -8.064,3.008 -3.264,2.944 -3.52,8.704 z"
     style="font-size:64px;line-height:1.25;fill:#ffffff"
     id="path1616"
     inkscape:connector-curvature="0" /><path
     d="m 896.7436,12.312187 q 5.952,0 9.536,3.136 3.648,3.072 4.416,8.32 h -5.568 q -0.384,-3.136 -2.624,-5.12 -2.176,-2.048 -5.888,-2.048 -3.136,0 -4.928,1.536 -1.728,1.472 -1.728,4.032 0,1.92 1.152,3.136 1.216,1.152 2.944,1.792 1.792,0.576 4.864,1.28 3.904,0.896 6.272,1.856 2.432,0.896 4.096,2.944 1.728,2.048 1.728,5.504 0,4.288 -3.264,6.976 -3.2,2.688 -8.576,2.688 -6.272,0 -10.24,-3.008 -3.968,-3.008 -4.672,-8.384 h 5.632 q 0.32,3.2 2.752,5.184 2.496,1.984 6.528,1.984 3.008,0 4.672,-1.536 1.728,-1.536 1.728,-4.032 0,-2.048 -1.216,-3.264 -1.216,-1.216 -3.008,-1.856 -1.792,-0.64 -4.928,-1.344 -3.904,-0.896 -6.272,-1.792 -2.304,-0.896 -3.968,-2.816 -1.6,-1.984 -1.6,-5.312 0,-4.416 3.264,-7.104 3.264,-2.752 8.896,-2.752 z"
     style="font-size:64px;line-height:1.25;fill:#ffffff"
     id="path1618"
     inkscape:connector-curvature="0" /><path
     d="m 934.7966,12.312187 q 5.056,0 9.024,2.176 4.032,2.176 6.272,6.272 2.304,4.096 2.304,9.6 0,5.504 -2.304,9.6 -2.24,4.032 -6.272,6.208 -3.968,2.176 -9.024,2.176 -5.056,0 -9.088,-2.176 -3.968,-2.176 -6.272,-6.208 -2.304,-4.096 -2.304,-9.6 0,-5.504 2.304,-9.6 2.304,-4.096 6.272,-6.272 4.032,-2.176 9.088,-2.176 z m 0,5.12 q -3.136,0 -5.824,1.408 -2.624,1.408 -4.288,4.352 -1.6,2.88 -1.6,7.168 0,4.224 1.6,7.168 1.664,2.88 4.288,4.288 2.688,1.408 5.824,1.408 3.136,0 5.76,-1.408 2.688,-1.408 4.288,-4.288 1.664,-2.944 1.664,-7.168 0,-4.288 -1.664,-7.168 -1.6,-2.944 -4.288,-4.352 -2.624,-1.408 -5.76,-1.408 z"
     style="font-size:64px;line-height:1.25;fill:#ffffff"
     id="path1620"
     inkscape:connector-curvature="0" /></g></svg>