<?xml version="1.0" encoding="utf-8"?>
<!-- Generator: Adobe Illustrator 17.0.0, SVG Export Plug-In . SVG Version: 6.00 Build 0)  -->
<!DOCTYPE svg PUBLIC "-//W3C//DTD SVG 1.1//EN" "http://www.w3.org/Graphics/SVG/1.1/DTD/svg11.dtd">
<svg version="1.1" id="Layer_1" xmlns="http://www.w3.org/2000/svg" xmlns:xlink="http://www.w3.org/1999/xlink" x="0px" y="0px"
	 width="100%" height="100%" viewBox="0 0 1440 360" enable-background="new 0 0 1440 360" xml:space="preserve">
<rect fill="#F26724" width="360" height="360"/>
<rect x="360" fill="#2AAAE2" width="360" height="360"/>
<rect x="720" fill="#FFDE11" width="360" height="360"/>
<rect x="1080" fill="#2AAAE2" width="360" height="360"/>
<g>
	<circle fill="#FFDE11" cx="180" cy="75.07" r="74.558"/>
	<circle fill="#FFDE11" cx="285.442" cy="180.512" r="74.558"/>
	<circle fill="#FFDE11" cx="74.558" cy="180.512" r="74.558"/>
	<circle fill="#FFDE11" cx="180" cy="285.953" r="74.558"/>
</g>
<g>
	<polygon fill="#F6ADCA" points="720,360 540,270 720,180 	"/>
	<polygon fill="#F6ADCA" points="360,0 540,90 360,180 	"/>
	<polygon fill="#F6ADCA" points="720,180 540,90 720,0 	"/>
	<polygon fill="#F6ADCA" points="360,180 540,270 360,360 	"/>
</g>
<g>
	<rect x="1222.013" y="241.92" fill="#8DC641" width="75.974" height="118.08"/>
	<path fill="#8DC641" d="M1398.504,146.255c0-34.976-28.354-63.33-63.33-63.33c-4.154,0-8.211,0.412-12.142,1.176
		c-3.067-32.116-30.112-57.236-63.032-57.236c-32.92,0-59.965,25.12-63.032,57.236c-3.931-0.764-7.988-1.176-12.142-1.176
		c-34.976,0-63.33,28.354-63.33,63.33c0,25.609,15.209,47.652,37.08,57.63c-6.167,9.771-9.749,21.336-9.749,33.745
		c0,34.976,28.354,63.33,63.33,63.33c17.619,0,33.552-7.2,45.032-18.812c11.48,11.612,27.413,18.812,45.031,18.812
		c34.976,0,63.33-28.354,63.33-63.33c0-11.629-3.149-22.516-8.618-31.882C1381.19,196.874,1398.504,173.587,1398.504,146.255z"/>
</g>
<g>
	<g>
		<circle fill="#2AAAE2" cx="841.479" cy="288.044" r="36.015"/>
		<circle fill="#2AAAE2" cx="958.521" cy="288.044" r="36.015"/>
	</g>
	<rect x="755.942" y="35.942" fill="#F26724" width="288.117" height="252.102"/>
	<rect x="805.465" y="85.993" fill="#FFDE11" width="72.029" height="72.029"/>
	<rect x="922.506" y="85.993" fill="#FFDE11" width="72.029" height="72.029"/>
</g>
</svg>
