<?xml version="1.0" encoding="UTF-8" standalone="no"?>
<!-- Generator: Adobe Illustrator 17.0.0, SVG Export Plug-In . SVG Version: 6.00 Build 0)  -->

<svg
   xmlns:dc="http://purl.org/dc/elements/1.1/"
   xmlns:cc="http://creativecommons.org/ns#"
   xmlns:rdf="http://www.w3.org/1999/02/22-rdf-syntax-ns#"
   xmlns:svg="http://www.w3.org/2000/svg"
   xmlns="http://www.w3.org/2000/svg"
   xmlns:sodipodi="http://sodipodi.sourceforge.net/DTD/sodipodi-0.dtd"
   xmlns:inkscape="http://www.inkscape.org/namespaces/inkscape"
   version="1.1"
   id="Layer_1"
   x="0px"
   y="0px"
   width="100%"
   height="100%"
   viewBox="0 0 530 60"
   enable-background="new 0 0 530 60"
   xml:space="preserve"
   sodipodi:docname="consulta-oradores.svg"
   inkscape:version="0.92.3 (2405546, 2018-03-11)"><metadata
   id="metadata13"><rdf:RDF><cc:Work
       rdf:about=""><dc:format>image/svg+xml</dc:format><dc:type
         rdf:resource="http://purl.org/dc/dcmitype/StillImage" /><dc:title></dc:title></cc:Work></rdf:RDF></metadata><defs
   id="defs11" /><sodipodi:namedview
   pagecolor="#ffffff"
   bordercolor="#666666"
   borderopacity="1"
   objecttolerance="10"
   gridtolerance="10"
   guidetolerance="10"
   inkscape:pageopacity="0"
   inkscape:pageshadow="2"
   inkscape:window-width="756"
   inkscape:window-height="480"
   id="namedview9"
   showgrid="false"
   inkscape:zoom="0.64528302"
   inkscape:cx="265"
   inkscape:cy="30"
   inkscape:window-x="0"
   inkscape:window-y="0"
   inkscape:window-maximized="0"
   inkscape:current-layer="Layer_1" />
<rect
   fill="#FFDE11"
   width="530"
   height="60"
   id="rect2" />
<g
   id="g6">
	
		<g
   aria-label="CONOCÉ A LAS Y LOS ORADORES"
   transform="matrix(1 0 0 1 23.5708 38.5645)"
   style="font-size:23.15229988px;font-family:Poppins-Regular;letter-spacing:4;fill:#010101"
   id="text4"><path
     d="m 14.911076,-15.578061 v 2.407929 q -1.153093,-1.073959 -2.464454,-1.605286 -1.300056,-0.531327 -2.7696842,-0.531327 -2.8940374,0 -4.4314949,1.774859 -1.5374574,1.763554 -1.5374574,5.1097847 0,3.334926 1.5374574,5.109785 1.5374575,1.7635541 4.4314949,1.7635541 1.4696282,0 2.7696842,-0.5313272 1.311361,-0.5313272 2.464454,-1.6052865 v 2.38532 q -1.198312,0.81394804 -2.543588,1.22092206 -1.33397,0.40697402 -2.8262082,0.40697402 -3.8323387,0 -6.0367813,-2.34010058 -2.2044426,-2.3514055 -2.2044426,-6.4098409 0,-4.0697397 2.2044426,-6.4098407 2.2044426,-2.351406 6.0367813,-2.351406 1.5148482,0 2.8488182,0.406974 1.345275,0.39567 2.520978,1.198313 z"
     style="font-size:23.15229988px;font-family:Poppins-Regular;letter-spacing:4;fill:#010101"
     id="path820" /><path
     d="m 29.311523,-15.329355 q -2.487063,0 -3.956692,1.853993 -1.458323,1.853993 -1.458323,5.0532607 0,3.1879632 1.458323,5.041956 1.469629,1.8539927 3.956692,1.8539927 2.487064,0 3.934083,-1.8539927 1.458323,-1.8539928 1.458323,-5.041956 0,-3.1992677 -1.458323,-5.0532607 -1.447019,-1.853993 -3.934083,-1.853993 z m 0,-1.853993 q 3.549718,0 5.675027,2.38532 2.125309,2.374016 2.125309,6.3759267 0,3.9906064 -2.125309,6.3759264 -2.125309,2.37401508 -5.675027,2.37401508 -3.561022,0 -5.697636,-2.37401508 -2.125309,-2.3740152 -2.125309,-6.3759264 0,-4.0019107 2.125309,-6.3759267 2.136614,-2.38532 5.697636,-2.38532 z"
     style="font-size:23.15229988px;font-family:Poppins-Regular;letter-spacing:4;fill:#010101"
     id="path822" /><path
     d="m 44.684186,-16.878117 h 3.074915 l 7.4838,14.1197375 V -16.878117 h 2.215748 V 0 h -3.074915 l -7.4838,-14.119738 V 0 h -2.215748 z"
     style="font-size:23.15229988px;font-family:Poppins-Regular;letter-spacing:4;fill:#010101"
     id="path824" /><path
     d="m 72.85392,-15.329355 q -2.487064,0 -3.956692,1.853993 -1.458324,1.853993 -1.458324,5.0532607 0,3.1879632 1.458324,5.041956 1.469628,1.8539927 3.956692,1.8539927 2.487063,0 3.934082,-1.8539927 1.458324,-1.8539928 1.458324,-5.041956 0,-3.1992677 -1.458324,-5.0532607 -1.447019,-1.853993 -3.934082,-1.853993 z m 0,-1.853993 q 3.549718,0 5.675026,2.38532 2.125309,2.374016 2.125309,6.3759267 0,3.9906064 -2.125309,6.3759264 -2.125308,2.37401508 -5.675026,2.37401508 -3.561023,0 -5.697636,-2.37401508 -2.125309,-2.3740152 -2.125309,-6.3759264 0,-4.0019107 2.125309,-6.3759267 2.136613,-2.38532 5.697636,-2.38532 z"
     style="font-size:23.15229988px;font-family:Poppins-Regular;letter-spacing:4;fill:#010101"
     id="path826" /><path
     d="m 100.86539,-15.578061 v 2.407929 q -1.153092,-1.073959 -2.464453,-1.605286 -1.300056,-0.531327 -2.769684,-0.531327 -2.894037,0 -4.431495,1.774859 -1.537457,1.763554 -1.537457,5.1097847 0,3.334926 1.537457,5.109785 1.537458,1.7635541 4.431495,1.7635541 1.469628,0 2.769684,-0.5313272 1.311361,-0.5313272 2.464453,-1.6052865 v 2.38532 q -1.198311,0.81394804 -2.543586,1.22092206 -1.333971,0.40697402 -2.826209,0.40697402 -3.832339,0 -6.036781,-2.34010058 -2.204443,-2.3514055 -2.204443,-6.4098409 0,-4.0697397 2.204443,-6.4098407 2.204442,-2.351406 6.036781,-2.351406 1.514848,0 2.848818,0.406974 1.345275,0.39567 2.520977,1.198313 z"
     style="font-size:23.15229988px;font-family:Poppins-Regular;letter-spacing:4;fill:#010101"
     id="path828" /><path
     d="m 108.41511,-16.878117 h 10.67176 v 1.921822 h -8.38818 v 4.9967363 h 8.03773 v 1.9218218 h -8.03773 v 6.1159151 h 8.59167 V 0 h -10.87525 z m 5.92373,-4.589763 h 2.0914 l -2.57751,2.984477 h -1.72964 z"
     style="font-size:23.15229988px;font-family:Poppins-Regular;letter-spacing:4;fill:#010101"
     id="path830" /><path
     d="m 144.07804,-14.628455 -3.09752,8.3994915 h 6.20635 z m -1.28875,-2.249662 h 2.58881 L 151.81055,0 h -2.37402 l -1.53745,-4.3297514 h -7.60816 L 138.75346,0 h -2.40793 z"
     style="font-size:23.15229988px;font-family:Poppins-Regular;letter-spacing:4;fill:#010101"
     id="path832" /><path
     d="m 169.63444,-16.878117 h 2.28358 v 14.9562952 h 8.21861 V 0 h -10.50219 z"
     style="font-size:23.15229988px;font-family:Poppins-Regular;letter-spacing:4;fill:#010101"
     id="path834" /><path
     d="m 192.7057,-14.628455 -3.09753,8.3994915 h 6.20636 z m -1.28875,-2.249662 h 2.5888 L 200.4382,0 h -2.37401 l -1.53746,-4.3297514 h -7.60815 L 187.38112,0 h -2.40793 z"
     style="font-size:23.15229988px;font-family:Poppins-Regular;letter-spacing:4;fill:#010101"
     id="path836" /><path
     d="m 217.00918,-16.32418 v 2.227052 q -1.30006,-0.621766 -2.45315,-0.926996 -1.15309,-0.305231 -2.22705,-0.305231 -1.8653,0 -2.88274,0.72351 -1.00613,0.723509 -1.00613,2.057479 0,1.119179 0.66699,1.695725 0.67829,0.565242 2.55489,0.915692 l 1.37919,0.2826208 q 2.55489,0.4861079 3.76451,1.7183348 1.22092,1.220922 1.22092,3.2784018 0,2.453149 -1.6505,3.71929038 -1.6392,1.2661414 -4.81586,1.2661414 -1.19831,0 -2.55489,-0.27131601 -1.34528,-0.27131601 -2.7923,-0.80264321 V -3.0975245 q 1.3905,0.7800335 2.72447,1.1757027 1.33397,0.3956692 2.62272,0.3956692 1.95573,0 3.01839,-0.7687287 1.06265,-0.7687287 1.06265,-2.1931378 0,-1.2435317 -0.76873,-1.9444314 -0.75742,-0.7008997 -2.49836,-1.0513496 l -1.3905,-0.271316 q -2.55489,-0.5087175 -3.69668,-1.5939816 -1.14179,-1.0852643 -1.14179,-3.0183903 0,-2.238357 1.57137,-3.527109 1.58268,-1.288751 4.35237,-1.288751 1.187,0 2.41923,0.214792 1.23223,0.214792 2.52098,0.644376 z"
     style="font-size:23.15229988px;font-family:Poppins-Regular;letter-spacing:4;fill:#010101"
     id="path838" /><path
     d="m 234.64089,-16.878117 h 2.45315 l 4.6802,6.941168 4.64629,-6.941168 h 2.45315 l -5.96895,8.8403801 V 0 h -2.29489 v -8.0377369 z"
     style="font-size:23.15229988px;font-family:Poppins-Regular;letter-spacing:4;fill:#010101"
     id="path840" /><path
     d="m 266.48278,-16.878117 h 2.28358 v 14.9562952 h 8.21861 V 0 h -10.50219 z"
     style="font-size:23.15229988px;font-family:Poppins-Regular;letter-spacing:4;fill:#010101"
     id="path842" /><path
     d="m 289.40709,-15.329355 q -2.48706,0 -3.95669,1.853993 -1.45833,1.853993 -1.45833,5.0532607 0,3.1879632 1.45833,5.041956 1.46963,1.8539927 3.95669,1.8539927 2.48706,0 3.93408,-1.8539927 1.45832,-1.8539928 1.45832,-5.041956 0,-3.1992677 -1.45832,-5.0532607 -1.44702,-1.853993 -3.93408,-1.853993 z m 0,-1.853993 q 3.54972,0 5.67503,2.38532 2.1253,2.374016 2.1253,6.3759267 0,3.9906064 -2.1253,6.3759264 -2.12531,2.37401508 -5.67503,2.37401508 -3.56102,0 -5.69764,-2.37401508 -2.12531,-2.3740152 -2.12531,-6.3759264 0,-4.0019107 2.12531,-6.3759267 2.13662,-2.38532 5.69764,-2.38532 z"
     style="font-size:23.15229988px;font-family:Poppins-Regular;letter-spacing:4;fill:#010101"
     id="path844" /><path
     d="m 314.89757,-16.32418 v 2.227052 q -1.30005,-0.621766 -2.45314,-0.926996 -1.1531,-0.305231 -2.22706,-0.305231 -1.86529,0 -2.88273,0.72351 -1.00613,0.723509 -1.00613,2.057479 0,1.119179 0.66699,1.695725 0.67829,0.565242 2.55489,0.915692 l 1.37919,0.2826208 q 2.55489,0.4861079 3.76451,1.7183348 1.22092,1.220922 1.22092,3.2784018 0,2.453149 -1.65051,3.71929038 -1.6392,1.2661414 -4.81586,1.2661414 -1.19831,0 -2.55489,-0.27131601 -1.34527,-0.27131601 -2.79229,-0.80264321 V -3.0975245 q 1.39049,0.7800335 2.72446,1.1757027 1.33397,0.3956692 2.62272,0.3956692 1.95574,0 3.0184,-0.7687287 1.06265,-0.7687287 1.06265,-2.1931378 0,-1.2435317 -0.76873,-1.9444314 -0.75742,-0.7008997 -2.49837,-1.0513496 l -1.39049,-0.271316 q -2.55489,-0.5087175 -3.69668,-1.5939816 -1.14179,-1.0852643 -1.14179,-3.0183903 0,-2.238357 1.57137,-3.527109 1.58268,-1.288751 4.35236,-1.288751 1.18701,0 2.41924,0.214792 1.23222,0.214792 2.52097,0.644376 z"
     style="font-size:23.15229988px;font-family:Poppins-Regular;letter-spacing:4;fill:#010101"
     id="path846" /><path
     d="m 341.69752,-15.329355 q -2.48706,0 -3.95669,1.853993 -1.45832,1.853993 -1.45832,5.0532607 0,3.1879632 1.45832,5.041956 1.46963,1.8539927 3.95669,1.8539927 2.48707,0 3.93409,-1.8539927 1.45832,-1.8539928 1.45832,-5.041956 0,-3.1992677 -1.45832,-5.0532607 -1.44702,-1.853993 -3.93409,-1.853993 z m 0,-1.853993 q 3.54972,0 5.67503,2.38532 2.12531,2.374016 2.12531,6.3759267 0,3.9906064 -2.12531,6.3759264 -2.12531,2.37401508 -5.67503,2.37401508 -3.56102,0 -5.69763,-2.37401508 -2.12531,-2.3740152 -2.12531,-6.3759264 0,-4.0019107 2.12531,-6.3759267 2.13661,-2.38532 5.69763,-2.38532 z"
     style="font-size:23.15229988px;font-family:Poppins-Regular;letter-spacing:4;fill:#010101"
     id="path848" /><path
     d="m 365.07401,-7.9133837 q 0.73481,0.2487063 1.42441,1.0626543 0.7009,0.8139481 1.4018,2.2383572 L 370.21771,0 h -2.45315 l -2.15923,-4.3297514 q -0.83655,-1.6957251 -1.62789,-2.2496619 -0.78004,-0.5539369 -2.13662,-0.5539369 h -2.48706 V 0 h -2.28358 v -16.878117 h 5.15501 q 2.89404,0 4.31845,1.209617 1.4244,1.209617 1.4244,3.651462 0,1.593981 -0.74611,2.6453307 -0.73482,1.0513495 -2.14792,1.4583236 z m -5.72025,-7.0881313 v 5.9915624 h 2.87143 q 1.6505,0 2.48706,-0.7574239 0.84786,-0.7687285 0.84786,-2.2496615 0,-1.480934 -0.84786,-2.227053 -0.83656,-0.757424 -2.48706,-0.757424 z"
     style="font-size:23.15229988px;font-family:Poppins-Regular;letter-spacing:4;fill:#010101"
     id="path850" /><path
     d="m 381.85976,-14.628455 -3.09752,8.3994915 h 6.20635 z m -1.28875,-2.249662 h 2.58881 L 389.59227,0 h -2.37401 l -1.53746,-4.3297514 h -7.60816 L 376.53519,0 h -2.40793 z"
     style="font-size:23.15229988px;font-family:Poppins-Regular;letter-spacing:4;fill:#010101"
     id="path852" /><path
     d="m 398.32901,-15.001515 v 13.1249126 h 2.75838 q 3.49319,0 5.10979,-1.5826768 1.62789,-1.5826767 1.62789,-4.9967366 0,-3.3914502 -1.62789,-4.9628222 -1.6166,-1.582677 -5.10979,-1.582677 z m -2.28358,-1.876602 h 4.69151 q 4.9063,0 7.20118,2.046175 2.29488,2.03487 2.29488,6.3759262 0,4.3636659 -2.30619,6.4098409 Q 405.62063,0 400.73694,0 h -4.69151 z"
     style="font-size:23.15229988px;font-family:Poppins-Regular;letter-spacing:4;fill:#010101"
     id="path854" /><path
     d="m 424.71257,-15.329355 q -2.48706,0 -3.95669,1.853993 -1.45833,1.853993 -1.45833,5.0532607 0,3.1879632 1.45833,5.041956 1.46963,1.8539927 3.95669,1.8539927 2.48706,0 3.93408,-1.8539927 1.45833,-1.8539928 1.45833,-5.041956 0,-3.1992677 -1.45833,-5.0532607 -1.44702,-1.853993 -3.93408,-1.853993 z m 0,-1.853993 q 3.54972,0 5.67503,2.38532 2.12531,2.374016 2.12531,6.3759267 0,3.9906064 -2.12531,6.3759264 -2.12531,2.37401508 -5.67503,2.37401508 -3.56102,0 -5.69764,-2.37401508 -2.12531,-2.3740152 -2.12531,-6.3759264 0,-4.0019107 2.12531,-6.3759267 2.13662,-2.38532 5.69764,-2.38532 z"
     style="font-size:23.15229988px;font-family:Poppins-Regular;letter-spacing:4;fill:#010101"
     id="path856" /><path
     d="m 448.08905,-7.9133837 q 0.73482,0.2487063 1.42441,1.0626543 0.7009,0.8139481 1.4018,2.2383572 L 453.23275,0 h -2.45315 l -2.15922,-4.3297514 q -0.83656,-1.6957251 -1.6279,-2.2496619 -0.78003,-0.5539369 -2.13661,-0.5539369 h -2.48706 V 0 h -2.28358 v -16.878117 h 5.155 q 2.89404,0 4.31845,1.209617 1.42441,1.209617 1.42441,3.651462 0,1.593981 -0.74612,2.6453307 -0.73481,1.0513495 -2.14792,1.4583236 z m -5.72024,-7.0881313 v 5.9915624 h 2.87142 q 1.65051,0 2.48707,-0.7574239 0.84786,-0.7687285 0.84786,-2.2496615 0,-1.480934 -0.84786,-2.227053 -0.83656,-0.757424 -2.48707,-0.757424 z"
     style="font-size:23.15229988px;font-family:Poppins-Regular;letter-spacing:4;fill:#010101"
     id="path858" /><path
     d="m 460.18331,-16.878117 h 10.67177 v 1.921822 h -8.38819 v 4.9967363 h 8.03774 v 1.9218218 h -8.03774 v 6.1159151 h 8.59167 V 0 h -10.87525 z"
     style="font-size:23.15229988px;font-family:Poppins-Regular;letter-spacing:4;fill:#010101"
     id="path860" /><path
     d="m 488.9522,-16.32418 v 2.227052 q -1.30005,-0.621766 -2.45315,-0.926996 -1.15309,-0.305231 -2.22705,-0.305231 -1.8653,0 -2.88273,0.72351 -1.00613,0.723509 -1.00613,2.057479 0,1.119179 0.66698,1.695725 0.67829,0.565242 2.55489,0.915692 l 1.37919,0.2826208 q 2.5549,0.4861079 3.76451,1.7183348 1.22093,1.220922 1.22093,3.2784018 0,2.453149 -1.65051,3.71929038 -1.6392,1.2661414 -4.81586,1.2661414 -1.19831,0 -2.55489,-0.27131601 -1.34528,-0.27131601 -2.7923,-0.80264321 V -3.0975245 q 1.3905,0.7800335 2.72447,1.1757027 1.33397,0.3956692 2.62272,0.3956692 1.95574,0 3.01839,-0.7687287 1.06266,-0.7687287 1.06266,-2.1931378 0,-1.2435317 -0.76873,-1.9444314 -0.75743,-0.7008997 -2.49837,-1.0513496 l -1.3905,-0.271316 q -2.55489,-0.5087175 -3.69668,-1.5939816 -1.14178,-1.0852643 -1.14178,-3.0183903 0,-2.238357 1.57137,-3.527109 1.58267,-1.288751 4.35236,-1.288751 1.18701,0 2.41923,0.214792 1.23223,0.214792 2.52098,0.644376 z"
     style="font-size:23.15229988px;font-family:Poppins-Regular;letter-spacing:4;fill:#010101"
     id="path862" /></g>
</g>
</svg>