<?xml version="1.0" encoding="UTF-8" standalone="no"?>
<!-- Generator: Adobe Illustrator 17.0.0, SVG Export Plug-In . SVG Version: 6.00 Build 0)  -->

<svg
   xmlns:dc="http://purl.org/dc/elements/1.1/"
   xmlns:cc="http://creativecommons.org/ns#"
   xmlns:rdf="http://www.w3.org/1999/02/22-rdf-syntax-ns#"
   xmlns:svg="http://www.w3.org/2000/svg"
   xmlns="http://www.w3.org/2000/svg"
   xmlns:sodipodi="http://sodipodi.sourceforge.net/DTD/sodipodi-0.dtd"
   xmlns:inkscape="http://www.inkscape.org/namespaces/inkscape"
   version="1.1"
   id="Layer_1"
   x="0px"
   y="0px"
   width="100%"
   height="100%"
   viewBox="0 0 510 60"
   enable-background="new 0 0 510 60"
   xml:space="preserve"
   sodipodi:docname="consulta-programacion.svg"
   inkscape:version="0.92.3 (2405546, 2018-03-11)"><metadata
   id="metadata13"><rdf:RDF><cc:Work
       rdf:about=""><dc:format>image/svg+xml</dc:format><dc:type
         rdf:resource="http://purl.org/dc/dcmitype/StillImage" /><dc:title></dc:title></cc:Work></rdf:RDF></metadata><defs
   id="defs11" /><sodipodi:namedview
   pagecolor="#ffffff"
   bordercolor="#666666"
   borderopacity="1"
   objecttolerance="10"
   gridtolerance="10"
   guidetolerance="10"
   inkscape:pageopacity="0"
   inkscape:pageshadow="2"
   inkscape:window-width="756"
   inkscape:window-height="480"
   id="namedview9"
   showgrid="false"
   inkscape:zoom="0.67058824"
   inkscape:cx="255"
   inkscape:cy="30"
   inkscape:window-x="0"
   inkscape:window-y="0"
   inkscape:window-maximized="0"
   inkscape:current-layer="Layer_1" />
<rect
   fill="#FFDE11"
   width="510"
   height="60"
   id="rect2" />
<g
   id="g6">
	
		<g
   aria-label="CONSULTÁ LA PROGRAMACIÓN"
   transform="matrix(1 0 0 1 29.8237 38.5645)"
   style="font-size:23.15229988px;font-family:Poppins-Regular;letter-spacing:4;fill:#010101"
   id="text4"><path
     d="m 14.911076,-15.578061 v 2.407929 q -1.153093,-1.073959 -2.464454,-1.605286 -1.300056,-0.531327 -2.7696842,-0.531327 -2.8940374,0 -4.4314949,1.774859 -1.5374574,1.763554 -1.5374574,5.1097847 0,3.334926 1.5374574,5.109785 1.5374575,1.7635541 4.4314949,1.7635541 1.4696282,0 2.7696842,-0.5313272 1.311361,-0.5313272 2.464454,-1.6052865 v 2.38532 q -1.198312,0.81394804 -2.543588,1.22092206 -1.33397,0.40697402 -2.8262082,0.40697402 -3.8323387,0 -6.0367813,-2.34010058 -2.2044426,-2.3514055 -2.2044426,-6.4098409 0,-4.0697397 2.2044426,-6.4098407 2.2044426,-2.351406 6.0367813,-2.351406 1.5148482,0 2.8488182,0.406974 1.345275,0.39567 2.520978,1.198313 z"
     style="font-size:23.15229988px;font-family:Poppins-Regular;letter-spacing:4;fill:#010101"
     id="path820" /><path
     d="m 29.311523,-15.329355 q -2.487063,0 -3.956692,1.853993 -1.458323,1.853993 -1.458323,5.0532607 0,3.1879632 1.458323,5.041956 1.469629,1.8539927 3.956692,1.8539927 2.487064,0 3.934083,-1.8539927 1.458323,-1.8539928 1.458323,-5.041956 0,-3.1992677 -1.458323,-5.0532607 -1.447019,-1.853993 -3.934083,-1.853993 z m 0,-1.853993 q 3.549718,0 5.675027,2.38532 2.125309,2.374016 2.125309,6.3759267 0,3.9906064 -2.125309,6.3759264 -2.125309,2.37401508 -5.675027,2.37401508 -3.561022,0 -5.697636,-2.37401508 -2.125309,-2.3740152 -2.125309,-6.3759264 0,-4.0019107 2.125309,-6.3759267 2.136614,-2.38532 5.697636,-2.38532 z"
     style="font-size:23.15229988px;font-family:Poppins-Regular;letter-spacing:4;fill:#010101"
     id="path822" /><path
     d="m 44.684186,-16.878117 h 3.074915 l 7.4838,14.1197375 V -16.878117 h 2.215748 V 0 h -3.074915 l -7.4838,-14.119738 V 0 h -2.215748 z"
     style="font-size:23.15229988px;font-family:Poppins-Regular;letter-spacing:4;fill:#010101"
     id="path824" /><path
     d="m 76.121017,-16.32418 v 2.227052 q -1.300056,-0.621766 -2.453149,-0.926996 -1.153093,-0.305231 -2.227052,-0.305231 -1.865298,0 -2.882733,0.72351 -1.00613,0.723509 -1.00613,2.057479 0,1.119179 0.666985,1.695725 0.67829,0.565242 2.554892,0.915692 l 1.37919,0.2826208 q 2.554893,0.4861079 3.76451,1.7183348 1.220922,1.220922 1.220922,3.2784018 0,2.453149 -1.650506,3.71929038 -1.639201,1.2661414 -4.815859,1.2661414 -1.198312,0 -2.554893,-0.27131601 Q 66.771919,-0.21479184 65.3249,-0.74611904 V -3.0975245 q 1.390495,0.7800335 2.724465,1.1757027 1.333971,0.3956692 2.622722,0.3956692 1.955736,0 3.018391,-0.7687287 1.062654,-0.7687287 1.062654,-2.1931378 0,-1.2435317 -0.768729,-1.9444314 -0.757424,-0.7008997 -2.498368,-1.0513496 l -1.390495,-0.271316 q -2.554892,-0.5087175 -3.69668,-1.5939816 -1.141789,-1.0852643 -1.141789,-3.0183903 0,-2.238357 1.571372,-3.527109 1.582677,-1.288751 4.352361,-1.288751 1.187008,0 2.419235,0.214792 1.232227,0.214792 2.520978,0.644376 z"
     style="font-size:23.15229988px;font-family:Poppins-Regular;letter-spacing:4;fill:#010101"
     id="path826" /><path
     d="m 84.439468,-16.878117 h 2.294882 v 10.2534843 q 0,2.7131602 0.98352,3.9114726 0.983521,1.1870075 3.187963,1.1870075 2.193138,0 3.176659,-1.1870075 0.98352,-1.1983124 0.98352,-3.9114726 V -16.878117 h 2.294882 v 10.5361052 q 0,3.3010115 -1.639201,4.9854317 -1.627896,1.68442028 -4.81586,1.68442028 -3.199268,0 -4.838469,-1.68442028 -1.627896,-1.6844202 -1.627896,-4.9854317 z"
     style="font-size:23.15229988px;font-family:Poppins-Regular;letter-spacing:4;fill:#010101"
     id="path828" /><path
     d="m 105.65672,-16.878117 h 2.28358 v 14.9562952 h 8.21862 V 0 h -10.5022 z"
     style="font-size:23.15229988px;font-family:Poppins-Regular;letter-spacing:4;fill:#010101"
     id="path830" /><path
     d="m 117.03878,-16.878117 h 14.27801 v 1.921822 h -5.99156 V 0 h -2.29488 v -14.956295 h -5.99157 z"
     style="font-size:23.15229988px;font-family:Poppins-Regular;letter-spacing:4;fill:#010101"
     id="path832" /><path
     d="m 141.36488,-14.628455 -3.09753,8.3994915 h 6.20636 z m -1.28876,-2.249662 h 2.58881 L 149.09738,0 h -2.37401 l -1.53746,-4.3297514 h -7.60815 L 136.0403,0 h -2.40793 z m 1.91052,-4.589763 h 2.0914 l -2.57751,2.984477 h -1.72964 z"
     style="font-size:23.15229988px;font-family:Poppins-Regular;letter-spacing:4;fill:#010101"
     id="path834" /><path
     d="m 166.92129,-16.878117 h 2.28358 v 14.9562952 h 8.21861 V 0 h -10.50219 z"
     style="font-size:23.15229988px;font-family:Poppins-Regular;letter-spacing:4;fill:#010101"
     id="path836" /><path
     d="m 189.99253,-14.628455 -3.09752,8.3994915 h 6.20635 z m -1.28875,-2.249662 h 2.58881 L 197.72504,0 h -2.37402 l -1.53746,-4.3297514 h -7.60815 L 184.66795,0 h -2.40793 z"
     style="font-size:23.15229988px;font-family:Poppins-Regular;letter-spacing:4;fill:#010101"
     id="path838" /><path
     d="m 217.83252,-15.001515 v 6.3420122 h 2.87143 q 1.59398,0 2.46445,-0.8252529 0.87047,-0.8252533 0.87047,-2.3514053 0,-1.514848 -0.87047,-2.340101 -0.87047,-0.825253 -2.46445,-0.825253 z m -2.28358,-1.876602 h 5.15501 q 2.83751,0 4.28453,1.288751 1.45832,1.277446 1.45832,3.753205 0,2.4983682 -1.45832,3.7758144 -1.44702,1.2774462 -4.28453,1.2774462 h -2.87143 V 0 h -2.28358 z"
     style="font-size:23.15229988px;font-family:Poppins-Regular;letter-spacing:4;fill:#010101"
     id="path840" /><path
     d="m 241.52554,-7.9133837 q 0.73482,0.2487063 1.42441,1.0626543 0.7009,0.8139481 1.4018,2.2383572 L 246.66924,0 h -2.45314 l -2.15923,-4.3297514 q -0.83656,-1.6957251 -1.62789,-2.2496619 -0.78004,-0.5539369 -2.13662,-0.5539369 H 235.8053 V 0 h -2.28358 v -16.878117 h 5.15501 q 2.89403,0 4.31844,1.209617 1.42441,1.209617 1.42441,3.651462 0,1.593981 -0.74612,2.6453307 -0.73481,1.0513495 -2.14792,1.4583236 z m -5.72024,-7.0881313 v 5.9915624 h 2.87143 q 1.6505,0 2.48706,-0.7574239 0.84786,-0.7687285 0.84786,-2.2496615 0,-1.480934 -0.84786,-2.227053 -0.83656,-0.757424 -2.48706,-0.757424 z"
     style="font-size:23.15229988px;font-family:Poppins-Regular;letter-spacing:4;fill:#010101"
     id="path842" /><path
     d="m 260.47054,-15.329355 q -2.48707,0 -3.9567,1.853993 -1.45832,1.853993 -1.45832,5.0532607 0,3.1879632 1.45832,5.041956 1.46963,1.8539927 3.9567,1.8539927 2.48706,0 3.93408,-1.8539927 1.45832,-1.8539928 1.45832,-5.041956 0,-3.1992677 -1.45832,-5.0532607 -1.44702,-1.853993 -3.93408,-1.853993 z m 0,-1.853993 q 3.54971,0 5.67502,2.38532 2.12531,2.374016 2.12531,6.3759267 0,3.9906064 -2.12531,6.3759264 -2.12531,2.37401508 -5.67502,2.37401508 -3.56103,0 -5.69764,-2.37401508 -2.12531,-2.3740152 -2.12531,-6.3759264 0,-4.0019107 2.12531,-6.3759267 2.13661,-2.38532 5.69764,-2.38532 z"
     style="font-size:23.15229988px;font-family:Poppins-Regular;letter-spacing:4;fill:#010101"
     id="path844" /><path
     d="M 287.35152,-2.4079296 V -6.941168 h -3.7306 v -1.8766025 h 5.99156 v 7.2463986 q -1.32266,0.9383012 -2.91664,1.42440906 -1.59399,0.47480302 -3.40276,0.47480302 -3.95669,0 -6.19505,-2.30618608 -2.22705,-2.317491 -2.22705,-6.4437554 0,-4.1375687 2.22705,-6.4437557 2.23836,-2.317491 6.19505,-2.317491 1.65051,0 3.13144,0.406974 1.49224,0.406974 2.74707,1.198313 v 2.430539 q -1.26614,-1.073959 -2.69055,-1.616591 -1.42441,-0.542632 -2.99578,-0.542632 -3.09752,0 -4.65759,1.729639 -1.54876,1.72964 -1.54876,5.1550047 0,3.4140599 1.54876,5.1436995 1.56007,1.7296396 4.65759,1.7296396 1.20962,0 2.15923,-0.2034871 0.9496,-0.2147918 1.70703,-0.6556803 z"
     style="font-size:23.15229988px;font-family:Poppins-Regular;letter-spacing:4;fill:#010101"
     id="path846" /><path
     d="m 305.7991,-7.9133837 q 0.73482,0.2487063 1.42441,1.0626543 0.7009,0.8139481 1.4018,2.2383572 L 310.9428,0 h -2.45315 l -2.15922,-4.3297514 q -0.83656,-1.6957251 -1.62789,-2.2496619 -0.78004,-0.5539369 -2.13662,-0.5539369 h -2.48706 V 0 h -2.28358 v -16.878117 h 5.15501 q 2.89403,0 4.31844,1.209617 1.42441,1.209617 1.42441,3.651462 0,1.593981 -0.74612,2.6453307 -0.73481,1.0513495 -2.14792,1.4583236 z m -5.72024,-7.0881313 v 5.9915624 h 2.87143 q 1.6505,0 2.48706,-0.7574239 0.84786,-0.7687285 0.84786,-2.2496615 0,-1.480934 -0.84786,-2.227053 -0.83656,-0.757424 -2.48706,-0.757424 z"
     style="font-size:23.15229988px;font-family:Poppins-Regular;letter-spacing:4;fill:#010101"
     id="path848" /><path
     d="m 322.58486,-14.628455 -3.09752,8.3994915 h 6.20635 z m -1.28875,-2.249662 h 2.58881 L 330.31737,0 h -2.37402 l -1.53745,-4.3297514 h -7.60816 L 317.26029,0 h -2.40793 z"
     style="font-size:23.15229988px;font-family:Poppins-Regular;letter-spacing:4;fill:#010101"
     id="path850" /><path
     d="m 336.7705,-16.878117 h 3.40276 l 4.30714,11.4857112 4.32975,-11.4857112 h 3.40275 V 0 h -2.22705 v -14.820637 l -4.35236,11.5761497 h -2.29488 L 338.98625,-14.820637 V 0 h -2.21575 z"
     style="font-size:23.15229988px;font-family:Poppins-Regular;letter-spacing:4;fill:#010101"
     id="path852" /><path
     d="m 366.39858,-14.628455 -3.09752,8.3994915 h 6.20635 z m -1.28875,-2.249662 h 2.58881 L 374.13109,0 h -2.37402 l -1.53745,-4.3297514 h -7.60816 L 361.07401,0 h -2.40793 z"
     style="font-size:23.15229988px;font-family:Poppins-Regular;letter-spacing:4;fill:#010101"
     id="path854" /><path
     d="m 392.81607,-15.578061 v 2.407929 q -1.15309,-1.073959 -2.46445,-1.605286 -1.30005,-0.531327 -2.76968,-0.531327 -2.89404,0 -4.4315,1.774859 -1.53746,1.763554 -1.53746,5.1097847 0,3.334926 1.53746,5.109785 1.53746,1.7635541 4.4315,1.7635541 1.46963,0 2.76968,-0.5313272 1.31136,-0.5313272 2.46445,-1.6052865 v 2.38532 q -1.19831,0.81394804 -2.54358,1.22092206 -1.33397,0.40697402 -2.82621,0.40697402 -3.83234,0 -6.03678,-2.34010058 -2.20445,-2.3514055 -2.20445,-6.4098409 0,-4.0697397 2.20445,-6.4098407 2.20444,-2.351406 6.03678,-2.351406 1.51485,0 2.84882,0.406974 1.34527,0.39567 2.52097,1.198313 z"
     style="font-size:23.15229988px;font-family:Poppins-Regular;letter-spacing:4;fill:#010101"
     id="path856" /><path
     d="m 400.36578,-16.878117 h 2.28357 V 0 h -2.28357 z"
     style="font-size:23.15229988px;font-family:Poppins-Regular;letter-spacing:4;fill:#010101"
     id="path858" /><path
     d="m 418.04463,-15.329355 q -2.48706,0 -3.95669,1.853993 -1.45832,1.853993 -1.45832,5.0532607 0,3.1879632 1.45832,5.041956 1.46963,1.8539927 3.95669,1.8539927 2.48707,0 3.93408,-1.8539927 1.45833,-1.8539928 1.45833,-5.041956 0,-3.1992677 -1.45833,-5.0532607 -1.44701,-1.853993 -3.93408,-1.853993 z m 0,-1.853993 q 3.54972,0 5.67503,2.38532 2.12531,2.374016 2.12531,6.3759267 0,3.9906064 -2.12531,6.3759264 -2.12531,2.37401508 -5.67503,2.37401508 -3.56102,0 -5.69763,-2.37401508 -2.12531,-2.3740152 -2.12531,-6.3759264 0,-4.0019107 2.12531,-6.3759267 2.13661,-2.38532 5.69763,-2.38532 z m 0.62177,-4.284532 h 2.09139 l -2.5775,2.984477 h -1.72964 z"
     style="font-size:23.15229988px;font-family:Poppins-Regular;letter-spacing:4;fill:#010101"
     id="path860" /><path
     d="m 433.41729,-16.878117 h 3.07492 l 7.4838,14.1197375 V -16.878117 h 2.21574 V 0 h -3.07491 l -7.4838,-14.119738 V 0 h -2.21575 z"
     style="font-size:23.15229988px;font-family:Poppins-Regular;letter-spacing:4;fill:#010101"
     id="path862" /></g>
</g>
</svg>