<?xml version="1.0" encoding="UTF-8" standalone="no"?>
<!-- Created with Inkscape (http://www.inkscape.org/) -->

<svg
   xmlns:dc="http://purl.org/dc/elements/1.1/"
   xmlns:cc="http://creativecommons.org/ns#"
   xmlns:rdf="http://www.w3.org/1999/02/22-rdf-syntax-ns#"
   xmlns:svg="http://www.w3.org/2000/svg"
   xmlns="http://www.w3.org/2000/svg"
   xmlns:xlink="http://www.w3.org/1999/xlink"
   xmlns:sodipodi="http://sodipodi.sourceforge.net/DTD/sodipodi-0.dtd"
   xmlns:inkscape="http://www.inkscape.org/namespaces/inkscape"
   width="84.666679mm"
   height="169.33331mm"
   viewBox="0 0 84.666678 169.33331"
   version="1.1"
   id="svg2257"
   inkscape:version="0.92.3 (2405546, 2018-03-11)"
   sodipodi:docname="header-mobile.svg">
  <defs
     id="defs2251">
    <clipPath
       id="SVGID_2_">
      <use
         height="100%"
         width="100%"
         y="0"
         x="0"
         style="overflow:visible"
         xlink:href="#SVGID_1_"
         overflow="visible"
         id="use633" />
    </clipPath>
    <rect
       id="SVGID_1_"
       x="0"
       y="320.065"
       width="160"
       height="160" />
  </defs>
  <sodipodi:namedview
     id="base"
     pagecolor="#ffffff"
     bordercolor="#666666"
     borderopacity="1.0"
     inkscape:pageopacity="0.0"
     inkscape:pageshadow="2"
     inkscape:zoom="0.98994949"
     inkscape:cx="152.54339"
     inkscape:cy="373.82806"
     inkscape:document-units="mm"
     inkscape:current-layer="layer1"
     showgrid="false"
     showguides="false"
     fit-margin-top="0"
     fit-margin-left="0"
     fit-margin-right="0"
     fit-margin-bottom="0"
     inkscape:window-width="1920"
     inkscape:window-height="1052"
     inkscape:window-x="0"
     inkscape:window-y="0"
     inkscape:window-maximized="1" />
  <metadata
     id="metadata2254">
    <rdf:RDF>
      <cc:Work
         rdf:about="">
        <dc:format>image/svg+xml</dc:format>
        <dc:type
           rdf:resource="http://purl.org/dc/dcmitype/StillImage" />
        <dc:title></dc:title>
      </cc:Work>
    </rdf:RDF>
  </metadata>
  <g
     inkscape:label="Layer 1"
     inkscape:groupmode="layer"
     id="layer1"
     transform="translate(27.214293,-61.142856)">
    <rect
       style="fill:#ffde17;stroke-width:0.26458332"
       x="-27.214293"
       y="61.142857"
       width="42.333332"
       height="42.333332"
       id="rect26" />
    <rect
       style="fill:#ffde17;stroke-width:0.26458332"
       x="15.119051"
       y="61.142857"
       width="42.333332"
       height="42.333332"
       id="rect28" />
    <rect
       style="fill:#ffde17;stroke-width:0.26458332"
       x="-27.214293"
       y="103.47618"
       width="42.333332"
       height="42.333332"
       id="rect46" />
    <rect
       style="fill:#ffde17;stroke-width:0.26458332"
       x="15.119051"
       y="103.47618"
       width="42.333332"
       height="42.333332"
       id="rect48" />
    <rect
       style="fill:#29abe2;stroke-width:0.26458332"
       x="-27.214279"
       y="145.80951"
       width="42.333332"
       height="42.333332"
       id="rect50" />
    <rect
       style="fill:#6e559e;stroke-width:0.26458332"
       x="15.119048"
       y="145.80951"
       width="42.333332"
       height="42.333332"
       id="rect56" />
    <g
       id="g3325"
       transform="translate(-0.18898773,2.645813)">
      <rect
         id="rect30"
         height="42.333332"
         width="42.333332"
         y="185.49702"
         x="-27.025291"
         style="fill:#ffde17;stroke-width:0.26458332" />
      <rect
         id="rect38"
         height="42.333332"
         width="42.333332"
         y="185.49702"
         x="15.308039"
         style="fill:#ffde17;stroke-width:0.26458332" />
      <g
         id="g328"
         transform="matrix(0.26458333,0,0,0.26458333,-238.69196,143.14648)">
        <path
           id="path140"
           d="m 832.698,190.57 v 5.821 c 0,0.871 0.192,1.519 0.576,1.945 0.384,0.426 0.924,0.639 1.619,0.639 0.686,0 1.22,-0.213 1.605,-0.639 0.384,-0.426 0.576,-1.074 0.576,-1.945 v -5.821 h 1.584 v 5.821 c 0,1.343 -0.347,2.36 -1.042,3.049 -0.695,0.69 -1.612,1.035 -2.751,1.035 -1.13,0 -2.038,-0.345 -2.723,-1.035 -0.686,-0.689 -1.028,-1.706 -1.028,-3.049 v -5.821 z"
           inkscape:connector-curvature="0" />
        <path
           id="path142"
           d="m 851.44,200.379 h -1.584 l -4.765,-7.238 v 7.238 h -1.584 v -9.794 h 1.584 l 4.765,7.266 v -7.266 h 1.584 z"
           inkscape:connector-curvature="0" />
        <path
           id="path144"
           d="m 863.749,191.849 v 2.973 h 3.612 v 1.223 h -3.612 v 3.042 h 4.029 v 1.292 h -5.613 v -9.809 h 5.613 v 1.278 h -4.029 z"
           inkscape:connector-curvature="0" />
        <path
           id="path146"
           d="m 880.134,200.379 h -1.584 l -4.765,-7.238 v 7.238 h -1.584 v -9.794 h 1.584 l 4.765,7.266 v -7.266 h 1.584 z"
           inkscape:connector-curvature="0" />
        <path
           id="path148"
           d="m 892.338,191.39 c 0.796,0.611 1.333,1.44 1.611,2.487 h -1.681 c -0.232,-0.593 -0.6,-1.063 -1.104,-1.41 -0.505,-0.347 -1.124,-0.521 -1.855,-0.521 -0.583,0 -1.104,0.144 -1.563,0.431 -0.459,0.287 -0.82,0.697 -1.083,1.229 -0.264,0.533 -0.396,1.156 -0.396,1.869 0,0.704 0.132,1.322 0.396,1.855 0.264,0.533 0.625,0.942 1.083,1.229 0.458,0.287 0.979,0.431 1.563,0.431 0.731,0 1.35,-0.174 1.855,-0.521 0.504,-0.348 0.873,-0.813 1.104,-1.396 h 1.681 c -0.278,1.047 -0.815,1.874 -1.611,2.48 -0.797,0.607 -1.797,0.91 -3.001,0.91 -0.926,0 -1.746,-0.211 -2.459,-0.632 -0.713,-0.421 -1.264,-1.009 -1.653,-1.764 -0.389,-0.755 -0.583,-1.619 -0.583,-2.591 0,-0.972 0.194,-1.836 0.583,-2.591 0.389,-0.755 0.94,-1.345 1.653,-1.771 0.713,-0.426 1.533,-0.639 2.459,-0.639 1.204,-0.002 2.204,0.304 3.001,0.915 z"
           inkscape:connector-curvature="0" />
        <path
           id="path150"
           d="m 899.841,190.57 v 5.821 c 0,0.871 0.192,1.519 0.576,1.945 0.384,0.426 0.924,0.639 1.619,0.639 0.686,0 1.22,-0.213 1.605,-0.639 0.384,-0.426 0.576,-1.074 0.576,-1.945 v -5.821 h 1.584 v 5.821 c 0,1.343 -0.347,2.36 -1.042,3.049 -0.695,0.69 -1.612,1.035 -2.751,1.035 -1.13,0 -2.038,-0.345 -2.723,-1.035 -0.686,-0.689 -1.028,-1.706 -1.028,-3.049 v -5.821 z"
           inkscape:connector-curvature="0" />
        <path
           id="path152"
           d="m 912.234,191.849 v 2.973 h 3.612 v 1.223 h -3.612 v 3.042 h 4.029 v 1.292 h -5.613 v -9.809 h 5.613 v 1.278 h -4.029 z"
           inkscape:connector-curvature="0" />
        <path
           id="path154"
           d="m 928.619,200.379 h -1.584 l -4.765,-7.238 v 7.238 h -1.584 v -9.794 h 1.584 l 4.765,7.266 v -7.266 h 1.584 z"
           inkscape:connector-curvature="0" />
        <path
           id="path156"
           d="m 939.674,190.57 v 1.278 h -2.737 v 8.53 h -1.598 v -8.53 h -2.723 v -1.278 z"
           inkscape:connector-curvature="0" />
        <path
           id="path158"
           d="m 948.825,200.379 -2.445,-3.918 h -1.125 v 3.918 h -1.584 v -9.809 h 3.459 c 1.121,0 1.97,0.273 2.549,0.82 0.579,0.546 0.868,1.269 0.868,2.167 0,0.769 -0.215,1.398 -0.646,1.889 -0.431,0.491 -1.054,0.806 -1.868,0.945 l 2.57,3.987 h -1.778 z m -3.571,-5.043 h 1.75 c 1.278,0 1.917,-0.565 1.917,-1.695 0,-0.537 -0.155,-0.956 -0.465,-1.257 -0.31,-0.301 -0.794,-0.451 -1.452,-0.451 h -1.75 z"
           inkscape:connector-curvature="0" />
        <path
           id="path160"
           d="m 961.783,191.085 c 0.736,0.426 1.315,1.021 1.736,1.785 0.421,0.764 0.632,1.628 0.632,2.591 0,0.963 -0.211,1.827 -0.632,2.591 -0.421,0.764 -1,1.362 -1.736,1.792 -0.736,0.43 -1.559,0.646 -2.466,0.646 -0.917,0 -1.743,-0.215 -2.479,-0.646 -0.736,-0.431 -1.318,-1.028 -1.744,-1.792 -0.426,-0.764 -0.639,-1.627 -0.639,-2.591 0,-0.964 0.213,-1.827 0.639,-2.591 0.426,-0.764 1.007,-1.359 1.744,-1.785 0.736,-0.426 1.563,-0.639 2.479,-0.639 0.908,-0.001 1.73,0.213 2.466,0.639 z m -4.147,1.264 c -0.491,0.287 -0.874,0.7 -1.146,1.236 -0.273,0.538 -0.41,1.163 -0.41,1.876 0,0.713 0.136,1.338 0.41,1.875 0.273,0.537 0.655,0.949 1.146,1.236 0.491,0.287 1.051,0.431 1.681,0.431 0.621,0 1.174,-0.144 1.661,-0.431 0.486,-0.287 0.866,-0.699 1.139,-1.236 0.273,-0.537 0.41,-1.162 0.41,-1.875 0,-0.713 -0.137,-1.338 -0.41,-1.876 -0.273,-0.537 -0.653,-0.949 -1.139,-1.236 -0.486,-0.287 -1.04,-0.431 -1.661,-0.431 -0.63,0 -1.19,0.144 -1.681,0.431 z"
           inkscape:connector-curvature="0" />
        <path
           id="path162"
           d="m 981.567,191.085 c 0.736,0.426 1.315,1.021 1.736,1.785 0.421,0.764 0.632,1.628 0.632,2.591 0,0.963 -0.211,1.827 -0.632,2.591 -0.421,0.764 -1,1.362 -1.736,1.792 -0.736,0.43 -1.559,0.646 -2.466,0.646 -0.917,0 -1.743,-0.215 -2.479,-0.646 -0.736,-0.431 -1.318,-1.028 -1.744,-1.792 -0.426,-0.764 -0.639,-1.627 -0.639,-2.591 0,-0.964 0.213,-1.827 0.639,-2.591 0.426,-0.764 1.007,-1.359 1.744,-1.785 0.736,-0.426 1.563,-0.639 2.479,-0.639 0.907,-0.001 1.73,0.213 2.466,0.639 z m -4.147,1.264 c -0.491,0.287 -0.874,0.7 -1.146,1.236 -0.273,0.538 -0.41,1.163 -0.41,1.876 0,0.713 0.136,1.338 0.41,1.875 0.273,0.537 0.655,0.949 1.146,1.236 0.491,0.287 1.051,0.431 1.681,0.431 0.621,0 1.174,-0.144 1.661,-0.431 0.486,-0.287 0.866,-0.699 1.139,-1.236 0.273,-0.537 0.41,-1.162 0.41,-1.875 0,-0.713 -0.137,-1.338 -0.41,-1.876 -0.273,-0.537 -0.653,-0.949 -1.139,-1.236 -0.486,-0.287 -1.04,-0.431 -1.661,-0.431 -0.63,0 -1.19,0.144 -1.681,0.431 z"
           inkscape:connector-curvature="0" />
        <path
           id="path164"
           d="m 996.342,200.379 h -1.584 l -4.765,-7.238 v 7.238 h -1.584 v -9.794 h 1.584 l 4.765,7.266 v -7.266 h 1.584 z"
           inkscape:connector-curvature="0" />
        <path
           id="path166"
           d="m 1002.843,199.143 h 3.39 v 1.236 h -4.974 v -9.809 h 1.584 z"
           inkscape:connector-curvature="0" />
        <path
           id="path168"
           d="m 1011.848,190.57 v 9.809 h -1.584 v -9.809 z"
           inkscape:connector-curvature="0" />
        <path
           id="path170"
           d="m 1024.698,200.379 h -1.584 l -4.765,-7.238 v 7.238 h -1.584 v -9.794 h 1.584 l 4.765,7.266 v -7.266 h 1.584 z"
           inkscape:connector-curvature="0" />
        <path
           id="path172"
           d="m 1031.198,191.849 v 2.973 h 3.612 v 1.223 h -3.612 v 3.042 h 4.029 v 1.292 h -5.613 v -9.809 h 5.613 v 1.278 h -4.029 z"
           inkscape:connector-curvature="0" />
        <path
           id="path174"
           d="m 838.589,214.856 c 0.778,0.574 1.292,1.357 1.542,2.348 h -1.667 c -0.213,-0.528 -0.563,-0.949 -1.049,-1.264 -0.486,-0.315 -1.063,-0.473 -1.729,-0.473 -0.611,0 -1.16,0.144 -1.646,0.431 -0.486,0.287 -0.866,0.694 -1.139,1.222 -0.273,0.528 -0.41,1.149 -0.41,1.862 0,0.75 0.139,1.394 0.417,1.931 0.278,0.537 0.669,0.947 1.174,1.229 0.504,0.283 1.09,0.424 1.757,0.424 0.815,0 1.514,-0.252 2.098,-0.757 0.583,-0.504 0.936,-1.197 1.056,-2.077 h -3.598 v -1.167 h 4.932 v 1.515 c -0.111,0.722 -0.368,1.378 -0.771,1.966 -0.403,0.588 -0.936,1.058 -1.598,1.41 -0.662,0.352 -1.419,0.528 -2.271,0.528 -0.954,0 -1.797,-0.213 -2.528,-0.639 -0.732,-0.426 -1.297,-1.016 -1.695,-1.771 -0.398,-0.755 -0.597,-1.619 -0.597,-2.591 0,-0.972 0.199,-1.836 0.597,-2.591 0.398,-0.755 0.961,-1.343 1.688,-1.765 0.727,-0.422 1.568,-0.632 2.522,-0.632 1.164,-0.001 2.137,0.286 2.915,0.861 z"
           inkscape:connector-curvature="0" />
        <path
           id="path176"
           d="m 849.986,223.886 -2.445,-3.918 h -1.125 v 3.918 h -1.584 v -9.809 h 3.459 c 1.121,0 1.97,0.273 2.549,0.82 0.579,0.546 0.868,1.269 0.868,2.167 0,0.769 -0.215,1.398 -0.646,1.889 -0.431,0.491 -1.054,0.806 -1.868,0.945 l 2.57,3.987 h -1.778 z m -3.57,-5.043 h 1.75 c 1.278,0 1.917,-0.565 1.917,-1.695 0,-0.537 -0.155,-0.956 -0.465,-1.257 -0.31,-0.301 -0.794,-0.451 -1.452,-0.451 h -1.75 z"
           inkscape:connector-curvature="0" />
        <path
           id="path178"
           d="m 862.078,221.76 h -4.14 l -0.75,2.125 h -1.695 l 3.612,-9.656 h 1.82 l 3.599,9.656 h -1.695 z m -0.445,-1.222 -1.625,-4.585 -1.625,4.585 z"
           inkscape:connector-curvature="0" />
        <path
           id="path180"
           d="m 873.838,214.077 v 1.278 h -2.737 v 8.53 h -1.598 v -8.53 h -2.723 v -1.278 z"
           inkscape:connector-curvature="0" />
        <path
           id="path182"
           d="m 879.384,214.077 v 5.821 c 0,0.871 0.192,1.519 0.576,1.945 0.384,0.426 0.924,0.639 1.619,0.639 0.686,0 1.22,-0.213 1.605,-0.639 0.384,-0.426 0.576,-1.074 0.576,-1.945 v -5.821 h 1.584 v 5.821 c 0,1.343 -0.347,2.36 -1.042,3.049 -0.695,0.69 -1.612,1.035 -2.751,1.035 -1.13,0 -2.038,-0.345 -2.723,-1.035 -0.686,-0.689 -1.028,-1.706 -1.028,-3.049 v -5.821 z"
           inkscape:connector-curvature="0" />
        <path
           id="path184"
           d="m 891.787,214.077 v 9.809 h -1.584 v -9.809 z"
           inkscape:connector-curvature="0" />
        <path
           id="path186"
           d="m 902.841,214.077 v 1.278 h -2.737 v 8.53 h -1.598 v -8.53 h -2.723 v -1.278 z"
           inkscape:connector-curvature="0" />
        <path
           id="path188"
           d="m 913.403,214.591 c 0.736,0.426 1.315,1.021 1.736,1.785 0.421,0.764 0.632,1.628 0.632,2.591 0,0.963 -0.211,1.827 -0.632,2.591 -0.421,0.764 -1,1.362 -1.736,1.792 -0.736,0.43 -1.559,0.646 -2.466,0.646 -0.917,0 -1.743,-0.215 -2.479,-0.646 -0.736,-0.431 -1.318,-1.028 -1.744,-1.792 -0.426,-0.764 -0.639,-1.627 -0.639,-2.591 0,-0.964 0.213,-1.827 0.639,-2.591 0.426,-0.764 1.007,-1.359 1.744,-1.785 0.736,-0.426 1.563,-0.639 2.479,-0.639 0.907,0 1.73,0.214 2.466,0.639 z m -4.147,1.265 c -0.491,0.287 -0.874,0.7 -1.146,1.236 -0.273,0.538 -0.41,1.163 -0.41,1.876 0,0.713 0.136,1.338 0.41,1.875 0.273,0.537 0.655,0.949 1.146,1.236 0.491,0.287 1.051,0.431 1.681,0.431 0.621,0 1.174,-0.144 1.661,-0.431 0.486,-0.287 0.866,-0.699 1.139,-1.236 0.273,-0.537 0.41,-1.162 0.41,-1.875 0,-0.713 -0.137,-1.338 -0.41,-1.876 -0.273,-0.537 -0.653,-0.949 -1.139,-1.236 -0.486,-0.287 -1.04,-0.431 -1.661,-0.431 -0.63,0 -1.19,0.143 -1.681,0.431 z"
           inkscape:connector-curvature="0" />
        <path
           id="path190"
           d="m 927.761,220.079 v 3.807 h -1.584 v -9.809 h 3.334 c 1.13,0 1.98,0.269 2.549,0.806 0.57,0.538 0.854,1.274 0.854,2.209 0,0.926 -0.292,1.656 -0.875,2.188 -0.583,0.532 -1.426,0.799 -2.528,0.799 z m 3.543,-2.987 c 0,-0.556 -0.155,-0.979 -0.465,-1.271 -0.311,-0.292 -0.808,-0.438 -1.493,-0.438 h -1.584 v 3.404 h 1.584 c 1.305,0 1.958,-0.565 1.958,-1.695 z"
           inkscape:connector-curvature="0" />
        <path
           id="path192"
           d="m 942.175,221.76 h -4.14 l -0.75,2.125 h -1.695 l 3.612,-9.656 h 1.82 l 3.599,9.656 h -1.695 z m -0.445,-1.222 -1.625,-4.585 -1.625,4.585 z"
           inkscape:connector-curvature="0" />
        <path
           id="path194"
           d="m 953.771,223.886 -2.445,-3.918 h -1.125 v 3.918 h -1.584 v -9.809 h 3.459 c 1.121,0 1.97,0.273 2.549,0.82 0.579,0.546 0.868,1.269 0.868,2.167 0,0.769 -0.215,1.398 -0.646,1.889 -0.431,0.491 -1.054,0.806 -1.868,0.945 l 2.57,3.987 h -1.778 z m -3.57,-5.043 h 1.75 c 1.278,0 1.917,-0.565 1.917,-1.695 0,-0.537 -0.155,-0.956 -0.465,-1.257 -0.31,-0.301 -0.794,-0.451 -1.452,-0.451 h -1.75 z"
           inkscape:connector-curvature="0" />
        <path
           id="path196"
           d="m 965.863,221.76 h -4.14 l -0.75,2.125 h -1.695 l 3.612,-9.656 h 1.82 l 3.599,9.656 h -1.695 z m -0.445,-1.222 -1.625,-4.585 -1.625,4.585 z"
           inkscape:connector-curvature="0" />
        <path
           id="path198"
           d="m 983.452,223.886 -2.445,-3.918 h -1.125 v 3.918 h -1.584 v -9.809 h 3.459 c 1.121,0 1.97,0.273 2.549,0.82 0.579,0.546 0.868,1.269 0.868,2.167 0,0.769 -0.215,1.398 -0.646,1.889 -0.431,0.491 -1.054,0.806 -1.868,0.945 l 2.57,3.987 h -1.778 z m -3.571,-5.043 h 1.75 c 1.278,0 1.917,-0.565 1.917,-1.695 0,-0.537 -0.155,-0.956 -0.465,-1.257 -0.31,-0.301 -0.794,-0.451 -1.452,-0.451 h -1.75 z"
           inkscape:connector-curvature="0" />
        <path
           id="path200"
           d="m 991.176,215.356 v 2.973 h 3.612 v 1.223 h -3.612 v 3.042 h 4.029 v 1.292 h -5.613 v -9.809 h 5.613 v 1.278 h -4.029 z"
           inkscape:connector-curvature="0" />
        <path
           id="path202"
           d="m 1001.212,220.079 v 3.807 h -1.584 v -9.809 h 3.334 c 1.13,0 1.98,0.269 2.549,0.806 0.57,0.538 0.854,1.274 0.854,2.209 0,0.926 -0.292,1.656 -0.875,2.188 -0.583,0.532 -1.426,0.799 -2.528,0.799 z m 3.543,-2.987 c 0,-0.556 -0.155,-0.979 -0.465,-1.271 -0.311,-0.292 -0.808,-0.438 -1.493,-0.438 h -1.584 v 3.404 h 1.584 c 1.305,0 1.958,-0.565 1.958,-1.695 z"
           inkscape:connector-curvature="0" />
        <path
           id="path204"
           d="m 1012.052,215.356 v 2.973 h 3.612 v 1.223 h -3.612 v 3.042 h 4.029 v 1.292 h -5.613 v -9.809 h 5.613 v 1.278 h -4.029 z"
           inkscape:connector-curvature="0" />
        <path
           id="path206"
           d="m 1028.437,223.886 h -1.584 l -4.765,-7.238 v 7.238 h -1.584 v -9.794 h 1.584 l 4.765,7.266 v -7.266 h 1.584 z"
           inkscape:connector-curvature="0" />
        <path
           id="path208"
           d="m 1039.413,222.615 c -0.231,0.412 -0.583,0.743 -1.056,0.993 -0.473,0.25 -1.051,0.375 -1.737,0.375 -0.667,0 -1.264,-0.118 -1.792,-0.354 -0.528,-0.236 -0.95,-0.567 -1.265,-0.994 -0.315,-0.426 -0.496,-0.917 -0.542,-1.473 h 1.695 c 0.046,0.426 0.229,0.792 0.549,1.098 0.319,0.306 0.748,0.458 1.285,0.458 0.481,0 0.854,-0.129 1.118,-0.389 0.264,-0.259 0.396,-0.592 0.396,-1 0,-0.352 -0.097,-0.642 -0.292,-0.869 -0.195,-0.227 -0.436,-0.405 -0.723,-0.535 -0.287,-0.13 -0.681,-0.278 -1.181,-0.445 -0.611,-0.194 -1.109,-0.389 -1.494,-0.583 -0.384,-0.194 -0.711,-0.477 -0.979,-0.847 -0.268,-0.37 -0.403,-0.857 -0.403,-1.459 0,-0.528 0.129,-0.991 0.389,-1.389 0.259,-0.398 0.629,-0.706 1.111,-0.924 0.481,-0.218 1.037,-0.327 1.667,-0.327 1,0 1.794,0.241 2.383,0.723 0.588,0.481 0.924,1.111 1.007,1.889 h -1.709 c -0.065,-0.37 -0.239,-0.688 -0.521,-0.952 -0.283,-0.264 -0.669,-0.396 -1.16,-0.396 -0.444,0 -0.801,0.114 -1.07,0.34 -0.269,0.227 -0.403,0.554 -0.403,0.979 0,0.333 0.092,0.609 0.278,0.827 0.185,0.218 0.419,0.389 0.702,0.514 0.282,0.125 0.669,0.271 1.16,0.438 0.62,0.195 1.127,0.392 1.521,0.591 0.394,0.199 0.727,0.488 1,0.868 0.273,0.38 0.41,0.88 0.41,1.5 0,0.483 -0.113,0.931 -0.344,1.343 z"
           inkscape:connector-curvature="0" />
        <path
           id="path210"
           d="m 1049.842,221.76 h -4.14 l -0.75,2.125 h -1.695 l 3.612,-9.656 h 1.82 l 3.599,9.656 h -1.695 z m -0.445,-1.222 -1.625,-4.585 -1.625,4.585 z"
           inkscape:connector-curvature="0" />
        <path
           id="path212"
           d="m 1061.438,223.886 -2.445,-3.918 h -1.125 v 3.918 h -1.584 v -9.809 h 3.459 c 1.121,0 1.97,0.273 2.549,0.82 0.579,0.546 0.868,1.269 0.868,2.167 0,0.769 -0.215,1.398 -0.646,1.889 -0.431,0.491 -1.054,0.806 -1.868,0.945 l 2.57,3.987 h -1.778 z m -3.57,-5.043 h 1.75 c 1.278,0 1.917,-0.565 1.917,-1.695 0,-0.537 -0.155,-0.956 -0.465,-1.257 -0.31,-0.301 -0.794,-0.451 -1.452,-0.451 h -1.75 z"
           inkscape:connector-curvature="0" />
        <path
           id="path214"
           d="m 832.768,246.156 h 3.39 v 1.236 h -4.974 v -9.809 h 1.584 z"
           inkscape:connector-curvature="0" />
        <path
           id="path216"
           d="m 846.408,245.267 h -4.14 l -0.75,2.125 h -1.695 l 3.612,-9.656 h 1.82 l 3.599,9.656 h -1.695 z m -0.445,-1.222 -1.625,-4.585 -1.625,4.585 z"
           inkscape:connector-curvature="0" />
        <path
           id="path218"
           d="m 866.219,238.404 c 0.796,0.611 1.333,1.44 1.611,2.487 h -1.681 c -0.232,-0.593 -0.6,-1.063 -1.104,-1.41 -0.505,-0.347 -1.124,-0.521 -1.855,-0.521 -0.583,0 -1.104,0.144 -1.563,0.431 -0.459,0.287 -0.82,0.697 -1.083,1.229 -0.264,0.533 -0.396,1.156 -0.396,1.869 0,0.704 0.132,1.322 0.396,1.855 0.264,0.533 0.625,0.942 1.083,1.229 0.458,0.287 0.979,0.431 1.563,0.431 0.731,0 1.35,-0.174 1.855,-0.521 0.504,-0.348 0.873,-0.813 1.104,-1.396 h 1.681 c -0.278,1.047 -0.815,1.874 -1.611,2.48 -0.797,0.607 -1.797,0.91 -3.001,0.91 -0.926,0 -1.746,-0.211 -2.459,-0.632 -0.713,-0.421 -1.264,-1.009 -1.653,-1.764 -0.389,-0.755 -0.583,-1.619 -0.583,-2.591 0,-0.972 0.194,-1.836 0.583,-2.591 0.389,-0.755 0.94,-1.345 1.653,-1.771 0.713,-0.426 1.533,-0.639 2.459,-0.639 1.204,-0.002 2.204,0.304 3.001,0.915 z"
           inkscape:connector-curvature="0" />
        <path
           id="path220"
           d="m 879.128,238.098 c 0.736,0.426 1.315,1.021 1.736,1.785 0.421,0.764 0.632,1.628 0.632,2.591 0,0.963 -0.211,1.827 -0.632,2.591 -0.421,0.764 -1,1.362 -1.736,1.792 -0.736,0.43 -1.559,0.646 -2.466,0.646 -0.917,0 -1.743,-0.215 -2.479,-0.646 -0.736,-0.431 -1.318,-1.028 -1.744,-1.792 -0.426,-0.764 -0.639,-1.627 -0.639,-2.591 0,-0.964 0.213,-1.827 0.639,-2.591 0.426,-0.764 1.007,-1.359 1.744,-1.785 0.736,-0.426 1.563,-0.639 2.479,-0.639 0.908,0 1.73,0.213 2.466,0.639 z m -4.147,1.264 c -0.491,0.287 -0.874,0.7 -1.146,1.236 -0.273,0.538 -0.41,1.163 -0.41,1.876 0,0.713 0.136,1.338 0.41,1.875 0.273,0.537 0.655,0.949 1.146,1.236 0.491,0.287 1.051,0.431 1.681,0.431 0.621,0 1.174,-0.144 1.661,-0.431 0.486,-0.287 0.866,-0.699 1.139,-1.236 0.273,-0.537 0.41,-1.162 0.41,-1.875 0,-0.713 -0.137,-1.338 -0.41,-1.876 -0.273,-0.537 -0.653,-0.949 -1.139,-1.236 -0.486,-0.287 -1.04,-0.431 -1.661,-0.431 -0.63,10e-4 -1.19,0.144 -1.681,0.431 z"
           inkscape:connector-curvature="0" />
        <path
           id="path222"
           d="m 891.23,241.696 v 1.334 h -5.724 v -1.334 z"
           inkscape:connector-curvature="0" />
        <path
           id="path224"
           d="m 903.756,238.404 c 0.796,0.611 1.333,1.44 1.611,2.487 h -1.681 c -0.232,-0.593 -0.6,-1.063 -1.104,-1.41 -0.505,-0.347 -1.124,-0.521 -1.855,-0.521 -0.583,0 -1.104,0.144 -1.563,0.431 -0.459,0.287 -0.82,0.697 -1.083,1.229 -0.264,0.533 -0.396,1.156 -0.396,1.869 0,0.704 0.132,1.322 0.396,1.855 0.264,0.533 0.625,0.942 1.083,1.229 0.458,0.287 0.979,0.431 1.563,0.431 0.731,0 1.35,-0.174 1.855,-0.521 0.504,-0.348 0.873,-0.813 1.104,-1.396 h 1.681 c -0.278,1.047 -0.815,1.874 -1.611,2.48 -0.797,0.607 -1.797,0.91 -3.001,0.91 -0.926,0 -1.746,-0.211 -2.459,-0.632 -0.713,-0.421 -1.264,-1.009 -1.653,-1.764 -0.389,-0.755 -0.583,-1.619 -0.583,-2.591 0,-0.972 0.194,-1.836 0.583,-2.591 0.389,-0.755 0.94,-1.345 1.653,-1.771 0.713,-0.426 1.533,-0.639 2.459,-0.639 1.204,-0.002 2.204,0.304 3.001,0.915 z"
           inkscape:connector-curvature="0" />
        <path
           id="path226"
           d="m 916.666,238.098 c 0.736,0.426 1.315,1.021 1.736,1.785 0.421,0.764 0.632,1.628 0.632,2.591 0,0.963 -0.211,1.827 -0.632,2.591 -0.421,0.764 -1,1.362 -1.736,1.792 -0.736,0.43 -1.559,0.646 -2.466,0.646 -0.917,0 -1.743,-0.215 -2.479,-0.646 -0.736,-0.431 -1.318,-1.028 -1.744,-1.792 -0.426,-0.764 -0.639,-1.627 -0.639,-2.591 0,-0.964 0.213,-1.827 0.639,-2.591 0.426,-0.764 1.007,-1.359 1.744,-1.785 0.736,-0.426 1.563,-0.639 2.479,-0.639 0.907,0 1.729,0.213 2.466,0.639 z m -4.147,1.264 c -0.491,0.287 -0.874,0.7 -1.146,1.236 -0.273,0.538 -0.41,1.163 -0.41,1.876 0,0.713 0.136,1.338 0.41,1.875 0.273,0.537 0.655,0.949 1.146,1.236 0.491,0.287 1.051,0.431 1.681,0.431 0.621,0 1.174,-0.144 1.661,-0.431 0.486,-0.287 0.866,-0.699 1.139,-1.236 0.273,-0.537 0.41,-1.162 0.41,-1.875 0,-0.713 -0.137,-1.338 -0.41,-1.876 -0.273,-0.537 -0.653,-0.949 -1.139,-1.236 -0.486,-0.287 -1.04,-0.431 -1.661,-0.431 -0.631,10e-4 -1.191,0.144 -1.681,0.431 z"
           inkscape:connector-curvature="0" />
        <path
           id="path228"
           d="m 931.441,247.393 h -1.584 l -4.765,-7.238 v 7.238 h -1.584 v -9.794 h 1.584 l 4.765,7.266 v -7.266 h 1.584 z"
           inkscape:connector-curvature="0" />
        <path
           id="path230"
           d="m 942.416,246.122 c -0.231,0.412 -0.583,0.743 -1.056,0.993 -0.473,0.25 -1.051,0.375 -1.737,0.375 -0.667,0 -1.264,-0.118 -1.792,-0.354 -0.528,-0.236 -0.95,-0.567 -1.265,-0.994 -0.315,-0.426 -0.496,-0.917 -0.542,-1.473 h 1.695 c 0.046,0.426 0.229,0.792 0.549,1.098 0.319,0.306 0.748,0.458 1.285,0.458 0.481,0 0.854,-0.129 1.118,-0.389 0.264,-0.259 0.396,-0.592 0.396,-1 0,-0.352 -0.097,-0.642 -0.292,-0.869 -0.195,-0.227 -0.436,-0.405 -0.723,-0.535 -0.287,-0.13 -0.681,-0.278 -1.181,-0.445 -0.611,-0.194 -1.109,-0.389 -1.494,-0.583 -0.384,-0.194 -0.711,-0.477 -0.979,-0.847 -0.268,-0.37 -0.403,-0.857 -0.403,-1.459 0,-0.528 0.129,-0.991 0.389,-1.389 0.259,-0.398 0.629,-0.706 1.111,-0.924 0.481,-0.218 1.037,-0.327 1.667,-0.327 1,0 1.794,0.241 2.383,0.723 0.588,0.481 0.924,1.111 1.007,1.889 h -1.709 c -0.065,-0.37 -0.239,-0.688 -0.521,-0.952 -0.283,-0.264 -0.669,-0.396 -1.16,-0.396 -0.444,0 -0.801,0.114 -1.07,0.34 -0.269,0.227 -0.403,0.554 -0.403,0.979 0,0.333 0.092,0.609 0.278,0.827 0.185,0.218 0.419,0.389 0.702,0.514 0.282,0.125 0.669,0.271 1.16,0.438 0.62,0.195 1.127,0.392 1.521,0.591 0.394,0.199 0.727,0.488 1,0.868 0.273,0.38 0.41,0.88 0.41,1.5 0.003,0.483 -0.113,0.931 -0.344,1.343 z"
           inkscape:connector-curvature="0" />
        <path
           id="path232"
           d="m 953.394,237.584 v 1.278 h -2.737 v 8.53 h -1.598 v -8.53 h -2.723 v -1.278 z"
           inkscape:connector-curvature="0" />
        <path
           id="path234"
           d="m 962.545,247.393 -2.445,-3.918 h -1.125 v 3.918 h -1.584 v -9.809 h 3.459 c 1.121,0 1.97,0.273 2.549,0.82 0.579,0.546 0.868,1.269 0.868,2.167 0,0.769 -0.215,1.398 -0.646,1.889 -0.431,0.491 -1.054,0.806 -1.868,0.945 l 2.57,3.987 h -1.778 z m -3.57,-5.043 h 1.75 c 1.278,0 1.917,-0.565 1.917,-1.695 0,-0.537 -0.155,-0.956 -0.465,-1.257 -0.31,-0.301 -0.794,-0.451 -1.452,-0.451 h -1.75 z"
           inkscape:connector-curvature="0" />
        <path
           id="path236"
           d="m 970.112,237.584 v 5.821 c 0,0.871 0.192,1.519 0.576,1.945 0.384,0.426 0.924,0.639 1.619,0.639 0.686,0 1.22,-0.213 1.605,-0.639 0.384,-0.426 0.576,-1.074 0.576,-1.945 v -5.821 h 1.584 v 5.821 c 0,1.343 -0.347,2.36 -1.042,3.049 -0.695,0.69 -1.612,1.035 -2.751,1.035 -1.13,0 -2.038,-0.345 -2.723,-1.035 -0.686,-0.689 -1.028,-1.706 -1.028,-3.049 v -5.821 z"
           inkscape:connector-curvature="0" />
        <path
           id="path238"
           d="m 988.185,238.404 c 0.796,0.611 1.333,1.44 1.611,2.487 h -1.681 c -0.232,-0.593 -0.6,-1.063 -1.104,-1.41 -0.505,-0.347 -1.124,-0.521 -1.855,-0.521 -0.583,0 -1.104,0.144 -1.563,0.431 -0.459,0.287 -0.82,0.697 -1.083,1.229 -0.264,0.533 -0.396,1.156 -0.396,1.869 0,0.704 0.132,1.322 0.396,1.855 0.264,0.533 0.625,0.942 1.083,1.229 0.458,0.287 0.979,0.431 1.563,0.431 0.731,0 1.35,-0.174 1.855,-0.521 0.504,-0.348 0.873,-0.813 1.104,-1.396 h 1.681 c -0.278,1.047 -0.815,1.874 -1.611,2.48 -0.797,0.607 -1.797,0.91 -3.001,0.91 -0.926,0 -1.746,-0.211 -2.459,-0.632 -0.713,-0.421 -1.264,-1.009 -1.653,-1.764 -0.389,-0.755 -0.583,-1.619 -0.583,-2.591 0,-0.972 0.194,-1.836 0.583,-2.591 0.389,-0.755 0.94,-1.345 1.653,-1.771 0.713,-0.426 1.533,-0.639 2.459,-0.639 1.204,-0.002 2.204,0.304 3.001,0.915 z"
           inkscape:connector-curvature="0" />
        <path
           id="path240"
           d="m 1001.462,238.404 c 0.796,0.611 1.333,1.44 1.611,2.487 h -1.681 c -0.232,-0.593 -0.6,-1.063 -1.104,-1.41 -0.505,-0.347 -1.124,-0.521 -1.855,-0.521 -0.583,0 -1.104,0.144 -1.563,0.431 -0.459,0.287 -0.82,0.697 -1.083,1.229 -0.264,0.533 -0.396,1.156 -0.396,1.869 0,0.704 0.132,1.322 0.396,1.855 0.264,0.533 0.625,0.942 1.083,1.229 0.458,0.287 0.979,0.431 1.563,0.431 0.731,0 1.35,-0.174 1.855,-0.521 0.504,-0.348 0.873,-0.813 1.104,-1.396 h 1.681 c -0.278,1.047 -0.815,1.874 -1.611,2.48 -0.797,0.607 -1.797,0.91 -3.001,0.91 -0.926,0 -1.746,-0.211 -2.459,-0.632 -0.713,-0.421 -1.264,-1.009 -1.653,-1.764 -0.389,-0.755 -0.583,-1.619 -0.583,-2.591 0,-0.972 0.194,-1.836 0.583,-2.591 0.389,-0.755 0.94,-1.345 1.653,-1.771 0.713,-0.426 1.533,-0.639 2.459,-0.639 1.205,-0.002 2.205,0.304 3.001,0.915 z"
           inkscape:connector-curvature="0" />
        <path
           id="path242"
           d="m 1009.088,237.584 v 9.809 h -1.584 v -9.809 z"
           inkscape:connector-curvature="0" />
        <path
           id="path244"
           d="m 1020.917,238.098 c 0.736,0.426 1.315,1.021 1.736,1.785 0.421,0.764 0.632,1.628 0.632,2.591 0,0.963 -0.211,1.827 -0.632,2.591 -0.421,0.764 -1,1.362 -1.736,1.792 -0.736,0.43 -1.559,0.646 -2.466,0.646 -0.917,0 -1.743,-0.215 -2.479,-0.646 -0.736,-0.431 -1.318,-1.028 -1.744,-1.792 -0.426,-0.764 -0.639,-1.627 -0.639,-2.591 0,-0.964 0.213,-1.827 0.639,-2.591 0.426,-0.764 1.007,-1.359 1.744,-1.785 0.736,-0.426 1.563,-0.639 2.479,-0.639 0.907,0 1.729,0.213 2.466,0.639 z m -4.147,1.264 c -0.491,0.287 -0.874,0.7 -1.146,1.236 -0.273,0.538 -0.41,1.163 -0.41,1.876 0,0.713 0.136,1.338 0.41,1.875 0.273,0.537 0.655,0.949 1.146,1.236 0.491,0.287 1.051,0.431 1.681,0.431 0.621,0 1.174,-0.144 1.661,-0.431 0.486,-0.287 0.866,-0.699 1.139,-1.236 0.273,-0.537 0.41,-1.162 0.41,-1.875 0,-0.713 -0.137,-1.338 -0.41,-1.876 -0.273,-0.537 -0.653,-0.949 -1.139,-1.236 -0.486,-0.287 -1.04,-0.431 -1.661,-0.431 -0.631,10e-4 -1.191,0.144 -1.681,0.431 z m 3.876,-3.945 -3.07,1.57 v -1.112 l 3.07,-1.695 z"
           inkscape:connector-curvature="0" />
        <path
           id="path246"
           d="m 1035.692,247.393 h -1.584 l -4.765,-7.238 v 7.238 h -1.584 v -9.794 h 1.584 l 4.765,7.266 v -7.266 h 1.584 z"
           inkscape:connector-curvature="0" />
        <path
           id="path248"
           d="m 1054.232,245.066 c -0.403,0.736 -0.991,1.309 -1.764,1.716 -0.773,0.408 -1.698,0.611 -2.772,0.611 h -3.279 v -9.809 h 3.279 c 1.074,0 1.999,0.202 2.772,0.604 0.773,0.403 1.361,0.97 1.764,1.702 0.403,0.732 0.604,1.593 0.604,2.584 0,0.991 -0.201,1.855 -0.604,2.592 z m -1.952,-0.021 c 0.63,-0.611 0.945,-1.468 0.945,-2.57 0,-1.102 -0.315,-1.959 -0.945,-2.57 -0.63,-0.611 -1.533,-0.917 -2.709,-0.917 h -1.57 v 6.974 h 1.57 c 1.176,0 2.079,-0.306 2.709,-0.917 z"
           inkscape:connector-curvature="0" />
        <path
           id="path250"
           d="m 1060.92,238.862 v 2.973 h 3.612 v 1.223 h -3.612 v 3.042 h 4.029 v 1.292 h -5.613 v -9.809 h 5.613 v 1.278 h -4.029 z"
           inkscape:connector-curvature="0" />
        <path
           id="path252"
           d="m 832.768,269.663 h 3.39 v 1.236 h -4.974 v -9.809 h 1.584 z"
           inkscape:connector-curvature="0" />
        <path
           id="path254"
           d="m 846.408,268.774 h -4.14 l -0.75,2.125 h -1.695 l 3.612,-9.656 h 1.82 l 3.599,9.656 h -1.695 z m -0.445,-1.223 -1.625,-4.585 -1.625,4.585 z"
           inkscape:connector-curvature="0" />
        <path
           id="path256"
           d="m 866.219,261.911 c 0.796,0.611 1.333,1.44 1.611,2.487 h -1.681 c -0.232,-0.593 -0.6,-1.063 -1.104,-1.41 -0.505,-0.347 -1.124,-0.521 -1.855,-0.521 -0.583,0 -1.104,0.144 -1.563,0.431 -0.459,0.287 -0.82,0.697 -1.083,1.229 -0.264,0.533 -0.396,1.156 -0.396,1.869 0,0.704 0.132,1.322 0.396,1.855 0.264,0.533 0.625,0.942 1.083,1.229 0.458,0.287 0.979,0.431 1.563,0.431 0.731,0 1.35,-0.174 1.855,-0.521 0.504,-0.348 0.873,-0.813 1.104,-1.396 h 1.681 c -0.278,1.047 -0.815,1.874 -1.611,2.48 -0.797,0.607 -1.797,0.91 -3.001,0.91 -0.926,0 -1.746,-0.211 -2.459,-0.632 -0.713,-0.421 -1.264,-1.009 -1.653,-1.764 -0.389,-0.755 -0.583,-1.619 -0.583,-2.591 0,-0.972 0.194,-1.836 0.583,-2.591 0.389,-0.755 0.94,-1.345 1.653,-1.771 0.713,-0.426 1.533,-0.639 2.459,-0.639 1.204,-0.002 2.204,0.303 3.001,0.915 z"
           inkscape:connector-curvature="0" />
        <path
           id="path258"
           d="m 873.845,261.091 v 9.809 h -1.584 v -9.809 z"
           inkscape:connector-curvature="0" />
        <path
           id="path260"
           d="m 880.292,261.091 v 5.821 c 0,0.871 0.192,1.519 0.576,1.945 0.384,0.426 0.924,0.639 1.619,0.639 0.686,0 1.22,-0.213 1.605,-0.639 0.384,-0.426 0.576,-1.074 0.576,-1.945 v -5.821 h 1.584 v 5.821 c 0,1.343 -0.347,2.36 -1.042,3.049 -0.695,0.69 -1.612,1.035 -2.751,1.035 -1.13,0 -2.038,-0.345 -2.723,-1.035 -0.686,-0.689 -1.028,-1.706 -1.028,-3.049 v -5.821 z"
           inkscape:connector-curvature="0" />
        <path
           id="path262"
           d="m 898.916,268.572 c -0.403,0.736 -0.991,1.309 -1.764,1.716 -0.773,0.408 -1.698,0.611 -2.772,0.611 h -3.279 v -9.809 h 3.279 c 1.074,0 1.999,0.202 2.772,0.604 0.773,0.403 1.361,0.97 1.764,1.702 0.403,0.732 0.604,1.593 0.604,2.584 0,0.991 -0.201,1.856 -0.604,2.592 z m -1.952,-0.021 c 0.63,-0.611 0.945,-1.468 0.945,-2.57 0,-1.102 -0.315,-1.959 -0.945,-2.57 -0.63,-0.611 -1.533,-0.917 -2.709,-0.917 h -1.57 v 6.974 h 1.57 c 1.176,0 2.079,-0.305 2.709,-0.917 z"
           inkscape:connector-curvature="0" />
        <path
           id="path264"
           d="m 909.319,268.774 h -4.14 l -0.75,2.125 h -1.695 l 3.612,-9.656 h 1.82 l 3.599,9.656 h -1.695 z m -0.445,-1.223 -1.625,-4.585 -1.625,4.585 z"
           inkscape:connector-curvature="0" />
        <path
           id="path266"
           d="m 923.576,268.572 c -0.403,0.736 -0.991,1.309 -1.764,1.716 -0.773,0.408 -1.698,0.611 -2.772,0.611 h -3.279 v -9.809 h 3.279 c 1.074,0 1.999,0.202 2.772,0.604 0.773,0.403 1.361,0.97 1.764,1.702 0.403,0.732 0.604,1.593 0.604,2.584 0,0.991 -0.201,1.856 -0.604,2.592 z m -1.952,-0.021 c 0.63,-0.611 0.945,-1.468 0.945,-2.57 0,-1.102 -0.315,-1.959 -0.945,-2.57 -0.63,-0.611 -1.533,-0.917 -2.709,-0.917 h -1.57 v 6.974 h 1.57 c 1.176,0 2.079,-0.305 2.709,-0.917 z"
           inkscape:connector-curvature="0" />
        <path
           id="path268"
           d="m 936.17,262.369 v 2.973 h 3.612 v 1.223 h -3.612 v 3.042 h 4.029 v 1.292 h -5.613 v -9.809 h 5.613 v 1.278 h -4.029 z"
           inkscape:connector-curvature="0" />
        <path
           id="path270"
           d="m 952.555,270.9 h -1.584 l -4.765,-7.238 v 7.238 h -1.584 v -9.794 h 1.584 l 4.765,7.266 v -7.266 h 1.584 z"
           inkscape:connector-curvature="0" />
        <path
           id="path272"
           d="m 964.864,262.369 v 2.973 h 3.612 v 1.223 h -3.612 v 3.042 h 4.029 v 1.292 h -5.613 v -9.809 h 5.613 v 1.278 h -4.029 z m 3.432,-3.445 -3.07,1.57 v -1.112 l 3.07,-1.695 z"
           inkscape:connector-curvature="0" />
        <path
           id="path274"
           d="m 974.9,267.093 v 3.807 h -1.584 v -9.809 h 3.334 c 1.13,0 1.98,0.269 2.549,0.806 0.57,0.538 0.854,1.274 0.854,2.209 0,0.926 -0.292,1.656 -0.875,2.188 -0.583,0.532 -1.426,0.799 -2.528,0.799 z m 3.543,-2.987 c 0,-0.556 -0.155,-0.979 -0.465,-1.271 -0.311,-0.292 -0.808,-0.438 -1.493,-0.438 H 974.9 v 3.404 h 1.584 c 1.306,0 1.959,-0.565 1.959,-1.695 z"
           inkscape:connector-curvature="0" />
        <path
           id="path276"
           d="m 991.269,261.605 c 0.736,0.426 1.315,1.021 1.736,1.785 0.421,0.764 0.632,1.628 0.632,2.591 0,0.963 -0.211,1.827 -0.632,2.591 -0.421,0.764 -1,1.362 -1.736,1.792 -0.736,0.43 -1.559,0.646 -2.466,0.646 -0.917,0 -1.743,-0.215 -2.479,-0.646 -0.736,-0.431 -1.318,-1.028 -1.744,-1.792 -0.426,-0.764 -0.639,-1.627 -0.639,-2.591 0,-0.964 0.213,-1.827 0.639,-2.591 0.426,-0.764 1.007,-1.359 1.744,-1.785 0.736,-0.426 1.563,-0.639 2.479,-0.639 0.907,0 1.73,0.213 2.466,0.639 z m -4.147,1.264 c -0.491,0.287 -0.874,0.7 -1.146,1.236 -0.273,0.538 -0.41,1.163 -0.41,1.876 0,0.713 0.136,1.338 0.41,1.875 0.273,0.537 0.655,0.949 1.146,1.236 0.491,0.287 1.051,0.431 1.681,0.431 0.621,0 1.174,-0.144 1.661,-0.431 0.486,-0.287 0.866,-0.699 1.139,-1.236 0.273,-0.537 0.41,-1.162 0.41,-1.875 0,-0.713 -0.137,-1.338 -0.41,-1.876 -0.273,-0.537 -0.653,-0.949 -1.139,-1.236 -0.486,-0.287 -1.04,-0.431 -1.661,-0.431 -0.63,0.001 -1.19,0.144 -1.681,0.431 z"
           inkscape:connector-curvature="0" />
        <path
           id="path278"
           d="m 1005.419,261.911 c 0.796,0.611 1.333,1.44 1.611,2.487 h -1.681 c -0.232,-0.593 -0.6,-1.063 -1.104,-1.41 -0.505,-0.347 -1.124,-0.521 -1.855,-0.521 -0.583,0 -1.104,0.144 -1.563,0.431 -0.459,0.287 -0.82,0.697 -1.083,1.229 -0.264,0.533 -0.396,1.156 -0.396,1.869 0,0.704 0.132,1.322 0.396,1.855 0.264,0.533 0.625,0.942 1.083,1.229 0.458,0.287 0.979,0.431 1.563,0.431 0.731,0 1.35,-0.174 1.855,-0.521 0.504,-0.348 0.873,-0.813 1.104,-1.396 h 1.681 c -0.278,1.047 -0.815,1.874 -1.611,2.48 -0.797,0.607 -1.797,0.91 -3.001,0.91 -0.926,0 -1.746,-0.211 -2.459,-0.632 -0.713,-0.421 -1.264,-1.009 -1.653,-1.764 -0.389,-0.755 -0.583,-1.619 -0.583,-2.591 0,-0.972 0.194,-1.836 0.583,-2.591 0.389,-0.755 0.94,-1.345 1.653,-1.771 0.713,-0.426 1.533,-0.639 2.459,-0.639 1.205,-0.002 2.205,0.303 3.001,0.915 z"
           inkscape:connector-curvature="0" />
        <path
           id="path280"
           d="m 1016.897,268.774 h -4.14 l -0.75,2.125 h -1.695 l 3.612,-9.656 h 1.82 l 3.599,9.656 h -1.695 z m -0.444,-1.223 -1.625,-4.585 -1.625,4.585 z"
           inkscape:connector-curvature="0" />
        <path
           id="path282"
           d="m 1037.146,268.572 c -0.403,0.736 -0.991,1.309 -1.764,1.716 -0.773,0.408 -1.698,0.611 -2.772,0.611 h -3.279 v -9.809 h 3.279 c 1.074,0 1.999,0.202 2.772,0.604 0.773,0.403 1.361,0.97 1.764,1.702 0.403,0.732 0.604,1.593 0.604,2.584 0,0.991 -0.201,1.856 -0.604,2.592 z m -1.952,-0.021 c 0.63,-0.611 0.945,-1.468 0.945,-2.57 0,-1.102 -0.315,-1.959 -0.945,-2.57 -0.63,-0.611 -1.533,-0.917 -2.709,-0.917 h -1.57 v 6.974 h 1.57 c 1.177,0 2.079,-0.305 2.709,-0.917 z"
           inkscape:connector-curvature="0" />
        <path
           id="path284"
           d="m 1043.834,262.369 v 2.973 h 3.612 v 1.223 h -3.612 v 3.042 h 4.029 v 1.292 h -5.613 v -9.809 h 5.613 v 1.278 h -4.029 z"
           inkscape:connector-curvature="0" />
        <path
           id="path286"
           d="m 838.561,285.418 c 0.796,0.611 1.333,1.44 1.611,2.487 h -1.681 c -0.232,-0.593 -0.6,-1.063 -1.104,-1.41 -0.505,-0.347 -1.124,-0.521 -1.855,-0.521 -0.583,0 -1.104,0.144 -1.563,0.431 -0.459,0.287 -0.82,0.697 -1.083,1.229 -0.264,0.533 -0.396,1.156 -0.396,1.869 0,0.704 0.132,1.322 0.396,1.855 0.264,0.533 0.625,0.942 1.083,1.229 0.458,0.287 0.979,0.431 1.563,0.431 0.731,0 1.35,-0.174 1.855,-0.521 0.504,-0.348 0.873,-0.813 1.104,-1.396 h 1.681 c -0.278,1.047 -0.815,1.874 -1.611,2.48 -0.797,0.607 -1.797,0.91 -3.001,0.91 -0.926,0 -1.746,-0.211 -2.459,-0.632 -0.713,-0.421 -1.264,-1.009 -1.653,-1.764 -0.389,-0.755 -0.583,-1.619 -0.583,-2.591 0,-0.972 0.194,-1.836 0.583,-2.591 0.389,-0.755 0.94,-1.345 1.653,-1.771 0.713,-0.426 1.533,-0.639 2.459,-0.639 1.204,-0.002 2.204,0.303 3.001,0.915 z"
           inkscape:connector-curvature="0" />
        <path
           id="path288"
           d="m 849.733,294.406 -2.445,-3.918 h -1.125 v 3.918 h -1.584 v -9.809 h 3.459 c 1.121,0 1.97,0.273 2.549,0.82 0.579,0.546 0.868,1.269 0.868,2.167 0,0.769 -0.215,1.398 -0.646,1.889 -0.431,0.491 -1.054,0.806 -1.868,0.945 l 2.57,3.987 h -1.778 z m -3.57,-5.043 h 1.75 c 1.278,0 1.917,-0.565 1.917,-1.695 0,-0.537 -0.155,-0.956 -0.465,-1.257 -0.31,-0.301 -0.794,-0.451 -1.452,-0.451 h -1.75 z"
           inkscape:connector-curvature="0" />
        <path
           id="path290"
           d="m 857.451,284.598 v 9.809 h -1.584 v -9.809 z"
           inkscape:connector-curvature="0" />
        <path
           id="path292"
           d="m 868.447,293.135 c -0.231,0.412 -0.583,0.743 -1.056,0.993 -0.473,0.25 -1.051,0.375 -1.737,0.375 -0.667,0 -1.264,-0.118 -1.792,-0.354 -0.528,-0.236 -0.95,-0.567 -1.265,-0.994 -0.315,-0.426 -0.496,-0.917 -0.542,-1.473 h 1.695 c 0.046,0.426 0.229,0.792 0.549,1.098 0.319,0.306 0.748,0.458 1.285,0.458 0.481,0 0.854,-0.129 1.118,-0.389 0.264,-0.259 0.396,-0.592 0.396,-1 0,-0.352 -0.097,-0.642 -0.292,-0.869 -0.195,-0.227 -0.436,-0.405 -0.723,-0.535 -0.287,-0.13 -0.681,-0.278 -1.181,-0.445 -0.611,-0.194 -1.109,-0.389 -1.494,-0.583 -0.384,-0.194 -0.711,-0.477 -0.979,-0.847 -0.268,-0.37 -0.403,-0.857 -0.403,-1.459 0,-0.528 0.129,-0.991 0.389,-1.389 0.259,-0.398 0.629,-0.706 1.111,-0.924 0.481,-0.218 1.037,-0.327 1.667,-0.327 1,0 1.794,0.241 2.383,0.723 0.588,0.481 0.924,1.111 1.007,1.889 h -1.709 c -0.065,-0.37 -0.239,-0.688 -0.521,-0.952 -0.283,-0.264 -0.669,-0.396 -1.16,-0.396 -0.444,0 -0.801,0.114 -1.07,0.34 -0.269,0.227 -0.403,0.554 -0.403,0.979 0,0.333 0.092,0.609 0.278,0.827 0.185,0.218 0.419,0.389 0.702,0.514 0.282,0.125 0.669,0.271 1.16,0.438 0.62,0.195 1.127,0.392 1.521,0.591 0.394,0.199 0.727,0.488 1,0.868 0.273,0.38 0.41,0.88 0.41,1.5 0.003,0.484 -0.112,0.931 -0.344,1.343 z"
           inkscape:connector-curvature="0" />
        <path
           id="path294"
           d="m 874.897,284.598 v 9.809 h -1.584 v -9.809 z"
           inkscape:connector-curvature="0" />
        <path
           id="path296"
           d="m 885.89,293.135 c -0.231,0.412 -0.583,0.743 -1.056,0.993 -0.473,0.25 -1.051,0.375 -1.737,0.375 -0.667,0 -1.264,-0.118 -1.792,-0.354 -0.528,-0.236 -0.95,-0.567 -1.265,-0.994 -0.315,-0.426 -0.496,-0.917 -0.542,-1.473 h 1.695 c 0.046,0.426 0.229,0.792 0.549,1.098 0.319,0.306 0.748,0.458 1.285,0.458 0.481,0 0.854,-0.129 1.118,-0.389 0.264,-0.259 0.396,-0.592 0.396,-1 0,-0.352 -0.097,-0.642 -0.292,-0.869 -0.195,-0.227 -0.436,-0.405 -0.723,-0.535 -0.287,-0.13 -0.681,-0.278 -1.181,-0.445 -0.611,-0.194 -1.109,-0.389 -1.494,-0.583 -0.384,-0.194 -0.711,-0.477 -0.979,-0.847 -0.268,-0.37 -0.403,-0.857 -0.403,-1.459 0,-0.528 0.129,-0.991 0.389,-1.389 0.259,-0.398 0.629,-0.706 1.111,-0.924 0.481,-0.218 1.037,-0.327 1.667,-0.327 1,0 1.794,0.241 2.383,0.723 0.588,0.481 0.924,1.111 1.007,1.889 h -1.709 c -0.065,-0.37 -0.239,-0.688 -0.521,-0.952 -0.283,-0.264 -0.669,-0.396 -1.16,-0.396 -0.444,0 -0.801,0.114 -1.07,0.34 -0.269,0.227 -0.403,0.554 -0.403,0.979 0,0.333 0.092,0.609 0.278,0.827 0.185,0.218 0.419,0.389 0.702,0.514 0.282,0.125 0.669,0.271 1.16,0.438 0.62,0.195 1.127,0.392 1.521,0.591 0.394,0.199 0.727,0.488 1,0.868 0.273,0.38 0.41,0.88 0.41,1.5 0.003,0.484 -0.113,0.931 -0.344,1.343 z"
           inkscape:connector-curvature="0" />
        <path
           id="path298"
           d="m 902.728,293.135 c -0.231,0.412 -0.583,0.743 -1.056,0.993 -0.473,0.25 -1.051,0.375 -1.737,0.375 -0.667,0 -1.264,-0.118 -1.792,-0.354 -0.528,-0.236 -0.95,-0.567 -1.265,-0.994 -0.315,-0.426 -0.496,-0.917 -0.542,-1.473 h 1.695 c 0.046,0.426 0.229,0.792 0.549,1.098 0.319,0.306 0.748,0.458 1.285,0.458 0.481,0 0.854,-0.129 1.118,-0.389 0.264,-0.259 0.396,-0.592 0.396,-1 0,-0.352 -0.097,-0.642 -0.292,-0.869 -0.195,-0.227 -0.436,-0.405 -0.723,-0.535 -0.287,-0.13 -0.681,-0.278 -1.181,-0.445 -0.611,-0.194 -1.109,-0.389 -1.494,-0.583 -0.384,-0.194 -0.711,-0.477 -0.979,-0.847 -0.268,-0.37 -0.403,-0.857 -0.403,-1.459 0,-0.528 0.129,-0.991 0.389,-1.389 0.259,-0.398 0.629,-0.706 1.111,-0.924 0.481,-0.218 1.037,-0.327 1.667,-0.327 1,0 1.794,0.241 2.383,0.723 0.588,0.481 0.924,1.111 1.007,1.889 h -1.709 c -0.065,-0.37 -0.239,-0.688 -0.521,-0.952 -0.283,-0.264 -0.669,-0.396 -1.16,-0.396 -0.444,0 -0.801,0.114 -1.07,0.34 -0.269,0.227 -0.403,0.554 -0.403,0.979 0,0.333 0.092,0.609 0.278,0.827 0.185,0.218 0.419,0.389 0.702,0.514 0.282,0.125 0.669,0.271 1.16,0.438 0.62,0.195 1.127,0.392 1.521,0.591 0.394,0.199 0.727,0.488 1,0.868 0.273,0.38 0.41,0.88 0.41,1.5 0.003,0.484 -0.113,0.931 -0.344,1.343 z"
           inkscape:connector-curvature="0" />
        <path
           id="path300"
           d="m 913.157,292.281 h -4.14 l -0.75,2.125 h -1.695 l 3.612,-9.656 h 1.82 l 3.599,9.656 h -1.695 z m -0.445,-1.223 -1.625,-4.585 -1.625,4.585 z"
           inkscape:connector-curvature="0" />
        <path
           id="path302"
           d="m 927.532,294.406 h -1.584 l -4.765,-7.238 v 7.238 h -1.584 v -9.794 h 1.584 l 4.765,7.266 v -7.266 h 1.584 z"
           inkscape:connector-curvature="0" />
        <path
           id="path304"
           d="m 934.032,284.598 v 9.809 h -1.584 v -9.809 z"
           inkscape:connector-curvature="0" />
        <path
           id="path306"
           d="m 945.087,284.598 v 1.278 h -2.737 v 8.53 h -1.598 v -8.53 h -2.723 v -1.278 z"
           inkscape:connector-curvature="0" />
        <path
           id="path308"
           d="m 953.93,292.281 h -4.14 l -0.75,2.125 h -1.695 l 3.612,-9.656 h 1.82 l 3.599,9.656 h -1.695 z m -0.445,-1.223 -1.625,-4.585 -1.625,4.585 z"
           inkscape:connector-curvature="0" />
        <path
           id="path310"
           d="m 965.526,294.406 -2.445,-3.918 h -1.125 v 3.918 h -1.584 v -9.809 h 3.459 c 1.121,0 1.97,0.273 2.549,0.82 0.579,0.546 0.868,1.269 0.868,2.167 0,0.769 -0.215,1.398 -0.646,1.889 -0.431,0.491 -1.054,0.806 -1.868,0.945 l 2.57,3.987 h -1.778 z m -3.57,-5.043 h 1.75 c 1.278,0 1.917,-0.565 1.917,-1.695 0,-0.537 -0.155,-0.956 -0.465,-1.257 -0.31,-0.301 -0.794,-0.451 -1.452,-0.451 h -1.75 z"
           inkscape:connector-curvature="0" />
        <path
           id="path312"
           d="m 973.244,284.598 v 9.809 h -1.584 v -9.809 z"
           inkscape:connector-curvature="0" />
        <path
           id="path314"
           d="m 983.833,292.281 h -4.14 l -0.75,2.125 h -1.695 l 3.612,-9.656 h 1.82 l 3.599,9.656 h -1.695 z m -0.444,-1.223 -1.625,-4.585 -1.625,4.585 z"
           inkscape:connector-curvature="0" />
        <path
           id="path316"
           d="m 1003.673,285.376 c 0.778,0.574 1.292,1.357 1.542,2.348 h -1.667 c -0.213,-0.528 -0.563,-0.949 -1.049,-1.264 -0.486,-0.315 -1.063,-0.473 -1.729,-0.473 -0.611,0 -1.16,0.144 -1.646,0.431 -0.486,0.287 -0.866,0.694 -1.139,1.222 -0.273,0.528 -0.41,1.149 -0.41,1.862 0,0.75 0.139,1.394 0.417,1.931 0.278,0.537 0.669,0.947 1.174,1.229 0.504,0.283 1.09,0.424 1.757,0.424 0.815,0 1.514,-0.252 2.098,-0.757 0.583,-0.504 0.936,-1.197 1.056,-2.077 h -3.598 v -1.167 h 4.932 v 1.515 c -0.111,0.722 -0.368,1.378 -0.771,1.966 -0.403,0.588 -0.936,1.058 -1.598,1.41 -0.662,0.352 -1.419,0.528 -2.271,0.528 -0.954,0 -1.797,-0.213 -2.528,-0.639 -0.732,-0.426 -1.297,-1.016 -1.695,-1.771 -0.398,-0.755 -0.597,-1.619 -0.597,-2.591 0,-0.972 0.199,-1.836 0.597,-2.591 0.398,-0.755 0.961,-1.343 1.688,-1.765 0.727,-0.422 1.568,-0.632 2.522,-0.632 1.164,-10e-4 2.137,0.287 2.915,0.861 z"
           inkscape:connector-curvature="0" />
        <path
           id="path318"
           d="m 1011.5,293.17 h 3.39 v 1.236 h -4.974 v -9.809 h 1.584 z"
           inkscape:connector-curvature="0" />
        <path
           id="path320"
           d="m 1025.436,285.112 c 0.736,0.426 1.315,1.021 1.736,1.785 0.421,0.764 0.632,1.628 0.632,2.591 0,0.963 -0.211,1.827 -0.632,2.591 -0.421,0.764 -1,1.362 -1.736,1.792 -0.736,0.43 -1.559,0.646 -2.466,0.646 -0.917,0 -1.743,-0.215 -2.479,-0.646 -0.736,-0.431 -1.318,-1.028 -1.744,-1.792 -0.426,-0.764 -0.639,-1.627 -0.639,-2.591 0,-0.964 0.213,-1.827 0.639,-2.591 0.426,-0.764 1.007,-1.359 1.744,-1.785 0.736,-0.426 1.563,-0.639 2.479,-0.639 0.907,0 1.73,0.213 2.466,0.639 z m -4.147,1.264 c -0.491,0.287 -0.874,0.7 -1.146,1.236 -0.273,0.538 -0.41,1.163 -0.41,1.876 0,0.713 0.136,1.338 0.41,1.875 0.273,0.537 0.655,0.949 1.146,1.236 0.491,0.287 1.051,0.431 1.681,0.431 0.621,0 1.174,-0.144 1.661,-0.431 0.486,-0.287 0.866,-0.699 1.139,-1.236 0.273,-0.537 0.41,-1.162 0.41,-1.875 0,-0.713 -0.137,-1.338 -0.41,-1.876 -0.273,-0.537 -0.653,-0.949 -1.139,-1.236 -0.486,-0.287 -1.04,-0.431 -1.661,-0.431 -0.63,0 -1.19,0.144 -1.681,0.431 z"
           inkscape:connector-curvature="0" />
        <path
           id="path322"
           d="m 1038.829,290.197 c 0.366,0.444 0.549,0.963 0.549,1.556 0,0.815 -0.273,1.461 -0.82,1.938 -0.547,0.477 -1.338,0.715 -2.375,0.715 h -3.904 v -9.809 h 3.834 c 0.982,0 1.734,0.22 2.258,0.66 0.523,0.44 0.785,1.044 0.785,1.813 0,0.621 -0.162,1.123 -0.486,1.507 -0.325,0.384 -0.75,0.642 -1.278,0.771 0.591,0.122 1.07,0.404 1.437,0.849 z m -4.967,-1.376 h 1.959 c 0.556,0 0.979,-0.13 1.271,-0.389 0.292,-0.259 0.438,-0.62 0.438,-1.083 0,-0.454 -0.146,-0.811 -0.438,-1.07 -0.292,-0.259 -0.734,-0.389 -1.327,-0.389 h -1.903 z m 3.397,3.87 c 0.329,-0.273 0.493,-0.655 0.493,-1.146 0,-0.491 -0.167,-0.875 -0.5,-1.153 -0.333,-0.278 -0.801,-0.417 -1.403,-0.417 h -1.987 v 3.126 h 2 c 0.602,-10e-4 1.068,-0.137 1.397,-0.41 z"
           inkscape:connector-curvature="0" />
        <path
           id="path324"
           d="m 1049.411,292.281 h -4.14 l -0.75,2.125 h -1.695 l 3.612,-9.656 h 1.82 l 3.599,9.656 h -1.695 z m -0.445,-1.223 -1.625,-4.585 -1.625,4.585 z"
           inkscape:connector-curvature="0" />
        <path
           id="path326"
           d="m 1057.437,293.17 h 3.39 v 1.236 h -4.974 v -9.809 h 1.584 z"
           inkscape:connector-curvature="0" />
      </g>
    </g>
    <g
       transform="matrix(0.26458333,0,0,0.26458333,-111.88095,18.792325)"
       id="g522">
      <rect
         style="fill:#ffde17"
         x="320"
         y="160.065"
         width="320"
         height="320"
         id="rect464" />
      <g
         id="g520">
        <line
           style="fill:none;stroke:#000000;stroke-width:4;stroke-miterlimit:10"
           stroke-miterlimit="10"
           x1="476.99701"
           y1="209.216"
           x2="476.99701"
           y2="326.75201"
           id="line466" />
        <g
           id="g498">
          <path
             inkscape:connector-curvature="0"
             d="m 395.023,367.502 c 2.046,1.664 3.329,3.931 3.842,6.801 h -6.402 c -0.257,-1.262 -0.845,-2.26 -1.76,-2.992 -0.918,-0.732 -2.079,-1.097 -3.481,-1.097 -1.605,0 -2.944,0.596 -4.017,1.786 -1.076,1.193 -1.612,2.936 -1.612,5.229 0,2.297 0.536,4.04 1.612,5.229 1.072,1.19 2.411,1.786 4.017,1.786 1.401,0 2.563,-0.366 3.481,-1.097 0.915,-0.732 1.503,-1.73 1.76,-2.992 h 6.402 c -0.513,2.87 -1.796,5.137 -3.842,6.801 -2.049,1.664 -4.606,2.494 -7.672,2.494 -2.319,0 -4.382,-0.494 -6.188,-1.483 -1.803,-0.992 -3.207,-2.402 -4.211,-4.241 -1.003,-1.835 -1.503,-4 -1.503,-6.498 0,-2.494 0.5,-4.669 1.503,-6.521 1.003,-1.849 2.408,-3.262 4.211,-4.238 1.806,-0.975 3.869,-1.463 6.188,-1.463 3.066,0.002 5.622,0.832 7.672,2.496 z"
             id="path468" />
          <path
             inkscape:connector-curvature="0"
             d="m 404.497,356.078 c 0.688,-0.619 1.592,-0.926 2.707,-0.926 1.118,0 2.02,0.306 2.707,0.926 0.688,0.616 1.033,1.414 1.033,2.386 0,0.949 -0.345,1.73 -1.033,2.346 -0.688,0.62 -1.589,0.926 -2.707,0.926 -1.115,0 -2.02,-0.306 -2.707,-0.926 -0.688,-0.616 -1.03,-1.397 -1.03,-2.346 0.001,-0.973 0.343,-1.77 1.03,-2.386 z m 5.718,9.23 v 23.844 h -6.06 v -23.844 z"
             id="path470" />
          <path
             inkscape:connector-curvature="0"
             d="m 439.724,365.308 v 23.844 h -6.056 v -4.821 c -0.632,1.608 -1.671,2.863 -3.115,3.766 -1.447,0.903 -3.115,1.354 -5.007,1.354 -2.75,0 -4.941,-0.903 -6.573,-2.709 -1.635,-1.809 -2.451,-4.333 -2.451,-7.576 v -13.859 h 6.017 v 13.171 c 0,1.895 0.487,3.364 1.461,4.412 0.974,1.048 2.29,1.568 3.954,1.568 1.747,0 3.135,-0.557 4.165,-1.677 1.033,-1.12 1.549,-2.725 1.549,-4.821 v -12.653 h 6.056 z"
             id="path472" />
          <path
             inkscape:connector-curvature="0"
             d="m 460.943,366.428 c 1.418,0.946 2.441,2.224 3.073,3.829 v -12.953 h 6.014 v 31.848 h -6.014 v -4.992 c -0.632,1.608 -1.655,2.89 -3.073,3.852 -1.418,0.962 -3.129,1.44 -5.135,1.44 -2.003,0 -3.81,-0.488 -5.415,-1.463 -1.602,-0.975 -2.855,-2.389 -3.757,-4.238 -0.905,-1.852 -1.355,-4.023 -1.355,-6.521 0,-2.494 0.451,-4.669 1.355,-6.521 0.901,-1.849 2.155,-3.262 3.757,-4.238 1.605,-0.975 3.411,-1.463 5.415,-1.463 2.006,0 3.717,0.471 5.135,1.42 z m -7.8,5.724 c -1.145,1.232 -1.717,2.926 -1.717,5.078 0,2.152 0.572,3.839 1.717,5.058 1.148,1.219 2.665,1.829 4.556,1.829 1.832,0 3.342,-0.626 4.533,-1.872 1.188,-1.249 1.783,-2.919 1.783,-5.015 0,-2.122 -0.595,-3.809 -1.783,-5.058 -1.191,-1.246 -2.701,-1.872 -4.533,-1.872 -1.892,0 -3.408,0.619 -4.556,1.852 z"
             id="path474" />
          <path
             inkscape:connector-curvature="0"
             d="m 491.264,366.428 c 1.434,0.946 2.451,2.224 3.053,3.829 v -4.949 h 6.014 v 23.844 h -6.014 v -4.992 c -0.602,1.608 -1.619,2.89 -3.053,3.852 -1.431,0.962 -3.148,1.44 -5.155,1.44 -2.003,0 -3.81,-0.488 -5.415,-1.463 -1.602,-0.975 -2.855,-2.389 -3.757,-4.238 -0.905,-1.852 -1.355,-4.023 -1.355,-6.521 0,-2.494 0.451,-4.669 1.355,-6.521 0.901,-1.849 2.155,-3.262 3.757,-4.238 1.605,-0.975 3.411,-1.463 5.415,-1.463 2.007,0 3.724,0.471 5.155,1.42 z m -7.82,5.724 c -1.145,1.232 -1.717,2.926 -1.717,5.078 0,2.152 0.572,3.839 1.717,5.058 1.148,1.219 2.665,1.829 4.556,1.829 1.832,0 3.342,-0.626 4.533,-1.872 1.188,-1.249 1.783,-2.919 1.783,-5.015 0,-2.122 -0.595,-3.809 -1.783,-5.058 -1.191,-1.246 -2.701,-1.872 -4.533,-1.872 -1.891,0 -3.408,0.619 -4.556,1.852 z"
             id="path476" />
          <path
             inkscape:connector-curvature="0"
             d="m 521.549,366.428 c 1.418,0.946 2.441,2.224 3.073,3.829 v -12.953 h 6.014 v 31.848 h -6.014 v -4.992 c -0.632,1.608 -1.655,2.89 -3.073,3.852 -1.418,0.962 -3.129,1.44 -5.135,1.44 -2.003,0 -3.81,-0.488 -5.415,-1.463 -1.602,-0.975 -2.855,-2.389 -3.757,-4.238 -0.905,-1.852 -1.355,-4.023 -1.355,-6.521 0,-2.494 0.451,-4.669 1.355,-6.521 0.901,-1.849 2.155,-3.262 3.757,-4.238 1.605,-0.975 3.411,-1.463 5.415,-1.463 2.007,0 3.717,0.471 5.135,1.42 z m -7.8,5.724 c -1.145,1.232 -1.717,2.926 -1.717,5.078 0,2.152 0.572,3.839 1.717,5.058 1.148,1.219 2.665,1.829 4.556,1.829 1.832,0 3.342,-0.626 4.533,-1.872 1.188,-1.249 1.783,-2.919 1.783,-5.015 0,-2.122 -0.595,-3.809 -1.783,-5.058 -1.191,-1.246 -2.701,-1.872 -4.533,-1.872 -1.891,0 -3.407,0.619 -4.556,1.852 z"
             id="path478" />
          <path
             inkscape:connector-curvature="0"
             d="m 559.566,378.393 h -17.442 c 0.086,2.122 0.658,3.687 1.717,4.689 1.059,1.005 2.378,1.509 3.954,1.509 1.401,0 2.569,-0.346 3.5,-1.035 0.931,-0.689 1.526,-1.621 1.783,-2.798 h 6.402 c -0.316,1.664 -0.987,3.157 -2.02,4.475 -1.03,1.321 -2.355,2.356 -3.974,3.101 -1.619,0.745 -3.415,1.117 -5.392,1.117 -2.319,0 -4.382,-0.494 -6.188,-1.483 -1.803,-0.992 -3.208,-2.402 -4.211,-4.241 -1.003,-1.835 -1.503,-4 -1.503,-6.498 0,-2.494 0.5,-4.669 1.503,-6.521 1.003,-1.849 2.408,-3.262 4.211,-4.238 1.806,-0.975 3.869,-1.463 6.188,-1.463 2.349,0 4.405,0.488 6.165,1.463 1.763,0.975 3.122,2.316 4.083,4.023 0.961,1.707 1.441,3.651 1.441,5.832 0,0.605 -0.073,1.293 -0.217,2.068 z m -7.412,-7.101 c -1.102,-1.005 -2.454,-1.506 -4.06,-1.506 -1.632,0 -3.007,0.501 -4.125,1.506 -1.115,1.005 -1.734,2.481 -1.846,4.432 h 11.557 c 0.086,-1.951 -0.424,-3.427 -1.526,-4.432 z"
             id="path480" />
          <path
             inkscape:connector-curvature="0"
             d="m 580.159,367.202 c 1.747,1.463 2.839,3.414 3.267,5.852 h -5.672 c -0.23,-1.147 -0.744,-2.066 -1.546,-2.755 -0.802,-0.689 -1.849,-1.031 -3.138,-1.031 -1.03,0 -1.832,0.244 -2.405,0.732 -0.572,0.488 -0.859,1.147 -0.859,1.98 0,0.659 0.227,1.19 0.688,1.592 0.457,0.402 1.03,0.718 1.717,0.946 0.688,0.231 1.678,0.504 2.964,0.817 1.806,0.402 3.273,0.827 4.405,1.272 1.132,0.445 2.105,1.147 2.921,2.109 0.816,0.962 1.227,2.257 1.227,3.895 0,2.036 -0.796,3.687 -2.385,4.949 -1.592,1.262 -3.734,1.891 -6.425,1.891 -3.092,0 -5.573,-0.695 -7.435,-2.086 -1.862,-1.391 -2.994,-3.378 -3.392,-5.961 h 5.8 c 0.141,1.176 0.658,2.102 1.546,2.775 0.888,0.676 2.049,1.012 3.481,1.012 1.03,0 1.819,-0.25 2.362,-0.751 0.546,-0.501 0.819,-1.157 0.819,-1.957 0,-0.689 -0.237,-1.249 -0.711,-1.681 -0.474,-0.428 -1.059,-0.758 -1.76,-0.989 -0.704,-0.231 -1.698,-0.501 -2.987,-0.817 -1.776,-0.402 -3.217,-0.811 -4.319,-1.229 -1.102,-0.415 -2.049,-1.081 -2.836,-2 -0.786,-0.919 -1.181,-2.181 -1.181,-3.786 0,-2.066 0.786,-3.747 2.362,-5.038 1.576,-1.288 3.754,-1.934 6.533,-1.934 2.893,-0.001 5.212,0.73 6.959,2.193 z"
             id="path482" />
          <path
             inkscape:connector-curvature="0"
             d="m 395.023,410.181 c 2.046,1.664 3.329,3.931 3.842,6.801 h -6.402 c -0.257,-1.262 -0.845,-2.26 -1.76,-2.992 -0.918,-0.732 -2.079,-1.097 -3.481,-1.097 -1.605,0 -2.944,0.596 -4.017,1.786 -1.076,1.193 -1.612,2.936 -1.612,5.229 0,2.297 0.536,4.04 1.612,5.229 1.072,1.19 2.411,1.786 4.017,1.786 1.401,0 2.563,-0.366 3.481,-1.097 0.915,-0.732 1.503,-1.73 1.76,-2.992 h 6.402 c -0.513,2.87 -1.796,5.137 -3.842,6.801 -2.049,1.664 -4.606,2.494 -7.672,2.494 -2.319,0 -4.382,-0.494 -6.188,-1.483 -1.803,-0.992 -3.207,-2.402 -4.211,-4.241 -1.003,-1.835 -1.503,-4 -1.503,-6.498 0,-2.494 0.5,-4.669 1.503,-6.521 1.003,-1.849 2.408,-3.262 4.211,-4.238 1.806,-0.975 3.869,-1.463 6.188,-1.463 3.066,0.002 5.622,0.832 7.672,2.496 z"
             id="path484" />
          <path
             inkscape:connector-curvature="0"
             d="m 421.393,409.15 c 1.849,0.975 3.3,2.389 4.362,4.238 1.059,1.852 1.589,4.027 1.589,6.521 0,2.498 -0.53,4.663 -1.589,6.498 -1.063,1.839 -2.513,3.249 -4.362,4.241 -1.849,0.989 -3.931,1.483 -6.251,1.483 -2.323,0 -4.405,-0.494 -6.254,-1.483 -1.846,-0.992 -3.303,-2.402 -4.362,-4.241 -1.059,-1.835 -1.589,-4 -1.589,-6.498 0,-2.494 0.53,-4.669 1.589,-6.521 1.059,-1.849 2.517,-3.262 4.362,-4.238 1.849,-0.975 3.931,-1.463 6.254,-1.463 2.32,0 4.403,0.487 6.251,1.463 z m -10.55,5.572 c -1.174,1.193 -1.76,2.92 -1.76,5.187 0,2.267 0.586,3.997 1.76,5.187 1.174,1.19 2.609,1.786 4.3,1.786 1.688,0 3.122,-0.596 4.296,-1.786 1.174,-1.19 1.76,-2.92 1.76,-5.187 0,-2.267 -0.586,-3.994 -1.76,-5.187 -1.174,-1.19 -2.609,-1.786 -4.296,-1.786 -1.691,0 -3.125,0.596 -4.3,1.786 z"
             id="path486" />
          <path
             inkscape:connector-curvature="0"
             d="m 469.973,410.333 c 1.678,1.793 2.513,4.34 2.513,7.638 v 13.859 h -6.014 v -13.17 c 0,-1.835 -0.467,-3.249 -1.398,-4.238 -0.931,-0.992 -2.211,-1.486 -3.846,-1.486 -1.691,0 -3.036,0.531 -4.036,1.592 -1.003,1.064 -1.507,2.613 -1.507,4.649 v 12.653 h -6.014 v -13.17 c 0,-1.835 -0.467,-3.249 -1.398,-4.238 -0.931,-0.992 -2.211,-1.486 -3.846,-1.486 -1.688,0 -3.036,0.531 -4.037,1.592 -1.003,1.064 -1.503,2.613 -1.503,4.649 v 12.653 h -6.06 v -23.844 h 6.06 v 4.521 c 0.628,-1.552 1.625,-2.748 2.984,-3.595 1.362,-0.847 2.944,-1.269 4.75,-1.269 1.918,0 3.586,0.458 5.004,1.377 1.418,0.916 2.484,2.237 3.201,3.957 0.747,-1.634 1.855,-2.933 3.329,-3.895 1.477,-0.959 3.132,-1.44 4.964,-1.44 2.893,0.002 5.179,0.898 6.854,2.691 z"
             id="path488" />
          <path
             inkscape:connector-curvature="0"
             d="m 501.771,407.987 v 23.844 h -6.056 v -4.821 c -0.632,1.608 -1.671,2.863 -3.115,3.766 -1.448,0.903 -3.115,1.354 -5.007,1.354 -2.75,0 -4.941,-0.903 -6.573,-2.709 -1.635,-1.809 -2.451,-4.333 -2.451,-7.576 v -13.859 h 6.017 v 13.171 c 0,1.895 0.487,3.364 1.461,4.412 0.974,1.048 2.29,1.568 3.954,1.568 1.747,0 3.135,-0.557 4.165,-1.677 1.033,-1.12 1.549,-2.725 1.549,-4.821 v -12.653 h 6.056 z"
             id="path490" />
          <path
             inkscape:connector-curvature="0"
             d="m 529.231,410.356 c 1.635,1.806 2.451,4.346 2.451,7.615 v 13.859 h -6.017 v -13.17 c 0,-1.891 -0.487,-3.361 -1.461,-4.409 -0.974,-1.048 -2.306,-1.572 -3.994,-1.572 -1.721,0 -3.096,0.56 -4.125,1.677 -1.033,1.12 -1.546,2.728 -1.546,4.821 v 12.653 h -6.06 v -23.844 h 6.06 v 4.778 c 0.628,-1.608 1.668,-2.864 3.112,-3.766 1.448,-0.903 3.115,-1.354 5.007,-1.354 2.75,0 4.941,0.903 6.573,2.712 z"
             id="path492" />
          <path
             inkscape:connector-curvature="0"
             d="m 560.388,421.072 h -17.442 c 0.086,2.122 0.658,3.687 1.717,4.689 1.059,1.005 2.378,1.509 3.954,1.509 1.401,0 2.569,-0.346 3.5,-1.035 0.931,-0.689 1.526,-1.621 1.783,-2.798 h 6.402 c -0.316,1.664 -0.987,3.157 -2.02,4.475 -1.03,1.321 -2.355,2.356 -3.974,3.101 -1.619,0.745 -3.415,1.117 -5.392,1.117 -2.319,0 -4.382,-0.494 -6.188,-1.483 -1.803,-0.992 -3.208,-2.402 -4.211,-4.241 -1.003,-1.835 -1.503,-4 -1.503,-6.498 0,-2.494 0.5,-4.669 1.503,-6.521 1.003,-1.849 2.408,-3.262 4.211,-4.238 1.806,-0.975 3.869,-1.463 6.188,-1.463 2.349,0 4.405,0.488 6.165,1.463 1.763,0.975 3.122,2.316 4.083,4.023 0.961,1.707 1.441,3.651 1.441,5.832 0,0.605 -0.072,1.293 -0.217,2.068 z m -7.412,-7.101 c -1.102,-1.005 -2.454,-1.506 -4.06,-1.506 -1.632,0 -3.007,0.501 -4.125,1.506 -1.115,1.005 -1.734,2.481 -1.846,4.432 h 11.557 c 0.086,-1.951 -0.424,-3.427 -1.526,-4.432 z"
             id="path494" />
          <path
             inkscape:connector-curvature="0"
             d="m 580.982,409.881 c 1.747,1.463 2.839,3.414 3.267,5.852 h -5.672 c -0.23,-1.147 -0.743,-2.066 -1.546,-2.755 -0.803,-0.689 -1.849,-1.031 -3.138,-1.031 -1.03,0 -1.832,0.244 -2.405,0.732 -0.572,0.488 -0.859,1.147 -0.859,1.98 0,0.659 0.227,1.19 0.688,1.592 0.457,0.402 1.03,0.718 1.717,0.946 0.688,0.231 1.678,0.504 2.964,0.817 1.806,0.402 3.273,0.827 4.405,1.272 1.132,0.445 2.105,1.147 2.921,2.109 0.816,0.962 1.227,2.257 1.227,3.895 0,2.036 -0.796,3.687 -2.385,4.949 -1.592,1.262 -3.734,1.891 -6.425,1.891 -3.092,0 -5.573,-0.695 -7.435,-2.086 -1.862,-1.391 -2.994,-3.378 -3.392,-5.961 h 5.8 c 0.141,1.176 0.658,2.102 1.546,2.775 0.888,0.676 2.049,1.012 3.481,1.012 1.03,0 1.819,-0.25 2.362,-0.751 0.546,-0.501 0.819,-1.157 0.819,-1.957 0,-0.689 -0.237,-1.249 -0.711,-1.681 -0.474,-0.428 -1.059,-0.758 -1.76,-0.989 -0.704,-0.231 -1.698,-0.501 -2.987,-0.817 -1.776,-0.402 -3.217,-0.811 -4.319,-1.229 -1.102,-0.415 -2.049,-1.081 -2.836,-2 -0.786,-0.919 -1.181,-2.181 -1.181,-3.786 0,-2.066 0.786,-3.747 2.362,-5.038 1.576,-1.288 3.754,-1.934 6.533,-1.934 2.893,-10e-4 5.212,0.73 6.959,2.193 z"
             id="path496" />
        </g>
        <g
           id="g510">
          <g
             id="g508">
            <path
               inkscape:connector-curvature="0"
               d="m 528.876,223.26 c 0,-2.172 -0.52,-3.885 -1.559,-5.134 -1.039,-1.249 -2.665,-1.872 -4.882,-1.872 -4.569,0 -6.994,3.121 -7.27,9.365 h -9.488 c 0.276,-5.78 2.03,-10.162 5.264,-13.144 3.23,-2.982 7.316,-4.475 12.258,-4.475 5.03,0 8.899,1.308 11.6,3.918 2.698,2.613 4.05,6.093 4.05,10.439 0,3.424 -1.003,6.857 -3.013,10.301 -2.007,3.447 -4.56,6.613 -7.652,9.503 -3.092,2.89 -6.346,5.374 -9.764,7.457 h 21.4 v 7.978 H 505.4 v -7.286 c 15.649,-10.865 23.476,-19.883 23.476,-27.05 z"
               id="path500" />
            <path
               inkscape:connector-curvature="0"
               d="m 547.226,233.109 c 0,-16.555 6.234,-24.832 18.699,-24.832 6.599,0 11.356,2.221 14.264,6.66 2.908,4.439 4.362,10.498 4.362,18.173 0,7.724 -1.454,13.803 -4.362,18.242 -2.908,4.439 -7.665,6.66 -14.264,6.66 -12.465,-0.002 -18.699,-8.302 -18.699,-24.903 z m 27.699,0 c 0,-4.995 -0.612,-8.844 -1.836,-11.55 -1.221,-2.705 -3.612,-4.056 -7.165,-4.056 -3.602,0 -6.014,1.351 -7.237,4.056 -1.224,2.705 -1.836,6.554 -1.836,11.55 0,5.042 0.612,8.913 1.836,11.619 1.224,2.705 3.635,4.056 7.237,4.056 3.553,0 5.945,-1.351 7.165,-4.056 1.224,-2.706 1.836,-6.578 1.836,-11.619 z"
               id="path502" />
            <path
               inkscape:connector-curvature="0"
               d="m 528.876,292.043 c 0,-2.172 -0.52,-3.885 -1.559,-5.134 -1.039,-1.249 -2.665,-1.872 -4.882,-1.872 -4.569,0 -6.994,3.121 -7.27,9.365 h -9.488 c 0.276,-5.78 2.03,-10.162 5.264,-13.144 3.23,-2.982 7.316,-4.475 12.258,-4.475 5.03,0 8.899,1.308 11.6,3.918 2.698,2.613 4.05,6.093 4.05,10.439 0,3.424 -1.003,6.857 -3.013,10.301 -2.007,3.447 -4.56,6.613 -7.652,9.503 -3.092,2.89 -6.346,5.374 -9.764,7.457 h 21.4 v 7.978 H 505.4 v -7.286 c 15.649,-10.864 23.476,-19.883 23.476,-27.05 z"
               id="path504" />
            <path
               inkscape:connector-curvature="0"
               d="m 547.226,301.892 c 0,-16.555 6.234,-24.832 18.699,-24.832 6.599,0 11.356,2.221 14.264,6.66 2.908,4.439 4.362,10.498 4.362,18.173 0,7.724 -1.454,13.803 -4.362,18.242 -2.908,4.439 -7.665,6.66 -14.264,6.66 -12.465,-0.001 -18.699,-8.302 -18.699,-24.903 z m 27.699,0 c 0,-4.995 -0.612,-8.844 -1.836,-11.55 -1.221,-2.705 -3.612,-4.056 -7.165,-4.056 -3.602,0 -6.014,1.351 -7.237,4.056 -1.224,2.705 -1.836,6.554 -1.836,11.55 0,5.042 0.612,8.913 1.836,11.619 1.224,2.705 3.635,4.056 7.237,4.056 3.553,0 5.945,-1.351 7.165,-4.056 1.224,-2.705 1.836,-6.577 1.836,-11.619 z"
               id="path506" />
          </g>
        </g>
        <g
           id="g518">
          <g
             id="g514">
            <path
               inkscape:connector-curvature="0"
               d="m 416.969,226.825 c -12.892,0 -21.883,9.609 -21.883,23.722 0,14.413 8.991,24.022 21.883,24.022 9.294,0 16.788,-3.154 21.584,-9.46 l 12.139,10.06 c -7.043,10.208 -19.034,16.216 -34.772,16.216 -23.982,0 -40.47,-16.515 -40.47,-40.689 0,-24.47 16.636,-40.985 40.77,-40.985 14.689,0 26.38,5.404 33.575,14.713 l -11.84,11.26 c -5.1,-5.557 -12.144,-8.859 -20.986,-8.859 z"
               id="path512" />
          </g>
          <rect
             x="378.76801"
             y="314.28699"
             width="67.515999"
             height="14.412"
             id="rect516" />
        </g>
      </g>
    </g>
    <g
       transform="matrix(0.26458333,0,0,0.26458333,-238.88095,61.125656)"
       id="g588">
      <path
         style="fill:#f26522"
         inkscape:connector-curvature="0"
         d="m 880,480.065 c -44.183,0 -80,-35.817 -80,-80 0,-44.183 35.817,-80 80,-80"
         id="path584" />
      <path
         style="fill:#f7adcb"
         inkscape:connector-curvature="0"
         d="m 880,320.065 c 44.183,0 80,35.817 80,80 0,44.183 -35.817,80 -80,80"
         id="path586" />
    </g>
    <g
       transform="matrix(0.26458333,0,0,0.26458333,-238.88095,61.125656)"
       id="g680">
      <path
         style="fill:#ffde17"
         inkscape:connector-curvature="0"
         d="m 976.404,464.091 c 0,0 -6.259,-63.398 28.983,-98.639 35.242,-35.242 98.639,-28.983 98.639,-28.983"
         id="path676" />
      <path
         style="fill:#8cc63f"
         inkscape:connector-curvature="0"
         d="m 975.974,463.661 c 0,0 63.397,6.259 98.639,-28.983 35.242,-35.242 28.983,-98.639 28.983,-98.639"
         id="path678" />
    </g>
  </g>
</svg>
