<?xml version="1.0" encoding="UTF-8" standalone="no"?>
<!-- Created with Inkscape (http://www.inkscape.org/) -->

<svg
   xmlns:dc="http://purl.org/dc/elements/1.1/"
   xmlns:cc="http://creativecommons.org/ns#"
   xmlns:rdf="http://www.w3.org/1999/02/22-rdf-syntax-ns#"
   xmlns:svg="http://www.w3.org/2000/svg"
   xmlns="http://www.w3.org/2000/svg"
   xmlns:sodipodi="http://sodipodi.sourceforge.net/DTD/sodipodi-0.dtd"
   xmlns:inkscape="http://www.inkscape.org/namespaces/inkscape"
   width="84.666664mm"
   height="84.666664mm"
   viewBox="0 0 84.666664 84.666664"
   version="1.1"
   id="svg1412"
   inkscape:export-filename="/home/zaqueo/dev/ciudades-comunes/src/assets/img/congreso2020/logo-cc-2020.png"
   inkscape:export-xdpi="300"
   inkscape:export-ydpi="300"
   inkscape:version="0.92.3 (2405546, 2018-03-11)"
   sodipodi:docname="logo-cc-2020.svg">
  <defs
     id="defs1406" />
  <sodipodi:namedview
     id="base"
     pagecolor="#ffffff"
     bordercolor="#666666"
     borderopacity="1.0"
     inkscape:pageopacity="0.0"
     inkscape:pageshadow="2"
     inkscape:zoom="0.35"
     inkscape:cx="-249.99998"
     inkscape:cy="-151.42857"
     inkscape:document-units="mm"
     inkscape:current-layer="layer1"
     showgrid="false"
     fit-margin-top="0"
     fit-margin-left="0"
     fit-margin-right="0"
     fit-margin-bottom="0"
     inkscape:window-width="1920"
     inkscape:window-height="1052"
     inkscape:window-x="0"
     inkscape:window-y="0"
     inkscape:window-maximized="1" />
  <metadata
     id="metadata1409">
    <rdf:RDF>
      <cc:Work
         rdf:about="">
        <dc:format>image/svg+xml</dc:format>
        <dc:type
           rdf:resource="http://purl.org/dc/dcmitype/StillImage" />
        <dc:title></dc:title>
      </cc:Work>
    </rdf:RDF>
  </metadata>
  <g
     inkscape:label="Layer 1"
     inkscape:groupmode="layer"
     id="layer1"
     transform="translate(-40.065472,-24.101191)">
    <g
       transform="matrix(0.26458333,0,0,0.26458333,-44.601194,-18.24934)"
       id="g1361">
      <rect
         style="fill:#ffde17"
         id="rect26"
         height="160"
         width="160"
         y="160.065"
         x="320" />
      <rect
         style="fill:#ffde17"
         id="rect28"
         height="160"
         width="160"
         y="160.065"
         x="480" />
      <rect
         style="fill:#ffde17"
         id="rect46"
         height="160"
         width="160"
         y="320.065"
         x="320" />
      <rect
         style="fill:#ffde17"
         id="rect48"
         height="160"
         width="160"
         y="320.065"
         x="480" />
      <g
         id="g522">
        <rect
           style="fill:#ffde17"
           id="rect464"
           height="320"
           width="320"
           y="160.065"
           x="320" />
        <g
           id="g520">
          <line
             style="fill:none;stroke:#000000;stroke-width:4;stroke-miterlimit:10"
             id="line466"
             y2="326.75201"
             x2="476.99701"
             y1="209.216"
             x1="476.99701"
             stroke-miterlimit="10" />
          <g
             id="g498">
            <path
               inkscape:connector-curvature="0"
               id="path468"
               d="m 395.023,367.502 c 2.046,1.664 3.329,3.931 3.842,6.801 h -6.402 c -0.257,-1.262 -0.845,-2.26 -1.76,-2.992 -0.918,-0.732 -2.079,-1.097 -3.481,-1.097 -1.605,0 -2.944,0.596 -4.017,1.786 -1.076,1.193 -1.612,2.936 -1.612,5.229 0,2.297 0.536,4.04 1.612,5.229 1.072,1.19 2.411,1.786 4.017,1.786 1.401,0 2.563,-0.366 3.481,-1.097 0.915,-0.732 1.503,-1.73 1.76,-2.992 h 6.402 c -0.513,2.87 -1.796,5.137 -3.842,6.801 -2.049,1.664 -4.606,2.494 -7.672,2.494 -2.319,0 -4.382,-0.494 -6.188,-1.483 -1.803,-0.992 -3.207,-2.402 -4.211,-4.241 -1.003,-1.835 -1.503,-4 -1.503,-6.498 0,-2.494 0.5,-4.669 1.503,-6.521 1.003,-1.849 2.408,-3.262 4.211,-4.238 1.806,-0.975 3.869,-1.463 6.188,-1.463 3.066,0.002 5.622,0.832 7.672,2.496 z" />
            <path
               inkscape:connector-curvature="0"
               id="path470"
               d="m 404.497,356.078 c 0.688,-0.619 1.592,-0.926 2.707,-0.926 1.118,0 2.02,0.306 2.707,0.926 0.688,0.616 1.033,1.414 1.033,2.386 0,0.949 -0.345,1.73 -1.033,2.346 -0.688,0.62 -1.589,0.926 -2.707,0.926 -1.115,0 -2.02,-0.306 -2.707,-0.926 -0.688,-0.616 -1.03,-1.397 -1.03,-2.346 0.001,-0.973 0.343,-1.77 1.03,-2.386 z m 5.718,9.23 v 23.844 h -6.06 v -23.844 z" />
            <path
               inkscape:connector-curvature="0"
               id="path472"
               d="m 439.724,365.308 v 23.844 h -6.056 v -4.821 c -0.632,1.608 -1.671,2.863 -3.115,3.766 -1.447,0.903 -3.115,1.354 -5.007,1.354 -2.75,0 -4.941,-0.903 -6.573,-2.709 -1.635,-1.809 -2.451,-4.333 -2.451,-7.576 v -13.859 h 6.017 v 13.171 c 0,1.895 0.487,3.364 1.461,4.412 0.974,1.048 2.29,1.568 3.954,1.568 1.747,0 3.135,-0.557 4.165,-1.677 1.033,-1.12 1.549,-2.725 1.549,-4.821 v -12.653 h 6.056 z" />
            <path
               inkscape:connector-curvature="0"
               id="path474"
               d="m 460.943,366.428 c 1.418,0.946 2.441,2.224 3.073,3.829 v -12.953 h 6.014 v 31.848 h -6.014 v -4.992 c -0.632,1.608 -1.655,2.89 -3.073,3.852 -1.418,0.962 -3.129,1.44 -5.135,1.44 -2.003,0 -3.81,-0.488 -5.415,-1.463 -1.602,-0.975 -2.855,-2.389 -3.757,-4.238 -0.905,-1.852 -1.355,-4.023 -1.355,-6.521 0,-2.494 0.451,-4.669 1.355,-6.521 0.901,-1.849 2.155,-3.262 3.757,-4.238 1.605,-0.975 3.411,-1.463 5.415,-1.463 2.006,0 3.717,0.471 5.135,1.42 z m -7.8,5.724 c -1.145,1.232 -1.717,2.926 -1.717,5.078 0,2.152 0.572,3.839 1.717,5.058 1.148,1.219 2.665,1.829 4.556,1.829 1.832,0 3.342,-0.626 4.533,-1.872 1.188,-1.249 1.783,-2.919 1.783,-5.015 0,-2.122 -0.595,-3.809 -1.783,-5.058 -1.191,-1.246 -2.701,-1.872 -4.533,-1.872 -1.892,0 -3.408,0.619 -4.556,1.852 z" />
            <path
               inkscape:connector-curvature="0"
               id="path476"
               d="m 491.264,366.428 c 1.434,0.946 2.451,2.224 3.053,3.829 v -4.949 h 6.014 v 23.844 h -6.014 v -4.992 c -0.602,1.608 -1.619,2.89 -3.053,3.852 -1.431,0.962 -3.148,1.44 -5.155,1.44 -2.003,0 -3.81,-0.488 -5.415,-1.463 -1.602,-0.975 -2.855,-2.389 -3.757,-4.238 -0.905,-1.852 -1.355,-4.023 -1.355,-6.521 0,-2.494 0.451,-4.669 1.355,-6.521 0.901,-1.849 2.155,-3.262 3.757,-4.238 1.605,-0.975 3.411,-1.463 5.415,-1.463 2.007,0 3.724,0.471 5.155,1.42 z m -7.82,5.724 c -1.145,1.232 -1.717,2.926 -1.717,5.078 0,2.152 0.572,3.839 1.717,5.058 1.148,1.219 2.665,1.829 4.556,1.829 1.832,0 3.342,-0.626 4.533,-1.872 1.188,-1.249 1.783,-2.919 1.783,-5.015 0,-2.122 -0.595,-3.809 -1.783,-5.058 -1.191,-1.246 -2.701,-1.872 -4.533,-1.872 -1.891,0 -3.408,0.619 -4.556,1.852 z" />
            <path
               inkscape:connector-curvature="0"
               id="path478"
               d="m 521.549,366.428 c 1.418,0.946 2.441,2.224 3.073,3.829 v -12.953 h 6.014 v 31.848 h -6.014 v -4.992 c -0.632,1.608 -1.655,2.89 -3.073,3.852 -1.418,0.962 -3.129,1.44 -5.135,1.44 -2.003,0 -3.81,-0.488 -5.415,-1.463 -1.602,-0.975 -2.855,-2.389 -3.757,-4.238 -0.905,-1.852 -1.355,-4.023 -1.355,-6.521 0,-2.494 0.451,-4.669 1.355,-6.521 0.901,-1.849 2.155,-3.262 3.757,-4.238 1.605,-0.975 3.411,-1.463 5.415,-1.463 2.007,0 3.717,0.471 5.135,1.42 z m -7.8,5.724 c -1.145,1.232 -1.717,2.926 -1.717,5.078 0,2.152 0.572,3.839 1.717,5.058 1.148,1.219 2.665,1.829 4.556,1.829 1.832,0 3.342,-0.626 4.533,-1.872 1.188,-1.249 1.783,-2.919 1.783,-5.015 0,-2.122 -0.595,-3.809 -1.783,-5.058 -1.191,-1.246 -2.701,-1.872 -4.533,-1.872 -1.891,0 -3.407,0.619 -4.556,1.852 z" />
            <path
               inkscape:connector-curvature="0"
               id="path480"
               d="m 559.566,378.393 h -17.442 c 0.086,2.122 0.658,3.687 1.717,4.689 1.059,1.005 2.378,1.509 3.954,1.509 1.401,0 2.569,-0.346 3.5,-1.035 0.931,-0.689 1.526,-1.621 1.783,-2.798 h 6.402 c -0.316,1.664 -0.987,3.157 -2.02,4.475 -1.03,1.321 -2.355,2.356 -3.974,3.101 -1.619,0.745 -3.415,1.117 -5.392,1.117 -2.319,0 -4.382,-0.494 -6.188,-1.483 -1.803,-0.992 -3.208,-2.402 -4.211,-4.241 -1.003,-1.835 -1.503,-4 -1.503,-6.498 0,-2.494 0.5,-4.669 1.503,-6.521 1.003,-1.849 2.408,-3.262 4.211,-4.238 1.806,-0.975 3.869,-1.463 6.188,-1.463 2.349,0 4.405,0.488 6.165,1.463 1.763,0.975 3.122,2.316 4.083,4.023 0.961,1.707 1.441,3.651 1.441,5.832 0,0.605 -0.073,1.293 -0.217,2.068 z m -7.412,-7.101 c -1.102,-1.005 -2.454,-1.506 -4.06,-1.506 -1.632,0 -3.007,0.501 -4.125,1.506 -1.115,1.005 -1.734,2.481 -1.846,4.432 h 11.557 c 0.086,-1.951 -0.424,-3.427 -1.526,-4.432 z" />
            <path
               inkscape:connector-curvature="0"
               id="path482"
               d="m 580.159,367.202 c 1.747,1.463 2.839,3.414 3.267,5.852 h -5.672 c -0.23,-1.147 -0.744,-2.066 -1.546,-2.755 -0.802,-0.689 -1.849,-1.031 -3.138,-1.031 -1.03,0 -1.832,0.244 -2.405,0.732 -0.572,0.488 -0.859,1.147 -0.859,1.98 0,0.659 0.227,1.19 0.688,1.592 0.457,0.402 1.03,0.718 1.717,0.946 0.688,0.231 1.678,0.504 2.964,0.817 1.806,0.402 3.273,0.827 4.405,1.272 1.132,0.445 2.105,1.147 2.921,2.109 0.816,0.962 1.227,2.257 1.227,3.895 0,2.036 -0.796,3.687 -2.385,4.949 -1.592,1.262 -3.734,1.891 -6.425,1.891 -3.092,0 -5.573,-0.695 -7.435,-2.086 -1.862,-1.391 -2.994,-3.378 -3.392,-5.961 h 5.8 c 0.141,1.176 0.658,2.102 1.546,2.775 0.888,0.676 2.049,1.012 3.481,1.012 1.03,0 1.819,-0.25 2.362,-0.751 0.546,-0.501 0.819,-1.157 0.819,-1.957 0,-0.689 -0.237,-1.249 -0.711,-1.681 -0.474,-0.428 -1.059,-0.758 -1.76,-0.989 -0.704,-0.231 -1.698,-0.501 -2.987,-0.817 -1.776,-0.402 -3.217,-0.811 -4.319,-1.229 -1.102,-0.415 -2.049,-1.081 -2.836,-2 -0.786,-0.919 -1.181,-2.181 -1.181,-3.786 0,-2.066 0.786,-3.747 2.362,-5.038 1.576,-1.288 3.754,-1.934 6.533,-1.934 2.893,-0.001 5.212,0.73 6.959,2.193 z" />
            <path
               inkscape:connector-curvature="0"
               id="path484"
               d="m 395.023,410.181 c 2.046,1.664 3.329,3.931 3.842,6.801 h -6.402 c -0.257,-1.262 -0.845,-2.26 -1.76,-2.992 -0.918,-0.732 -2.079,-1.097 -3.481,-1.097 -1.605,0 -2.944,0.596 -4.017,1.786 -1.076,1.193 -1.612,2.936 -1.612,5.229 0,2.297 0.536,4.04 1.612,5.229 1.072,1.19 2.411,1.786 4.017,1.786 1.401,0 2.563,-0.366 3.481,-1.097 0.915,-0.732 1.503,-1.73 1.76,-2.992 h 6.402 c -0.513,2.87 -1.796,5.137 -3.842,6.801 -2.049,1.664 -4.606,2.494 -7.672,2.494 -2.319,0 -4.382,-0.494 -6.188,-1.483 -1.803,-0.992 -3.207,-2.402 -4.211,-4.241 -1.003,-1.835 -1.503,-4 -1.503,-6.498 0,-2.494 0.5,-4.669 1.503,-6.521 1.003,-1.849 2.408,-3.262 4.211,-4.238 1.806,-0.975 3.869,-1.463 6.188,-1.463 3.066,0.002 5.622,0.832 7.672,2.496 z" />
            <path
               inkscape:connector-curvature="0"
               id="path486"
               d="m 421.393,409.15 c 1.849,0.975 3.3,2.389 4.362,4.238 1.059,1.852 1.589,4.027 1.589,6.521 0,2.498 -0.53,4.663 -1.589,6.498 -1.063,1.839 -2.513,3.249 -4.362,4.241 -1.849,0.989 -3.931,1.483 -6.251,1.483 -2.323,0 -4.405,-0.494 -6.254,-1.483 -1.846,-0.992 -3.303,-2.402 -4.362,-4.241 -1.059,-1.835 -1.589,-4 -1.589,-6.498 0,-2.494 0.53,-4.669 1.589,-6.521 1.059,-1.849 2.517,-3.262 4.362,-4.238 1.849,-0.975 3.931,-1.463 6.254,-1.463 2.32,0 4.403,0.487 6.251,1.463 z m -10.55,5.572 c -1.174,1.193 -1.76,2.92 -1.76,5.187 0,2.267 0.586,3.997 1.76,5.187 1.174,1.19 2.609,1.786 4.3,1.786 1.688,0 3.122,-0.596 4.296,-1.786 1.174,-1.19 1.76,-2.92 1.76,-5.187 0,-2.267 -0.586,-3.994 -1.76,-5.187 -1.174,-1.19 -2.609,-1.786 -4.296,-1.786 -1.691,0 -3.125,0.596 -4.3,1.786 z" />
            <path
               inkscape:connector-curvature="0"
               id="path488"
               d="m 469.973,410.333 c 1.678,1.793 2.513,4.34 2.513,7.638 v 13.859 h -6.014 v -13.17 c 0,-1.835 -0.467,-3.249 -1.398,-4.238 -0.931,-0.992 -2.211,-1.486 -3.846,-1.486 -1.691,0 -3.036,0.531 -4.036,1.592 -1.003,1.064 -1.507,2.613 -1.507,4.649 v 12.653 h -6.014 v -13.17 c 0,-1.835 -0.467,-3.249 -1.398,-4.238 -0.931,-0.992 -2.211,-1.486 -3.846,-1.486 -1.688,0 -3.036,0.531 -4.037,1.592 -1.003,1.064 -1.503,2.613 -1.503,4.649 v 12.653 h -6.06 v -23.844 h 6.06 v 4.521 c 0.628,-1.552 1.625,-2.748 2.984,-3.595 1.362,-0.847 2.944,-1.269 4.75,-1.269 1.918,0 3.586,0.458 5.004,1.377 1.418,0.916 2.484,2.237 3.201,3.957 0.747,-1.634 1.855,-2.933 3.329,-3.895 1.477,-0.959 3.132,-1.44 4.964,-1.44 2.893,0.002 5.179,0.898 6.854,2.691 z" />
            <path
               inkscape:connector-curvature="0"
               id="path490"
               d="m 501.771,407.987 v 23.844 h -6.056 v -4.821 c -0.632,1.608 -1.671,2.863 -3.115,3.766 -1.448,0.903 -3.115,1.354 -5.007,1.354 -2.75,0 -4.941,-0.903 -6.573,-2.709 -1.635,-1.809 -2.451,-4.333 -2.451,-7.576 v -13.859 h 6.017 v 13.171 c 0,1.895 0.487,3.364 1.461,4.412 0.974,1.048 2.29,1.568 3.954,1.568 1.747,0 3.135,-0.557 4.165,-1.677 1.033,-1.12 1.549,-2.725 1.549,-4.821 v -12.653 h 6.056 z" />
            <path
               inkscape:connector-curvature="0"
               id="path492"
               d="m 529.231,410.356 c 1.635,1.806 2.451,4.346 2.451,7.615 v 13.859 h -6.017 v -13.17 c 0,-1.891 -0.487,-3.361 -1.461,-4.409 -0.974,-1.048 -2.306,-1.572 -3.994,-1.572 -1.721,0 -3.096,0.56 -4.125,1.677 -1.033,1.12 -1.546,2.728 -1.546,4.821 v 12.653 h -6.06 v -23.844 h 6.06 v 4.778 c 0.628,-1.608 1.668,-2.864 3.112,-3.766 1.448,-0.903 3.115,-1.354 5.007,-1.354 2.75,0 4.941,0.903 6.573,2.712 z" />
            <path
               inkscape:connector-curvature="0"
               id="path494"
               d="m 560.388,421.072 h -17.442 c 0.086,2.122 0.658,3.687 1.717,4.689 1.059,1.005 2.378,1.509 3.954,1.509 1.401,0 2.569,-0.346 3.5,-1.035 0.931,-0.689 1.526,-1.621 1.783,-2.798 h 6.402 c -0.316,1.664 -0.987,3.157 -2.02,4.475 -1.03,1.321 -2.355,2.356 -3.974,3.101 -1.619,0.745 -3.415,1.117 -5.392,1.117 -2.319,0 -4.382,-0.494 -6.188,-1.483 -1.803,-0.992 -3.208,-2.402 -4.211,-4.241 -1.003,-1.835 -1.503,-4 -1.503,-6.498 0,-2.494 0.5,-4.669 1.503,-6.521 1.003,-1.849 2.408,-3.262 4.211,-4.238 1.806,-0.975 3.869,-1.463 6.188,-1.463 2.349,0 4.405,0.488 6.165,1.463 1.763,0.975 3.122,2.316 4.083,4.023 0.961,1.707 1.441,3.651 1.441,5.832 0,0.605 -0.072,1.293 -0.217,2.068 z m -7.412,-7.101 c -1.102,-1.005 -2.454,-1.506 -4.06,-1.506 -1.632,0 -3.007,0.501 -4.125,1.506 -1.115,1.005 -1.734,2.481 -1.846,4.432 h 11.557 c 0.086,-1.951 -0.424,-3.427 -1.526,-4.432 z" />
            <path
               inkscape:connector-curvature="0"
               id="path496"
               d="m 580.982,409.881 c 1.747,1.463 2.839,3.414 3.267,5.852 h -5.672 c -0.23,-1.147 -0.743,-2.066 -1.546,-2.755 -0.803,-0.689 -1.849,-1.031 -3.138,-1.031 -1.03,0 -1.832,0.244 -2.405,0.732 -0.572,0.488 -0.859,1.147 -0.859,1.98 0,0.659 0.227,1.19 0.688,1.592 0.457,0.402 1.03,0.718 1.717,0.946 0.688,0.231 1.678,0.504 2.964,0.817 1.806,0.402 3.273,0.827 4.405,1.272 1.132,0.445 2.105,1.147 2.921,2.109 0.816,0.962 1.227,2.257 1.227,3.895 0,2.036 -0.796,3.687 -2.385,4.949 -1.592,1.262 -3.734,1.891 -6.425,1.891 -3.092,0 -5.573,-0.695 -7.435,-2.086 -1.862,-1.391 -2.994,-3.378 -3.392,-5.961 h 5.8 c 0.141,1.176 0.658,2.102 1.546,2.775 0.888,0.676 2.049,1.012 3.481,1.012 1.03,0 1.819,-0.25 2.362,-0.751 0.546,-0.501 0.819,-1.157 0.819,-1.957 0,-0.689 -0.237,-1.249 -0.711,-1.681 -0.474,-0.428 -1.059,-0.758 -1.76,-0.989 -0.704,-0.231 -1.698,-0.501 -2.987,-0.817 -1.776,-0.402 -3.217,-0.811 -4.319,-1.229 -1.102,-0.415 -2.049,-1.081 -2.836,-2 -0.786,-0.919 -1.181,-2.181 -1.181,-3.786 0,-2.066 0.786,-3.747 2.362,-5.038 1.576,-1.288 3.754,-1.934 6.533,-1.934 2.893,-10e-4 5.212,0.73 6.959,2.193 z" />
          </g>
          <g
             id="g510">
            <g
               id="g508">
              <path
                 inkscape:connector-curvature="0"
                 id="path500"
                 d="m 528.876,223.26 c 0,-2.172 -0.52,-3.885 -1.559,-5.134 -1.039,-1.249 -2.665,-1.872 -4.882,-1.872 -4.569,0 -6.994,3.121 -7.27,9.365 h -9.488 c 0.276,-5.78 2.03,-10.162 5.264,-13.144 3.23,-2.982 7.316,-4.475 12.258,-4.475 5.03,0 8.899,1.308 11.6,3.918 2.698,2.613 4.05,6.093 4.05,10.439 0,3.424 -1.003,6.857 -3.013,10.301 -2.007,3.447 -4.56,6.613 -7.652,9.503 -3.092,2.89 -6.346,5.374 -9.764,7.457 h 21.4 v 7.978 H 505.4 v -7.286 c 15.649,-10.865 23.476,-19.883 23.476,-27.05 z" />
              <path
                 inkscape:connector-curvature="0"
                 id="path502"
                 d="m 547.226,233.109 c 0,-16.555 6.234,-24.832 18.699,-24.832 6.599,0 11.356,2.221 14.264,6.66 2.908,4.439 4.362,10.498 4.362,18.173 0,7.724 -1.454,13.803 -4.362,18.242 -2.908,4.439 -7.665,6.66 -14.264,6.66 -12.465,-0.002 -18.699,-8.302 -18.699,-24.903 z m 27.699,0 c 0,-4.995 -0.612,-8.844 -1.836,-11.55 -1.221,-2.705 -3.612,-4.056 -7.165,-4.056 -3.602,0 -6.014,1.351 -7.237,4.056 -1.224,2.705 -1.836,6.554 -1.836,11.55 0,5.042 0.612,8.913 1.836,11.619 1.224,2.705 3.635,4.056 7.237,4.056 3.553,0 5.945,-1.351 7.165,-4.056 1.224,-2.706 1.836,-6.578 1.836,-11.619 z" />
              <path
                 inkscape:connector-curvature="0"
                 id="path504"
                 d="m 528.876,292.043 c 0,-2.172 -0.52,-3.885 -1.559,-5.134 -1.039,-1.249 -2.665,-1.872 -4.882,-1.872 -4.569,0 -6.994,3.121 -7.27,9.365 h -9.488 c 0.276,-5.78 2.03,-10.162 5.264,-13.144 3.23,-2.982 7.316,-4.475 12.258,-4.475 5.03,0 8.899,1.308 11.6,3.918 2.698,2.613 4.05,6.093 4.05,10.439 0,3.424 -1.003,6.857 -3.013,10.301 -2.007,3.447 -4.56,6.613 -7.652,9.503 -3.092,2.89 -6.346,5.374 -9.764,7.457 h 21.4 v 7.978 H 505.4 v -7.286 c 15.649,-10.864 23.476,-19.883 23.476,-27.05 z" />
              <path
                 inkscape:connector-curvature="0"
                 id="path506"
                 d="m 547.226,301.892 c 0,-16.555 6.234,-24.832 18.699,-24.832 6.599,0 11.356,2.221 14.264,6.66 2.908,4.439 4.362,10.498 4.362,18.173 0,7.724 -1.454,13.803 -4.362,18.242 -2.908,4.439 -7.665,6.66 -14.264,6.66 -12.465,-0.001 -18.699,-8.302 -18.699,-24.903 z m 27.699,0 c 0,-4.995 -0.612,-8.844 -1.836,-11.55 -1.221,-2.705 -3.612,-4.056 -7.165,-4.056 -3.602,0 -6.014,1.351 -7.237,4.056 -1.224,2.705 -1.836,6.554 -1.836,11.55 0,5.042 0.612,8.913 1.836,11.619 1.224,2.705 3.635,4.056 7.237,4.056 3.553,0 5.945,-1.351 7.165,-4.056 1.224,-2.705 1.836,-6.577 1.836,-11.619 z" />
            </g>
          </g>
          <g
             id="g518">
            <g
               id="g514">
              <path
                 inkscape:connector-curvature="0"
                 id="path512"
                 d="m 416.969,226.825 c -12.892,0 -21.883,9.609 -21.883,23.722 0,14.413 8.991,24.022 21.883,24.022 9.294,0 16.788,-3.154 21.584,-9.46 l 12.139,10.06 c -7.043,10.208 -19.034,16.216 -34.772,16.216 -23.982,0 -40.47,-16.515 -40.47,-40.689 0,-24.47 16.636,-40.985 40.77,-40.985 14.689,0 26.38,5.404 33.575,14.713 l -11.84,11.26 c -5.1,-5.557 -12.144,-8.859 -20.986,-8.859 z" />
            </g>
            <rect
               id="rect516"
               height="14.412"
               width="67.515999"
               y="314.28699"
               x="378.76801" />
          </g>
        </g>
      </g>
    </g>
  </g>
</svg>
