<?xml version="1.0" encoding="utf-8"?>
<!-- Generator: Adobe Illustrator 17.0.0, SVG Export Plug-In . SVG Version: 6.00 Build 0)  -->
<!DOCTYPE svg PUBLIC "-//W3C//DTD SVG 1.1//EN" "http://www.w3.org/Graphics/SVG/1.1/DTD/svg11.dtd">
<svg version="1.1" id="Layer_1" xmlns="http://www.w3.org/2000/svg" xmlns:xlink="http://www.w3.org/1999/xlink" x="0px" y="0px"
	 width="100%" height="100%" viewBox="0 0 1214.431 141.565" enable-background="new 0 0 1214.431 141.565"
	 xml:space="preserve">
<g>
	<path fill="#010101" d="M43.779,40.697H28.958v15.079H14.821V40.697H0V27.246h14.821V12.082h14.136v15.165h14.822V40.697z"/>
	<path fill="#010101" d="M80.104,2.872c3.026,1.457,5.325,3.457,6.896,5.998c1.57,2.542,2.356,5.412,2.356,8.61
		c0,3.941-1.015,7.111-3.042,9.51c-2.028,2.398-4.556,3.913-7.583,4.541v0.428c7.825,2.514,11.738,7.397,11.738,14.65
		c0,3.484-0.801,6.583-2.399,9.296c-1.6,2.713-3.928,4.827-6.982,6.34c-3.056,1.514-6.726,2.27-11.009,2.27
		c-6.969,0-12.495-1.713-16.578-5.14c-4.084-3.427-6.297-8.653-6.64-15.679H61.17c0.114,2.686,0.856,4.798,2.228,6.34
		c1.371,1.542,3.369,2.313,5.997,2.313c2.112,0,3.783-0.628,5.012-1.885c1.228-1.256,1.842-2.884,1.842-4.884
		c0-4.969-3.598-7.454-10.795-7.454h-2.742V26.218h2.656c6.454,0.115,9.682-2.198,9.682-6.939c0-2.056-0.557-3.642-1.671-4.755
		c-1.114-1.114-2.613-1.671-4.498-1.671c-2.056,0-3.684,0.7-4.883,2.099c-1.199,1.4-1.885,3.27-2.056,5.612H47.634
		c0.285-6.396,2.284-11.309,5.997-14.736c3.712-3.427,8.91-5.14,15.593-5.14C73.45,0.687,77.076,1.415,80.104,2.872z"/>
	<path fill="#010101" d="M124.406,14.48c-1.171-1.256-2.842-1.885-5.012-1.885c-3.313,0-5.669,1.529-7.068,4.583
		c-1.4,3.056-2.042,7.753-1.928,14.093c0.971-2.341,2.641-4.183,5.012-5.526c2.369-1.341,5.125-2.013,8.268-2.013
		c5.71,0,10.223,1.728,13.537,5.183c3.312,3.457,4.969,8.411,4.969,14.865c0,4.056-0.829,7.654-2.484,10.795
		c-1.657,3.142-4.099,5.583-7.325,7.325c-3.228,1.743-7.098,2.613-11.609,2.613c-8.854,0-14.965-2.742-18.334-8.225
		c-3.371-5.483-5.055-13.079-5.055-22.79c0-11.193,1.799-19.433,5.397-24.717c3.599-5.282,9.453-7.925,17.563-7.925
		c6.396,0,11.251,1.813,14.564,5.44c3.312,3.627,5.168,8.211,5.569,13.75h-13.708C126.362,17.594,125.576,15.737,124.406,14.48z
		 M113.74,49.479c1.485,1.628,3.655,2.441,6.511,2.441c2.57,0,4.584-0.713,6.04-2.142c1.457-1.427,2.185-3.513,2.185-6.254
		c0-2.742-0.743-4.841-2.228-6.297c-1.486-1.457-3.513-2.185-6.083-2.185c-2.457,0-4.513,0.7-6.168,2.1
		c-1.657,1.4-2.485,3.384-2.485,5.954C111.512,45.724,112.254,47.851,113.74,49.479z"/>
	<path fill="#010101" d="M163.516,49.264v14.65h-15.165v-14.65H163.516z"/>
	<path fill="#010101" d="M167.936,32.986c0-9.424,1.913-16.892,5.74-22.404c3.826-5.511,9.938-8.268,18.334-8.268
		c8.338,0,14.436,2.757,18.292,8.268c3.855,5.513,5.783,12.98,5.783,22.404c0,9.481-1.927,16.993-5.783,22.532
		c-3.855,5.541-9.953,8.311-18.292,8.311c-8.396,0-14.508-2.77-18.334-8.311C169.849,49.979,167.936,42.468,167.936,32.986z
		 M201.52,32.986c0-5.426-0.643-9.581-1.928-12.466c-1.285-2.884-3.813-4.327-7.582-4.327c-3.827,0-6.397,1.457-7.711,4.37
		c-1.314,2.913-1.97,7.055-1.97,12.423c0,5.427,0.656,9.61,1.97,12.551c1.313,2.942,3.884,4.413,7.711,4.413
		c3.77,0,6.297-1.47,7.582-4.413C200.877,42.597,201.52,38.413,201.52,32.986z"/>
	<path fill="#010101" d="M221.662,32.986c0-9.424,1.913-16.892,5.74-22.404c3.826-5.511,9.938-8.268,18.334-8.268
		c8.338,0,14.436,2.757,18.292,8.268c3.855,5.513,5.783,12.98,5.783,22.404c0,9.481-1.927,16.993-5.783,22.532
		c-3.855,5.541-9.953,8.311-18.292,8.311c-8.396,0-14.508-2.77-18.334-8.311C223.575,49.979,221.662,42.468,221.662,32.986z
		 M255.246,32.986c0-5.426-0.643-9.581-1.928-12.466c-1.285-2.884-3.813-4.327-7.582-4.327c-3.827,0-6.397,1.457-7.711,4.37
		c-1.314,2.913-1.97,7.055-1.97,12.423c0,5.427,0.656,9.61,1.97,12.551c1.313,2.942,3.884,4.413,7.711,4.413
		c3.77,0,6.297-1.47,7.582-4.413C254.604,42.597,255.246,38.413,255.246,32.986z"/>
	<path fill="#010101" d="M275.388,32.986c0-9.424,1.913-16.892,5.74-22.404c3.826-5.511,9.938-8.268,18.334-8.268
		c8.338,0,14.436,2.757,18.292,8.268c3.855,5.513,5.783,12.98,5.783,22.404c0,9.481-1.927,16.993-5.783,22.532
		c-3.855,5.541-9.953,8.311-18.292,8.311c-8.396,0-14.508-2.77-18.334-8.311C277.301,49.979,275.388,42.468,275.388,32.986z
		 M308.972,32.986c0-5.426-0.643-9.581-1.928-12.466c-1.285-2.884-3.813-4.327-7.582-4.327c-3.827,0-6.397,1.457-7.711,4.37
		c-1.314,2.913-1.97,7.055-1.97,12.423c0,5.427,0.656,9.61,1.97,12.551c1.313,2.942,3.884,4.413,7.711,4.413
		c3.77,0,6.297-1.47,7.582-4.413C308.33,42.597,308.972,38.413,308.972,32.986z"/>
</g>
<g>
	<path fill="#010101" d="M450.917,52.69V40.438l27.673-37.954h15.764v37.44h7.282V52.69h-7.282v11.138h-14.822V52.69H450.917z
		 M480.731,19.448l-14.908,20.477h14.908V19.448z"/>
	<path fill="#010101" d="M511.445,8.653c1.656-2.57,4.126-4.654,7.411-6.254C522.14,0.801,526.124,0,530.808,0
		c4.74,0,8.752,0.801,12.038,2.399c3.284,1.6,5.74,3.684,7.368,6.254c1.628,2.57,2.442,5.312,2.442,8.225
		c0,3.2-0.743,5.927-2.228,8.182c-1.486,2.257-3.656,3.984-6.511,5.183c6.796,3.028,10.195,8.139,10.195,15.336
		c0,4.112-1.028,7.64-3.084,10.581c-2.056,2.942-4.84,5.17-8.353,6.683s-7.468,2.271-11.866,2.271
		c-4.341,0-8.282-0.758-11.823-2.271c-3.542-1.513-6.34-3.74-8.396-6.683c-2.056-2.941-3.084-6.468-3.084-10.581
		c0-7.197,3.397-12.308,10.195-15.336c-2.857-1.199-5.027-2.926-6.511-5.183c-1.486-2.255-2.228-4.982-2.228-8.182
		C508.961,13.965,509.788,11.224,511.445,8.653z M524.168,50.805c1.628,1.486,3.841,2.228,6.64,2.228
		c2.798,0,5.012-0.742,6.64-2.228c1.627-1.485,2.441-3.513,2.441-6.083c0-2.57-0.843-4.583-2.527-6.04
		c-1.685-1.457-3.87-2.185-6.554-2.185c-2.685,0-4.87,0.728-6.554,2.185c-1.686,1.457-2.527,3.47-2.527,6.04
		C521.727,47.292,522.54,49.32,524.168,50.805z M525.368,24.717c1.341,1.229,3.155,1.842,5.44,1.842c2.284,0,4.098-0.613,5.44-1.842
		c1.341-1.228,2.014-3.012,2.014-5.354c0-2.284-0.686-4.083-2.057-5.398c-1.371-1.313-3.17-1.97-5.397-1.97s-4.026,0.657-5.397,1.97
		c-1.371,1.315-2.056,3.114-2.056,5.398C523.354,21.705,524.025,23.49,525.368,24.717z"/>
</g>
<g>
	<path fill="#010101" d="M55.289,81.787c0.603,0.363,1.075,0.886,1.417,1.569c0.341,0.683,0.512,1.483,0.512,2.401
		c0,0.929-0.171,1.734-0.512,2.418c-0.342,0.683-0.814,1.205-1.417,1.568c-0.604,0.363-1.289,0.544-2.057,0.544
		c-0.801,0-1.484-0.197-2.049-0.592c-0.566-0.396-0.96-0.918-1.185-1.569v6.244h-1.825V81.354h1.825v2.049
		c0.224-0.65,0.619-1.174,1.185-1.568c0.565-0.395,1.249-0.593,2.049-0.593C54,81.242,54.685,81.424,55.289,81.787z M51.294,83.203
		c-0.405,0.24-0.726,0.582-0.96,1.024c-0.235,0.443-0.352,0.953-0.352,1.529c0,0.587,0.117,1.1,0.352,1.537s0.555,0.776,0.96,1.017
		c0.406,0.239,0.865,0.36,1.377,0.36c0.811,0,1.462-0.259,1.953-0.777c0.491-0.518,0.736-1.229,0.736-2.137
		c0-0.896-0.246-1.606-0.736-2.129c-0.491-0.523-1.142-0.785-1.953-0.785C52.159,82.843,51.7,82.963,51.294,83.203z"/>
	<path fill="#010101" d="M67.111,86.125h-6.788c0.032,0.907,0.283,1.579,0.752,2.017c0.47,0.438,1.051,0.657,1.745,0.657
		c0.608,0,1.123-0.155,1.545-0.465c0.421-0.31,0.68-0.72,0.776-1.232h1.953c-0.118,0.619-0.363,1.169-0.736,1.649
		c-0.374,0.479-0.859,0.855-1.457,1.128s-1.265,0.408-2.001,0.408c-0.854,0-1.609-0.181-2.265-0.544
		c-0.657-0.363-1.171-0.886-1.545-1.568c-0.374-0.684-0.561-1.489-0.561-2.418c0-0.918,0.187-1.719,0.561-2.401
		c0.374-0.683,0.888-1.206,1.545-1.569c0.656-0.363,1.411-0.544,2.265-0.544c0.864,0,1.619,0.179,2.265,0.537
		c0.646,0.358,1.142,0.848,1.489,1.473s0.521,1.321,0.521,2.089C67.175,85.64,67.153,85.901,67.111,86.125z M65.038,83.844
		c-0.219-0.39-0.518-0.678-0.896-0.864c-0.379-0.187-0.792-0.28-1.241-0.28c-0.715,0-1.313,0.219-1.793,0.656
		c-0.48,0.438-0.742,1.083-0.785,1.938h5.011C65.355,84.716,65.256,84.233,65.038,83.844z"/>
	<path fill="#010101" d="M72.042,81.715c0.555-0.336,1.195-0.504,1.921-0.504v1.985h-0.544c-0.8,0-1.443,0.195-1.929,0.585
		c-0.486,0.389-0.729,1.032-0.729,1.929v4.466h-1.825v-8.82h1.825v1.729C71.059,82.507,71.486,82.051,72.042,81.715z"/>
	<path fill="#010101" d="M80.71,82.035c0.624,0.528,1.006,1.235,1.145,2.121h-1.729c-0.075-0.48-0.28-0.867-0.616-1.161
		c-0.336-0.293-0.782-0.44-1.337-0.44c-0.459,0-0.814,0.11-1.064,0.328c-0.251,0.219-0.376,0.515-0.376,0.888
		c0,0.278,0.091,0.502,0.272,0.673c0.181,0.171,0.408,0.304,0.68,0.4c0.272,0.096,0.659,0.202,1.161,0.32
		c0.662,0.149,1.198,0.304,1.609,0.464c0.411,0.16,0.763,0.413,1.057,0.761c0.293,0.347,0.44,0.818,0.44,1.416
		c0,0.736-0.28,1.334-0.841,1.793c-0.56,0.459-1.315,0.688-2.265,0.688c-1.099,0-1.988-0.256-2.666-0.769
		c-0.678-0.512-1.086-1.227-1.225-2.145h1.777c0.054,0.48,0.267,0.869,0.641,1.168c0.374,0.299,0.864,0.449,1.473,0.449
		c0.438,0,0.782-0.115,1.033-0.345c0.25-0.229,0.376-0.521,0.376-0.872c0-0.31-0.096-0.555-0.288-0.736
		c-0.192-0.182-0.432-0.323-0.72-0.425s-0.683-0.205-1.185-0.312c-0.641-0.15-1.161-0.299-1.561-0.449
		c-0.4-0.148-0.742-0.392-1.024-0.729c-0.283-0.336-0.424-0.792-0.424-1.368c0-0.747,0.28-1.353,0.84-1.817
		c0.561-0.464,1.337-0.696,2.329-0.696C79.255,81.242,80.085,81.507,80.71,82.035z"/>
	<path fill="#010101" d="M90.115,81.787c0.683,0.363,1.217,0.886,1.601,1.569s0.576,1.483,0.576,2.401
		c0,0.929-0.192,1.734-0.576,2.418c-0.384,0.683-0.918,1.205-1.601,1.568s-1.451,0.544-2.305,0.544s-1.62-0.181-2.297-0.544
		c-0.678-0.363-1.211-0.889-1.601-1.577s-0.584-1.491-0.584-2.409s0.195-1.719,0.584-2.401s0.923-1.206,1.601-1.569
		c0.677-0.363,1.443-0.544,2.297-0.544S89.432,81.424,90.115,81.787z M86.513,83.147c-0.395,0.214-0.712,0.542-0.953,0.984
		c-0.24,0.443-0.36,0.984-0.36,1.625c0,0.651,0.12,1.195,0.36,1.633s0.558,0.764,0.953,0.977c0.395,0.214,0.827,0.32,1.296,0.32
		s0.902-0.106,1.297-0.32c0.395-0.213,0.712-0.539,0.953-0.977s0.36-0.981,0.36-1.633c0-0.641-0.12-1.182-0.36-1.625
		c-0.24-0.442-0.558-0.771-0.953-0.984c-0.395-0.213-0.827-0.32-1.297-0.32S86.908,82.934,86.513,83.147z"/>
	<path fill="#010101" d="M101.449,82.203c0.619,0.662,0.929,1.606,0.929,2.833v5.139h-1.825v-4.946c0-0.79-0.203-1.4-0.608-1.833
		c-0.405-0.432-0.96-0.648-1.665-0.648c-0.726,0-1.308,0.232-1.745,0.696c-0.438,0.465-0.656,1.145-0.656,2.041v4.69h-1.825v-8.82
		h1.825v1.937c0.234-0.662,0.629-1.174,1.185-1.537c0.555-0.363,1.195-0.544,1.921-0.544
		C100.008,81.21,100.83,81.541,101.449,82.203z"/>
	<path fill="#010101" d="M110.094,81.835c0.565,0.395,0.965,0.918,1.2,1.568v-2.049h1.825v8.82h-1.825v-2.049
		c-0.235,0.651-0.635,1.174-1.2,1.569c-0.566,0.395-1.249,0.592-2.049,0.592c-0.769,0-1.454-0.181-2.057-0.544
		s-1.075-0.886-1.417-1.568c-0.341-0.684-0.512-1.489-0.512-2.418c0-0.918,0.171-1.719,0.512-2.401
		c0.342-0.683,0.814-1.206,1.417-1.569s1.289-0.544,2.057-0.544C108.845,81.242,109.528,81.44,110.094,81.835z M106.66,83.62
		c-0.486,0.518-0.729,1.229-0.729,2.137s0.243,1.619,0.729,2.137c0.485,0.519,1.134,0.777,1.945,0.777
		c0.513,0,0.971-0.121,1.377-0.36c0.405-0.24,0.726-0.579,0.96-1.017s0.352-0.95,0.352-1.537c0-0.576-0.117-1.086-0.352-1.529
		c-0.235-0.442-0.555-0.784-0.96-1.024c-0.406-0.24-0.864-0.36-1.377-0.36C107.794,82.843,107.146,83.102,106.66,83.62z"/>
	<path fill="#010101" d="M120.7,82.035c0.624,0.528,1.006,1.235,1.145,2.121h-1.729c-0.075-0.48-0.28-0.867-0.616-1.161
		c-0.336-0.293-0.782-0.44-1.337-0.44c-0.459,0-0.814,0.11-1.064,0.328c-0.251,0.219-0.376,0.515-0.376,0.888
		c0,0.278,0.091,0.502,0.272,0.673c0.181,0.171,0.408,0.304,0.68,0.4c0.272,0.096,0.659,0.202,1.161,0.32
		c0.662,0.149,1.198,0.304,1.609,0.464c0.411,0.16,0.763,0.413,1.057,0.761c0.293,0.347,0.44,0.818,0.44,1.416
		c0,0.736-0.28,1.334-0.841,1.793c-0.56,0.459-1.315,0.688-2.265,0.688c-1.099,0-1.988-0.256-2.666-0.769
		c-0.678-0.512-1.086-1.227-1.225-2.145h1.777c0.054,0.48,0.267,0.869,0.641,1.168c0.374,0.299,0.864,0.449,1.473,0.449
		c0.438,0,0.782-0.115,1.033-0.345c0.25-0.229,0.376-0.521,0.376-0.872c0-0.31-0.096-0.555-0.288-0.736
		c-0.192-0.182-0.432-0.323-0.72-0.425s-0.683-0.205-1.185-0.312c-0.641-0.15-1.161-0.299-1.561-0.449
		c-0.4-0.148-0.742-0.392-1.024-0.729c-0.283-0.336-0.424-0.792-0.424-1.368c0-0.747,0.28-1.353,0.84-1.817
		c0.561-0.464,1.337-0.696,2.329-0.696C119.245,81.242,120.075,81.507,120.7,82.035z"/>
	<path fill="#010101" d="M133.85,81.787c0.683,0.363,1.217,0.886,1.601,1.569s0.576,1.483,0.576,2.401
		c0,0.929-0.192,1.734-0.576,2.418c-0.384,0.683-0.918,1.205-1.601,1.568s-1.451,0.544-2.305,0.544s-1.62-0.181-2.297-0.544
		c-0.678-0.363-1.211-0.889-1.601-1.577s-0.584-1.491-0.584-2.409s0.195-1.719,0.584-2.401s0.923-1.206,1.601-1.569
		c0.677-0.363,1.443-0.544,2.297-0.544S133.167,81.424,133.85,81.787z M130.249,83.147c-0.395,0.214-0.712,0.542-0.953,0.984
		c-0.24,0.443-0.36,0.984-0.36,1.625c0,0.651,0.12,1.195,0.36,1.633s0.558,0.764,0.953,0.977c0.395,0.214,0.827,0.32,1.296,0.32
		s0.902-0.106,1.297-0.32c0.395-0.213,0.712-0.539,0.953-0.977s0.36-0.981,0.36-1.633c0-0.641-0.12-1.182-0.36-1.625
		c-0.24-0.442-0.558-0.771-0.953-0.984c-0.395-0.213-0.827-0.32-1.297-0.32S130.643,82.934,130.249,83.147z"/>
	<path fill="#010101" d="M145.185,82.203c0.619,0.662,0.929,1.606,0.929,2.833v5.139h-1.825v-4.946c0-0.79-0.203-1.4-0.608-1.833
		c-0.405-0.432-0.96-0.648-1.665-0.648c-0.726,0-1.308,0.232-1.745,0.696c-0.438,0.465-0.656,1.145-0.656,2.041v4.69h-1.825v-8.82
		h1.825v1.937c0.234-0.662,0.629-1.174,1.185-1.537c0.555-0.363,1.195-0.544,1.921-0.544
		C143.744,81.21,144.565,81.541,145.185,82.203z"/>
	<path fill="#010101" d="M150.067,78.329v11.846h-1.825V78.329H150.067z"/>
	<path fill="#010101" d="M152.34,78.024c0.213-0.202,0.497-0.304,0.849-0.304s0.638,0.102,0.856,0.304
		c0.219,0.203,0.328,0.459,0.328,0.769s-0.109,0.561-0.328,0.752s-0.504,0.289-0.856,0.289s-0.635-0.097-0.849-0.289
		s-0.32-0.443-0.32-0.752S152.127,78.228,152.34,78.024z M154.102,81.354v8.82h-1.825v-8.82H154.102z"/>
	<path fill="#010101" d="M163.707,82.203c0.619,0.662,0.929,1.606,0.929,2.833v5.139h-1.825v-4.946c0-0.79-0.203-1.4-0.608-1.833
		c-0.405-0.432-0.96-0.648-1.665-0.648c-0.726,0-1.308,0.232-1.745,0.696c-0.438,0.465-0.656,1.145-0.656,2.041v4.69h-1.825v-8.82
		h1.825v1.937c0.234-0.662,0.629-1.174,1.185-1.537c0.555-0.363,1.195-0.544,1.921-0.544
		C162.266,81.21,163.087,81.541,163.707,82.203z"/>
	<path fill="#010101" d="M174.897,86.125h-6.788c0.032,0.907,0.283,1.579,0.752,2.017c0.47,0.438,1.051,0.657,1.745,0.657
		c0.608,0,1.123-0.155,1.545-0.465c0.421-0.31,0.68-0.72,0.776-1.232h1.953c-0.118,0.619-0.363,1.169-0.736,1.649
		c-0.374,0.479-0.859,0.855-1.457,1.128s-1.265,0.408-2.001,0.408c-0.854,0-1.609-0.181-2.265-0.544
		c-0.657-0.363-1.171-0.886-1.545-1.568c-0.374-0.684-0.561-1.489-0.561-2.418c0-0.918,0.187-1.719,0.561-2.401
		c0.374-0.683,0.888-1.206,1.545-1.569c0.656-0.363,1.411-0.544,2.265-0.544c0.864,0,1.619,0.179,2.265,0.537
		c0.646,0.358,1.142,0.848,1.489,1.473s0.521,1.321,0.521,2.089C174.961,85.64,174.939,85.901,174.897,86.125z M172.824,83.844
		c-0.219-0.39-0.518-0.678-0.896-0.864c-0.379-0.187-0.792-0.28-1.241-0.28c-0.715,0-1.313,0.219-1.793,0.656
		c-0.48,0.438-0.742,1.083-0.785,1.938h5.011C173.141,84.716,173.042,84.233,172.824,83.844z"/>
</g>
<g>
	<path fill="#010101" d="M463.324,81.787c0.603,0.363,1.075,0.886,1.417,1.569c0.341,0.683,0.512,1.483,0.512,2.401
		c0,0.929-0.171,1.734-0.512,2.418c-0.342,0.683-0.814,1.205-1.417,1.568c-0.604,0.363-1.289,0.544-2.057,0.544
		c-0.801,0-1.484-0.197-2.049-0.592c-0.566-0.396-0.96-0.918-1.185-1.569v6.244h-1.825V81.354h1.825v2.049
		c0.224-0.65,0.619-1.174,1.185-1.568c0.565-0.395,1.249-0.593,2.049-0.593C462.035,81.242,462.72,81.424,463.324,81.787z
		 M459.329,83.203c-0.405,0.24-0.726,0.582-0.96,1.024c-0.235,0.443-0.352,0.953-0.352,1.529c0,0.587,0.117,1.1,0.352,1.537
		s0.555,0.776,0.96,1.017c0.406,0.239,0.865,0.36,1.377,0.36c0.811,0,1.462-0.259,1.953-0.777c0.491-0.518,0.736-1.229,0.736-2.137
		c0-0.896-0.246-1.606-0.736-2.129c-0.491-0.523-1.142-0.785-1.953-0.785C460.194,82.843,459.735,82.963,459.329,83.203z"/>
	<path fill="#010101" d="M472.601,81.835c0.565,0.395,0.965,0.918,1.2,1.568v-2.049h1.825v8.82h-1.825v-2.049
		c-0.235,0.651-0.635,1.174-1.2,1.569c-0.566,0.395-1.249,0.592-2.049,0.592c-0.769,0-1.454-0.181-2.057-0.544
		s-1.075-0.886-1.417-1.568c-0.341-0.684-0.512-1.489-0.512-2.418c0-0.918,0.171-1.719,0.512-2.401
		c0.342-0.683,0.814-1.206,1.417-1.569s1.289-0.544,2.057-0.544C471.352,81.242,472.035,81.44,472.601,81.835z M469.167,83.62
		c-0.486,0.518-0.729,1.229-0.729,2.137s0.243,1.619,0.729,2.137c0.485,0.519,1.134,0.777,1.945,0.777
		c0.513,0,0.971-0.121,1.377-0.36c0.405-0.24,0.726-0.579,0.96-1.017s0.352-0.95,0.352-1.537c0-0.576-0.117-1.086-0.352-1.529
		c-0.235-0.442-0.555-0.784-0.96-1.024c-0.406-0.24-0.864-0.36-1.377-0.36C470.3,82.843,469.652,83.102,469.167,83.62z"/>
	<path fill="#010101" d="M481.469,78.857l-3.538,1.809v-1.28l3.538-1.953V78.857z M479.836,81.354v8.82h-1.841v-8.82H479.836z"/>
	<path fill="#010101" d="M487.625,82.035c0.624,0.528,1.006,1.235,1.145,2.121h-1.729c-0.075-0.48-0.28-0.867-0.616-1.161
		c-0.336-0.293-0.782-0.44-1.337-0.44c-0.459,0-0.814,0.11-1.064,0.328c-0.251,0.219-0.376,0.515-0.376,0.888
		c0,0.278,0.091,0.502,0.272,0.673c0.181,0.171,0.408,0.304,0.68,0.4c0.272,0.096,0.659,0.202,1.161,0.32
		c0.662,0.149,1.198,0.304,1.609,0.464c0.411,0.16,0.763,0.413,1.057,0.761c0.293,0.347,0.44,0.818,0.44,1.416
		c0,0.736-0.28,1.334-0.841,1.793c-0.56,0.459-1.315,0.688-2.265,0.688c-1.099,0-1.988-0.256-2.666-0.769
		c-0.678-0.512-1.086-1.227-1.225-2.145h1.777c0.054,0.48,0.267,0.869,0.641,1.168c0.374,0.299,0.864,0.449,1.473,0.449
		c0.438,0,0.782-0.115,1.033-0.345c0.25-0.229,0.376-0.521,0.376-0.872c0-0.31-0.096-0.555-0.288-0.736
		c-0.192-0.182-0.432-0.323-0.72-0.425s-0.683-0.205-1.185-0.312c-0.641-0.15-1.161-0.299-1.561-0.449
		c-0.4-0.148-0.742-0.392-1.024-0.729c-0.283-0.336-0.424-0.792-0.424-1.368c0-0.747,0.28-1.353,0.84-1.817
		c0.561-0.464,1.337-0.696,2.329-0.696C486.17,81.242,487,81.507,487.625,82.035z"/>
	<path fill="#010101" d="M498.823,86.125h-6.788c0.032,0.907,0.283,1.579,0.752,2.017c0.47,0.438,1.051,0.657,1.745,0.657
		c0.608,0,1.123-0.155,1.545-0.465c0.421-0.31,0.68-0.72,0.776-1.232h1.953c-0.118,0.619-0.363,1.169-0.736,1.649
		c-0.374,0.479-0.859,0.855-1.457,1.128s-1.265,0.408-2.001,0.408c-0.854,0-1.609-0.181-2.265-0.544
		c-0.657-0.363-1.171-0.886-1.545-1.568c-0.374-0.684-0.561-1.489-0.561-2.418c0-0.918,0.187-1.719,0.561-2.401
		c0.374-0.683,0.888-1.206,1.545-1.569c0.656-0.363,1.411-0.544,2.265-0.544c0.864,0,1.619,0.179,2.265,0.537
		c0.646,0.358,1.142,0.848,1.489,1.473s0.521,1.321,0.521,2.089C498.887,85.64,498.865,85.901,498.823,86.125z M496.75,83.844
		c-0.219-0.39-0.518-0.678-0.896-0.864c-0.379-0.187-0.792-0.28-1.241-0.28c-0.715,0-1.313,0.219-1.793,0.656
		c-0.48,0.438-0.742,1.083-0.785,1.938h5.011C497.067,84.716,496.968,84.233,496.75,83.844z"/>
	<path fill="#010101" d="M506.034,82.035c0.624,0.528,1.006,1.235,1.145,2.121h-1.729c-0.075-0.48-0.28-0.867-0.616-1.161
		c-0.336-0.293-0.782-0.44-1.337-0.44c-0.459,0-0.814,0.11-1.064,0.328c-0.251,0.219-0.376,0.515-0.376,0.888
		c0,0.278,0.091,0.502,0.272,0.673c0.181,0.171,0.408,0.304,0.68,0.4c0.272,0.096,0.659,0.202,1.161,0.32
		c0.662,0.149,1.198,0.304,1.609,0.464c0.411,0.16,0.763,0.413,1.057,0.761c0.293,0.347,0.44,0.818,0.44,1.416
		c0,0.736-0.28,1.334-0.841,1.793c-0.56,0.459-1.315,0.688-2.265,0.688c-1.099,0-1.988-0.256-2.666-0.769
		c-0.678-0.512-1.086-1.227-1.225-2.145h1.777c0.054,0.48,0.267,0.869,0.641,1.168c0.374,0.299,0.864,0.449,1.473,0.449
		c0.438,0,0.782-0.115,1.033-0.345c0.25-0.229,0.376-0.521,0.376-0.872c0-0.31-0.096-0.555-0.288-0.736
		c-0.192-0.182-0.432-0.323-0.72-0.425s-0.683-0.205-1.185-0.312c-0.641-0.15-1.161-0.299-1.561-0.449
		c-0.4-0.148-0.742-0.392-1.024-0.729c-0.283-0.336-0.424-0.792-0.424-1.368c0-0.747,0.28-1.353,0.84-1.817
		c0.561-0.464,1.337-0.696,2.329-0.696C504.58,81.242,505.41,81.507,506.034,82.035z"/>
</g>
<g>
	<path fill="#010101" d="M1116.996,9.461c1.656-2.57,4.125-4.654,7.41-6.254c3.284-1.599,7.268-2.399,11.951-2.399
		c4.74,0,8.753,0.801,12.038,2.399c3.284,1.6,5.74,3.684,7.368,6.254c1.627,2.57,2.441,5.312,2.441,8.225
		c0,3.2-0.743,5.927-2.228,8.182c-1.485,2.257-3.655,3.984-6.511,5.183c6.796,3.028,10.195,8.139,10.195,15.336
		c0,4.112-1.029,7.64-3.085,10.581c-2.056,2.942-4.841,5.17-8.353,6.683c-3.514,1.513-7.469,2.271-11.867,2.271
		c-4.34,0-8.281-0.758-11.822-2.271c-3.542-1.513-6.34-3.74-8.396-6.683c-2.056-2.941-3.084-6.468-3.084-10.581
		c0-7.197,3.397-12.308,10.195-15.336c-2.857-1.199-5.027-2.926-6.512-5.183c-1.485-2.255-2.227-4.982-2.227-8.182
		C1114.511,14.772,1115.337,12.031,1116.996,9.461z M1129.718,51.613c1.627,1.486,3.84,2.228,6.639,2.228s5.013-0.742,6.641-2.228
		c1.627-1.485,2.441-3.513,2.441-6.083c0-2.57-0.844-4.583-2.527-6.04c-1.686-1.457-3.87-2.185-6.555-2.185
		s-4.869,0.728-6.553,2.185c-1.686,1.457-2.527,3.47-2.527,6.04C1127.277,48.1,1128.089,50.128,1129.718,51.613z M1130.917,25.525
		c1.342,1.229,3.155,1.842,5.439,1.842c2.285,0,4.098-0.613,5.441-1.842c1.341-1.228,2.014-3.012,2.014-5.354
		c0-2.284-0.686-4.083-2.057-5.398c-1.371-1.313-3.17-1.97-5.398-1.97c-2.227,0-4.025,0.657-5.396,1.97
		c-1.371,1.315-2.057,3.114-2.057,5.398C1128.904,22.513,1129.575,24.297,1130.917,25.525z"/>
	<path fill="#010101" d="M1166.283,33.707c0-9.424,1.913-16.892,5.74-22.404c3.826-5.511,9.938-8.268,18.334-8.268
		c8.339,0,14.437,2.757,18.292,8.268c3.855,5.513,5.782,12.98,5.782,22.404c0,9.481-1.927,16.993-5.782,22.532
		c-3.855,5.541-9.953,8.311-18.292,8.311c-8.396,0-14.508-2.77-18.334-8.311C1168.196,50.7,1166.283,43.188,1166.283,33.707z
		 M1199.867,33.707c0-5.426-0.643-9.581-1.928-12.466c-1.285-2.884-3.813-4.327-7.582-4.327c-3.826,0-6.396,1.457-7.711,4.37
		s-1.97,7.055-1.97,12.423c0,5.427,0.655,9.61,1.97,12.551c1.314,2.942,3.885,4.413,7.711,4.413c3.77,0,6.297-1.47,7.582-4.413
		C1199.224,43.317,1199.867,39.134,1199.867,33.707z"/>
</g>
<g>
	<path fill="#010101" d="M738.842,21.775c0-4.683-2.028-7.025-6.083-7.025c-2.285,0-3.955,0.8-5.012,2.399
		c-1.058,1.6-1.643,4.084-1.756,7.454h-14.309c0.344-7.368,2.57-12.907,6.684-16.621c4.111-3.712,9.309-5.569,15.592-5.569
		c6.568,0,11.523,1.658,14.865,4.97c3.341,3.313,5.012,7.625,5.012,12.937c0,5.884-2.257,11.639-6.768,17.264
		c-4.514,5.626-9.91,10.381-16.193,14.265h23.903V63.67h-43.18V52.703C729.761,39.738,738.842,29.429,738.842,21.775z"/>
	<path fill="#010101" d="M759.576,53.217V40.966l27.672-37.954h15.765v37.44h7.282v12.765h-7.282v11.138h-14.821V53.217H759.576z
		 M789.39,19.976l-14.908,20.477h14.908V19.976z"/>
	<path fill="#010101" d="M878.961,21.518c3.226,3.656,4.841,8.683,4.841,15.079v27.758h-14.65V38.31
		c0-3.198-0.844-5.698-2.527-7.497c-1.686-1.799-3.928-2.699-6.726-2.699c-2.97,0-5.327,0.942-7.067,2.827
		c-1.744,1.885-2.613,4.57-2.613,8.053v25.36h-14.65V0.956h14.65v24.332c1.37-2.855,3.412-5.111,6.125-6.768
		c2.713-1.656,5.896-2.485,9.553-2.485C871.379,16.035,875.734,17.863,878.961,21.518z"/>
	<path fill="#010101" d="M923.794,20.49c3.627,3.028,5.896,7.025,6.812,11.995h-13.708c-0.4-1.941-1.3-3.47-2.699-4.584
		c-1.4-1.113-3.156-1.67-5.269-1.67c-1.657,0-2.913,0.357-3.77,1.071c-0.856,0.715-1.285,1.729-1.285,3.042
		c0,1.486,0.784,2.6,2.356,3.341c1.57,0.743,4.039,1.486,7.41,2.228c3.654,0.856,6.653,1.729,8.996,2.613
		c2.342,0.886,4.369,2.328,6.082,4.326c1.715,2,2.57,4.684,2.57,8.054c0,2.741-0.742,5.17-2.227,7.282
		c-1.486,2.114-3.628,3.77-6.426,4.969c-2.799,1.2-6.112,1.799-9.938,1.799c-6.455,0-11.624-1.427-15.507-4.284
		c-3.885-2.855-6.254-6.939-7.111-12.251h14.137c0.228,2.056,1.099,3.627,2.613,4.712c1.512,1.085,3.469,1.628,5.868,1.628
		c1.656,0,2.913-0.386,3.771-1.157c0.855-0.771,1.284-1.784,1.284-3.041c0-1.656-0.786-2.841-2.356-3.556
		c-1.57-0.713-4.127-1.47-7.668-2.271c-3.541-0.741-6.454-1.542-8.738-2.398c-2.285-0.857-4.256-2.241-5.911-4.155
		c-1.657-1.913-2.485-4.526-2.485-7.839c0-4.284,1.629-7.753,4.885-10.41c3.255-2.656,7.852-3.983,13.793-3.983
		C915.326,15.949,920.167,17.463,923.794,20.49z"/>
</g>
<g>
	<path fill="#010101" d="M1123.462,87.159h-6.788c0.032,0.908,0.282,1.58,0.753,2.018c0.469,0.438,1.051,0.656,1.744,0.656
		c0.609,0,1.123-0.154,1.545-0.464s0.681-0.721,0.777-1.233h1.953c-0.118,0.619-0.363,1.169-0.736,1.649
		c-0.375,0.48-0.859,0.856-1.457,1.129s-1.266,0.408-2.002,0.408c-0.854,0-1.608-0.182-2.265-0.544
		c-0.657-0.363-1.171-0.887-1.545-1.569s-0.561-1.489-0.561-2.417c0-0.918,0.187-1.719,0.561-2.402
		c0.374-0.683,0.888-1.205,1.545-1.568c0.656-0.362,1.411-0.544,2.265-0.544c0.865,0,1.619,0.179,2.266,0.536
		c0.646,0.357,1.143,0.849,1.488,1.473c0.348,0.624,0.521,1.32,0.521,2.089C1123.527,86.675,1123.505,86.936,1123.462,87.159z
		 M1121.389,84.878c-0.22-0.389-0.519-0.677-0.896-0.864c-0.379-0.187-0.792-0.28-1.241-0.28c-0.715,0-1.313,0.219-1.793,0.656
		c-0.48,0.438-0.742,1.084-0.784,1.938h5.011C1121.707,85.751,1121.607,85.269,1121.389,84.878z"/>
	<path fill="#010101" d="M1130.505,91.21l-2.16-3.122l-1.889,3.122h-2.033l2.913-4.578l-2.946-4.243h2.066l2.112,3.042l1.873-3.042
		h2.017l-2.913,4.451l3.026,4.37H1130.505z"/>
	<path fill="#010101" d="M1140.952,82.821c0.603,0.363,1.075,0.886,1.417,1.568c0.341,0.684,0.512,1.484,0.512,2.402
		c0,0.928-0.171,1.734-0.512,2.417c-0.342,0.683-0.814,1.206-1.417,1.569c-0.604,0.362-1.289,0.544-2.058,0.544
		c-0.801,0-1.483-0.197-2.049-0.593c-0.566-0.395-0.961-0.918-1.185-1.568v6.243h-1.825V82.389h1.825v2.049
		c0.224-0.651,0.618-1.174,1.185-1.569c0.565-0.395,1.248-0.592,2.049-0.592C1139.663,82.277,1140.348,82.459,1140.952,82.821z
		 M1136.957,84.238c-0.404,0.24-0.725,0.582-0.96,1.024c-0.235,0.443-0.353,0.953-0.353,1.529c0,0.587,0.117,1.099,0.353,1.536
		c0.235,0.438,0.556,0.776,0.96,1.017c0.406,0.24,0.865,0.36,1.377,0.36c0.812,0,1.463-0.259,1.953-0.776
		c0.491-0.518,0.736-1.23,0.736-2.137c0-0.896-0.245-1.606-0.736-2.13c-0.49-0.522-1.142-0.784-1.953-0.784
		C1137.822,83.878,1137.363,83.998,1136.957,84.238z"/>
	<path fill="#010101" d="M1150.98,82.821c0.684,0.363,1.217,0.886,1.602,1.568c0.385,0.684,0.576,1.484,0.576,2.402
		c0,0.928-0.191,1.734-0.576,2.417s-0.918,1.206-1.602,1.569c-0.683,0.362-1.451,0.544-2.305,0.544s-1.619-0.182-2.297-0.544
		c-0.678-0.363-1.211-0.889-1.602-1.577c-0.389-0.688-0.584-1.491-0.584-2.409s0.195-1.719,0.584-2.402
		c0.391-0.683,0.924-1.205,1.602-1.568c0.678-0.362,1.443-0.544,2.297-0.544S1150.297,82.459,1150.98,82.821z M1147.378,84.183
		c-0.395,0.213-0.712,0.541-0.952,0.984c-0.24,0.442-0.36,0.984-0.36,1.625c0,0.65,0.12,1.195,0.36,1.633s0.558,0.763,0.952,0.977
		c0.395,0.213,0.827,0.32,1.297,0.32s0.902-0.107,1.297-0.32c0.395-0.214,0.713-0.539,0.953-0.977s0.359-0.982,0.359-1.633
		c0-0.641-0.119-1.183-0.359-1.625c-0.24-0.443-0.559-0.771-0.953-0.984c-0.395-0.214-0.827-0.32-1.297-0.32
		S1147.773,83.969,1147.378,84.183z"/>
	<path fill="#010101" d="M1160.306,83.069c0.624,0.528,1.006,1.235,1.145,2.121h-1.729c-0.075-0.48-0.281-0.867-0.617-1.16
		c-0.336-0.294-0.781-0.44-1.336-0.44c-0.459,0-0.814,0.109-1.064,0.328c-0.252,0.219-0.377,0.515-0.377,0.889
		c0,0.277,0.091,0.502,0.272,0.672c0.181,0.171,0.408,0.305,0.681,0.4c0.271,0.097,0.658,0.203,1.16,0.32
		c0.662,0.149,1.197,0.304,1.609,0.464c0.41,0.16,0.763,0.414,1.057,0.761c0.293,0.347,0.439,0.819,0.439,1.417
		c0,0.736-0.279,1.334-0.84,1.793s-1.316,0.688-2.266,0.688c-1.1,0-1.988-0.257-2.666-0.769c-0.678-0.513-1.086-1.228-1.225-2.146
		h1.777c0.054,0.48,0.267,0.87,0.641,1.169c0.373,0.299,0.864,0.448,1.473,0.448c0.438,0,0.781-0.114,1.033-0.345
		c0.25-0.229,0.375-0.52,0.375-0.872c0-0.31-0.096-0.555-0.287-0.736c-0.192-0.182-0.433-0.323-0.721-0.425
		c-0.288-0.101-0.684-0.205-1.185-0.312c-0.641-0.149-1.161-0.299-1.562-0.448s-0.741-0.393-1.023-0.729
		c-0.283-0.336-0.425-0.793-0.425-1.369c0-0.746,0.28-1.353,0.841-1.816c0.561-0.464,1.336-0.696,2.328-0.696
		C1158.851,82.277,1159.681,82.541,1160.306,83.069z"/>
	<path fill="#010101" d="M1163.435,79.06c0.214-0.203,0.497-0.305,0.85-0.305c0.352,0,0.637,0.102,0.855,0.305
		c0.219,0.203,0.328,0.459,0.328,0.768c0,0.31-0.109,0.56-0.328,0.752s-0.504,0.288-0.855,0.288c-0.353,0-0.636-0.096-0.85-0.288
		c-0.213-0.192-0.319-0.442-0.319-0.752C1163.116,79.519,1163.222,79.262,1163.435,79.06z M1165.197,82.389v8.821h-1.825v-8.821
		H1165.197z"/>
	<path fill="#010101" d="M1171.84,89.625v1.585h-1.12c-0.939,0-1.652-0.227-2.138-0.681c-0.485-0.453-0.729-1.208-0.729-2.265
		v-4.322h-1.265v-1.553h1.265v-2.193h1.841v2.193h2.129v1.553h-2.129v4.354c0,0.502,0.094,0.849,0.28,1.041s0.515,0.288,0.985,0.288
		H1171.84z"/>
	<path fill="#010101" d="M1179.892,82.821c0.684,0.363,1.217,0.886,1.602,1.568c0.384,0.684,0.576,1.484,0.576,2.402
		c0,0.928-0.192,1.734-0.576,2.417c-0.385,0.683-0.918,1.206-1.602,1.569c-0.684,0.362-1.451,0.544-2.305,0.544
		c-0.854,0-1.62-0.182-2.297-0.544c-0.679-0.363-1.212-0.889-1.602-1.577s-0.584-1.491-0.584-2.409s0.194-1.719,0.584-2.402
		c0.39-0.683,0.923-1.205,1.602-1.568c0.677-0.362,1.442-0.544,2.297-0.544C1178.441,82.277,1179.208,82.459,1179.892,82.821z
		 M1176.291,84.183c-0.395,0.213-0.713,0.541-0.953,0.984c-0.24,0.442-0.359,0.984-0.359,1.625c0,0.65,0.119,1.195,0.359,1.633
		s0.559,0.763,0.953,0.977c0.395,0.213,0.826,0.32,1.297,0.32c0.469,0,0.901-0.107,1.297-0.32c0.395-0.214,0.712-0.539,0.952-0.977
		s0.36-0.982,0.36-1.633c0-0.641-0.12-1.183-0.36-1.625c-0.24-0.443-0.558-0.771-0.952-0.984c-0.396-0.214-0.828-0.32-1.297-0.32
		C1177.117,83.862,1176.685,83.969,1176.291,84.183z"/>
	<path fill="#010101" d="M1186.937,82.749c0.555-0.336,1.194-0.504,1.92-0.504v1.985h-0.544c-0.8,0-1.443,0.194-1.929,0.584
		c-0.486,0.39-0.729,1.032-0.729,1.929v4.467h-1.825v-8.821h1.825v1.729C1185.955,83.542,1186.381,83.085,1186.937,82.749z"/>
	<path fill="#010101" d="M1198.351,87.159h-6.789c0.033,0.908,0.283,1.58,0.753,2.018s1.052,0.656,1.745,0.656
		c0.608,0,1.123-0.154,1.545-0.464s0.68-0.721,0.776-1.233h1.953c-0.118,0.619-0.363,1.169-0.736,1.649
		c-0.374,0.48-0.859,0.856-1.457,1.129s-1.265,0.408-2.001,0.408c-0.854,0-1.609-0.182-2.266-0.544
		c-0.656-0.363-1.171-0.887-1.545-1.569c-0.373-0.683-0.561-1.489-0.561-2.417c0-0.918,0.188-1.719,0.561-2.402
		c0.374-0.683,0.889-1.205,1.545-1.568c0.656-0.362,1.412-0.544,2.266-0.544c0.864,0,1.619,0.179,2.266,0.536
		c0.645,0.357,1.142,0.849,1.488,1.473s0.521,1.32,0.521,2.089C1198.415,86.675,1198.393,86.936,1198.351,87.159z M1196.277,84.878
		c-0.219-0.389-0.518-0.677-0.896-0.864c-0.379-0.187-0.792-0.28-1.24-0.28c-0.715,0-1.313,0.219-1.793,0.656
		c-0.48,0.438-0.742,1.084-0.785,1.938h5.012C1196.595,85.751,1196.496,85.269,1196.277,84.878z"/>
	<path fill="#010101" d="M1205.562,83.069c0.625,0.528,1.006,1.235,1.145,2.121h-1.729c-0.074-0.48-0.28-0.867-0.616-1.16
		c-0.337-0.294-0.782-0.44-1.337-0.44c-0.459,0-0.814,0.109-1.064,0.328c-0.251,0.219-0.377,0.515-0.377,0.889
		c0,0.277,0.092,0.502,0.273,0.672c0.181,0.171,0.408,0.305,0.68,0.4c0.272,0.097,0.659,0.203,1.16,0.32
		c0.662,0.149,1.198,0.304,1.609,0.464c0.41,0.16,0.764,0.414,1.057,0.761s0.44,0.819,0.44,1.417c0,0.736-0.28,1.334-0.841,1.793
		s-1.315,0.688-2.266,0.688c-1.099,0-1.987-0.257-2.665-0.769c-0.678-0.513-1.086-1.228-1.225-2.146h1.776
		c0.055,0.48,0.268,0.87,0.641,1.169c0.374,0.299,0.865,0.448,1.473,0.448c0.438,0,0.782-0.114,1.033-0.345
		c0.25-0.229,0.376-0.52,0.376-0.872c0-0.31-0.096-0.555-0.288-0.736c-0.191-0.182-0.432-0.323-0.721-0.425
		c-0.287-0.101-0.683-0.205-1.184-0.312c-0.641-0.149-1.161-0.299-1.562-0.448s-0.741-0.393-1.024-0.729s-0.424-0.793-0.424-1.369
		c0-0.746,0.279-1.353,0.84-1.816c0.561-0.464,1.337-0.696,2.329-0.696C1204.108,82.277,1204.938,82.541,1205.562,83.069z"/>
</g>
<g>
	<g>
		<path fill="#010101" d="M715.04,82.704c0.565,0.395,0.96,0.918,1.185,1.568v-5.074h1.841v11.847h-1.841v-2.05
			c-0.225,0.651-0.619,1.175-1.185,1.569c-0.565,0.396-1.249,0.593-2.05,0.593c-0.768,0-1.453-0.182-2.057-0.545
			c-0.604-0.362-1.075-0.886-1.417-1.568c-0.341-0.684-0.513-1.489-0.513-2.418c0-0.918,0.172-1.718,0.513-2.401
			c0.342-0.683,0.813-1.206,1.417-1.568s1.289-0.544,2.057-0.544C713.791,82.112,714.474,82.31,715.04,82.704z M711.605,84.489
			c-0.485,0.518-0.729,1.23-0.729,2.137c0,0.907,0.243,1.62,0.729,2.138c0.486,0.518,1.135,0.776,1.945,0.776
			c0.513,0,0.971-0.12,1.377-0.36c0.405-0.24,0.726-0.579,0.961-1.017c0.234-0.438,0.352-0.949,0.352-1.537
			c0-0.576-0.117-1.086-0.352-1.528c-0.235-0.442-0.556-0.784-0.961-1.024c-0.406-0.24-0.864-0.36-1.377-0.36
			C712.74,83.713,712.091,83.972,711.605,84.489z"/>
		<path fill="#010101" d="M728.39,86.994h-6.787c0.031,0.907,0.282,1.58,0.752,2.018s1.051,0.656,1.745,0.656
			c0.608,0,1.123-0.154,1.545-0.464c0.421-0.31,0.681-0.721,0.776-1.233h1.953c-0.117,0.619-0.363,1.169-0.736,1.649
			c-0.374,0.48-0.859,0.856-1.457,1.129c-0.598,0.271-1.265,0.408-2.001,0.408c-0.854,0-1.608-0.182-2.265-0.545
			c-0.657-0.362-1.172-0.886-1.545-1.568c-0.375-0.684-0.561-1.489-0.561-2.418c0-0.918,0.186-1.718,0.561-2.401
			c0.373-0.683,0.888-1.206,1.545-1.568c0.656-0.363,1.41-0.544,2.265-0.544c0.864,0,1.619,0.179,2.265,0.537
			c0.646,0.357,1.143,0.848,1.489,1.473c0.347,0.624,0.521,1.32,0.521,2.089C728.455,86.509,728.433,86.771,728.39,86.994z
			 M726.318,84.713c-0.22-0.39-0.519-0.677-0.896-0.864c-0.379-0.187-0.793-0.28-1.241-0.28c-0.716,0-1.313,0.219-1.793,0.656
			c-0.48,0.438-0.742,1.084-0.784,1.938h5.01C726.634,85.586,726.536,85.103,726.318,84.713z"/>
		<path fill="#010101" d="M734.025,78.894c0.214-0.203,0.497-0.304,0.85-0.304c0.352,0,0.637,0.102,0.855,0.304
			s0.328,0.459,0.328,0.768c0,0.31-0.109,0.561-0.328,0.753c-0.219,0.192-0.504,0.288-0.855,0.288c-0.353,0-0.636-0.096-0.85-0.288
			c-0.213-0.192-0.319-0.443-0.319-0.753C733.706,79.353,733.812,79.097,734.025,78.894z M735.787,82.224v8.821h-1.825v-8.821
			H735.787z"/>
		<path fill="#010101" d="M743.583,82.704c0.564,0.395,0.96,0.918,1.184,1.568v-5.074h1.842v11.847h-1.842v-2.05
			c-0.224,0.651-0.619,1.175-1.184,1.569c-0.566,0.396-1.25,0.593-2.05,0.593c-0.769,0-1.454-0.182-2.058-0.545
			c-0.603-0.362-1.074-0.886-1.416-1.568c-0.342-0.684-0.513-1.489-0.513-2.418c0-0.918,0.171-1.718,0.513-2.401
			c0.342-0.683,0.813-1.206,1.416-1.568c0.604-0.363,1.289-0.544,2.058-0.544C742.333,82.112,743.017,82.31,743.583,82.704z
			 M740.149,84.489c-0.485,0.518-0.729,1.23-0.729,2.137c0,0.907,0.243,1.62,0.729,2.138s1.134,0.776,1.944,0.776
			c0.514,0,0.972-0.12,1.377-0.36c0.406-0.24,0.727-0.579,0.961-1.017s0.352-0.949,0.352-1.537c0-0.576-0.117-1.086-0.352-1.528
			s-0.555-0.784-0.961-1.024c-0.405-0.24-0.863-0.36-1.377-0.36C741.283,83.713,740.634,83.972,740.149,84.489z"/>
		<path fill="#010101" d="M756.934,86.994h-6.788c0.032,0.907,0.283,1.58,0.752,2.018c0.471,0.438,1.052,0.656,1.746,0.656
			c0.607,0,1.123-0.154,1.545-0.464c0.421-0.31,0.68-0.721,0.775-1.233h1.953c-0.117,0.619-0.363,1.169-0.736,1.649
			s-0.859,0.856-1.457,1.129c-0.598,0.271-1.264,0.408-2,0.408c-0.854,0-1.609-0.182-2.266-0.545
			c-0.656-0.362-1.172-0.886-1.545-1.568c-0.374-0.684-0.561-1.489-0.561-2.418c0-0.918,0.187-1.718,0.561-2.401
			c0.373-0.683,0.889-1.206,1.545-1.568s1.411-0.544,2.266-0.544c0.863,0,1.619,0.179,2.265,0.537
			c0.646,0.357,1.142,0.848,1.489,1.473c0.346,0.624,0.52,1.32,0.52,2.089C756.998,86.509,756.976,86.771,756.934,86.994z
			 M754.861,84.713c-0.219-0.39-0.518-0.677-0.896-0.864c-0.379-0.187-0.793-0.28-1.24-0.28c-0.716,0-1.313,0.219-1.793,0.656
			c-0.48,0.438-0.742,1.084-0.785,1.938h5.011C755.178,85.586,755.08,85.103,754.861,84.713z"/>
		<path fill="#010101" d="M764.346,82.704c0.565,0.395,0.966,0.918,1.2,1.568v-2.049h1.825v8.821h-1.825v-2.05
			c-0.234,0.651-0.635,1.175-1.2,1.569c-0.565,0.396-1.249,0.593-2.05,0.593c-0.768,0-1.453-0.182-2.057-0.545
			c-0.604-0.362-1.075-0.886-1.417-1.568c-0.341-0.684-0.513-1.489-0.513-2.418c0-0.918,0.172-1.718,0.513-2.401
			c0.342-0.683,0.813-1.206,1.417-1.568s1.289-0.544,2.057-0.544C763.097,82.112,763.781,82.31,764.346,82.704z M760.912,84.489
			c-0.485,0.518-0.729,1.23-0.729,2.137c0,0.907,0.243,1.62,0.729,2.138c0.486,0.518,1.135,0.776,1.945,0.776
			c0.513,0,0.971-0.12,1.377-0.36c0.405-0.24,0.726-0.579,0.961-1.017c0.234-0.438,0.352-0.949,0.352-1.537
			c0-0.576-0.117-1.086-0.352-1.528c-0.235-0.442-0.556-0.784-0.961-1.024c-0.406-0.24-0.864-0.36-1.377-0.36
			C762.046,83.713,761.398,83.972,760.912,84.489z"/>
		<path fill="#010101" d="M774.952,82.904c0.624,0.528,1.006,1.235,1.145,2.121h-1.729c-0.074-0.48-0.279-0.867-0.615-1.161
			c-0.337-0.293-0.783-0.439-1.338-0.439c-0.459,0-0.813,0.109-1.064,0.328c-0.25,0.219-0.376,0.515-0.376,0.889
			c0,0.277,0.091,0.502,0.272,0.672c0.182,0.171,0.408,0.305,0.68,0.4c0.273,0.096,0.66,0.203,1.161,0.32
			c0.661,0.149,1.198,0.304,1.608,0.464c0.411,0.16,0.764,0.414,1.057,0.761c0.294,0.347,0.441,0.819,0.441,1.416
			c0,0.737-0.281,1.335-0.842,1.793c-0.56,0.459-1.314,0.689-2.265,0.689c-1.099,0-1.987-0.257-2.665-0.769
			c-0.678-0.513-1.086-1.228-1.225-2.146h1.776c0.054,0.48,0.267,0.87,0.641,1.169s0.864,0.448,1.473,0.448
			c0.438,0,0.782-0.115,1.032-0.345c0.251-0.229,0.377-0.521,0.377-0.872c0-0.31-0.096-0.555-0.289-0.736
			c-0.191-0.182-0.432-0.323-0.72-0.425c-0.288-0.101-0.683-0.205-1.185-0.312c-0.641-0.149-1.16-0.299-1.561-0.448
			s-0.742-0.393-1.025-0.729c-0.283-0.337-0.424-0.793-0.424-1.369c0-0.747,0.28-1.353,0.84-1.817
			c0.561-0.464,1.338-0.696,2.33-0.696C773.498,82.112,774.328,82.376,774.952,82.904z"/>
		<path fill="#010101" d="M788.879,82.656c0.603,0.363,1.075,0.886,1.417,1.568c0.341,0.684,0.512,1.483,0.512,2.401
			c0,0.929-0.171,1.734-0.512,2.418c-0.342,0.683-0.814,1.206-1.417,1.568c-0.604,0.363-1.289,0.545-2.058,0.545
			c-0.801,0-1.483-0.197-2.049-0.593c-0.566-0.395-0.961-0.918-1.185-1.569v6.244h-1.825V82.224h1.825v2.049
			c0.224-0.65,0.618-1.173,1.185-1.568c0.565-0.395,1.248-0.592,2.049-0.592C787.59,82.112,788.276,82.293,788.879,82.656z
			 M784.884,84.073c-0.404,0.24-0.725,0.582-0.96,1.024s-0.353,0.952-0.353,1.528c0,0.588,0.117,1.1,0.353,1.537
			s0.556,0.776,0.96,1.017c0.406,0.24,0.865,0.36,1.377,0.36c0.812,0,1.463-0.259,1.953-0.776c0.491-0.518,0.736-1.23,0.736-2.138
			c0-0.896-0.245-1.605-0.736-2.129c-0.49-0.522-1.142-0.784-1.953-0.784C785.75,83.713,785.291,83.833,784.884,84.073z"/>
		<path fill="#010101" d="M798.156,82.704c0.566,0.395,0.966,0.918,1.201,1.568v-2.049h1.824v8.821h-1.824v-2.05
			c-0.235,0.651-0.635,1.175-1.201,1.569c-0.565,0.396-1.248,0.593-2.049,0.593c-0.769,0-1.454-0.182-2.057-0.545
			c-0.604-0.362-1.076-0.886-1.418-1.568c-0.341-0.684-0.512-1.489-0.512-2.418c0-0.918,0.171-1.718,0.512-2.401
			c0.342-0.683,0.814-1.206,1.418-1.568c0.603-0.363,1.288-0.544,2.057-0.544C796.908,82.112,797.59,82.31,798.156,82.704z
			 M794.722,84.489c-0.486,0.518-0.729,1.23-0.729,2.137c0,0.907,0.242,1.62,0.729,2.138c0.485,0.518,1.134,0.776,1.945,0.776
			c0.512,0,0.971-0.12,1.377-0.36c0.404-0.24,0.725-0.579,0.96-1.017s0.353-0.949,0.353-1.537c0-0.576-0.117-1.086-0.353-1.528
			s-0.556-0.784-0.96-1.024c-0.406-0.24-0.865-0.36-1.377-0.36C795.856,83.713,795.208,83.972,794.722,84.489z"/>
		<path fill="#010101" d="M806.48,82.584c0.555-0.336,1.195-0.504,1.922-0.504v1.985h-0.545c-0.801,0-1.443,0.194-1.929,0.584
			s-0.729,1.032-0.729,1.929v4.467h-1.825v-8.821h1.825v1.729C805.498,83.376,805.925,82.92,806.48,82.584z"/>
		<path fill="#010101" d="M815.349,82.704c0.565,0.395,0.965,0.918,1.2,1.568v-2.049h1.825v8.821h-1.825v-2.05
			c-0.235,0.651-0.635,1.175-1.2,1.569c-0.566,0.396-1.249,0.593-2.049,0.593c-0.77,0-1.455-0.182-2.058-0.545
			c-0.603-0.362-1.075-0.886-1.417-1.568c-0.342-0.684-0.512-1.489-0.512-2.418c0-0.918,0.17-1.718,0.512-2.401
			c0.342-0.683,0.814-1.206,1.417-1.568s1.288-0.544,2.058-0.544C814.1,82.112,814.783,82.31,815.349,82.704z M811.916,84.489
			c-0.486,0.518-0.729,1.23-0.729,2.137c0,0.907,0.242,1.62,0.729,2.138c0.484,0.518,1.133,0.776,1.944,0.776
			c0.513,0,0.972-0.12,1.377-0.36s0.726-0.579,0.96-1.017c0.235-0.438,0.353-0.949,0.353-1.537c0-0.576-0.117-1.086-0.353-1.528
			c-0.234-0.442-0.555-0.784-0.96-1.024s-0.864-0.36-1.377-0.36C813.048,83.713,812.4,83.972,811.916,84.489z"/>
		<path fill="#010101" d="M827.419,82.584c0.555-0.336,1.195-0.504,1.921-0.504v1.985h-0.544c-0.801,0-1.443,0.194-1.93,0.584
			c-0.485,0.39-0.729,1.032-0.729,1.929v4.467h-1.824v-8.821h1.824v1.729C826.437,83.376,826.865,82.92,827.419,82.584z"/>
		<path fill="#010101" d="M838.833,86.994h-6.788c0.032,0.907,0.282,1.58,0.753,2.018c0.469,0.438,1.051,0.656,1.744,0.656
			c0.609,0,1.123-0.154,1.545-0.464s0.681-0.721,0.777-1.233h1.953c-0.118,0.619-0.363,1.169-0.736,1.649
			c-0.375,0.48-0.859,0.856-1.457,1.129c-0.598,0.271-1.266,0.408-2.002,0.408c-0.854,0-1.608-0.182-2.265-0.545
			c-0.657-0.362-1.171-0.886-1.545-1.568c-0.374-0.684-0.561-1.489-0.561-2.418c0-0.918,0.187-1.718,0.561-2.401
			c0.374-0.683,0.888-1.206,1.545-1.568c0.656-0.363,1.411-0.544,2.265-0.544c0.865,0,1.619,0.179,2.266,0.537
			c0.646,0.357,1.143,0.848,1.488,1.473c0.348,0.624,0.521,1.32,0.521,2.089C838.898,86.509,838.876,86.771,838.833,86.994z
			 M836.76,84.713c-0.22-0.39-0.519-0.677-0.896-0.864c-0.379-0.187-0.792-0.28-1.241-0.28c-0.715,0-1.313,0.219-1.793,0.656
			c-0.48,0.438-0.742,1.084-0.784,1.938h5.011C837.078,85.586,836.978,85.103,836.76,84.713z"/>
		<path fill="#010101" d="M847.775,82.656c0.602,0.363,1.074,0.886,1.416,1.568c0.342,0.684,0.512,1.483,0.512,2.401
			c0,0.929-0.17,1.734-0.512,2.418c-0.342,0.683-0.814,1.206-1.416,1.568c-0.604,0.363-1.289,0.545-2.058,0.545
			c-0.801,0-1.483-0.197-2.05-0.593c-0.565-0.395-0.96-0.918-1.184-1.569v6.244h-1.826V82.224h1.826v2.049
			c0.224-0.65,0.618-1.173,1.184-1.568c0.566-0.395,1.249-0.592,2.05-0.592C846.486,82.112,847.171,82.293,847.775,82.656z
			 M843.78,84.073c-0.405,0.24-0.726,0.582-0.96,1.024c-0.235,0.442-0.353,0.952-0.353,1.528c0,0.588,0.117,1.1,0.353,1.537
			c0.234,0.438,0.555,0.776,0.96,1.017s0.864,0.36,1.377,0.36c0.812,0,1.462-0.259,1.953-0.776s0.736-1.23,0.736-2.138
			c0-0.896-0.245-1.605-0.736-2.129c-0.491-0.522-1.142-0.784-1.953-0.784C844.644,83.713,844.185,83.833,843.78,84.073z"/>
		<path fill="#010101" d="M859.597,86.994h-6.789c0.033,0.907,0.283,1.58,0.753,2.018s1.052,0.656,1.745,0.656
			c0.608,0,1.123-0.154,1.545-0.464s0.68-0.721,0.776-1.233h1.953c-0.118,0.619-0.363,1.169-0.736,1.649
			c-0.374,0.48-0.859,0.856-1.457,1.129c-0.598,0.271-1.265,0.408-2.001,0.408c-0.854,0-1.609-0.182-2.266-0.545
			c-0.656-0.362-1.171-0.886-1.545-1.568c-0.373-0.684-0.561-1.489-0.561-2.418c0-0.918,0.188-1.718,0.561-2.401
			c0.374-0.683,0.889-1.206,1.545-1.568s1.412-0.544,2.266-0.544c0.864,0,1.619,0.179,2.266,0.537
			c0.645,0.357,1.142,0.848,1.488,1.473c0.347,0.624,0.521,1.32,0.521,2.089C859.661,86.509,859.639,86.771,859.597,86.994z
			 M857.523,84.713c-0.219-0.39-0.518-0.677-0.896-0.864c-0.379-0.187-0.792-0.28-1.24-0.28c-0.715,0-1.313,0.219-1.793,0.656
			c-0.48,0.438-0.742,1.084-0.785,1.938h5.012C857.841,85.586,857.742,85.103,857.523,84.713z"/>
		<path fill="#010101" d="M868.818,83.072c0.619,0.662,0.928,1.606,0.928,2.833v5.14h-1.824v-4.947c0-0.789-0.203-1.4-0.609-1.833
			c-0.404-0.432-0.96-0.648-1.664-0.648c-0.727,0-1.308,0.232-1.745,0.697c-0.438,0.464-0.656,1.145-0.656,2.041v4.69h-1.825v-8.821
			h1.825v1.938c0.234-0.662,0.63-1.174,1.185-1.537c0.555-0.362,1.195-0.544,1.921-0.544
			C867.376,82.08,868.199,82.411,868.818,83.072z"/>
		<path fill="#010101" d="M877.262,82.904c0.624,0.528,1.006,1.235,1.145,2.121h-1.729c-0.074-0.48-0.279-0.867-0.615-1.161
			c-0.337-0.293-0.783-0.439-1.338-0.439c-0.459,0-0.813,0.109-1.064,0.328c-0.25,0.219-0.376,0.515-0.376,0.889
			c0,0.277,0.091,0.502,0.272,0.672c0.182,0.171,0.408,0.305,0.68,0.4c0.273,0.096,0.66,0.203,1.161,0.32
			c0.661,0.149,1.198,0.304,1.608,0.464c0.411,0.16,0.764,0.414,1.057,0.761c0.294,0.347,0.441,0.819,0.441,1.416
			c0,0.737-0.281,1.335-0.842,1.793c-0.56,0.459-1.314,0.689-2.265,0.689c-1.099,0-1.987-0.257-2.665-0.769
			c-0.678-0.513-1.086-1.228-1.225-2.146h1.776c0.054,0.48,0.267,0.87,0.641,1.169s0.864,0.448,1.473,0.448
			c0.438,0,0.782-0.115,1.032-0.345c0.251-0.229,0.377-0.521,0.377-0.872c0-0.31-0.096-0.555-0.289-0.736
			c-0.191-0.182-0.432-0.323-0.72-0.425c-0.288-0.101-0.683-0.205-1.185-0.312c-0.641-0.149-1.16-0.299-1.561-0.448
			s-0.742-0.393-1.025-0.729c-0.283-0.337-0.424-0.793-0.424-1.369c0-0.747,0.28-1.353,0.84-1.817
			c0.561-0.464,1.338-0.696,2.33-0.696C875.808,82.112,876.638,82.376,877.262,82.904z"/>
		<path fill="#010101" d="M885.916,82.704c0.564,0.395,0.965,0.918,1.199,1.568v-2.049h1.826v8.821h-1.826v-2.05
			c-0.234,0.651-0.635,1.175-1.199,1.569c-0.566,0.396-1.25,0.593-2.05,0.593c-0.769,0-1.454-0.182-2.058-0.545
			c-0.603-0.362-1.074-0.886-1.416-1.568c-0.342-0.684-0.513-1.489-0.513-2.418c0-0.918,0.171-1.718,0.513-2.401
			c0.342-0.683,0.813-1.206,1.416-1.568c0.604-0.363,1.289-0.544,2.058-0.544C884.666,82.112,885.349,82.31,885.916,82.704z
			 M882.481,84.489c-0.485,0.518-0.729,1.23-0.729,2.137c0,0.907,0.243,1.62,0.729,2.138s1.134,0.776,1.944,0.776
			c0.514,0,0.972-0.12,1.377-0.36c0.406-0.24,0.727-0.579,0.961-1.017s0.352-0.949,0.352-1.537c0-0.576-0.117-1.086-0.352-1.528
			s-0.555-0.784-0.961-1.024c-0.405-0.24-0.863-0.36-1.377-0.36C883.615,83.713,882.966,83.972,882.481,84.489z"/>
		<path fill="#010101" d="M894.24,82.584c0.555-0.336,1.194-0.504,1.92-0.504v1.985h-0.544c-0.8,0-1.443,0.194-1.929,0.584
			c-0.486,0.39-0.729,1.032-0.729,1.929v4.467h-1.825v-8.821h1.825v1.729C893.257,83.376,893.684,82.92,894.24,82.584z"/>
		<path fill="#010101" d="M903.091,79.198v11.847h-1.824V79.198H903.091z"/>
		<path fill="#010101" d="M910.888,82.704c0.565,0.395,0.965,0.918,1.2,1.568v-2.049h1.825v8.821h-1.825v-2.05
			c-0.235,0.651-0.635,1.175-1.2,1.569c-0.566,0.396-1.249,0.593-2.049,0.593c-0.77,0-1.455-0.182-2.058-0.545
			c-0.603-0.362-1.075-0.886-1.417-1.568c-0.342-0.684-0.512-1.489-0.512-2.418c0-0.918,0.17-1.718,0.512-2.401
			c0.342-0.683,0.814-1.206,1.417-1.568s1.288-0.544,2.058-0.544C909.639,82.112,910.322,82.31,910.888,82.704z M907.455,84.489
			c-0.486,0.518-0.729,1.23-0.729,2.137c0,0.907,0.242,1.62,0.729,2.138c0.484,0.518,1.133,0.776,1.944,0.776
			c0.513,0,0.972-0.12,1.377-0.36s0.726-0.579,0.96-1.017c0.235-0.438,0.353-0.949,0.353-1.537c0-0.576-0.117-1.086-0.353-1.528
			c-0.234-0.442-0.555-0.784-0.96-1.024s-0.864-0.36-1.377-0.36C908.587,83.713,907.939,83.972,907.455,84.489z"/>
		<path fill="#010101" d="M716.208,106.115c0.746,0.604,1.211,1.423,1.393,2.458h-1.938c-0.107-0.556-0.365-0.99-0.776-1.305
			c-0.411-0.315-0.926-0.473-1.545-0.473c-0.704,0-1.292,0.248-1.761,0.744c-0.47,0.496-0.705,1.225-0.705,2.186
			c0,0.96,0.235,1.691,0.705,2.193c0.469,0.502,1.057,0.752,1.761,0.752c0.619,0,1.134-0.16,1.545-0.48s0.669-0.758,0.776-1.313
			h1.938c-0.182,1.035-0.646,1.857-1.393,2.465c-0.748,0.609-1.692,0.913-2.834,0.913c-0.854,0-1.609-0.182-2.266-0.544
			c-0.656-0.363-1.171-0.886-1.545-1.569c-0.373-0.683-0.561-1.489-0.561-2.417c0-0.918,0.188-1.719,0.561-2.401
			c0.374-0.683,0.889-1.206,1.545-1.569c0.656-0.362,1.412-0.544,2.266-0.544C714.516,105.211,715.46,105.513,716.208,106.115z"/>
		<path fill="#010101" d="M725.701,105.755c0.684,0.363,1.217,0.887,1.602,1.569c0.384,0.683,0.576,1.483,0.576,2.401
			c0,0.928-0.192,1.734-0.576,2.417c-0.385,0.684-0.918,1.206-1.602,1.569c-0.684,0.362-1.451,0.544-2.305,0.544
			c-0.854,0-1.62-0.182-2.297-0.544c-0.679-0.363-1.212-0.889-1.602-1.577s-0.584-1.491-0.584-2.409s0.194-1.719,0.584-2.401
			s0.923-1.206,1.602-1.569c0.677-0.362,1.442-0.544,2.297-0.544C724.25,105.211,725.017,105.393,725.701,105.755z M722.099,107.116
			c-0.395,0.213-0.713,0.541-0.953,0.984s-0.359,0.984-0.359,1.625c0,0.65,0.119,1.195,0.359,1.633s0.559,0.763,0.953,0.977
			c0.395,0.213,0.826,0.32,1.297,0.32c0.469,0,0.901-0.107,1.297-0.32c0.395-0.214,0.712-0.539,0.952-0.977s0.36-0.982,0.36-1.633
			c0-0.641-0.12-1.182-0.36-1.625s-0.558-0.771-0.952-0.984c-0.396-0.214-0.828-0.32-1.297-0.32
			C722.925,106.796,722.494,106.902,722.099,107.116z"/>
		<path fill="#010101" d="M734.986,107.58v1.537h-6.596v-1.537H734.986z"/>
		<path fill="#010101" d="M744.496,106.115c0.747,0.604,1.211,1.423,1.393,2.458h-1.938c-0.106-0.556-0.365-0.99-0.775-1.305
			c-0.412-0.315-0.926-0.473-1.545-0.473c-0.705,0-1.292,0.248-1.762,0.744c-0.469,0.496-0.704,1.225-0.704,2.186
			c0,0.96,0.235,1.691,0.704,2.193c0.47,0.502,1.057,0.752,1.762,0.752c0.619,0,1.133-0.16,1.545-0.48
			c0.41-0.32,0.669-0.758,0.775-1.313h1.938c-0.182,1.035-0.646,1.857-1.393,2.465c-0.747,0.609-1.691,0.913-2.834,0.913
			c-0.854,0-1.608-0.182-2.265-0.544c-0.657-0.363-1.171-0.886-1.545-1.569c-0.374-0.683-0.561-1.489-0.561-2.417
			c0-0.918,0.187-1.719,0.561-2.401s0.888-1.206,1.545-1.569c0.656-0.362,1.411-0.544,2.265-0.544
			C742.804,105.211,743.749,105.513,744.496,106.115z"/>
		<path fill="#010101" d="M753.988,105.755c0.684,0.363,1.217,0.887,1.602,1.569s0.576,1.483,0.576,2.401
			c0,0.928-0.191,1.734-0.576,2.417c-0.385,0.684-0.918,1.206-1.602,1.569c-0.683,0.362-1.451,0.544-2.305,0.544
			s-1.619-0.182-2.297-0.544c-0.678-0.363-1.211-0.889-1.602-1.577c-0.389-0.688-0.584-1.491-0.584-2.409s0.195-1.719,0.584-2.401
			c0.391-0.683,0.924-1.206,1.602-1.569c0.678-0.362,1.443-0.544,2.297-0.544S753.305,105.393,753.988,105.755z M750.386,107.116
			c-0.395,0.213-0.712,0.541-0.952,0.984s-0.36,0.984-0.36,1.625c0,0.65,0.12,1.195,0.36,1.633s0.558,0.763,0.952,0.977
			c0.395,0.213,0.827,0.32,1.297,0.32s0.902-0.107,1.297-0.32c0.395-0.214,0.713-0.539,0.953-0.977s0.359-0.982,0.359-1.633
			c0-0.641-0.119-1.182-0.359-1.625s-0.559-0.771-0.953-0.984c-0.395-0.214-0.827-0.32-1.297-0.32S750.781,106.902,750.386,107.116z
			"/>
		<path fill="#010101" d="M765.323,106.171c0.619,0.662,0.929,1.607,0.929,2.834v5.139h-1.825v-4.946
			c0-0.79-0.202-1.401-0.608-1.833c-0.405-0.433-0.961-0.648-1.664-0.648c-0.727,0-1.309,0.232-1.746,0.696
			s-0.656,1.145-0.656,2.041v4.69h-1.824v-8.82h1.824v1.937c0.234-0.661,0.63-1.174,1.186-1.536c0.555-0.363,1.195-0.545,1.92-0.545
			C763.882,105.179,764.704,105.51,765.323,106.171z"/>
		<path fill="#010101" d="M773.767,106.003c0.625,0.529,1.006,1.236,1.145,2.121h-1.729c-0.074-0.479-0.28-0.866-0.616-1.16
			c-0.337-0.293-0.782-0.44-1.337-0.44c-0.459,0-0.814,0.11-1.064,0.328c-0.251,0.219-0.377,0.516-0.377,0.889
			c0,0.277,0.092,0.502,0.273,0.673c0.181,0.17,0.408,0.304,0.68,0.4c0.272,0.096,0.659,0.202,1.16,0.319
			c0.662,0.149,1.198,0.305,1.609,0.465c0.41,0.159,0.764,0.413,1.057,0.76s0.44,0.819,0.44,1.417c0,0.736-0.28,1.334-0.841,1.793
			s-1.315,0.688-2.266,0.688c-1.099,0-1.987-0.256-2.665-0.769c-0.678-0.512-1.086-1.227-1.225-2.145h1.776
			c0.055,0.479,0.268,0.869,0.641,1.168c0.374,0.299,0.865,0.448,1.473,0.448c0.438,0,0.782-0.114,1.033-0.344
			c0.25-0.229,0.376-0.521,0.376-0.873c0-0.31-0.096-0.555-0.288-0.736c-0.191-0.181-0.432-0.322-0.721-0.424
			c-0.287-0.102-0.683-0.206-1.184-0.313c-0.641-0.149-1.161-0.299-1.562-0.448s-0.741-0.393-1.024-0.729s-0.424-0.792-0.424-1.368
			c0-0.747,0.279-1.353,0.84-1.817c0.561-0.464,1.337-0.696,2.329-0.696C772.313,105.211,773.143,105.476,773.767,106.003z"/>
		<path fill="#010101" d="M781.267,112.559v1.585h-1.12c-0.939,0-1.651-0.227-2.138-0.68c-0.485-0.454-0.729-1.209-0.729-2.266
			v-4.322h-1.264v-1.553h1.264v-2.193h1.842v2.193h2.129v1.553h-2.129v4.354c0,0.501,0.094,0.849,0.279,1.04
			c0.188,0.192,0.516,0.288,0.985,0.288H781.267z"/>
		<path fill="#010101" d="M786.085,105.683c0.555-0.336,1.195-0.504,1.922-0.504v1.985h-0.545c-0.801,0-1.443,0.194-1.929,0.584
			s-0.729,1.032-0.729,1.929v4.467h-1.825v-8.82h1.825v1.729C785.103,106.476,785.531,106.02,786.085,105.683z"/>
		<path fill="#010101" d="M797.5,105.323v8.82h-1.841v-1.921c-0.224,0.651-0.614,1.155-1.169,1.513s-1.2,0.537-1.937,0.537
			c-1.024,0-1.847-0.331-2.466-0.993c-0.619-0.661-0.928-1.606-0.928-2.833v-5.123h1.824v4.931c0,0.8,0.203,1.417,0.608,1.849
			c0.405,0.433,0.961,0.648,1.665,0.648c0.726,0,1.307-0.234,1.745-0.704c0.438-0.47,0.656-1.153,0.656-2.05v-4.674H797.5z"/>
		<path fill="#010101" d="M806.449,106.115c0.747,0.604,1.211,1.423,1.393,2.458h-1.938c-0.106-0.556-0.365-0.99-0.775-1.305
			c-0.412-0.315-0.926-0.473-1.545-0.473c-0.705,0-1.292,0.248-1.762,0.744c-0.469,0.496-0.704,1.225-0.704,2.186
			c0,0.96,0.235,1.691,0.704,2.193c0.47,0.502,1.057,0.752,1.762,0.752c0.619,0,1.133-0.16,1.545-0.48
			c0.41-0.32,0.669-0.758,0.775-1.313h1.938c-0.182,1.035-0.646,1.857-1.393,2.465c-0.747,0.609-1.691,0.913-2.834,0.913
			c-0.854,0-1.608-0.182-2.265-0.544c-0.657-0.363-1.171-0.886-1.545-1.569c-0.374-0.683-0.561-1.489-0.561-2.417
			c0-0.918,0.187-1.719,0.561-2.401s0.888-1.206,1.545-1.569c0.656-0.362,1.411-0.544,2.265-0.544
			C804.757,105.211,805.702,105.513,806.449,106.115z"/>
		<path fill="#010101" d="M816.358,106.115c0.747,0.604,1.211,1.423,1.393,2.458h-1.937c-0.107-0.556-0.366-0.99-0.777-1.305
			c-0.41-0.315-0.926-0.473-1.545-0.473c-0.703,0-1.291,0.248-1.76,0.744c-0.471,0.496-0.705,1.225-0.705,2.186
			c0,0.96,0.234,1.691,0.705,2.193c0.469,0.502,1.057,0.752,1.76,0.752c0.619,0,1.135-0.16,1.545-0.48
			c0.411-0.32,0.67-0.758,0.777-1.313h1.937c-0.182,1.035-0.646,1.857-1.393,2.465c-0.747,0.609-1.692,0.913-2.833,0.913
			c-0.854,0-1.609-0.182-2.266-0.544c-0.656-0.363-1.172-0.886-1.545-1.569c-0.374-0.683-0.561-1.489-0.561-2.417
			c0-0.918,0.187-1.719,0.561-2.401c0.373-0.683,0.889-1.206,1.545-1.569c0.656-0.362,1.411-0.544,2.266-0.544
			C814.666,105.211,815.611,105.513,816.358,106.115z"/>
		<path fill="#010101" d="M819.576,101.993c0.213-0.203,0.496-0.305,0.848-0.305c0.353,0,0.639,0.102,0.857,0.305
			s0.328,0.459,0.328,0.769s-0.109,0.56-0.328,0.752s-0.505,0.288-0.857,0.288c-0.352,0-0.635-0.096-0.848-0.288
			c-0.214-0.192-0.32-0.442-0.32-0.752S819.362,102.196,819.576,101.993z M821.336,105.323v8.82h-1.825v-8.82H821.336z"/>
		<path fill="#010101" d="M829.884,105.755c0.684,0.363,1.217,0.887,1.602,1.569s0.576,1.483,0.576,2.401
			c0,0.928-0.191,1.734-0.576,2.417c-0.385,0.684-0.918,1.206-1.602,1.569c-0.683,0.362-1.451,0.544-2.305,0.544
			s-1.619-0.182-2.297-0.544c-0.678-0.363-1.211-0.889-1.602-1.577c-0.389-0.688-0.584-1.491-0.584-2.409s0.195-1.719,0.584-2.401
			c0.391-0.683,0.924-1.206,1.602-1.569c0.678-0.362,1.443-0.544,2.297-0.544S829.202,105.393,829.884,105.755z M826.283,107.116
			c-0.395,0.213-0.712,0.541-0.952,0.984s-0.36,0.984-0.36,1.625c0,0.65,0.12,1.195,0.36,1.633s0.558,0.763,0.952,0.977
			c0.395,0.213,0.827,0.32,1.297,0.32s0.902-0.107,1.297-0.32c0.395-0.214,0.713-0.539,0.953-0.977s0.359-0.982,0.359-1.633
			c0-0.641-0.119-1.182-0.359-1.625s-0.559-0.771-0.953-0.984c-0.395-0.214-0.827-0.32-1.297-0.32S826.677,106.902,826.283,107.116z
			 M830.125,102.825l-3.537,1.81v-1.28l3.537-1.953V102.825z"/>
		<path fill="#010101" d="M841.219,106.171c0.619,0.662,0.929,1.607,0.929,2.834v5.139h-1.825v-4.946
			c0-0.79-0.202-1.401-0.608-1.833c-0.405-0.433-0.961-0.648-1.664-0.648c-0.727,0-1.309,0.232-1.746,0.696
			s-0.656,1.145-0.656,2.041v4.69h-1.824v-8.82h1.824v1.937c0.234-0.661,0.63-1.174,1.186-1.536c0.555-0.363,1.195-0.545,1.92-0.545
			C839.779,105.179,840.6,105.51,841.219,106.171z"/>
		<path fill="#010101" d="M853.611,105.804c0.564,0.395,0.96,0.918,1.184,1.568v-5.074h1.842v11.846h-1.842v-2.049
			c-0.224,0.651-0.619,1.174-1.184,1.568c-0.566,0.396-1.25,0.593-2.05,0.593c-0.769,0-1.454-0.182-2.058-0.544
			c-0.603-0.363-1.074-0.886-1.416-1.569c-0.342-0.683-0.513-1.489-0.513-2.417c0-0.918,0.171-1.719,0.513-2.401
			s0.813-1.206,1.416-1.569c0.604-0.362,1.289-0.544,2.058-0.544C852.361,105.211,853.044,105.408,853.611,105.804z
			 M850.176,107.588c-0.485,0.519-0.729,1.23-0.729,2.138s0.243,1.619,0.729,2.137s1.134,0.776,1.944,0.776
			c0.514,0,0.972-0.12,1.377-0.36c0.406-0.24,0.727-0.578,0.961-1.016s0.352-0.95,0.352-1.537c0-0.576-0.117-1.086-0.352-1.529
			c-0.234-0.442-0.555-0.784-0.961-1.024c-0.405-0.24-0.863-0.36-1.377-0.36C851.31,106.812,850.662,107.07,850.176,107.588z"/>
		<path fill="#010101" d="M866.961,110.094h-6.788c0.032,0.907,0.283,1.579,0.752,2.017c0.471,0.438,1.052,0.656,1.746,0.656
			c0.607,0,1.123-0.154,1.545-0.464c0.421-0.31,0.68-0.721,0.775-1.232h1.953c-0.117,0.619-0.363,1.169-0.736,1.648
			c-0.373,0.48-0.859,0.856-1.457,1.129s-1.264,0.408-2,0.408c-0.854,0-1.609-0.182-2.266-0.544
			c-0.656-0.363-1.172-0.886-1.545-1.569c-0.374-0.683-0.561-1.489-0.561-2.417c0-0.918,0.187-1.719,0.561-2.401
			c0.373-0.683,0.889-1.206,1.545-1.569c0.656-0.362,1.411-0.544,2.266-0.544c0.863,0,1.619,0.179,2.265,0.536
			s1.142,0.849,1.489,1.473c0.346,0.625,0.52,1.321,0.52,2.09C867.025,109.608,867.003,109.869,866.961,110.094z M864.888,107.813
			c-0.219-0.39-0.518-0.678-0.896-0.864c-0.379-0.188-0.793-0.28-1.24-0.28c-0.716,0-1.313,0.219-1.793,0.656
			c-0.48,0.438-0.742,1.083-0.785,1.937h5.011C865.206,108.685,865.107,108.202,864.888,107.813z"/>
		<path fill="#010101" d="M874.357,102.298v11.846h-1.824v-11.846H874.357z"/>
		<path fill="#010101" d="M882.154,105.804c0.565,0.395,0.965,0.918,1.2,1.568v-2.049h1.825v8.82h-1.825v-2.049
			c-0.235,0.651-0.635,1.174-1.2,1.568c-0.566,0.396-1.249,0.593-2.049,0.593c-0.77,0-1.455-0.182-2.058-0.544
			c-0.603-0.363-1.075-0.886-1.417-1.569c-0.342-0.683-0.512-1.489-0.512-2.417c0-0.918,0.17-1.719,0.512-2.401
			s0.814-1.206,1.417-1.569c0.603-0.362,1.288-0.544,2.058-0.544C880.905,105.211,881.587,105.408,882.154,105.804z M878.72,107.588
			c-0.486,0.519-0.729,1.23-0.729,2.138s0.242,1.619,0.729,2.137c0.484,0.518,1.133,0.776,1.944,0.776
			c0.513,0,0.972-0.12,1.377-0.36s0.726-0.578,0.96-1.016c0.235-0.438,0.353-0.95,0.353-1.537c0-0.576-0.117-1.086-0.353-1.529
			c-0.234-0.442-0.555-0.784-0.96-1.024s-0.864-0.36-1.377-0.36C879.853,106.812,879.205,107.07,878.72,107.588z"/>
		<path fill="#010101" d="M892.759,106.003c0.624,0.529,1.006,1.236,1.145,2.121h-1.729c-0.075-0.479-0.281-0.866-0.617-1.16
			c-0.336-0.293-0.781-0.44-1.336-0.44c-0.459,0-0.814,0.11-1.064,0.328c-0.252,0.219-0.377,0.516-0.377,0.889
			c0,0.277,0.091,0.502,0.272,0.673c0.181,0.17,0.408,0.304,0.681,0.4c0.271,0.096,0.658,0.202,1.16,0.319
			c0.662,0.149,1.197,0.305,1.609,0.465c0.41,0.159,0.763,0.413,1.057,0.76c0.293,0.347,0.439,0.819,0.439,1.417
			c0,0.736-0.279,1.334-0.84,1.793s-1.316,0.688-2.266,0.688c-1.1,0-1.988-0.256-2.666-0.769c-0.678-0.512-1.086-1.227-1.225-2.145
			h1.777c0.054,0.479,0.267,0.869,0.641,1.168c0.373,0.299,0.864,0.448,1.473,0.448c0.438,0,0.781-0.114,1.033-0.344
			c0.25-0.229,0.375-0.521,0.375-0.873c0-0.31-0.096-0.555-0.287-0.736c-0.192-0.181-0.433-0.322-0.721-0.424
			s-0.684-0.206-1.185-0.313c-0.641-0.149-1.161-0.299-1.562-0.448s-0.741-0.393-1.023-0.729c-0.283-0.336-0.425-0.792-0.425-1.368
			c0-0.747,0.28-1.353,0.841-1.817c0.561-0.464,1.336-0.696,2.328-0.696C891.304,105.211,892.134,105.476,892.759,106.003z"/>
		<path fill="#010101" d="M906.327,106.115c0.747,0.604,1.211,1.423,1.393,2.458h-1.937c-0.107-0.556-0.366-0.99-0.777-1.305
			c-0.41-0.315-0.926-0.473-1.545-0.473c-0.703,0-1.291,0.248-1.76,0.744c-0.471,0.496-0.705,1.225-0.705,2.186
			c0,0.96,0.234,1.691,0.705,2.193c0.469,0.502,1.057,0.752,1.76,0.752c0.619,0,1.135-0.16,1.545-0.48
			c0.411-0.32,0.67-0.758,0.777-1.313h1.937c-0.182,1.035-0.646,1.857-1.393,2.465c-0.747,0.609-1.692,0.913-2.833,0.913
			c-0.854,0-1.609-0.182-2.266-0.544c-0.656-0.363-1.172-0.886-1.545-1.569c-0.374-0.683-0.561-1.489-0.561-2.417
			c0-0.918,0.187-1.719,0.561-2.401c0.373-0.683,0.889-1.206,1.545-1.569c0.656-0.362,1.411-0.544,2.266-0.544
			C904.634,105.211,905.58,105.513,906.327,106.115z"/>
		<path fill="#010101" d="M909.544,101.993c0.213-0.203,0.496-0.305,0.848-0.305c0.353,0,0.639,0.102,0.857,0.305
			s0.328,0.459,0.328,0.769s-0.109,0.56-0.328,0.752s-0.505,0.288-0.857,0.288c-0.352,0-0.635-0.096-0.848-0.288
			c-0.214-0.192-0.32-0.442-0.32-0.752S909.331,102.196,909.544,101.993z M911.305,105.323v8.82h-1.825v-8.82H911.305z"/>
		<path fill="#010101" d="M921.647,105.323v8.82h-1.841v-1.921c-0.225,0.651-0.614,1.155-1.169,1.513
			c-0.556,0.357-1.2,0.537-1.937,0.537c-1.025,0-1.848-0.331-2.466-0.993c-0.619-0.661-0.929-1.606-0.929-2.833v-5.123h1.825v4.931
			c0,0.8,0.202,1.417,0.608,1.849c0.405,0.433,0.961,0.648,1.664,0.648c0.727,0,1.308-0.234,1.746-0.704
			c0.438-0.47,0.656-1.153,0.656-2.05v-4.674H921.647z"/>
		<path fill="#010101" d="M929.427,105.804c0.565,0.395,0.961,0.918,1.185,1.568v-5.074h1.841v11.846h-1.841v-2.049
			c-0.224,0.651-0.619,1.174-1.185,1.568c-0.566,0.396-1.249,0.593-2.049,0.593c-0.77,0-1.455-0.182-2.058-0.544
			c-0.603-0.363-1.075-0.886-1.417-1.569c-0.342-0.683-0.512-1.489-0.512-2.417c0-0.918,0.17-1.719,0.512-2.401
			s0.814-1.206,1.417-1.569c0.603-0.362,1.288-0.544,2.058-0.544C928.178,105.211,928.861,105.408,929.427,105.804z
			 M925.994,107.588c-0.486,0.519-0.729,1.23-0.729,2.138s0.242,1.619,0.729,2.137c0.484,0.518,1.133,0.776,1.944,0.776
			c0.513,0,0.972-0.12,1.377-0.36s0.726-0.578,0.96-1.016c0.235-0.438,0.353-0.95,0.353-1.537c0-0.576-0.117-1.086-0.353-1.529
			c-0.234-0.442-0.555-0.784-0.96-1.024s-0.864-0.36-1.377-0.36C927.126,106.812,926.478,107.07,925.994,107.588z"/>
		<path fill="#010101" d="M940.233,105.804c0.565,0.395,0.966,0.918,1.2,1.568v-2.049h1.825v8.82h-1.825v-2.049
			c-0.234,0.651-0.635,1.174-1.2,1.568c-0.565,0.396-1.249,0.593-2.05,0.593c-0.768,0-1.453-0.182-2.057-0.544
			c-0.604-0.363-1.075-0.886-1.417-1.569c-0.341-0.683-0.513-1.489-0.513-2.417c0-0.918,0.172-1.719,0.513-2.401
			c0.342-0.683,0.813-1.206,1.417-1.569c0.604-0.362,1.289-0.544,2.057-0.544C938.984,105.211,939.667,105.408,940.233,105.804z
			 M936.798,107.588c-0.485,0.519-0.729,1.23-0.729,2.138s0.243,1.619,0.729,2.137c0.486,0.518,1.135,0.776,1.945,0.776
			c0.513,0,0.971-0.12,1.377-0.36c0.405-0.24,0.726-0.578,0.961-1.016c0.234-0.438,0.352-0.95,0.352-1.537
			c0-0.576-0.117-1.086-0.352-1.529c-0.235-0.442-0.556-0.784-0.961-1.024c-0.406-0.24-0.864-0.36-1.377-0.36
			C937.933,106.812,937.285,107.07,936.798,107.588z"/>
		<path fill="#010101" d="M951.039,105.804c0.565,0.395,0.961,0.918,1.185,1.568v-5.074h1.841v11.846h-1.841v-2.049
			c-0.224,0.651-0.619,1.174-1.185,1.568c-0.566,0.396-1.249,0.593-2.049,0.593c-0.77,0-1.455-0.182-2.058-0.544
			c-0.603-0.363-1.075-0.886-1.417-1.569c-0.342-0.683-0.512-1.489-0.512-2.417c0-0.918,0.17-1.719,0.512-2.401
			s0.814-1.206,1.417-1.569c0.603-0.362,1.288-0.544,2.058-0.544C949.79,105.211,950.472,105.408,951.039,105.804z M947.605,107.588
			c-0.486,0.519-0.729,1.23-0.729,2.138s0.242,1.619,0.729,2.137c0.484,0.518,1.133,0.776,1.944,0.776
			c0.513,0,0.972-0.12,1.377-0.36s0.726-0.578,0.96-1.016c0.235-0.438,0.353-0.95,0.353-1.537c0-0.576-0.117-1.086-0.353-1.529
			c-0.234-0.442-0.555-0.784-0.96-1.024s-0.864-0.36-1.377-0.36C948.738,106.812,948.089,107.07,947.605,107.588z"/>
		<path fill="#010101" d="M964.39,110.094h-6.789c0.033,0.907,0.283,1.579,0.753,2.017s1.052,0.656,1.745,0.656
			c0.608,0,1.123-0.154,1.545-0.464s0.68-0.721,0.776-1.232h1.953c-0.118,0.619-0.363,1.169-0.736,1.648
			c-0.374,0.48-0.859,0.856-1.457,1.129s-1.265,0.408-2.001,0.408c-0.854,0-1.609-0.182-2.266-0.544
			c-0.656-0.363-1.171-0.886-1.545-1.569c-0.373-0.683-0.561-1.489-0.561-2.417c0-0.918,0.188-1.719,0.561-2.401
			c0.374-0.683,0.889-1.206,1.545-1.569c0.656-0.362,1.412-0.544,2.266-0.544c0.864,0,1.619,0.179,2.266,0.536
			c0.645,0.357,1.142,0.849,1.488,1.473c0.347,0.625,0.521,1.321,0.521,2.09C964.454,109.608,964.432,109.869,964.39,110.094z
			 M962.316,107.813c-0.219-0.39-0.518-0.678-0.896-0.864c-0.379-0.188-0.792-0.28-1.24-0.28c-0.715,0-1.313,0.219-1.793,0.656
			s-0.742,1.083-0.785,1.937h5.012C962.634,108.685,962.535,108.202,962.316,107.813z"/>
		<path fill="#010101" d="M971.601,106.003c0.625,0.529,1.006,1.236,1.145,2.121h-1.729c-0.074-0.479-0.28-0.866-0.616-1.16
			c-0.337-0.293-0.782-0.44-1.337-0.44c-0.459,0-0.814,0.11-1.064,0.328c-0.251,0.219-0.377,0.516-0.377,0.889
			c0,0.277,0.092,0.502,0.273,0.673c0.181,0.17,0.408,0.304,0.68,0.4c0.272,0.096,0.659,0.202,1.16,0.319
			c0.662,0.149,1.198,0.305,1.609,0.465c0.41,0.159,0.764,0.413,1.057,0.76s0.44,0.819,0.44,1.417c0,0.736-0.28,1.334-0.841,1.793
			s-1.315,0.688-2.266,0.688c-1.099,0-1.987-0.256-2.665-0.769c-0.678-0.512-1.086-1.227-1.225-2.145h1.776
			c0.055,0.479,0.268,0.869,0.641,1.168c0.374,0.299,0.865,0.448,1.473,0.448c0.438,0,0.782-0.114,1.033-0.344
			c0.25-0.229,0.376-0.521,0.376-0.873c0-0.31-0.096-0.555-0.288-0.736c-0.191-0.181-0.432-0.322-0.721-0.424
			c-0.287-0.102-0.683-0.206-1.184-0.313c-0.641-0.149-1.161-0.299-1.562-0.448s-0.741-0.393-1.024-0.729s-0.424-0.792-0.424-1.368
			c0-0.747,0.279-1.353,0.84-1.817c0.561-0.464,1.337-0.696,2.329-0.696C970.147,105.211,970.977,105.476,971.601,106.003z"/>
		<path fill="#010101" d="M717.585,133.192h-6.789c0.033,0.907,0.283,1.58,0.753,2.018s1.052,0.656,1.745,0.656
			c0.608,0,1.123-0.154,1.545-0.465c0.422-0.309,0.68-0.72,0.776-1.232h1.953c-0.118,0.619-0.363,1.169-0.736,1.649
			c-0.374,0.479-0.859,0.856-1.457,1.128c-0.598,0.272-1.265,0.408-2.001,0.408c-0.854,0-1.609-0.181-2.266-0.544
			c-0.656-0.362-1.171-0.886-1.545-1.568c-0.373-0.684-0.561-1.489-0.561-2.418c0-0.917,0.188-1.718,0.561-2.401
			c0.374-0.683,0.889-1.205,1.545-1.568s1.412-0.545,2.266-0.545c0.864,0,1.619,0.18,2.266,0.537
			c0.645,0.357,1.142,0.848,1.488,1.473c0.347,0.624,0.521,1.32,0.521,2.089C717.649,132.707,717.627,132.969,717.585,133.192z
			 M715.511,130.911c-0.219-0.389-0.518-0.678-0.896-0.864s-0.792-0.28-1.24-0.28c-0.715,0-1.313,0.219-1.793,0.656
			s-0.742,1.084-0.785,1.938h5.012C715.83,131.784,715.73,131.302,715.511,130.911z"/>
		<path fill="#010101" d="M726.806,129.271c0.619,0.662,0.928,1.606,0.928,2.834v5.139h-1.824v-4.947c0-0.789-0.203-1.4-0.609-1.833
			c-0.404-0.432-0.96-0.647-1.664-0.647c-0.727,0-1.308,0.231-1.745,0.695c-0.438,0.465-0.656,1.145-0.656,2.041v4.691h-1.825
			v-8.821h1.825v1.938c0.234-0.662,0.63-1.174,1.185-1.537c0.555-0.362,1.195-0.544,1.921-0.544
			C725.365,128.278,726.187,128.608,726.806,129.271z"/>
		<path fill="#010101" d="M741.742,133.192h-6.787c0.031,0.907,0.282,1.58,0.752,2.018s1.051,0.656,1.745,0.656
			c0.608,0,1.123-0.154,1.545-0.465c0.421-0.309,0.681-0.72,0.776-1.232h1.953c-0.117,0.619-0.363,1.169-0.736,1.649
			c-0.374,0.479-0.859,0.856-1.457,1.128c-0.598,0.272-1.265,0.408-2.001,0.408c-0.854,0-1.608-0.181-2.265-0.544
			c-0.657-0.362-1.172-0.886-1.545-1.568c-0.375-0.684-0.561-1.489-0.561-2.418c0-0.917,0.186-1.718,0.561-2.401
			c0.373-0.683,0.888-1.205,1.545-1.568c0.656-0.363,1.41-0.545,2.265-0.545c0.864,0,1.619,0.18,2.265,0.537
			c0.646,0.357,1.143,0.848,1.489,1.473c0.347,0.624,0.521,1.32,0.521,2.089C741.806,132.707,741.785,132.969,741.742,133.192z
			 M739.669,130.911c-0.22-0.389-0.519-0.678-0.896-0.864c-0.379-0.187-0.793-0.28-1.241-0.28c-0.716,0-1.313,0.219-1.793,0.656
			c-0.48,0.438-0.742,1.084-0.784,1.938h5.01C739.986,131.784,739.887,131.302,739.669,130.911z M740.029,125.925l-3.537,1.809
			v-1.28l3.537-1.953V125.925z"/>
		<path fill="#010101" d="M750.683,128.854c0.603,0.363,1.074,0.886,1.416,1.568c0.342,0.684,0.513,1.484,0.513,2.401
			c0,0.929-0.171,1.734-0.513,2.418c-0.342,0.683-0.813,1.206-1.416,1.568c-0.604,0.363-1.289,0.544-2.057,0.544
			c-0.801,0-1.484-0.197-2.05-0.592s-0.96-0.918-1.185-1.568v6.243h-1.825v-13.016h1.825v2.05c0.225-0.651,0.619-1.174,1.185-1.569
			c0.565-0.395,1.249-0.593,2.05-0.593C749.394,128.31,750.08,128.491,750.683,128.854z M746.689,130.271
			c-0.406,0.24-0.727,0.582-0.961,1.025s-0.352,0.952-0.352,1.528c0,0.587,0.117,1.1,0.352,1.537s0.555,0.776,0.961,1.017
			c0.405,0.24,0.864,0.36,1.377,0.36c0.811,0,1.461-0.259,1.953-0.776c0.49-0.518,0.736-1.23,0.736-2.138
			c0-0.896-0.246-1.606-0.736-2.129c-0.492-0.522-1.143-0.784-1.953-0.784C747.553,129.911,747.094,130.031,746.689,130.271z"/>
		<path fill="#010101" d="M760.712,128.854c0.683,0.363,1.217,0.886,1.601,1.568c0.384,0.684,0.576,1.484,0.576,2.401
			c0,0.929-0.192,1.734-0.576,2.418c-0.384,0.683-0.918,1.206-1.601,1.568c-0.684,0.363-1.451,0.544-2.306,0.544
			s-1.62-0.181-2.297-0.544c-0.679-0.362-1.212-0.889-1.601-1.577c-0.391-0.688-0.585-1.491-0.585-2.409
			c0-0.917,0.194-1.718,0.585-2.401c0.389-0.683,0.922-1.205,1.601-1.568c0.677-0.363,1.442-0.545,2.297-0.545
			S760.029,128.491,760.712,128.854z M757.111,130.215c-0.396,0.214-0.713,0.542-0.953,0.985c-0.24,0.442-0.36,0.984-0.36,1.624
			c0,0.651,0.12,1.196,0.36,1.633c0.24,0.438,0.558,0.764,0.953,0.977c0.395,0.214,0.826,0.32,1.296,0.32s0.901-0.106,1.297-0.32
			c0.395-0.213,0.712-0.538,0.952-0.977c0.24-0.437,0.36-0.981,0.36-1.633c0-0.64-0.12-1.182-0.36-1.624
			c-0.24-0.443-0.558-0.771-0.952-0.985c-0.396-0.213-0.827-0.32-1.297-0.32S757.505,130.002,757.111,130.215z"/>
		<path fill="#010101" d="M771.406,129.215c0.748,0.603,1.211,1.422,1.393,2.457h-1.937c-0.106-0.555-0.366-0.989-0.776-1.305
			c-0.411-0.314-0.926-0.473-1.545-0.473c-0.704,0-1.291,0.249-1.761,0.745s-0.704,1.225-0.704,2.185
			c0,0.961,0.234,1.692,0.704,2.193c0.47,0.502,1.057,0.753,1.761,0.753c0.619,0,1.134-0.16,1.545-0.48
			c0.41-0.32,0.67-0.758,0.776-1.313h1.937c-0.182,1.035-0.645,1.856-1.393,2.465c-0.746,0.608-1.691,0.912-2.833,0.912
			c-0.854,0-1.608-0.181-2.265-0.544c-0.657-0.362-1.172-0.886-1.545-1.568c-0.375-0.684-0.561-1.489-0.561-2.418
			c0-0.917,0.186-1.718,0.561-2.401c0.373-0.683,0.888-1.205,1.545-1.568c0.656-0.363,1.41-0.545,2.265-0.545
			C769.714,128.31,770.66,128.611,771.406,129.215z"/>
		<path fill="#010101" d="M780.147,128.902c0.565,0.396,0.966,0.918,1.2,1.569v-2.05h1.825v8.821h-1.825v-2.049
			c-0.234,0.65-0.635,1.174-1.2,1.568s-1.249,0.592-2.05,0.592c-0.768,0-1.453-0.181-2.057-0.544
			c-0.604-0.362-1.075-0.886-1.417-1.568c-0.341-0.684-0.513-1.489-0.513-2.418c0-0.917,0.172-1.718,0.513-2.401
			c0.342-0.683,0.813-1.205,1.417-1.568s1.289-0.545,2.057-0.545C778.898,128.31,779.582,128.508,780.147,128.902z M776.712,130.688
			c-0.485,0.518-0.729,1.229-0.729,2.137s0.243,1.62,0.729,2.138c0.486,0.518,1.135,0.776,1.945,0.776
			c0.513,0,0.971-0.12,1.377-0.36c0.405-0.24,0.726-0.579,0.961-1.017c0.234-0.438,0.352-0.95,0.352-1.537
			c0-0.576-0.117-1.085-0.352-1.528c-0.235-0.443-0.556-0.785-0.961-1.025c-0.406-0.239-0.864-0.359-1.377-0.359
			C777.847,129.911,777.199,130.17,776.712,130.688z"/>
		<path fill="#010101" d="M794.699,128.902c0.565,0.396,0.961,0.918,1.185,1.569v-5.075h1.841v11.847h-1.841v-2.049
			c-0.224,0.65-0.619,1.174-1.185,1.568c-0.566,0.395-1.249,0.592-2.049,0.592c-0.77,0-1.455-0.181-2.058-0.544
			c-0.603-0.362-1.075-0.886-1.417-1.568c-0.342-0.684-0.512-1.489-0.512-2.418c0-0.917,0.17-1.718,0.512-2.401
			c0.342-0.683,0.814-1.205,1.417-1.568s1.288-0.545,2.058-0.545C793.45,128.31,794.132,128.508,794.699,128.902z M791.265,130.688
			c-0.486,0.518-0.729,1.229-0.729,2.137s0.242,1.62,0.729,2.138c0.484,0.518,1.133,0.776,1.944,0.776
			c0.513,0,0.972-0.12,1.377-0.36s0.726-0.579,0.96-1.017c0.235-0.438,0.353-0.95,0.353-1.537c0-0.576-0.117-1.085-0.353-1.528
			c-0.234-0.443-0.555-0.785-0.96-1.025c-0.405-0.239-0.864-0.359-1.377-0.359C792.398,129.911,791.75,130.17,791.265,130.688z"/>
		<path fill="#010101" d="M808.05,133.192h-6.789c0.033,0.907,0.283,1.58,0.753,2.018s1.052,0.656,1.745,0.656
			c0.608,0,1.123-0.154,1.545-0.465c0.422-0.309,0.68-0.72,0.776-1.232h1.953c-0.118,0.619-0.363,1.169-0.736,1.649
			c-0.374,0.479-0.859,0.856-1.457,1.128c-0.598,0.272-1.265,0.408-2.001,0.408c-0.854,0-1.609-0.181-2.266-0.544
			c-0.656-0.362-1.171-0.886-1.545-1.568c-0.373-0.684-0.561-1.489-0.561-2.418c0-0.917,0.188-1.718,0.561-2.401
			c0.374-0.683,0.889-1.205,1.545-1.568s1.412-0.545,2.266-0.545c0.864,0,1.619,0.18,2.266,0.537
			c0.645,0.357,1.142,0.848,1.488,1.473c0.347,0.624,0.521,1.32,0.521,2.089C808.114,132.707,808.092,132.969,808.05,133.192z
			 M805.976,130.911c-0.219-0.389-0.518-0.678-0.896-0.864s-0.792-0.28-1.24-0.28c-0.715,0-1.313,0.219-1.793,0.656
			s-0.742,1.084-0.785,1.938h5.012C806.294,131.784,806.195,131.302,805.976,130.911z"/>
		<path fill="#010101" d="M820.376,129.215c0.747,0.603,1.211,1.422,1.393,2.457h-1.938c-0.106-0.555-0.365-0.989-0.775-1.305
			c-0.412-0.314-0.926-0.473-1.545-0.473c-0.705,0-1.292,0.249-1.762,0.745c-0.469,0.496-0.704,1.225-0.704,2.185
			c0,0.961,0.235,1.692,0.704,2.193c0.47,0.502,1.057,0.753,1.762,0.753c0.619,0,1.133-0.16,1.545-0.48
			c0.41-0.32,0.669-0.758,0.775-1.313h1.938c-0.182,1.035-0.646,1.856-1.393,2.465s-1.691,0.912-2.834,0.912
			c-0.854,0-1.608-0.181-2.265-0.544c-0.657-0.362-1.171-0.886-1.545-1.568c-0.374-0.684-0.561-1.489-0.561-2.418
			c0-0.917,0.187-1.718,0.561-2.401c0.374-0.683,0.888-1.205,1.545-1.568c0.656-0.363,1.411-0.545,2.265-0.545
			C818.685,128.31,819.629,128.611,820.376,129.215z"/>
		<path fill="#010101" d="M826.636,128.782c0.555-0.336,1.194-0.504,1.92-0.504v1.984h-0.544c-0.8,0-1.443,0.195-1.929,0.585
			c-0.486,0.39-0.729,1.032-0.729,1.929v4.467h-1.825v-8.821h1.825v1.729C825.654,129.575,826.081,129.118,826.636,128.782z"/>
		<path fill="#010101" d="M829.981,125.093c0.214-0.203,0.497-0.305,0.849-0.305s0.638,0.102,0.856,0.305
			c0.219,0.202,0.328,0.459,0.328,0.768c0,0.311-0.109,0.561-0.328,0.753s-0.505,0.288-0.856,0.288s-0.635-0.096-0.849-0.288
			s-0.319-0.442-0.319-0.753C829.662,125.552,829.767,125.295,829.981,125.093z M831.742,128.422v8.821h-1.824v-8.821H831.742z"/>
		<path fill="#010101" d="M839.338,129.103c0.624,0.528,1.006,1.235,1.145,2.121h-1.729c-0.074-0.48-0.279-0.867-0.615-1.16
			c-0.337-0.294-0.783-0.44-1.338-0.44c-0.459,0-0.813,0.109-1.064,0.328c-0.25,0.219-0.376,0.515-0.376,0.888
			c0,0.278,0.091,0.502,0.272,0.673s0.408,0.304,0.68,0.4c0.273,0.096,0.66,0.202,1.161,0.32c0.661,0.149,1.198,0.304,1.608,0.464
			c0.411,0.16,0.764,0.414,1.057,0.761c0.294,0.347,0.441,0.819,0.441,1.417c0,0.736-0.281,1.334-0.842,1.793
			c-0.56,0.459-1.314,0.688-2.265,0.688c-1.099,0-1.987-0.256-2.665-0.768c-0.678-0.513-1.086-1.228-1.225-2.146h1.776
			c0.054,0.48,0.267,0.87,0.641,1.169s0.864,0.448,1.473,0.448c0.438,0,0.782-0.115,1.032-0.345c0.251-0.229,0.377-0.52,0.377-0.872
			c0-0.31-0.096-0.555-0.289-0.736c-0.191-0.182-0.432-0.323-0.72-0.425s-0.683-0.205-1.185-0.312
			c-0.641-0.149-1.16-0.299-1.561-0.448s-0.742-0.393-1.025-0.729s-0.424-0.793-0.424-1.369c0-0.747,0.28-1.353,0.84-1.816
			c0.561-0.465,1.338-0.697,2.33-0.697C837.884,128.31,838.714,128.574,839.338,129.103z"/>
		<path fill="#010101" d="M842.468,125.093c0.213-0.203,0.496-0.305,0.848-0.305c0.353,0,0.639,0.102,0.857,0.305
			c0.219,0.202,0.328,0.459,0.328,0.768c0,0.311-0.109,0.561-0.328,0.753s-0.505,0.288-0.857,0.288
			c-0.352,0-0.635-0.096-0.848-0.288c-0.214-0.192-0.32-0.442-0.32-0.753C842.148,125.552,842.254,125.295,842.468,125.093z
			 M844.229,128.422v8.821h-1.825v-8.821H844.229z"/>
		<path fill="#010101" d="M851.826,129.103c0.623,0.528,1.006,1.235,1.145,2.121h-1.729c-0.075-0.48-0.28-0.867-0.616-1.16
			c-0.336-0.294-0.782-0.44-1.337-0.44c-0.459,0-0.813,0.109-1.064,0.328s-0.376,0.515-0.376,0.888c0,0.278,0.09,0.502,0.271,0.673
			s0.408,0.304,0.681,0.4c0.272,0.096,0.659,0.202,1.161,0.32c0.661,0.149,1.197,0.304,1.608,0.464s0.763,0.414,1.057,0.761
			s0.44,0.819,0.44,1.417c0,0.736-0.28,1.334-0.841,1.793c-0.56,0.459-1.315,0.688-2.265,0.688c-1.1,0-1.988-0.256-2.666-0.768
			c-0.678-0.513-1.086-1.228-1.225-2.146h1.777c0.053,0.48,0.266,0.87,0.641,1.169c0.373,0.299,0.863,0.448,1.473,0.448
			c0.438,0,0.781-0.115,1.032-0.345s0.376-0.52,0.376-0.872c0-0.31-0.096-0.555-0.288-0.736s-0.433-0.323-0.72-0.425
			c-0.289-0.102-0.684-0.205-1.186-0.312c-0.641-0.149-1.16-0.299-1.561-0.448s-0.742-0.393-1.024-0.729
			c-0.283-0.336-0.425-0.793-0.425-1.369c0-0.747,0.281-1.353,0.841-1.816c0.561-0.465,1.337-0.697,2.329-0.697
			C850.371,128.31,851.201,128.574,851.826,129.103z"/>
		<path fill="#010101" d="M864.024,129.103c0.624,0.528,1.006,1.235,1.145,2.121h-1.729c-0.074-0.48-0.279-0.867-0.615-1.16
			c-0.337-0.294-0.783-0.44-1.338-0.44c-0.459,0-0.813,0.109-1.064,0.328c-0.25,0.219-0.376,0.515-0.376,0.888
			c0,0.278,0.091,0.502,0.272,0.673s0.408,0.304,0.68,0.4c0.273,0.096,0.66,0.202,1.161,0.32c0.661,0.149,1.198,0.304,1.608,0.464
			c0.411,0.16,0.764,0.414,1.057,0.761c0.294,0.347,0.441,0.819,0.441,1.417c0,0.736-0.281,1.334-0.842,1.793
			c-0.56,0.459-1.314,0.688-2.265,0.688c-1.099,0-1.987-0.256-2.665-0.768c-0.678-0.513-1.086-1.228-1.225-2.146h1.776
			c0.054,0.48,0.267,0.87,0.641,1.169s0.864,0.448,1.473,0.448c0.438,0,0.782-0.115,1.032-0.345c0.251-0.229,0.377-0.52,0.377-0.872
			c0-0.31-0.096-0.555-0.289-0.736c-0.191-0.182-0.432-0.323-0.72-0.425s-0.683-0.205-1.185-0.312
			c-0.641-0.149-1.16-0.299-1.561-0.448s-0.742-0.393-1.025-0.729s-0.424-0.793-0.424-1.369c0-0.747,0.28-1.353,0.84-1.816
			c0.561-0.465,1.338-0.697,2.33-0.697C862.57,128.31,863.4,128.574,864.024,129.103z"/>
		<path fill="#010101" d="M872.677,128.902c0.564,0.396,0.965,0.918,1.199,1.569v-2.05h1.826v8.821h-1.826v-2.049
			c-0.234,0.65-0.635,1.174-1.199,1.568c-0.566,0.395-1.25,0.592-2.05,0.592c-0.769,0-1.454-0.181-2.058-0.544
			c-0.603-0.362-1.074-0.886-1.416-1.568c-0.342-0.684-0.513-1.489-0.513-2.418c0-0.917,0.171-1.718,0.513-2.401
			c0.342-0.683,0.813-1.205,1.416-1.568c0.604-0.363,1.289-0.545,2.058-0.545C871.427,128.31,872.111,128.508,872.677,128.902z
			 M869.243,130.688c-0.485,0.518-0.729,1.229-0.729,2.137s0.243,1.62,0.729,2.138s1.134,0.776,1.944,0.776
			c0.514,0,0.972-0.12,1.377-0.36c0.406-0.24,0.727-0.579,0.961-1.017s0.352-0.95,0.352-1.537c0-0.576-0.117-1.085-0.352-1.528
			s-0.555-0.785-0.961-1.025c-0.405-0.239-0.863-0.359-1.377-0.359C870.376,129.911,869.728,130.17,869.243,130.688z"/>
		<path fill="#010101" d="M885.291,129.271c0.619,0.662,0.93,1.606,0.93,2.834v5.139h-1.826v-4.947c0-0.789-0.202-1.4-0.607-1.833
			c-0.406-0.432-0.961-0.647-1.665-0.647c-0.726,0-1.308,0.231-1.745,0.695c-0.438,0.465-0.656,1.145-0.656,2.041v4.691h-1.825
			v-8.821h1.825v1.938c0.234-0.662,0.629-1.174,1.185-1.537c0.555-0.362,1.195-0.544,1.921-0.544
			C883.851,128.278,884.671,128.608,885.291,129.271z"/>
		<path fill="#010101" d="M888.413,125.093c0.214-0.203,0.497-0.305,0.849-0.305s0.638,0.102,0.856,0.305
			c0.219,0.202,0.328,0.459,0.328,0.768c0,0.311-0.109,0.561-0.328,0.753s-0.505,0.288-0.856,0.288s-0.635-0.096-0.849-0.288
			s-0.319-0.442-0.319-0.753C888.093,125.552,888.199,125.295,888.413,125.093z M890.173,128.422v8.821h-1.824v-8.821H890.173z"/>
		<path fill="#010101" d="M896.818,135.658v1.585h-1.121c-0.939,0-1.652-0.227-2.137-0.681c-0.486-0.453-0.729-1.208-0.729-2.265
			v-4.323h-1.266v-1.553h1.266v-2.192h1.841v2.192h2.129v1.553h-2.129v4.354c0,0.502,0.093,0.849,0.28,1.041
			c0.187,0.191,0.515,0.288,0.984,0.288H896.818z"/>
		<path fill="#010101" d="M904.117,128.902c0.566,0.396,0.966,0.918,1.201,1.569v-2.05h1.824v8.821h-1.824v-2.049
			c-0.235,0.65-0.635,1.174-1.201,1.568c-0.565,0.395-1.248,0.592-2.049,0.592c-0.769,0-1.454-0.181-2.057-0.544
			c-0.604-0.362-1.076-0.886-1.418-1.568c-0.341-0.684-0.512-1.489-0.512-2.418c0-0.917,0.171-1.718,0.512-2.401
			c0.342-0.683,0.814-1.205,1.418-1.568c0.603-0.363,1.288-0.545,2.057-0.545C902.869,128.31,903.551,128.508,904.117,128.902z
			 M900.683,130.688c-0.486,0.518-0.729,1.229-0.729,2.137s0.242,1.62,0.729,2.138c0.485,0.518,1.134,0.776,1.945,0.776
			c0.512,0,0.971-0.12,1.377-0.36c0.404-0.24,0.725-0.579,0.96-1.017s0.353-0.95,0.353-1.537c0-0.576-0.117-1.085-0.353-1.528
			s-0.556-0.785-0.96-1.025c-0.406-0.239-0.865-0.359-1.377-0.359C901.817,129.911,901.168,130.17,900.683,130.688z"/>
		<path fill="#010101" d="M912.441,128.782c0.555-0.336,1.195-0.504,1.922-0.504v1.984h-0.545c-0.801,0-1.443,0.195-1.929,0.585
			s-0.729,1.032-0.729,1.929v4.467h-1.825v-8.821h1.825v1.729C911.458,129.575,911.886,129.118,912.441,128.782z"/>
		<path fill="#010101" d="M915.787,125.093c0.213-0.203,0.496-0.305,0.849-0.305s0.638,0.102,0.856,0.305
			c0.219,0.202,0.328,0.459,0.328,0.768c0,0.311-0.109,0.561-0.328,0.753s-0.504,0.288-0.856,0.288s-0.636-0.096-0.849-0.288
			s-0.32-0.442-0.32-0.753C915.466,125.552,915.574,125.295,915.787,125.093z M917.548,128.422v8.821h-1.826v-8.821H917.548z"/>
		<path fill="#010101" d="M925.344,128.902c0.565,0.396,0.966,0.918,1.2,1.569v-2.05h1.825v8.821h-1.825v-2.049
			c-0.234,0.65-0.635,1.174-1.2,1.568s-1.249,0.592-2.05,0.592c-0.768,0-1.453-0.181-2.057-0.544
			c-0.604-0.362-1.075-0.886-1.417-1.568c-0.341-0.684-0.513-1.489-0.513-2.418c0-0.917,0.172-1.718,0.513-2.401
			c0.342-0.683,0.813-1.205,1.417-1.568s1.289-0.545,2.057-0.545C924.095,128.31,924.779,128.508,925.344,128.902z M921.91,130.688
			c-0.485,0.518-0.729,1.229-0.729,2.137s0.243,1.62,0.729,2.138c0.486,0.518,1.135,0.776,1.945,0.776
			c0.513,0,0.971-0.12,1.377-0.36c0.405-0.24,0.726-0.579,0.961-1.017c0.234-0.438,0.352-0.95,0.352-1.537
			c0-0.576-0.117-1.085-0.352-1.528c-0.235-0.443-0.556-0.785-0.961-1.025c-0.406-0.239-0.864-0.359-1.377-0.359
			C923.044,129.911,922.396,130.17,921.91,130.688z"/>
		<path fill="#010101" d="M939.896,128.902c0.565,0.396,0.965,0.918,1.2,1.569v-2.05h1.825v8.917c0,0.822-0.168,1.551-0.504,2.186
			s-0.819,1.134-1.449,1.496c-0.63,0.363-1.377,0.545-2.241,0.545c-1.238,0-2.239-0.294-3.001-0.881
			c-0.764-0.587-1.241-1.382-1.434-2.385h1.809c0.15,0.522,0.438,0.931,0.865,1.225c0.427,0.293,0.971,0.439,1.633,0.439
			c0.726,0,1.323-0.224,1.793-0.672c0.469-0.448,0.704-1.1,0.704-1.953v-2.145c-0.235,0.65-0.635,1.174-1.2,1.568
			c-0.566,0.395-1.249,0.592-2.049,0.592c-0.77,0-1.455-0.181-2.058-0.544c-0.603-0.362-1.075-0.886-1.417-1.568
			c-0.342-0.684-0.512-1.489-0.512-2.418c0-0.917,0.17-1.718,0.512-2.401c0.342-0.683,0.814-1.205,1.417-1.568
			s1.288-0.545,2.058-0.545C938.647,128.31,939.33,128.508,939.896,128.902z M936.462,130.688c-0.486,0.518-0.729,1.229-0.729,2.137
			s0.242,1.62,0.729,2.138c0.484,0.518,1.133,0.776,1.944,0.776c0.513,0,0.972-0.12,1.377-0.36s0.726-0.579,0.96-1.017
			c0.235-0.438,0.353-0.95,0.353-1.537c0-0.576-0.117-1.085-0.353-1.528c-0.234-0.443-0.555-0.785-0.96-1.025
			c-0.405-0.239-0.864-0.359-1.377-0.359C937.595,129.911,936.947,130.17,936.462,130.688z"/>
		<path fill="#010101" d="M946.939,125.396v11.847h-1.824v-11.847H946.939z"/>
		<path fill="#010101" d="M955.488,128.854c0.684,0.363,1.217,0.886,1.602,1.568c0.384,0.684,0.576,1.484,0.576,2.401
			c0,0.929-0.192,1.734-0.576,2.418c-0.385,0.683-0.918,1.206-1.602,1.568c-0.684,0.363-1.451,0.544-2.305,0.544
			c-0.854,0-1.62-0.181-2.297-0.544c-0.679-0.362-1.212-0.889-1.602-1.577c-0.39-0.688-0.584-1.491-0.584-2.409
			c0-0.917,0.194-1.718,0.584-2.401c0.39-0.683,0.923-1.205,1.602-1.568c0.677-0.363,1.442-0.545,2.297-0.545
			C954.037,128.31,954.804,128.491,955.488,128.854z M951.886,130.215c-0.395,0.214-0.713,0.542-0.953,0.985
			c-0.24,0.442-0.359,0.984-0.359,1.624c0,0.651,0.119,1.196,0.359,1.633c0.24,0.438,0.559,0.764,0.953,0.977
			c0.395,0.214,0.826,0.32,1.297,0.32c0.469,0,0.901-0.106,1.297-0.32c0.395-0.213,0.712-0.538,0.952-0.977
			c0.24-0.437,0.36-0.981,0.36-1.633c0-0.64-0.12-1.182-0.36-1.624c-0.24-0.443-0.558-0.771-0.952-0.985
			c-0.396-0.213-0.828-0.32-1.297-0.32C952.712,129.895,952.281,130.002,951.886,130.215z"/>
		<path fill="#010101" d="M966.542,128.854c0.603,0.363,1.074,0.886,1.416,1.568c0.342,0.684,0.513,1.484,0.513,2.401
			c0,0.929-0.171,1.734-0.513,2.418c-0.342,0.683-0.813,1.206-1.416,1.568c-0.604,0.363-1.289,0.544-2.057,0.544
			c-0.801,0-1.484-0.197-2.05-0.592s-0.96-0.918-1.185-1.568v2.049h-1.825v-11.847h1.825v5.075c0.225-0.651,0.619-1.174,1.185-1.569
			c0.565-0.395,1.249-0.593,2.05-0.593C965.253,128.31,965.939,128.491,966.542,128.854z M962.548,130.271
			c-0.406,0.24-0.727,0.582-0.961,1.025s-0.352,0.952-0.352,1.528c0,0.587,0.117,1.1,0.352,1.537s0.555,0.776,0.961,1.017
			c0.405,0.24,0.864,0.36,1.377,0.36c0.811,0,1.461-0.259,1.953-0.776c0.49-0.518,0.736-1.23,0.736-2.138
			c0-0.896-0.246-1.606-0.736-2.129c-0.492-0.522-1.143-0.784-1.953-0.784C963.413,129.911,962.954,130.031,962.548,130.271z"/>
		<path fill="#010101" d="M975.82,128.902c0.564,0.396,0.965,0.918,1.199,1.569v-2.05h1.826v8.821h-1.826v-2.049
			c-0.234,0.65-0.635,1.174-1.199,1.568c-0.566,0.395-1.25,0.592-2.05,0.592c-0.769,0-1.454-0.181-2.058-0.544
			c-0.603-0.362-1.074-0.886-1.416-1.568c-0.342-0.684-0.513-1.489-0.513-2.418c0-0.917,0.171-1.718,0.513-2.401
			c0.342-0.683,0.813-1.205,1.416-1.568c0.604-0.363,1.289-0.545,2.058-0.545C974.57,128.31,975.253,128.508,975.82,128.902z
			 M972.385,130.688c-0.485,0.518-0.729,1.229-0.729,2.137s0.243,1.62,0.729,2.138s1.134,0.776,1.944,0.776
			c0.514,0,0.972-0.12,1.377-0.36c0.406-0.24,0.727-0.579,0.961-1.017s0.352-0.95,0.352-1.537c0-0.576-0.117-1.085-0.352-1.528
			s-0.555-0.785-0.961-1.025c-0.405-0.239-0.863-0.359-1.377-0.359C973.519,129.911,972.871,130.17,972.385,130.688z"/>
		<path fill="#010101" d="M982.863,125.396v11.847h-1.825v-11.847H982.863z"/>
	</g>
</g>
</svg>
