<?xml version="1.0" encoding="UTF-8" standalone="no"?>
<!-- Generator: Adobe Illustrator 17.0.0, SVG Export Plug-In . SVG Version: 6.00 Build 0)  -->

<svg
   xmlns:dc="http://purl.org/dc/elements/1.1/"
   xmlns:cc="http://creativecommons.org/ns#"
   xmlns:rdf="http://www.w3.org/1999/02/22-rdf-syntax-ns#"
   xmlns:svg="http://www.w3.org/2000/svg"
   xmlns="http://www.w3.org/2000/svg"
   xmlns:sodipodi="http://sodipodi.sourceforge.net/DTD/sodipodi-0.dtd"
   xmlns:inkscape="http://www.inkscape.org/namespaces/inkscape"
   version="1.1"
   id="Layer_1"
   x="0px"
   y="0px"
   viewBox="0 0 640 800.06498"
   enable-background="new 0 0 640 1600.065"
   xml:space="preserve"
   sodipodi:docname="wide-mobile.svg"
   inkscape:version="0.92.5 (2060ec1f9f, 2020-04-08)"><metadata
   id="metadata817"><rdf:RDF><cc:Work
       rdf:about=""><dc:format>image/svg+xml</dc:format><dc:type
         rdf:resource="http://purl.org/dc/dcmitype/StillImage" /><dc:title></dc:title></cc:Work></rdf:RDF></metadata><defs
   id="defs815"><clipPath
     clipPathUnits="userSpaceOnUse"
     id="clipPath18"><path
       d="M 0,201.779 H 452.978 V 0 H 0 Z"
       id="path16"
       inkscape:connector-curvature="0" /></clipPath><clipPath
     clipPathUnits="userSpaceOnUse"
     id="clipPath86"><path
       d="M 55.2087,143.16 H 109.403 V 84.4311 H 55.2087 Z"
       id="path84"
       inkscape:connector-curvature="0" /></clipPath><clipPath
     clipPathUnits="userSpaceOnUse"
     id="clipPath102"><path
       d="M 57.6002,67.9644 H 106.233 V 57.5999 H 57.6002 Z"
       id="path100"
       inkscape:connector-curvature="0" /></clipPath></defs><sodipodi:namedview
   pagecolor="#ffffff"
   bordercolor="#666666"
   borderopacity="1"
   objecttolerance="10"
   gridtolerance="10"
   guidetolerance="10"
   inkscape:pageopacity="0"
   inkscape:pageshadow="2"
   inkscape:window-width="3840"
   inkscape:window-height="2042"
   id="namedview813"
   showgrid="false"
   inkscape:zoom="1.6687042"
   inkscape:cx="201.70442"
   inkscape:cy="343.3568"
   inkscape:window-x="0"
   inkscape:window-y="27"
   inkscape:window-maximized="1"
   inkscape:current-layer="Layer_1"
   fit-margin-top="0"
   fit-margin-left="0"
   fit-margin-right="0"
   fit-margin-bottom="0" />
<rect
   x="160"
   y="0.064999998"
   width="159.935"
   height="160"
   id="rect2"
   style="fill:#29abe2" />
<rect
   x="319.935"
   y="0.064999998"
   width="0.064999998"
   height="160"
   id="rect4"
   style="fill:#29abe2" />
<polygon
   points="319.935,160 319.935,160.065 320,160.065 "
   id="polygon6"
   style="fill:#f7adcb" />
<polygon
   points="319.935,160.065 319.935,160 240,80.065 160,160.065 "
   id="polygon8"
   style="fill:#f7adcb" />
<polygon
   points="319.935,0.065 319.935,0.13 320,0.065 "
   id="polygon10"
   style="fill:#f7adcb" />
<polygon
   points="319.935,0.13 319.935,0.065 160,0.065 240,80.065 "
   id="polygon12"
   style="fill:#f7adcb" />











<g
   id="g240">
	<rect
   x="320"
   y="0.064999998"
   width="160"
   height="160"
   id="rect232"
   style="fill:#6e559e" />
	<path
   d="m 480,0 h -9.189 c -84.124,4.763 -150.876,74.48 -150.876,159.796 0,0.09 0.003,0.179 0.003,0.269 H 480 Z"
   id="path234"
   inkscape:connector-curvature="0"
   style="fill:#f26522" />
	<path
   d="m 480,53.087 c -58.84,0 -106.71,47.87 -106.71,106.71 0,0.09 0.003,0.179 0.003,0.268 H 480 Z"
   id="path236"
   inkscape:connector-curvature="0"
   style="fill:#f7adcb" />
	<path
   d="m 480,106.442 c -29.42,0 -53.355,23.935 -53.355,53.355 0,0.09 0.006,0.178 0.007,0.268 H 480 Z"
   id="path238"
   inkscape:connector-curvature="0"
   style="fill:#ffde17" />
</g>
<g
   id="g278"
   transform="translate(0,-320)">
	<rect
   x="160"
   y="640.065"
   width="160"
   height="160"
   id="rect242"
   style="fill:#ffde17" />
	<rect
   x="320"
   y="640.065"
   width="160"
   height="160"
   id="rect244"
   style="fill:#f7adcb" />
	<g
   id="g250">
		<rect
   x="160"
   y="640.065"
   width="160"
   height="160"
   id="rect246"
   style="fill:#29abe2" />
		
			<rect
   x="183.431"
   y="663.49597"
   transform="matrix(0.7071,0.7071,-0.7071,0.7071,579.4572,41.1965)"
   width="113.137"
   height="113.137"
   id="rect248"
   style="fill:#8cc63f" />
	</g>
	<g
   id="g276">
		<g
   id="g272">
			<g
   id="g260">
				<circle
   cx="400"
   cy="682.55902"
   r="26.52"
   id="circle252"
   style="fill:#ffde17" />
				<circle
   cx="437.50601"
   cy="720.065"
   r="26.52"
   id="circle254"
   style="fill:#ffde17" />
				<circle
   cx="362.49399"
   cy="720.065"
   r="26.52"
   id="circle256"
   style="fill:#ffde17" />
				<circle
   cx="400"
   cy="757.57098"
   r="26.52"
   id="circle258"
   style="fill:#ffde17" />
			</g>
			<g
   id="g270">
				<circle
   cx="373.48001"
   cy="693.54498"
   r="26.52"
   id="circle262"
   style="fill:#ffde17" />
				<circle
   cx="426.51999"
   cy="693.54498"
   r="26.52"
   id="circle264"
   style="fill:#ffde17" />
				<circle
   cx="373.48001"
   cy="746.58502"
   r="26.52"
   id="circle266"
   style="fill:#ffde17" />
				<circle
   cx="426.51999"
   cy="746.58502"
   r="26.52"
   id="circle268"
   style="fill:#ffde17" />
			</g>
		</g>
		<circle
   cx="400"
   cy="720.065"
   r="26.52"
   id="circle274"
   style="fill:#f26522" />
	</g>
</g>


<rect
   x="160"
   y="640.065"
   width="160"
   height="160"
   id="rect284"
   style="fill:#29abe2" />
<rect
   x="320"
   y="640.065"
   width="160"
   height="160"
   id="rect286"
   style="fill:#6e559e" />


<g
   id="g518"
   transform="translate(0,-320)">
	<path
   d="m 240,1120.065 c -44.183,0 -80,-35.817 -80,-80 0,-44.183 35.817,-80 80,-80"
   id="path514"
   inkscape:connector-curvature="0"
   style="fill:#f26522" />
	<path
   d="m 240,960.065 c 44.183,0 80,35.817 80,80 0,44.183 -35.817,80 -80,80"
   id="path516"
   inkscape:connector-curvature="0"
   style="fill:#f7adcb" />
</g>
<g
   id="g524"
   transform="translate(0,-320)">
	<path
   d="m 336.404,1104.091 c 0,0 -6.259,-63.397 28.983,-98.639 35.242,-35.242 98.639,-28.983 98.639,-28.983"
   id="path520"
   inkscape:connector-curvature="0"
   style="fill:#ffde17" />
	<path
   d="m 335.974,1103.661 c 0,0 63.397,6.259 98.639,-28.983 35.242,-35.242 28.983,-98.639 28.983,-98.639"
   id="path522"
   inkscape:connector-curvature="0"
   style="fill:#8cc63f" />
</g>


<rect
   x="0"
   y="0.064999998"
   width="160"
   height="160"
   id="rect600"
   style="fill:#f7adcb" />
<rect
   x="0"
   y="160.065"
   width="160"
   height="160"
   id="rect602"
   style="fill:#8cc63f" />

<rect
   x="0"
   y="320.065"
   width="160"
   height="160"
   id="rect606"
   style="fill:#6e559e" />
<rect
   x="0"
   y="480.065"
   width="160"
   height="160"
   id="rect608"
   style="fill:#ffde17" />
<g
   id="g620">
	<rect
   x="0"
   y="0.064999998"
   width="160"
   height="160"
   id="rect610"
   style="fill:#8cc63f" />
	<rect
   x="40"
   y="0.064999998"
   width="40"
   height="160"
   id="rect612"
   style="fill:#f26522" />
	<rect
   x="0"
   y="0.064999998"
   width="40"
   height="160"
   id="rect614"
   style="fill:#f7adcb" />
	<rect
   x="80"
   y="0.064999998"
   width="40"
   height="160"
   id="rect616"
   style="fill:#f7adcb" />
	<rect
   x="120"
   y="0.064999998"
   width="40"
   height="160"
   id="rect618"
   style="fill:#f26522" />
</g>
<g
   id="g634"
   transform="translate(0,-320)">
	<rect
   x="0"
   y="800.065"
   width="160"
   height="160"
   id="rect622"
   style="fill:#f26522" />
	<g
   id="g632">
		<path
   d="m 73.421,918.823 c 0,-21.027 2.946,-38.072 6.579,-38.072 3.634,0 6.579,17.046 6.579,38.072 0,21.027 -2.946,28.509 -6.579,28.509 -3.634,0 -6.579,-7.483 -6.579,-28.509 z"
   id="path624"
   inkscape:connector-curvature="0"
   style="fill:#ffde17" />
		<circle
   cx="80.121002"
   cy="877.14001"
   r="9.6750002"
   id="circle626"
   style="fill:#ffde17" />
		<path
   d="m 47.683,852.615 c 18.21,10.513 31.499,21.587 29.682,24.734 -1.817,3.147 -18.051,-2.825 -36.261,-13.338 -18.21,-10.513 -23.217,-16.806 -21.4,-19.952 1.817,-3.146 9.77,-1.957 27.979,8.556 z"
   id="path628"
   inkscape:connector-curvature="0"
   style="fill:#ffde17" />
		<path
   d="m 112.317,852.615 c -18.21,10.513 -31.499,21.587 -29.682,24.734 1.817,3.147 18.051,-2.825 36.261,-13.338 18.21,-10.513 23.217,-16.806 21.4,-19.952 -1.817,-3.147 -9.769,-1.957 -27.979,8.556 z"
   id="path630"
   inkscape:connector-curvature="0"
   style="fill:#ffde17" />
	</g>
</g>
<g
   id="g640">
	<rect
   x="0"
   y="220.065"
   width="160"
   height="40"
   id="rect636"
   style="fill:#6e559e" />
	<rect
   x="60"
   y="160.065"
   width="40"
   height="160"
   id="rect638"
   style="fill:#6e559e" />
</g>
<g
   id="g646"
   transform="translate(0,-320)">
	
		<rect
   x="-0.032000002"
   y="700.05701"
   transform="matrix(0.7071,-0.7071,0.7071,0.7071,-485.7314,267.4707)"
   width="160.065"
   height="40.015999"
   id="rect642"
   style="fill:#8cc63f" />
	
		<rect
   x="-0.032000002"
   y="700.05701"
   transform="matrix(-0.7071,-0.7071,0.7071,-0.7071,-372.5943,1285.7964)"
   width="160.065"
   height="40.015999"
   id="rect644"
   style="fill:#8cc63f" />
</g>


<rect
   x="480"
   y="0.064999998"
   width="160"
   height="160"
   id="rect678"
   style="fill:#29abe2" />
<g
   id="g682">
	<rect
   x="480"
   y="160.065"
   width="160"
   height="160"
   id="rect680"
   style="fill:#f7adcb" />
</g>


<rect
   x="480"
   y="320.065"
   width="160"
   height="160"
   id="rect688"
   style="fill:#6e559e" />
<rect
   x="480"
   y="480.065"
   width="160"
   height="160"
   id="rect690"
   style="fill:#ffde17" />
<g
   id="g696">
	<polygon
   points="480,320.065 560,240.065 640,320.065 "
   id="polygon692"
   style="fill:#f26522" />
	<polygon
   points="640,160.065 560,240.065 480,160.065 "
   id="polygon694"
   style="fill:#f26522" />
</g>
<g
   id="g702"
   transform="translate(0,-320)">
	<rect
   x="480"
   y="800.065"
   width="160"
   height="160"
   id="rect698"
   style="fill:#5b5b5b" />
	<polygon
   points="640,861.18 609.443,960.065 510.557,960.065 480,861.18 560,800.065 "
   id="polygon700"
   style="fill:#29abe2" />
</g>

<g
   id="g714"
   transform="translate(0,-320)">
	<rect
   x="551.05701"
   y="706.552"
   width="5.4439998"
   height="32.367001"
   id="rect706"
   style="fill:#ffffff" />
	<rect
   x="551.05701"
   y="755.935"
   width="5.4439998"
   height="32.367001"
   id="rect708"
   style="fill:#ffffff" />
	<rect
   x="551.05701"
   y="654.98401"
   width="5.4439998"
   height="32.367001"
   id="rect710"
   style="fill:#ffffff" />
	<rect
   x="563.49902"
   y="643.07397"
   width="5.4439998"
   height="153.981"
   id="rect712"
   style="fill:#ffde17" />
</g>
<g
   id="g722">
	<rect
   x="495.974"
   y="80.031998"
   width="128.052"
   height="80.032997"
   id="rect716"
   style="fill:#ffde17" />
	<polygon
   points="495.974,80.032 560,16.006 624.026,80.032 "
   id="polygon718"
   style="fill:#f26522" />
	<rect
   x="543.99402"
   y="96.038002"
   width="32.013"
   height="32.013"
   id="rect720"
   style="fill:#f26522" />
</g>

<rect
   x="480"
   y="640.065"
   width="160"
   height="160"
   id="rect734"
   style="fill:#f7adcb" />



<rect
   x="0"
   y="640.065"
   width="160"
   height="160"
   id="rect742"
   style="fill:#29abe2" />

<circle
   cx="560"
   cy="720.06494"
   r="80"
   id="circle746"
   style="fill:#f26522" />


<g
   id="g768"
   transform="translate(0,-320)">
	<polygon
   points="160,1040.065 160,1120.065 80,1080.065 "
   id="polygon760"
   style="fill:#f7adcb" />
	<polygon
   points="0,1040.065 0,960.065 80,1000.065 "
   id="polygon762"
   style="fill:#f7adcb" />
	<polygon
   points="160,960.065 160,1040.065 80,1000.065 "
   id="polygon764"
   style="fill:#f7adcb" />
	<polygon
   points="0,1120.065 0,1040.065 80,1080.065 "
   id="polygon766"
   style="fill:#f7adcb" />
</g>





<g
   transform="translate(-160)"
   id="g1319"><rect
     style="fill:#ffde17;stroke-width:1.41421354"
     id="rect22-2"
     height="160"
     width="320"
     y="160.065"
     x="320" /><g
     transform="matrix(0.81754268,0,0,-0.81754268,300.98239,322.77253)"
     id="g12"><g
       id="g14"
       clip-path="url(#clipPath18)"><g
         id="g20"
         transform="translate(165.9656,132.0834)"><path
           d="m 0,0 c 2.377,-1.929 3.866,-4.556 4.464,-7.881 h -7.432 c -0.299,1.463 -0.981,2.618 -2.045,3.467 -1.065,0.848 -2.411,1.271 -4.04,1.271 -1.863,0 -3.417,-0.69 -4.664,-2.069 -1.247,-1.381 -1.871,-3.401 -1.871,-6.061 0,-2.661 0.624,-4.681 1.871,-6.061 1.247,-1.38 2.801,-2.069 4.664,-2.069 1.629,0 2.975,0.424 4.04,1.271 1.064,0.849 1.746,2.003 2.045,3.467 H 4.464 C 3.866,-17.99 2.377,-20.618 0,-22.546 c -2.378,-1.93 -5.346,-2.893 -8.904,-2.893 -2.693,0 -5.088,0.574 -7.182,1.72 -2.096,1.148 -3.726,2.785 -4.889,4.914 -1.165,2.127 -1.746,4.639 -1.746,7.532 0,2.893 0.581,5.412 1.746,7.557 1.163,2.145 2.793,3.782 4.889,4.913 2.094,1.13 4.489,1.697 7.182,1.697 C -5.346,2.894 -2.378,1.929 0,0"
           style="fill:#000000;fill-opacity:1;fill-rule:nonzero;stroke:none"
           id="path22"
           inkscape:connector-curvature="0" /></g><path
         d="m 183.05,106.994 h -7.033 v 27.634 h 7.033 z m -6.635,38.334 c 0.799,0.713 1.846,1.072 3.143,1.072 1.297,0 2.345,-0.359 3.142,-1.072 0.799,-0.716 1.198,-1.639 1.198,-2.769 0,-1.098 -0.399,-2.004 -1.198,-2.719 -0.797,-0.716 -1.845,-1.072 -3.142,-1.072 -1.297,0 -2.344,0.356 -3.143,1.072 -0.798,0.715 -1.196,1.621 -1.196,2.719 0,1.13 0.398,2.053 1.196,2.769"
         style="fill:#000000;fill-opacity:1;fill-rule:nonzero;stroke:none"
         id="path24"
         inkscape:connector-curvature="0" /><g
         id="g26"
         transform="translate(216.7693,134.6273)"><path
           d="m 0,0 v -27.634 h -7.033 v 5.587 c -0.732,-1.863 -1.938,-3.317 -3.616,-4.365 -1.68,-1.047 -3.617,-1.571 -5.812,-1.571 -3.192,0 -5.736,1.047 -7.632,3.142 -1.895,2.095 -2.843,5.022 -2.843,8.779 V 0 h 6.983 v -15.264 c 0,-2.194 0.566,-3.899 1.697,-5.112 1.13,-1.215 2.66,-1.821 4.589,-1.821 2.028,0 3.641,0.648 4.838,1.945 1.197,1.297 1.796,3.159 1.796,5.587 V 0 Z"
           style="fill:#000000;fill-opacity:1;fill-rule:nonzero;stroke:none"
           id="path28"
           inkscape:connector-curvature="0" /></g><g
         id="g30"
         transform="translate(231.8127,126.6967)"><path
           d="m 0,0 c -1.33,-1.431 -1.995,-3.393 -1.995,-5.887 0,-2.493 0.665,-4.447 1.995,-5.86 1.33,-1.414 3.093,-2.12 5.288,-2.12 2.128,0 3.882,0.723 5.262,2.17 1.38,1.446 2.07,3.383 2.07,5.81 0,2.461 -0.69,4.415 -2.07,5.862 C 9.17,1.421 7.416,2.145 5.288,2.145 3.093,2.145 1.33,1.429 0,0 M 9.054,6.634 C 10.7,5.536 11.888,4.057 12.62,2.194 v 15.015 h 6.984 V -19.703 H 12.62 v 5.786 c -0.732,-1.863 -1.92,-3.351 -3.566,-4.465 -1.646,-1.114 -3.634,-1.671 -5.961,-1.671 -2.328,0 -4.423,0.566 -6.285,1.697 -1.863,1.129 -3.317,2.768 -4.365,4.913 -1.047,2.144 -1.571,4.664 -1.571,7.556 0,2.894 0.524,5.412 1.571,7.558 1.048,2.144 2.502,3.782 4.365,4.913 1.862,1.13 3.957,1.696 6.285,1.696 2.327,0 4.315,-0.549 5.961,-1.646"
           style="fill:#000000;fill-opacity:1;fill-rule:nonzero;stroke:none"
           id="path32"
           inkscape:connector-curvature="0" /></g><g
         id="g34"
         transform="translate(266.4597,126.6967)"><path
           d="m 0,0 c -1.33,-1.431 -1.995,-3.393 -1.995,-5.887 0,-2.493 0.665,-4.447 1.995,-5.86 1.33,-1.414 3.093,-2.12 5.288,-2.12 2.128,0 3.882,0.723 5.262,2.17 1.38,1.446 2.07,3.383 2.07,5.81 0,2.461 -0.69,4.415 -2.07,5.862 C 9.17,1.421 7.416,2.145 5.288,2.145 3.093,2.145 1.33,1.429 0,0 m 9.079,6.634 c 1.662,-1.098 2.843,-2.577 3.541,-4.44 v 5.737 h 6.984 V -19.703 H 12.62 v 5.786 c -0.698,-1.863 -1.879,-3.351 -3.541,-4.465 -1.663,-1.114 -3.659,-1.671 -5.986,-1.671 -2.328,0 -4.423,0.566 -6.285,1.697 -1.863,1.129 -3.317,2.768 -4.365,4.913 -1.047,2.144 -1.571,4.664 -1.571,7.556 0,2.894 0.524,5.412 1.571,7.558 1.048,2.144 2.502,3.782 4.365,4.913 1.862,1.13 3.957,1.696 6.285,1.696 2.327,0 4.323,-0.549 5.986,-1.646"
           style="fill:#000000;fill-opacity:1;fill-rule:nonzero;stroke:none"
           id="path36"
           inkscape:connector-curvature="0" /></g><g
         id="g38"
         transform="translate(301.1072,126.6967)"><path
           d="m 0,0 c -1.33,-1.431 -1.995,-3.393 -1.995,-5.887 0,-2.493 0.665,-4.447 1.995,-5.86 1.33,-1.414 3.093,-2.12 5.288,-2.12 2.128,0 3.882,0.723 5.262,2.17 1.38,1.446 2.07,3.383 2.07,5.81 0,2.461 -0.69,4.415 -2.07,5.862 C 9.17,1.421 7.416,2.145 5.288,2.145 3.093,2.145 1.33,1.429 0,0 M 9.054,6.634 C 10.7,5.536 11.888,4.057 12.62,2.194 v 15.015 h 6.984 V -19.703 H 12.62 v 5.786 c -0.732,-1.863 -1.92,-3.351 -3.566,-4.465 -1.646,-1.114 -3.634,-1.671 -5.961,-1.671 -2.328,0 -4.423,0.566 -6.285,1.697 -1.863,1.129 -3.317,2.768 -4.365,4.913 -1.047,2.144 -1.571,4.664 -1.571,7.556 0,2.894 0.524,5.412 1.571,7.558 1.048,2.144 2.502,3.782 4.365,4.913 1.862,1.13 3.957,1.696 6.285,1.696 2.327,0 4.315,-0.549 5.961,-1.646"
           style="fill:#000000;fill-opacity:1;fill-rule:nonzero;stroke:none"
           id="path40"
           inkscape:connector-curvature="0" /></g><g
         id="g42"
         transform="translate(345.1575,127.6938)"><path
           d="m 0,0 c -1.281,1.164 -2.852,1.746 -4.714,1.746 -1.895,0 -3.492,-0.582 -4.788,-1.746 -1.297,-1.164 -2.013,-2.876 -2.145,-5.138 H 1.771 C 1.871,-2.876 1.28,-1.164 0,0 m 8.604,-8.23 h -20.251 c 0.1,-2.461 0.764,-4.274 1.995,-5.437 1.23,-1.165 2.76,-1.746 4.589,-1.746 1.629,0 2.984,0.399 4.065,1.197 1.081,0.798 1.771,1.878 2.07,3.242 h 7.433 c -0.367,-1.928 -1.148,-3.658 -2.345,-5.187 -1.197,-1.53 -2.735,-2.728 -4.614,-3.592 -1.879,-0.865 -3.965,-1.297 -6.26,-1.297 -2.693,0 -5.088,0.574 -7.182,1.721 -2.096,1.147 -3.726,2.785 -4.889,4.914 -1.165,2.127 -1.746,4.639 -1.746,7.531 0,2.894 0.581,5.412 1.746,7.558 1.163,2.144 2.793,3.782 4.889,4.913 2.094,1.13 4.489,1.696 7.182,1.696 2.727,0 5.113,-0.566 7.158,-1.696 2.045,-1.131 3.624,-2.686 4.739,-4.664 1.113,-1.979 1.671,-4.232 1.671,-6.759 0,-0.698 -0.083,-1.496 -0.25,-2.394"
           style="fill:#000000;fill-opacity:1;fill-rule:nonzero;stroke:none"
           id="path44"
           inkscape:connector-curvature="0" /></g><g
         id="g46"
         transform="translate(377.1106,132.433)"><path
           d="m 0,0 c 2.028,-1.696 3.292,-3.958 3.791,-6.784 h -6.584 c -0.267,1.33 -0.865,2.394 -1.796,3.192 -0.931,0.798 -2.145,1.197 -3.641,1.197 -1.197,0 -2.129,-0.283 -2.793,-0.847 -0.666,-0.567 -0.998,-1.331 -0.998,-2.295 0,-0.766 0.266,-1.38 0.798,-1.846 0.532,-0.466 1.197,-0.831 1.995,-1.097 0.798,-0.267 1.946,-0.583 3.442,-0.948 2.095,-0.466 3.799,-0.956 5.113,-1.471 1.313,-0.516 2.444,-1.33 3.392,-2.445 0.948,-1.114 1.421,-2.618 1.421,-4.513 0,-2.363 -0.922,-4.274 -2.768,-5.737 -1.846,-1.464 -4.332,-2.195 -7.457,-2.195 -3.592,0 -6.469,0.806 -8.63,2.42 -2.162,1.612 -3.475,3.915 -3.94,6.908 h 6.734 c 0.166,-1.364 0.764,-2.436 1.796,-3.218 1.03,-0.781 2.376,-1.172 4.04,-1.172 1.197,0 2.111,0.291 2.743,0.873 0.632,0.582 0.948,1.338 0.948,2.27 0,0.798 -0.274,1.446 -0.823,1.945 -0.549,0.499 -1.231,0.881 -2.045,1.148 -0.816,0.265 -1.97,0.581 -3.467,0.947 -2.063,0.466 -3.733,0.939 -5.013,1.422 -1.28,0.481 -2.378,1.255 -3.292,2.319 -0.915,1.065 -1.372,2.528 -1.372,4.39 0,2.394 0.914,4.34 2.743,5.836 1.829,1.497 4.356,2.245 7.582,2.245 C -4.722,2.544 -2.029,1.695 0,0"
           style="fill:#000000;fill-opacity:1;fill-rule:nonzero;stroke:none"
           id="path48"
           inkscape:connector-curvature="0" /></g><g
         id="g50"
         transform="translate(165.9656,82.6195)"><path
           d="m 0,0 c 2.377,-1.929 3.866,-4.556 4.464,-7.881 h -7.432 c -0.299,1.463 -0.981,2.618 -2.045,3.467 -1.065,0.848 -2.411,1.271 -4.04,1.271 -1.863,0 -3.417,-0.69 -4.664,-2.069 -1.247,-1.381 -1.871,-3.401 -1.871,-6.061 0,-2.661 0.624,-4.681 1.871,-6.061 1.247,-1.38 2.801,-2.069 4.664,-2.069 1.629,0 2.975,0.424 4.04,1.271 1.064,0.849 1.746,2.003 2.045,3.467 H 4.464 C 3.866,-17.99 2.377,-20.618 0,-22.546 c -2.378,-1.93 -5.346,-2.893 -8.904,-2.893 -2.693,0 -5.088,0.574 -7.182,1.72 -2.096,1.148 -3.726,2.785 -4.889,4.914 -1.165,2.127 -1.746,4.639 -1.746,7.532 0,2.893 0.581,5.412 1.746,7.557 1.163,2.145 2.793,3.782 4.889,4.913 2.094,1.13 4.489,1.697 7.182,1.697 C -5.346,2.894 -2.378,1.929 0,0"
           style="fill:#000000;fill-opacity:1;fill-rule:nonzero;stroke:none"
           id="path52"
           inkscape:connector-curvature="0" /></g><g
         id="g54"
         transform="translate(183.783,77.3568)"><path
           d="m 0,0 c -1.364,-1.38 -2.045,-3.384 -2.045,-6.011 0,-2.627 0.681,-4.631 2.045,-6.01 1.363,-1.38 3.025,-2.07 4.988,-2.07 1.962,0 3.624,0.69 4.988,2.07 1.363,1.379 2.045,3.383 2.045,6.01 0,2.627 -0.682,4.631 -2.045,6.011 C 8.612,1.38 6.95,2.07 4.988,2.07 3.025,2.07 1.363,1.38 0,0 m 12.246,6.46 c 2.145,-1.131 3.832,-2.769 5.063,-4.913 1.23,-2.146 1.845,-4.664 1.845,-7.558 0,-2.892 -0.615,-5.404 -1.845,-7.531 -1.231,-2.129 -2.918,-3.767 -5.063,-4.914 -2.145,-1.147 -4.564,-1.721 -7.258,-1.721 -2.694,0 -5.113,0.574 -7.258,1.721 -2.145,1.147 -3.833,2.785 -5.063,4.914 -1.23,2.127 -1.845,4.639 -1.845,7.531 0,2.894 0.615,5.412 1.845,7.558 1.23,2.144 2.918,3.782 5.063,4.913 2.145,1.13 4.564,1.696 7.258,1.696 2.694,0 5.113,-0.566 7.258,-1.696"
           style="fill:#000000;fill-opacity:1;fill-rule:nonzero;stroke:none"
           id="path56"
           inkscape:connector-curvature="0" /></g><g
         id="g58"
         transform="translate(251.8909,82.4447)"><path
           d="m 0,0 c 1.945,-2.078 2.918,-5.03 2.918,-8.854 v -16.061 h -6.983 v 15.264 c 0,2.128 -0.541,3.765 -1.622,4.913 -1.081,1.147 -2.568,1.72 -4.464,1.72 -1.963,0 -3.525,-0.615 -4.689,-1.845 -1.164,-1.231 -1.746,-3.027 -1.746,-5.387 v -14.665 h -6.983 v 15.264 c 0,2.128 -0.541,3.765 -1.621,4.913 -1.081,1.147 -2.569,1.72 -4.465,1.72 -1.962,0 -3.525,-0.615 -4.688,-1.845 -1.165,-1.231 -1.746,-3.027 -1.746,-5.387 v -14.665 h -7.034 V 2.719 h 7.034 v -5.238 c 0.731,1.796 1.887,3.184 3.466,4.165 1.58,0.981 3.417,1.472 5.512,1.472 2.228,0 4.165,-0.532 5.812,-1.597 1.646,-1.064 2.884,-2.593 3.716,-4.588 0.864,1.895 2.152,3.399 3.866,4.514 1.712,1.114 3.632,1.671 5.761,1.671 C -4.598,3.118 -1.945,2.078 0,0"
           style="fill:#000000;fill-opacity:1;fill-rule:nonzero;stroke:none"
           id="path60"
           inkscape:connector-curvature="0" /></g><g
         id="g62"
         transform="translate(288.2839,85.1635)"><path
           d="m 0,0 v -27.634 h -7.033 v 5.587 c -0.732,-1.863 -1.938,-3.317 -3.616,-4.365 -1.68,-1.047 -3.617,-1.571 -5.812,-1.571 -3.192,0 -5.736,1.047 -7.632,3.142 -1.895,2.095 -2.843,5.022 -2.843,8.779 V 0 h 6.983 v -15.264 c 0,-2.194 0.566,-3.899 1.697,-5.112 1.13,-1.215 2.66,-1.821 4.589,-1.821 2.028,0 3.641,0.648 4.838,1.945 1.197,1.297 1.796,3.159 1.796,5.587 V 0 Z"
           style="fill:#000000;fill-opacity:1;fill-rule:nonzero;stroke:none"
           id="path64"
           inkscape:connector-curvature="0" /></g><g
         id="g66"
         transform="translate(319.6238,82.4203)"><path
           d="M 0,0 C 1.896,-2.095 2.843,-5.038 2.843,-8.829 V -24.891 H -4.14 v 15.264 c 0,2.194 -0.566,3.898 -1.696,5.112 -1.131,1.214 -2.678,1.822 -4.639,1.822 -1.995,0 -3.591,-0.649 -4.789,-1.946 -1.197,-1.297 -1.796,-3.16 -1.796,-5.587 v -14.665 h -7.033 V 2.743 h 7.033 v -5.537 c 0.731,1.862 1.937,3.317 3.617,4.365 1.679,1.048 3.616,1.572 5.811,1.572 C -4.439,3.143 -1.896,2.095 0,0"
           style="fill:#000000;fill-opacity:1;fill-rule:nonzero;stroke:none"
           id="path68"
           inkscape:connector-curvature="0" /></g><g
         id="g70"
         transform="translate(346.6389,78.2299)"><path
           d="m 0,0 c -1.281,1.164 -2.852,1.746 -4.714,1.746 -1.895,0 -3.492,-0.582 -4.788,-1.746 -1.297,-1.164 -2.013,-2.876 -2.145,-5.138 H 1.771 C 1.871,-2.876 1.28,-1.164 0,0 m 8.604,-8.23 h -20.251 c 0.1,-2.461 0.764,-4.274 1.995,-5.437 1.23,-1.165 2.76,-1.746 4.589,-1.746 1.629,0 2.984,0.399 4.065,1.197 1.081,0.798 1.771,1.878 2.07,3.242 h 7.433 c -0.367,-1.928 -1.148,-3.658 -2.345,-5.187 -1.197,-1.53 -2.735,-2.728 -4.614,-3.592 -1.879,-0.865 -3.965,-1.297 -6.26,-1.297 -2.693,0 -5.088,0.574 -7.182,1.721 -2.096,1.147 -3.726,2.785 -4.889,4.914 -1.165,2.127 -1.746,4.639 -1.746,7.531 0,2.894 0.581,5.412 1.746,7.558 1.163,2.144 2.793,3.782 4.889,4.913 2.094,1.13 4.489,1.696 7.182,1.696 2.727,0 5.113,-0.566 7.158,-1.696 2.045,-1.131 3.624,-2.686 4.739,-4.664 1.113,-1.979 1.671,-4.232 1.671,-6.759 0,-0.698 -0.083,-1.496 -0.25,-2.394"
           style="fill:#000000;fill-opacity:1;fill-rule:nonzero;stroke:none"
           id="path72"
           inkscape:connector-curvature="0" /></g><g
         id="g74"
         transform="translate(378.592,82.9691)"><path
           d="m 0,0 c 2.028,-1.696 3.292,-3.958 3.791,-6.784 h -6.584 c -0.267,1.33 -0.865,2.394 -1.796,3.192 -0.931,0.798 -2.145,1.197 -3.641,1.197 -1.197,0 -2.129,-0.283 -2.793,-0.847 -0.666,-0.567 -0.998,-1.331 -0.998,-2.295 0,-0.766 0.266,-1.38 0.798,-1.846 0.532,-0.466 1.197,-0.831 1.995,-1.097 0.798,-0.267 1.946,-0.583 3.442,-0.948 2.095,-0.466 3.799,-0.956 5.113,-1.471 1.313,-0.516 2.444,-1.33 3.392,-2.445 0.948,-1.114 1.421,-2.618 1.421,-4.513 0,-2.363 -0.922,-4.274 -2.768,-5.737 -1.846,-1.464 -4.332,-2.195 -7.457,-2.195 -3.592,0 -6.469,0.806 -8.63,2.42 -2.162,1.612 -3.475,3.915 -3.94,6.908 h 6.734 c 0.166,-1.364 0.764,-2.436 1.796,-3.218 1.03,-0.781 2.376,-1.172 4.04,-1.172 1.197,0 2.111,0.291 2.743,0.873 0.632,0.582 0.948,1.338 0.948,2.27 0,0.798 -0.274,1.446 -0.823,1.945 -0.549,0.499 -1.231,0.881 -2.045,1.148 -0.816,0.265 -1.97,0.581 -3.467,0.947 -2.063,0.466 -3.733,0.939 -5.013,1.422 -1.28,0.481 -2.378,1.255 -3.292,2.319 -0.915,1.065 -1.372,2.528 -1.372,4.39 0,2.394 0.914,4.34 2.743,5.836 1.829,1.497 4.356,2.245 7.582,2.245 C -4.722,2.544 -2.029,1.695 0,0"
           style="fill:#000000;fill-opacity:1;fill-rule:nonzero;stroke:none"
           id="path76"
           inkscape:connector-curvature="0" /></g><path
         d="m 129.696,55.932 h -5 v 90 h 5 z"
         style="fill:#000000;fill-opacity:1;fill-rule:nonzero;stroke:none"
         id="path78"
         inkscape:connector-curvature="0" /><g
         id="g80"><g
           id="g82" /><g
           id="g94"><g
             clip-path="url(#clipPath86)"
             id="g92"><g
               transform="translate(85.1125,130.852)"
               id="g90"><path
                 d="m 0,0 c -9.284,0 -15.762,-6.909 -15.762,-17.057 0,-10.364 6.478,-17.273 15.762,-17.273 6.693,0 12.091,2.267 15.545,6.802 l 8.745,-7.234 c -5.074,-7.341 -13.71,-11.659 -25.046,-11.659 -17.273,0 -29.148,11.875 -29.148,29.256 0,17.597 11.983,29.473 29.364,29.473 10.58,0 19,-3.887 24.183,-10.58 L 15.114,-6.369 C 11.443,-2.375 6.369,0 0,0"
                 style="fill:#000000;fill-opacity:1;fill-rule:nonzero;stroke:none"
                 id="path88"
                 inkscape:connector-curvature="0" /></g></g></g></g><g
         id="g96"><g
           id="g98" /><g
           id="g108"><g
             clip-path="url(#clipPath102)"
             id="g106"><path
               d="M 106.233,57.6 H 57.6 v 10.364 h 48.633 z"
               style="fill:#000000;fill-opacity:1;fill-rule:nonzero;stroke:none"
               id="path104"
               inkscape:connector-curvature="0" /></g></g></g></g></g></g><g
   transform="translate(-640,320)"
   id="g5975"><rect
     style="fill:#ffde17"
     id="rect30"
     height="160"
     width="160"
     y="160.065"
     x="800" /><rect
     style="fill:#ffde17"
     id="rect38"
     height="160"
     width="160"
     y="160.065"
     x="960" /><g
     id="g1293"><g
       id="g328"
       transform="translate(14.736842,-1.0526316)"><g
         id="text1152"
         style="font-style:normal;font-weight:normal;font-size:14.66666698px;line-height:1.25;font-family:sans-serif;letter-spacing:2.75px;word-spacing:0px;fill:#000000;fill-opacity:1;stroke:none"
         aria-label="UN PROYECTO DE  COLABORACIÓN PARA LA CO-CONSTRUCCIÓN DE CIUDADES MÁS JUSTAS, EQUITATIVAS, SOLIDARIAS Y PARTICIPATIVAS"><path
           inkscape:connector-curvature="0"
           id="path5363"
           style="font-style:normal;font-variant:normal;font-weight:500;font-stretch:normal;font-size:14.66666698px;line-height:1.5;font-family:Poppins;-inkscape-font-specification:'Poppins Medium';letter-spacing:2.75px"
           d="m 826.96784,180.62503 v 6.49733 q 0,1.15867 0.60134,1.74533 0.616,0.58667 1.70133,0.58667 1.1,0 1.70133,-0.58667 0.616,-0.58666 0.616,-1.74533 v -6.49733 h 1.672 v 6.468 q 0,1.24666 -0.54266,2.112 -0.54267,0.86533 -1.452,1.29066 -0.90934,0.42534 -2.00934,0.42534 -1.1,0 -2.00933,-0.42534 -0.89467,-0.42533 -1.42267,-1.29066 -0.528,-0.86534 -0.528,-2.112 v -6.468 z" /><path
           inkscape:connector-curvature="0"
           id="path5365"
           style="font-style:normal;font-variant:normal;font-weight:500;font-stretch:normal;font-size:14.66666698px;line-height:1.5;font-family:Poppins;-inkscape-font-specification:'Poppins Medium';letter-spacing:2.75px"
           d="m 846.54716,190.81836 h -1.672 l -5.03067,-7.612 v 7.612 h -1.672 v -10.208 h 1.672 l 5.03067,7.59733 v -7.59733 h 1.672 z" /><path
           inkscape:connector-curvature="0"
           id="path5367"
           style="font-style:normal;font-variant:normal;font-weight:500;font-stretch:normal;font-size:14.66666698px;line-height:1.5;font-family:Poppins;-inkscape-font-specification:'Poppins Medium';letter-spacing:2.75px"
           d="m 865.1807,183.66103 q 0,0.77733 -0.36667,1.46666 -0.36667,0.68934 -1.17333,1.12934 -0.80667,0.42533 -2.068,0.42533 h -1.848 v 4.136 h -1.672 v -10.19333 h 3.52 q 1.17333,0 1.98,0.41066 0.82133,0.396 1.21733,1.08534 0.41067,0.68933 0.41067,1.54 z m -3.608,1.65733 q 0.95333,0 1.42266,-0.42533 0.46934,-0.44 0.46934,-1.232 0,-1.672 -1.892,-1.672 h -1.848 v 3.32933 z" /><path
           inkscape:connector-curvature="0"
           id="path5369"
           style="font-style:normal;font-variant:normal;font-weight:500;font-stretch:normal;font-size:14.66666698px;line-height:1.5;font-family:Poppins;-inkscape-font-specification:'Poppins Medium';letter-spacing:2.75px"
           d="m 874.83434,190.81836 -2.34666,-4.07733 h -1.276 v 4.07733 h -1.672 v -10.19333 h 3.52 q 1.17333,0 1.98,0.41066 0.82133,0.41067 1.21733,1.1 0.41067,0.68934 0.41067,1.54 0,0.99734 -0.58667,1.81867 -0.572,0.80667 -1.77467,1.1 l 2.52267,4.224 z m -3.62266,-5.412 h 1.848 q 0.93866,0 1.408,-0.46933 0.484,-0.46934 0.484,-1.26134 0,-0.792 -0.46934,-1.232 -0.46933,-0.45466 -1.42266,-0.45466 h -1.848 z" /><path
           inkscape:connector-curvature="0"
           id="path5371"
           style="font-style:normal;font-variant:normal;font-weight:500;font-stretch:normal;font-size:14.66666698px;line-height:1.5;font-family:Poppins;-inkscape-font-specification:'Poppins Medium';letter-spacing:2.75px"
           d="m 886.22026,190.92103 q -1.42267,0 -2.62533,-0.66 -1.188,-0.67467 -1.892,-1.86267 -0.68934,-1.20267 -0.68934,-2.69867 0,-1.496 0.68934,-2.684 0.704,-1.188 1.892,-1.848 1.20266,-0.67466 2.62533,-0.67466 1.43734,0 2.62534,0.67466 1.20266,0.66 1.892,1.848 0.68933,1.188 0.68933,2.684 0,1.496 -0.68933,2.69867 -0.68934,1.188 -1.892,1.86267 -1.188,0.66 -2.62534,0.66 z m 0,-1.452 q 1.012,0 1.804,-0.45467 0.792,-0.46933 1.232,-1.32 0.45467,-0.86533 0.45467,-1.99467 0,-1.12933 -0.45467,-1.98 -0.44,-0.85066 -1.232,-1.30533 -0.792,-0.45467 -1.804,-0.45467 -1.012,0 -1.804,0.45467 -0.792,0.45467 -1.24667,1.30533 -0.44,0.85067 -0.44,1.98 0,1.12934 0.44,1.99467 0.45467,0.85067 1.24667,1.32 0.792,0.45467 1.804,0.45467 z" /><path
           inkscape:connector-curvature="0"
           id="path5373"
           style="font-style:normal;font-variant:normal;font-weight:500;font-stretch:normal;font-size:14.66666698px;line-height:1.5;font-family:Poppins;-inkscape-font-specification:'Poppins Medium';letter-spacing:2.75px"
           d="m 903.36124,180.62503 -3.37333,6.49733 v 3.696 h -1.672 v -3.696 l -3.388,-6.49733 h 1.86267 l 2.36133,5.00133 2.36133,-5.00133 z" /><path
           inkscape:connector-curvature="0"
           id="path5375"
           style="font-style:normal;font-variant:normal;font-weight:500;font-stretch:normal;font-size:14.66666698px;line-height:1.5;font-family:Poppins;-inkscape-font-specification:'Poppins Medium';letter-spacing:2.75px"
           d="m 909.11012,181.97436 v 2.992 h 3.52 v 1.364 h -3.52 v 3.124 h 3.96 v 1.364 h -5.632 v -10.208 h 5.632 v 1.364 z" /><path
           inkscape:connector-curvature="0"
           id="path5377"
           style="font-style:normal;font-variant:normal;font-weight:500;font-stretch:normal;font-size:14.66666698px;line-height:1.5;font-family:Poppins;-inkscape-font-specification:'Poppins Medium';letter-spacing:2.75px"
           d="m 917.30786,185.69969 q 0,-1.496 0.68934,-2.684 0.704,-1.188 1.892,-1.848 1.20266,-0.67466 2.62533,-0.67466 1.628,0 2.88933,0.80666 1.276,0.792 1.848,2.25867 h -2.00933 q -0.396,-0.80667 -1.1,-1.20267 -0.704,-0.396 -1.628,-0.396 -1.012,0 -1.804,0.45467 -0.792,0.45467 -1.24667,1.30533 -0.44,0.85067 -0.44,1.98 0,1.12934 0.44,1.98 0.45467,0.85067 1.24667,1.32 0.792,0.45467 1.804,0.45467 0.924,0 1.628,-0.396 0.704,-0.396 1.1,-1.20267 h 2.00933 q -0.572,1.46667 -1.848,2.25867 -1.26133,0.792 -2.88933,0.792 -1.43733,0 -2.62533,-0.66 -1.188,-0.67467 -1.892,-1.86267 -0.68934,-1.188 -0.68934,-2.684 z" /><path
           inkscape:connector-curvature="0"
           id="path5379"
           style="font-style:normal;font-variant:normal;font-weight:500;font-stretch:normal;font-size:14.66666698px;line-height:1.5;font-family:Poppins;-inkscape-font-specification:'Poppins Medium';letter-spacing:2.75px"
           d="m 938.54428,180.62503 v 1.364 h -2.71333 v 8.82933 h -1.672 v -8.82933 h -2.728 v -1.364 z" /><path
           inkscape:connector-curvature="0"
           id="path5381"
           style="font-style:normal;font-variant:normal;font-weight:500;font-stretch:normal;font-size:14.66666698px;line-height:1.5;font-family:Poppins;-inkscape-font-specification:'Poppins Medium';letter-spacing:2.75px"
           d="m 947.63693,190.92103 q -1.42267,0 -2.62533,-0.66 -1.188,-0.67467 -1.892,-1.86267 -0.68934,-1.20267 -0.68934,-2.69867 0,-1.496 0.68934,-2.684 0.704,-1.188 1.892,-1.848 1.20266,-0.67466 2.62533,-0.67466 1.43733,0 2.62533,0.67466 1.20267,0.66 1.892,1.848 0.68934,1.188 0.68934,2.684 0,1.496 -0.68934,2.69867 -0.68933,1.188 -1.892,1.86267 -1.188,0.66 -2.62533,0.66 z m 0,-1.452 q 1.012,0 1.804,-0.45467 0.792,-0.46933 1.232,-1.32 0.45467,-0.86533 0.45467,-1.99467 0,-1.12933 -0.45467,-1.98 -0.44,-0.85066 -1.232,-1.30533 -0.792,-0.45467 -1.804,-0.45467 -1.012,0 -1.804,0.45467 -0.792,0.45467 -1.24667,1.30533 -0.44,0.85067 -0.44,1.98 0,1.12934 0.44,1.99467 0.45467,0.85067 1.24667,1.32 0.792,0.45467 1.804,0.45467 z" /><path
           inkscape:connector-curvature="0"
           id="path5383"
           style="font-style:normal;font-variant:normal;font-weight:500;font-stretch:normal;font-size:14.66666698px;line-height:1.5;font-family:Poppins;-inkscape-font-specification:'Poppins Medium';letter-spacing:2.75px"
           d="m 967.11381,180.62503 q 1.628,0 2.84534,0.63066 1.232,0.616 1.892,1.78934 0.67466,1.15866 0.67466,2.71333 0,1.55467 -0.67466,2.69867 -0.66,1.144 -1.892,1.76 -1.21734,0.60133 -2.84534,0.60133 h -3.32933 v -10.19333 z m 0,8.82933 q 1.78934,0 2.74267,-0.968 0.95333,-0.968 0.95333,-2.728 0,-1.77467 -0.95333,-2.772 -0.95333,-0.99733 -2.74267,-0.99733 h -1.65733 v 7.46533 z" /><path
           inkscape:connector-curvature="0"
           id="path5385"
           style="font-style:normal;font-variant:normal;font-weight:500;font-stretch:normal;font-size:14.66666698px;line-height:1.5;font-family:Poppins;-inkscape-font-specification:'Poppins Medium';letter-spacing:2.75px"
           d="m 978.60492,181.97436 v 2.992 h 3.52 v 1.364 h -3.52 v 3.124 h 3.96 v 1.364 h -5.632 v -10.208 h 5.632 v 1.364 z" /><path
           inkscape:connector-curvature="0"
           id="path5387"
           style="font-style:normal;font-variant:normal;font-weight:500;font-stretch:normal;font-size:14.66666698px;line-height:1.5;font-family:Poppins;-inkscape-font-specification:'Poppins Medium';letter-spacing:2.75px"
           d="m 824.75318,207.69969 q 0,-1.496 0.68933,-2.684 0.704,-1.188 1.892,-1.848 1.20267,-0.67466 2.62533,-0.67466 1.628,0 2.88934,0.80666 1.276,0.792 1.848,2.25867 h -2.00934 q -0.396,-0.80667 -1.1,-1.20267 -0.704,-0.396 -1.628,-0.396 -1.012,0 -1.804,0.45467 -0.792,0.45467 -1.24666,1.30533 -0.44,0.85067 -0.44,1.98 0,1.12934 0.44,1.98 0.45466,0.85067 1.24666,1.32 0.792,0.45467 1.804,0.45467 0.924,0 1.628,-0.396 0.704,-0.396 1.1,-1.20267 h 2.00934 q -0.572,1.46667 -1.848,2.25867 -1.26134,0.792 -2.88934,0.792 -1.43733,0 -2.62533,-0.66 -1.188,-0.67467 -1.892,-1.86267 -0.68933,-1.188 -0.68933,-2.684 z" /><path
           inkscape:connector-curvature="0"
           id="path5389"
           style="font-style:normal;font-variant:normal;font-weight:500;font-stretch:normal;font-size:14.66666698px;line-height:1.5;font-family:Poppins;-inkscape-font-specification:'Poppins Medium';letter-spacing:2.75px"
           d="m 844.05359,212.92103 q -1.42266,0 -2.62533,-0.66 -1.188,-0.67467 -1.892,-1.86267 -0.68933,-1.20267 -0.68933,-2.69867 0,-1.496 0.68933,-2.684 0.704,-1.188 1.892,-1.848 1.20267,-0.67466 2.62533,-0.67466 1.43734,0 2.62534,0.67466 1.20266,0.66 1.892,1.848 0.68933,1.188 0.68933,2.684 0,1.496 -0.68933,2.69867 -0.68934,1.188 -1.892,1.86267 -1.188,0.66 -2.62534,0.66 z m 0,-1.452 q 1.012,0 1.804,-0.45467 0.792,-0.46933 1.232,-1.32 0.45467,-0.86533 0.45467,-1.99467 0,-1.12933 -0.45467,-1.98 -0.44,-0.85066 -1.232,-1.30533 -0.792,-0.45467 -1.804,-0.45467 -1.012,0 -1.804,0.45467 -0.792,0.45467 -1.24666,1.30533 -0.44,0.85067 -0.44,1.98 0,1.12934 0.44,1.99467 0.45466,0.85067 1.24666,1.32 0.792,0.45467 1.804,0.45467 z" /><path
           inkscape:connector-curvature="0"
           id="path5391"
           style="font-style:normal;font-variant:normal;font-weight:500;font-stretch:normal;font-size:14.66666698px;line-height:1.5;font-family:Poppins;-inkscape-font-specification:'Poppins Medium';letter-spacing:2.75px"
           d="m 855.31324,211.46903 h 3.44667 v 1.34933 h -5.11867 v -10.19333 h 1.672 z" /><path
           inkscape:connector-curvature="0"
           id="path5393"
           style="font-style:normal;font-variant:normal;font-weight:500;font-stretch:normal;font-size:14.66666698px;line-height:1.5;font-family:Poppins;-inkscape-font-specification:'Poppins Medium';letter-spacing:2.75px"
           d="m 869.03918,210.73569 h -4.268 l -0.73333,2.08267 h -1.74534 l 3.652,-10.208 h 1.936 l 3.652,10.208 h -1.76 z m -0.46933,-1.364 -1.65734,-4.73733 -1.672,4.73733 z" /><path
           inkscape:connector-curvature="0"
           id="path5395"
           style="font-style:normal;font-variant:normal;font-weight:500;font-stretch:normal;font-size:14.66666698px;line-height:1.5;font-family:Poppins;-inkscape-font-specification:'Poppins Medium';letter-spacing:2.75px"
           d="m 881.32641,207.58236 q 0.82133,0.14667 1.39333,0.86533 0.572,0.71867 0.572,1.628 0,0.77734 -0.41066,1.408 -0.396,0.616 -1.15867,0.98267 -0.76267,0.352 -1.77467,0.352 h -4.07733 v -10.19333 h 3.88667 q 1.04133,0 1.78933,0.352 0.748,0.352 1.12933,0.95333 0.38134,0.58667 0.38134,1.32 0,0.88 -0.46934,1.46667 -0.46933,0.58666 -1.26133,0.86533 z m -3.784,-0.67467 h 2.068 q 0.82133,0 1.276,-0.36666 0.46933,-0.38134 0.46933,-1.08534 0,-0.68933 -0.46933,-1.07066 -0.45467,-0.396 -1.276,-0.396 h -2.068 z m 2.25867,4.54667 q 0.85066,0 1.33466,-0.41067 0.484,-0.41066 0.484,-1.144 0,-0.748 -0.51333,-1.188 -0.51333,-0.44 -1.364,-0.44 h -2.2 v 3.18267 z" /><path
           inkscape:connector-curvature="0"
           id="path5397"
           style="font-style:normal;font-variant:normal;font-weight:500;font-stretch:normal;font-size:14.66666698px;line-height:1.5;font-family:Poppins;-inkscape-font-specification:'Poppins Medium';letter-spacing:2.75px"
           d="m 892.52234,212.92103 q -1.42266,0 -2.62533,-0.66 -1.188,-0.67467 -1.892,-1.86267 -0.68933,-1.20267 -0.68933,-2.69867 0,-1.496 0.68933,-2.684 0.704,-1.188 1.892,-1.848 1.20267,-0.67466 2.62533,-0.67466 1.43734,0 2.62534,0.67466 1.20266,0.66 1.892,1.848 0.68933,1.188 0.68933,2.684 0,1.496 -0.68933,2.69867 -0.68934,1.188 -1.892,1.86267 -1.188,0.66 -2.62534,0.66 z m 0,-1.452 q 1.012,0 1.804,-0.45467 0.792,-0.46933 1.232,-1.32 0.45467,-0.86533 0.45467,-1.99467 0,-1.12933 -0.45467,-1.98 -0.44,-0.85066 -1.232,-1.30533 -0.792,-0.45467 -1.804,-0.45467 -1.012,0 -1.804,0.45467 -0.792,0.45467 -1.24666,1.30533 -0.44,0.85067 -0.44,1.98 0,1.12934 0.44,1.99467 0.45466,0.85067 1.24666,1.32 0.792,0.45467 1.804,0.45467 z" /><path
           inkscape:connector-curvature="0"
           id="path5399"
           style="font-style:normal;font-variant:normal;font-weight:500;font-stretch:normal;font-size:14.66666698px;line-height:1.5;font-family:Poppins;-inkscape-font-specification:'Poppins Medium';letter-spacing:2.75px"
           d="m 907.40466,212.81836 -2.34667,-4.07733 h -1.276 v 4.07733 h -1.672 v -10.19333 h 3.52 q 1.17334,0 1.98,0.41066 0.82134,0.41067 1.21734,1.1 0.41066,0.68934 0.41066,1.54 0,0.99734 -0.58666,1.81867 -0.572,0.80667 -1.77467,1.1 l 2.52267,4.224 z m -3.62267,-5.412 h 1.848 q 0.93867,0 1.408,-0.46933 0.484,-0.46934 0.484,-1.26134 0,-0.792 -0.46933,-1.232 -0.46933,-0.45466 -1.42267,-0.45466 h -1.848 z" /><path
           inkscape:connector-curvature="0"
           id="path5401"
           style="font-style:normal;font-variant:normal;font-weight:500;font-stretch:normal;font-size:14.66666698px;line-height:1.5;font-family:Poppins;-inkscape-font-specification:'Poppins Medium';letter-spacing:2.75px"
           d="m 920.28658,210.73569 h -4.268 l -0.73334,2.08267 h -1.74533 l 3.652,-10.208 h 1.936 l 3.652,10.208 h -1.76 z m -0.46934,-1.364 -1.65733,-4.73733 -1.672,4.73733 z" /><path
           inkscape:connector-curvature="0"
           id="path5403"
           style="font-style:normal;font-variant:normal;font-weight:500;font-stretch:normal;font-size:14.66666698px;line-height:1.5;font-family:Poppins;-inkscape-font-specification:'Poppins Medium';letter-spacing:2.75px"
           d="m 926.56047,207.69969 q 0,-1.496 0.68934,-2.684 0.704,-1.188 1.892,-1.848 1.20266,-0.67466 2.62533,-0.67466 1.628,0 2.88933,0.80666 1.276,0.792 1.848,2.25867 h -2.00933 q -0.396,-0.80667 -1.1,-1.20267 -0.704,-0.396 -1.628,-0.396 -1.012,0 -1.804,0.45467 -0.792,0.45467 -1.24667,1.30533 -0.44,0.85067 -0.44,1.98 0,1.12934 0.44,1.98 0.45467,0.85067 1.24667,1.32 0.792,0.45467 1.804,0.45467 0.924,0 1.628,-0.396 0.704,-0.396 1.1,-1.20267 h 2.00933 q -0.572,1.46667 -1.848,2.25867 -1.26133,0.792 -2.88933,0.792 -1.43733,0 -2.62533,-0.66 -1.188,-0.67467 -1.892,-1.86267 -0.68934,-1.188 -0.68934,-2.684 z" /><path
           inkscape:connector-curvature="0"
           id="path5405"
           style="font-style:normal;font-variant:normal;font-weight:500;font-stretch:normal;font-size:14.66666698px;line-height:1.5;font-family:Poppins;-inkscape-font-specification:'Poppins Medium';letter-spacing:2.75px"
           d="m 942.88356,202.62503 v 10.19333 h -1.672 v -10.19333 z" /><path
           inkscape:connector-curvature="0"
           id="path5407"
           style="font-style:normal;font-variant:normal;font-weight:500;font-stretch:normal;font-size:14.66666698px;line-height:1.5;font-family:Poppins;-inkscape-font-specification:'Poppins Medium';letter-spacing:2.75px"
           d="m 952.47808,212.92103 q -1.42267,0 -2.62534,-0.66 -1.188,-0.67467 -1.892,-1.86267 -0.68933,-1.20267 -0.68933,-2.69867 0,-1.496 0.68933,-2.684 0.704,-1.188 1.892,-1.848 1.20267,-0.67466 2.62534,-0.67466 1.43733,0 2.62533,0.67466 1.20267,0.66 1.892,1.848 0.68933,1.188 0.68933,2.684 0,1.496 -0.68933,2.69867 -0.68933,1.188 -1.892,1.86267 -1.188,0.66 -2.62533,0.66 z m 0,-1.452 q 1.012,0 1.804,-0.45467 0.792,-0.46933 1.232,-1.32 0.45466,-0.86533 0.45466,-1.99467 0,-1.12933 -0.45466,-1.98 -0.44,-0.85066 -1.232,-1.30533 -0.792,-0.45467 -1.804,-0.45467 -1.012,0 -1.804,0.45467 -0.792,0.45467 -1.24667,1.30533 -0.44,0.85067 -0.44,1.98 0,1.12934 0.44,1.99467 0.45467,0.85067 1.24667,1.32 0.792,0.45467 1.804,0.45467 z m 1.51066,-11.02934 -3.24133,1.59867 v -1.232 l 3.24133,-1.78933 z" /><path
           inkscape:connector-curvature="0"
           id="path5409"
           style="font-style:normal;font-variant:normal;font-weight:500;font-stretch:normal;font-size:14.66666698px;line-height:1.5;font-family:Poppins;-inkscape-font-specification:'Poppins Medium';letter-spacing:2.75px"
           d="m 970.44038,212.81836 h -1.672 l -5.03067,-7.612 v 7.612 h -1.672 v -10.208 h 1.672 l 5.03067,7.59733 v -7.59733 h 1.672 z" /><path
           inkscape:connector-curvature="0"
           id="path5411"
           style="font-style:normal;font-variant:normal;font-weight:500;font-stretch:normal;font-size:14.66666698px;line-height:1.5;font-family:Poppins;-inkscape-font-specification:'Poppins Medium';letter-spacing:2.75px"
           d="m 989.07393,205.66103 q 0,0.77733 -0.36666,1.46666 -0.36667,0.68934 -1.17334,1.12934 -0.80666,0.42533 -2.068,0.42533 h -1.848 v 4.136 h -1.672 v -10.19333 h 3.52 q 1.17334,0 1.98,0.41066 0.82134,0.396 1.21734,1.08534 0.41066,0.68933 0.41066,1.54 z m -3.608,1.65733 q 0.95334,0 1.42267,-0.42533 0.46933,-0.44 0.46933,-1.232 0,-1.672 -1.892,-1.672 h -1.848 v 3.32933 z" /><path
           inkscape:connector-curvature="0"
           id="path5413"
           style="font-style:normal;font-variant:normal;font-weight:500;font-stretch:normal;font-size:14.66666698px;line-height:1.5;font-family:Poppins;-inkscape-font-specification:'Poppins Medium';letter-spacing:2.75px"
           d="m 999.57823,210.73569 h -4.268 l -0.73333,2.08267 h -1.74533 l 3.652,-10.208 h 1.936 l 3.65203,10.208 h -1.76 z m -0.46933,-1.364 -1.65733,-4.73733 -1.672,4.73733 z" /><path
           inkscape:connector-curvature="0"
           id="path5415"
           style="font-style:normal;font-variant:normal;font-weight:500;font-stretch:normal;font-size:14.66666698px;line-height:1.5;font-family:Poppins;-inkscape-font-specification:'Poppins Medium';letter-spacing:2.75px"
           d="m 1011.7041,212.81836 -2.3466,-4.07733 h -1.276 v 4.07733 h -1.672 v -10.19333 h 3.52 q 1.1733,0 1.98,0.41066 0.8213,0.41067 1.2173,1.1 0.4107,0.68934 0.4107,1.54 0,0.99734 -0.5867,1.81867 -0.572,0.80667 -1.7747,1.1 l 2.5227,4.224 z m -3.6226,-5.412 h 1.848 q 0.9386,0 1.408,-0.46933 0.484,-0.46934 0.484,-1.26134 0,-0.792 -0.4694,-1.232 -0.4693,-0.45466 -1.4226,-0.45466 h -1.848 z" /><path
           inkscape:connector-curvature="0"
           id="path5417"
           style="font-style:normal;font-variant:normal;font-weight:500;font-stretch:normal;font-size:14.66666698px;line-height:1.5;font-family:Poppins;-inkscape-font-specification:'Poppins Medium';letter-spacing:2.75px"
           d="m 1024.586,210.73569 h -4.268 l -0.7333,2.08267 h -1.7453 l 3.652,-10.208 h 1.936 l 3.652,10.208 h -1.76 z m -0.4693,-1.364 -1.6573,-4.73733 -1.672,4.73733 z" /><path
           inkscape:connector-curvature="0"
           id="path5419"
           style="font-style:normal;font-variant:normal;font-weight:500;font-stretch:normal;font-size:14.66666698px;line-height:1.5;font-family:Poppins;-inkscape-font-specification:'Poppins Medium';letter-spacing:2.75px"
           d="m 1039.6492,211.46903 h 3.4466 v 1.34933 h -5.1186 v -10.19333 h 1.672 z" /><path
           inkscape:connector-curvature="0"
           id="path5421"
           style="font-style:normal;font-variant:normal;font-weight:500;font-stretch:normal;font-size:14.66666698px;line-height:1.5;font-family:Poppins;-inkscape-font-specification:'Poppins Medium';letter-spacing:2.75px"
           d="m 1053.3751,210.73569 h -4.268 l -0.7333,2.08267 h -1.7453 l 3.652,-10.208 h 1.936 l 3.652,10.208 h -1.76 z m -0.4693,-1.364 -1.6573,-4.73733 -1.672,4.73733 z" /><path
           inkscape:connector-curvature="0"
           id="path5423"
           style="font-style:normal;font-variant:normal;font-weight:500;font-stretch:normal;font-size:14.66666698px;line-height:1.5;font-family:Poppins;-inkscape-font-specification:'Poppins Medium';letter-spacing:2.75px"
           d="m 824.75318,229.69969 q 0,-1.496 0.68933,-2.684 0.704,-1.188 1.892,-1.848 1.20267,-0.67466 2.62533,-0.67466 1.628,0 2.88934,0.80666 1.276,0.792 1.848,2.25867 h -2.00934 q -0.396,-0.80667 -1.1,-1.20267 -0.704,-0.396 -1.628,-0.396 -1.012,0 -1.804,0.45467 -0.792,0.45467 -1.24666,1.30533 -0.44,0.85067 -0.44,1.98 0,1.12934 0.44,1.98 0.45466,0.85067 1.24666,1.32 0.792,0.45467 1.804,0.45467 0.924,0 1.628,-0.396 0.704,-0.396 1.1,-1.20267 h 2.00934 q -0.572,1.46667 -1.848,2.25867 -1.26134,0.792 -2.88934,0.792 -1.43733,0 -2.62533,-0.66 -1.188,-0.67467 -1.892,-1.86267 -0.68933,-1.188 -0.68933,-2.684 z" /><path
           inkscape:connector-curvature="0"
           id="path5425"
           style="font-style:normal;font-variant:normal;font-weight:500;font-stretch:normal;font-size:14.66666698px;line-height:1.5;font-family:Poppins;-inkscape-font-specification:'Poppins Medium';letter-spacing:2.75px"
           d="m 844.05359,234.92103 q -1.42266,0 -2.62533,-0.66 -1.188,-0.67467 -1.892,-1.86267 -0.68933,-1.20267 -0.68933,-2.69867 0,-1.496 0.68933,-2.684 0.704,-1.188 1.892,-1.848 1.20267,-0.67466 2.62533,-0.67466 1.43734,0 2.62534,0.67466 1.20266,0.66 1.892,1.848 0.68933,1.188 0.68933,2.684 0,1.496 -0.68933,2.69867 -0.68934,1.188 -1.892,1.86267 -1.188,0.66 -2.62534,0.66 z m 0,-1.452 q 1.012,0 1.804,-0.45467 0.792,-0.46933 1.232,-1.32 0.45467,-0.86533 0.45467,-1.99467 0,-1.12933 -0.45467,-1.98 -0.44,-0.85066 -1.232,-1.30533 -0.792,-0.45467 -1.804,-0.45467 -1.012,0 -1.804,0.45467 -0.792,0.45467 -1.24666,1.30533 -0.44,0.85067 -0.44,1.98 0,1.12934 0.44,1.99467 0.45466,0.85067 1.24666,1.32 0.792,0.45467 1.804,0.45467 z" /><path
           inkscape:connector-curvature="0"
           id="path5427"
           style="font-style:normal;font-variant:normal;font-weight:500;font-stretch:normal;font-size:14.66666698px;line-height:1.5;font-family:Poppins;-inkscape-font-specification:'Poppins Medium';letter-spacing:2.75px"
           d="m 859.84524,228.80503 v 1.408 h -6.028 v -1.408 z" /><path
           inkscape:connector-curvature="0"
           id="path5429"
           style="font-style:normal;font-variant:normal;font-weight:500;font-stretch:normal;font-size:14.66666698px;line-height:1.5;font-family:Poppins;-inkscape-font-specification:'Poppins Medium';letter-spacing:2.75px"
           d="m 864.42766,229.69969 q 0,-1.496 0.68933,-2.684 0.704,-1.188 1.892,-1.848 1.20267,-0.67466 2.62533,-0.67466 1.628,0 2.88934,0.80666 1.276,0.792 1.848,2.25867 h -2.00934 q -0.396,-0.80667 -1.1,-1.20267 -0.704,-0.396 -1.628,-0.396 -1.012,0 -1.804,0.45467 -0.792,0.45467 -1.24666,1.30533 -0.44,0.85067 -0.44,1.98 0,1.12934 0.44,1.98 0.45466,0.85067 1.24666,1.32 0.792,0.45467 1.804,0.45467 0.924,0 1.628,-0.396 0.704,-0.396 1.1,-1.20267 h 2.00934 q -0.572,1.46667 -1.848,2.25867 -1.26134,0.792 -2.88934,0.792 -1.43733,0 -2.62533,-0.66 -1.188,-0.67467 -1.892,-1.86267 -0.68933,-1.188 -0.68933,-2.684 z" /><path
           inkscape:connector-curvature="0"
           id="path5431"
           style="font-style:normal;font-variant:normal;font-weight:500;font-stretch:normal;font-size:14.66666698px;line-height:1.5;font-family:Poppins;-inkscape-font-specification:'Poppins Medium';letter-spacing:2.75px"
           d="m 883.72807,234.92103 q -1.42266,0 -2.62533,-0.66 -1.188,-0.67467 -1.892,-1.86267 -0.68933,-1.20267 -0.68933,-2.69867 0,-1.496 0.68933,-2.684 0.704,-1.188 1.892,-1.848 1.20267,-0.67466 2.62533,-0.67466 1.43734,0 2.62534,0.67466 1.20266,0.66 1.892,1.848 0.68933,1.188 0.68933,2.684 0,1.496 -0.68933,2.69867 -0.68934,1.188 -1.892,1.86267 -1.188,0.66 -2.62534,0.66 z m 0,-1.452 q 1.012,0 1.804,-0.45467 0.792,-0.46933 1.232,-1.32 0.45467,-0.86533 0.45467,-1.99467 0,-1.12933 -0.45467,-1.98 -0.44,-0.85066 -1.232,-1.30533 -0.792,-0.45467 -1.804,-0.45467 -1.012,0 -1.804,0.45467 -0.792,0.45467 -1.24666,1.30533 -0.44,0.85067 -0.44,1.98 0,1.12934 0.44,1.99467 0.45466,0.85067 1.24666,1.32 0.792,0.45467 1.804,0.45467 z" /><path
           inkscape:connector-curvature="0"
           id="path5433"
           style="font-style:normal;font-variant:normal;font-weight:500;font-stretch:normal;font-size:14.66666698px;line-height:1.5;font-family:Poppins;-inkscape-font-specification:'Poppins Medium';letter-spacing:2.75px"
           d="m 901.69039,234.81836 h -1.672 l -5.03067,-7.612 v 7.612 h -1.672 v -10.208 h 1.672 l 5.03067,7.59733 v -7.59733 h 1.672 z" /><path
           inkscape:connector-curvature="0"
           id="path5435"
           style="font-style:normal;font-variant:normal;font-weight:500;font-stretch:normal;font-size:14.66666698px;line-height:1.5;font-family:Poppins;-inkscape-font-specification:'Poppins Medium';letter-spacing:2.75px"
           d="m 909.9947,234.92103 q -1.02667,0 -1.848,-0.352 -0.82133,-0.36667 -1.29067,-1.02667 -0.46933,-0.66 -0.46933,-1.54 h 1.78933 q 0.0587,0.66 0.51334,1.08533 0.46933,0.42534 1.30533,0.42534 0.86533,0 1.34933,-0.41067 0.484,-0.42533 0.484,-1.08533 0,-0.51334 -0.308,-0.836 -0.29333,-0.32267 -0.748,-0.49867 -0.44,-0.176 -1.232,-0.38133 -0.99733,-0.264 -1.628,-0.528 -0.616,-0.27867 -1.056,-0.85067 -0.44,-0.572 -0.44,-1.52533 0,-0.88 0.44,-1.54 0.44,-0.66 1.232,-1.012 0.792,-0.352 1.83334,-0.352 1.48133,0 2.42,0.748 0.95333,0.73333 1.056,2.024 h -1.848 q -0.044,-0.55734 -0.528,-0.95334 -0.484,-0.396 -1.276,-0.396 -0.71867,0 -1.17334,0.36667 -0.45466,0.36667 -0.45466,1.056 0,0.46933 0.27866,0.77733 0.29334,0.29334 0.73334,0.46934 0.44,0.176 1.20266,0.38133 1.012,0.27867 1.64267,0.55733 0.64533,0.27867 1.08533,0.86534 0.45467,0.572 0.45467,1.54 0,0.77733 -0.42533,1.46666 -0.41067,0.68934 -1.21734,1.11467 -0.792,0.41067 -1.87733,0.41067 z" /><path
           inkscape:connector-curvature="0"
           id="path5437"
           style="font-style:normal;font-variant:normal;font-weight:500;font-stretch:normal;font-size:14.66666698px;line-height:1.5;font-family:Poppins;-inkscape-font-specification:'Poppins Medium';letter-spacing:2.75px"
           d="m 924.82293,224.62503 v 1.364 h -2.71333 v 8.82933 h -1.672 v -8.82933 h -2.728 v -1.364 z" /><path
           inkscape:connector-curvature="0"
           id="path5439"
           style="font-style:normal;font-variant:normal;font-weight:500;font-stretch:normal;font-size:14.66666698px;line-height:1.5;font-family:Poppins;-inkscape-font-specification:'Poppins Medium';letter-spacing:2.75px"
           d="m 934.56091,234.81836 -2.34667,-4.07733 h -1.276 v 4.07733 h -1.672 v -10.19333 h 3.52 q 1.17334,0 1.98,0.41066 0.82134,0.41067 1.21734,1.1 0.41066,0.68934 0.41066,1.54 0,0.99734 -0.58666,1.81867 -0.572,0.80667 -1.77467,1.1 l 2.52267,4.224 z m -3.62267,-5.412 h 1.848 q 0.93867,0 1.408,-0.46933 0.484,-0.46934 0.484,-1.26134 0,-0.792 -0.46933,-1.232 -0.46933,-0.45466 -1.42267,-0.45466 h -1.848 z" /><path
           inkscape:connector-curvature="0"
           id="path5441"
           style="font-style:normal;font-variant:normal;font-weight:500;font-stretch:normal;font-size:14.66666698px;line-height:1.5;font-family:Poppins;-inkscape-font-specification:'Poppins Medium';letter-spacing:2.75px"
           d="m 942.95483,224.62503 v 6.49733 q 0,1.15867 0.60133,1.74533 0.616,0.58667 1.70133,0.58667 1.1,0 1.70134,-0.58667 0.616,-0.58666 0.616,-1.74533 v -6.49733 h 1.672 v 6.468 q 0,1.24666 -0.54267,2.112 -0.54267,0.86533 -1.452,1.29066 -0.90933,0.42534 -2.00933,0.42534 -1.1,0 -2.00934,-0.42534 -0.89466,-0.42533 -1.42266,-1.29066 -0.528,-0.86534 -0.528,-2.112 v -6.468 z" /><path
           inkscape:connector-curvature="0"
           id="path5443"
           style="font-style:normal;font-variant:normal;font-weight:500;font-stretch:normal;font-size:14.66666698px;line-height:1.5;font-family:Poppins;-inkscape-font-specification:'Poppins Medium';letter-spacing:2.75px"
           d="m 953.60213,229.69969 q 0,-1.496 0.68933,-2.684 0.704,-1.188 1.892,-1.848 1.20267,-0.67466 2.62534,-0.67466 1.628,0 2.88933,0.80666 1.276,0.792 1.848,2.25867 h -2.00933 q -0.396,-0.80667 -1.1,-1.20267 -0.704,-0.396 -1.628,-0.396 -1.012,0 -1.804,0.45467 -0.792,0.45467 -1.24667,1.30533 -0.44,0.85067 -0.44,1.98 0,1.12934 0.44,1.98 0.45467,0.85067 1.24667,1.32 0.792,0.45467 1.804,0.45467 0.924,0 1.628,-0.396 0.704,-0.396 1.1,-1.20267 h 2.00933 q -0.572,1.46667 -1.848,2.25867 -1.26133,0.792 -2.88933,0.792 -1.43734,0 -2.62534,-0.66 -1.188,-0.67467 -1.892,-1.86267 -0.68933,-1.188 -0.68933,-2.684 z" /><path
           inkscape:connector-curvature="0"
           id="path5445"
           style="font-style:normal;font-variant:normal;font-weight:500;font-stretch:normal;font-size:14.66666698px;line-height:1.5;font-family:Poppins;-inkscape-font-specification:'Poppins Medium';letter-spacing:2.75px"
           d="m 967.69588,229.69969 q 0,-1.496 0.68933,-2.684 0.704,-1.188 1.892,-1.848 1.20267,-0.67466 2.62534,-0.67466 1.628,0 2.88933,0.80666 1.276,0.792 1.848,2.25867 h -2.00933 q -0.396,-0.80667 -1.1,-1.20267 -0.704,-0.396 -1.628,-0.396 -1.012,0 -1.804,0.45467 -0.792,0.45467 -1.24667,1.30533 -0.44,0.85067 -0.44,1.98 0,1.12934 0.44,1.98 0.45467,0.85067 1.24667,1.32 0.792,0.45467 1.804,0.45467 0.924,0 1.628,-0.396 0.704,-0.396 1.1,-1.20267 h 2.00933 q -0.572,1.46667 -1.848,2.25867 -1.26133,0.792 -2.88933,0.792 -1.43734,0 -2.62534,-0.66 -1.188,-0.67467 -1.892,-1.86267 -0.68933,-1.188 -0.68933,-2.684 z" /><path
           inkscape:connector-curvature="0"
           id="path5447"
           style="font-style:normal;font-variant:normal;font-weight:500;font-stretch:normal;font-size:14.66666698px;line-height:1.5;font-family:Poppins;-inkscape-font-specification:'Poppins Medium';letter-spacing:2.75px"
           d="m 984.01896,224.62503 v 10.19333 h -1.672 v -10.19333 z" /><path
           inkscape:connector-curvature="0"
           id="path5449"
           style="font-style:normal;font-variant:normal;font-weight:500;font-stretch:normal;font-size:14.66666698px;line-height:1.5;font-family:Poppins;-inkscape-font-specification:'Poppins Medium';letter-spacing:2.75px"
           d="m 993.61348,234.92103 q -1.42266,0 -2.62533,-0.66 -1.188,-0.67467 -1.892,-1.86267 -0.68933,-1.20267 -0.68933,-2.69867 0,-1.496 0.68933,-2.684 0.704,-1.188 1.892,-1.848 1.20267,-0.67466 2.62533,-0.67466 1.43734,0 2.62534,0.67466 1.20266,0.66 1.892,1.848 0.68933,1.188 0.68933,2.684 0,1.496 -0.68933,2.69867 -0.68934,1.188 -1.892,1.86267 -1.188,0.66 -2.62534,0.66 z m 0,-1.452 q 1.012,0 1.804,-0.45467 0.792,-0.46933 1.232,-1.32 0.45467,-0.86533 0.45467,-1.99467 0,-1.12933 -0.45467,-1.98 -0.44,-0.85066 -1.232,-1.30533 -0.792,-0.45467 -1.804,-0.45467 -1.012,0 -1.804,0.45467 -0.792,0.45467 -1.24666,1.30533 -0.44,0.85067 -0.44,1.98 0,1.12934 0.44,1.99467 0.45466,0.85067 1.24666,1.32 0.792,0.45467 1.804,0.45467 z m 1.51067,-11.02934 -3.24133,1.59867 v -1.232 l 3.24133,-1.78933 z" /><path
           inkscape:connector-curvature="0"
           id="path5451"
           style="font-style:normal;font-variant:normal;font-weight:500;font-stretch:normal;font-size:14.66666698px;line-height:1.5;font-family:Poppins;-inkscape-font-specification:'Poppins Medium';letter-spacing:2.75px"
           d="m 1011.5758,234.81836 h -1.672 l -5.0307,-7.612 v 7.612 h -1.672 v -10.208 h 1.672 l 5.0307,7.59733 v -7.59733 h 1.672 z" /><path
           inkscape:connector-curvature="0"
           id="path5453"
           style="font-style:normal;font-variant:normal;font-weight:500;font-stretch:normal;font-size:14.66666698px;line-height:1.5;font-family:Poppins;-inkscape-font-specification:'Poppins Medium';letter-spacing:2.75px"
           d="m 1026.4107,224.62503 q 1.628,0 2.8453,0.63066 1.232,0.616 1.892,1.78934 0.6747,1.15866 0.6747,2.71333 0,1.55467 -0.6747,2.69867 -0.66,1.144 -1.892,1.76 -1.2173,0.60133 -2.8453,0.60133 h -3.3294 v -10.19333 z m 0,8.82933 q 1.7893,0 2.7426,-0.968 0.9534,-0.968 0.9534,-2.728 0,-1.77467 -0.9534,-2.772 -0.9533,-0.99733 -2.7426,-0.99733 h -1.6574 v 7.46533 z" /><path
           inkscape:connector-curvature="0"
           id="path5455"
           style="font-style:normal;font-variant:normal;font-weight:500;font-stretch:normal;font-size:14.66666698px;line-height:1.5;font-family:Poppins;-inkscape-font-specification:'Poppins Medium';letter-spacing:2.75px"
           d="m 1037.9018,225.97436 v 2.992 h 3.52 v 1.364 h -3.52 v 3.124 h 3.96 v 1.364 h -5.632 v -10.208 h 5.632 v 1.364 z" /><path
           inkscape:connector-curvature="0"
           id="path5457"
           style="font-style:normal;font-variant:normal;font-weight:500;font-stretch:normal;font-size:14.66666698px;line-height:1.5;font-family:Poppins;-inkscape-font-specification:'Poppins Medium';letter-spacing:2.75px"
           d="m 824.75318,251.69969 q 0,-1.496 0.68933,-2.684 0.704,-1.188 1.892,-1.848 1.20267,-0.67466 2.62533,-0.67466 1.628,0 2.88934,0.80666 1.276,0.792 1.848,2.25867 h -2.00934 q -0.396,-0.80667 -1.1,-1.20267 -0.704,-0.396 -1.628,-0.396 -1.012,0 -1.804,0.45467 -0.792,0.45467 -1.24666,1.30533 -0.44,0.85067 -0.44,1.98 0,1.12934 0.44,1.98 0.45466,0.85067 1.24666,1.32 0.792,0.45467 1.804,0.45467 0.924,0 1.628,-0.396 0.704,-0.396 1.1,-1.20267 h 2.00934 q -0.572,1.46667 -1.848,2.25867 -1.26134,0.792 -2.88934,0.792 -1.43733,0 -2.62533,-0.66 -1.188,-0.67467 -1.892,-1.86267 -0.68933,-1.188 -0.68933,-2.684 z" /><path
           inkscape:connector-curvature="0"
           id="path5459"
           style="font-style:normal;font-variant:normal;font-weight:500;font-stretch:normal;font-size:14.66666698px;line-height:1.5;font-family:Poppins;-inkscape-font-specification:'Poppins Medium';letter-spacing:2.75px"
           d="m 841.07626,246.62503 v 10.19333 h -1.672 v -10.19333 z" /><path
           inkscape:connector-curvature="0"
           id="path5461"
           style="font-style:normal;font-variant:normal;font-weight:500;font-stretch:normal;font-size:14.66666698px;line-height:1.5;font-family:Poppins;-inkscape-font-specification:'Poppins Medium';letter-spacing:2.75px"
           d="m 847.67878,246.62503 v 6.49733 q 0,1.15867 0.60133,1.74533 0.616,0.58667 1.70134,0.58667 1.1,0 1.70133,-0.58667 0.616,-0.58666 0.616,-1.74533 v -6.49733 h 1.672 v 6.468 q 0,1.24666 -0.54267,2.112 -0.54266,0.86533 -1.452,1.29066 -0.90933,0.42534 -2.00933,0.42534 -1.1,0 -2.00933,-0.42534 -0.89467,-0.42533 -1.42267,-1.29066 -0.528,-0.86534 -0.528,-2.112 v -6.468 z" /><path
           inkscape:connector-curvature="0"
           id="path5463"
           style="font-style:normal;font-variant:normal;font-weight:500;font-stretch:normal;font-size:14.66666698px;line-height:1.5;font-family:Poppins;-inkscape-font-specification:'Poppins Medium';letter-spacing:2.75px"
           d="m 862.21276,246.62503 q 1.628,0 2.84534,0.63066 1.232,0.616 1.892,1.78934 0.67466,1.15866 0.67466,2.71333 0,1.55467 -0.67466,2.69867 -0.66,1.144 -1.892,1.76 -1.21734,0.60133 -2.84534,0.60133 h -3.32933 v -10.19333 z m 0,8.82933 q 1.78933,0 2.74267,-0.968 0.95333,-0.968 0.95333,-2.728 0,-1.77467 -0.95333,-2.772 -0.95334,-0.99733 -2.74267,-0.99733 h -1.65733 v 7.46533 z" /><path
           inkscape:connector-curvature="0"
           id="path5465"
           style="font-style:normal;font-variant:normal;font-weight:500;font-stretch:normal;font-size:14.66666698px;line-height:1.5;font-family:Poppins;-inkscape-font-specification:'Poppins Medium';letter-spacing:2.75px"
           d="m 878.1772,254.73569 h -4.268 l -0.73333,2.08267 h -1.74534 l 3.652,-10.208 h 1.936 l 3.652,10.208 h -1.76 z m -0.46933,-1.364 -1.65734,-4.73733 -1.672,4.73733 z" /><path
           inkscape:connector-curvature="0"
           id="path5467"
           style="font-style:normal;font-variant:normal;font-weight:500;font-stretch:normal;font-size:14.66666698px;line-height:1.5;font-family:Poppins;-inkscape-font-specification:'Poppins Medium';letter-spacing:2.75px"
           d="m 888.33776,246.62503 q 1.628,0 2.84534,0.63066 1.232,0.616 1.892,1.78934 0.67466,1.15866 0.67466,2.71333 0,1.55467 -0.67466,2.69867 -0.66,1.144 -1.892,1.76 -1.21734,0.60133 -2.84534,0.60133 h -3.32933 v -10.19333 z m 0,8.82933 q 1.78933,0 2.74267,-0.968 0.95333,-0.968 0.95333,-2.728 0,-1.77467 -0.95333,-2.772 -0.95334,-0.99733 -2.74267,-0.99733 h -1.65733 v 7.46533 z" /><path
           inkscape:connector-curvature="0"
           id="path5469"
           style="font-style:normal;font-variant:normal;font-weight:500;font-stretch:normal;font-size:14.66666698px;line-height:1.5;font-family:Poppins;-inkscape-font-specification:'Poppins Medium';letter-spacing:2.75px"
           d="m 899.82886,247.97436 v 2.992 h 3.52 v 1.364 h -3.52 v 3.124 h 3.96 v 1.364 h -5.632 v -10.208 h 5.632 v 1.364 z" /><path
           inkscape:connector-curvature="0"
           id="path5471"
           style="font-style:normal;font-variant:normal;font-weight:500;font-stretch:normal;font-size:14.66666698px;line-height:1.5;font-family:Poppins;-inkscape-font-specification:'Poppins Medium';letter-spacing:2.75px"
           d="m 911.94261,256.92103 q -1.02666,0 -1.848,-0.352 -0.82133,-0.36667 -1.29066,-1.02667 -0.46934,-0.66 -0.46934,-1.54 h 1.78934 q 0.0587,0.66 0.51333,1.08533 0.46933,0.42534 1.30533,0.42534 0.86534,0 1.34934,-0.41067 0.484,-0.42533 0.484,-1.08533 0,-0.51334 -0.308,-0.836 -0.29334,-0.32267 -0.748,-0.49867 -0.44,-0.176 -1.232,-0.38133 -0.99734,-0.264 -1.628,-0.528 -0.616,-0.27867 -1.056,-0.85067 -0.44,-0.572 -0.44,-1.52533 0,-0.88 0.44,-1.54 0.44,-0.66 1.232,-1.012 0.792,-0.352 1.83333,-0.352 1.48133,0 2.42,0.748 0.95333,0.73333 1.056,2.024 h -1.848 q -0.044,-0.55734 -0.528,-0.95334 -0.484,-0.396 -1.276,-0.396 -0.71867,0 -1.17333,0.36667 -0.45467,0.36667 -0.45467,1.056 0,0.46933 0.27867,0.77733 0.29333,0.29334 0.73333,0.46934 0.44,0.176 1.20267,0.38133 1.012,0.27867 1.64266,0.55733 0.64534,0.27867 1.08534,0.86534 0.45466,0.572 0.45466,1.54 0,0.77733 -0.42533,1.46666 -0.41067,0.68934 -1.21733,1.11467 -0.792,0.41067 -1.87734,0.41067 z" /><path
           inkscape:connector-curvature="0"
           id="path5473"
           style="font-style:normal;font-variant:normal;font-weight:500;font-stretch:normal;font-size:14.66666698px;line-height:1.5;font-family:Poppins;-inkscape-font-specification:'Poppins Medium';letter-spacing:2.75px"
           d="m 937.48141,246.62503 v 10.19333 h -1.672 v -6.98133 l -3.10933,6.98133 h -1.15867 l -3.124,-6.98133 v 6.98133 h -1.672 v -10.19333 h 1.804 l 3.57867,7.99333 3.564,-7.99333 z" /><path
           inkscape:connector-curvature="0"
           id="path5475"
           style="font-style:normal;font-variant:normal;font-weight:500;font-stretch:normal;font-size:14.66666698px;line-height:1.5;font-family:Poppins;-inkscape-font-specification:'Poppins Medium';letter-spacing:2.75px"
           d="m 948.58866,254.73569 h -4.268 l -0.73334,2.08267 h -1.74533 l 3.652,-10.208 h 1.936 l 3.652,10.208 h -1.76 z m -0.46934,-1.364 -1.65733,-4.73733 -1.672,4.73733 z m -0.14666,-8.932 -3.24134,1.59867 v -1.232 l 3.24134,-1.78933 z" /><path
           inkscape:connector-curvature="0"
           id="path5477"
           style="font-style:normal;font-variant:normal;font-weight:500;font-stretch:normal;font-size:14.66666698px;line-height:1.5;font-family:Poppins;-inkscape-font-specification:'Poppins Medium';letter-spacing:2.75px"
           d="m 958.77855,256.92103 q -1.02666,0 -1.848,-0.352 -0.82133,-0.36667 -1.29066,-1.02667 -0.46934,-0.66 -0.46934,-1.54 h 1.78934 q 0.0587,0.66 0.51333,1.08533 0.46933,0.42534 1.30533,0.42534 0.86534,0 1.34934,-0.41067 0.484,-0.42533 0.484,-1.08533 0,-0.51334 -0.308,-0.836 -0.29334,-0.32267 -0.748,-0.49867 -0.44,-0.176 -1.232,-0.38133 -0.99734,-0.264 -1.628,-0.528 -0.616,-0.27867 -1.056,-0.85067 -0.44,-0.572 -0.44,-1.52533 0,-0.88 0.44,-1.54 0.44,-0.66 1.232,-1.012 0.792,-0.352 1.83333,-0.352 1.48133,0 2.42,0.748 0.95333,0.73333 1.056,2.024 h -1.848 q -0.044,-0.55734 -0.528,-0.95334 -0.484,-0.396 -1.276,-0.396 -0.71867,0 -1.17333,0.36667 -0.45467,0.36667 -0.45467,1.056 0,0.46933 0.27867,0.77733 0.29333,0.29334 0.73333,0.46934 0.44,0.176 1.20267,0.38133 1.012,0.27867 1.64266,0.55733 0.64534,0.27867 1.08534,0.86534 0.45466,0.572 0.45466,1.54 0,0.77733 -0.42533,1.46666 -0.41067,0.68934 -1.21733,1.11467 -0.792,0.41067 -1.87734,0.41067 z" /><path
           inkscape:connector-curvature="0"
           id="path5479"
           style="font-style:normal;font-variant:normal;font-weight:500;font-stretch:normal;font-size:14.66666698px;line-height:1.5;font-family:Poppins;-inkscape-font-specification:'Poppins Medium';letter-spacing:2.75px"
           d="m 979.14001,246.62503 v 7.348 q 0,1.364 -0.836,2.156 -0.82134,0.792 -2.17067,0.792 -1.34933,0 -2.18533,-0.792 -0.82134,-0.792 -0.82134,-2.156 h 1.68667 q 0.0147,0.67466 0.33733,1.07066 0.33734,0.396 0.98267,0.396 0.64533,0 0.98267,-0.396 0.33733,-0.41066 0.33733,-1.07066 v -7.348 z" /><path
           inkscape:connector-curvature="0"
           id="path5481"
           style="font-style:normal;font-variant:normal;font-weight:500;font-stretch:normal;font-size:14.66666698px;line-height:1.5;font-family:Poppins;-inkscape-font-specification:'Poppins Medium';letter-spacing:2.75px"
           d="m 986.26733,246.62503 v 6.49733 q 0,1.15867 0.60133,1.74533 0.616,0.58667 1.70133,0.58667 1.1,0 1.70134,-0.58667 0.616,-0.58666 0.616,-1.74533 v -6.49733 h 1.672 v 6.468 q 0,1.24666 -0.54267,2.112 -0.54267,0.86533 -1.452,1.29066 -0.90933,0.42534 -2.00933,0.42534 -1.1,0 -2.00934,-0.42534 -0.89466,-0.42533 -1.42266,-1.29066 -0.528,-0.86534 -0.528,-2.112 v -6.468 z" /><path
           inkscape:connector-curvature="0"
           id="path5483"
           style="font-style:normal;font-variant:normal;font-weight:500;font-stretch:normal;font-size:14.66666698px;line-height:1.5;font-family:Poppins;-inkscape-font-specification:'Poppins Medium';letter-spacing:2.75px"
           d="m 1000.8306,256.92103 q -1.02664,0 -1.84797,-0.352 -0.82133,-0.36667 -1.29067,-1.02667 -0.46933,-0.66 -0.46933,-1.54 h 1.78933 q 0.0587,0.66 0.51334,1.08533 0.46933,0.42534 1.3053,0.42534 0.8654,0 1.3494,-0.41067 0.484,-0.42533 0.484,-1.08533 0,-0.51334 -0.308,-0.836 -0.2934,-0.32267 -0.748,-0.49867 -0.44,-0.176 -1.232,-0.38133 -0.99737,-0.264 -1.62804,-0.528 -0.616,-0.27867 -1.056,-0.85067 -0.44,-0.572 -0.44,-1.52533 0,-0.88 0.44,-1.54 0.44,-0.66 1.232,-1.012 0.792,-0.352 1.83334,-0.352 1.4813,0 2.42,0.748 0.9533,0.73333 1.056,2.024 h -1.848 q -0.044,-0.55734 -0.528,-0.95334 -0.484,-0.396 -1.276,-0.396 -0.71867,0 -1.17334,0.36667 -0.45466,0.36667 -0.45466,1.056 0,0.46933 0.27866,0.77733 0.29334,0.29334 0.73334,0.46934 0.44,0.176 1.2027,0.38133 1.012,0.27867 1.6426,0.55733 0.6454,0.27867 1.0854,0.86534 0.4546,0.572 0.4546,1.54 0,0.77733 -0.4253,1.46666 -0.4107,0.68934 -1.2173,1.11467 -0.792,0.41067 -1.8774,0.41067 z" /><path
           inkscape:connector-curvature="0"
           id="path5485"
           style="font-style:normal;font-variant:normal;font-weight:500;font-stretch:normal;font-size:14.66666698px;line-height:1.5;font-family:Poppins;-inkscape-font-specification:'Poppins Medium';letter-spacing:2.75px"
           d="m 1015.6589,246.62503 v 1.364 h -2.7134 v 8.82933 h -1.672 v -8.82933 h -2.728 v -1.364 z" /><path
           inkscape:connector-curvature="0"
           id="path5487"
           style="font-style:normal;font-variant:normal;font-weight:500;font-stretch:normal;font-size:14.66666698px;line-height:1.5;font-family:Poppins;-inkscape-font-specification:'Poppins Medium';letter-spacing:2.75px"
           d="m 1026.2475,254.73569 h -4.268 l -0.7333,2.08267 h -1.7454 l 3.652,-10.208 h 1.936 l 3.652,10.208 h -1.76 z m -0.4693,-1.364 -1.6574,-4.73733 -1.672,4.73733 z" /><path
           inkscape:connector-curvature="0"
           id="path5489"
           style="font-style:normal;font-variant:normal;font-weight:500;font-stretch:normal;font-size:14.66666698px;line-height:1.5;font-family:Poppins;-inkscape-font-specification:'Poppins Medium';letter-spacing:2.75px"
           d="m 1036.4374,256.92103 q -1.0267,0 -1.848,-0.352 -0.8213,-0.36667 -1.2907,-1.02667 -0.4693,-0.66 -0.4693,-1.54 h 1.7893 q 0.059,0.66 0.5134,1.08533 0.4693,0.42534 1.3053,0.42534 0.8653,0 1.3493,-0.41067 0.484,-0.42533 0.484,-1.08533 0,-0.51334 -0.308,-0.836 -0.2933,-0.32267 -0.748,-0.49867 -0.44,-0.176 -1.232,-0.38133 -0.9973,-0.264 -1.628,-0.528 -0.616,-0.27867 -1.056,-0.85067 -0.44,-0.572 -0.44,-1.52533 0,-0.88 0.44,-1.54 0.44,-0.66 1.232,-1.012 0.792,-0.352 1.8334,-0.352 1.4813,0 2.42,0.748 0.9533,0.73333 1.056,2.024 h -1.848 q -0.044,-0.55734 -0.528,-0.95334 -0.484,-0.396 -1.276,-0.396 -0.7187,0 -1.1734,0.36667 -0.4546,0.36667 -0.4546,1.056 0,0.46933 0.2786,0.77733 0.2934,0.29334 0.7334,0.46934 0.44,0.176 1.2026,0.38133 1.012,0.27867 1.6427,0.55733 0.6453,0.27867 1.0853,0.86534 0.4547,0.572 0.4547,1.54 0,0.77733 -0.4253,1.46666 -0.4107,0.68934 -1.2174,1.11467 -0.792,0.41067 -1.8773,0.41067 z" /><path
           inkscape:connector-curvature="0"
           id="path5491"
           style="font-style:normal;font-variant:normal;font-weight:500;font-stretch:normal;font-size:14.66666698px;line-height:1.5;font-family:Poppins;-inkscape-font-specification:'Poppins Medium';letter-spacing:2.75px"
           d="m 1046.5136,254.80903 -1.7746,4.048 h -1.0854 l 1.0414,-4.048 z" /><path
           inkscape:connector-curvature="0"
           id="path5493"
           style="font-style:normal;font-variant:normal;font-weight:500;font-stretch:normal;font-size:14.66666698px;line-height:1.5;font-family:Poppins;-inkscape-font-specification:'Poppins Medium';letter-spacing:2.75px"
           d="m 826.98251,269.97436 v 2.992 h 3.52 v 1.364 h -3.52 v 3.124 h 3.96 v 1.364 h -5.632 v -10.208 h 5.632 v 1.364 z" /><path
           inkscape:connector-curvature="0"
           id="path5495"
           style="font-style:normal;font-variant:normal;font-weight:500;font-stretch:normal;font-size:14.66666698px;line-height:1.5;font-family:Poppins;-inkscape-font-specification:'Poppins Medium';letter-spacing:2.75px"
           d="m 843.62826,280.66636 -1.78933,-1.936 q -0.66,0.19067 -1.452,0.19067 -1.42267,0 -2.62534,-0.66 -1.188,-0.67467 -1.892,-1.86267 -0.68933,-1.20267 -0.68933,-2.69867 0,-1.496 0.68933,-2.684 0.704,-1.188 1.892,-1.848 1.20267,-0.67466 2.62534,-0.67466 1.43733,0 2.62533,0.67466 1.20267,0.66 1.892,1.848 0.68933,1.188 0.68933,2.684 0,1.408 -0.616,2.552 -0.60133,1.12934 -1.672,1.81867 l 2.44934,2.596 z m -6.732,-6.96667 q 0,1.12934 0.44,1.99467 0.45467,0.85067 1.24667,1.32 0.792,0.45467 1.804,0.45467 1.012,0 1.804,-0.45467 0.792,-0.46933 1.232,-1.32 0.45466,-0.86533 0.45466,-1.99467 0,-1.12933 -0.45466,-1.98 -0.44,-0.85066 -1.232,-1.30533 -0.792,-0.45467 -1.804,-0.45467 -1.012,0 -1.804,0.45467 -0.792,0.45467 -1.24667,1.30533 -0.44,0.85067 -0.44,1.98 z" /><path
           inkscape:connector-curvature="0"
           id="path5497"
           style="font-style:normal;font-variant:normal;font-weight:500;font-stretch:normal;font-size:14.66666698px;line-height:1.5;font-family:Poppins;-inkscape-font-specification:'Poppins Medium';letter-spacing:2.75px"
           d="m 851.6892,268.62503 v 6.49733 q 0,1.15867 0.60133,1.74533 0.616,0.58667 1.70134,0.58667 1.1,0 1.70133,-0.58667 0.616,-0.58666 0.616,-1.74533 v -6.49733 h 1.672 v 6.468 q 0,1.24666 -0.54267,2.112 -0.54266,0.86533 -1.452,1.29066 -0.90933,0.42534 -2.00933,0.42534 -1.1,0 -2.00933,-0.42534 -0.89467,-0.42533 -1.42267,-1.29066 -0.528,-0.86534 -0.528,-2.112 v -6.468 z" /><path
           inkscape:connector-curvature="0"
           id="path5499"
           style="font-style:normal;font-variant:normal;font-weight:500;font-stretch:normal;font-size:14.66666698px;line-height:1.5;font-family:Poppins;-inkscape-font-specification:'Poppins Medium';letter-spacing:2.75px"
           d="m 864.56585,268.62503 v 10.19333 h -1.672 v -10.19333 z" /><path
           inkscape:connector-curvature="0"
           id="path5501"
           style="font-style:normal;font-variant:normal;font-weight:500;font-stretch:normal;font-size:14.66666698px;line-height:1.5;font-family:Poppins;-inkscape-font-specification:'Poppins Medium';letter-spacing:2.75px"
           d="m 876.09637,268.62503 v 1.364 h -2.71334 v 8.82933 h -1.672 v -8.82933 h -2.728 v -1.364 z" /><path
           inkscape:connector-curvature="0"
           id="path5503"
           style="font-style:normal;font-variant:normal;font-weight:500;font-stretch:normal;font-size:14.66666698px;line-height:1.5;font-family:Poppins;-inkscape-font-specification:'Poppins Medium';letter-spacing:2.75px"
           d="m 886.68501,276.73569 h -4.268 l -0.73333,2.08267 h -1.74534 l 3.652,-10.208 h 1.936 l 3.65201,10.208 h -1.76 z m -0.46933,-1.364 -1.65734,-4.73733 -1.672,4.73733 z" /><path
           inkscape:connector-curvature="0"
           id="path5505"
           style="font-style:normal;font-variant:normal;font-weight:500;font-stretch:normal;font-size:14.66666698px;line-height:1.5;font-family:Poppins;-inkscape-font-specification:'Poppins Medium';letter-spacing:2.75px"
           d="m 900.10158,268.62503 v 1.364 h -2.71334 v 8.82933 h -1.672 v -8.82933 h -2.728 v -1.364 z" /><path
           inkscape:connector-curvature="0"
           id="path5507"
           style="font-style:normal;font-variant:normal;font-weight:500;font-stretch:normal;font-size:14.66666698px;line-height:1.5;font-family:Poppins;-inkscape-font-specification:'Poppins Medium';letter-spacing:2.75px"
           d="m 906.21689,268.62503 v 10.19333 h -1.672 v -10.19333 z" /><path
           inkscape:connector-curvature="0"
           id="path5509"
           style="font-style:normal;font-variant:normal;font-weight:500;font-stretch:normal;font-size:14.66666698px;line-height:1.5;font-family:Poppins;-inkscape-font-specification:'Poppins Medium';letter-spacing:2.75px"
           d="m 919.94741,268.62503 -3.828,10.19333 h -1.936 l -3.84267,-10.19333 h 1.78933 l 3.02134,8.47733 3.036,-8.47733 z" /><path
           inkscape:connector-curvature="0"
           id="path5511"
           style="font-style:normal;font-variant:normal;font-weight:500;font-stretch:normal;font-size:14.66666698px;line-height:1.5;font-family:Poppins;-inkscape-font-specification:'Poppins Medium';letter-spacing:2.75px"
           d="m 930.22668,276.73569 h -4.268 l -0.73333,2.08267 h -1.74534 l 3.652,-10.208 h 1.936 l 3.652,10.208 h -1.76 z m -0.46933,-1.364 -1.65734,-4.73733 -1.672,4.73733 z" /><path
           inkscape:connector-curvature="0"
           id="path5513"
           style="font-style:normal;font-variant:normal;font-weight:500;font-stretch:normal;font-size:14.66666698px;line-height:1.5;font-family:Poppins;-inkscape-font-specification:'Poppins Medium';letter-spacing:2.75px"
           d="m 940.41658,278.92103 q -1.02667,0 -1.848,-0.352 -0.82134,-0.36667 -1.29067,-1.02667 -0.46933,-0.66 -0.46933,-1.54 h 1.78933 q 0.0587,0.66 0.51333,1.08533 0.46934,0.42534 1.30534,0.42534 0.86533,0 1.34933,-0.41067 0.484,-0.42533 0.484,-1.08533 0,-0.51334 -0.308,-0.836 -0.29333,-0.32267 -0.748,-0.49867 -0.44,-0.176 -1.232,-0.38133 -0.99733,-0.264 -1.628,-0.528 -0.616,-0.27867 -1.056,-0.85067 -0.44,-0.572 -0.44,-1.52533 0,-0.88 0.44,-1.54 0.44,-0.66 1.232,-1.012 0.792,-0.352 1.83333,-0.352 1.48134,0 2.42,0.748 0.95334,0.73333 1.056,2.024 h -1.848 q -0.044,-0.55734 -0.528,-0.95334 -0.484,-0.396 -1.276,-0.396 -0.71866,0 -1.17333,0.36667 -0.45467,0.36667 -0.45467,1.056 0,0.46933 0.27867,0.77733 0.29333,0.29334 0.73333,0.46934 0.44,0.176 1.20267,0.38133 1.012,0.27867 1.64267,0.55733 0.64533,0.27867 1.08533,0.86534 0.45467,0.572 0.45467,1.54 0,0.77733 -0.42534,1.46666 -0.41066,0.68934 -1.21733,1.11467 -0.792,0.41067 -1.87733,0.41067 z" /><path
           inkscape:connector-curvature="0"
           id="path5515"
           style="font-style:normal;font-variant:normal;font-weight:500;font-stretch:normal;font-size:14.66666698px;line-height:1.5;font-family:Poppins;-inkscape-font-specification:'Poppins Medium';letter-spacing:2.75px"
           d="m 950.4928,276.80903 -1.77466,4.048 h -1.08534 l 1.04134,-4.048 z" /><path
           inkscape:connector-curvature="0"
           id="path5517"
           style="font-style:normal;font-variant:normal;font-weight:500;font-stretch:normal;font-size:14.66666698px;line-height:1.5;font-family:Poppins;-inkscape-font-specification:'Poppins Medium';letter-spacing:2.75px"
           d="m 964.6223,278.92103 q -1.02666,0 -1.848,-0.352 -0.82133,-0.36667 -1.29066,-1.02667 -0.46934,-0.66 -0.46934,-1.54 h 1.78934 q 0.0587,0.66 0.51333,1.08533 0.46933,0.42534 1.30533,0.42534 0.86534,0 1.34934,-0.41067 0.484,-0.42533 0.484,-1.08533 0,-0.51334 -0.308,-0.836 -0.29334,-0.32267 -0.748,-0.49867 -0.44,-0.176 -1.232,-0.38133 -0.99734,-0.264 -1.628,-0.528 -0.616,-0.27867 -1.056,-0.85067 -0.44,-0.572 -0.44,-1.52533 0,-0.88 0.44,-1.54 0.44,-0.66 1.232,-1.012 0.792,-0.352 1.83333,-0.352 1.48133,0 2.42,0.748 0.95333,0.73333 1.056,2.024 h -1.848 q -0.044,-0.55734 -0.528,-0.95334 -0.484,-0.396 -1.276,-0.396 -0.71867,0 -1.17333,0.36667 -0.45467,0.36667 -0.45467,1.056 0,0.46933 0.27867,0.77733 0.29333,0.29334 0.73333,0.46934 0.44,0.176 1.20267,0.38133 1.012,0.27867 1.64266,0.55733 0.64534,0.27867 1.08534,0.86534 0.45466,0.572 0.45466,1.54 0,0.77733 -0.42533,1.46666 -0.41067,0.68934 -1.21733,1.11467 -0.792,0.41067 -1.87734,0.41067 z" /><path
           inkscape:connector-curvature="0"
           id="path5519"
           style="font-style:normal;font-variant:normal;font-weight:500;font-stretch:normal;font-size:14.66666698px;line-height:1.5;font-family:Poppins;-inkscape-font-specification:'Poppins Medium';letter-spacing:2.75px"
           d="m 977.51453,278.92103 q -1.42267,0 -2.62533,-0.66 -1.188,-0.67467 -1.892,-1.86267 -0.68934,-1.20267 -0.68934,-2.69867 0,-1.496 0.68934,-2.684 0.704,-1.188 1.892,-1.848 1.20266,-0.67466 2.62533,-0.67466 1.43733,0 2.62533,0.67466 1.20267,0.66 1.892,1.848 0.68934,1.188 0.68934,2.684 0,1.496 -0.68934,2.69867 -0.68933,1.188 -1.892,1.86267 -1.188,0.66 -2.62533,0.66 z m 0,-1.452 q 1.012,0 1.804,-0.45467 0.792,-0.46933 1.232,-1.32 0.45467,-0.86533 0.45467,-1.99467 0,-1.12933 -0.45467,-1.98 -0.44,-0.85066 -1.232,-1.30533 -0.792,-0.45467 -1.804,-0.45467 -1.012,0 -1.804,0.45467 -0.792,0.45467 -1.24667,1.30533 -0.44,0.85067 -0.44,1.98 0,1.12934 0.44,1.99467 0.45467,0.85067 1.24667,1.32 0.792,0.45467 1.804,0.45467 z" /><path
           inkscape:connector-curvature="0"
           id="path5521"
           style="font-style:normal;font-variant:normal;font-weight:500;font-stretch:normal;font-size:14.66666698px;line-height:1.5;font-family:Poppins;-inkscape-font-specification:'Poppins Medium';letter-spacing:2.75px"
           d="m 988.77418,277.46903 h 3.44667 v 1.34933 h -5.11867 v -10.19333 h 1.672 z" /><path
           inkscape:connector-curvature="0"
           id="path5523"
           style="font-style:normal;font-variant:normal;font-weight:500;font-stretch:normal;font-size:14.66666698px;line-height:1.5;font-family:Poppins;-inkscape-font-specification:'Poppins Medium';letter-spacing:2.75px"
           d="m 998.02679,268.62503 v 10.19333 h -1.672 v -10.19333 z" /><path
           inkscape:connector-curvature="0"
           id="path5525"
           style="font-style:normal;font-variant:normal;font-weight:500;font-stretch:normal;font-size:14.66666698px;line-height:1.5;font-family:Poppins;-inkscape-font-specification:'Poppins Medium';letter-spacing:2.75px"
           d="m 1006.3013,268.62503 q 1.628,0 2.8453,0.63066 1.232,0.616 1.892,1.78934 0.6747,1.15866 0.6747,2.71333 0,1.55467 -0.6747,2.69867 -0.66,1.144 -1.892,1.76 -1.2173,0.60133 -2.8453,0.60133 h -3.3293 v -10.19333 z m 0,8.82933 q 1.7893,0 2.7427,-0.968 0.9533,-0.968 0.9533,-2.728 0,-1.77467 -0.9533,-2.772 -0.9534,-0.99733 -2.7427,-0.99733 h -1.6573 v 7.46533 z" /><path
           inkscape:connector-curvature="0"
           id="path5527"
           style="font-style:normal;font-variant:normal;font-weight:500;font-stretch:normal;font-size:14.66666698px;line-height:1.5;font-family:Poppins;-inkscape-font-specification:'Poppins Medium';letter-spacing:2.75px"
           d="m 1022.2657,276.73569 h -4.268 l -0.7333,2.08267 h -1.7453 l 3.652,-10.208 h 1.936 l 3.652,10.208 h -1.76 z m -0.4693,-1.364 -1.6573,-4.73733 -1.672,4.73733 z" /><path
           inkscape:connector-curvature="0"
           id="path5529"
           style="font-style:normal;font-variant:normal;font-weight:500;font-stretch:normal;font-size:14.66666698px;line-height:1.5;font-family:Poppins;-inkscape-font-specification:'Poppins Medium';letter-spacing:2.75px"
           d="m 1034.3916,278.81836 -2.3466,-4.07733 h -1.276 v 4.07733 h -1.672 v -10.19333 h 3.52 q 1.1733,0 1.98,0.41066 0.8213,0.41067 1.2173,1.1 0.4107,0.68934 0.4107,1.54 0,0.99734 -0.5867,1.81867 -0.572,0.80667 -1.7747,1.1 l 2.5227,4.224 z m -3.6226,-5.412 h 1.848 q 0.9386,0 1.408,-0.46933 0.484,-0.46934 0.484,-1.26134 0,-0.792 -0.4694,-1.232 -0.4693,-0.45466 -1.4226,-0.45466 h -1.848 z" /><path
           inkscape:connector-curvature="0"
           id="path5531"
           style="font-style:normal;font-variant:normal;font-weight:500;font-stretch:normal;font-size:14.66666698px;line-height:1.5;font-family:Poppins;-inkscape-font-specification:'Poppins Medium';letter-spacing:2.75px"
           d="m 1042.8002,268.62503 v 10.19333 h -1.672 v -10.19333 z" /><path
           inkscape:connector-curvature="0"
           id="path5533"
           style="font-style:normal;font-variant:normal;font-weight:500;font-stretch:normal;font-size:14.66666698px;line-height:1.5;font-family:Poppins;-inkscape-font-specification:'Poppins Medium';letter-spacing:2.75px"
           d="m 1053.8907,276.73569 h -4.268 l -0.7333,2.08267 h -1.7453 l 3.652,-10.208 h 1.936 l 3.652,10.208 h -1.76 z m -0.4693,-1.364 -1.6573,-4.73733 -1.672,4.73733 z" /><path
           inkscape:connector-curvature="0"
           id="path5535"
           style="font-style:normal;font-variant:normal;font-weight:500;font-stretch:normal;font-size:14.66666698px;line-height:1.5;font-family:Poppins;-inkscape-font-specification:'Poppins Medium';letter-spacing:2.75px"
           d="m 1064.0806,278.92103 q -1.0266,0 -1.848,-0.352 -0.8213,-0.36667 -1.2906,-1.02667 -0.4694,-0.66 -0.4694,-1.54 h 1.7894 q 0.059,0.66 0.5133,1.08533 0.4693,0.42534 1.3053,0.42534 0.8654,0 1.3494,-0.41067 0.484,-0.42533 0.484,-1.08533 0,-0.51334 -0.308,-0.836 -0.2934,-0.32267 -0.748,-0.49867 -0.44,-0.176 -1.232,-0.38133 -0.9974,-0.264 -1.628,-0.528 -0.616,-0.27867 -1.056,-0.85067 -0.44,-0.572 -0.44,-1.52533 0,-0.88 0.44,-1.54 0.44,-0.66 1.232,-1.012 0.792,-0.352 1.8333,-0.352 1.4813,0 2.42,0.748 0.9533,0.73333 1.056,2.024 h -1.848 q -0.044,-0.55734 -0.528,-0.95334 -0.484,-0.396 -1.276,-0.396 -0.7187,0 -1.1733,0.36667 -0.4547,0.36667 -0.4547,1.056 0,0.46933 0.2787,0.77733 0.2933,0.29334 0.7333,0.46934 0.44,0.176 1.2027,0.38133 1.012,0.27867 1.6426,0.55733 0.6454,0.27867 1.0854,0.86534 0.4546,0.572 0.4546,1.54 0,0.77733 -0.4253,1.46666 -0.4107,0.68934 -1.2173,1.11467 -0.792,0.41067 -1.8774,0.41067 z" /><path
           inkscape:connector-curvature="0"
           id="path5537"
           style="font-style:normal;font-variant:normal;font-weight:500;font-stretch:normal;font-size:14.66666698px;line-height:1.5;font-family:Poppins;-inkscape-font-specification:'Poppins Medium';letter-spacing:2.75px"
           d="m 832.86384,290.62503 -3.37333,6.49733 v 3.696 h -1.672 v -3.696 l -3.388,-6.49733 h 1.86267 l 2.36133,5.00133 2.36133,-5.00133 z" /><path
           inkscape:connector-curvature="0"
           id="path5539"
           style="font-style:normal;font-variant:normal;font-weight:500;font-stretch:normal;font-size:14.66666698px;line-height:1.5;font-family:Poppins;-inkscape-font-specification:'Poppins Medium';letter-spacing:2.75px"
           d="m 850.62862,293.66103 q 0,0.77733 -0.36667,1.46666 -0.36667,0.68934 -1.17333,1.12934 -0.80667,0.42533 -2.068,0.42533 h -1.848 v 4.136 h -1.672 v -10.19333 h 3.52 q 1.17333,0 1.98,0.41066 0.82133,0.396 1.21733,1.08534 0.41067,0.68933 0.41067,1.54 z m -3.608,1.65733 q 0.95333,0 1.42266,-0.42533 0.46934,-0.44 0.46934,-1.232 0,-1.672 -1.892,-1.672 h -1.848 v 3.32933 z" /><path
           inkscape:connector-curvature="0"
           id="path5541"
           style="font-style:normal;font-variant:normal;font-weight:500;font-stretch:normal;font-size:14.66666698px;line-height:1.5;font-family:Poppins;-inkscape-font-specification:'Poppins Medium';letter-spacing:2.75px"
           d="m 861.13293,298.7357 h -4.268 l -0.73334,2.08266 h -1.74533 l 3.652,-10.208 h 1.936 l 3.652,10.208 h -1.76 z m -0.46934,-1.364 -1.65733,-4.73734 -1.672,4.73734 z" /><path
           inkscape:connector-curvature="0"
           id="path5543"
           style="font-style:normal;font-variant:normal;font-weight:500;font-stretch:normal;font-size:14.66666698px;line-height:1.5;font-family:Poppins;-inkscape-font-specification:'Poppins Medium';letter-spacing:2.75px"
           d="m 873.25883,300.81836 -2.34667,-4.07733 h -1.276 v 4.07733 h -1.672 v -10.19333 h 3.52 q 1.17333,0 1.98,0.41066 0.82133,0.41067 1.21733,1.1 0.41067,0.68934 0.41067,1.54 0,0.99734 -0.58667,1.81867 -0.572,0.80667 -1.77466,1.1 l 2.52266,4.224 z m -3.62267,-5.412 h 1.848 q 0.93867,0 1.408,-0.46933 0.484,-0.46934 0.484,-1.26134 0,-0.792 -0.46933,-1.232 -0.46934,-0.45466 -1.42267,-0.45466 h -1.848 z" /><path
           inkscape:connector-curvature="0"
           id="path5545"
           style="font-style:normal;font-variant:normal;font-weight:500;font-stretch:normal;font-size:14.66666698px;line-height:1.5;font-family:Poppins;-inkscape-font-specification:'Poppins Medium';letter-spacing:2.75px"
           d="m 886.58074,290.62503 v 1.364 h -2.71333 v 8.82933 h -1.672 v -8.82933 h -2.728 v -1.364 z" /><path
           inkscape:connector-curvature="0"
           id="path5547"
           style="font-style:normal;font-variant:normal;font-weight:500;font-stretch:normal;font-size:14.66666698px;line-height:1.5;font-family:Poppins;-inkscape-font-specification:'Poppins Medium';letter-spacing:2.75px"
           d="m 892.69606,290.62503 v 10.19333 h -1.672 v -10.19333 z" /><path
           inkscape:connector-curvature="0"
           id="path5549"
           style="font-style:normal;font-variant:normal;font-weight:500;font-stretch:normal;font-size:14.66666698px;line-height:1.5;font-family:Poppins;-inkscape-font-specification:'Poppins Medium';letter-spacing:2.75px"
           d="m 897.08391,295.69969 q 0,-1.496 0.68933,-2.684 0.704,-1.188 1.892,-1.848 1.20267,-0.67466 2.62534,-0.67466 1.628,0 2.88933,0.80666 1.276,0.792 1.848,2.25867 h -2.00933 q -0.396,-0.80667 -1.1,-1.20267 -0.704,-0.396 -1.628,-0.396 -1.012,0 -1.804,0.45467 -0.792,0.45467 -1.24667,1.30533 -0.44,0.85067 -0.44,1.98 0,1.12934 0.44,1.98001 0.45467,0.85066 1.24667,1.32 0.792,0.45466 1.804,0.45466 0.924,0 1.628,-0.396 0.704,-0.396 1.1,-1.20266 h 2.00933 q -0.572,1.46666 -1.848,2.25866 -1.26133,0.792 -2.88933,0.792 -1.43734,0 -2.62534,-0.66 -1.188,-0.67466 -1.892,-1.86266 -0.68933,-1.188 -0.68933,-2.68401 z" /><path
           inkscape:connector-curvature="0"
           id="path5551"
           style="font-style:normal;font-variant:normal;font-weight:500;font-stretch:normal;font-size:14.66666698px;line-height:1.5;font-family:Poppins;-inkscape-font-specification:'Poppins Medium';letter-spacing:2.75px"
           d="m 913.40699,290.62503 v 10.19333 h -1.672 v -10.19333 z" /><path
           inkscape:connector-curvature="0"
           id="path5553"
           style="font-style:normal;font-variant:normal;font-weight:500;font-stretch:normal;font-size:14.66666698px;line-height:1.5;font-family:Poppins;-inkscape-font-specification:'Poppins Medium';letter-spacing:2.75px"
           d="m 925.48018,293.66103 q 0,0.77733 -0.36666,1.46666 -0.36667,0.68934 -1.17334,1.12934 -0.80666,0.42533 -2.068,0.42533 h -1.848 v 4.136 h -1.672 v -10.19333 h 3.52 q 1.17334,0 1.98,0.41066 0.82134,0.396 1.21734,1.08534 0.41066,0.68933 0.41066,1.54 z m -3.608,1.65733 q 0.95334,0 1.42267,-0.42533 0.46933,-0.44 0.46933,-1.232 0,-1.672 -1.892,-1.672 h -1.848 v 3.32933 z" /><path
           inkscape:connector-curvature="0"
           id="path5555"
           style="font-style:normal;font-variant:normal;font-weight:500;font-stretch:normal;font-size:14.66666698px;line-height:1.5;font-family:Poppins;-inkscape-font-specification:'Poppins Medium';letter-spacing:2.75px"
           d="m 935.98449,298.7357 h -4.268 l -0.73333,2.08266 h -1.74533 l 3.652,-10.208 h 1.936 l 3.652,10.208 h -1.76 z m -0.46933,-1.364 -1.65733,-4.73734 -1.672,4.73734 z" /><path
           inkscape:connector-curvature="0"
           id="path5557"
           style="font-style:normal;font-variant:normal;font-weight:500;font-stretch:normal;font-size:14.66666698px;line-height:1.5;font-family:Poppins;-inkscape-font-specification:'Poppins Medium';letter-spacing:2.75px"
           d="m 949.40105,290.62503 v 1.364 h -2.71333 v 8.82933 h -1.672 v -8.82933 h -2.728 v -1.364 z" /><path
           inkscape:connector-curvature="0"
           id="path5559"
           style="font-style:normal;font-variant:normal;font-weight:500;font-stretch:normal;font-size:14.66666698px;line-height:1.5;font-family:Poppins;-inkscape-font-specification:'Poppins Medium';letter-spacing:2.75px"
           d="m 955.51637,290.62503 v 10.19333 h -1.672 v -10.19333 z" /><path
           inkscape:connector-curvature="0"
           id="path5561"
           style="font-style:normal;font-variant:normal;font-weight:500;font-stretch:normal;font-size:14.66666698px;line-height:1.5;font-family:Poppins;-inkscape-font-specification:'Poppins Medium';letter-spacing:2.75px"
           d="m 969.24689,290.62503 -3.828,10.19333 h -1.936 l -3.84267,-10.19333 h 1.78934 l 3.02133,8.47733 3.036,-8.47733 z" /><path
           inkscape:connector-curvature="0"
           id="path5563"
           style="font-style:normal;font-variant:normal;font-weight:500;font-stretch:normal;font-size:14.66666698px;line-height:1.5;font-family:Poppins;-inkscape-font-specification:'Poppins Medium';letter-spacing:2.75px"
           d="m 979.52616,298.7357 h -4.268 l -0.73334,2.08266 h -1.74533 l 3.652,-10.208 h 1.936 l 3.652,10.208 h -1.76 z m -0.46934,-1.364 -1.65733,-4.73734 -1.672,4.73734 z" /><path
           inkscape:connector-curvature="0"
           id="path5565"
           style="font-style:normal;font-variant:normal;font-weight:500;font-stretch:normal;font-size:14.66666698px;line-height:1.5;font-family:Poppins;-inkscape-font-specification:'Poppins Medium';letter-spacing:2.75px"
           d="m 989.71605,300.92103 q -1.02666,0 -1.848,-0.352 -0.82133,-0.36667 -1.29066,-1.02667 -0.46934,-0.66 -0.46934,-1.54 h 1.78934 q 0.0587,0.66 0.51333,1.08534 0.46933,0.42533 1.30533,0.42533 0.86534,0 1.34934,-0.41067 0.484,-0.42533 0.484,-1.08533 0,-0.51333 -0.308,-0.836 -0.29334,-0.32267 -0.748,-0.49867 -0.44,-0.176 -1.232,-0.38133 -0.99734,-0.264 -1.628,-0.528 -0.616,-0.27867 -1.056,-0.85067 -0.44,-0.572 -0.44,-1.52533 0,-0.88 0.44,-1.54 0.44,-0.66 1.232,-1.012 0.792,-0.352 1.83333,-0.352 1.48133,0 2.42,0.748 0.95333,0.73333 1.056,2.024 h -1.848 q -0.044,-0.55734 -0.528,-0.95334 -0.484,-0.396 -1.276,-0.396 -0.71867,0 -1.17333,0.36667 -0.45467,0.36667 -0.45467,1.056 0,0.46933 0.27867,0.77733 0.29333,0.29334 0.73333,0.46934 0.44,0.176 1.20267,0.38133 1.012,0.27867 1.64266,0.55733 0.64534,0.27867 1.08534,0.86534 0.45466,0.572 0.45466,1.54 0,0.77733 -0.42533,1.46667 -0.41067,0.68933 -1.21733,1.11466 -0.792,0.41067 -1.87734,0.41067 z" /></g><g
         id="flowRoot1156"
         style="font-style:normal;font-weight:normal;font-size:40px;line-height:1.25;font-family:sans-serif;letter-spacing:0px;word-spacing:0px;fill:#000000;fill-opacity:1;stroke:none" /></g></g></g></svg>