<?xml version="1.0" encoding="UTF-8" standalone="no"?>
<!-- Created with Inkscape (http://www.inkscape.org/) -->

<svg
   xmlns:dc="http://purl.org/dc/elements/1.1/"
   xmlns:cc="http://creativecommons.org/ns#"
   xmlns:rdf="http://www.w3.org/1999/02/22-rdf-syntax-ns#"
   xmlns:svg="http://www.w3.org/2000/svg"
   xmlns="http://www.w3.org/2000/svg"
   xmlns:sodipodi="http://sodipodi.sourceforge.net/DTD/sodipodi-0.dtd"
   xmlns:inkscape="http://www.inkscape.org/namespaces/inkscape"
   viewBox="0 0 369.21247 86.180879"
   version="1.1"
   id="svg2798"
   inkscape:version="0.92.3 (2405546, 2018-03-11)"
   sodipodi:docname="cc-incubadora-same.svg">
  <defs
     id="defs2792">
    <clipPath
       clipPathUnits="userSpaceOnUse"
       id="clipPath382">
      <path
         d="m 217.51,318.651 h 41.511 V 309.79 H 217.51 Z"
         id="path380"
         inkscape:connector-curvature="0" />
    </clipPath>
    <clipPath
       clipPathUnits="userSpaceOnUse"
       id="clipPath366">
      <path
         d="m 215.469,382.949 h 46.262 v -50.216 h -46.262 z"
         id="path364"
         inkscape:connector-curvature="0" />
    </clipPath>
  </defs>
  <sodipodi:namedview
     id="base"
     pagecolor="#ffffff"
     bordercolor="#666666"
     borderopacity="1.0"
     inkscape:pageopacity="0.0"
     inkscape:pageshadow="2"
     inkscape:zoom="0.35"
     inkscape:cx="-511.31701"
     inkscape:cy="60.803388"
     inkscape:document-units="mm"
     inkscape:current-layer="layer1"
     showgrid="false"
     fit-margin-top="0"
     fit-margin-left="0"
     fit-margin-right="0"
     fit-margin-bottom="0"
     inkscape:window-width="1920"
     inkscape:window-height="1052"
     inkscape:window-x="0"
     inkscape:window-y="0"
     inkscape:window-maximized="1" />
  <metadata
     id="metadata2795">
    <rdf:RDF>
      <cc:Work
         rdf:about="">
        <dc:format>image/svg+xml</dc:format>
        <dc:type
           rdf:resource="http://purl.org/dc/dcmitype/StillImage" />
        <dc:title></dc:title>
      </cc:Work>
    </rdf:RDF>
  </metadata>
  <g
     inkscape:label="Layer 1"
     inkscape:groupmode="layer"
     id="layer1"
     transform="translate(-24.351315,32.384982)">
    <g
       id="g3505"
       transform="matrix(1.0952225,0,0,1.0952225,3.6513386,-2.0297642)">
      <g
         transform="matrix(0.55575123,0,0,-0.55575123,53.59879,-26.248427)"
         id="g282">
        <path
           inkscape:connector-curvature="0"
           id="path284"
           style="fill:none;stroke:#000000;stroke-width:4;stroke-linecap:butt;stroke-linejoin:miter;stroke-miterlimit:10;stroke-dasharray:none;stroke-opacity:1"
           d="M 0,0 V -72.265" />
      </g>
      <g
         transform="matrix(0.55575123,0,0,-0.55575123,25.58877,27.83695)"
         id="g286">
        <path
           inkscape:connector-curvature="0"
           id="path288"
           style="fill:#000000;fill-opacity:1;fill-rule:nonzero;stroke:none"
           d="m 0,0 c 1.258,-1.023 2.047,-2.417 2.362,-4.182 h -3.936 c -0.157,0.776 -0.52,1.39 -1.082,1.84 -0.564,0.45 -1.278,0.675 -2.14,0.675 -0.987,0 -1.81,-0.367 -2.469,-1.098 -0.662,-0.734 -0.992,-1.805 -0.992,-3.215 0,-1.413 0.33,-2.484 0.992,-3.216 0.659,-0.731 1.482,-1.098 2.469,-1.098 0.862,0 1.576,0.225 2.14,0.675 0.562,0.45 0.925,1.063 1.082,1.839 H 2.362 C 2.047,-9.544 1.258,-10.938 0,-11.961 c -1.26,-1.023 -2.832,-1.534 -4.717,-1.534 -1.426,0 -2.694,0.304 -3.804,0.912 -1.109,0.609 -1.973,1.477 -2.589,2.607 -0.617,1.129 -0.925,2.46 -0.925,3.996 0,1.533 0.308,2.87 0.925,4.009 0.616,1.137 1.48,2.006 2.589,2.605 1.11,0.6 2.378,0.9 3.804,0.9 C -2.832,1.534 -1.26,1.023 0,0" />
      </g>
      <path
         inkscape:connector-curvature="0"
         id="path290"
         style="fill:#000000;fill-opacity:1;fill-rule:nonzero;stroke:none;stroke-width:0.5557512"
         d="M 30.779369,35.234349 H 28.70864 V 27.08704 h 2.070729 z M 28.82591,23.93315 c 0.235075,-0.211741 0.544081,-0.316225 0.925318,-0.316225 0.382371,0 0.690243,0.104478 0.924782,0.316225 0.235075,0.210629 0.353448,0.483504 0.353448,0.815287 0,0.324001 -0.11831,0.59132 -0.353448,0.801949 -0.234539,0.211187 -0.542411,0.316224 -0.924782,0.316224 -0.381237,0 -0.690243,-0.105044 -0.925318,-0.316224 -0.235091,-0.210629 -0.351793,-0.477948 -0.351793,-0.801949 0,-0.331783 0.116734,-0.604658 0.351793,-0.815287" />
      <g
         transform="matrix(0.55575123,0,0,-0.55575123,40.862652,27.086935)"
         id="g292">
        <path
           inkscape:connector-curvature="0"
           id="path294"
           style="fill:#000000;fill-opacity:1;fill-rule:nonzero;stroke:none"
           d="m 0,0 v -14.66 h -3.724 v 2.964 c -0.388,-0.989 -1.027,-1.761 -1.915,-2.316 -0.89,-0.555 -1.915,-0.833 -3.079,-0.833 -1.69,0 -3.038,0.555 -4.041,1.666 -1.005,1.112 -1.507,2.664 -1.507,4.658 V 0 h 3.7 v -8.098 c 0,-1.165 0.299,-2.069 0.898,-2.713 0.599,-0.644 1.408,-0.964 2.431,-0.964 1.074,0 1.928,0.342 2.561,1.031 0.635,0.689 0.952,1.676 0.952,2.964 V 0 Z" />
      </g>
      <g
         transform="matrix(0.55575123,0,0,-0.55575123,45.447873,29.425509)"
         id="g296">
        <path
           inkscape:connector-curvature="0"
           id="path298"
           style="fill:#000000;fill-opacity:1;fill-rule:nonzero;stroke:none"
           d="m 0,0 c -0.704,-0.758 -1.056,-1.799 -1.056,-3.122 0,-1.323 0.352,-2.36 1.056,-3.11 0.706,-0.749 1.638,-1.124 2.801,-1.124 1.127,0 2.055,0.384 2.787,1.15 0.731,0.768 1.097,1.795 1.097,3.084 0,1.305 -0.366,2.342 -1.097,3.11 C 4.856,0.753 3.928,1.139 2.801,1.139 1.638,1.139 0.706,0.758 0,0 M 4.796,3.519 C 5.667,2.938 6.296,2.151 6.685,1.165 v 7.964 h 3.697 V -10.452 H 6.685 v 3.069 C 6.296,-8.372 5.667,-9.16 4.796,-9.751 c -0.872,-0.592 -1.924,-0.886 -3.158,-0.886 -1.232,0 -2.342,0.301 -3.329,0.9 -0.985,0.6 -1.756,1.469 -2.31,2.606 -0.556,1.138 -0.833,2.473 -0.833,4.009 0,1.534 0.277,2.871 0.833,4.009 0.554,1.137 1.325,2.006 2.31,2.606 0.987,0.599 2.097,0.899 3.329,0.899 1.234,0 2.286,-0.289 3.158,-0.873" />
      </g>
      <g
         transform="matrix(0.55575123,0,0,-0.55575123,55.801739,29.425509)"
         id="g300">
        <path
           inkscape:connector-curvature="0"
           id="path302"
           style="fill:#000000;fill-opacity:1;fill-rule:nonzero;stroke:none"
           d="m 0,0 c -0.704,-0.758 -1.056,-1.799 -1.056,-3.122 0,-1.323 0.352,-2.36 1.056,-3.11 0.706,-0.749 1.638,-1.124 2.801,-1.124 1.127,0 2.055,0.384 2.788,1.15 0.73,0.768 1.096,1.795 1.096,3.084 0,1.305 -0.366,2.342 -1.096,3.11 C 4.856,0.753 3.928,1.139 2.801,1.139 1.638,1.139 0.706,0.758 0,0 M 4.808,3.519 C 5.69,2.938 6.315,2.151 6.685,1.165 v 3.043 h 3.697 v -14.66 H 6.685 v 3.069 C 6.315,-8.372 5.69,-9.16 4.808,-9.751 c -0.88,-0.592 -1.936,-0.886 -3.17,-0.886 -1.232,0 -2.342,0.301 -3.329,0.9 -0.985,0.6 -1.756,1.469 -2.31,2.606 -0.556,1.138 -0.833,2.473 -0.833,4.009 0,1.534 0.277,2.871 0.833,4.009 0.554,1.137 1.325,2.006 2.31,2.606 0.987,0.599 2.097,0.899 3.329,0.899 1.234,0 2.29,-0.289 3.17,-0.873" />
      </g>
      <g
         transform="matrix(0.55575123,0,0,-0.55575123,66.156834,29.425509)"
         id="g304">
        <path
           inkscape:connector-curvature="0"
           id="path306"
           style="fill:#000000;fill-opacity:1;fill-rule:nonzero;stroke:none"
           d="m 0,0 c -0.704,-0.758 -1.056,-1.799 -1.056,-3.122 0,-1.323 0.352,-2.36 1.056,-3.11 0.706,-0.749 1.638,-1.124 2.801,-1.124 1.127,0 2.055,0.384 2.787,1.15 0.731,0.768 1.097,1.795 1.097,3.084 0,1.305 -0.366,2.342 -1.097,3.11 C 4.856,0.753 3.928,1.139 2.801,1.139 1.638,1.139 0.706,0.758 0,0 M 4.796,3.519 C 5.667,2.938 6.296,2.151 6.685,1.165 v 7.964 h 3.697 V -10.452 H 6.685 v 3.069 C 6.296,-8.372 5.667,-9.16 4.796,-9.751 c -0.872,-0.592 -1.924,-0.886 -3.158,-0.886 -1.232,0 -2.342,0.301 -3.329,0.9 -0.985,0.6 -1.756,1.469 -2.31,2.606 -0.556,1.138 -0.833,2.473 -0.833,4.009 0,1.534 0.277,2.871 0.833,4.009 0.554,1.137 1.325,2.006 2.31,2.606 0.987,0.599 2.097,0.899 3.329,0.899 1.234,0 2.286,-0.289 3.158,-0.873" />
      </g>
      <g
         transform="matrix(0.55575123,0,0,-0.55575123,79.279234,29.131655)"
         id="g308">
        <path
           inkscape:connector-curvature="0"
           id="path310"
           style="fill:#000000;fill-opacity:1;fill-rule:nonzero;stroke:none"
           d="M 0,0 C -0.677,0.618 -1.509,0.926 -2.496,0.926 -3.499,0.926 -4.344,0.618 -5.032,0 -5.718,-0.618 -6.098,-1.526 -6.167,-2.725 H 0.939 C 0.991,-1.526 0.678,-0.618 0,0 M 4.557,-4.366 H -6.167 c 0.053,-1.305 0.405,-2.267 1.056,-2.883 0.651,-0.618 1.462,-0.928 2.431,-0.928 0.862,0 1.58,0.213 2.152,0.636 0.573,0.424 0.939,0.997 1.096,1.72 H 4.504 C 4.31,-6.844 3.898,-7.762 3.263,-8.572 2.63,-9.384 1.814,-10.021 0.819,-10.479 c -0.995,-0.458 -2.099,-0.687 -3.315,-0.687 -1.426,0 -2.694,0.305 -3.804,0.913 -1.109,0.609 -1.972,1.476 -2.589,2.607 -0.617,1.128 -0.925,2.459 -0.925,3.995 0,1.534 0.308,2.871 0.925,4.009 0.617,1.137 1.48,2.006 2.589,2.606 1.11,0.599 2.378,0.899 3.804,0.899 1.444,0 2.708,-0.3 3.791,-0.899 1.084,-0.6 1.919,-1.424 2.51,-2.474 0.59,-1.05 0.886,-2.245 0.886,-3.586 0,-0.371 -0.045,-0.794 -0.134,-1.27" />
      </g>
      <g
         transform="matrix(0.55575123,0,0,-0.55575123,88.848604,27.734372)"
         id="g312">
        <path
           inkscape:connector-curvature="0"
           id="path314"
           style="fill:#000000;fill-opacity:1;fill-rule:nonzero;stroke:none"
           d="m 0,0 c 1.074,-0.899 1.746,-2.099 2.009,-3.598 h -3.488 c -0.141,0.705 -0.457,1.27 -0.95,1.694 -0.494,0.423 -1.137,0.633 -1.93,0.633 -0.633,0 -1.126,-0.149 -1.478,-0.449 -0.352,-0.3 -0.528,-0.705 -0.528,-1.218 0,-0.405 0.139,-0.731 0.423,-0.979 0.281,-0.247 0.633,-0.441 1.055,-0.581 0.423,-0.142 1.032,-0.31 1.823,-0.502 1.11,-0.248 2.012,-0.509 2.708,-0.782 0.696,-0.274 1.294,-0.705 1.796,-1.297 0.502,-0.591 0.755,-1.388 0.755,-2.395 0,-1.252 -0.49,-2.267 -1.467,-3.043 -0.979,-0.775 -2.296,-1.163 -3.95,-1.163 -1.901,0 -3.426,0.428 -4.571,1.283 -1.145,0.855 -1.841,2.077 -2.085,3.665 h 3.566 c 0.086,-0.723 0.404,-1.292 0.95,-1.706 0.546,-0.415 1.26,-0.622 2.14,-0.622 0.633,0 1.118,0.154 1.452,0.462 0.336,0.308 0.504,0.711 0.504,1.203 0,0.424 -0.146,0.769 -0.437,1.034 -0.291,0.263 -0.651,0.465 -1.082,0.608 -0.433,0.141 -1.044,0.308 -1.837,0.502 -1.092,0.247 -1.978,0.499 -2.655,0.755 -0.678,0.256 -1.261,0.665 -1.744,1.23 -0.483,0.566 -0.726,1.342 -0.726,2.328 0,1.271 0.483,2.304 1.452,3.098 0.969,0.792 2.308,1.189 4.017,1.189 C -2.5,1.349 -1.074,0.899 0,0" />
      </g>
      <g
         transform="matrix(0.55575123,0,0,-0.55575123,25.58877,42.42)"
         id="g316">
        <path
           inkscape:connector-curvature="0"
           id="path318"
           style="fill:#000000;fill-opacity:1;fill-rule:nonzero;stroke:none"
           d="m 0,0 c 1.258,-1.023 2.047,-2.417 2.362,-4.182 h -3.936 c -0.157,0.776 -0.52,1.39 -1.082,1.84 -0.564,0.45 -1.278,0.675 -2.14,0.675 -0.987,0 -1.81,-0.367 -2.469,-1.099 -0.662,-0.733 -0.992,-1.805 -0.992,-3.215 0,-1.412 0.33,-2.483 0.992,-3.215 0.659,-0.731 1.482,-1.098 2.469,-1.098 0.862,0 1.576,0.225 2.14,0.674 0.562,0.451 0.925,1.064 1.082,1.84 H 2.362 C 2.047,-9.544 1.258,-10.938 0,-11.961 c -1.26,-1.023 -2.832,-1.534 -4.717,-1.534 -1.426,0 -2.694,0.304 -3.804,0.912 -1.109,0.609 -1.973,1.477 -2.589,2.607 -0.617,1.128 -0.925,2.459 -0.925,3.995 0,1.534 0.308,2.871 0.925,4.01 0.616,1.136 1.48,2.005 2.589,2.605 1.11,0.6 2.378,0.9 3.804,0.9 C -2.832,1.534 -1.26,1.023 0,0" />
      </g>
      <g
         transform="matrix(0.55575123,0,0,-0.55575123,30.994453,43.971624)"
         id="g320">
        <path
           inkscape:connector-curvature="0"
           id="path322"
           style="fill:#000000;fill-opacity:1;fill-rule:nonzero;stroke:none"
           d="m 0,0 c -0.722,-0.733 -1.082,-1.795 -1.082,-3.189 0,-1.394 0.36,-2.457 1.082,-3.188 0.722,-0.732 1.604,-1.099 2.644,-1.099 1.037,0 1.919,0.367 2.641,1.099 0.722,0.731 1.082,1.794 1.082,3.188 0,1.394 -0.36,2.456 -1.082,3.189 C 4.563,0.731 3.681,1.098 2.644,1.098 1.604,1.098 0.722,0.731 0,0 m 6.487,3.426 c 1.136,-0.6 2.028,-1.469 2.681,-2.605 0.652,-1.139 0.978,-2.476 0.978,-4.01 0,-1.536 -0.326,-2.867 -0.978,-3.995 -0.653,-1.13 -1.545,-1.998 -2.681,-2.608 -1.137,-0.607 -2.417,-0.911 -3.843,-0.911 -1.428,0 -2.709,0.304 -3.845,0.911 -1.135,0.61 -2.031,1.478 -2.683,2.608 -0.651,1.128 -0.976,2.459 -0.976,3.995 0,1.534 0.325,2.871 0.976,4.01 0.652,1.136 1.548,2.005 2.683,2.605 1.136,0.6 2.417,0.9 3.845,0.9 1.426,0 2.706,-0.3 3.843,-0.9" />
      </g>
      <g
         transform="matrix(0.55575123,0,0,-0.55575123,51.198622,42.471852)"
         id="g324">
        <path
           inkscape:connector-curvature="0"
           id="path326"
           style="fill:#000000;fill-opacity:1;fill-rule:nonzero;stroke:none"
           d="m 0,0 c 1.031,-1.102 1.545,-2.668 1.545,-4.696 v -8.521 h -3.697 v 8.097 c 0,1.129 -0.287,1.998 -0.86,2.606 -0.572,0.61 -1.359,0.913 -2.364,0.913 -1.04,0 -1.867,-0.326 -2.482,-0.978 -0.617,-0.654 -0.926,-1.607 -0.926,-2.858 v -7.78 h -3.698 v 8.097 c 0,1.129 -0.287,1.998 -0.859,2.606 -0.573,0.61 -1.359,0.913 -2.365,0.913 -1.037,0 -1.867,-0.326 -2.481,-0.978 -0.617,-0.654 -0.925,-1.607 -0.925,-2.858 v -7.78 h -3.726 V 1.442 h 3.726 v -2.779 c 0.386,0.954 0.999,1.69 1.835,2.21 0.837,0.521 1.81,0.78 2.92,0.78 1.18,0 2.205,-0.281 3.077,-0.847 0.872,-0.563 1.527,-1.375 1.968,-2.433 0.459,1.005 1.141,1.803 2.047,2.395 0.908,0.589 1.925,0.885 3.052,0.885 C -2.435,1.653 -1.03,1.102 0,0" />
      </g>
      <g
         transform="matrix(0.55575123,0,0,-0.55575123,62.064007,41.670236)"
         id="g328">
        <path
           inkscape:connector-curvature="0"
           id="path330"
           style="fill:#000000;fill-opacity:1;fill-rule:nonzero;stroke:none"
           d="m 0,0 v -14.66 h -3.724 v 2.964 c -0.388,-0.989 -1.027,-1.761 -1.915,-2.316 -0.89,-0.554 -1.915,-0.832 -3.079,-0.832 -1.69,0 -3.038,0.555 -4.041,1.665 -1.005,1.113 -1.507,2.664 -1.507,4.658 V 0 h 3.7 v -8.098 c 0,-1.165 0.299,-2.068 0.898,-2.713 0.598,-0.644 1.408,-0.964 2.431,-0.964 1.074,0 1.928,0.342 2.561,1.031 0.635,0.689 0.952,1.676 0.952,2.964 V 0 Z" />
      </g>
      <g
         transform="matrix(0.55575123,0,0,-0.55575123,71.446744,42.479688)"
         id="g332">
        <path
           inkscape:connector-curvature="0"
           id="path334"
           style="fill:#000000;fill-opacity:1;fill-rule:nonzero;stroke:none"
           d="m 0,0 c 1.005,-1.11 1.507,-2.672 1.507,-4.682 v -8.521 h -3.7 v 8.098 c 0,1.163 -0.299,2.066 -0.898,2.71 -0.598,0.645 -1.418,0.967 -2.455,0.967 -1.058,0 -1.903,-0.345 -2.537,-1.031 -0.635,-0.689 -0.95,-1.678 -0.95,-2.964 v -7.78 h -3.726 v 14.66 h 3.726 v -2.938 c 0.386,0.989 1.025,1.761 1.913,2.315 0.89,0.556 1.916,0.833 3.079,0.833 C -2.35,1.667 -1.003,1.112 0,0" />
      </g>
      <g
         transform="matrix(0.55575123,0,0,-0.55575123,79.560388,43.714951)"
         id="g336">
        <path
           inkscape:connector-curvature="0"
           id="path338"
           style="fill:#000000;fill-opacity:1;fill-rule:nonzero;stroke:none"
           d="M 0,0 C -0.678,0.618 -1.509,0.926 -2.496,0.926 -3.499,0.926 -4.345,0.618 -5.032,0 -5.718,-0.618 -6.098,-1.525 -6.167,-2.725 H 0.938 C 0.991,-1.525 0.677,-0.618 0,0 M 4.557,-4.366 H -6.167 c 0.052,-1.304 0.404,-2.267 1.056,-2.883 0.651,-0.618 1.462,-0.928 2.431,-0.928 0.862,0 1.58,0.213 2.152,0.636 0.572,0.424 0.938,0.997 1.096,1.721 H 4.504 C 4.31,-6.844 3.897,-7.761 3.262,-8.572 2.629,-9.384 1.814,-10.021 0.819,-10.478 c -0.995,-0.458 -2.1,-0.687 -3.315,-0.687 -1.426,0 -2.694,0.304 -3.805,0.912 -1.108,0.609 -1.972,1.477 -2.589,2.607 -0.617,1.128 -0.924,2.459 -0.924,3.995 0,1.534 0.307,2.871 0.924,4.01 0.617,1.136 1.481,2.005 2.589,2.605 1.111,0.6 2.379,0.9 3.805,0.9 1.444,0 2.708,-0.3 3.79,-0.9 1.084,-0.6 1.92,-1.424 2.51,-2.474 0.591,-1.049 0.886,-2.244 0.886,-3.586 0,-0.37 -0.044,-0.794 -0.133,-1.27" />
      </g>
      <g
         transform="matrix(0.55575123,0,0,-0.55575123,89.129584,42.317673)"
         id="g340">
        <path
           inkscape:connector-curvature="0"
           id="path342"
           style="fill:#000000;fill-opacity:1;fill-rule:nonzero;stroke:none"
           d="m 0,0 c 1.074,-0.899 1.746,-2.099 2.009,-3.598 h -3.488 c -0.141,0.705 -0.457,1.27 -0.95,1.694 -0.494,0.423 -1.137,0.634 -1.93,0.634 -0.633,0 -1.126,-0.15 -1.478,-0.45 -0.352,-0.3 -0.528,-0.705 -0.528,-1.218 0,-0.405 0.139,-0.731 0.423,-0.978 0.281,-0.247 0.633,-0.441 1.055,-0.582 0.423,-0.141 1.032,-0.31 1.823,-0.502 1.11,-0.247 2.012,-0.508 2.708,-0.782 0.696,-0.274 1.294,-0.705 1.796,-1.297 0.502,-0.591 0.755,-1.387 0.755,-2.394 0,-1.252 -0.49,-2.267 -1.467,-3.043 -0.979,-0.776 -2.295,-1.163 -3.95,-1.163 -1.901,0 -3.426,0.428 -4.571,1.283 -1.145,0.854 -1.841,2.076 -2.085,3.664 h 3.566 c 0.086,-0.723 0.404,-1.292 0.95,-1.706 0.546,-0.415 1.26,-0.622 2.14,-0.622 0.633,0 1.118,0.154 1.452,0.462 0.336,0.308 0.504,0.711 0.504,1.204 0,0.423 -0.146,0.768 -0.437,1.033 -0.291,0.263 -0.651,0.466 -1.082,0.608 -0.433,0.142 -1.044,0.308 -1.837,0.502 -1.092,0.248 -1.978,0.499 -2.655,0.756 -0.678,0.255 -1.26,0.664 -1.744,1.23 -0.483,0.565 -0.726,1.341 -0.726,2.327 0,1.271 0.483,2.304 1.452,3.098 0.969,0.793 2.308,1.19 4.017,1.19 C -2.5,1.35 -1.074,0.9 0,0" />
      </g>
      <g
         transform="matrix(0.55575123,0,0,-0.55575123,71.325315,-21.449905)"
         id="g344">
        <path
           inkscape:connector-curvature="0"
           id="path346"
           style="fill:#000000;fill-opacity:1;fill-rule:nonzero;stroke:none"
           d="m 0,0 c 0,1.335 -0.32,2.389 -0.959,3.157 -0.639,0.767 -1.638,1.15 -3.001,1.15 -2.81,0 -4.3,-1.918 -4.47,-5.758 h -5.834 c 0.17,3.554 1.248,6.248 3.237,8.082 1.986,1.833 4.498,2.751 7.536,2.751 3.093,0 5.471,-0.804 7.132,-2.408 1.658,-1.607 2.49,-3.746 2.49,-6.419 0,-2.105 -0.617,-4.216 -1.853,-6.333 -1.234,-2.119 -2.804,-4.066 -4.705,-5.843 -1.901,-1.777 -3.901,-3.304 -6.003,-4.585 H 6.727 v -4.905 h -21.161 v 4.48 C -4.812,-9.952 0,-4.406 0,0" />
      </g>
      <g
         transform="matrix(0.55575123,0,0,-0.55575123,87.060194,-18.084428)"
         id="g348">
        <path
           inkscape:connector-curvature="0"
           id="path350"
           style="fill:#000000;fill-opacity:1;fill-rule:nonzero;stroke:none"
           d="m 0,0 c 0,3.071 -0.376,5.438 -1.129,7.101 -0.75,1.664 -2.22,2.494 -4.405,2.494 -2.215,0 -3.697,-0.83 -4.45,-2.494 -0.752,-1.663 -1.128,-4.03 -1.128,-7.101 0,-3.1 0.376,-5.48 1.128,-7.144 0.753,-1.663 2.235,-2.494 4.45,-2.494 2.185,0 3.655,0.831 4.405,2.494 C -0.376,-5.48 0,-3.1 0,0 m -17.031,0 c 0,10.179 3.833,15.268 11.497,15.268 4.057,0 6.982,-1.366 8.77,-4.095 C 5.024,8.444 5.918,4.719 5.918,0 c 0,-4.749 -0.894,-8.487 -2.682,-11.216 -1.788,-2.729 -4.713,-4.094 -8.77,-4.094 -7.664,0 -11.497,5.103 -11.497,15.31" />
      </g>
      <g
         transform="matrix(0.55575123,0,0,-0.55575123,71.325315,2.0528726)"
         id="g352">
        <path
           inkscape:connector-curvature="0"
           id="path354"
           style="fill:#000000;fill-opacity:1;fill-rule:nonzero;stroke:none"
           d="m 0,0 c 0,1.335 -0.32,2.389 -0.959,3.156 -0.639,0.768 -1.638,1.151 -3.001,1.151 -2.81,0 -4.3,-1.918 -4.47,-5.758 h -5.834 c 0.17,3.554 1.248,6.248 3.237,8.082 1.986,1.833 4.498,2.751 7.536,2.751 3.093,0 5.471,-0.804 7.132,-2.409 1.658,-1.606 2.49,-3.746 2.49,-6.418 0,-2.105 -0.617,-4.216 -1.853,-6.333 -1.234,-2.119 -2.804,-4.066 -4.705,-5.843 -1.901,-1.777 -3.901,-3.304 -6.003,-4.585 H 6.727 v -4.905 h -21.161 v 4.48 C -4.812,-9.952 0,-4.407 0,0" />
      </g>
      <g
         transform="matrix(0.55575123,0,0,-0.55575123,87.060194,5.4183064)"
         id="g356">
        <path
           inkscape:connector-curvature="0"
           id="path358"
           style="fill:#000000;fill-opacity:1;fill-rule:nonzero;stroke:none"
           d="m 0,0 c 0,3.071 -0.376,5.437 -1.129,7.101 -0.75,1.663 -2.22,2.494 -4.405,2.494 -2.215,0 -3.697,-0.831 -4.45,-2.494 -0.752,-1.664 -1.128,-4.03 -1.128,-7.101 0,-3.1 0.376,-5.48 1.128,-7.144 0.753,-1.663 2.235,-2.494 4.45,-2.494 2.185,0 3.655,0.831 4.405,2.494 C -0.376,-5.48 0,-3.1 0,0 m -17.031,0 c 0,10.178 3.833,15.268 11.497,15.268 4.057,0 6.982,-1.366 8.77,-4.095 C 5.024,8.444 5.918,4.718 5.918,0 c 0,-4.749 -0.894,-8.487 -2.682,-11.216 -1.788,-2.729 -4.713,-4.095 -8.77,-4.095 -7.664,0 -11.497,5.104 -11.497,15.311" />
      </g>
      <g
         id="g360"
         transform="matrix(0.55575123,0,0,-0.55575123,-100.84697,186.74437)">
        <g
           id="g362" />
        <g
           id="g374">
          <g
             id="g372"
             clip-path="url(#clipPath366)">
            <g
               id="g370"
               transform="translate(240.9971,372.4258)">
              <path
                 inkscape:connector-curvature="0"
                 id="path368"
                 style="fill:#000000;fill-opacity:1;fill-rule:nonzero;stroke:none"
                 d="m 0,0 c -7.927,0 -13.455,-5.908 -13.455,-14.585 0,-8.862 5.528,-14.769 13.455,-14.769 5.714,0 10.322,1.938 13.271,5.816 l 7.463,-6.185 c -4.33,-6.277 -11.703,-9.97 -21.379,-9.97 -14.745,0 -24.883,10.154 -24.883,25.017 0,15.045 10.229,25.199 25.067,25.199 9.031,0 16.219,-3.323 20.643,-9.046 l -7.28,-6.923 C 9.767,-2.03 5.437,0 0,0" />
            </g>
          </g>
        </g>
      </g>
      <g
         id="g376"
         transform="matrix(0.55575123,0,0,-0.55575123,-100.84697,186.74437)">
        <g
           id="g378" />
        <g
           id="g388">
          <g
             id="g386"
             clip-path="url(#clipPath382)">
            <path
               inkscape:connector-curvature="0"
               id="path384"
               style="fill:#000000;fill-opacity:1;fill-rule:nonzero;stroke:none"
               d="M 259.021,309.79 H 217.51 v 8.861 h 41.511 z" />
          </g>
        </g>
      </g>
    </g>
    <g
       id="g1080"
       transform="translate(10.583343,-0.53384811)">
      <g
         transform="matrix(0.26458333,0,0,0.26458333,143.7283,-31.851134)"
         style="fill:#000000"
         id="g18">
	<g
   style="fill:#000000"
   id="g16">
		<path
   style="fill:#000000"
   id="path2"
   d="m 759.877,5.556 h 3.854 v 17.517 h -3.854 z"
   inkscape:connector-curvature="0" />

		<path
   style="fill:#000000"
   id="path4"
   d="m 773.111,5.556 h 6.831 c 5.506,0 9.31,3.778 9.31,8.708 v 0.05 c 0,4.93 -3.804,8.759 -9.31,8.759 h -6.831 z m 6.831,14.038 c 3.153,0 5.28,-2.127 5.28,-5.229 v -0.051 c 0,-3.103 -2.127,-5.28 -5.28,-5.28 h -2.978 v 10.561 h 2.978 z"
   inkscape:connector-curvature="0" />

		<path
   style="fill:#000000"
   id="path6"
   d="m 797.679,5.556 h 13.213 v 3.428 h -9.384 v 3.554 h 8.258 v 3.429 h -8.258 v 3.678 h 9.509 v 3.429 h -13.338 z"
   inkscape:connector-curvature="0" />

		<path
   style="fill:#000000"
   id="path8"
   d="m 825.45,5.43 h 3.554 l 7.508,17.643 h -4.029 l -1.602,-3.929 h -7.407 l -1.602,3.929 h -3.929 z m 4.055,10.31 -2.328,-5.681 -2.327,5.681 z"
   inkscape:connector-curvature="0" />

		<path
   style="fill:#000000"
   id="path10"
   d="m 846.04,9.108 h -5.33 V 5.556 h 14.515 v 3.553 h -5.331 v 13.964 h -3.854 z"
   inkscape:connector-curvature="0" />

		<path
   style="fill:#000000"
   id="path12"
   d="m 861.649,14.364 v -0.051 c 0,-4.979 3.93,-9.059 9.335,-9.059 5.405,0 9.283,4.029 9.283,9.009 v 0.05 c 0,4.98 -3.929,9.059 -9.334,9.059 -5.405,0 -9.284,-4.028 -9.284,-9.008 z m 14.59,0 v -0.051 c 0,-3.003 -2.202,-5.505 -5.306,-5.505 -3.103,0 -5.255,2.452 -5.255,5.455 v 0.05 c 0,3.003 2.202,5.506 5.306,5.506 3.103,0 5.255,-2.453 5.255,-5.455 z M 872.436,0 l 3.278,1.426 -3.403,2.503 h -2.903 z"
   inkscape:connector-curvature="0" />

		<path
   style="fill:#000000"
   id="path14"
   d="m 888.694,5.556 h 3.554 l 8.208,10.785 V 5.556 h 3.804 v 17.517 h -3.278 l -8.483,-11.136 v 11.136 h -3.804 V 5.556 Z"
   inkscape:connector-curvature="0" />

	</g>

</g>
      <g
         transform="matrix(0.26458333,0,0,0.26458333,143.7283,-31.851134)"
         style="fill:#000000"
         id="g60">
	<g
   style="fill:#000000"
   id="g58">
		<path
   style="fill:#000000"
   id="path20"
   d="M 0,14.364 V 14.313 C 0,9.334 3.754,5.254 9.134,5.254 c 3.303,0 5.28,1.102 6.906,2.703 l -2.452,2.827 C 12.236,9.558 10.86,8.807 9.109,8.807 c -2.953,0 -5.08,2.452 -5.08,5.455 v 0.05 c 0,3.003 2.077,5.506 5.08,5.506 2.002,0 3.229,-0.801 4.604,-2.053 l 2.453,2.478 C 14.364,22.17 12.362,23.371 8.984,23.371 3.829,23.372 0,19.394 0,14.364 Z"
   inkscape:connector-curvature="0" />

		<path
   style="fill:#000000"
   id="path22"
   d="m 22.966,14.364 v -0.051 c 0,-4.979 3.929,-9.059 9.334,-9.059 5.405,0 9.284,4.029 9.284,9.009 v 0.05 c 0,4.98 -3.929,9.059 -9.334,9.059 -5.405,0 -9.284,-4.028 -9.284,-9.008 z m 14.59,0 v -0.051 c 0,-3.003 -2.202,-5.505 -5.305,-5.505 -3.103,0 -5.255,2.452 -5.255,5.455 v 0.05 c 0,3.003 2.202,5.506 5.305,5.506 3.103,0 5.255,-2.453 5.255,-5.455 z"
   inkscape:connector-curvature="0" />

		<path
   style="fill:#000000"
   id="path24"
   d="m 50.011,5.556 h 3.554 l 8.208,10.785 V 5.556 h 3.804 V 23.073 H 62.299 L 53.816,11.937 V 23.073 H 50.012 V 5.556 Z"
   inkscape:connector-curvature="0" />

		<path
   style="fill:#000000"
   id="path26"
   d="m 73.277,5.556 h 4.254 L 82.11,17.893 86.69,5.556 h 4.154 l -7.082,17.642 h -3.403 z"
   inkscape:connector-curvature="0" />

		<path
   style="fill:#000000"
   id="path28"
   d="m 96.645,14.364 v -0.051 c 0,-4.979 3.929,-9.059 9.334,-9.059 5.405,0 9.284,4.029 9.284,9.009 v 0.05 c 0,4.98 -3.929,9.059 -9.334,9.059 -5.405,0 -9.284,-4.028 -9.284,-9.008 z m 14.589,0 v -0.051 c 0,-3.003 -2.202,-5.505 -5.305,-5.505 -3.103,0 -5.255,2.452 -5.255,5.455 v 0.05 c 0,3.003 2.202,5.506 5.306,5.506 3.102,0 5.254,-2.453 5.254,-5.455 z"
   inkscape:connector-curvature="0" />

		<path
   style="fill:#000000"
   id="path30"
   d="m 122.913,14.364 v -0.051 c 0,-4.979 3.754,-9.059 9.134,-9.059 3.303,0 5.28,1.102 6.906,2.703 l -2.452,2.827 c -1.352,-1.226 -2.728,-1.977 -4.479,-1.977 -2.953,0 -5.08,2.452 -5.08,5.455 v 0.05 c 0,3.003 2.077,5.506 5.08,5.506 2.002,0 3.229,-0.801 4.604,-2.053 l 2.453,2.478 c -1.802,1.927 -3.804,3.128 -7.182,3.128 -5.155,0.001 -8.984,-3.977 -8.984,-9.007 z"
   inkscape:connector-curvature="0" />

		<path
   style="fill:#000000"
   id="path32"
   d="m 153.161,5.43 h 3.553 l 7.508,17.643 h -4.029 l -1.602,-3.929 h -7.407 l -1.602,3.929 h -3.929 z m 4.054,10.31 -2.328,-5.681 -2.327,5.681 z"
   inkscape:connector-curvature="0" />

		<path
   style="fill:#000000"
   id="path34"
   d="M 173.751,9.108 H 168.42 V 5.556 h 14.515 v 3.553 h -5.331 V 23.073 H 173.75 V 9.108 Z"
   inkscape:connector-curvature="0" />

		<path
   style="fill:#000000"
   id="path36"
   d="m 189.36,14.364 v -0.051 c 0,-4.979 3.929,-9.059 9.334,-9.059 5.405,0 9.284,4.029 9.284,9.009 v 0.05 c 0,4.98 -3.929,9.059 -9.334,9.059 -5.405,0 -9.284,-4.028 -9.284,-9.008 z m 14.59,0 v -0.051 c 0,-3.003 -2.202,-5.505 -5.305,-5.505 -3.103,0 -5.255,2.452 -5.255,5.455 v 0.05 c 0,3.003 2.202,5.506 5.306,5.506 3.101,0 5.254,-2.453 5.254,-5.455 z"
   inkscape:connector-curvature="0" />

		<path
   style="fill:#000000"
   id="path38"
   d="m 216.405,5.556 h 8.008 c 2.227,0 3.954,0.625 5.105,1.776 0.976,0.976 1.501,2.353 1.501,4.004 v 0.05 c 0,2.828 -1.526,4.604 -3.753,5.431 l 4.279,6.256 h -4.504 l -3.753,-5.605 h -3.028 v 5.605 h -3.854 V 5.556 Z m 7.758,8.507 c 1.877,0 2.953,-1.001 2.953,-2.478 v -0.05 c 0,-1.651 -1.151,-2.503 -3.028,-2.503 h -3.829 v 5.03 h 3.904 z"
   inkscape:connector-curvature="0" />

		<path
   style="fill:#000000"
   id="path40"
   d="m 239.672,5.556 h 3.854 v 17.517 h -3.854 z"
   inkscape:connector-curvature="0" />

		<path
   style="fill:#000000"
   id="path42"
   d="m 258.912,5.43 h 3.553 l 7.508,17.643 h -4.029 l -1.602,-3.929 h -7.407 l -1.602,3.929 h -3.929 z m 4.054,10.31 -2.328,-5.681 -2.327,5.681 z"
   inkscape:connector-curvature="0" />

		<path
   style="fill:#000000"
   id="path44"
   d="m 290.183,5.556 h 6.832 c 5.505,0 9.309,3.778 9.309,8.708 v 0.05 c 0,4.93 -3.804,8.759 -9.309,8.759 h -6.832 z m 6.831,14.038 c 3.153,0 5.28,-2.127 5.28,-5.229 v -0.051 c 0,-3.103 -2.127,-5.28 -5.28,-5.28 h -2.978 v 10.561 h 2.978 z"
   inkscape:connector-curvature="0" />

		<path
   style="fill:#000000"
   id="path46"
   d="m 314.75,5.556 h 13.213 v 3.428 h -9.384 v 3.554 h 8.258 v 3.429 h -8.258 v 3.678 h 9.509 v 3.429 H 314.75 Z"
   inkscape:connector-curvature="0" />

		<path
   style="fill:#000000"
   id="path48"
   d="m 349.2,5.556 h 3.854 V 23.073 H 349.2 Z"
   inkscape:connector-curvature="0" />

		<path
   style="fill:#000000"
   id="path50"
   d="m 362.435,5.556 h 6.832 c 5.505,0 9.309,3.778 9.309,8.708 v 0.05 c 0,4.93 -3.804,8.759 -9.309,8.759 h -6.832 z m 6.831,14.038 c 3.153,0 5.28,-2.127 5.28,-5.229 v -0.051 c 0,-3.103 -2.127,-5.28 -5.28,-5.28 h -2.978 v 10.561 h 2.978 z"
   inkscape:connector-curvature="0" />

		<path
   style="fill:#000000"
   id="path52"
   d="m 387.002,5.556 h 13.213 v 3.428 h -9.384 v 3.554 h 8.258 v 3.429 h -8.258 v 3.678 h 9.509 v 3.429 h -13.338 z"
   inkscape:connector-curvature="0" />

		<path
   style="fill:#000000"
   id="path54"
   d="m 414.774,5.43 h 3.554 l 7.507,17.643 h -4.029 l -1.602,-3.929 h -7.407 l -1.602,3.929 h -3.929 z m 4.054,10.31 -2.328,-5.68 -2.327,5.681 h 4.655 z"
   inkscape:connector-curvature="0" />

		<path
   style="fill:#000000"
   id="path56"
   d="m 432.084,20.52 2.277,-2.728 c 1.576,1.302 3.228,2.127 5.23,2.127 1.577,0 2.527,-0.625 2.527,-1.651 v -0.05 c 0,-0.977 -0.601,-1.477 -3.528,-2.228 -3.528,-0.9 -5.806,-1.877 -5.806,-5.355 v -0.05 c 0,-3.178 2.552,-5.28 6.131,-5.28 2.553,0 4.73,0.801 6.506,2.228 l -2.002,2.902 c -1.551,-1.076 -3.078,-1.727 -4.554,-1.727 -1.477,0 -2.252,0.676 -2.252,1.526 v 0.051 c 0,1.15 0.751,1.526 3.779,2.302 3.553,0.926 5.555,2.202 5.555,5.255 v 0.051 c 0,3.478 -2.652,5.43 -6.431,5.43 -2.652,-0.001 -5.329,-0.927 -7.432,-2.803 z"
   inkscape:connector-curvature="0" />

	</g>

</g>
      <rect
         style="fill:#000000;stroke-width:0.26458332"
         id="rect62"
         height="0.79374999"
         width="76.464584"
         y="-27.794807"
         x="265.00165" />
      <g
         transform="matrix(0.26458333,0,0,0.26458333,143.7283,-31.851134)"
         style="fill:#000000"
         id="g94">
	<g
   style="fill:#000000"
   id="g92">
		<path
   style="fill:#000000"
   id="path64"
   d="m 2.893,73.607 h 19.123 l 29.668,75.647 29.528,-75.647 h 18.701 l -40.917,99.13 H 43.81 Z"
   inkscape:connector-curvature="0" />

		<path
   style="fill:#000000"
   id="path66"
   d="m 129.445,123.102 v -0.281 c 0,-27.7 21.373,-50.9 51.604,-50.9 30.231,0 51.322,22.919 51.322,50.619 v 0.281 c 0,27.7 -21.373,50.901 -51.604,50.901 -30.231,-0.001 -51.322,-22.92 -51.322,-50.62 z m 84.787,0 v -0.281 c 0,-19.123 -13.92,-35.012 -33.465,-35.012 -19.545,0 -33.184,15.607 -33.184,34.73 v 0.281 c 0,19.123 13.92,35.012 33.465,35.012 19.545,0 33.184,-15.607 33.184,-34.73 z"
   inkscape:connector-curvature="0" />

		<path
   style="fill:#000000"
   id="path68"
   d="m 276.385,73.607 h 17.295 v 82.678 h 51.745 v 15.749 h -69.04 z"
   inkscape:connector-curvature="0" />

		<path
   style="fill:#000000"
   id="path70"
   d="m 361.878,73.607 h 19.123 l 29.668,75.647 29.528,-75.647 h 18.701 l -40.917,99.13 h -15.186 z"
   inkscape:connector-curvature="0" />

		<path
   style="fill:#000000"
   id="path72"
   d="m 498.836,73.607 h 72.977 v 15.467 h -55.682 v 25.591 h 49.354 v 15.467 h -49.354 v 26.435 h 56.385 v 15.467 h -73.68 z"
   inkscape:connector-curvature="0" />

		<path
   style="fill:#000000"
   id="path74"
   d="m 616.107,73.607 h 43.87 c 12.374,0 22.076,3.655 28.403,9.842 5.203,5.343 8.155,12.655 8.155,21.232 v 0.281 c 0,16.17 -9.702,25.872 -23.481,29.81 l 26.575,37.262 H 679.24 l -24.185,-34.309 h -21.654 v 34.309 H 616.106 V 73.607 Z m 42.606,48.791 c 12.373,0 20.247,-6.468 20.247,-16.451 v -0.281 c 0,-10.546 -7.593,-16.311 -20.388,-16.311 h -25.17 v 33.043 z"
   inkscape:connector-curvature="0" />

		<path
   style="fill:#000000"
   id="path76"
   d="m 840.945,72.904 h 16.03 l 43.308,99.13 h -18.279 l -9.983,-23.763 h -46.542 l -10.124,23.763 h -17.717 z m 24.748,60.04 -17.013,-39.37 -16.874,39.371 h 33.887 z"
   inkscape:connector-curvature="0" />

		<path
   style="fill:#000000"
   id="path78"
   d="m 11.328,225.607 h 17.295 v 82.678 h 51.745 v 15.749 h -69.04 z"
   inkscape:connector-curvature="0" />

		<path
   style="fill:#000000"
   id="path80"
   d="m 159.673,224.904 h 16.03 l 43.308,99.13 h -18.279 l -9.983,-23.764 h -46.542 l -10.124,23.764 h -17.717 z m 24.747,60.04 -17.014,-39.371 -16.874,39.371 z"
   inkscape:connector-curvature="0" />

		<path
   style="fill:#000000"
   id="path82"
   d="m 326.58,275.102 v -0.281 c 0,-27.981 20.951,-50.9 50.76,-50.9 18.139,0 29.106,6.327 38.527,15.326 l -11.108,12.796 c -7.874,-7.312 -16.311,-12.233 -27.56,-12.233 -18.842,0 -32.481,15.467 -32.481,34.73 v 0.281 c 0,19.264 13.639,35.012 32.481,35.012 12.092,0 19.826,-4.921 28.263,-12.795 l 11.108,11.248 c -10.265,10.687 -21.513,17.437 -39.933,17.437 -28.684,-0.001 -50.057,-22.359 -50.057,-50.621 z"
   inkscape:connector-curvature="0" />

		<path
   style="fill:#000000"
   id="path84"
   d="m 496.018,224.904 h 16.03 l 43.308,99.13 h -18.279 l -9.983,-23.764 h -46.542 l -10.124,23.764 H 452.71 Z m 24.748,60.04 -17.014,-39.371 -16.874,39.371 z"
   inkscape:connector-curvature="0" />

		<path
   style="fill:#000000"
   id="path86"
   d="m 598.666,225.607 h 17.295 v 82.678 h 51.745 v 15.749 h -69.04 z"
   inkscape:connector-curvature="0" />

		<path
   style="fill:#000000"
   id="path88"
   d="m 712.14,225.607 h 17.295 v 82.678 h 51.744 v 15.749 H 712.14 Z"
   inkscape:connector-curvature="0" />

		<path
   style="fill:#000000"
   id="path90"
   d="m 825.613,225.607 h 72.977 v 15.467 h -55.682 v 25.591 h 49.354 v 15.467 h -49.354 v 26.435 h 56.385 v 15.468 h -73.68 z"
   inkscape:connector-curvature="0" />

	</g>

</g>
    </g>
    <g
       aria-label="+"
       style="font-style:normal;font-weight:normal;font-size:10.58333302px;line-height:1.25;font-family:sans-serif;letter-spacing:0px;word-spacing:0px;fill:#000000;fill-opacity:1;stroke:none;stroke-width:0.26458332"
       id="text979"
       transform="translate(1.3354919,0.48816389)">
      <path
         d="m 139.21278,13.316092 h -8.8392 v 8.636 h -6.5532 v -8.636 h -8.7884 V 7.1184919 h 8.7884 V -1.517508 h 6.5532 v 8.6359999 h 8.8392 z"
         style="font-style:normal;font-variant:normal;font-weight:bold;font-stretch:normal;font-size:50.79999924px;font-family:Montserrat;-inkscape-font-specification:'Montserrat Bold';stroke-width:0.26458332"
         id="path1082"
         inkscape:connector-curvature="0" />
    </g>
  </g>
</svg>
