<?xml version="1.0" encoding="UTF-8" standalone="no"?>
<!-- Generator: Adobe Illustrator 17.0.0, SVG Export Plug-In . SVG Version: 6.00 Build 0)  -->

<svg
   xmlns:dc="http://purl.org/dc/elements/1.1/"
   xmlns:cc="http://creativecommons.org/ns#"
   xmlns:rdf="http://www.w3.org/1999/02/22-rdf-syntax-ns#"
   xmlns:svg="http://www.w3.org/2000/svg"
   xmlns="http://www.w3.org/2000/svg"
   xmlns:sodipodi="http://sodipodi.sourceforge.net/DTD/sodipodi-0.dtd"
   xmlns:inkscape="http://www.inkscape.org/namespaces/inkscape"
   version="1.1"
   id="Layer_1"
   x="0px"
   y="0px"
   viewBox="0 0 1254.2719 122.55569"
   enable-background="new 0 0 1256.65 330.569"
   xml:space="preserve"
   sodipodi:docname="100ideaspara-wide.svg"
   inkscape:version="0.92.3 (2405546, 2018-03-11)"><metadata
   id="metadata509"><rdf:RDF><cc:Work
       rdf:about=""><dc:format>image/svg+xml</dc:format><dc:type
         rdf:resource="http://purl.org/dc/dcmitype/StillImage" /><dc:title></dc:title></cc:Work></rdf:RDF></metadata><defs
   id="defs507" /><sodipodi:namedview
   pagecolor="#ffffff"
   bordercolor="#666666"
   borderopacity="1"
   objecttolerance="10"
   gridtolerance="10"
   guidetolerance="10"
   inkscape:pageopacity="0"
   inkscape:pageshadow="2"
   inkscape:window-width="1920"
   inkscape:window-height="1052"
   id="namedview505"
   showgrid="false"
   fit-margin-top="0"
   fit-margin-left="0"
   fit-margin-right="0"
   fit-margin-bottom="0"
   inkscape:zoom="0.70710678"
   inkscape:cx="644.07928"
   inkscape:cy="-109.33872"
   inkscape:window-x="0"
   inkscape:window-y="0"
   inkscape:window-maximized="1"
   inkscape:current-layer="Layer_1" />


<rect
   x="326.892"
   y="11.084692"
   width="923.71802"
   height="2.3670001"
   id="rect62"
   style="fill:#ffffff;stroke-width:1.10266471" />
<g
   id="g92"
   transform="translate(0,-0.93830821)">
	<path
   d="m 0,56.624 h 12.773 l 19.816,50.528 19.723,-50.528 h 12.491 l -27.33,66.212 H 27.33 Z"
   id="path64"
   inkscape:connector-curvature="0"
   style="fill:#ffffff" />
	<path
   d="m 84.521,89.683 v -0.188 c 0,-18.502 14.275,-33.998 34.468,-33.998 20.193,0 34.28,15.309 34.28,33.811 v 0.188 c 0,18.502 -14.275,33.998 -34.468,33.998 -20.193,0 -34.28,-15.309 -34.28,-33.811 z m 56.632,0 v -0.188 c 0,-12.772 -9.298,-23.386 -22.353,-23.386 -13.055,0 -22.164,10.426 -22.164,23.199 v 0.188 c 0,12.773 9.298,23.386 22.353,23.386 13.053,-0.001 22.164,-10.426 22.164,-23.199 z"
   id="path66"
   inkscape:connector-curvature="0"
   style="fill:#ffffff" />
	<path
   d="m 182.657,56.624 h 11.552 v 55.224 h 34.562 v 10.519 h -46.114 z"
   id="path68"
   inkscape:connector-curvature="0"
   style="fill:#ffffff" />
	<path
   d="m 239.754,56.624 h 12.773 l 19.817,50.528 19.723,-50.528 h 12.491 l -27.33,66.212 h -10.144 z"
   id="path70"
   inkscape:connector-curvature="0"
   style="fill:#ffffff" />
	<path
   d="m 331.224,56.624 h 48.744 v 10.331 h -37.192 v 17.093 h 32.966 v 10.331 h -32.966 v 17.656 h 37.661 v 10.331 h -49.213 z"
   id="path72"
   inkscape:connector-curvature="0"
   style="fill:#ffffff" />
	<path
   d="m 409.546,56.624 h 29.302 c 8.265,0 14.745,2.442 18.971,6.574 3.476,3.569 5.447,8.453 5.447,14.182 v 0.188 c 0,10.801 -6.48,17.281 -15.684,19.911 l 17.75,24.888 H 451.714 L 435.562,99.45 h -14.463 v 22.916 H 409.547 V 56.624 Z m 28.457,32.589 c 8.265,0 13.524,-4.32 13.524,-10.988 v -0.188 c 0,-7.044 -5.072,-10.895 -13.618,-10.895 h -16.812 v 22.071 z"
   id="path74"
   inkscape:connector-curvature="0"
   style="fill:#ffffff" />
	<path
   d="m 559.71,56.154 h 10.707 l 28.927,66.212 h -12.209 l -6.668,-15.872 h -31.086 l -6.763,15.872 h -11.833 z m 16.53,40.103 -11.365,-26.297 -11.27,26.297 z"
   id="path76"
   inkscape:connector-curvature="0"
   style="fill:#ffffff" />
	<path
   d="m 661.225,56.624 h 11.552 v 55.224 h 34.562 v 10.519 H 661.226 V 56.624 Z"
   id="path78"
   inkscape:connector-curvature="0"
   style="fill:#ffffff" />
	<path
   d="m 760.301,56.154 h 10.707 l 28.927,66.212 h -12.209 l -6.669,-15.872 h -31.086 l -6.763,15.872 h -11.833 z m 16.531,40.103 -11.365,-26.297 -11.27,26.297 z"
   id="path80"
   inkscape:connector-curvature="0"
   style="fill:#ffffff" />
	<path
   d="m 871.77,89.683 v -0.188 c 0,-18.689 13.994,-33.998 33.904,-33.998 12.116,0 19.441,4.226 25.734,10.237 l -7.42,8.546 c -5.26,-4.884 -10.895,-8.171 -18.408,-8.171 -12.584,0 -21.694,10.331 -21.694,23.198 v 0.188 c 0,12.867 9.11,23.386 21.694,23.386 8.078,0 13.243,-3.287 18.878,-8.547 l 7.419,7.514 c -6.855,7.138 -14.369,11.646 -26.672,11.646 -19.159,-0.001 -33.435,-14.933 -33.435,-33.811 z"
   id="path82"
   inkscape:connector-curvature="0"
   style="fill:#ffffff" />
	<path
   d="m 984.935,56.154 h 10.706 l 28.928,66.212 h -12.209 l -6.669,-15.872 h -31.087 l -6.762,15.872 h -11.834 z m 16.53,40.103 L 990.1,69.96 978.83,96.257 Z"
   id="path84"
   inkscape:connector-curvature="0"
   style="fill:#ffffff" />
	<path
   d="m 1053.489,56.624 h 11.551 v 55.224 h 34.563 v 10.519 H 1053.49 V 56.624 Z"
   id="path86"
   inkscape:connector-curvature="0"
   style="fill:#ffffff" />
	<path
   d="m 1129.274,56.624 h 11.551 v 55.224 h 34.563 v 10.519 h -46.113 V 56.624 Z"
   id="path88"
   inkscape:connector-curvature="0"
   style="fill:#ffffff" />
	<path
   d="m 1205.059,56.624 h 48.742 v 10.331 h -37.191 v 17.093 h 32.966 v 10.331 h -32.966 v 17.656 h 37.662 v 10.331 h -49.213 z"
   id="path90"
   inkscape:connector-curvature="0"
   style="fill:#ffffff" />
</g>



















<g
   aria-label="100 IDEAS PARA"
   style="font-style:normal;font-variant:normal;font-weight:normal;font-stretch:normal;font-size:25.45642281px;line-height:1.25;font-family:Monserrat;-inkscape-font-specification:Monserrat;letter-spacing:7.76000023px;word-spacing:0px;fill:#000000;fill-opacity:1;stroke:none;stroke-width:0.63641059"
   id="text1326"
   transform="translate(0,-0.93830821)"><path
     d="M 1.5951069,5.3677258 V 1.3201546 H 8.646536 V 19.903343 H 4.1152928 V 5.3677258 Z"
     style="font-style:normal;font-variant:normal;font-weight:bold;font-stretch:normal;font-family:Poppins;-inkscape-font-specification:'Poppins Bold';letter-spacing:7.76000023px;fill:#ffffff;stroke-width:0.63641059"
     id="path1328"
     inkscape:connector-curvature="0" /><path
     d="m 19.409201,10.357185 q 0,-4.3785051 1.680124,-6.8986909 1.705581,-2.52018589 5.473131,-2.52018589 3.767551,0 5.447675,2.52018589 1.70558,2.5201858 1.70558,6.8986909 0,4.429417 -1.70558,6.949603 -1.680124,2.520186 -5.447675,2.520186 -3.76755,0 -5.473131,-2.520186 -1.680124,-2.520186 -1.680124,-6.949603 z m 10.029831,0 q 0,-2.5710991 -0.560041,-3.9457459 -0.560042,-1.4001032 -2.316535,-1.4001032 -1.756493,0 -2.316534,1.4001032 -0.560042,1.3746468 -0.560042,3.9457459 0,1.731036 0.203652,2.876575 0.203651,1.120083 0.814605,1.832863 0.636411,0.687323 1.858319,0.687323 1.221908,0 1.832863,-0.687323 0.63641,-0.71278 0.840062,-1.832863 0.203651,-1.145539 0.203651,-2.876575 z"
     style="font-style:normal;font-variant:normal;font-weight:bold;font-stretch:normal;font-family:Poppins;-inkscape-font-specification:'Poppins Bold';letter-spacing:7.76000023px;fill:#ffffff;stroke-width:0.63641059"
     id="path1330"
     inkscape:connector-curvature="0" /><path
     d="m 43.77554,10.357185 q 0,-4.3785051 1.680124,-6.8986909 1.70558,-2.52018589 5.473131,-2.52018589 3.76755,0 5.447674,2.52018589 1.705581,2.5201858 1.705581,6.8986909 0,4.429417 -1.705581,6.949603 -1.680124,2.520186 -5.447674,2.520186 -3.767551,0 -5.473131,-2.520186 -1.680124,-2.520186 -1.680124,-6.949603 z m 10.029831,0 q 0,-2.5710991 -0.560042,-3.9457459 -0.560041,-1.4001032 -2.316534,-1.4001032 -1.756493,0 -2.316535,1.4001032 -0.560041,1.3746468 -0.560041,3.9457459 0,1.731036 0.203652,2.876575 0.203651,1.120083 0.814605,1.832863 0.636411,0.687323 1.858319,0.687323 1.221908,0 1.832862,-0.687323 0.636411,-0.71278 0.840062,-1.832863 0.203652,-1.145539 0.203652,-2.876575 z"
     style="font-style:normal;font-variant:normal;font-weight:bold;font-stretch:normal;font-family:Poppins;-inkscape-font-specification:'Poppins Bold';letter-spacing:7.76000023px;fill:#ffffff;stroke-width:0.63641059"
     id="path1332"
     inkscape:connector-curvature="0" /><path
     d="M 86.10712,2.0329344 V 19.903343 H 81.754072 V 2.0329344 Z"
     style="font-style:normal;font-variant:normal;font-weight:bold;font-stretch:normal;font-family:Poppins;-inkscape-font-specification:'Poppins Bold';letter-spacing:7.76000023px;fill:#ffffff;stroke-width:0.63641059"
     id="path1334"
     inkscape:connector-curvature="0" /><path
     d="m 103.71677,2.0329344 q 2.82566,0 4.93854,1.1200826 2.11288,1.1200826 3.25842,3.1565964 1.171,2.0110574 1.171,4.6585256 0,2.622011 -1.171,4.658525 -1.14554,2.036514 -3.28387,3.156597 -2.11289,1.120082 -4.91309,1.120082 H 97.021726 V 2.0329344 Z m -0.28003,14.1028586 q 2.46928,0 3.84392,-1.349191 1.37465,-1.34919 1.37465,-3.818463 0,-2.4692732 -1.37465,-3.84392 -1.37464,-1.3746469 -3.84392,-1.3746469 h -2.06197 V 16.135793 Z"
     style="font-style:normal;font-variant:normal;font-weight:bold;font-stretch:normal;font-family:Poppins;-inkscape-font-specification:'Poppins Bold';letter-spacing:7.76000023px;fill:#ffffff;stroke-width:0.63641059"
     id="path1336"
     inkscape:connector-curvature="0" /><path
     d="m 127.63046,5.5204643 v 3.6148121 h 5.82952 v 3.3602476 h -5.82952 v 3.920289 h 6.59321 v 3.48753 H 123.27741 V 2.0329344 h 10.94626 v 3.4875299 z"
     style="font-style:normal;font-variant:normal;font-weight:bold;font-stretch:normal;font-family:Poppins;-inkscape-font-specification:'Poppins Bold';letter-spacing:7.76000023px;fill:#ffffff;stroke-width:0.63641059"
     id="path1338"
     inkscape:connector-curvature="0" /><path
     d="m 155.93419,16.746747 h -6.66958 l -1.06917,3.156596 h -4.5567 l 6.46593,-17.8704086 h 5.04037 l 6.46593,17.8704086 h -4.60761 z m -1.12008,-3.360248 -2.21471,-6.5423007 -2.18925,6.5423007 z"
     style="font-style:normal;font-variant:normal;font-weight:bold;font-stretch:normal;font-family:Poppins;-inkscape-font-specification:'Poppins Bold';letter-spacing:7.76000023px;fill:#ffffff;stroke-width:0.63641059"
     id="path1340"
     inkscape:connector-curvature="0" /><path
     d="m 177.77994,20.081538 q -1.96014,0 -3.51299,-0.63641 -1.55284,-0.636411 -2.49473,-1.883776 -0.91643,-1.247364 -0.96734,-3.003858 h 4.63307 q 0.10182,0.992801 0.68732,1.527386 0.5855,0.509128 1.52739,0.509128 0.96734,0 1.52738,-0.432759 0.56004,-0.458216 0.56004,-1.247365 0,-0.661867 -0.45821,-1.094626 -0.43276,-0.432759 -1.09463,-0.71278 -0.63641,-0.28002 -1.83286,-0.63641 -1.73104,-0.534585 -2.82566,-1.06917 -1.09463,-0.534585 -1.88378,-1.5782982 -0.78915,-1.0437134 -0.78915,-2.7238373 0,-2.4947294 1.80741,-3.8948327 1.8074,-1.4255596 4.70944,-1.4255596 2.95294,0 4.76035,1.4255596 1.8074,1.4001033 1.93469,3.9202892 h -4.70944 q -0.0509,-0.8655184 -0.63641,-1.3491905 -0.5855,-0.5091284 -1.50193,-0.5091284 -0.78915,0 -1.27282,0.4327592 -0.48367,0.4073027 -0.48367,1.1964518 0,0.8655184 0.8146,1.3491905 0.81461,0.483672 2.54564,1.0437133 1.73104,0.5854977 2.80021,1.1200821 1.09463,0.534585 1.88377,1.552842 0.78915,1.018257 0.78915,2.622012 0,1.527385 -0.78915,2.77475 -0.76369,1.247365 -2.24016,1.985601 -1.47647,0.738236 -3.48753,0.738236 z"
     style="font-style:normal;font-variant:normal;font-weight:bold;font-stretch:normal;font-family:Poppins;-inkscape-font-specification:'Poppins Bold';letter-spacing:7.76000023px;fill:#ffffff;stroke-width:0.63641059"
     id="path1342"
     inkscape:connector-curvature="0" /><path
     d="m 221.5343,7.7860859 q 0,1.5528418 -0.71278,2.8511191 -0.71278,1.272821 -2.18925,2.061971 -1.47648,0.789149 -3.66573,0.789149 h -2.69838 v 6.415018 h -4.35305 V 2.0329344 h 7.05143 q 2.13834,0 3.61481,0.7382363 1.47648,0.7382362 2.21471,2.0365138 0.73824,1.2982775 0.73824,2.9784014 z m -6.89869,2.2401651 q 1.24736,0 1.85832,-0.5854976 0.61095,-0.5854977 0.61095,-1.6546675 0,-1.0691697 -0.61095,-1.6546674 -0.61096,-0.5854978 -1.85832,-0.5854978 h -2.36745 v 4.4803303 z"
     style="font-style:normal;font-variant:normal;font-weight:bold;font-stretch:normal;font-family:Poppins;-inkscape-font-specification:'Poppins Bold';letter-spacing:7.76000023px;fill:#ffffff;stroke-width:0.63641059"
     id="path1344"
     inkscape:connector-curvature="0" /><path
     d="m 242.66011,16.746747 h -6.66958 l -1.06917,3.156596 h -4.5567 l 6.46593,-17.8704086 h 5.04038 l 6.46593,17.8704086 h -4.60762 z m -1.12008,-3.360248 -2.21471,-6.5423007 -2.18925,6.5423007 z"
     style="font-style:normal;font-variant:normal;font-weight:bold;font-stretch:normal;font-family:Poppins;-inkscape-font-specification:'Poppins Bold';letter-spacing:7.76000023px;fill:#ffffff;stroke-width:0.63641059"
     id="path1346"
     inkscape:connector-curvature="0" /><path
     d="m 267.15334,19.903343 -3.71663,-6.745952 h -1.04372 v 6.745952 h -4.35304 V 2.0329344 h 7.30599 q 2.11288,0 3.58935,0.7382363 1.50193,0.7382362 2.24017,2.0365138 0.73824,1.2728211 0.73824,2.8511193 0,1.7819496 -1.01826,3.1820532 -0.9928,1.400103 -2.95295,1.985601 l 4.12394,7.076885 z m -4.76035,-9.826179 h 2.69838 q 1.19646,0 1.78195,-0.5854977 0.61096,-0.5854978 0.61096,-1.6546675 0,-1.0182569 -0.61096,-1.6037546 -0.58549,-0.5854978 -1.78195,-0.5854978 h -2.69838 z"
     style="font-style:normal;font-variant:normal;font-weight:bold;font-stretch:normal;font-family:Poppins;-inkscape-font-specification:'Poppins Bold';letter-spacing:7.76000023px;fill:#ffffff;stroke-width:0.63641059"
     id="path1348"
     inkscape:connector-curvature="0" /><path
     d="m 293.53074,16.746747 h -6.66959 l -1.06917,3.156596 h -4.5567 l 6.46593,-17.8704086 h 5.04038 l 6.46593,17.8704086 h -4.60762 z m -1.12009,-3.360248 -2.21471,-6.5423007 -2.18925,6.5423007 z"
     style="font-style:normal;font-variant:normal;font-weight:bold;font-stretch:normal;font-family:Poppins;-inkscape-font-specification:'Poppins Bold';letter-spacing:7.76000023px;fill:#ffffff;stroke-width:0.63641059"
     id="path1350"
     inkscape:connector-curvature="0" /></g></svg>