<?xml version="1.0" encoding="UTF-8" standalone="no"?>
<!-- Generator: Adobe Illustrator 17.0.0, SVG Export Plug-In . SVG Version: 6.00 Build 0)  -->

<svg
   xmlns:dc="http://purl.org/dc/elements/1.1/"
   xmlns:cc="http://creativecommons.org/ns#"
   xmlns:rdf="http://www.w3.org/1999/02/22-rdf-syntax-ns#"
   xmlns:svg="http://www.w3.org/2000/svg"
   xmlns="http://www.w3.org/2000/svg"
   xmlns:sodipodi="http://sodipodi.sourceforge.net/DTD/sodipodi-0.dtd"
   xmlns:inkscape="http://www.inkscape.org/namespaces/inkscape"
   version="1.1"
   id="Layer_1"
   x="0px"
   y="0px"
   viewBox="0 0 897.39001 321.5688"
   enable-background="new 0 0 904.26 325.722"
   xml:space="preserve"
   sodipodi:docname="100ideaspara-mobile.svg"
   inkscape:version="0.92.3 (2405546, 2018-03-11)"><metadata
   id="metadata111"><rdf:RDF><cc:Work
       rdf:about=""><dc:format>image/svg+xml</dc:format><dc:type
         rdf:resource="http://purl.org/dc/dcmitype/StillImage" /><dc:title></dc:title></cc:Work></rdf:RDF></metadata><defs
   id="defs109" /><sodipodi:namedview
   pagecolor="#ffffff"
   bordercolor="#666666"
   borderopacity="1"
   objecttolerance="10"
   gridtolerance="10"
   guidetolerance="10"
   inkscape:pageopacity="0"
   inkscape:pageshadow="2"
   inkscape:window-width="1920"
   inkscape:window-height="1052"
   id="namedview107"
   showgrid="false"
   fit-margin-top="0"
   fit-margin-left="0"
   fit-margin-right="0"
   fit-margin-bottom="0"
   inkscape:zoom="1.0697389"
   inkscape:cx="759.78248"
   inkscape:cy="10.886286"
   inkscape:window-x="0"
   inkscape:window-y="0"
   inkscape:window-maximized="1"
   inkscape:current-layer="Layer_1" />


<rect
   x="323.65512"
   y="11.176773"
   width="571.31183"
   height="3"
   id="rect62"
   style="fill:#ffffff;stroke-width:1.40600777" />
<g
   id="g94"
   transform="translate(-2.893,-4.1542273)">
	<g
   id="g92">
		<path
   d="m 2.893,73.607 h 19.123 l 29.668,75.647 29.528,-75.647 h 18.701 l -40.917,99.13 H 43.81 Z"
   id="path64"
   inkscape:connector-curvature="0"
   style="fill:#ffffff" />
		<path
   d="m 129.445,123.102 v -0.281 c 0,-27.7 21.373,-50.9 51.604,-50.9 30.231,0 51.322,22.919 51.322,50.619 v 0.281 c 0,27.7 -21.373,50.901 -51.604,50.901 -30.231,-0.001 -51.322,-22.92 -51.322,-50.62 z m 84.787,0 v -0.281 c 0,-19.123 -13.92,-35.012 -33.465,-35.012 -19.545,0 -33.184,15.607 -33.184,34.73 v 0.281 c 0,19.123 13.92,35.012 33.465,35.012 19.545,0 33.184,-15.607 33.184,-34.73 z"
   id="path66"
   inkscape:connector-curvature="0"
   style="fill:#ffffff" />
		<path
   d="m 276.385,73.607 h 17.295 v 82.678 h 51.745 v 15.749 h -69.04 z"
   id="path68"
   inkscape:connector-curvature="0"
   style="fill:#ffffff" />
		<path
   d="m 361.878,73.607 h 19.123 l 29.668,75.647 29.528,-75.647 h 18.701 l -40.917,99.13 h -15.186 z"
   id="path70"
   inkscape:connector-curvature="0"
   style="fill:#ffffff" />
		<path
   d="m 498.836,73.607 h 72.977 v 15.467 h -55.682 v 25.591 h 49.354 v 15.467 h -49.354 v 26.435 h 56.385 v 15.467 h -73.68 z"
   id="path72"
   inkscape:connector-curvature="0"
   style="fill:#ffffff" />
		<path
   d="m 616.107,73.607 h 43.87 c 12.374,0 22.076,3.655 28.403,9.842 5.203,5.343 8.155,12.655 8.155,21.232 v 0.281 c 0,16.17 -9.702,25.872 -23.481,29.81 l 26.575,37.262 H 679.24 l -24.185,-34.309 h -21.654 v 34.309 H 616.106 V 73.607 Z m 42.606,48.791 c 12.373,0 20.247,-6.468 20.247,-16.451 v -0.281 c 0,-10.546 -7.593,-16.311 -20.388,-16.311 h -25.17 v 33.043 z"
   id="path74"
   inkscape:connector-curvature="0"
   style="fill:#ffffff" />
		<path
   d="m 840.945,72.904 h 16.03 l 43.308,99.13 h -18.279 l -9.983,-23.763 h -46.542 l -10.124,23.763 h -17.717 z m 24.748,60.04 -17.013,-39.37 -16.874,39.371 h 33.887 z"
   id="path76"
   inkscape:connector-curvature="0"
   style="fill:#ffffff" />
		<path
   d="m 11.328,225.607 h 17.295 v 82.678 h 51.745 v 15.749 h -69.04 z"
   id="path78"
   inkscape:connector-curvature="0"
   style="fill:#ffffff" />
		<path
   d="m 159.673,224.904 h 16.03 l 43.308,99.13 h -18.279 l -9.983,-23.764 h -46.542 l -10.124,23.764 h -17.717 z m 24.747,60.04 -17.014,-39.371 -16.874,39.371 z"
   id="path80"
   inkscape:connector-curvature="0"
   style="fill:#ffffff" />
		<path
   d="m 326.58,275.102 v -0.281 c 0,-27.981 20.951,-50.9 50.76,-50.9 18.139,0 29.106,6.327 38.527,15.326 l -11.108,12.796 c -7.874,-7.312 -16.311,-12.233 -27.56,-12.233 -18.842,0 -32.481,15.467 -32.481,34.73 v 0.281 c 0,19.264 13.639,35.012 32.481,35.012 12.092,0 19.826,-4.921 28.263,-12.795 l 11.108,11.248 c -10.265,10.687 -21.513,17.437 -39.933,17.437 -28.684,-0.001 -50.057,-22.359 -50.057,-50.621 z"
   id="path82"
   inkscape:connector-curvature="0"
   style="fill:#ffffff" />
		<path
   d="m 496.018,224.904 h 16.03 l 43.308,99.13 h -18.279 l -9.983,-23.764 h -46.542 l -10.124,23.764 H 452.71 Z m 24.748,60.04 -17.014,-39.371 -16.874,39.371 z"
   id="path84"
   inkscape:connector-curvature="0"
   style="fill:#ffffff" />
		<path
   d="m 598.666,225.607 h 17.295 v 82.678 h 51.745 v 15.749 h -69.04 z"
   id="path86"
   inkscape:connector-curvature="0"
   style="fill:#ffffff" />
		<path
   d="m 712.14,225.607 h 17.295 v 82.678 h 51.744 v 15.749 H 712.14 Z"
   id="path88"
   inkscape:connector-curvature="0"
   style="fill:#ffffff" />
		<path
   d="m 825.613,225.607 h 72.977 v 15.467 h -55.682 v 25.591 h 49.354 v 15.467 h -49.354 v 26.435 h 56.385 v 15.468 h -73.68 z"
   id="path90"
   inkscape:connector-curvature="0"
   style="fill:#ffffff" />
	</g>
</g>

<g
   aria-label="100 IDEAS PARA"
   style="font-style:normal;font-variant:normal;font-weight:normal;font-stretch:normal;font-size:25.45642281px;line-height:1.25;font-family:Monserrat;-inkscape-font-specification:Monserrat;letter-spacing:7.76000023px;word-spacing:0px;fill:#000000;fill-opacity:1;stroke:none;stroke-width:0.63641059"
   id="text1326"
   transform="translate(2.7037537,-0.93830821)"><path
     d="M 1.5951069,5.3677258 V 1.3201546 H 8.646536 V 19.903343 H 4.1152928 V 5.3677258 Z"
     style="font-style:normal;font-variant:normal;font-weight:bold;font-stretch:normal;font-family:Poppins;-inkscape-font-specification:'Poppins Bold';letter-spacing:7.76000023px;fill:#ffffff;stroke-width:0.63641059"
     id="path1328"
     inkscape:connector-curvature="0" /><path
     d="m 19.409201,10.357185 q 0,-4.3785051 1.680124,-6.8986909 1.705581,-2.52018589 5.473131,-2.52018589 3.767551,0 5.447675,2.52018589 1.70558,2.5201858 1.70558,6.8986909 0,4.429417 -1.70558,6.949603 -1.680124,2.520186 -5.447675,2.520186 -3.76755,0 -5.473131,-2.520186 -1.680124,-2.520186 -1.680124,-6.949603 z m 10.029831,0 q 0,-2.5710991 -0.560041,-3.9457459 -0.560042,-1.4001032 -2.316535,-1.4001032 -1.756493,0 -2.316534,1.4001032 -0.560042,1.3746468 -0.560042,3.9457459 0,1.731036 0.203652,2.876575 0.203651,1.120083 0.814605,1.832863 0.636411,0.687323 1.858319,0.687323 1.221908,0 1.832863,-0.687323 0.63641,-0.71278 0.840062,-1.832863 0.203651,-1.145539 0.203651,-2.876575 z"
     style="font-style:normal;font-variant:normal;font-weight:bold;font-stretch:normal;font-family:Poppins;-inkscape-font-specification:'Poppins Bold';letter-spacing:7.76000023px;fill:#ffffff;stroke-width:0.63641059"
     id="path1330"
     inkscape:connector-curvature="0" /><path
     d="m 43.77554,10.357185 q 0,-4.3785051 1.680124,-6.8986909 1.70558,-2.52018589 5.473131,-2.52018589 3.76755,0 5.447674,2.52018589 1.705581,2.5201858 1.705581,6.8986909 0,4.429417 -1.705581,6.949603 -1.680124,2.520186 -5.447674,2.520186 -3.767551,0 -5.473131,-2.520186 -1.680124,-2.520186 -1.680124,-6.949603 z m 10.029831,0 q 0,-2.5710991 -0.560042,-3.9457459 -0.560041,-1.4001032 -2.316534,-1.4001032 -1.756493,0 -2.316535,1.4001032 -0.560041,1.3746468 -0.560041,3.9457459 0,1.731036 0.203652,2.876575 0.203651,1.120083 0.814605,1.832863 0.636411,0.687323 1.858319,0.687323 1.221908,0 1.832862,-0.687323 0.636411,-0.71278 0.840062,-1.832863 0.203652,-1.145539 0.203652,-2.876575 z"
     style="font-style:normal;font-variant:normal;font-weight:bold;font-stretch:normal;font-family:Poppins;-inkscape-font-specification:'Poppins Bold';letter-spacing:7.76000023px;fill:#ffffff;stroke-width:0.63641059"
     id="path1332"
     inkscape:connector-curvature="0" /><path
     d="M 86.10712,2.0329344 V 19.903343 H 81.754072 V 2.0329344 Z"
     style="font-style:normal;font-variant:normal;font-weight:bold;font-stretch:normal;font-family:Poppins;-inkscape-font-specification:'Poppins Bold';letter-spacing:7.76000023px;fill:#ffffff;stroke-width:0.63641059"
     id="path1334"
     inkscape:connector-curvature="0" /><path
     d="m 103.71677,2.0329344 q 2.82566,0 4.93854,1.1200826 2.11288,1.1200826 3.25842,3.1565964 1.171,2.0110574 1.171,4.6585256 0,2.622011 -1.171,4.658525 -1.14554,2.036514 -3.28387,3.156597 -2.11289,1.120082 -4.91309,1.120082 H 97.021726 V 2.0329344 Z m -0.28003,14.1028586 q 2.46928,0 3.84392,-1.349191 1.37465,-1.34919 1.37465,-3.818463 0,-2.4692732 -1.37465,-3.84392 -1.37464,-1.3746469 -3.84392,-1.3746469 h -2.06197 V 16.135793 Z"
     style="font-style:normal;font-variant:normal;font-weight:bold;font-stretch:normal;font-family:Poppins;-inkscape-font-specification:'Poppins Bold';letter-spacing:7.76000023px;fill:#ffffff;stroke-width:0.63641059"
     id="path1336"
     inkscape:connector-curvature="0" /><path
     d="m 127.63046,5.5204643 v 3.6148121 h 5.82952 v 3.3602476 h -5.82952 v 3.920289 h 6.59321 v 3.48753 H 123.27741 V 2.0329344 h 10.94626 v 3.4875299 z"
     style="font-style:normal;font-variant:normal;font-weight:bold;font-stretch:normal;font-family:Poppins;-inkscape-font-specification:'Poppins Bold';letter-spacing:7.76000023px;fill:#ffffff;stroke-width:0.63641059"
     id="path1338"
     inkscape:connector-curvature="0" /><path
     d="m 155.93419,16.746747 h -6.66958 l -1.06917,3.156596 h -4.5567 l 6.46593,-17.8704086 h 5.04037 l 6.46593,17.8704086 h -4.60761 z m -1.12008,-3.360248 -2.21471,-6.5423007 -2.18925,6.5423007 z"
     style="font-style:normal;font-variant:normal;font-weight:bold;font-stretch:normal;font-family:Poppins;-inkscape-font-specification:'Poppins Bold';letter-spacing:7.76000023px;fill:#ffffff;stroke-width:0.63641059"
     id="path1340"
     inkscape:connector-curvature="0" /><path
     d="m 177.77994,20.081538 q -1.96014,0 -3.51299,-0.63641 -1.55284,-0.636411 -2.49473,-1.883776 -0.91643,-1.247364 -0.96734,-3.003858 h 4.63307 q 0.10182,0.992801 0.68732,1.527386 0.5855,0.509128 1.52739,0.509128 0.96734,0 1.52738,-0.432759 0.56004,-0.458216 0.56004,-1.247365 0,-0.661867 -0.45821,-1.094626 -0.43276,-0.432759 -1.09463,-0.71278 -0.63641,-0.28002 -1.83286,-0.63641 -1.73104,-0.534585 -2.82566,-1.06917 -1.09463,-0.534585 -1.88378,-1.5782982 -0.78915,-1.0437134 -0.78915,-2.7238373 0,-2.4947294 1.80741,-3.8948327 1.8074,-1.4255596 4.70944,-1.4255596 2.95294,0 4.76035,1.4255596 1.8074,1.4001033 1.93469,3.9202892 h -4.70944 q -0.0509,-0.8655184 -0.63641,-1.3491905 -0.5855,-0.5091284 -1.50193,-0.5091284 -0.78915,0 -1.27282,0.4327592 -0.48367,0.4073027 -0.48367,1.1964518 0,0.8655184 0.8146,1.3491905 0.81461,0.483672 2.54564,1.0437133 1.73104,0.5854977 2.80021,1.1200821 1.09463,0.534585 1.88377,1.552842 0.78915,1.018257 0.78915,2.622012 0,1.527385 -0.78915,2.77475 -0.76369,1.247365 -2.24016,1.985601 -1.47647,0.738236 -3.48753,0.738236 z"
     style="font-style:normal;font-variant:normal;font-weight:bold;font-stretch:normal;font-family:Poppins;-inkscape-font-specification:'Poppins Bold';letter-spacing:7.76000023px;fill:#ffffff;stroke-width:0.63641059"
     id="path1342"
     inkscape:connector-curvature="0" /><path
     d="m 221.5343,7.7860859 q 0,1.5528418 -0.71278,2.8511191 -0.71278,1.272821 -2.18925,2.061971 -1.47648,0.789149 -3.66573,0.789149 h -2.69838 v 6.415018 h -4.35305 V 2.0329344 h 7.05143 q 2.13834,0 3.61481,0.7382363 1.47648,0.7382362 2.21471,2.0365138 0.73824,1.2982775 0.73824,2.9784014 z m -6.89869,2.2401651 q 1.24736,0 1.85832,-0.5854976 0.61095,-0.5854977 0.61095,-1.6546675 0,-1.0691697 -0.61095,-1.6546674 -0.61096,-0.5854978 -1.85832,-0.5854978 h -2.36745 v 4.4803303 z"
     style="font-style:normal;font-variant:normal;font-weight:bold;font-stretch:normal;font-family:Poppins;-inkscape-font-specification:'Poppins Bold';letter-spacing:7.76000023px;fill:#ffffff;stroke-width:0.63641059"
     id="path1344"
     inkscape:connector-curvature="0" /><path
     d="m 242.66011,16.746747 h -6.66958 l -1.06917,3.156596 h -4.5567 l 6.46593,-17.8704086 h 5.04038 l 6.46593,17.8704086 h -4.60762 z m -1.12008,-3.360248 -2.21471,-6.5423007 -2.18925,6.5423007 z"
     style="font-style:normal;font-variant:normal;font-weight:bold;font-stretch:normal;font-family:Poppins;-inkscape-font-specification:'Poppins Bold';letter-spacing:7.76000023px;fill:#ffffff;stroke-width:0.63641059"
     id="path1346"
     inkscape:connector-curvature="0" /><path
     d="m 267.15334,19.903343 -3.71663,-6.745952 h -1.04372 v 6.745952 h -4.35304 V 2.0329344 h 7.30599 q 2.11288,0 3.58935,0.7382363 1.50193,0.7382362 2.24017,2.0365138 0.73824,1.2728211 0.73824,2.8511193 0,1.7819496 -1.01826,3.1820532 -0.9928,1.400103 -2.95295,1.985601 l 4.12394,7.076885 z m -4.76035,-9.826179 h 2.69838 q 1.19646,0 1.78195,-0.5854977 0.61096,-0.5854978 0.61096,-1.6546675 0,-1.0182569 -0.61096,-1.6037546 -0.58549,-0.5854978 -1.78195,-0.5854978 h -2.69838 z"
     style="font-style:normal;font-variant:normal;font-weight:bold;font-stretch:normal;font-family:Poppins;-inkscape-font-specification:'Poppins Bold';letter-spacing:7.76000023px;fill:#ffffff;stroke-width:0.63641059"
     id="path1348"
     inkscape:connector-curvature="0" /><path
     d="m 293.53074,16.746747 h -6.66959 l -1.06917,3.156596 h -4.5567 l 6.46593,-17.8704086 h 5.04038 l 6.46593,17.8704086 h -4.60762 z m -1.12009,-3.360248 -2.21471,-6.5423007 -2.18925,6.5423007 z"
     style="font-style:normal;font-variant:normal;font-weight:bold;font-stretch:normal;font-family:Poppins;-inkscape-font-specification:'Poppins Bold';letter-spacing:7.76000023px;fill:#ffffff;stroke-width:0.63641059"
     id="path1350"
     inkscape:connector-curvature="0" /></g></svg>