<?xml version="1.0" encoding="utf-8"?>
<!-- Generator: Adobe Illustrator 17.0.0, SVG Export Plug-In . SVG Version: 6.00 Build 0)  -->
<!DOCTYPE svg PUBLIC "-//W3C//DTD SVG 1.1//EN" "http://www.w3.org/Graphics/SVG/1.1/DTD/svg11.dtd">
<svg version="1.1" id="Layer_1" xmlns="http://www.w3.org/2000/svg" xmlns:xlink="http://www.w3.org/1999/xlink" x="0px" y="0px"
	 width="100%" height="100%" viewBox="0 0 244 60" enable-background="new 0 0 244 60" xml:space="preserve">
<g>
	<rect x="0" y="0" fill="#FFDE11" width="244" height="60"/>
	<g>
		<g>
			<path fill="#010101" d="M37.845,23.55c1.296,0.98,2.191,2.319,2.686,4.018h-2.223c-0.417-1.08-1.088-1.941-2.014-2.582
				c-0.926-0.64-2.061-0.961-3.403-0.961c-1.065,0-2.019,0.259-2.859,0.776c-0.841,0.517-1.505,1.258-1.991,2.223
				s-0.729,2.095-0.729,3.392c0,1.281,0.243,2.4,0.729,3.356c0.486,0.958,1.15,1.694,1.991,2.212
				c0.841,0.517,1.794,0.775,2.859,0.775c1.343,0,2.477-0.32,3.403-0.961c0.926-0.641,1.598-1.501,2.014-2.582h2.223
				c-0.494,1.698-1.389,3.037-2.686,4.018c-1.297,0.98-2.94,1.47-4.932,1.47c-1.528,0-2.879-0.351-4.052-1.053
				s-2.087-1.683-2.743-2.94c-0.656-1.258-0.984-2.689-0.984-4.295c0-1.621,0.328-3.063,0.984-4.33
				c0.656-1.265,1.57-2.249,2.743-2.951s2.524-1.054,4.052-1.054C34.905,22.08,36.548,22.57,37.845,23.55z"/>
			<path fill="#010101" d="M59.55,23.099c1.211,0.71,2.165,1.702,2.859,2.976c0.695,1.273,1.042,2.712,1.042,4.317
				s-0.347,3.045-1.042,4.318c-0.694,1.273-1.647,2.265-2.859,2.975c-1.212,0.71-2.574,1.065-4.086,1.065
				c-1.513,0-2.883-0.355-4.11-1.065s-2.188-1.701-2.882-2.975c-0.694-1.273-1.042-2.713-1.042-4.318s0.348-3.044,1.042-4.317
				c0.695-1.273,1.655-2.266,2.882-2.976s2.597-1.064,4.11-1.064C56.976,22.034,58.338,22.389,59.55,23.099z M52.442,24.777
				c-0.888,0.518-1.583,1.258-2.084,2.223s-0.752,2.095-0.752,3.392c0,1.281,0.251,2.408,0.752,3.38
				c0.501,0.973,1.196,1.718,2.084,2.234c0.887,0.518,1.895,0.775,3.021,0.775c1.111,0,2.11-0.262,2.998-0.787
				c0.887-0.524,1.582-1.269,2.083-2.233s0.752-2.088,0.752-3.369c0-1.297-0.251-2.427-0.752-3.392s-1.196-1.705-2.083-2.223
				c-0.888-0.517-1.887-0.775-2.998-0.775C54.337,24.002,53.33,24.261,52.442,24.777z"/>
			<path fill="#010101" d="M83.616,38.564h-2.107l-8.474-12.896v12.896h-2.107V22.242h2.107l8.474,12.919V22.242h2.107V38.564z"/>
			<path fill="#010101" d="M103.191,23.099c1.211,0.71,2.165,1.702,2.859,2.976c0.695,1.273,1.042,2.712,1.042,4.317
				s-0.347,3.045-1.042,4.318c-0.694,1.273-1.647,2.265-2.859,2.975c-1.212,0.71-2.574,1.065-4.086,1.065
				c-1.513,0-2.883-0.355-4.11-1.065s-2.188-1.701-2.882-2.975c-0.694-1.273-1.042-2.713-1.042-4.318s0.348-3.044,1.042-4.317
				c0.695-1.273,1.655-2.266,2.882-2.976s2.597-1.064,4.11-1.064C100.617,22.034,101.979,22.389,103.191,23.099z M96.083,24.777
				C95.196,25.295,94.501,26.035,94,27s-0.752,2.095-0.752,3.392c0,1.281,0.251,2.408,0.752,3.38
				c0.501,0.973,1.196,1.718,2.084,2.234c0.887,0.518,1.895,0.775,3.021,0.775c1.111,0,2.11-0.262,2.998-0.787
				c0.887-0.524,1.582-1.269,2.083-2.233s0.752-2.088,0.752-3.369c0-1.297-0.251-2.427-0.752-3.392s-1.196-1.705-2.083-2.223
				c-0.888-0.517-1.887-0.775-2.998-0.775C97.978,24.002,96.971,24.261,96.083,24.777z"/>
			<path fill="#010101" d="M126.726,23.55c1.296,0.98,2.191,2.319,2.686,4.018h-2.223c-0.417-1.08-1.089-1.941-2.015-2.582
				c-0.926-0.64-2.061-0.961-3.403-0.961c-1.065,0-2.019,0.259-2.859,0.776c-0.841,0.517-1.505,1.258-1.991,2.223
				s-0.729,2.095-0.729,3.392c0,1.281,0.243,2.4,0.729,3.356c0.486,0.958,1.15,1.694,1.991,2.212
				c0.841,0.517,1.794,0.775,2.859,0.775c1.342,0,2.477-0.32,3.403-0.961s1.598-1.501,2.015-2.582h2.223
				c-0.494,1.698-1.39,3.037-2.686,4.018c-1.297,0.98-2.94,1.47-4.932,1.47c-1.528,0-2.879-0.351-4.052-1.053
				s-2.087-1.683-2.743-2.94c-0.656-1.258-0.984-2.689-0.984-4.295c0-1.621,0.328-3.063,0.984-4.33
				c0.656-1.265,1.57-2.249,2.743-2.951s2.524-1.054,4.052-1.054C123.785,22.08,125.429,22.57,126.726,23.55z"/>
			<path fill="#010101" d="M138.973,23.955v5.58h6.205v1.62h-6.205v5.696h6.898v1.713h-9.006V22.242h9.006v1.713H138.973z"/>
			<path fill="#010101" d="M179.906,22.52v16.045h-2.107V25.762l-5.117,12.803h-1.875l-5.14-12.757v12.757h-2.106V22.52h2.523
				l5.695,13.475l5.604-13.475H179.906z"/>
			<path fill="#010101" d="M197.478,34.791h-7.177l-1.366,3.773h-2.269l6.042-16.021h2.385l6.02,16.021h-2.269L197.478,34.791z
				 M196.875,33.146l-2.986-8.242l-2.986,8.242H196.875z M197.686,18.515l-4.932,2.709v-1.505l4.932-2.917V18.515z"/>
			<path fill="#010101" d="M217.643,36.48c-0.37,0.664-0.934,1.204-1.689,1.621c-0.757,0.417-1.69,0.625-2.802,0.625
				c-1.081,0-2.042-0.197-2.882-0.591c-0.842-0.394-1.514-0.934-2.015-1.62c-0.502-0.687-0.792-1.471-0.868-2.351h2.246
				c0.046,0.464,0.204,0.915,0.475,1.354c0.27,0.44,0.655,0.803,1.157,1.089c0.501,0.285,1.107,0.428,1.817,0.428
				c0.926,0,1.636-0.246,2.13-0.74c0.493-0.494,0.741-1.127,0.741-1.898c0-0.664-0.174-1.204-0.521-1.621s-0.775-0.744-1.285-0.984
				c-0.509-0.238-1.203-0.497-2.083-0.775c-1.034-0.339-1.864-0.659-2.489-0.961c-0.625-0.301-1.157-0.752-1.598-1.354
				c-0.439-0.602-0.66-1.396-0.66-2.384c0-0.85,0.205-1.598,0.614-2.246s0.995-1.149,1.76-1.505
				c0.764-0.355,1.663-0.532,2.696-0.532c1.605,0,2.879,0.39,3.82,1.169s1.49,1.771,1.645,2.975h-2.27
				c-0.123-0.648-0.455-1.219-0.995-1.713s-1.273-0.741-2.2-0.741c-0.848,0-1.527,0.22-2.037,0.66
				c-0.509,0.439-0.764,1.062-0.764,1.863c0,0.634,0.166,1.146,0.498,1.54s0.744,0.702,1.238,0.926
				c0.494,0.225,1.173,0.475,2.037,0.753c1.05,0.34,1.895,0.664,2.535,0.973s1.186,0.775,1.633,1.4s0.672,1.455,0.672,2.488
				C218.199,35.1,218.014,35.817,217.643,36.48z"/>
		</g>
	</g>
</g>
</svg>
