<?xml version="1.0" encoding="utf-8"?>
<!-- Generator: Adobe Illustrator 17.0.0, SVG Export Plug-In . SVG Version: 6.00 Build 0)  -->
<!DOCTYPE svg PUBLIC "-//W3C//DTD SVG 1.1//EN" "http://www.w3.org/Graphics/SVG/1.1/DTD/svg11.dtd">
<svg version="1.1" id="Layer_1" xmlns="http://www.w3.org/2000/svg" xmlns:xlink="http://www.w3.org/1999/xlink" x="0px" y="0px"
	 viewBox="0 0 1254.41 57.21" enable-background="new 0 0 1254.41 57.21" xml:space="preserve">
<g>
	<path fill="#FFFFFF" d="M28.981,18.788c3.052,2.489,4.977,5.907,5.771,10.257H23.398c-0.335-1.506-1.025-2.676-2.07-3.513
		c-1.046-0.836-2.363-1.255-3.952-1.255c-1.882,0-3.43,0.743-4.642,2.227c-1.213,1.485-1.819,3.649-1.819,6.492
		c0,2.844,0.606,5.009,1.819,6.493c1.212,1.485,2.76,2.227,4.642,2.227c1.589,0,2.906-0.418,3.952-1.255
		c1.045-0.836,1.735-2.007,2.07-3.513h11.354c-0.795,4.35-2.719,7.769-5.771,10.256c-3.053,2.489-6.837,3.733-11.354,3.733
		c-3.43,0-6.472-0.721-9.127-2.164c-2.656-1.443-4.736-3.523-6.242-6.242C0.753,39.813,0,36.635,0,32.996
		c0-3.679,0.742-6.869,2.227-9.566c1.484-2.697,3.565-4.768,6.242-6.21c2.676-1.443,5.729-2.164,9.159-2.164
		C22.144,15.055,25.928,16.3,28.981,18.788z"/>
	<path fill="#FFFFFF" d="M41.089,1.6c1.17-1.066,2.718-1.6,4.642-1.6c1.923,0,3.471,0.533,4.642,1.6
		c1.17,1.067,1.757,2.415,1.757,4.046c0,1.59-0.586,2.917-1.757,3.983c-1.171,1.066-2.719,1.6-4.642,1.6
		c-1.924,0-3.472-0.533-4.642-1.6c-1.171-1.066-1.757-2.394-1.757-3.983C39.332,4.015,39.917,2.666,41.089,1.6z M51.063,15.495
		v35.004H40.336V15.495H51.063z"/>
	<path fill="#FFFFFF" d="M93.28,15.495v35.004H82.49v-6.336c-1.004,2.049-2.5,3.68-4.485,4.893
		c-1.987,1.214-4.297,1.819-6.932,1.819c-4.015,0-7.204-1.338-9.566-4.015c-2.363-2.676-3.544-6.356-3.544-11.041V15.495h10.664
		v19.007c0,2.384,0.617,4.234,1.851,5.552c1.233,1.317,2.896,1.976,4.987,1.976c2.174,0,3.889-0.69,5.144-2.07
		c1.254-1.38,1.882-3.345,1.882-5.897V15.495H93.28z"/>
	<path fill="#FFFFFF" d="M120.88,16.875c1.923,1.213,3.325,2.865,4.203,4.956V4.078h10.727v46.421h-10.727v-6.336
		c-0.878,2.092-2.28,3.743-4.203,4.956c-1.924,1.213-4.225,1.819-6.9,1.819c-2.886,0-5.468-0.721-7.747-2.164
		c-2.28-1.443-4.078-3.523-5.395-6.242c-1.317-2.718-1.976-5.897-1.976-9.535c0-3.679,0.659-6.869,1.976-9.566
		c1.317-2.697,3.115-4.768,5.395-6.21c2.279-1.443,4.861-2.164,7.747-2.164C116.656,15.055,118.957,15.662,120.88,16.875z
		 M111.878,26.723c-1.401,1.506-2.102,3.597-2.102,6.273c0,2.677,0.7,4.768,2.102,6.273c1.401,1.506,3.251,2.258,5.552,2.258
		c2.258,0,4.109-0.773,5.552-2.321c1.443-1.547,2.164-3.617,2.164-6.21c0-2.635-0.721-4.715-2.164-6.242
		c-1.443-1.526-3.293-2.29-5.552-2.29C115.13,24.465,113.279,25.218,111.878,26.723z"/>
	<path fill="#FFFFFF" d="M163.412,16.875c1.923,1.213,3.345,2.865,4.266,4.956v-6.336h10.664v35.004h-10.664v-6.336
		c-0.92,2.092-2.343,3.743-4.266,4.956c-1.924,1.213-4.225,1.819-6.9,1.819c-2.886,0-5.468-0.721-7.747-2.164
		c-2.28-1.443-4.078-3.523-5.395-6.242c-1.317-2.718-1.976-5.897-1.976-9.535c0-3.679,0.659-6.869,1.976-9.566
		c1.317-2.697,3.115-4.768,5.395-6.21c2.279-1.443,4.861-2.164,7.747-2.164C159.187,15.055,161.488,15.662,163.412,16.875z
		 M154.41,26.723c-1.401,1.506-2.102,3.597-2.102,6.273c0,2.677,0.7,4.768,2.102,6.273c1.401,1.506,3.251,2.258,5.552,2.258
		c2.258,0,4.109-0.773,5.552-2.321c1.443-1.547,2.164-3.617,2.164-6.21c0-2.635-0.721-4.715-2.164-6.242
		c-1.443-1.526-3.293-2.29-5.552-2.29C157.661,24.465,155.811,25.218,154.41,26.723z"/>
	<path fill="#FFFFFF" d="M205.942,16.875c1.923,1.213,3.325,2.865,4.203,4.956V4.078h10.727v46.421h-10.727v-6.336
		c-0.878,2.092-2.28,3.743-4.203,4.956c-1.924,1.213-4.225,1.819-6.9,1.819c-2.886,0-5.468-0.721-7.747-2.164
		c-2.28-1.443-4.078-3.523-5.395-6.242c-1.317-2.718-1.976-5.897-1.976-9.535c0-3.679,0.659-6.869,1.976-9.566
		c1.317-2.697,3.115-4.768,5.395-6.21c2.279-1.443,4.861-2.164,7.747-2.164C201.718,15.055,204.019,15.662,205.942,16.875z
		 M196.94,26.723c-1.401,1.506-2.102,3.597-2.102,6.273c0,2.677,0.7,4.768,2.102,6.273c1.401,1.506,3.251,2.258,5.552,2.258
		c2.258,0,4.109-0.773,5.552-2.321c1.443-1.547,2.164-3.617,2.164-6.21c0-2.635-0.721-4.715-2.164-6.242
		c-1.443-1.526-3.293-2.29-5.552-2.29C200.192,24.465,198.341,25.218,196.94,26.723z"/>
	<path fill="#FFFFFF" d="M261.208,34.941h-24.277c0.125,2.635,0.794,4.527,2.007,5.677c1.212,1.151,2.76,1.725,4.642,1.725
		c1.589,0,2.906-0.397,3.952-1.192c1.045-0.794,1.735-1.819,2.07-3.074h11.354c-0.46,2.468-1.464,4.673-3.011,6.618
		c-1.547,1.945-3.513,3.472-5.896,4.579c-2.384,1.108-5.04,1.662-7.967,1.662c-3.43,0-6.472-0.721-9.127-2.164
		c-2.656-1.443-4.736-3.523-6.242-6.242c-1.505-2.718-2.258-5.897-2.258-9.535c0-3.679,0.742-6.869,2.227-9.566
		c1.484-2.697,3.565-4.768,6.242-6.21c2.676-1.443,5.729-2.164,9.159-2.164c3.471,0,6.524,0.712,9.159,2.133
		c2.635,1.422,4.673,3.419,6.116,5.991c1.443,2.572,2.164,5.531,2.164,8.876C261.521,32.934,261.417,33.896,261.208,34.941z
		 M248.819,25.249c-1.276-1.15-2.854-1.725-4.736-1.725c-1.966,0-3.597,0.586-4.893,1.756c-1.297,1.171-2.029,2.886-2.195,5.144
		h13.675C250.71,28.125,250.094,26.4,248.819,25.249z"/>
	<path fill="#FFFFFF" d="M290.471,18.38c2.655,2.217,4.317,5.144,4.987,8.782h-10.037c-0.293-1.421-0.952-2.541-1.976-3.356
		c-1.025-0.815-2.311-1.223-3.858-1.223c-1.213,0-2.133,0.261-2.76,0.784c-0.627,0.523-0.941,1.265-0.941,2.227
		c0,1.088,0.574,1.904,1.725,2.447c1.15,0.544,2.958,1.088,5.426,1.631c2.676,0.627,4.872,1.265,6.586,1.913
		c1.714,0.649,3.2,1.705,4.454,3.168c1.254,1.464,1.882,3.429,1.882,5.897c0,2.007-0.544,3.785-1.631,5.332
		c-1.088,1.548-2.656,2.76-4.705,3.638c-2.049,0.878-4.475,1.317-7.276,1.317c-4.727,0-8.511-1.045-11.354-3.137
		c-2.844-2.091-4.579-5.081-5.207-8.97h10.351c0.167,1.506,0.805,2.656,1.913,3.45c1.108,0.795,2.541,1.192,4.297,1.192
		c1.212,0,2.133-0.282,2.76-0.847c0.627-0.564,0.941-1.306,0.941-2.227c0-1.212-0.576-2.08-1.725-2.603
		c-1.151-0.522-3.022-1.076-5.615-1.662c-2.593-0.543-4.726-1.129-6.398-1.757c-1.673-0.627-3.116-1.641-4.329-3.042
		c-1.213-1.401-1.819-3.314-1.819-5.74c0-3.136,1.192-5.677,3.576-7.622s5.75-2.917,10.1-2.917
		C284.271,15.055,287.815,16.164,290.471,18.38z"/>
	<path fill="#FFFFFF" d="M341.627,18.788c3.052,2.489,4.977,5.907,5.771,10.257h-11.354c-0.335-1.506-1.025-2.676-2.07-3.513
		c-1.046-0.836-2.363-1.255-3.952-1.255c-1.882,0-3.43,0.743-4.642,2.227c-1.213,1.485-1.819,3.649-1.819,6.492
		c0,2.844,0.606,5.009,1.819,6.493c1.212,1.485,2.76,2.227,4.642,2.227c1.589,0,2.906-0.418,3.952-1.255
		c1.045-0.836,1.735-2.007,2.07-3.513h11.354c-0.795,4.35-2.719,7.769-5.771,10.256c-3.053,2.489-6.837,3.733-11.354,3.733
		c-3.43,0-6.472-0.721-9.127-2.164c-2.656-1.443-4.736-3.523-6.242-6.242c-1.505-2.718-2.258-5.897-2.258-9.535
		c0-3.679,0.742-6.869,2.227-9.566c1.484-2.697,3.565-4.768,6.242-6.21c2.676-1.443,5.729-2.164,9.159-2.164
		C334.79,15.055,338.574,16.3,341.627,18.788z"/>
	<path fill="#FFFFFF" d="M378.669,17.22c2.739,1.443,4.893,3.524,6.461,6.242c1.568,2.719,2.353,5.897,2.353,9.535
		c0,3.638-0.784,6.817-2.353,9.535c-1.568,2.719-3.723,4.799-6.461,6.242c-2.739,1.443-5.845,2.164-9.315,2.164
		c-3.472,0-6.586-0.721-9.347-2.164s-4.924-3.523-6.493-6.242c-1.568-2.718-2.353-5.897-2.353-9.535
		c0-3.638,0.784-6.816,2.353-9.535c1.568-2.718,3.732-4.799,6.493-6.242c2.76-1.443,5.875-2.164,9.347-2.164
		C372.825,15.055,375.93,15.777,378.669,17.22z M364.179,26.567c-1.401,1.485-2.102,3.628-2.102,6.43c0,2.802,0.7,4.935,2.102,6.399
		c1.401,1.464,3.126,2.196,5.175,2.196c2.049,0,3.764-0.731,5.144-2.196c1.38-1.463,2.07-3.596,2.07-6.399
		c0-2.801-0.69-4.945-2.07-6.43c-1.38-1.484-3.095-2.227-5.144-2.227C367.305,24.34,365.58,25.083,364.179,26.567z"/>
	<path fill="#FFFFFF" d="M448.583,19.102c2.467,2.656,3.701,6.347,3.701,11.072v20.325H441.62v-19.07
		c0-2.216-0.596-3.941-1.788-5.175c-1.192-1.233-2.813-1.851-4.862-1.851c-2.133,0-3.816,0.659-5.05,1.976
		c-1.234,1.317-1.851,3.168-1.851,5.552v18.568h-10.727v-19.07c0-2.216-0.586-3.941-1.757-5.175
		c-1.171-1.233-2.781-1.851-4.83-1.851c-2.133,0-3.827,0.649-5.081,1.945c-1.255,1.297-1.882,3.158-1.882,5.583v18.568h-10.727
		V15.495h10.727v5.959c0.919-1.965,2.331-3.513,4.234-4.642c1.902-1.129,4.129-1.694,6.681-1.694c2.676,0,5.039,0.617,7.088,1.851
		c2.049,1.234,3.596,3.001,4.642,5.301c1.212-2.174,2.875-3.91,4.987-5.207c2.111-1.296,4.443-1.945,6.994-1.945
		C442.727,15.118,446.114,16.446,448.583,19.102z"/>
	<path fill="#FFFFFF" d="M494.25,15.495v35.004h-10.79v-6.336c-1.004,2.049-2.5,3.68-4.485,4.893
		c-1.987,1.214-4.297,1.819-6.932,1.819c-4.015,0-7.204-1.338-9.566-4.015c-2.363-2.676-3.544-6.356-3.544-11.041V15.495h10.664
		v19.007c0,2.384,0.617,4.234,1.851,5.552c1.233,1.317,2.896,1.976,4.987,1.976c2.174,0,3.889-0.69,5.144-2.07
		c1.254-1.38,1.882-3.345,1.882-5.897V15.495H494.25z"/>
	<path fill="#FFFFFF" d="M533.425,19.133c2.362,2.677,3.544,6.357,3.544,11.041v20.325h-10.727v-19.07
		c0-2.342-0.618-4.172-1.851-5.489c-1.234-1.317-2.876-1.976-4.924-1.976c-2.175,0-3.9,0.69-5.175,2.07
		c-1.276,1.38-1.913,3.346-1.913,5.896v18.568h-10.727V15.495h10.727v6.398c1.003-2.091,2.498-3.742,4.485-4.956
		c1.986-1.212,4.318-1.819,6.995-1.819C527.873,15.118,531.062,16.457,533.425,19.133z"/>
	<path fill="#FFFFFF" d="M576.991,34.941h-24.277c0.125,2.635,0.794,4.527,2.007,5.677c1.212,1.151,2.76,1.725,4.642,1.725
		c1.589,0,2.906-0.397,3.952-1.192c1.045-0.794,1.735-1.819,2.07-3.074h11.354c-0.46,2.468-1.464,4.673-3.011,6.618
		c-1.547,1.945-3.513,3.472-5.896,4.579c-2.384,1.108-5.04,1.662-7.967,1.662c-3.43,0-6.472-0.721-9.127-2.164
		c-2.656-1.443-4.736-3.523-6.242-6.242c-1.505-2.718-2.258-5.897-2.258-9.535c0-3.679,0.742-6.869,2.227-9.566
		c1.484-2.697,3.565-4.768,6.242-6.21c2.676-1.443,5.729-2.164,9.159-2.164c3.471,0,6.524,0.712,9.159,2.133
		c2.635,1.422,4.673,3.419,6.116,5.991c1.443,2.572,2.164,5.531,2.164,8.876C577.304,32.934,577.199,33.896,576.991,34.941z
		 M564.602,25.249c-1.276-1.15-2.854-1.725-4.736-1.725c-1.966,0-3.597,0.586-4.893,1.756c-1.297,1.171-2.029,2.886-2.195,5.144
		h13.675C566.493,28.125,565.876,26.4,564.602,25.249z"/>
	<path fill="#FFFFFF" d="M606.254,18.38c2.655,2.217,4.317,5.144,4.987,8.782h-10.037c-0.293-1.421-0.952-2.541-1.976-3.356
		c-1.025-0.815-2.311-1.223-3.858-1.223c-1.213,0-2.133,0.261-2.76,0.784c-0.627,0.523-0.941,1.265-0.941,2.227
		c0,1.088,0.574,1.904,1.725,2.447c1.15,0.544,2.958,1.088,5.426,1.631c2.676,0.627,4.872,1.265,6.586,1.913
		c1.714,0.649,3.2,1.705,4.454,3.168c1.254,1.464,1.882,3.429,1.882,5.897c0,2.007-0.544,3.785-1.631,5.332
		c-1.088,1.548-2.656,2.76-4.705,3.638c-2.049,0.878-4.475,1.317-7.276,1.317c-4.727,0-8.511-1.045-11.354-3.137
		c-2.844-2.091-4.579-5.081-5.207-8.97h10.351c0.167,1.506,0.805,2.656,1.913,3.45c1.108,0.795,2.541,1.192,4.297,1.192
		c1.212,0,2.133-0.282,2.76-0.847c0.627-0.564,0.941-1.306,0.941-2.227c0-1.212-0.576-2.08-1.725-2.603
		c-1.151-0.522-3.022-1.076-5.615-1.662c-2.593-0.543-4.726-1.129-6.398-1.757c-1.673-0.627-3.116-1.641-4.329-3.042
		c-1.213-1.401-1.819-3.314-1.819-5.74c0-3.136,1.192-5.677,3.576-7.622s5.75-2.917,10.1-2.917
		C600.053,15.055,603.598,16.164,606.254,18.38z"/>
	<path fill="#FFFFFF" d="M636.208,57.21h-5.771V0.565h5.771V57.21z"/>
	<path fill="#FFFFFF" d="M657.284,3.419c0.71-0.648,1.651-0.972,2.823-0.972c1.17,0,2.111,0.324,2.823,0.972
		c0.711,0.649,1.067,1.496,1.067,2.541c0,1.046-0.356,1.893-1.067,2.541c-0.711,0.649-1.652,0.972-2.823,0.972
		c-1.171,0-2.112-0.323-2.823-0.972c-0.711-0.648-1.066-1.495-1.066-2.541C656.217,4.915,656.572,4.068,657.284,3.419z
		 M662.929,16.059v34.439h-5.708V16.059H662.929z"/>
	<path fill="#FFFFFF" d="M699.94,19.353c2.467,2.572,3.701,6.284,3.701,11.135v20.011h-5.708V30.989
		c0-3.428-0.878-6.063-2.635-7.904c-1.756-1.84-4.14-2.76-7.151-2.76c-3.136,0-5.646,1.014-7.527,3.042
		c-1.882,2.029-2.823,4.987-2.823,8.876v18.255h-5.708V16.059h5.708v8.155c0.878-2.801,2.436-4.956,4.674-6.461
		c2.237-1.506,4.819-2.258,7.747-2.258C694.232,15.495,697.473,16.781,699.94,19.353z"/>
	<path fill="#FFFFFF" d="M738.582,19.133c2.886,2.343,4.663,5.479,5.333,9.409h-6.022c-0.418-2.467-1.558-4.401-3.418-5.802
		c-1.861-1.401-4.172-2.102-6.932-2.102c-2.007,0-3.837,0.461-5.489,1.38c-1.652,0.92-2.979,2.332-3.983,4.234
		c-1.004,1.903-1.505,4.256-1.505,7.057c0,2.802,0.501,5.155,1.505,7.057c1.004,1.904,2.331,3.315,3.983,4.234
		c1.651,0.92,3.481,1.38,5.489,1.38c2.76,0,5.071-0.711,6.932-2.133c1.86-1.421,3-3.366,3.418-5.834h6.022
		c-0.669,3.974-2.447,7.12-5.333,9.441c-2.885,2.321-6.524,3.482-10.915,3.482c-3.304,0-6.232-0.711-8.782-2.133
		c-2.551-1.421-4.548-3.46-5.991-6.116c-1.443-2.655-2.164-5.781-2.164-9.378c0-3.596,0.721-6.733,2.164-9.41
		c1.443-2.676,3.439-4.725,5.991-6.147c2.55-1.421,5.478-2.133,8.782-2.133C732.058,15.62,735.697,16.791,738.582,19.133z"/>
	<path fill="#FFFFFF" d="M781.991,16.059v34.439h-5.708v-8.092c-0.878,2.802-2.437,4.946-4.673,6.43
		c-2.238,1.485-4.841,2.227-7.81,2.227c-3.974,0-7.193-1.286-9.661-3.858c-2.468-2.572-3.701-6.262-3.701-11.072V16.059h5.708
		v19.509c0,3.43,0.878,6.075,2.635,7.936c1.756,1.861,4.14,2.792,7.151,2.792c3.137,0,5.646-1.014,7.528-3.042
		c1.882-2.028,2.823-4.987,2.823-8.876V16.059H781.991z"/>
	<path fill="#FFFFFF" d="M818.311,17.753c2.384,1.422,4.255,3.472,5.614,6.147c1.359,2.677,2.039,5.813,2.039,9.41
		c0,3.597-0.68,6.723-2.039,9.378c-1.359,2.656-3.23,4.695-5.614,6.116c-2.384,1.422-5.103,2.133-8.155,2.133
		c-3.347,0-6.179-0.847-8.5-2.541c-2.321-1.694-3.921-3.921-4.799-6.681v8.782h-5.708V4.078h5.708v20.764
		c0.878-2.76,2.478-4.987,4.799-6.681c2.321-1.694,5.153-2.541,8.5-2.541C813.208,15.62,815.927,16.332,818.311,17.753z
		 M802.503,22.238c-1.799,1.025-3.199,2.5-4.203,4.423c-1.003,1.924-1.505,4.14-1.505,6.649s0.502,4.716,1.505,6.618
		c1.004,1.903,2.404,3.378,4.203,4.422c1.798,1.046,3.805,1.568,6.022,1.568c3.554,0,6.388-1.118,8.5-3.356
		c2.111-2.237,3.168-5.321,3.168-9.253c0-3.93-1.057-7.015-3.168-9.253c-2.112-2.237-4.946-3.356-8.5-3.356
		C806.308,20.701,804.301,21.214,802.503,22.238z"/>
	<path fill="#FFFFFF" d="M856.043,18.129c2.321,1.673,3.941,3.911,4.861,6.712v-8.782h5.708v34.439h-5.708v-8.782
		c-0.92,2.802-2.541,5.04-4.861,6.712c-2.321,1.673-5.155,2.509-8.5,2.509c-3.053,0-5.771-0.711-8.155-2.133
		c-2.384-1.421-4.256-3.46-5.614-6.116c-1.359-2.655-2.039-5.781-2.039-9.378c0-3.596,0.679-6.733,2.039-9.41
		c1.358-2.676,3.23-4.725,5.614-6.147c2.384-1.421,5.102-2.133,8.155-2.133C850.889,15.62,853.722,16.457,856.043,18.129z
		 M840.737,24.057c-2.112,2.238-3.168,5.322-3.168,9.253c0,3.931,1.056,7.016,3.168,9.253c2.111,2.238,4.924,3.356,8.437,3.356
		c2.258,0,4.275-0.522,6.054-1.568c1.777-1.045,3.168-2.519,4.171-4.422c1.004-1.903,1.505-4.109,1.505-6.618
		s-0.501-4.725-1.505-6.649c-1.003-1.923-2.395-3.397-4.171-4.423c-1.778-1.024-3.795-1.537-6.054-1.537
		C845.662,20.701,842.848,21.821,840.737,24.057z"/>
	<path fill="#FFFFFF" d="M898.324,18.129c2.321,1.673,3.941,3.911,4.861,6.712V4.078h5.708v46.421h-5.708v-8.782
		c-0.92,2.802-2.541,5.04-4.861,6.712c-2.321,1.673-5.155,2.509-8.5,2.509c-3.053,0-5.771-0.711-8.155-2.133
		c-2.384-1.421-4.256-3.46-5.614-6.116c-1.359-2.655-2.039-5.781-2.039-9.378c0-3.596,0.679-6.733,2.039-9.41
		c1.358-2.676,3.23-4.725,5.614-6.147c2.384-1.421,5.102-2.133,8.155-2.133C893.169,15.62,896.002,16.457,898.324,18.129z
		 M883.018,24.057c-2.112,2.238-3.168,5.322-3.168,9.253c0,3.931,1.056,7.016,3.168,9.253c2.111,2.238,4.924,3.356,8.437,3.356
		c2.258,0,4.275-0.522,6.054-1.568c1.777-1.045,3.168-2.519,4.171-4.422c1.004-1.903,1.505-4.109,1.505-6.618
		s-0.501-4.725-1.505-6.649c-1.003-1.923-2.395-3.397-4.171-4.423c-1.778-1.024-3.795-1.537-6.054-1.537
		C887.942,20.701,885.128,21.821,883.018,24.057z"/>
	<path fill="#FFFFFF" d="M942.486,17.753c2.613,1.422,4.663,3.472,6.147,6.147c1.484,2.677,2.227,5.813,2.227,9.41
		c0,3.597-0.743,6.723-2.227,9.378c-1.485,2.656-3.534,4.695-6.147,6.116c-2.614,1.422-5.573,2.133-8.876,2.133
		c-3.304,0-6.263-0.711-8.876-2.133c-2.614-1.421-4.673-3.46-6.179-6.116c-1.506-2.655-2.258-5.781-2.258-9.378
		c0-3.596,0.752-6.733,2.258-9.41c1.505-2.676,3.565-4.725,6.179-6.147c2.613-1.421,5.572-2.133,8.876-2.133
		C936.913,15.62,939.872,16.332,942.486,17.753z M927.932,22.019c-1.736,0.92-3.136,2.332-4.203,4.234
		c-1.066,1.903-1.6,4.256-1.6,7.057c0,2.76,0.533,5.092,1.6,6.994c1.066,1.904,2.467,3.315,4.203,4.234
		c1.735,0.92,3.628,1.38,5.677,1.38c2.049,0,3.941-0.46,5.677-1.38c1.735-0.919,3.136-2.331,4.203-4.234
		c1.066-1.902,1.6-4.234,1.6-6.994c0-2.801-0.533-5.154-1.6-7.057c-1.067-1.903-2.468-3.314-4.203-4.234
		c-1.736-0.919-3.628-1.38-5.677-1.38C931.56,20.638,929.667,21.099,927.932,22.019z"/>
	<path fill="#FFFFFF" d="M968.989,17.471c2.174-1.317,4.768-1.976,7.778-1.976v6.21h-1.756c-3.221,0-5.855,0.826-7.904,2.478
		c-2.05,1.653-3.074,4.381-3.074,8.186v18.129h-5.708V16.059h5.708v6.963C965.163,20.638,966.814,18.788,968.989,17.471z"/>
	<path fill="#FFFFFF" d="M1005.027,18.129c2.321,1.673,3.941,3.911,4.861,6.712v-8.782h5.708v34.439h-5.708v-8.782
		c-0.92,2.802-2.541,5.04-4.861,6.712c-2.321,1.673-5.155,2.509-8.5,2.509c-3.053,0-5.771-0.711-8.155-2.133
		c-2.384-1.421-4.256-3.46-5.614-6.116c-1.359-2.655-2.039-5.781-2.039-9.378c0-3.596,0.679-6.733,2.039-9.41
		c1.358-2.676,3.23-4.725,5.614-6.147c2.384-1.421,5.102-2.133,8.155-2.133C999.872,15.62,1002.706,16.457,1005.027,18.129z
		 M989.721,24.057c-2.112,2.238-3.168,5.322-3.168,9.253c0,3.931,1.056,7.016,3.168,9.253c2.111,2.238,4.924,3.356,8.437,3.356
		c2.258,0,4.275-0.522,6.054-1.568c1.777-1.045,3.168-2.519,4.171-4.422c1.004-1.903,1.505-4.109,1.505-6.618
		s-0.501-4.725-1.505-6.649c-1.003-1.923-2.395-3.397-4.171-4.423c-1.778-1.024-3.795-1.537-6.054-1.537
		C994.645,20.701,991.832,21.821,989.721,24.057z"/>
	<path fill="#FFFFFF" d="M1071.615,34.502h-27.539c0.125,3.931,1.244,6.88,3.356,8.845c2.111,1.966,4.694,2.948,7.747,2.948
		c2.76,0,5.071-0.7,6.932-2.102c1.86-1.401,3-3.272,3.418-5.615h6.085c-0.418,2.384-1.349,4.517-2.792,6.399
		s-3.315,3.346-5.614,4.391c-2.3,1.046-4.893,1.568-7.779,1.568c-3.304,0-6.232-0.711-8.782-2.133
		c-2.551-1.421-4.548-3.46-5.991-6.116c-1.443-2.655-2.164-5.781-2.164-9.378c0-3.596,0.721-6.733,2.164-9.41
		c1.443-2.676,3.439-4.725,5.991-6.147c2.55-1.421,5.478-2.133,8.782-2.133c3.345,0,6.262,0.711,8.751,2.133
		c2.488,1.422,4.391,3.325,5.708,5.708s1.976,5.018,1.976,7.904C1071.866,32.579,1071.781,33.624,1071.615,34.502z M1064.84,25.343
		c-0.962-1.714-2.28-2.99-3.952-3.827c-1.673-0.836-3.492-1.254-5.458-1.254c-3.136,0-5.771,0.972-7.904,2.917
		c-2.133,1.945-3.284,4.799-3.45,8.563h22.019C1066.22,29.191,1065.801,27.059,1064.84,25.343z"/>
	<path fill="#FFFFFF" d="M1107.183,19.353c2.467,2.572,3.701,6.284,3.701,11.135v20.011h-5.708V30.989
		c0-3.428-0.878-6.063-2.635-7.904c-1.756-1.84-4.14-2.76-7.151-2.76c-3.136,0-5.646,1.014-7.527,3.042
		c-1.882,2.029-2.823,4.987-2.823,8.876v18.255h-5.708V16.059h5.708v8.155c0.878-2.801,2.436-4.956,4.674-6.461
		c2.237-1.506,4.819-2.258,7.747-2.258C1101.474,15.495,1104.715,16.781,1107.183,19.353z"/>
	<path fill="#FFFFFF" d="M1148.521,44.413l10.664-28.354h6.148l-13.487,34.439h-6.775l-13.487-34.439h6.147L1148.521,44.413z"/>
	<path fill="#FFFFFF" d="M1170.979,3.419c0.71-0.648,1.651-0.972,2.823-0.972c1.17,0,2.111,0.324,2.823,0.972
		c0.711,0.649,1.067,1.496,1.067,2.541c0,1.046-0.356,1.893-1.067,2.541c-0.711,0.649-1.652,0.972-2.823,0.972
		c-1.171,0-2.112-0.323-2.823-0.972c-0.711-0.648-1.066-1.495-1.066-2.541C1169.912,4.915,1170.267,4.068,1170.979,3.419z
		 M1176.624,16.059v34.439h-5.708V16.059H1176.624z"/>
	<path fill="#FFFFFF" d="M1199.145,44.413l10.664-28.354h6.148l-13.487,34.439h-6.775l-13.487-34.439h6.147L1199.145,44.413z"/>
	<path fill="#FFFFFF" d="M1246.035,17.753c2.613,1.422,4.663,3.472,6.147,6.147c1.484,2.677,2.227,5.813,2.227,9.41
		c0,3.597-0.743,6.723-2.227,9.378c-1.485,2.656-3.534,4.695-6.147,6.116c-2.614,1.422-5.573,2.133-8.876,2.133
		c-3.304,0-6.263-0.711-8.876-2.133c-2.614-1.421-4.673-3.46-6.179-6.116c-1.506-2.655-2.258-5.781-2.258-9.378
		c0-3.596,0.752-6.733,2.258-9.41c1.505-2.676,3.565-4.725,6.179-6.147c2.613-1.421,5.572-2.133,8.876-2.133
		C1240.462,15.62,1243.421,16.332,1246.035,17.753z M1231.481,22.019c-1.736,0.92-3.136,2.332-4.203,4.234
		c-1.066,1.903-1.6,4.256-1.6,7.057c0,2.76,0.533,5.092,1.6,6.994c1.066,1.904,2.467,3.315,4.203,4.234
		c1.735,0.92,3.628,1.38,5.677,1.38c2.049,0,3.941-0.46,5.677-1.38c1.735-0.919,3.136-2.331,4.203-4.234
		c1.066-1.902,1.6-4.234,1.6-6.994c0-2.801-0.533-5.154-1.6-7.057c-1.067-1.903-2.468-3.314-4.203-4.234
		c-1.736-0.919-3.628-1.38-5.677-1.38C1235.109,20.638,1233.216,21.099,1231.481,22.019z"/>
</g>
</svg>
