<?xml version="1.0" encoding="UTF-8" standalone="no"?>
<!-- Generator: Adobe Illustrator 17.0.0, SVG Export Plug-In . SVG Version: 6.00 Build 0)  -->

<svg
   xmlns:dc="http://purl.org/dc/elements/1.1/"
   xmlns:cc="http://creativecommons.org/ns#"
   xmlns:rdf="http://www.w3.org/1999/02/22-rdf-syntax-ns#"
   xmlns:svg="http://www.w3.org/2000/svg"
   xmlns="http://www.w3.org/2000/svg"
   xmlns:sodipodi="http://sodipodi.sourceforge.net/DTD/sodipodi-0.dtd"
   xmlns:inkscape="http://www.inkscape.org/namespaces/inkscape"
   version="1.1"
   id="Layer_1"
   x="0px"
   y="0px"
   viewBox="0 0 703.642 103.322"
   enable-background="new 0 0 703.642 103.322"
   xml:space="preserve"
   sodipodi:docname="incubadora-logo-mobile.svg"
   inkscape:version="0.92.3 (2405546, 2018-03-11)"><metadata
   id="metadata71"><rdf:RDF><cc:Work
       rdf:about=""><dc:format>image/svg+xml</dc:format><dc:type
         rdf:resource="http://purl.org/dc/dcmitype/StillImage" /></cc:Work></rdf:RDF></metadata><defs
   id="defs69" /><sodipodi:namedview
   pagecolor="#ffffff"
   bordercolor="#666666"
   borderopacity="1"
   objecttolerance="10"
   gridtolerance="10"
   guidetolerance="10"
   inkscape:pageopacity="0"
   inkscape:pageshadow="2"
   inkscape:window-width="1920"
   inkscape:window-height="1052"
   id="namedview67"
   showgrid="false"
   inkscape:zoom="1.3747361"
   inkscape:cx="261.39642"
   inkscape:cy="-70.921081"
   inkscape:window-x="0"
   inkscape:window-y="0"
   inkscape:window-maximized="1"
   inkscape:current-layer="Layer_1" />















<g
   id="g1526"
   style="fill:#ffffff"><path
     style="fill:#ffffff"
     id="path2"
     d="M32.119,20.262c3.052,2.489,4.977,5.907,5.771,10.257H26.536c-0.335-1.506-1.025-2.676-2.07-3.513  c-1.046-0.836-2.363-1.255-3.952-1.255c-1.882,0-3.43,0.743-4.642,2.227c-1.213,1.485-1.819,3.649-1.819,6.492  c0,2.844,0.606,5.009,1.819,6.493c1.212,1.485,2.76,2.227,4.642,2.227c1.589,0,2.906-0.418,3.952-1.255  c1.045-0.836,1.735-2.007,2.07-3.513H37.89c-0.795,4.35-2.719,7.769-5.771,10.256c-3.053,2.489-6.837,3.733-11.354,3.733  c-3.43,0-6.472-0.721-9.127-2.164c-2.656-1.443-4.736-3.523-6.242-6.242c-1.505-2.718-2.258-5.897-2.258-9.535  c0-3.679,0.742-6.869,2.227-9.566c1.484-2.697,3.565-4.768,6.242-6.21c2.676-1.443,5.729-2.164,9.159-2.164  C25.281,16.53,29.065,17.774,32.119,20.262z"
     fill="#FFFFFF" /><path
     style="fill:#ffffff"
     id="path4"
     d="M44.226,3.074c1.17-1.066,2.718-1.6,4.642-1.6c1.923,0,3.471,0.533,4.642,1.6  c1.17,1.067,1.757,2.415,1.757,4.046c0,1.59-0.586,2.917-1.757,3.983c-1.171,1.066-2.719,1.6-4.642,1.6  c-1.924,0-3.472-0.533-4.642-1.6c-1.171-1.066-1.757-2.394-1.757-3.983C42.469,5.489,43.055,4.14,44.226,3.074z M54.2,16.969v35.004  H43.473V16.969H54.2z"
     fill="#FFFFFF" /><path
     style="fill:#ffffff"
     id="path6"
     d="M96.417,16.969v35.004h-10.79v-6.336c-1.004,2.049-2.5,3.68-4.485,4.893  c-1.987,1.214-4.297,1.819-6.932,1.819c-4.015,0-7.204-1.338-9.566-4.015c-2.363-2.676-3.544-6.356-3.544-11.041V16.969h10.664  v19.007c0,2.384,0.617,4.234,1.851,5.552c1.233,1.317,2.896,1.976,4.987,1.976c2.174,0,3.889-0.69,5.144-2.07  c1.254-1.38,1.882-3.345,1.882-5.897V16.969H96.417z"
     fill="#FFFFFF" /><path
     style="fill:#ffffff"
     id="path8"
     d="M124.018,18.349c1.923,1.213,3.325,2.865,4.203,4.956V5.552h10.727v46.421h-10.727v-6.336  c-0.878,2.092-2.28,3.743-4.203,4.956c-1.924,1.213-4.225,1.819-6.9,1.819c-2.886,0-5.468-0.721-7.747-2.164  c-2.28-1.443-4.078-3.523-5.395-6.242c-1.317-2.718-1.976-5.897-1.976-9.535c0-3.679,0.659-6.869,1.976-9.566  c1.317-2.697,3.115-4.768,5.395-6.21c2.279-1.443,4.861-2.164,7.747-2.164C119.793,16.53,122.094,17.136,124.018,18.349z   M115.016,28.198c-1.401,1.506-2.102,3.597-2.102,6.273c0,2.677,0.7,4.768,2.102,6.273c1.401,1.506,3.251,2.258,5.552,2.258  c2.258,0,4.109-0.773,5.552-2.321c1.443-1.547,2.164-3.617,2.164-6.21c0-2.635-0.721-4.715-2.164-6.242  c-1.443-1.526-3.293-2.29-5.552-2.29C118.267,25.939,116.417,26.692,115.016,28.198z"
     fill="#FFFFFF" /><path
     style="fill:#ffffff"
     id="path10"
     d="M166.549,18.349c1.923,1.213,3.345,2.865,4.266,4.956v-6.336h10.664v35.004h-10.664v-6.336  c-0.92,2.092-2.343,3.743-4.266,4.956c-1.924,1.213-4.225,1.819-6.9,1.819c-2.886,0-5.468-0.721-7.747-2.164  c-2.28-1.443-4.078-3.523-5.395-6.242c-1.317-2.718-1.976-5.897-1.976-9.535c0-3.679,0.659-6.869,1.976-9.566  c1.317-2.697,3.115-4.768,5.395-6.21c2.279-1.443,4.861-2.164,7.747-2.164C162.324,16.53,164.625,17.136,166.549,18.349z   M157.547,28.198c-1.401,1.506-2.102,3.597-2.102,6.273c0,2.677,0.7,4.768,2.102,6.273c1.401,1.506,3.251,2.258,5.552,2.258  c2.258,0,4.109-0.773,5.552-2.321c1.443-1.547,2.164-3.617,2.164-6.21c0-2.635-0.721-4.715-2.164-6.242  c-1.443-1.526-3.293-2.29-5.552-2.29C160.798,25.939,158.948,26.692,157.547,28.198z"
     fill="#FFFFFF" /><path
     style="fill:#ffffff"
     id="path12"
     d="M209.08,18.349c1.923,1.213,3.325,2.865,4.203,4.956V5.552h10.727v46.421h-10.727v-6.336  c-0.878,2.092-2.28,3.743-4.203,4.956c-1.924,1.213-4.225,1.819-6.9,1.819c-2.886,0-5.468-0.721-7.747-2.164  c-2.28-1.443-4.078-3.523-5.395-6.242c-1.317-2.718-1.976-5.897-1.976-9.535c0-3.679,0.659-6.869,1.976-9.566  c1.317-2.697,3.115-4.768,5.395-6.21c2.279-1.443,4.861-2.164,7.747-2.164C204.855,16.53,207.156,17.136,209.08,18.349z   M200.078,28.198c-1.401,1.506-2.102,3.597-2.102,6.273c0,2.677,0.7,4.768,2.102,6.273c1.401,1.506,3.251,2.258,5.552,2.258  c2.258,0,4.109-0.773,5.552-2.321c1.443-1.547,2.164-3.617,2.164-6.21c0-2.635-0.721-4.715-2.164-6.242  c-1.443-1.526-3.293-2.29-5.552-2.29C203.329,25.939,201.479,26.692,200.078,28.198z"
     fill="#FFFFFF" /><path
     style="fill:#ffffff"
     id="path14"
     d="M264.345,36.415h-24.277c0.125,2.635,0.794,4.527,2.007,5.677c1.212,1.151,2.76,1.725,4.642,1.725  c1.589,0,2.906-0.397,3.952-1.192c1.045-0.794,1.735-1.819,2.07-3.074h11.354c-0.46,2.468-1.464,4.673-3.011,6.618  c-1.547,1.945-3.513,3.472-5.896,4.579c-2.384,1.108-5.04,1.662-7.967,1.662c-3.43,0-6.472-0.721-9.127-2.164  c-2.656-1.443-4.736-3.523-6.242-6.242c-1.505-2.718-2.258-5.897-2.258-9.535c0-3.679,0.742-6.869,2.227-9.566  c1.484-2.697,3.565-4.768,6.242-6.21c2.676-1.443,5.729-2.164,9.159-2.164c3.471,0,6.524,0.712,9.159,2.133  c2.635,1.422,4.673,3.419,6.116,5.991c1.443,2.572,2.164,5.531,2.164,8.876C264.659,34.408,264.554,35.37,264.345,36.415z   M251.956,26.723c-1.276-1.15-2.854-1.725-4.736-1.725c-1.966,0-3.597,0.586-4.893,1.756c-1.297,1.171-2.029,2.886-2.195,5.144  h13.675C253.848,29.599,253.231,27.874,251.956,26.723z"
     fill="#FFFFFF" /><path
     style="fill:#ffffff"
     id="path16"
     d="M293.608,19.854c2.655,2.217,4.317,5.144,4.987,8.782h-10.037c-0.293-1.421-0.952-2.541-1.976-3.356  c-1.025-0.815-2.311-1.223-3.858-1.223c-1.213,0-2.133,0.261-2.76,0.784c-0.627,0.523-0.941,1.265-0.941,2.227  c0,1.088,0.574,1.904,1.725,2.447c1.15,0.544,2.958,1.088,5.426,1.631c2.676,0.627,4.872,1.265,6.586,1.913  c1.714,0.649,3.2,1.705,4.454,3.168c1.254,1.464,1.882,3.429,1.882,5.897c0,2.007-0.544,3.785-1.631,5.332  c-1.088,1.548-2.656,2.76-4.705,3.638c-2.049,0.878-4.475,1.317-7.276,1.317c-4.727,0-8.511-1.045-11.354-3.137  c-2.844-2.091-4.579-5.081-5.207-8.97h10.351c0.167,1.506,0.805,2.656,1.913,3.45c1.108,0.795,2.541,1.192,4.297,1.192  c1.212,0,2.133-0.282,2.76-0.847c0.627-0.564,0.941-1.306,0.941-2.227c0-1.212-0.576-2.08-1.725-2.603  c-1.151-0.522-3.022-1.076-5.615-1.662c-2.593-0.543-4.726-1.129-6.398-1.757c-1.673-0.627-3.116-1.641-4.329-3.042  c-1.213-1.401-1.819-3.314-1.819-5.74c0-3.136,1.192-5.677,3.576-7.622s5.75-2.917,10.1-2.917  C287.408,16.53,290.952,17.638,293.608,19.854z"
     fill="#FFFFFF" /><path
     style="fill:#ffffff"
     id="path18"
     d="M28.981,71.172c3.052,2.489,4.977,5.907,5.771,10.257H23.398c-0.335-1.506-1.025-2.676-2.07-3.513  c-1.046-0.836-2.363-1.255-3.952-1.255c-1.882,0-3.43,0.743-4.642,2.227c-1.213,1.485-1.819,3.649-1.819,6.492  c0,2.844,0.606,5.009,1.819,6.493c1.212,1.485,2.76,2.227,4.642,2.227c1.589,0,2.906-0.418,3.952-1.255  c1.045-0.836,1.735-2.007,2.07-3.513h11.354c-0.795,4.35-2.719,7.769-5.771,10.256c-3.053,2.489-6.837,3.733-11.354,3.733  c-3.43,0-6.472-0.721-9.127-2.164c-2.656-1.443-4.736-3.523-6.242-6.242C0.753,92.198,0,89.019,0,85.38  c0-3.679,0.742-6.869,2.227-9.566c1.484-2.697,3.565-4.768,6.242-6.21c2.676-1.443,5.729-2.164,9.159-2.164  C22.144,67.44,25.928,68.684,28.981,71.172z"
     fill="#FFFFFF" /><path
     style="fill:#ffffff"
     id="path20"
     d="M66.024,69.604c2.739,1.443,4.893,3.524,6.461,6.242c1.568,2.719,2.353,5.897,2.353,9.535  c0,3.638-0.784,6.817-2.353,9.535c-1.568,2.719-3.723,4.799-6.461,6.242c-2.739,1.443-5.845,2.164-9.315,2.164  c-3.472,0-6.586-0.721-9.347-2.164s-4.924-3.523-6.493-6.242c-1.568-2.718-2.353-5.897-2.353-9.535c0-3.638,0.784-6.816,2.353-9.535  c1.568-2.718,3.732-4.799,6.493-6.242c2.76-1.443,5.875-2.164,9.347-2.164C60.179,67.44,63.285,68.161,66.024,69.604z   M51.533,78.951c-1.401,1.485-2.102,3.628-2.102,6.43c0,2.802,0.7,4.935,2.102,6.399c1.401,1.464,3.126,2.196,5.175,2.196  c2.049,0,3.764-0.731,5.144-2.196c1.38-1.463,2.07-3.596,2.07-6.399c0-2.801-0.69-4.945-2.07-6.43  c-1.38-1.484-3.095-2.227-5.144-2.227C54.659,76.724,52.934,77.467,51.533,78.951z"
     fill="#FFFFFF" /><path
     style="fill:#ffffff"
     id="path22"
     d="M135.937,71.486c2.467,2.656,3.701,6.347,3.701,11.072v20.325h-10.664v-19.07  c0-2.216-0.596-3.941-1.788-5.175c-1.192-1.233-2.813-1.851-4.862-1.851c-2.133,0-3.816,0.659-5.05,1.976  c-1.234,1.317-1.851,3.168-1.851,5.552v18.568h-10.727v-19.07c0-2.216-0.586-3.941-1.757-5.175c-1.171-1.233-2.781-1.851-4.83-1.851  c-2.133,0-3.827,0.649-5.081,1.945c-1.255,1.297-1.882,3.158-1.882,5.583v18.568H80.42V67.879h10.727v5.959  c0.919-1.965,2.331-3.513,4.234-4.642c1.902-1.129,4.129-1.694,6.681-1.694c2.676,0,5.039,0.617,7.088,1.851  c2.049,1.234,3.596,3.001,4.642,5.301c1.212-2.174,2.875-3.91,4.987-5.207c2.111-1.296,4.443-1.945,6.994-1.945  C130.082,67.502,133.469,68.83,135.937,71.486z"
     fill="#FFFFFF" /><path
     style="fill:#ffffff"
     id="path24"
     d="M181.604,67.879v35.004h-10.79v-6.336c-1.004,2.049-2.5,3.68-4.485,4.893  c-1.987,1.214-4.297,1.819-6.932,1.819c-4.015,0-7.204-1.338-9.566-4.015c-2.363-2.676-3.544-6.356-3.544-11.041V67.879h10.664  v19.007c0,2.384,0.617,4.234,1.851,5.552c1.233,1.317,2.896,1.976,4.987,1.976c2.174,0,3.889-0.69,5.144-2.07  c1.254-1.38,1.882-3.345,1.882-5.897V67.879H181.604z"
     fill="#FFFFFF" /><path
     style="fill:#ffffff"
     id="path26"
     d="M220.779,71.517c2.362,2.677,3.544,6.357,3.544,11.041v20.325h-10.727v-19.07  c0-2.342-0.618-4.172-1.851-5.489c-1.234-1.317-2.876-1.976-4.924-1.976c-2.175,0-3.9,0.69-5.175,2.07  c-1.276,1.38-1.913,3.346-1.913,5.896v18.568h-10.727V67.879h10.727v6.398c1.003-2.091,2.498-3.742,4.485-4.956  c1.986-1.212,4.318-1.819,6.995-1.819C215.228,67.502,218.416,68.841,220.779,71.517z"
     fill="#FFFFFF" /><path
     style="fill:#ffffff"
     id="path28"
     d="M264.345,87.325h-24.277c0.125,2.635,0.794,4.527,2.007,5.677c1.212,1.151,2.76,1.725,4.642,1.725  c1.589,0,2.906-0.397,3.952-1.192c1.045-0.794,1.735-1.819,2.07-3.074h11.354c-0.46,2.468-1.464,4.673-3.011,6.618  c-1.547,1.945-3.513,3.472-5.896,4.579c-2.384,1.108-5.04,1.662-7.967,1.662c-3.43,0-6.472-0.721-9.127-2.164  c-2.656-1.443-4.736-3.523-6.242-6.242c-1.505-2.718-2.258-5.897-2.258-9.535c0-3.679,0.742-6.869,2.227-9.566  c1.484-2.697,3.565-4.768,6.242-6.21c2.676-1.443,5.729-2.164,9.159-2.164c3.471,0,6.524,0.712,9.159,2.133  c2.635,1.422,4.673,3.419,6.116,5.991c1.443,2.572,2.164,5.531,2.164,8.876C264.659,85.318,264.554,86.28,264.345,87.325z   M251.956,77.633c-1.276-1.15-2.854-1.725-4.736-1.725c-1.966,0-3.597,0.586-4.893,1.756c-1.297,1.171-2.029,2.886-2.195,5.144  h13.675C253.848,80.509,253.231,78.784,251.956,77.633z"
     fill="#FFFFFF" /><path
     style="fill:#ffffff"
     id="path30"
     d="M293.608,70.764c2.655,2.217,4.317,5.144,4.987,8.782h-10.037c-0.293-1.421-0.952-2.541-1.976-3.356  c-1.025-0.815-2.311-1.223-3.858-1.223c-1.213,0-2.133,0.261-2.76,0.784c-0.627,0.523-0.941,1.265-0.941,2.227  c0,1.088,0.574,1.904,1.725,2.447c1.15,0.544,2.958,1.088,5.426,1.631c2.676,0.627,4.872,1.265,6.586,1.913  c1.714,0.649,3.2,1.705,4.454,3.168c1.254,1.464,1.882,3.429,1.882,5.897c0,2.007-0.544,3.785-1.631,5.332  c-1.088,1.548-2.656,2.76-4.705,3.638c-2.049,0.878-4.475,1.317-7.276,1.317c-4.727,0-8.511-1.045-11.354-3.137  c-2.844-2.091-4.579-5.081-5.207-8.97h10.351c0.167,1.506,0.805,2.656,1.913,3.45c1.108,0.795,2.541,1.192,4.297,1.192  c1.212,0,2.133-0.282,2.76-0.847c0.627-0.564,0.941-1.306,0.941-2.227c0-1.212-0.576-2.08-1.725-2.603  c-1.151-0.522-3.022-1.076-5.615-1.662c-2.593-0.543-4.726-1.129-6.398-1.757c-1.673-0.627-3.116-1.641-4.329-3.042  c-1.213-1.401-1.819-3.314-1.819-5.74c0-3.136,1.192-5.677,3.576-7.622s5.75-2.917,10.1-2.917  C287.408,67.44,290.952,68.548,293.608,70.764z"
     fill="#FFFFFF" /><path
     style="fill:#ffffff"
     id="path32"
     d="M324.252,103.322h-5.771V0h5.771V103.322z"
     fill="#FFFFFF" /></g>









<g
   id="g1508"
   transform="translate(0,2.921217)"
   style="fill:#ffffff"><path
     inkscape:connector-curvature="0"
     style="fill:#ffffff"
     id="path34"
     d="m 340.96453,25.403783 c 0.71,-0.648 1.651,-0.972 2.823,-0.972 1.17,0 2.111,0.324 2.823,0.972 0.711,0.649 1.067,1.496 1.067,2.541 0,1.046 -0.356,1.893 -1.067,2.541 -0.711,0.649 -1.652,0.972 -2.823,0.972 -1.171,0 -2.112,-0.323 -2.823,-0.972 -0.711,-0.648 -1.066,-1.495 -1.066,-2.541 -10e-4,-1.045 0.354,-1.892 1.066,-2.541 z m 5.645,12.64 v 34.439 h -5.708 v -34.439 z" /><path
     inkscape:connector-curvature="0"
     style="fill:#ffffff"
     id="path36"
     d="m 383.62053,41.337783 c 2.467,2.572 3.701,6.284 3.701,11.135 v 20.011 h -5.708 v -19.51 c 0,-3.428 -0.878,-6.063 -2.635,-7.904 -1.756,-1.84 -4.14,-2.76 -7.151,-2.76 -3.136,0 -5.646,1.014 -7.527,3.042 -1.882,2.029 -2.823,4.987 -2.823,8.876 v 18.255 h -5.708 v -34.439 h 5.708 v 8.155 c 0.878,-2.801 2.436,-4.956 4.674,-6.461 2.237,-1.506 4.819,-2.258 7.747,-2.258 4.014,0 7.255,1.286 9.722,3.858 z" /><path
     inkscape:connector-curvature="0"
     style="fill:#ffffff"
     id="path38"
     d="m 422.26253,41.117783 c 2.886,2.343 4.663,5.479 5.333,9.409 h -6.022 c -0.418,-2.467 -1.558,-4.401 -3.418,-5.802 -1.861,-1.401 -4.172,-2.102 -6.932,-2.102 -2.007,0 -3.837,0.461 -5.489,1.38 -1.652,0.92 -2.979,2.332 -3.983,4.234 -1.004,1.903 -1.505,4.256 -1.505,7.057 0,2.802 0.501,5.155 1.505,7.057 1.004,1.904 2.331,3.315 3.983,4.234 1.651,0.92 3.481,1.38 5.489,1.38 2.76,0 5.071,-0.711 6.932,-2.133 1.86,-1.421 3,-3.366 3.418,-5.834 h 6.022 c -0.669,3.974 -2.447,7.12 -5.333,9.441 -2.885,2.321 -6.524,3.482 -10.915,3.482 -3.304,0 -6.232,-0.711 -8.782,-2.133 -2.551,-1.421 -4.548,-3.46 -5.991,-6.116 -1.443,-2.655 -2.164,-5.781 -2.164,-9.378 0,-3.596 0.721,-6.733 2.164,-9.41 1.443,-2.676 3.439,-4.725 5.991,-6.147 2.55,-1.421 5.478,-2.133 8.782,-2.133 4.391,10e-4 8.03,1.173 10.915,3.514 z" /><path
     inkscape:connector-curvature="0"
     style="fill:#ffffff"
     id="path40"
     d="m 465.67153,38.043783 v 34.439 h -5.708 v -8.092 c -0.878,2.802 -2.437,4.946 -4.673,6.43 -2.238,1.485 -4.841,2.227 -7.81,2.227 -3.974,0 -7.193,-1.286 -9.661,-3.858 -2.468,-2.572 -3.701,-6.262 -3.701,-11.072 v -20.074 h 5.708 v 19.509 c 0,3.43 0.878,6.075 2.635,7.936 1.756,1.861 4.14,2.792 7.151,2.792 3.137,0 5.646,-1.014 7.528,-3.042 1.882,-2.028 2.823,-4.987 2.823,-8.876 v -18.319 z" /><path
     inkscape:connector-curvature="0"
     style="fill:#ffffff"
     id="path42"
     d="m 501.99153,39.737783 c 2.384,1.422 4.255,3.472 5.614,6.147 1.359,2.677 2.039,5.813 2.039,9.41 0,3.597 -0.68,6.723 -2.039,9.378 -1.359,2.656 -3.23,4.695 -5.614,6.116 -2.384,1.422 -5.103,2.133 -8.155,2.133 -3.347,0 -6.179,-0.847 -8.5,-2.541 -2.321,-1.694 -3.921,-3.921 -4.799,-6.681 v 8.782 h -5.708 v -46.419 h 5.708 v 20.764 c 0.878,-2.76 2.478,-4.987 4.799,-6.681 2.321,-1.694 5.153,-2.541 8.5,-2.541 3.052,0 5.771,0.712 8.155,2.133 z m -15.808,4.485 c -1.799,1.025 -3.199,2.5 -4.203,4.423 -1.003,1.924 -1.505,4.14 -1.505,6.649 0,2.509 0.502,4.716 1.505,6.618 1.004,1.903 2.404,3.378 4.203,4.422 1.798,1.046 3.805,1.568 6.022,1.568 3.554,0 6.388,-1.118 8.5,-3.356 2.111,-2.237 3.168,-5.321 3.168,-9.253 0,-3.93 -1.057,-7.015 -3.168,-9.253 -2.112,-2.237 -4.946,-3.356 -8.5,-3.356 -2.217,10e-4 -4.224,0.514 -6.022,1.538 z" /><path
     inkscape:connector-curvature="0"
     style="fill:#ffffff"
     id="path44"
     d="m 539.72353,40.113783 c 2.321,1.673 3.941,3.911 4.861,6.712 v -8.782 h 5.708 v 34.439 h -5.708 v -8.782 c -0.92,2.802 -2.541,5.04 -4.861,6.712 -2.321,1.673 -5.155,2.509 -8.5,2.509 -3.053,0 -5.771,-0.711 -8.155,-2.133 -2.384,-1.421 -4.256,-3.46 -5.614,-6.116 -1.359,-2.655 -2.039,-5.781 -2.039,-9.378 0,-3.596 0.679,-6.733 2.039,-9.41 1.358,-2.676 3.23,-4.725 5.614,-6.147 2.384,-1.421 5.102,-2.133 8.155,-2.133 3.346,0 6.179,0.837 8.5,2.509 z m -15.306,5.929 c -2.112,2.238 -3.168,5.322 -3.168,9.253 0,3.931 1.056,7.016 3.168,9.253 2.111,2.238 4.924,3.356 8.437,3.356 2.258,0 4.275,-0.522 6.054,-1.568 1.777,-1.045 3.168,-2.519 4.171,-4.422 1.004,-1.903 1.505,-4.109 1.505,-6.618 0,-2.509 -0.501,-4.725 -1.505,-6.649 -1.003,-1.923 -2.395,-3.397 -4.171,-4.423 -1.778,-1.024 -3.795,-1.537 -6.054,-1.537 -3.512,-0.002 -6.326,1.118 -8.437,3.355 z" /><path
     inkscape:connector-curvature="0"
     style="fill:#ffffff"
     id="path46"
     d="m 582.00453,40.113783 c 2.321,1.673 3.941,3.911 4.861,6.712 v -20.763 h 5.708 v 46.421 h -5.708 v -8.782 c -0.92,2.802 -2.541,5.04 -4.861,6.712 -2.321,1.673 -5.155,2.509 -8.5,2.509 -3.053,0 -5.771,-0.711 -8.155,-2.133 -2.384,-1.421 -4.256,-3.46 -5.614,-6.116 -1.359,-2.655 -2.039,-5.781 -2.039,-9.378 0,-3.596 0.679,-6.733 2.039,-9.41 1.358,-2.676 3.23,-4.725 5.614,-6.147 2.384,-1.421 5.102,-2.133 8.155,-2.133 3.345,-0.001 6.178,0.836 8.5,2.508 z m -15.306,5.929 c -2.112,2.238 -3.168,5.322 -3.168,9.253 0,3.931 1.056,7.016 3.168,9.253 2.111,2.238 4.924,3.356 8.437,3.356 2.258,0 4.275,-0.522 6.054,-1.568 1.777,-1.045 3.168,-2.519 4.171,-4.422 1.004,-1.903 1.505,-4.109 1.505,-6.618 0,-2.509 -0.501,-4.725 -1.505,-6.649 -1.003,-1.923 -2.395,-3.397 -4.171,-4.423 -1.778,-1.024 -3.795,-1.537 -6.054,-1.537 -3.513,-0.002 -6.327,1.118 -8.437,3.355 z" /><path
     inkscape:connector-curvature="0"
     style="fill:#ffffff"
     id="path48"
     d="m 626.16653,39.737783 c 2.613,1.422 4.663,3.472 6.147,6.147 1.484,2.677 2.227,5.813 2.227,9.41 0,3.597 -0.743,6.723 -2.227,9.378 -1.485,2.656 -3.534,4.695 -6.147,6.116 -2.614,1.422 -5.573,2.133 -8.876,2.133 -3.304,0 -6.263,-0.711 -8.876,-2.133 -2.614,-1.421 -4.673,-3.46 -6.179,-6.116 -1.506,-2.655 -2.258,-5.781 -2.258,-9.378 0,-3.596 0.752,-6.733 2.258,-9.41 1.505,-2.676 3.565,-4.725 6.179,-6.147 2.613,-1.421 5.572,-2.133 8.876,-2.133 3.303,0 6.262,0.712 8.876,2.133 z m -14.554,4.266 c -1.736,0.92 -3.136,2.332 -4.203,4.234 -1.066,1.903 -1.6,4.256 -1.6,7.057 0,2.76 0.533,5.092 1.6,6.994 1.066,1.904 2.467,3.315 4.203,4.234 1.735,0.92 3.628,1.38 5.677,1.38 2.049,0 3.941,-0.46 5.677,-1.38 1.735,-0.919 3.136,-2.331 4.203,-4.234 1.066,-1.902 1.6,-4.234 1.6,-6.994 0,-2.801 -0.533,-5.154 -1.6,-7.057 -1.067,-1.903 -2.468,-3.314 -4.203,-4.234 -1.736,-0.919 -3.628,-1.38 -5.677,-1.38 -2.049,0 -3.942,0.46 -5.677,1.38 z" /><path
     inkscape:connector-curvature="0"
     style="fill:#ffffff"
     id="path50"
     d="m 652.66953,39.455783 c 2.174,-1.317 4.768,-1.976 7.778,-1.976 v 6.21 h -1.756 c -3.221,0 -5.855,0.826 -7.904,2.478 -2.05,1.653 -3.074,4.381 -3.074,8.186 v 18.129 h -5.708 v -34.439 h 5.708 v 6.963 c 1.13,-2.383 2.781,-4.234 4.956,-5.551 z" /><path
     inkscape:connector-curvature="0"
     style="fill:#ffffff"
     id="path52"
     d="m 688.70753,40.113783 c 2.321,1.673 3.941,3.911 4.861,6.712 v -8.782 h 5.708 v 34.439 h -5.708 v -8.782 c -0.92,2.802 -2.541,5.04 -4.861,6.712 -2.321,1.673 -5.155,2.509 -8.5,2.509 -3.053,0 -5.771,-0.711 -8.155,-2.133 -2.384,-1.421 -4.256,-3.46 -5.614,-6.116 -1.359,-2.655 -2.039,-5.781 -2.039,-9.378 0,-3.596 0.679,-6.733 2.039,-9.41 1.358,-2.676 3.23,-4.725 5.614,-6.147 2.384,-1.421 5.102,-2.133 8.155,-2.133 3.345,0 6.178,0.837 8.5,2.509 z m -15.306,5.929 c -2.112,2.238 -3.168,5.322 -3.168,9.253 0,3.931 1.056,7.016 3.168,9.253 2.111,2.238 4.924,3.356 8.437,3.356 2.258,0 4.275,-0.522 6.054,-1.568 1.777,-1.045 3.168,-2.519 4.171,-4.422 1.004,-1.903 1.505,-4.109 1.505,-6.618 0,-2.509 -0.501,-4.725 -1.505,-6.649 -1.003,-1.923 -2.395,-3.397 -4.171,-4.423 -1.778,-1.024 -3.795,-1.537 -6.054,-1.537 -3.513,-0.002 -6.327,1.118 -8.437,3.355 z" /></g>






</svg>