<?xml version="1.0" encoding="UTF-8" standalone="no"?>
<!-- Generator: Adobe Illustrator 17.0.0, SVG Export Plug-In . SVG Version: 6.00 Build 0)  -->

<svg
   xmlns:dc="http://purl.org/dc/elements/1.1/"
   xmlns:cc="http://creativecommons.org/ns#"
   xmlns:rdf="http://www.w3.org/1999/02/22-rdf-syntax-ns#"
   xmlns:svg="http://www.w3.org/2000/svg"
   xmlns="http://www.w3.org/2000/svg"
   xmlns:sodipodi="http://sodipodi.sourceforge.net/DTD/sodipodi-0.dtd"
   xmlns:inkscape="http://www.inkscape.org/namespaces/inkscape"
   version="1.1"
   id="Layer_1"
   x="0px"
   y="0px"
   viewBox="0 0 1015.596 57.21"
   enable-background="new 0 0 1254.41 57.21"
   xml:space="preserve"
   sodipodi:docname="incubadora-logo-wide-black.svg"
   inkscape:version="0.92.3 (2405546, 2018-03-11)"><metadata
   id="metadata144"><rdf:RDF><cc:Work
       rdf:about=""><dc:format>image/svg+xml</dc:format><dc:type
         rdf:resource="http://purl.org/dc/dcmitype/StillImage" /><dc:title></dc:title></cc:Work></rdf:RDF></metadata><defs
   id="defs142">
	
	
	
	
	
	
	
	
	
	
	
	
	
	
	
	
	
	
	
	
	
	
	
	
	
	
	
	
	
	
	
	
</defs><sodipodi:namedview
   pagecolor="#ffffff"
   bordercolor="#666666"
   borderopacity="1"
   objecttolerance="10"
   gridtolerance="10"
   guidetolerance="10"
   inkscape:pageopacity="0"
   inkscape:pageshadow="2"
   inkscape:window-width="1920"
   inkscape:window-height="1052"
   id="namedview140"
   showgrid="false"
   fit-margin-top="0"
   fit-margin-left="0"
   fit-margin-right="0"
   fit-margin-bottom="0"
   inkscape:zoom="0.27263813"
   inkscape:cx="3419.819"
   inkscape:cy="-96.102428"
   inkscape:window-x="0"
   inkscape:window-y="0"
   inkscape:window-maximized="1"
   inkscape:current-layer="Layer_1" />
<g
   id="g1596"
   style="fill:#000000"><path
     d="m 28.981,18.788 c 3.052,2.489 4.977,5.907 5.771,10.257 H 23.398 c -0.335,-1.506 -1.025,-2.676 -2.07,-3.513 -1.046,-0.836 -2.363,-1.255 -3.952,-1.255 -1.882,0 -3.43,0.743 -4.642,2.227 -1.213,1.485 -1.819,3.649 -1.819,6.492 0,2.844 0.606,5.009 1.819,6.493 1.212,1.485 2.76,2.227 4.642,2.227 1.589,0 2.906,-0.418 3.952,-1.255 1.045,-0.836 1.735,-2.007 2.07,-3.513 h 11.354 c -0.795,4.35 -2.719,7.769 -5.771,10.256 -3.053,2.489 -6.837,3.733 -11.354,3.733 -3.43,0 -6.472,-0.721 -9.127,-2.164 C 5.844,47.33 3.764,45.25 2.258,42.531 0.753,39.813 0,36.635 0,32.996 0,29.317 0.742,26.127 2.227,23.43 c 1.484,-2.697 3.565,-4.768 6.242,-6.21 2.676,-1.443 5.729,-2.164 9.159,-2.164 4.516,-10e-4 8.3,1.244 11.353,3.732 z"
     id="path73"
     style="fill:#000000"
     inkscape:connector-curvature="0" /><path
     d="M 41.089,1.6 C 42.259,0.534 43.807,0 45.731,0 c 1.923,0 3.471,0.533 4.642,1.6 1.17,1.067 1.757,2.415 1.757,4.046 0,1.59 -0.586,2.917 -1.757,3.983 -1.171,1.066 -2.719,1.6 -4.642,1.6 -1.924,0 -3.472,-0.533 -4.642,-1.6 -1.171,-1.066 -1.757,-2.394 -1.757,-3.983 0,-1.631 0.585,-2.98 1.757,-4.046 z m 9.974,13.895 V 50.499 H 40.336 V 15.495 Z"
     id="path75"
     style="fill:#000000"
     inkscape:connector-curvature="0" /><path
     d="M 93.28,15.495 V 50.499 H 82.49 v -6.336 c -1.004,2.049 -2.5,3.68 -4.485,4.893 -1.987,1.214 -4.297,1.819 -6.932,1.819 -4.015,0 -7.204,-1.338 -9.566,-4.015 -2.363,-2.676 -3.544,-6.356 -3.544,-11.041 V 15.495 h 10.664 v 19.007 c 0,2.384 0.617,4.234 1.851,5.552 1.233,1.317 2.896,1.976 4.987,1.976 2.174,0 3.889,-0.69 5.144,-2.07 1.254,-1.38 1.882,-3.345 1.882,-5.897 V 15.495 Z"
     id="path77"
     style="fill:#000000"
     inkscape:connector-curvature="0" /><path
     d="m 120.88,16.875 c 1.923,1.213 3.325,2.865 4.203,4.956 V 4.078 h 10.727 v 46.421 h -10.727 v -6.336 c -0.878,2.092 -2.28,3.743 -4.203,4.956 -1.924,1.213 -4.225,1.819 -6.9,1.819 -2.886,0 -5.468,-0.721 -7.747,-2.164 -2.28,-1.443 -4.078,-3.523 -5.395,-6.242 -1.317,-2.718 -1.976,-5.897 -1.976,-9.535 0,-3.679 0.659,-6.869 1.976,-9.566 1.317,-2.697 3.115,-4.768 5.395,-6.21 2.279,-1.443 4.861,-2.164 7.747,-2.164 2.676,-0.002 4.977,0.605 6.9,1.818 z m -9.002,9.848 c -1.401,1.506 -2.102,3.597 -2.102,6.273 0,2.677 0.7,4.768 2.102,6.273 1.401,1.506 3.251,2.258 5.552,2.258 2.258,0 4.109,-0.773 5.552,-2.321 1.443,-1.547 2.164,-3.617 2.164,-6.21 0,-2.635 -0.721,-4.715 -2.164,-6.242 -1.443,-1.526 -3.293,-2.29 -5.552,-2.29 -2.3,0.001 -4.151,0.754 -5.552,2.259 z"
     id="path79"
     style="fill:#000000"
     inkscape:connector-curvature="0" /><path
     d="m 163.412,16.875 c 1.923,1.213 3.345,2.865 4.266,4.956 v -6.336 h 10.664 v 35.004 h -10.664 v -6.336 c -0.92,2.092 -2.343,3.743 -4.266,4.956 -1.924,1.213 -4.225,1.819 -6.9,1.819 -2.886,0 -5.468,-0.721 -7.747,-2.164 -2.28,-1.443 -4.078,-3.523 -5.395,-6.242 -1.317,-2.718 -1.976,-5.897 -1.976,-9.535 0,-3.679 0.659,-6.869 1.976,-9.566 1.317,-2.697 3.115,-4.768 5.395,-6.21 2.279,-1.443 4.861,-2.164 7.747,-2.164 2.675,-0.002 4.976,0.605 6.9,1.818 z m -9.002,9.848 c -1.401,1.506 -2.102,3.597 -2.102,6.273 0,2.677 0.7,4.768 2.102,6.273 1.401,1.506 3.251,2.258 5.552,2.258 2.258,0 4.109,-0.773 5.552,-2.321 1.443,-1.547 2.164,-3.617 2.164,-6.21 0,-2.635 -0.721,-4.715 -2.164,-6.242 -1.443,-1.526 -3.293,-2.29 -5.552,-2.29 -2.301,0.001 -4.151,0.754 -5.552,2.259 z"
     id="path81"
     style="fill:#000000"
     inkscape:connector-curvature="0" /><path
     d="m 205.942,16.875 c 1.923,1.213 3.325,2.865 4.203,4.956 V 4.078 h 10.727 v 46.421 h -10.727 v -6.336 c -0.878,2.092 -2.28,3.743 -4.203,4.956 -1.924,1.213 -4.225,1.819 -6.9,1.819 -2.886,0 -5.468,-0.721 -7.747,-2.164 -2.28,-1.443 -4.078,-3.523 -5.395,-6.242 -1.317,-2.718 -1.976,-5.897 -1.976,-9.535 0,-3.679 0.659,-6.869 1.976,-9.566 1.317,-2.697 3.115,-4.768 5.395,-6.21 2.279,-1.443 4.861,-2.164 7.747,-2.164 2.676,-0.002 4.977,0.605 6.9,1.818 z m -9.002,9.848 c -1.401,1.506 -2.102,3.597 -2.102,6.273 0,2.677 0.7,4.768 2.102,6.273 1.401,1.506 3.251,2.258 5.552,2.258 2.258,0 4.109,-0.773 5.552,-2.321 1.443,-1.547 2.164,-3.617 2.164,-6.21 0,-2.635 -0.721,-4.715 -2.164,-6.242 -1.443,-1.526 -3.293,-2.29 -5.552,-2.29 -2.3,0.001 -4.151,0.754 -5.552,2.259 z"
     id="path83"
     style="fill:#000000"
     inkscape:connector-curvature="0" /><path
     d="m 261.208,34.941 h -24.277 c 0.125,2.635 0.794,4.527 2.007,5.677 1.212,1.151 2.76,1.725 4.642,1.725 1.589,0 2.906,-0.397 3.952,-1.192 1.045,-0.794 1.735,-1.819 2.07,-3.074 h 11.354 c -0.46,2.468 -1.464,4.673 -3.011,6.618 -1.547,1.945 -3.513,3.472 -5.896,4.579 -2.384,1.108 -5.04,1.662 -7.967,1.662 -3.43,0 -6.472,-0.721 -9.127,-2.164 -2.656,-1.443 -4.736,-3.523 -6.242,-6.242 -1.505,-2.718 -2.258,-5.897 -2.258,-9.535 0,-3.679 0.742,-6.869 2.227,-9.566 1.484,-2.697 3.565,-4.768 6.242,-6.21 2.676,-1.443 5.729,-2.164 9.159,-2.164 3.471,0 6.524,0.712 9.159,2.133 2.635,1.422 4.673,3.419 6.116,5.991 1.443,2.572 2.164,5.531 2.164,8.876 -10e-4,0.879 -0.105,1.841 -0.314,2.886 z m -12.389,-9.692 c -1.276,-1.15 -2.854,-1.725 -4.736,-1.725 -1.966,0 -3.597,0.586 -4.893,1.756 -1.297,1.171 -2.029,2.886 -2.195,5.144 h 13.675 c 0.04,-2.299 -0.576,-4.024 -1.851,-5.175 z"
     id="path85"
     style="fill:#000000"
     inkscape:connector-curvature="0" /><path
     d="m 290.471,18.38 c 2.655,2.217 4.317,5.144 4.987,8.782 h -10.037 c -0.293,-1.421 -0.952,-2.541 -1.976,-3.356 -1.025,-0.815 -2.311,-1.223 -3.858,-1.223 -1.213,0 -2.133,0.261 -2.76,0.784 -0.627,0.523 -0.941,1.265 -0.941,2.227 0,1.088 0.574,1.904 1.725,2.447 1.15,0.544 2.958,1.088 5.426,1.631 2.676,0.627 4.872,1.265 6.586,1.913 1.714,0.649 3.2,1.705 4.454,3.168 1.254,1.464 1.882,3.429 1.882,5.897 0,2.007 -0.544,3.785 -1.631,5.332 -1.088,1.548 -2.656,2.76 -4.705,3.638 -2.049,0.878 -4.475,1.317 -7.276,1.317 -4.727,0 -8.511,-1.045 -11.354,-3.137 -2.844,-2.091 -4.579,-5.081 -5.207,-8.97 h 10.351 c 0.167,1.506 0.805,2.656 1.913,3.45 1.108,0.795 2.541,1.192 4.297,1.192 1.212,0 2.133,-0.282 2.76,-0.847 0.627,-0.564 0.941,-1.306 0.941,-2.227 0,-1.212 -0.576,-2.08 -1.725,-2.603 -1.151,-0.522 -3.022,-1.076 -5.615,-1.662 -2.593,-0.543 -4.726,-1.129 -6.398,-1.757 -1.673,-0.627 -3.116,-1.641 -4.329,-3.042 -1.213,-1.401 -1.819,-3.314 -1.819,-5.74 0,-3.136 1.192,-5.677 3.576,-7.622 2.384,-1.945 5.75,-2.917 10.1,-2.917 4.433,0 7.977,1.109 10.633,3.325 z"
     id="path87"
     style="fill:#000000"
     inkscape:connector-curvature="0" /><path
     d="m 341.627,18.788 c 3.052,2.489 4.977,5.907 5.771,10.257 h -11.354 c -0.335,-1.506 -1.025,-2.676 -2.07,-3.513 -1.046,-0.836 -2.363,-1.255 -3.952,-1.255 -1.882,0 -3.43,0.743 -4.642,2.227 -1.213,1.485 -1.819,3.649 -1.819,6.492 0,2.844 0.606,5.009 1.819,6.493 1.212,1.485 2.76,2.227 4.642,2.227 1.589,0 2.906,-0.418 3.952,-1.255 1.045,-0.836 1.735,-2.007 2.07,-3.513 h 11.354 c -0.795,4.35 -2.719,7.769 -5.771,10.256 -3.053,2.489 -6.837,3.733 -11.354,3.733 -3.43,0 -6.472,-0.721 -9.127,-2.164 -2.656,-1.443 -4.736,-3.523 -6.242,-6.242 -1.505,-2.718 -2.258,-5.897 -2.258,-9.535 0,-3.679 0.742,-6.869 2.227,-9.566 1.484,-2.697 3.565,-4.768 6.242,-6.21 2.676,-1.443 5.729,-2.164 9.159,-2.164 4.516,-10e-4 8.3,1.244 11.353,3.732 z"
     id="path89"
     style="fill:#000000"
     inkscape:connector-curvature="0" /><path
     d="m 378.669,17.22 c 2.739,1.443 4.893,3.524 6.461,6.242 1.568,2.719 2.353,5.897 2.353,9.535 0,3.638 -0.784,6.817 -2.353,9.535 -1.568,2.719 -3.723,4.799 -6.461,6.242 -2.739,1.443 -5.845,2.164 -9.315,2.164 -3.472,0 -6.586,-0.721 -9.347,-2.164 -2.761,-1.443 -4.924,-3.523 -6.493,-6.242 -1.568,-2.718 -2.353,-5.897 -2.353,-9.535 0,-3.638 0.784,-6.816 2.353,-9.535 1.568,-2.718 3.732,-4.799 6.493,-6.242 2.76,-1.443 5.875,-2.164 9.347,-2.164 3.471,-10e-4 6.576,0.721 9.315,2.164 z m -14.49,9.347 c -1.401,1.485 -2.102,3.628 -2.102,6.43 0,2.802 0.7,4.935 2.102,6.399 1.401,1.464 3.126,2.196 5.175,2.196 2.049,0 3.764,-0.731 5.144,-2.196 1.38,-1.463 2.07,-3.596 2.07,-6.399 0,-2.801 -0.69,-4.945 -2.07,-6.43 -1.38,-1.484 -3.095,-2.227 -5.144,-2.227 -2.049,0 -3.774,0.743 -5.175,2.227 z"
     id="path91"
     style="fill:#000000"
     inkscape:connector-curvature="0" /><path
     d="m 448.583,19.102 c 2.467,2.656 3.701,6.347 3.701,11.072 V 50.499 H 441.62 v -19.07 c 0,-2.216 -0.596,-3.941 -1.788,-5.175 -1.192,-1.233 -2.813,-1.851 -4.862,-1.851 -2.133,0 -3.816,0.659 -5.05,1.976 -1.234,1.317 -1.851,3.168 -1.851,5.552 v 18.568 h -10.727 v -19.07 c 0,-2.216 -0.586,-3.941 -1.757,-5.175 -1.171,-1.233 -2.781,-1.851 -4.83,-1.851 -2.133,0 -3.827,0.649 -5.081,1.945 -1.255,1.297 -1.882,3.158 -1.882,5.583 V 50.499 H 393.065 V 15.495 h 10.727 v 5.959 c 0.919,-1.965 2.331,-3.513 4.234,-4.642 1.902,-1.129 4.129,-1.694 6.681,-1.694 2.676,0 5.039,0.617 7.088,1.851 2.049,1.234 3.596,3.001 4.642,5.301 1.212,-2.174 2.875,-3.91 4.987,-5.207 2.111,-1.296 4.443,-1.945 6.994,-1.945 4.309,0 7.696,1.328 10.165,3.984 z"
     id="path93"
     style="fill:#000000"
     inkscape:connector-curvature="0" /><path
     d="m 494.25,15.495 v 35.004 h -10.79 v -6.336 c -1.004,2.049 -2.5,3.68 -4.485,4.893 -1.987,1.214 -4.297,1.819 -6.932,1.819 -4.015,0 -7.204,-1.338 -9.566,-4.015 -2.363,-2.676 -3.544,-6.356 -3.544,-11.041 V 15.495 h 10.664 v 19.007 c 0,2.384 0.617,4.234 1.851,5.552 1.233,1.317 2.896,1.976 4.987,1.976 2.174,0 3.889,-0.69 5.144,-2.07 1.254,-1.38 1.882,-3.345 1.882,-5.897 V 15.495 Z"
     id="path95"
     style="fill:#000000"
     inkscape:connector-curvature="0" /><path
     d="m 533.425,19.133 c 2.362,2.677 3.544,6.357 3.544,11.041 v 20.325 h -10.727 v -19.07 c 0,-2.342 -0.618,-4.172 -1.851,-5.489 -1.234,-1.317 -2.876,-1.976 -4.924,-1.976 -2.175,0 -3.9,0.69 -5.175,2.07 -1.276,1.38 -1.913,3.346 -1.913,5.896 V 50.498 H 501.652 V 15.495 h 10.727 v 6.398 c 1.003,-2.091 2.498,-3.742 4.485,-4.956 1.986,-1.212 4.318,-1.819 6.995,-1.819 4.014,0 7.203,1.339 9.566,4.015 z"
     id="path97"
     style="fill:#000000"
     inkscape:connector-curvature="0" /><path
     d="m 576.991,34.941 h -24.277 c 0.125,2.635 0.794,4.527 2.007,5.677 1.212,1.151 2.76,1.725 4.642,1.725 1.589,0 2.906,-0.397 3.952,-1.192 1.045,-0.794 1.735,-1.819 2.07,-3.074 h 11.354 c -0.46,2.468 -1.464,4.673 -3.011,6.618 -1.547,1.945 -3.513,3.472 -5.896,4.579 -2.384,1.108 -5.04,1.662 -7.967,1.662 -3.43,0 -6.472,-0.721 -9.127,-2.164 -2.656,-1.443 -4.736,-3.523 -6.242,-6.242 -1.505,-2.718 -2.258,-5.897 -2.258,-9.535 0,-3.679 0.742,-6.869 2.227,-9.566 1.484,-2.697 3.565,-4.768 6.242,-6.21 2.676,-1.443 5.729,-2.164 9.159,-2.164 3.471,0 6.524,0.712 9.159,2.133 2.635,1.422 4.673,3.419 6.116,5.991 1.443,2.572 2.164,5.531 2.164,8.876 -10e-4,0.879 -0.106,1.841 -0.314,2.886 z m -12.389,-9.692 c -1.276,-1.15 -2.854,-1.725 -4.736,-1.725 -1.966,0 -3.597,0.586 -4.893,1.756 -1.297,1.171 -2.029,2.886 -2.195,5.144 h 13.675 c 0.04,-2.299 -0.577,-4.024 -1.851,-5.175 z"
     id="path99"
     style="fill:#000000"
     inkscape:connector-curvature="0" /><path
     d="m 606.254,18.38 c 2.655,2.217 4.317,5.144 4.987,8.782 h -10.037 c -0.293,-1.421 -0.952,-2.541 -1.976,-3.356 -1.025,-0.815 -2.311,-1.223 -3.858,-1.223 -1.213,0 -2.133,0.261 -2.76,0.784 -0.627,0.523 -0.941,1.265 -0.941,2.227 0,1.088 0.574,1.904 1.725,2.447 1.15,0.544 2.958,1.088 5.426,1.631 2.676,0.627 4.872,1.265 6.586,1.913 1.714,0.649 3.2,1.705 4.454,3.168 1.254,1.464 1.882,3.429 1.882,5.897 0,2.007 -0.544,3.785 -1.631,5.332 -1.088,1.548 -2.656,2.76 -4.705,3.638 -2.049,0.878 -4.475,1.317 -7.276,1.317 -4.727,0 -8.511,-1.045 -11.354,-3.137 -2.844,-2.091 -4.579,-5.081 -5.207,-8.97 h 10.351 c 0.167,1.506 0.805,2.656 1.913,3.45 1.108,0.795 2.541,1.192 4.297,1.192 1.212,0 2.133,-0.282 2.76,-0.847 0.627,-0.564 0.941,-1.306 0.941,-2.227 0,-1.212 -0.576,-2.08 -1.725,-2.603 -1.151,-0.522 -3.022,-1.076 -5.615,-1.662 -2.593,-0.543 -4.726,-1.129 -6.398,-1.757 -1.673,-0.627 -3.116,-1.641 -4.329,-3.042 -1.213,-1.401 -1.819,-3.314 -1.819,-5.74 0,-3.136 1.192,-5.677 3.576,-7.622 2.384,-1.945 5.75,-2.917 10.1,-2.917 4.432,0 7.977,1.109 10.633,3.325 z"
     id="path101"
     style="fill:#000000"
     inkscape:connector-curvature="0" /><path
     d="m 636.208,57.21 h -5.771 V 0.565 h 5.771 z"
     id="path103"
     style="fill:#000000"
     inkscape:connector-curvature="0" /><path
     d="m 657.284,3.419 c 0.71,-0.648 1.651,-0.972 2.823,-0.972 1.17,0 2.111,0.324 2.823,0.972 0.711,0.649 1.067,1.496 1.067,2.541 0,1.046 -0.356,1.893 -1.067,2.541 -0.711,0.649 -1.652,0.972 -2.823,0.972 -1.171,0 -2.112,-0.323 -2.823,-0.972 -0.711,-0.648 -1.066,-1.495 -1.066,-2.541 -10e-4,-1.045 0.354,-1.892 1.066,-2.541 z m 5.645,12.64 v 34.439 h -5.708 V 16.059 Z"
     id="path105"
     style="fill:#000000"
     inkscape:connector-curvature="0" /><path
     d="m 699.94,19.353 c 2.467,2.572 3.701,6.284 3.701,11.135 v 20.011 h -5.708 v -19.51 c 0,-3.428 -0.878,-6.063 -2.635,-7.904 -1.756,-1.84 -4.14,-2.76 -7.151,-2.76 -3.136,0 -5.646,1.014 -7.527,3.042 -1.882,2.029 -2.823,4.987 -2.823,8.876 v 18.255 h -5.708 V 16.059 h 5.708 v 8.155 c 0.878,-2.801 2.436,-4.956 4.674,-6.461 2.237,-1.506 4.819,-2.258 7.747,-2.258 4.014,0 7.255,1.286 9.722,3.858 z"
     id="path107"
     style="fill:#000000"
     inkscape:connector-curvature="0" /><path
     d="m 738.582,19.133 c 2.886,2.343 4.663,5.479 5.333,9.409 h -6.022 c -0.418,-2.467 -1.558,-4.401 -3.418,-5.802 -1.861,-1.401 -4.172,-2.102 -6.932,-2.102 -2.007,0 -3.837,0.461 -5.489,1.38 -1.652,0.92 -2.979,2.332 -3.983,4.234 -1.004,1.903 -1.505,4.256 -1.505,7.057 0,2.802 0.501,5.155 1.505,7.057 1.004,1.904 2.331,3.315 3.983,4.234 1.651,0.92 3.481,1.38 5.489,1.38 2.76,0 5.071,-0.711 6.932,-2.133 1.86,-1.421 3,-3.366 3.418,-5.834 h 6.022 c -0.669,3.974 -2.447,7.12 -5.333,9.441 -2.885,2.321 -6.524,3.482 -10.915,3.482 -3.304,0 -6.232,-0.711 -8.782,-2.133 -2.551,-1.421 -4.548,-3.46 -5.991,-6.116 -1.443,-2.655 -2.164,-5.781 -2.164,-9.378 0,-3.596 0.721,-6.733 2.164,-9.41 1.443,-2.676 3.439,-4.725 5.991,-6.147 2.55,-1.421 5.478,-2.133 8.782,-2.133 4.391,10e-4 8.03,1.172 10.915,3.514 z"
     id="path109"
     style="fill:#000000"
     inkscape:connector-curvature="0" /><path
     d="m 781.991,16.059 v 34.439 h -5.708 v -8.092 c -0.878,2.802 -2.437,4.946 -4.673,6.43 -2.238,1.485 -4.841,2.227 -7.81,2.227 -3.974,0 -7.193,-1.286 -9.661,-3.858 -2.468,-2.572 -3.701,-6.262 -3.701,-11.072 V 16.059 h 5.708 v 19.509 c 0,3.43 0.878,6.075 2.635,7.936 1.756,1.861 4.14,2.792 7.151,2.792 3.137,0 5.646,-1.014 7.528,-3.042 1.882,-2.028 2.823,-4.987 2.823,-8.876 V 16.059 Z"
     id="path111"
     style="fill:#000000"
     inkscape:connector-curvature="0" /><path
     d="m 818.311,17.753 c 2.384,1.422 4.255,3.472 5.614,6.147 1.359,2.677 2.039,5.813 2.039,9.41 0,3.597 -0.68,6.723 -2.039,9.378 -1.359,2.656 -3.23,4.695 -5.614,6.116 -2.384,1.422 -5.103,2.133 -8.155,2.133 -3.347,0 -6.179,-0.847 -8.5,-2.541 -2.321,-1.694 -3.921,-3.921 -4.799,-6.681 v 8.782 h -5.708 V 4.078 h 5.708 v 20.764 c 0.878,-2.76 2.478,-4.987 4.799,-6.681 2.321,-1.694 5.153,-2.541 8.5,-2.541 3.052,0 5.771,0.712 8.155,2.133 z m -15.808,4.485 c -1.799,1.025 -3.199,2.5 -4.203,4.423 -1.003,1.924 -1.505,4.14 -1.505,6.649 0,2.509 0.502,4.716 1.505,6.618 1.004,1.903 2.404,3.378 4.203,4.422 1.798,1.046 3.805,1.568 6.022,1.568 3.554,0 6.388,-1.118 8.5,-3.356 2.111,-2.237 3.168,-5.321 3.168,-9.253 0,-3.93 -1.057,-7.015 -3.168,-9.253 -2.112,-2.237 -4.946,-3.356 -8.5,-3.356 -2.217,0.001 -4.224,0.514 -6.022,1.538 z"
     id="path113"
     style="fill:#000000"
     inkscape:connector-curvature="0" /><path
     d="m 856.043,18.129 c 2.321,1.673 3.941,3.911 4.861,6.712 v -8.782 h 5.708 v 34.439 h -5.708 v -8.782 c -0.92,2.802 -2.541,5.04 -4.861,6.712 -2.321,1.673 -5.155,2.509 -8.5,2.509 -3.053,0 -5.771,-0.711 -8.155,-2.133 -2.384,-1.421 -4.256,-3.46 -5.614,-6.116 -1.359,-2.655 -2.039,-5.781 -2.039,-9.378 0,-3.596 0.679,-6.733 2.039,-9.41 1.358,-2.676 3.23,-4.725 5.614,-6.147 2.384,-1.421 5.102,-2.133 8.155,-2.133 3.346,0 6.179,0.837 8.5,2.509 z m -15.306,5.928 c -2.112,2.238 -3.168,5.322 -3.168,9.253 0,3.931 1.056,7.016 3.168,9.253 2.111,2.238 4.924,3.356 8.437,3.356 2.258,0 4.275,-0.522 6.054,-1.568 1.777,-1.045 3.168,-2.519 4.171,-4.422 1.004,-1.903 1.505,-4.109 1.505,-6.618 0,-2.509 -0.501,-4.725 -1.505,-6.649 -1.003,-1.923 -2.395,-3.397 -4.171,-4.423 -1.778,-1.024 -3.795,-1.537 -6.054,-1.537 -3.512,-0.001 -6.326,1.119 -8.437,3.355 z"
     id="path115"
     style="fill:#000000"
     inkscape:connector-curvature="0" /><path
     d="m 898.324,18.129 c 2.321,1.673 3.941,3.911 4.861,6.712 V 4.078 h 5.708 v 46.421 h -5.708 v -8.782 c -0.92,2.802 -2.541,5.04 -4.861,6.712 -2.321,1.673 -5.155,2.509 -8.5,2.509 -3.053,0 -5.771,-0.711 -8.155,-2.133 -2.384,-1.421 -4.256,-3.46 -5.614,-6.116 -1.359,-2.655 -2.039,-5.781 -2.039,-9.378 0,-3.596 0.679,-6.733 2.039,-9.41 1.358,-2.676 3.23,-4.725 5.614,-6.147 2.384,-1.421 5.102,-2.133 8.155,-2.133 3.345,-0.001 6.178,0.836 8.5,2.508 z m -15.306,5.928 c -2.112,2.238 -3.168,5.322 -3.168,9.253 0,3.931 1.056,7.016 3.168,9.253 2.111,2.238 4.924,3.356 8.437,3.356 2.258,0 4.275,-0.522 6.054,-1.568 1.777,-1.045 3.168,-2.519 4.171,-4.422 1.004,-1.903 1.505,-4.109 1.505,-6.618 0,-2.509 -0.501,-4.725 -1.505,-6.649 -1.003,-1.923 -2.395,-3.397 -4.171,-4.423 -1.778,-1.024 -3.795,-1.537 -6.054,-1.537 -3.513,-0.001 -6.327,1.119 -8.437,3.355 z"
     id="path117"
     style="fill:#000000"
     inkscape:connector-curvature="0" /><path
     d="m 942.486,17.753 c 2.613,1.422 4.663,3.472 6.147,6.147 1.484,2.677 2.227,5.813 2.227,9.41 0,3.597 -0.743,6.723 -2.227,9.378 -1.485,2.656 -3.534,4.695 -6.147,6.116 -2.614,1.422 -5.573,2.133 -8.876,2.133 -3.304,0 -6.263,-0.711 -8.876,-2.133 -2.614,-1.421 -4.673,-3.46 -6.179,-6.116 -1.506,-2.655 -2.258,-5.781 -2.258,-9.378 0,-3.596 0.752,-6.733 2.258,-9.41 1.505,-2.676 3.565,-4.725 6.179,-6.147 2.613,-1.421 5.572,-2.133 8.876,-2.133 3.303,0 6.262,0.712 8.876,2.133 z m -14.554,4.266 c -1.736,0.92 -3.136,2.332 -4.203,4.234 -1.066,1.903 -1.6,4.256 -1.6,7.057 0,2.76 0.533,5.092 1.6,6.994 1.066,1.904 2.467,3.315 4.203,4.234 1.735,0.92 3.628,1.38 5.677,1.38 2.049,0 3.941,-0.46 5.677,-1.38 1.735,-0.919 3.136,-2.331 4.203,-4.234 1.066,-1.902 1.6,-4.234 1.6,-6.994 0,-2.801 -0.533,-5.154 -1.6,-7.057 -1.067,-1.903 -2.468,-3.314 -4.203,-4.234 -1.736,-0.919 -3.628,-1.38 -5.677,-1.38 -2.049,-10e-4 -3.942,0.46 -5.677,1.38 z"
     id="path119"
     style="fill:#000000"
     inkscape:connector-curvature="0" /><path
     d="m 968.989,17.471 c 2.174,-1.317 4.768,-1.976 7.778,-1.976 v 6.21 h -1.756 c -3.221,0 -5.855,0.826 -7.904,2.478 -2.05,1.653 -3.074,4.381 -3.074,8.186 v 18.129 h -5.708 V 16.059 h 5.708 v 6.963 c 1.13,-2.384 2.781,-4.234 4.956,-5.551 z"
     id="path121"
     style="fill:#000000"
     inkscape:connector-curvature="0" /><path
     d="m 1005.027,18.129 c 2.321,1.673 3.941,3.911 4.861,6.712 v -8.782 h 5.708 v 34.439 h -5.708 v -8.782 c -0.92,2.802 -2.541,5.04 -4.861,6.712 -2.321,1.673 -5.155,2.509 -8.5,2.509 -3.053,0 -5.771,-0.711 -8.155,-2.133 -2.384,-1.421 -4.256,-3.46 -5.614,-6.116 -1.359,-2.655 -2.039,-5.781 -2.039,-9.378 0,-3.596 0.679,-6.733 2.039,-9.41 1.358,-2.676 3.23,-4.725 5.614,-6.147 2.384,-1.421 5.102,-2.133 8.155,-2.133 3.345,0 6.179,0.837 8.5,2.509 z m -15.306,5.928 c -2.112,2.238 -3.168,5.322 -3.168,9.253 0,3.931 1.056,7.016 3.168,9.253 2.111,2.238 4.924,3.356 8.437,3.356 2.258,0 4.275,-0.522 6.054,-1.568 1.777,-1.045 3.168,-2.519 4.171,-4.422 1.004,-1.903 1.505,-4.109 1.505,-6.618 0,-2.509 -0.501,-4.725 -1.505,-6.649 -1.003,-1.923 -2.395,-3.397 -4.171,-4.423 -1.778,-1.024 -3.795,-1.537 -6.054,-1.537 -3.513,-0.001 -6.326,1.119 -8.437,3.355 z"
     id="path123"
     style="fill:#000000"
     inkscape:connector-curvature="0" /></g>
</svg>