<?xml version="1.0" encoding="UTF-8" standalone="no"?>
<!-- Generator: Adobe Illustrator 17.0.0, SVG Export Plug-In . SVG Version: 6.00 Build 0)  -->

<svg
   xmlns:dc="http://purl.org/dc/elements/1.1/"
   xmlns:cc="http://creativecommons.org/ns#"
   xmlns:rdf="http://www.w3.org/1999/02/22-rdf-syntax-ns#"
   xmlns:svg="http://www.w3.org/2000/svg"
   xmlns="http://www.w3.org/2000/svg"
   xmlns:xlink="http://www.w3.org/1999/xlink"
   xmlns:sodipodi="http://sodipodi.sourceforge.net/DTD/sodipodi-0.dtd"
   xmlns:inkscape="http://www.inkscape.org/namespaces/inkscape"
   version="1.1"
   id="Layer_1"
   x="0px"
   y="0px"
   width="100%"
   height="100%"
   viewBox="0 0 1440 360"
   enable-background="new 0 0 1440 360"
   xml:space="preserve"
   sodipodi:docname="incubadora-banner.svg"
   inkscape:version="0.92.3 (2405546, 2018-03-11)"><metadata
   id="metadata71"><rdf:RDF><cc:Work
       rdf:about=""><dc:format>image/svg+xml</dc:format><dc:type
         rdf:resource="http://purl.org/dc/dcmitype/StillImage" /><dc:title></dc:title></cc:Work></rdf:RDF></metadata><defs
   id="defs69" /><sodipodi:namedview
   pagecolor="#ffffff"
   bordercolor="#666666"
   borderopacity="1"
   objecttolerance="10"
   gridtolerance="10"
   guidetolerance="10"
   inkscape:pageopacity="0"
   inkscape:pageshadow="2"
   inkscape:window-width="1920"
   inkscape:window-height="1052"
   id="namedview67"
   showgrid="false"
   inkscape:zoom="0.95"
   inkscape:cx="570.55401"
   inkscape:cy="200.10108"
   inkscape:window-x="0"
   inkscape:window-y="0"
   inkscape:window-maximized="1"
   inkscape:current-layer="Layer_1" />
<rect
   x="360"
   fill="#70569E"
   width="360"
   height="360"
   id="rect2" />
<rect
   x="1080"
   fill="#F6ADCA"
   width="360"
   height="360"
   id="rect4" />
<rect
   fill="#F26724"
   width="360"
   height="360"
   id="rect6" />
<rect
   x="720"
   fill="#8DC641"
   width="360"
   height="360"
   id="rect8" />
<g
   id="g22">
	<g
   id="g20">
		<g
   id="g14">
			<path
   fill="#FFDE11"
   d="M1282.909,138.285l-17.796,11.117c-1.813,1.137-4.102,1.204-5.981,0.165l-22.187-12.202l18.217,104.082     h9.878L1282.909,138.285z"
   id="path10" />
			<path
   fill="#FFDE11"
   d="M1260,53.599c-45.286,0-82,36.713-82,82c0,59.398,35.65,65.142,42.536,105.847h22.615l-20.102-114.197     c-0.416-2.246,0.499-4.532,2.353-5.869c1.853-1.339,4.307-1.492,6.31-0.387l30.079,16.541l26.217-16.376     c1.983-1.241,4.518-1.195,6.455,0.124c1.937,1.316,2.916,3.652,2.491,5.955l-19.908,114.208h22.421     c6.885-40.705,42.535-46.449,42.535-105.847C1342,90.311,1305.288,53.599,1260,53.599z"
   id="path12" />
		</g>
		<path
   fill="#FFDE11"
   d="M1221.623,253.269c0.022,0.84,0.064,1.656,0.064,2.523v10.634h76.626v-10.634    c0-0.867,0.042-1.683,0.064-2.523H1221.623z"
   id="path16" />
		<path
   fill="#FFDE11"
   d="M1221.818,278.251c0.695,15.649,13.501,28.151,29.321,28.151h17.722c15.82,0,28.626-12.502,29.321-28.151    H1221.818z"
   id="path18" />
	</g>
</g>
<g
   id="g40"
   transform="translate(5.2631579,8.9473684)">
	
		<rect
   x="74.510002"
   y="133.09"
   transform="matrix(0.7071,-0.7071,0.7071,0.7071,-83.7954,176.174)"
   width="192.505"
   height="112.295"
   id="rect24"
   style="fill:#2aaae2" />
	
		<rect
   x="74.510002"
   y="169.18401"
   transform="matrix(0.7071,-0.7071,0.7071,0.7071,-83.7954,176.174)"
   width="192.505"
   height="40.105"
   id="rect26"
   style="fill:#f6adca" />
	<polygon
   points="297,63 278.525,160.879 199.121,81.474 "
   id="polygon28"
   style="fill:#ffde11" />
	<g
   id="g38">
		<defs
   id="defs31">
			<polygon
   id="SVGID_1_"
   points="297,63 278.525,160.879 199.121,81.474 " />
		</defs>
		<clipPath
   id="SVGID_2_">
			<use
   xlink:href="#SVGID_1_"
   overflow="visible"
   id="use33"
   style="overflow:visible"
   x="0"
   y="0"
   width="100%"
   height="100%" />
		</clipPath>
		
			
	</g>
</g>
<g
   id="g56">
	<path
   fill="#F79421"
   d="M518.593,71.966l-69.146,193.32C441.906,282.77,453.388,303,470.854,303h138.293   c17.465,0,28.948-20.23,21.407-37.714l-69.146-193.32C552.799,52.011,527.201,52.011,518.593,71.966z"
   id="path42" />
	<path
   fill="#F79421"
   d="M639.17,303H440.83c-12.272,0-22.313-11.144-22.313-24.764v0c0-13.62,10.041-24.764,22.313-24.764h198.34   c12.272,0,22.313,11.144,22.313,24.764v0C661.483,291.856,651.442,303,639.17,303z"
   id="path44" />
	<g
   id="g54">
		<defs
   id="defs47">
			<path
   id="SVGID_3_"
   d="M518.593,71.966l-69.146,193.32C441.906,282.77,453.388,303,470.854,303h138.293     c17.465,0,28.948-20.23,21.407-37.714l-69.146-193.32C552.799,52.011,527.201,52.011,518.593,71.966z" />
		</defs>
		<clipPath
   id="SVGID_4_">
			<use
   xlink:href="#SVGID_3_"
   overflow="visible"
   id="use49" />
		</clipPath>
		<path
   clip-path="url(#SVGID_4_)"
   fill="#FFDE11"
   d="M641.862,214.95H438.564c-10.909,0-19.834-9.906-19.834-22.013v-11.006    c0-12.107,8.925-22.013,19.834-22.013h203.299c10.909,0,19.834,9.906,19.834,22.013v11.006    C661.696,205.044,652.771,214.95,641.862,214.95z"
   id="path52" />
	</g>
</g>
<g
   id="g64">
	<path
   fill="#70569E"
   d="M923.029,302.089l109.303-109.303c5.095-5.095,4.373-14.153-1.605-20.131c0,0-50.399-30.021-75.395-55.016   s-17.209-8.873-22.304-3.778L823.725,223.164c-5.095,5.095-23.391-4.865,3.778,22.304c27.169,27.169,72.616,57.795,72.616,57.795   C909.419,307.005,917.934,307.183,923.029,302.089z"
   id="path58" />
	<path
   fill="#F26724"
   d="M816.092,234.057L816.092,234.057c-10.46-10.46-11.724-26.313-2.808-35.228l95.409-95.409   c8.916-8.916,24.768-7.652,35.228,2.808v0l11.411,11.411L827.503,245.468L816.092,234.057z"
   id="path60" />
	<path
   fill="#F26724"
   d="M776.23,100.646l58.53,52.271l40.636,36.29l24.084-24.084l-36.29-40.636l-52.271-58.531   c-11.628-13.02-30.253-16.083-40.513-5.823C760.147,70.393,763.209,89.019,776.23,100.646z M786.056,75.783   c2.881-2.881,7.552-2.881,10.433,0c2.881,2.881,2.881,7.552,0,10.433c-2.881,2.881-7.552,2.881-10.433,0   C783.175,83.335,783.175,78.664,786.056,75.783z"
   id="path62" />
</g>
<path
   style="fill:#2aaae2;fill-opacity:1;stroke:none;stroke-width:1px;stroke-linecap:butt;stroke-linejoin:miter;stroke-opacity:1"
   d="M 302.26316,71.947368 296.51315,102.43421 272.89474,77.499999 Z"
   id="path882"
   inkscape:connector-curvature="0"
   sodipodi:nodetypes="cccc" /></svg>