<?xml version="1.0" encoding="utf-8"?>
<!-- Generator: Adobe Illustrator 17.0.0, SVG Export Plug-In . SVG Version: 6.00 Build 0)  -->
<!DOCTYPE svg PUBLIC "-//W3C//DTD SVG 1.1//EN" "http://www.w3.org/Graphics/SVG/1.1/DTD/svg11.dtd">
<svg version="1.1" id="Layer_1" xmlns="http://www.w3.org/2000/svg" xmlns:xlink="http://www.w3.org/1999/xlink" x="0px" y="0px"
	 viewBox="0 0 703.642 103.322" enable-background="new 0 0 703.642 103.322"
	 xml:space="preserve">
<path fill="#FFFFFF" d="M32.119,20.262c3.052,2.489,4.977,5.907,5.771,10.257H26.536c-0.335-1.506-1.025-2.676-2.07-3.513
	c-1.046-0.836-2.363-1.255-3.952-1.255c-1.882,0-3.43,0.743-4.642,2.227c-1.213,1.485-1.819,3.649-1.819,6.492
	c0,2.844,0.606,5.009,1.819,6.493c1.212,1.485,2.76,2.227,4.642,2.227c1.589,0,2.906-0.418,3.952-1.255
	c1.045-0.836,1.735-2.007,2.07-3.513H37.89c-0.795,4.35-2.719,7.769-5.771,10.256c-3.053,2.489-6.837,3.733-11.354,3.733
	c-3.43,0-6.472-0.721-9.127-2.164c-2.656-1.443-4.736-3.523-6.242-6.242c-1.505-2.718-2.258-5.897-2.258-9.535
	c0-3.679,0.742-6.869,2.227-9.566c1.484-2.697,3.565-4.768,6.242-6.21c2.676-1.443,5.729-2.164,9.159-2.164
	C25.281,16.53,29.065,17.774,32.119,20.262z"/>
<path fill="#FFFFFF" d="M44.226,3.074c1.17-1.066,2.718-1.6,4.642-1.6c1.923,0,3.471,0.533,4.642,1.6
	c1.17,1.067,1.757,2.415,1.757,4.046c0,1.59-0.586,2.917-1.757,3.983c-1.171,1.066-2.719,1.6-4.642,1.6
	c-1.924,0-3.472-0.533-4.642-1.6c-1.171-1.066-1.757-2.394-1.757-3.983C42.469,5.489,43.055,4.14,44.226,3.074z M54.2,16.969v35.004
	H43.473V16.969H54.2z"/>
<path fill="#FFFFFF" d="M96.417,16.969v35.004h-10.79v-6.336c-1.004,2.049-2.5,3.68-4.485,4.893
	c-1.987,1.214-4.297,1.819-6.932,1.819c-4.015,0-7.204-1.338-9.566-4.015c-2.363-2.676-3.544-6.356-3.544-11.041V16.969h10.664
	v19.007c0,2.384,0.617,4.234,1.851,5.552c1.233,1.317,2.896,1.976,4.987,1.976c2.174,0,3.889-0.69,5.144-2.07
	c1.254-1.38,1.882-3.345,1.882-5.897V16.969H96.417z"/>
<path fill="#FFFFFF" d="M124.018,18.349c1.923,1.213,3.325,2.865,4.203,4.956V5.552h10.727v46.421h-10.727v-6.336
	c-0.878,2.092-2.28,3.743-4.203,4.956c-1.924,1.213-4.225,1.819-6.9,1.819c-2.886,0-5.468-0.721-7.747-2.164
	c-2.28-1.443-4.078-3.523-5.395-6.242c-1.317-2.718-1.976-5.897-1.976-9.535c0-3.679,0.659-6.869,1.976-9.566
	c1.317-2.697,3.115-4.768,5.395-6.21c2.279-1.443,4.861-2.164,7.747-2.164C119.793,16.53,122.094,17.136,124.018,18.349z
	 M115.016,28.198c-1.401,1.506-2.102,3.597-2.102,6.273c0,2.677,0.7,4.768,2.102,6.273c1.401,1.506,3.251,2.258,5.552,2.258
	c2.258,0,4.109-0.773,5.552-2.321c1.443-1.547,2.164-3.617,2.164-6.21c0-2.635-0.721-4.715-2.164-6.242
	c-1.443-1.526-3.293-2.29-5.552-2.29C118.267,25.939,116.417,26.692,115.016,28.198z"/>
<path fill="#FFFFFF" d="M166.549,18.349c1.923,1.213,3.345,2.865,4.266,4.956v-6.336h10.664v35.004h-10.664v-6.336
	c-0.92,2.092-2.343,3.743-4.266,4.956c-1.924,1.213-4.225,1.819-6.9,1.819c-2.886,0-5.468-0.721-7.747-2.164
	c-2.28-1.443-4.078-3.523-5.395-6.242c-1.317-2.718-1.976-5.897-1.976-9.535c0-3.679,0.659-6.869,1.976-9.566
	c1.317-2.697,3.115-4.768,5.395-6.21c2.279-1.443,4.861-2.164,7.747-2.164C162.324,16.53,164.625,17.136,166.549,18.349z
	 M157.547,28.198c-1.401,1.506-2.102,3.597-2.102,6.273c0,2.677,0.7,4.768,2.102,6.273c1.401,1.506,3.251,2.258,5.552,2.258
	c2.258,0,4.109-0.773,5.552-2.321c1.443-1.547,2.164-3.617,2.164-6.21c0-2.635-0.721-4.715-2.164-6.242
	c-1.443-1.526-3.293-2.29-5.552-2.29C160.798,25.939,158.948,26.692,157.547,28.198z"/>
<path fill="#FFFFFF" d="M209.08,18.349c1.923,1.213,3.325,2.865,4.203,4.956V5.552h10.727v46.421h-10.727v-6.336
	c-0.878,2.092-2.28,3.743-4.203,4.956c-1.924,1.213-4.225,1.819-6.9,1.819c-2.886,0-5.468-0.721-7.747-2.164
	c-2.28-1.443-4.078-3.523-5.395-6.242c-1.317-2.718-1.976-5.897-1.976-9.535c0-3.679,0.659-6.869,1.976-9.566
	c1.317-2.697,3.115-4.768,5.395-6.21c2.279-1.443,4.861-2.164,7.747-2.164C204.855,16.53,207.156,17.136,209.08,18.349z
	 M200.078,28.198c-1.401,1.506-2.102,3.597-2.102,6.273c0,2.677,0.7,4.768,2.102,6.273c1.401,1.506,3.251,2.258,5.552,2.258
	c2.258,0,4.109-0.773,5.552-2.321c1.443-1.547,2.164-3.617,2.164-6.21c0-2.635-0.721-4.715-2.164-6.242
	c-1.443-1.526-3.293-2.29-5.552-2.29C203.329,25.939,201.479,26.692,200.078,28.198z"/>
<path fill="#FFFFFF" d="M264.345,36.415h-24.277c0.125,2.635,0.794,4.527,2.007,5.677c1.212,1.151,2.76,1.725,4.642,1.725
	c1.589,0,2.906-0.397,3.952-1.192c1.045-0.794,1.735-1.819,2.07-3.074h11.354c-0.46,2.468-1.464,4.673-3.011,6.618
	c-1.547,1.945-3.513,3.472-5.896,4.579c-2.384,1.108-5.04,1.662-7.967,1.662c-3.43,0-6.472-0.721-9.127-2.164
	c-2.656-1.443-4.736-3.523-6.242-6.242c-1.505-2.718-2.258-5.897-2.258-9.535c0-3.679,0.742-6.869,2.227-9.566
	c1.484-2.697,3.565-4.768,6.242-6.21c2.676-1.443,5.729-2.164,9.159-2.164c3.471,0,6.524,0.712,9.159,2.133
	c2.635,1.422,4.673,3.419,6.116,5.991c1.443,2.572,2.164,5.531,2.164,8.876C264.659,34.408,264.554,35.37,264.345,36.415z
	 M251.956,26.723c-1.276-1.15-2.854-1.725-4.736-1.725c-1.966,0-3.597,0.586-4.893,1.756c-1.297,1.171-2.029,2.886-2.195,5.144
	h13.675C253.848,29.599,253.231,27.874,251.956,26.723z"/>
<path fill="#FFFFFF" d="M293.608,19.854c2.655,2.217,4.317,5.144,4.987,8.782h-10.037c-0.293-1.421-0.952-2.541-1.976-3.356
	c-1.025-0.815-2.311-1.223-3.858-1.223c-1.213,0-2.133,0.261-2.76,0.784c-0.627,0.523-0.941,1.265-0.941,2.227
	c0,1.088,0.574,1.904,1.725,2.447c1.15,0.544,2.958,1.088,5.426,1.631c2.676,0.627,4.872,1.265,6.586,1.913
	c1.714,0.649,3.2,1.705,4.454,3.168c1.254,1.464,1.882,3.429,1.882,5.897c0,2.007-0.544,3.785-1.631,5.332
	c-1.088,1.548-2.656,2.76-4.705,3.638c-2.049,0.878-4.475,1.317-7.276,1.317c-4.727,0-8.511-1.045-11.354-3.137
	c-2.844-2.091-4.579-5.081-5.207-8.97h10.351c0.167,1.506,0.805,2.656,1.913,3.45c1.108,0.795,2.541,1.192,4.297,1.192
	c1.212,0,2.133-0.282,2.76-0.847c0.627-0.564,0.941-1.306,0.941-2.227c0-1.212-0.576-2.08-1.725-2.603
	c-1.151-0.522-3.022-1.076-5.615-1.662c-2.593-0.543-4.726-1.129-6.398-1.757c-1.673-0.627-3.116-1.641-4.329-3.042
	c-1.213-1.401-1.819-3.314-1.819-5.74c0-3.136,1.192-5.677,3.576-7.622s5.75-2.917,10.1-2.917
	C287.408,16.53,290.952,17.638,293.608,19.854z"/>
<path fill="#FFFFFF" d="M28.981,71.172c3.052,2.489,4.977,5.907,5.771,10.257H23.398c-0.335-1.506-1.025-2.676-2.07-3.513
	c-1.046-0.836-2.363-1.255-3.952-1.255c-1.882,0-3.43,0.743-4.642,2.227c-1.213,1.485-1.819,3.649-1.819,6.492
	c0,2.844,0.606,5.009,1.819,6.493c1.212,1.485,2.76,2.227,4.642,2.227c1.589,0,2.906-0.418,3.952-1.255
	c1.045-0.836,1.735-2.007,2.07-3.513h11.354c-0.795,4.35-2.719,7.769-5.771,10.256c-3.053,2.489-6.837,3.733-11.354,3.733
	c-3.43,0-6.472-0.721-9.127-2.164c-2.656-1.443-4.736-3.523-6.242-6.242C0.753,92.198,0,89.019,0,85.38
	c0-3.679,0.742-6.869,2.227-9.566c1.484-2.697,3.565-4.768,6.242-6.21c2.676-1.443,5.729-2.164,9.159-2.164
	C22.144,67.44,25.928,68.684,28.981,71.172z"/>
<path fill="#FFFFFF" d="M66.024,69.604c2.739,1.443,4.893,3.524,6.461,6.242c1.568,2.719,2.353,5.897,2.353,9.535
	c0,3.638-0.784,6.817-2.353,9.535c-1.568,2.719-3.723,4.799-6.461,6.242c-2.739,1.443-5.845,2.164-9.315,2.164
	c-3.472,0-6.586-0.721-9.347-2.164s-4.924-3.523-6.493-6.242c-1.568-2.718-2.353-5.897-2.353-9.535c0-3.638,0.784-6.816,2.353-9.535
	c1.568-2.718,3.732-4.799,6.493-6.242c2.76-1.443,5.875-2.164,9.347-2.164C60.179,67.44,63.285,68.161,66.024,69.604z
	 M51.533,78.951c-1.401,1.485-2.102,3.628-2.102,6.43c0,2.802,0.7,4.935,2.102,6.399c1.401,1.464,3.126,2.196,5.175,2.196
	c2.049,0,3.764-0.731,5.144-2.196c1.38-1.463,2.07-3.596,2.07-6.399c0-2.801-0.69-4.945-2.07-6.43
	c-1.38-1.484-3.095-2.227-5.144-2.227C54.659,76.724,52.934,77.467,51.533,78.951z"/>
<path fill="#FFFFFF" d="M135.937,71.486c2.467,2.656,3.701,6.347,3.701,11.072v20.325h-10.664v-19.07
	c0-2.216-0.596-3.941-1.788-5.175c-1.192-1.233-2.813-1.851-4.862-1.851c-2.133,0-3.816,0.659-5.05,1.976
	c-1.234,1.317-1.851,3.168-1.851,5.552v18.568h-10.727v-19.07c0-2.216-0.586-3.941-1.757-5.175c-1.171-1.233-2.781-1.851-4.83-1.851
	c-2.133,0-3.827,0.649-5.081,1.945c-1.255,1.297-1.882,3.158-1.882,5.583v18.568H80.42V67.879h10.727v5.959
	c0.919-1.965,2.331-3.513,4.234-4.642c1.902-1.129,4.129-1.694,6.681-1.694c2.676,0,5.039,0.617,7.088,1.851
	c2.049,1.234,3.596,3.001,4.642,5.301c1.212-2.174,2.875-3.91,4.987-5.207c2.111-1.296,4.443-1.945,6.994-1.945
	C130.082,67.502,133.469,68.83,135.937,71.486z"/>
<path fill="#FFFFFF" d="M181.604,67.879v35.004h-10.79v-6.336c-1.004,2.049-2.5,3.68-4.485,4.893
	c-1.987,1.214-4.297,1.819-6.932,1.819c-4.015,0-7.204-1.338-9.566-4.015c-2.363-2.676-3.544-6.356-3.544-11.041V67.879h10.664
	v19.007c0,2.384,0.617,4.234,1.851,5.552c1.233,1.317,2.896,1.976,4.987,1.976c2.174,0,3.889-0.69,5.144-2.07
	c1.254-1.38,1.882-3.345,1.882-5.897V67.879H181.604z"/>
<path fill="#FFFFFF" d="M220.779,71.517c2.362,2.677,3.544,6.357,3.544,11.041v20.325h-10.727v-19.07
	c0-2.342-0.618-4.172-1.851-5.489c-1.234-1.317-2.876-1.976-4.924-1.976c-2.175,0-3.9,0.69-5.175,2.07
	c-1.276,1.38-1.913,3.346-1.913,5.896v18.568h-10.727V67.879h10.727v6.398c1.003-2.091,2.498-3.742,4.485-4.956
	c1.986-1.212,4.318-1.819,6.995-1.819C215.228,67.502,218.416,68.841,220.779,71.517z"/>
<path fill="#FFFFFF" d="M264.345,87.325h-24.277c0.125,2.635,0.794,4.527,2.007,5.677c1.212,1.151,2.76,1.725,4.642,1.725
	c1.589,0,2.906-0.397,3.952-1.192c1.045-0.794,1.735-1.819,2.07-3.074h11.354c-0.46,2.468-1.464,4.673-3.011,6.618
	c-1.547,1.945-3.513,3.472-5.896,4.579c-2.384,1.108-5.04,1.662-7.967,1.662c-3.43,0-6.472-0.721-9.127-2.164
	c-2.656-1.443-4.736-3.523-6.242-6.242c-1.505-2.718-2.258-5.897-2.258-9.535c0-3.679,0.742-6.869,2.227-9.566
	c1.484-2.697,3.565-4.768,6.242-6.21c2.676-1.443,5.729-2.164,9.159-2.164c3.471,0,6.524,0.712,9.159,2.133
	c2.635,1.422,4.673,3.419,6.116,5.991c1.443,2.572,2.164,5.531,2.164,8.876C264.659,85.318,264.554,86.28,264.345,87.325z
	 M251.956,77.633c-1.276-1.15-2.854-1.725-4.736-1.725c-1.966,0-3.597,0.586-4.893,1.756c-1.297,1.171-2.029,2.886-2.195,5.144
	h13.675C253.848,80.509,253.231,78.784,251.956,77.633z"/>
<path fill="#FFFFFF" d="M293.608,70.764c2.655,2.217,4.317,5.144,4.987,8.782h-10.037c-0.293-1.421-0.952-2.541-1.976-3.356
	c-1.025-0.815-2.311-1.223-3.858-1.223c-1.213,0-2.133,0.261-2.76,0.784c-0.627,0.523-0.941,1.265-0.941,2.227
	c0,1.088,0.574,1.904,1.725,2.447c1.15,0.544,2.958,1.088,5.426,1.631c2.676,0.627,4.872,1.265,6.586,1.913
	c1.714,0.649,3.2,1.705,4.454,3.168c1.254,1.464,1.882,3.429,1.882,5.897c0,2.007-0.544,3.785-1.631,5.332
	c-1.088,1.548-2.656,2.76-4.705,3.638c-2.049,0.878-4.475,1.317-7.276,1.317c-4.727,0-8.511-1.045-11.354-3.137
	c-2.844-2.091-4.579-5.081-5.207-8.97h10.351c0.167,1.506,0.805,2.656,1.913,3.45c1.108,0.795,2.541,1.192,4.297,1.192
	c1.212,0,2.133-0.282,2.76-0.847c0.627-0.564,0.941-1.306,0.941-2.227c0-1.212-0.576-2.08-1.725-2.603
	c-1.151-0.522-3.022-1.076-5.615-1.662c-2.593-0.543-4.726-1.129-6.398-1.757c-1.673-0.627-3.116-1.641-4.329-3.042
	c-1.213-1.401-1.819-3.314-1.819-5.74c0-3.136,1.192-5.677,3.576-7.622s5.75-2.917,10.1-2.917
	C287.408,67.44,290.952,68.548,293.608,70.764z"/>
<path fill="#FFFFFF" d="M324.252,103.322h-5.771V0h5.771V103.322z"/>
<path fill="#FFFFFF" d="M345.329,2.854c0.71-0.648,1.651-0.972,2.823-0.972c1.17,0,2.111,0.324,2.823,0.972
	c0.711,0.649,1.067,1.496,1.067,2.541c0,1.046-0.356,1.893-1.067,2.541c-0.711,0.649-1.652,0.972-2.823,0.972
	c-1.171,0-2.112-0.323-2.823-0.972c-0.711-0.648-1.066-1.495-1.066-2.541C344.262,4.35,344.617,3.503,345.329,2.854z
	 M350.974,15.494v34.439h-5.708V15.494H350.974z"/>
<path fill="#FFFFFF" d="M387.985,18.788c2.467,2.572,3.701,6.284,3.701,11.135v20.011h-5.708V30.424
	c0-3.428-0.878-6.063-2.635-7.904c-1.756-1.84-4.14-2.76-7.151-2.76c-3.136,0-5.646,1.014-7.527,3.042
	c-1.882,2.029-2.823,4.987-2.823,8.876v18.255h-5.708V15.494h5.708v8.155c0.878-2.801,2.436-4.956,4.674-6.461
	c2.237-1.506,4.819-2.258,7.747-2.258C382.277,14.93,385.518,16.216,387.985,18.788z"/>
<path fill="#FFFFFF" d="M426.627,18.568c2.886,2.343,4.663,5.479,5.333,9.409h-6.022c-0.418-2.467-1.558-4.401-3.418-5.802
	c-1.861-1.401-4.172-2.102-6.932-2.102c-2.007,0-3.837,0.461-5.489,1.38c-1.652,0.92-2.979,2.332-3.983,4.234
	c-1.004,1.903-1.505,4.256-1.505,7.057c0,2.802,0.501,5.155,1.505,7.057c1.004,1.904,2.331,3.315,3.983,4.234
	c1.651,0.92,3.481,1.38,5.489,1.38c2.76,0,5.071-0.711,6.932-2.133c1.86-1.421,3-3.366,3.418-5.834h6.022
	c-0.669,3.974-2.447,7.12-5.333,9.441c-2.885,2.321-6.524,3.482-10.915,3.482c-3.304,0-6.232-0.711-8.782-2.133
	c-2.551-1.421-4.548-3.46-5.991-6.116c-1.443-2.655-2.164-5.781-2.164-9.378c0-3.596,0.721-6.733,2.164-9.41
	c1.443-2.676,3.439-4.725,5.991-6.147c2.55-1.421,5.478-2.133,8.782-2.133C420.103,15.055,423.742,16.227,426.627,18.568z"/>
<path fill="#FFFFFF" d="M470.036,15.494v34.439h-5.708v-8.092c-0.878,2.802-2.437,4.946-4.673,6.43
	c-2.238,1.485-4.841,2.227-7.81,2.227c-3.974,0-7.193-1.286-9.661-3.858c-2.468-2.572-3.701-6.262-3.701-11.072V15.494h5.708v19.509
	c0,3.43,0.878,6.075,2.635,7.936c1.756,1.861,4.14,2.792,7.151,2.792c3.137,0,5.646-1.014,7.528-3.042
	c1.882-2.028,2.823-4.987,2.823-8.876V15.494H470.036z"/>
<path fill="#FFFFFF" d="M506.356,17.188c2.384,1.422,4.255,3.472,5.614,6.147c1.359,2.677,2.039,5.813,2.039,9.41
	c0,3.597-0.68,6.723-2.039,9.378c-1.359,2.656-3.23,4.695-5.614,6.116c-2.384,1.422-5.103,2.133-8.155,2.133
	c-3.347,0-6.179-0.847-8.5-2.541c-2.321-1.694-3.921-3.921-4.799-6.681v8.782h-5.708V3.513h5.708v20.764
	c0.878-2.76,2.478-4.987,4.799-6.681c2.321-1.694,5.153-2.541,8.5-2.541C501.253,15.055,503.972,15.767,506.356,17.188z
	 M490.548,21.673c-1.799,1.025-3.199,2.5-4.203,4.423c-1.003,1.924-1.505,4.14-1.505,6.649s0.502,4.716,1.505,6.618
	c1.004,1.903,2.404,3.378,4.203,4.422c1.798,1.046,3.805,1.568,6.022,1.568c3.554,0,6.388-1.118,8.5-3.356
	c2.111-2.237,3.168-5.321,3.168-9.253c0-3.93-1.057-7.015-3.168-9.253c-2.112-2.237-4.946-3.356-8.5-3.356
	C494.353,20.136,492.346,20.649,490.548,21.673z"/>
<path fill="#FFFFFF" d="M544.088,17.564c2.321,1.673,3.941,3.911,4.861,6.712v-8.782h5.708v34.439h-5.708v-8.782
	c-0.92,2.802-2.541,5.04-4.861,6.712c-2.321,1.673-5.155,2.509-8.5,2.509c-3.053,0-5.771-0.711-8.155-2.133
	c-2.384-1.421-4.256-3.46-5.614-6.116c-1.359-2.655-2.039-5.781-2.039-9.378c0-3.596,0.679-6.733,2.039-9.41
	c1.358-2.676,3.23-4.725,5.614-6.147c2.384-1.421,5.102-2.133,8.155-2.133C538.934,15.055,541.767,15.892,544.088,17.564z
	 M528.782,23.493c-2.112,2.238-3.168,5.322-3.168,9.253c0,3.931,1.056,7.016,3.168,9.253c2.111,2.238,4.924,3.356,8.437,3.356
	c2.258,0,4.275-0.522,6.054-1.568c1.777-1.045,3.168-2.519,4.171-4.422c1.004-1.903,1.505-4.109,1.505-6.618
	s-0.501-4.725-1.505-6.649c-1.003-1.923-2.395-3.397-4.171-4.423c-1.778-1.024-3.795-1.537-6.054-1.537
	C533.707,20.136,530.893,21.256,528.782,23.493z"/>
<path fill="#FFFFFF" d="M586.369,17.564c2.321,1.673,3.941,3.911,4.861,6.712V3.513h5.708v46.421h-5.708v-8.782
	c-0.92,2.802-2.541,5.04-4.861,6.712c-2.321,1.673-5.155,2.509-8.5,2.509c-3.053,0-5.771-0.711-8.155-2.133
	c-2.384-1.421-4.256-3.46-5.614-6.116c-1.359-2.655-2.039-5.781-2.039-9.378c0-3.596,0.679-6.733,2.039-9.41
	c1.358-2.676,3.23-4.725,5.614-6.147c2.384-1.421,5.102-2.133,8.155-2.133C581.214,15.055,584.047,15.892,586.369,17.564z
	 M571.063,23.493c-2.112,2.238-3.168,5.322-3.168,9.253c0,3.931,1.056,7.016,3.168,9.253c2.111,2.238,4.924,3.356,8.437,3.356
	c2.258,0,4.275-0.522,6.054-1.568c1.777-1.045,3.168-2.519,4.171-4.422c1.004-1.903,1.505-4.109,1.505-6.618
	s-0.501-4.725-1.505-6.649c-1.003-1.923-2.395-3.397-4.171-4.423c-1.778-1.024-3.795-1.537-6.054-1.537
	C575.987,20.136,573.173,21.256,571.063,23.493z"/>
<path fill="#FFFFFF" d="M630.531,17.188c2.613,1.422,4.663,3.472,6.147,6.147c1.484,2.677,2.227,5.813,2.227,9.41
	c0,3.597-0.743,6.723-2.227,9.378c-1.485,2.656-3.534,4.695-6.147,6.116c-2.614,1.422-5.573,2.133-8.876,2.133
	c-3.304,0-6.263-0.711-8.876-2.133c-2.614-1.421-4.673-3.46-6.179-6.116c-1.506-2.655-2.258-5.781-2.258-9.378
	c0-3.596,0.752-6.733,2.258-9.41c1.505-2.676,3.565-4.725,6.179-6.147c2.613-1.421,5.572-2.133,8.876-2.133
	C624.958,15.055,627.917,15.767,630.531,17.188z M615.977,21.454c-1.736,0.92-3.136,2.332-4.203,4.234
	c-1.066,1.903-1.6,4.256-1.6,7.057c0,2.76,0.533,5.092,1.6,6.994c1.066,1.904,2.467,3.315,4.203,4.234
	c1.735,0.92,3.628,1.38,5.677,1.38c2.049,0,3.941-0.46,5.677-1.38c1.735-0.919,3.136-2.331,4.203-4.234
	c1.066-1.902,1.6-4.234,1.6-6.994c0-2.801-0.533-5.154-1.6-7.057c-1.067-1.903-2.468-3.314-4.203-4.234
	c-1.736-0.919-3.628-1.38-5.677-1.38C619.605,20.074,617.712,20.534,615.977,21.454z"/>
<path fill="#FFFFFF" d="M657.034,16.906c2.174-1.317,4.768-1.976,7.778-1.976v6.21h-1.756c-3.221,0-5.855,0.826-7.904,2.478
	c-2.05,1.653-3.074,4.381-3.074,8.186v18.129h-5.708V15.494h5.708v6.963C653.208,20.074,654.859,18.223,657.034,16.906z"/>
<path fill="#FFFFFF" d="M693.072,17.564c2.321,1.673,3.941,3.911,4.861,6.712v-8.782h5.708v34.439h-5.708v-8.782
	c-0.92,2.802-2.541,5.04-4.861,6.712c-2.321,1.673-5.155,2.509-8.5,2.509c-3.053,0-5.771-0.711-8.155-2.133
	c-2.384-1.421-4.256-3.46-5.614-6.116c-1.359-2.655-2.039-5.781-2.039-9.378c0-3.596,0.679-6.733,2.039-9.41
	c1.358-2.676,3.23-4.725,5.614-6.147c2.384-1.421,5.102-2.133,8.155-2.133C687.917,15.055,690.75,15.892,693.072,17.564z
	 M677.766,23.493c-2.112,2.238-3.168,5.322-3.168,9.253c0,3.931,1.056,7.016,3.168,9.253c2.111,2.238,4.924,3.356,8.437,3.356
	c2.258,0,4.275-0.522,6.054-1.568c1.777-1.045,3.168-2.519,4.171-4.422c1.004-1.903,1.505-4.109,1.505-6.618
	s-0.501-4.725-1.505-6.649c-1.003-1.923-2.395-3.397-4.171-4.423c-1.778-1.024-3.795-1.537-6.054-1.537
	C682.69,20.136,679.876,21.256,677.766,23.493z"/>
<path fill="#FFFFFF" d="M378.863,86.823h-27.539c0.125,3.931,1.244,6.88,3.356,8.845c2.111,1.966,4.694,2.948,7.747,2.948
	c2.76,0,5.071-0.7,6.932-2.102c1.86-1.401,3-3.272,3.418-5.615h6.085c-0.418,2.384-1.349,4.517-2.792,6.399
	s-3.315,3.346-5.614,4.391c-2.3,1.046-4.893,1.568-7.779,1.568c-3.304,0-6.232-0.711-8.782-2.133
	c-2.551-1.421-4.548-3.46-5.991-6.116c-1.443-2.655-2.164-5.781-2.164-9.378c0-3.596,0.721-6.733,2.164-9.41
	c1.443-2.676,3.439-4.725,5.991-6.147c2.55-1.421,5.478-2.133,8.782-2.133c3.345,0,6.262,0.711,8.751,2.133
	c2.488,1.422,4.391,3.325,5.708,5.708s1.976,5.018,1.976,7.904C379.114,84.9,379.03,85.945,378.863,86.823z M372.088,77.665
	c-0.962-1.714-2.28-2.99-3.952-3.827c-1.673-0.836-3.492-1.254-5.458-1.254c-3.136,0-5.771,0.972-7.904,2.917
	c-2.133,1.945-3.284,4.799-3.45,8.563h22.019C373.469,81.513,373.05,79.38,372.088,77.665z"/>
<path fill="#FFFFFF" d="M414.431,71.674c2.467,2.572,3.701,6.284,3.701,11.135v20.011h-5.708V83.31c0-3.428-0.878-6.063-2.635-7.904
	c-1.756-1.84-4.14-2.76-7.151-2.76c-3.136,0-5.646,1.014-7.527,3.042c-1.882,2.029-2.823,4.987-2.823,8.876v18.255h-5.708V68.38
	h5.708v8.155c0.878-2.801,2.436-4.956,4.674-6.461c2.237-1.506,4.819-2.258,7.747-2.258
	C408.723,67.816,411.963,69.102,414.431,71.674z"/>
<path fill="#FFFFFF" d="M455.77,96.735l10.664-28.354h6.148l-13.487,34.439h-6.775L438.833,68.38h6.147L455.77,96.735z"/>
<path fill="#FFFFFF" d="M478.227,55.74c0.71-0.648,1.651-0.972,2.823-0.972c1.17,0,2.111,0.324,2.823,0.972
	c0.711,0.649,1.067,1.496,1.067,2.541c0,1.046-0.356,1.893-1.067,2.541c-0.711,0.649-1.652,0.972-2.823,0.972
	c-1.171,0-2.112-0.323-2.823-0.972c-0.711-0.648-1.066-1.495-1.066-2.541C477.161,57.236,477.516,56.389,478.227,55.74z
	 M483.873,68.38v34.439h-5.708V68.38H483.873z"/>
<path fill="#FFFFFF" d="M506.393,96.735l10.664-28.354h6.148l-13.487,34.439h-6.775L489.456,68.38h6.147L506.393,96.735z"/>
<path fill="#FFFFFF" d="M553.284,70.074c2.613,1.422,4.663,3.472,6.147,6.147c1.484,2.677,2.227,5.813,2.227,9.41
	c0,3.597-0.743,6.723-2.227,9.378c-1.485,2.656-3.534,4.695-6.147,6.116c-2.614,1.422-5.573,2.133-8.876,2.133
	c-3.304,0-6.263-0.711-8.876-2.133c-2.614-1.421-4.673-3.46-6.179-6.116c-1.506-2.655-2.258-5.781-2.258-9.378
	c0-3.596,0.752-6.733,2.258-9.41c1.505-2.676,3.565-4.725,6.179-6.147c2.613-1.421,5.572-2.133,8.876-2.133
	C547.71,67.942,550.669,68.653,553.284,70.074z M538.73,74.34c-1.736,0.92-3.136,2.332-4.203,4.234
	c-1.066,1.903-1.6,4.256-1.6,7.057c0,2.76,0.533,5.092,1.6,6.994c1.066,1.904,2.467,3.315,4.203,4.234
	c1.735,0.92,3.628,1.38,5.677,1.38c2.049,0,3.941-0.46,5.677-1.38c1.735-0.919,3.136-2.331,4.203-4.234
	c1.066-1.902,1.6-4.234,1.6-6.994c0-2.801-0.533-5.154-1.6-7.057c-1.067-1.903-2.468-3.314-4.203-4.234
	c-1.736-0.919-3.628-1.38-5.677-1.38C542.358,72.96,540.465,73.421,538.73,74.34z"/>
</svg>
