<?xml version="1.0" encoding="utf-8"?>
<!-- Generator: Adobe Illustrator 17.0.0, SVG Export Plug-In . SVG Version: 6.00 Build 0)  -->
<!DOCTYPE svg PUBLIC "-//W3C//DTD SVG 1.1//EN" "http://www.w3.org/Graphics/SVG/1.1/DTD/svg11.dtd">
<svg version="1.1" id="Layer_1" xmlns="http://www.w3.org/2000/svg" xmlns:xlink="http://www.w3.org/1999/xlink" x="0px" y="0px"
	 width="100%" height="100%" viewBox="0 0 479.629 67.493" enable-background="new 0 0 479.629 67.493"
	 xml:space="preserve">
<path fill="#F26724" d="M377.817,47.708h-14.941l-16.529,15.404l0.629-15.404c-8.133,0-14.788-6.654-14.788-14.788V19.364
	c0-8.133,6.654-14.788,14.788-14.788h30.841c8.133,0,14.788,6.654,14.788,14.788V32.92C392.604,41.053,385.95,47.708,377.817,47.708
	z"/>
<g>
	<g>
		<circle fill="#F6ADCA" cx="449.772" cy="16.354" r="12.367"/>
		<circle fill="#F6ADCA" cx="467.262" cy="33.844" r="12.367"/>
		<circle fill="#F6ADCA" cx="432.282" cy="33.844" r="12.367"/>
		<circle fill="#F6ADCA" cx="449.772" cy="51.334" r="12.367"/>
	</g>
	<g>
		<circle fill="#F6ADCA" cx="437.405" cy="21.477" r="12.367"/>
		<circle fill="#F6ADCA" cx="462.139" cy="21.477" r="12.367"/>
		<circle fill="#F6ADCA" cx="437.405" cy="46.211" r="12.367"/>
		<circle fill="#F6ADCA" cx="462.139" cy="46.211" r="12.367"/>
	</g>
</g>
<circle fill="#F26724" cx="449.772" cy="33.844" r="12.367"/>
<polygon fill="#FFDE11" points="285.272,3.017 273.295,35.195 288.99,35.262 283.018,67.493 304.877,25.78 288.299,25.163 
	297.54,3.07 "/>
<path fill="#F6ADCA" d="M124.174,64.063l26.193-26.193c1.221-1.221,1.048-3.392-0.385-4.824c0,0-12.077-7.194-18.067-13.184
	s-4.124-2.126-5.345-0.905L100.378,45.15c-1.221,1.221-5.605-1.166,0.905,5.345c6.511,6.511,17.401,13.85,17.401,13.85
	C120.913,65.241,122.953,65.284,124.174,64.063z"/>
<path fill="#F26724" d="M98.548,47.761L98.548,47.761c-2.507-2.507-2.809-6.305-0.673-8.442l22.863-22.863
	c2.136-2.136,5.935-1.834,8.442,0.673l0,0l2.734,2.734l-30.632,30.632L98.548,47.761z"/>
<path fill="#F26724" d="M88.996,15.791l14.026,12.526l9.738,8.696l5.771-5.771l-8.696-9.738L97.309,7.478
	c-2.786-3.12-7.25-3.854-9.708-1.395C85.142,8.541,85.876,13.005,88.996,15.791z M91.351,9.833c0.69-0.69,1.81-0.69,2.5,0
	s0.69,1.81,0,2.5c-0.69,0.69-1.81,0.69-2.5,0C90.66,11.643,90.66,10.523,91.351,9.833z"/>
<rect x="0" y="30.73" fill="#FFDE11" width="58.82" height="36.763"/>
<polygon fill="#F26724" points="0,30.73 29.41,1.32 58.82,30.73 "/>
<rect x="22.058" y="38.083" fill="#70569E" width="14.705" height="14.705"/>
<polygon fill="#F79421" points="212.237,0 245.984,33.747 212.237,67.493 "/>
<rect x="178.491" y="22.498" fill="#F79421" width="42.341" height="22.498"/>
</svg>
