<?xml version="1.0" encoding="utf-8"?>
<!-- Generator: Adobe Illustrator 17.0.0, SVG Export Plug-In . SVG Version: 6.00 Build 0)  -->
<!DOCTYPE svg PUBLIC "-//W3C//DTD SVG 1.1//EN" "http://www.w3.org/Graphics/SVG/1.1/DTD/svg11.dtd">
<svg version="1.1" id="Layer_1" xmlns="http://www.w3.org/2000/svg" xmlns:xlink="http://www.w3.org/1999/xlink" x="0px" y="0px"
	 width="100%" height="100%" viewBox="0 0 479.629 67.493" enable-background="new 0 0 479.629 67.493"
	 xml:space="preserve">
<g>
	<g>
		<circle fill="#F6ADCA" cx="277.705" cy="60.351" r="8.469"/>
		<circle fill="#F6ADCA" cx="305.229" cy="60.351" r="8.469"/>
	</g>
	<rect x="257.59" y="1.065" fill="#F26724" width="67.755" height="59.286"/>
	<rect x="269.236" y="12.835" fill="#FFDE11" width="16.939" height="16.939"/>
	<rect x="296.76" y="12.835" fill="#FFDE11" width="16.939" height="16.939"/>
</g>
<g>
	<g>
		<polygon fill="#8DC641" points="5.327,28.96 22.068,1.761 38.809,28.96 		"/>
		<polygon fill="#8DC641" points="5.327,47.963 22.068,20.764 38.809,47.963 		"/>
		<polygon fill="#8DC641" points="5.327,68.82 22.068,41.621 38.809,68.82 		"/>
	</g>
	<g>
		<polygon fill="#8DC641" points="38.809,28.96 55.55,1.761 72.29,28.96 		"/>
		<polygon fill="#8DC641" points="38.809,47.963 55.55,20.764 72.29,47.963 		"/>
		<polygon fill="#8DC641" points="38.809,68.82 55.55,41.621 72.29,68.82 		"/>
	</g>
</g>
<g>
	<g>
		<path fill="#FFDE11" d="M126.805,23.402l-4.808,3.003c-0.49,0.307-1.108,0.325-1.616,0.044l-5.994-3.296l4.922,28.118h2.669
			L126.805,23.402z"/>
		<path fill="#FFDE11" d="M120.616,0.524c-12.234,0-22.153,9.918-22.153,22.153c0,16.047,9.631,17.598,11.491,28.595h6.109
			l-5.431-30.851c-0.112-0.607,0.135-1.224,0.636-1.585c0.501-0.362,1.164-0.403,1.705-0.104l8.126,4.469l7.083-4.424
			c0.536-0.335,1.22-0.323,1.744,0.034c0.523,0.356,0.788,0.987,0.673,1.609l-5.378,30.854h6.057
			c1.86-10.997,11.491-12.549,11.491-28.595C142.768,10.442,132.85,0.524,120.616,0.524z"/>
	</g>
	<path fill="#FFDE11" d="M110.248,54.466c0.006,0.227,0.017,0.447,0.017,0.682v2.873h20.701v-2.873c0-0.234,0.011-0.455,0.017-0.682
		H110.248z"/>
	<path fill="#FFDE11" d="M110.301,61.215c0.188,4.228,3.647,7.605,7.921,7.605h4.788c4.274,0,7.733-3.378,7.921-7.605H110.301z"/>
</g>
<g>
	
		<rect x="172.014" y="25.057" transform="matrix(0.7071 -0.7071 0.7071 0.7071 29.5905 151.534)" fill="#70569E" width="51.397" height="29.982"/>
	
		<rect x="172.014" y="34.694" transform="matrix(0.7071 -0.7071 0.7071 0.7071 29.5905 151.534)" fill="#F6ADCA" width="51.397" height="10.708"/>
	<polygon fill="#FFDE11" points="205.284,11.276 231.417,6.344 226.485,32.477 	"/>
	<g>
		<defs>
			<polygon id="SVGID_1_" points="205.284,11.276 231.417,6.344 226.485,32.477 			"/>
		</defs>
		<clipPath id="SVGID_2_">
			<use xlink:href="#SVGID_1_"  overflow="visible"/>
		</clipPath>
		
			<rect x="225.074" y="-0.254" transform="matrix(-0.7071 0.7071 -0.7071 -0.7071 399.0853 -146.54)" clip-path="url(#SVGID_2_)" fill="#70569E" width="9.637" height="19.274"/>
	</g>
</g>
<g>
	<path fill="#F79421" d="M378.708,6.048l-18.787,52.526c-2.049,4.75,1.071,10.247,5.816,10.247h37.574
		c4.745,0,7.865-5.497,5.816-10.247L390.341,6.048C388.002,0.626,381.047,0.626,378.708,6.048z"/>
	<path fill="#F79421" d="M411.469,68.82h-53.89c-3.334,0-6.063-3.028-6.063-6.728v0c0-3.701,2.728-6.728,6.063-6.728h53.89
		c3.334,0,6.063,3.028,6.063,6.728v0C417.532,65.792,414.804,68.82,411.469,68.82z"/>
	<g>
		<defs>
			<path id="SVGID_3_" d="M378.708,6.048l-18.787,52.526c-2.049,4.75,1.071,10.247,5.816,10.247h37.574
				c4.745,0,7.865-5.497,5.816-10.247L390.341,6.048C388.002,0.626,381.047,0.626,378.708,6.048z"/>
		</defs>
		<clipPath id="SVGID_4_">
			<use xlink:href="#SVGID_3_"  overflow="visible"/>
		</clipPath>
		<path clip-path="url(#SVGID_4_)" fill="#FFDE11" d="M412.201,44.897h-55.237c-2.964,0-5.389-2.691-5.389-5.981v-2.99
			c0-3.289,2.425-5.981,5.389-5.981h55.237c2.964,0,5.389,2.691,5.389,5.981v2.99C417.59,42.205,415.165,44.897,412.201,44.897z"/>
	</g>
</g>
<polygon fill="#FFDE11" points="455.682,4.344 443.704,36.522 459.4,36.589 453.428,68.82 475.287,27.107 458.709,26.49 
	467.95,4.397 "/>
</svg>
