<?xml version="1.0" encoding="utf-8"?>
<!-- Generator: Adobe Illustrator 17.0.0, SVG Export Plug-In . SVG Version: 6.00 Build 0)  -->
<!DOCTYPE svg PUBLIC "-//W3C//DTD SVG 1.1//EN" "http://www.w3.org/Graphics/SVG/1.1/DTD/svg11.dtd">
<svg version="1.1" id="Layer_1" xmlns="http://www.w3.org/2000/svg" xmlns:xlink="http://www.w3.org/1999/xlink" x="0px" y="0px"
	 viewBox="0 0 1258 88.249" enable-background="new 0 0 1258 88.249" xml:space="preserve">
<g>
	<g>
		<circle fill="#0B7CD6" cx="1104.236" cy="44.133" r="44.116"/>
		<polygon fill="#F7931E" points="1114.911,62.596 1125.587,44.133 1114.911,25.67 1093.561,25.67 1082.885,44.133 1093.561,62.596 
					"/>
	</g>
	<g>
		<polygon fill="#F7ADCB" points="996.951,0.246 986.102,10.759 971.146,8.631 968.548,23.513 955.197,30.582 961.843,44.148 
			955.197,57.715 968.548,64.784 971.146,79.666 986.102,77.537 996.951,88.05 1007.799,77.537 1022.756,79.666 1025.353,64.784 
			1038.704,57.715 1032.058,44.148 1038.704,30.582 1025.353,23.513 1022.756,8.631 1007.799,10.759 		"/>
		
			<rect x="980.699" y="27.733" transform="matrix(-0.7071 0.7071 -0.7071 -0.7071 1733.3977 -629.7004)" fill="#29ABE2" width="32.831" height="32.831"/>
	</g>
	<g>
		<polygon fill="#8CC63F" points="716.008,22.075 677.858,0.017 639.708,22.075 639.708,66.191 677.858,88.249 716.008,66.191 		"/>
		<rect x="663.503" y="29.778" fill="#FFDE17" width="28.71" height="28.71"/>
	</g>
	<g>
		
			<rect x="859.771" y="13.46" transform="matrix(-0.7071 0.7071 -0.7071 -0.7071 1551.2487 -554.316)" fill="#F7931E" width="61.313" height="61.313"/>
		<path fill="#F7ADCB" d="M890.427,61.834c4.733,0,9.182-1.843,12.528-5.189c3.346-3.346,5.189-7.796,5.189-12.528
			c0-4.733-1.843-9.182-5.189-12.528c-3.346-3.346-7.796-5.189-12.528-5.189c-4.733,0-9.182,1.843-12.528,5.189
			c-3.346,3.346-5.189,7.796-5.189,12.528s1.843,9.182,5.189,12.528C881.245,59.991,885.694,61.834,890.427,61.834z"/>
	</g>
	<g>
		<circle fill="#29ABE2" cx="781.54" cy="44.133" r="44.116"/>
		<polygon fill="#8CC63F" points="781.54,17.744 808.338,64.16 754.742,64.16 		"/>
	</g>
	<g>
		<path fill="#8CC63F" d="M1213.884,61.876c4.733,0,9.182-1.843,12.528-5.189c3.346-3.346,5.189-7.796,5.189-12.528
			c0-4.733-1.843-9.182-5.189-12.528c-3.346-3.346-7.796-5.189-12.528-5.189s-9.182,1.843-12.528,5.189
			c-3.346,3.346-5.189,7.796-5.189,12.528s1.843,9.182,5.189,12.528C1204.702,60.033,1209.151,61.876,1213.884,61.876z"/>
		<polygon fill="#FFDE17" points="1213.884,0 1258,33.702 1241.149,88.232 1186.619,88.232 1169.768,33.702 		"/>
		<rect x="1199.546" y="29.778" fill="#8CC63F" width="28.677" height="28.677"/>
	</g>
	<g>
		<circle fill="#FFDE17" cx="464.528" cy="44.133" r="44.116"/>
		<polygon fill="#0B7CD6" points="475.203,62.596 485.879,44.133 475.203,25.67 453.853,25.67 443.177,44.133 453.853,62.596 		"/>
	</g>
	<g>
		<polygon fill="#0B7CD6" points="357.243,0.246 346.394,10.759 331.438,8.631 328.84,23.513 315.49,30.582 322.136,44.148 
			315.49,57.715 328.84,64.784 331.438,79.666 346.394,77.537 357.243,88.05 368.092,77.537 383.048,79.666 385.645,64.784 
			398.996,57.715 392.35,44.148 398.996,30.582 385.645,23.513 383.048,8.631 368.092,10.759 		"/>
		
			<rect x="340.991" y="27.733" transform="matrix(-0.7071 0.7071 -0.7071 -0.7071 641.3481 -177.3587)" fill="#29ABE2" width="32.831" height="32.831"/>
	</g>
	<g>
		<polygon fill="#F7931E" points="76.301,22.075 38.15,0.017 0,22.075 0,66.191 38.15,88.249 76.301,66.191 		"/>
		<rect x="23.795" y="29.778" fill="#29ABE2" width="28.71" height="28.71"/>
	</g>
	<g>
		
			<rect x="220.063" y="13.46" transform="matrix(-0.7071 0.7071 -0.7071 -0.7071 459.1991 -101.9742)" fill="#8CC63F" width="61.313" height="61.313"/>
		<path fill="#F7931E" d="M250.719,61.834c4.733,0,9.182-1.843,12.528-5.189c3.346-3.346,5.189-7.796,5.189-12.528
			c0-4.733-1.843-9.182-5.189-12.528c-3.346-3.346-7.796-5.189-12.528-5.189c-4.733,0-9.182,1.843-12.528,5.189
			c-3.346,3.346-5.189,7.796-5.189,12.528s1.843,9.182,5.189,12.528C241.537,59.991,245.986,61.834,250.719,61.834z"/>
	</g>
	<g>
		<circle fill="#F7ADCB" cx="141.832" cy="44.133" r="44.116"/>
		<polygon fill="#FFDE17" points="141.832,17.744 168.63,64.16 115.035,64.16 		"/>
	</g>
	<g>
		<path fill="#8CC63F" d="M574.176,61.876c4.733,0,9.182-1.843,12.528-5.189c3.346-3.346,5.189-7.796,5.189-12.528
			c0-4.733-1.843-9.182-5.189-12.528c-3.346-3.346-7.796-5.189-12.528-5.189c-4.733,0-9.182,1.843-12.528,5.189
			c-3.346,3.346-5.189,7.796-5.189,12.528s1.843,9.182,5.189,12.528C564.994,60.033,569.443,61.876,574.176,61.876z"/>
		<polygon fill="#F7ADCB" points="574.176,0 618.292,33.702 601.441,88.232 546.911,88.232 530.06,33.702 		"/>
		<rect x="559.838" y="29.778" fill="#29ABE2" width="28.677" height="28.677"/>
	</g>
</g>
</svg>
