<?xml version="1.0" encoding="utf-8"?>
<!-- Generator: Adobe Illustrator 17.0.0, SVG Export Plug-In . SVG Version: 6.00 Build 0)  -->
<!DOCTYPE svg PUBLIC "-//W3C//DTD SVG 1.1//EN" "http://www.w3.org/Graphics/SVG/1.1/DTD/svg11.dtd">
<svg version="1.1" id="Layer_1" xmlns="http://www.w3.org/2000/svg" xmlns:xlink="http://www.w3.org/1999/xlink" x="0px" y="0px"
	viewBox="0 0 1258 88.249" enable-background="new 0 0 1258 88.249" xml:space="preserve">
<g>
	<g>
		<circle fill="#0B7CD6" cx="153.764" cy="44.133" r="44.116"/>
		<polygon fill="#F7931E" points="143.089,62.596 132.413,44.133 143.089,25.67 164.439,25.67 175.115,44.133 164.439,62.596 		"/>
	</g>
	<g>
		<polygon fill="#F7ADCB" points="261.049,0.246 271.898,10.759 286.854,8.631 289.452,23.513 302.803,30.582 296.157,44.148 
			302.803,57.715 289.452,64.784 286.854,79.666 271.898,77.537 261.049,88.05 250.201,77.537 235.244,79.666 232.647,64.784 
			219.296,57.715 225.942,44.148 219.296,30.582 232.647,23.513 235.244,8.631 250.201,10.759 		"/>
		
			<rect x="244.471" y="27.733" transform="matrix(0.7071 0.7071 -0.7071 0.7071 107.6292 -171.5435)" fill="#29ABE2" width="32.831" height="32.831"/>
	</g>
	<g>
		<polygon fill="#8CC63F" points="541.992,22.075 580.142,0.017 618.292,22.075 618.292,66.191 580.142,88.249 541.992,66.191 		"/>
		<rect x="565.787" y="29.778" fill="#FFDE17" width="28.71" height="28.71"/>
	</g>
	<g>
		
			<rect x="336.917" y="13.46" transform="matrix(0.7071 0.7071 -0.7071 0.7071 138.8545 -246.9921)" fill="#F7931E" width="61.313" height="61.313"/>
		<path fill="#F7ADCB" d="M367.573,61.834c-4.733,0-9.182-1.843-12.528-5.189c-3.346-3.346-5.189-7.796-5.189-12.528
			c0-4.733,1.843-9.182,5.189-12.528c3.346-3.346,7.796-5.189,12.528-5.189c4.733,0,9.182,1.843,12.528,5.189
			c3.346,3.346,5.189,7.796,5.189,12.528s-1.843,9.182-5.189,12.528C376.755,59.991,372.306,61.834,367.573,61.834z"/>
	</g>
	<g>
		<circle fill="#29ABE2" cx="476.46" cy="44.133" r="44.116"/>
		<polygon fill="#8CC63F" points="476.46,17.744 449.662,64.16 503.257,64.16 		"/>
	</g>
	<g>
		<path fill="#8CC63F" d="M44.116,61.876c-4.733,0-9.182-1.843-12.528-5.189c-3.346-3.346-5.189-7.796-5.189-12.528
			c0-4.733,1.843-9.182,5.189-12.528c3.346-3.346,7.796-5.189,12.528-5.189c4.733,0,9.182,1.843,12.528,5.189
			c3.346,3.346,5.189,7.796,5.189,12.528s-1.843,9.182-5.189,12.528C53.298,60.033,48.849,61.876,44.116,61.876z"/>
		<polygon fill="#FFDE17" points="44.116,0 0,33.702 16.851,88.232 71.381,88.232 88.232,33.702 		"/>
		<rect x="29.778" y="29.778" fill="#8CC63F" width="28.677" height="28.677"/>
	</g>
	<g>
		<circle fill="#FFDE17" cx="793.472" cy="44.133" r="44.116"/>
		<polygon fill="#0B7CD6" points="782.797,62.596 772.121,44.133 782.797,25.67 804.147,25.67 814.823,44.133 804.147,62.596 		"/>
	</g>
	<g>
		<polygon fill="#0B7CD6" points="900.757,0.246 911.606,10.759 926.562,8.631 929.16,23.513 942.51,30.582 935.864,44.148 
			942.51,57.715 929.16,64.784 926.562,79.666 911.606,77.537 900.757,88.05 889.908,77.537 874.952,79.666 872.355,64.784 
			859.004,57.715 865.65,44.148 859.004,30.582 872.355,23.513 874.952,8.631 889.908,10.759 		"/>
		
			<rect x="884.178" y="27.733" transform="matrix(0.7071 0.7071 -0.7071 0.7071 294.9953 -623.8853)" fill="#29ABE2" width="32.831" height="32.831"/>
	</g>
	<g>
		<polygon fill="#F7931E" points="1181.699,22.075 1219.85,0.017 1258,22.075 1258,66.191 1219.85,88.249 1181.699,66.191 		"/>
		<rect x="1205.495" y="29.778" fill="#29ABE2" width="28.71" height="28.71"/>
	</g>
	<g>
		
			<rect x="976.625" y="13.46" transform="matrix(0.7071 0.7071 -0.7071 0.7071 326.2206 -699.3339)" fill="#8CC63F" width="61.313" height="61.313"/>
		<path fill="#F7931E" d="M1007.281,61.834c-4.733,0-9.182-1.843-12.528-5.189c-3.346-3.346-5.189-7.796-5.189-12.528
			c0-4.733,1.843-9.182,5.189-12.528c3.346-3.346,7.796-5.189,12.528-5.189s9.182,1.843,12.528,5.189
			c3.346,3.346,5.189,7.796,5.189,12.528s-1.843,9.182-5.189,12.528C1016.463,59.991,1012.013,61.834,1007.281,61.834z"/>
	</g>
	<g>
		<circle fill="#F7ADCB" cx="1116.167" cy="44.133" r="44.116"/>
		<polygon fill="#FFDE17" points="1116.167,17.744 1089.37,64.16 1142.965,64.16 		"/>
	</g>
	<g>
		<path fill="#8CC63F" d="M683.824,61.876c-4.733,0-9.182-1.843-12.528-5.189c-3.346-3.346-5.189-7.796-5.189-12.528
			c0-4.733,1.843-9.182,5.189-12.528c3.346-3.346,7.796-5.189,12.528-5.189c4.733,0,9.182,1.843,12.528,5.189
			c3.346,3.346,5.189,7.796,5.189,12.528s-1.843,9.182-5.189,12.528C693.006,60.033,688.557,61.876,683.824,61.876z"/>
		<polygon fill="#F7ADCB" points="683.824,0 639.708,33.702 656.559,88.232 711.089,88.232 727.94,33.702 		"/>
		<rect x="669.486" y="29.778" fill="#29ABE2" width="28.677" height="28.677"/>
	</g>
</g>
</svg>
