<?xml version="1.0" encoding="UTF-8" standalone="no"?>
<!-- Generator: Adobe Illustrator 17.0.0, SVG Export Plug-In . SVG Version: 6.00 Build 0)  -->

<svg
   xmlns:dc="http://purl.org/dc/elements/1.1/"
   xmlns:cc="http://creativecommons.org/ns#"
   xmlns:rdf="http://www.w3.org/1999/02/22-rdf-syntax-ns#"
   xmlns:svg="http://www.w3.org/2000/svg"
   xmlns="http://www.w3.org/2000/svg"
   xmlns:sodipodi="http://sodipodi.sourceforge.net/DTD/sodipodi-0.dtd"
   xmlns:inkscape="http://www.inkscape.org/namespaces/inkscape"
   version="1.1"
   id="Layer_1"
   x="0px"
   y="0px"
   viewBox="0 0 302.802 197.62129"
   enable-background="new 0 0 1258 88.249"
   xml:space="preserve"
   sodipodi:docname="pattern-bottom-mobile-alt.svg"
   inkscape:version="0.92.3 (2405546, 2018-03-11)"
><metadata
   id="metadata85"><rdf:RDF><cc:Work
       rdf:about=""><dc:format>image/svg+xml</dc:format><dc:type
         rdf:resource="http://purl.org/dc/dcmitype/StillImage" /><dc:title></dc:title></cc:Work></rdf:RDF></metadata><defs
   id="defs83">
	
	
	
	
	
	
	
	
	
	
	
	
</defs><sodipodi:namedview
   pagecolor="#ffffff"
   bordercolor="#666666"
   borderopacity="1"
   objecttolerance="10"
   gridtolerance="10"
   guidetolerance="10"
   inkscape:pageopacity="0"
   inkscape:pageshadow="2"
   inkscape:window-width="1920"
   inkscape:window-height="1052"
   id="namedview81"
   showgrid="false"
   fit-margin-top="0"
   fit-margin-left="0"
   fit-margin-right="0"
   fit-margin-bottom="0"
   inkscape:zoom="1.0874404"
   inkscape:cx="298.42897"
   inkscape:cy="36.239983"
   inkscape:window-x="0"
   inkscape:window-y="0"
   inkscape:window-maximized="1"
   inkscape:current-layer="Layer_1" />
<g
   id="g851"
   transform="translate(7.967,-0.01699829)"><g
     id="g56">
		<polygon
   points="0,66.191 38.15,88.249 76.301,66.191 76.301,22.075 38.15,0.017 0,22.075 "
   id="polygon52"
   style="fill:#f7931e" />
		<rect
   x="23.795"
   y="29.778"
   width="28.709999"
   height="28.709999"
   id="rect54"
   style="fill:#29abe2" />
	</g><g
     id="g62">
		
			<rect
   x="220.063"
   y="13.46"
   transform="matrix(-0.7071,0.7071,-0.7071,-0.7071,459.1991,-101.9742)"
   width="61.313"
   height="61.313"
   id="rect58"
   style="fill:#8cc63f" />
		<path
   d="m 250.719,61.834 c 4.733,0 9.182,-1.843 12.528,-5.189 3.346,-3.346 5.189,-7.796 5.189,-12.528 0,-4.733 -1.843,-9.182 -5.189,-12.528 -3.346,-3.346 -7.796,-5.189 -12.528,-5.189 -4.733,0 -9.182,1.843 -12.528,5.189 -3.346,3.346 -5.189,7.796 -5.189,12.528 0,4.732 1.843,9.182 5.189,12.528 3.346,3.346 7.795,5.189 12.528,5.189 z"
   id="path60"
   inkscape:connector-curvature="0"
   style="fill:#f7931e" />
	</g><g
     id="g68">
		<circle
   cx="141.832"
   cy="44.132999"
   r="44.116001"
   id="circle64"
   style="fill:#f7adcb" />
		<polygon
   points="141.832,17.744 168.63,64.16 115.035,64.16 "
   id="polygon66"
   style="fill:#ffde17" />
	</g></g><g
   id="g840"
   transform="translate(3.603,3.8970665)"><g
     transform="translate(-319.093,105.47522)"
     id="g44">
		<circle
   cx="464.52802"
   cy="44.132999"
   r="44.116001"
   id="circle40"
   style="fill:#ffde17" />
		<polygon
   points="475.203,62.596 485.879,44.133 475.203,25.67 453.853,25.67 443.177,44.133 453.853,62.596 "
   id="polygon42"
   style="fill:#0b7cd6" />
	</g><g
     transform="translate(-319.093,105.47522)"
     id="g50">
		<polygon
   points="383.048,79.666 385.645,64.784 398.996,57.715 392.35,44.148 398.996,30.582 385.645,23.513 383.048,8.631 368.092,10.759 357.243,0.246 346.394,10.759 331.438,8.631 328.84,23.513 315.49,30.582 322.136,44.148 315.49,57.715 328.84,64.784 331.438,79.666 346.394,77.537 357.243,88.05 368.092,77.537 "
   id="polygon46"
   style="fill:#0b7cd6" />
		
			<rect
   x="340.991"
   y="27.733"
   transform="matrix(-0.7071,0.7071,-0.7071,-0.7071,641.3481,-177.3587)"
   width="32.831001"
   height="32.831001"
   id="rect48"
   style="fill:#29abe2" />
	</g><g
     transform="translate(-319.093,105.47522)"
     id="g76">
		<path
   d="m 574.176,61.876 c 4.733,0 9.182,-1.843 12.528,-5.189 3.346,-3.346 5.189,-7.796 5.189,-12.528 0,-4.733 -1.843,-9.182 -5.189,-12.528 -3.346,-3.346 -7.796,-5.189 -12.528,-5.189 -4.733,0 -9.182,1.843 -12.528,5.189 -3.346,3.346 -5.189,7.796 -5.189,12.528 0,4.732 1.843,9.182 5.189,12.528 3.346,3.346 7.795,5.189 12.528,5.189 z"
   id="path70"
   inkscape:connector-curvature="0"
   style="fill:#8cc63f" />
		<polygon
   points="601.441,88.232 546.911,88.232 530.06,33.702 574.176,0 618.292,33.702 "
   id="polygon72"
   style="fill:#f7adcb" />
		<rect
   x="559.83801"
   y="29.778"
   width="28.677"
   height="28.677"
   id="rect74"
   style="fill:#29abe2" />
	</g></g>
</svg>