<?xml version="1.0" encoding="UTF-8" standalone="no"?>
<!-- Generator: Adobe Illustrator 17.0.0, SVG Export Plug-In . SVG Version: 6.00 Build 0)  -->

<svg
   xmlns:dc="http://purl.org/dc/elements/1.1/"
   xmlns:cc="http://creativecommons.org/ns#"
   xmlns:rdf="http://www.w3.org/1999/02/22-rdf-syntax-ns#"
   xmlns:svg="http://www.w3.org/2000/svg"
   xmlns="http://www.w3.org/2000/svg"
   xmlns:sodipodi="http://sodipodi.sourceforge.net/DTD/sodipodi-0.dtd"
   xmlns:inkscape="http://www.inkscape.org/namespaces/inkscape"
   version="1.1"
   id="Layer_1"
   x="0px"
   y="0px"
   viewBox="0 0 618.29199 88.249"
   enable-background="new 0 0 1258 88.249"
   xml:space="preserve"
   sodipodi:docname="pattern-top-mobile.svg"
   inkscape:version="0.92.3 (2405546, 2018-03-11)"><metadata
   id="metadata85"><rdf:RDF><cc:Work
       rdf:about=""><dc:format>image/svg+xml</dc:format><dc:type
         rdf:resource="http://purl.org/dc/dcmitype/StillImage" /><dc:title></dc:title></cc:Work></rdf:RDF></metadata><defs
   id="defs83">
	
	
	
	
	
	
	
	
	
	
	
	
</defs><sodipodi:namedview
   pagecolor="#ffffff"
   bordercolor="#666666"
   borderopacity="1"
   objecttolerance="10"
   gridtolerance="10"
   guidetolerance="10"
   inkscape:pageopacity="0"
   inkscape:pageshadow="2"
   inkscape:window-width="960"
   inkscape:window-height="1052"
   id="namedview81"
   showgrid="false"
   fit-margin-top="0"
   fit-margin-left="0"
   fit-margin-right="0"
   fit-margin-bottom="0"
   inkscape:zoom="0.38446823"
   inkscape:cx="828.41824"
   inkscape:cy="-250.95422"
   inkscape:window-x="0"
   inkscape:window-y="0"
   inkscape:window-maximized="0"
   inkscape:current-layer="Layer_1" />
<g
   id="g6">
		<circle
   style="fill:#0b7cd6"
   id="circle2"
   r="44.116001"
   cy="44.132999"
   cx="153.76401" />
		<polygon
   style="fill:#f7931e"
   id="polygon4"
   points="175.115,44.133 164.439,62.596 143.089,62.596 132.413,44.133 143.089,25.67 164.439,25.67 " />
	</g><g
   id="g12">
		<polygon
   style="fill:#f7adcb"
   id="polygon8"
   points="302.803,30.582 296.157,44.148 302.803,57.715 289.452,64.784 286.854,79.666 271.898,77.537 261.049,88.05 250.201,77.537 235.244,79.666 232.647,64.784 219.296,57.715 225.942,44.148 219.296,30.582 232.647,23.513 235.244,8.631 250.201,10.759 261.049,0.246 271.898,10.759 286.854,8.631 289.452,23.513 " />
		
			<rect
   style="fill:#29abe2"
   id="rect10"
   height="32.831001"
   width="32.831001"
   transform="matrix(0.7071,0.7071,-0.7071,0.7071,107.6292,-171.5435)"
   y="27.733"
   x="244.47099" />
	</g><g
   id="g18">
		<polygon
   style="fill:#8cc63f"
   id="polygon14"
   points="580.142,88.249 541.992,66.191 541.992,22.075 580.142,0.017 618.292,22.075 618.292,66.191 " />
		<rect
   style="fill:#ffde17"
   id="rect16"
   height="28.709999"
   width="28.709999"
   y="29.778"
   x="565.78699" />
	</g><g
   id="g24">
		
			<rect
   style="fill:#f7931e"
   id="rect20"
   height="61.313"
   width="61.313"
   transform="matrix(0.7071,0.7071,-0.7071,0.7071,138.8545,-246.9921)"
   y="13.46"
   x="336.91699" />
		<path
   style="fill:#f7adcb"
   inkscape:connector-curvature="0"
   id="path22"
   d="m 367.573,61.834 c -4.733,0 -9.182,-1.843 -12.528,-5.189 -3.346,-3.346 -5.189,-7.796 -5.189,-12.528 0,-4.733 1.843,-9.182 5.189,-12.528 3.346,-3.346 7.796,-5.189 12.528,-5.189 4.733,0 9.182,1.843 12.528,5.189 3.346,3.346 5.189,7.796 5.189,12.528 0,4.732 -1.843,9.182 -5.189,12.528 -3.346,3.346 -7.795,5.189 -12.528,5.189 z" />
	</g><g
   id="g30">
		<circle
   style="fill:#29abe2"
   id="circle26"
   r="44.116001"
   cy="44.132999"
   cx="476.45999" />
		<polygon
   style="fill:#8cc63f"
   id="polygon28"
   points="449.662,64.16 503.257,64.16 476.46,17.744 " />
	</g><g
   id="g38">
		<path
   style="fill:#8cc63f"
   inkscape:connector-curvature="0"
   id="path32"
   d="m 44.116,61.876 c -4.733,0 -9.182,-1.843 -12.528,-5.189 -3.346,-3.346 -5.189,-7.796 -5.189,-12.528 0,-4.733 1.843,-9.182 5.189,-12.528 3.346,-3.346 7.796,-5.189 12.528,-5.189 4.733,0 9.182,1.843 12.528,5.189 3.346,3.346 5.189,7.796 5.189,12.528 0,4.732 -1.843,9.182 -5.189,12.528 -3.346,3.346 -7.795,5.189 -12.528,5.189 z" />
		<polygon
   style="fill:#ffde17"
   id="polygon34"
   points="88.232,33.702 44.116,0 0,33.702 16.851,88.232 71.381,88.232 " />
		<rect
   style="fill:#8cc63f"
   id="rect36"
   height="28.677"
   width="28.677"
   y="29.778"
   x="29.778" />
	</g>
</svg>