<?xml version="1.0" encoding="utf-8"?>
<!-- Generator: Adobe Illustrator 17.0.0, SVG Export Plug-In . SVG Version: 6.00 Build 0)  -->
<!DOCTYPE svg PUBLIC "-//W3C//DTD SVG 1.1//EN" "http://www.w3.org/Graphics/SVG/1.1/DTD/svg11.dtd">
<svg version="1.1" id="Layer_1" xmlns="http://www.w3.org/2000/svg" xmlns:xlink="http://www.w3.org/1999/xlink" x="0px" y="0px"
	 width="100%" height="100%" viewBox="0 0 190 60" enable-background="new 0 0 190 60" xml:space="preserve">
<rect y="0" fill="#FFDE11" width="190" height="60"/>
<g>
	<g>
		<path fill="#010101" d="M34.226,22.242l4.978,13.983l5.047-13.983h2.292l-5.997,16.322h-2.663l-5.973-16.322H34.226z"/>
		<path fill="#010101" d="M55.41,23.955v5.58h6.205v1.62H55.41v5.696h6.899v1.713h-9.006V22.242h9.006v1.713H55.41z"/>
		<path fill="#010101" d="M78.308,38.564l-4.261-6.668h-2.291v6.668h-2.107V22.242h5.371c1.853,0,3.242,0.443,4.168,1.331
			s1.389,2.064,1.389,3.531c0,1.327-0.37,2.396-1.111,3.206c-0.74,0.811-1.813,1.316-3.218,1.517l4.445,6.737H78.308z
			 M71.756,30.368h3.079c2.392,0,3.589-1.049,3.589-3.148c0-2.099-1.197-3.148-3.589-3.148h-3.079V30.368z"/>
		<path fill="#010101" d="M114.471,22.519v16.045h-2.106V25.762l-5.116,12.803h-1.875l-5.141-12.757v12.757h-2.107V22.519h2.524
			l5.695,13.475l5.603-13.475H114.471z"/>
		<path fill="#010101" d="M132.043,34.791h-7.177l-1.366,3.773h-2.269l6.042-16.021h2.385l6.02,16.021h-2.268L132.043,34.791z
			 M131.441,33.146l-2.986-8.242l-2.986,8.242H131.441z M132.252,18.514l-4.932,2.709v-1.505l4.932-2.917V18.514z"/>
		<path fill="#010101" d="M152.209,36.48c-0.371,0.664-0.934,1.204-1.69,1.621s-1.69,0.625-2.802,0.625
			c-1.08,0-2.041-0.197-2.882-0.591s-1.513-0.934-2.015-1.62s-0.791-1.471-0.867-2.351h2.245c0.046,0.464,0.204,0.915,0.475,1.354
			c0.271,0.44,0.655,0.803,1.157,1.089c0.502,0.285,1.107,0.428,1.818,0.428c0.926,0,1.635-0.246,2.129-0.74
			s0.741-1.127,0.741-1.898c0-0.664-0.173-1.204-0.521-1.621s-0.775-0.744-1.285-0.984c-0.51-0.238-1.204-0.497-2.084-0.775
			c-1.034-0.339-1.863-0.659-2.488-0.961c-0.625-0.301-1.158-0.752-1.598-1.354c-0.439-0.602-0.66-1.396-0.66-2.384
			c0-0.85,0.205-1.598,0.613-2.246c0.409-0.648,0.996-1.149,1.76-1.505s1.663-0.532,2.697-0.532c1.605,0,2.879,0.39,3.82,1.169
			s1.489,1.771,1.645,2.975h-2.27c-0.124-0.648-0.455-1.219-0.996-1.713c-0.54-0.494-1.273-0.741-2.199-0.741
			c-0.849,0-1.527,0.22-2.037,0.66c-0.51,0.439-0.764,1.062-0.764,1.863c0,0.634,0.165,1.146,0.498,1.54
			c0.331,0.394,0.744,0.702,1.238,0.926c0.494,0.225,1.172,0.475,2.037,0.753c1.049,0.34,1.895,0.664,2.535,0.973
			s1.185,0.775,1.633,1.4c0.447,0.625,0.671,1.455,0.671,2.488C152.765,35.099,152.58,35.817,152.209,36.48z"/>
	</g>
</g>
</svg>
