<?xml version="1.0" encoding="UTF-8" standalone="no"?>
<!-- Generator: Adobe Illustrator 17.0.0, SVG Export Plug-In . SVG Version: 6.00 Build 0)  -->

<svg
   xmlns:dc="http://purl.org/dc/elements/1.1/"
   xmlns:cc="http://creativecommons.org/ns#"
   xmlns:rdf="http://www.w3.org/1999/02/22-rdf-syntax-ns#"
   xmlns:svg="http://www.w3.org/2000/svg"
   xmlns="http://www.w3.org/2000/svg"
   xmlns:xlink="http://www.w3.org/1999/xlink"
   xmlns:sodipodi="http://sodipodi.sourceforge.net/DTD/sodipodi-0.dtd"
   xmlns:inkscape="http://www.inkscape.org/namespaces/inkscape"
   version="1.1"
   id="Layer_1"
   x="0px"
   y="0px"
   viewBox="0 0 907.684 249.87615"
   enable-background="new 0 0 907.684 769.715"
   xml:space="preserve"
   sodipodi:docname="volver_a_la_calle_logo_bottom_mobile.svg"
   inkscape:version="0.92.3 (2405546, 2018-03-11)"><metadata
   id="metadata453"><rdf:RDF><cc:Work
       rdf:about=""><dc:format>image/svg+xml</dc:format><dc:type
         rdf:resource="http://purl.org/dc/dcmitype/StillImage" /><dc:title></dc:title></cc:Work></rdf:RDF></metadata><defs
   id="defs451" /><sodipodi:namedview
   pagecolor="#ffffff"
   bordercolor="#666666"
   borderopacity="1"
   objecttolerance="10"
   gridtolerance="10"
   guidetolerance="10"
   inkscape:pageopacity="0"
   inkscape:pageshadow="2"
   inkscape:window-width="1920"
   inkscape:window-height="1052"
   id="namedview449"
   showgrid="false"
   inkscape:zoom="0.30660699"
   inkscape:cx="453.842"
   inkscape:cy="90.187661"
   inkscape:window-x="0"
   inkscape:window-y="0"
   inkscape:window-maximized="1"
   inkscape:current-layer="Layer_1"
   fit-margin-top="0"
   fit-margin-left="0"
   fit-margin-right="0"
   fit-margin-bottom="0" />











<g
   id="g272"
   transform="translate(0,-517.62)">
	<polygon
   points="58.409,624.093 46.79,613.538 32.938,620.92 27.555,606.175 11.858,606.274 13.945,590.717 0,583.51 9.078,570.704 0.079,557.842 14.068,550.722 12.077,535.152 27.773,535.348 33.246,520.636 47.053,528.104 58.736,517.62 67.491,530.649 82.708,526.796 84.405,542.401 99.67,546.061 93.92,560.667 105.736,571.002 93.857,581.263 99.516,595.905 84.229,599.47 82.436,615.065 67.243,611.118 "
   id="polygon206"
   style="fill:#8dc641" />
	<g
   id="g214">
		<path
   d="m 309.544,608.929 34.085,-34.085 c 1.589,-1.589 1.364,-4.414 -0.5,-6.278 0,0 -15.716,-9.362 -23.511,-17.156 -7.795,-7.794 -5.367,-2.767 -6.955,-1.178 l -34.085,34.085 c -1.589,1.589 -7.294,-1.517 1.178,6.955 8.472,8.472 22.644,18.023 22.644,18.023 2.9,1.167 5.556,1.222 7.144,-0.366 z"
   id="path208"
   inkscape:connector-curvature="0"
   style="fill:#f6adca" />
		<path
   d="m 276.198,587.714 v 0 c -3.262,-3.262 -3.656,-8.205 -0.876,-10.986 l 29.752,-29.752 c 2.78,-2.78 7.724,-2.386 10.986,0.876 v 0 l 3.558,3.558 -39.862,39.862 z"
   id="path210"
   inkscape:connector-curvature="0"
   style="fill:#f26724" />
		<path
   d="m 263.767,546.111 18.252,16.3 12.672,11.317 7.51,-7.51 -11.317,-12.672 -16.3,-18.252 c -3.626,-4.06 -9.434,-5.015 -12.633,-1.816 -3.2,3.199 -2.245,9.007 1.816,12.633 z m 3.064,-7.753 c 0.898,-0.898 2.355,-0.898 3.253,0 0.898,0.898 0.898,2.355 0,3.253 -0.898,0.898 -2.355,0.898 -3.253,0 -0.899,-0.898 -0.899,-2.355 0,-3.253 z"
   id="path212"
   inkscape:connector-curvature="0"
   style="fill:#f26724" />
	</g>
	<g
   id="g228">
		<rect
   x="570.479"
   y="522.06598"
   width="97.581001"
   height="97.581001"
   id="rect216"
   style="fill:#70569e" />
		<g
   id="g226">
			<rect
   x="613.81799"
   y="562.61902"
   width="3.319"
   height="19.732"
   id="rect218"
   style="fill:#ffffff" />
			<rect
   x="613.81799"
   y="592.724"
   width="3.319"
   height="19.732"
   id="rect220"
   style="fill:#ffffff" />
			<rect
   x="613.81799"
   y="531.18103"
   width="3.319"
   height="19.732"
   id="rect222"
   style="fill:#ffffff" />
			<rect
   x="621.40198"
   y="523.92102"
   width="3.319"
   height="93.872002"
   id="rect224"
   style="fill:#ffde11" />
		</g>
	</g>
	<path
   d="m 734.144,524.031 c -18.333,0 -33.195,14.862 -33.195,33.195 0,18.333 33.195,60.455 33.195,60.455 0,0 33.195,-42.122 33.195,-60.455 0,-18.333 -14.862,-33.195 -33.195,-33.195 z m 0,46.875 c -6.366,0 -11.527,-5.161 -11.527,-11.527 0,-6.366 5.161,-11.527 11.527,-11.527 6.366,0 11.527,5.161 11.527,11.527 0,6.366 -5.161,11.527 -11.527,11.527 z"
   id="path230"
   inkscape:connector-curvature="0"
   style="fill:#8dc641" />
	<g
   id="g238">
		<rect
   x="138.625"
   y="565.323"
   width="88.524002"
   height="55.327999"
   id="rect232"
   style="fill:#ffde11" />
		<polygon
   points="227.149,565.324 138.625,565.324 182.887,521.062 "
   id="polygon234"
   style="fill:#f26724" />
		<rect
   x="171.82201"
   y="576.38898"
   width="22.131001"
   height="22.131001"
   id="rect236"
   style="fill:#70569e" />
	</g>
	<g
   id="g244">
		<polygon
   points="427.018,620.297 427.018,521.416 476.459,570.857 "
   id="polygon240"
   style="fill:#f79421" />
		<rect
   x="377.577"
   y="554.37598"
   width="62.032001"
   height="32.960999"
   id="rect242"
   style="fill:#f79421" />
	</g>
	<g
   id="g260">
		<defs
   id="defs247">
			<rect
   id="SVGID_5_"
   x="800.22803"
   y="520.763"
   width="100.187"
   height="100.187" />
		</defs>
		<clipPath
   id="SVGID_6_">
			<use
   xlink:href="#SVGID_5_"
   overflow="visible"
   id="use249"
   style="overflow:visible"
   x="0"
   y="0"
   width="100%"
   height="100%" />
		</clipPath>
		<g
   clip-path="url(#SVGID_6_)"
   id="g258">
			<circle
   cx="900.41602"
   cy="620.78198"
   r="100.187"
   id="circle252"
   style="fill:#f26724" />
			<path
   d="m 900.416,687.573 c -36.829,0 -66.792,-29.962 -66.792,-66.791 0,-36.829 29.963,-66.792 66.792,-66.792 36.829,0 66.792,29.962 66.792,66.792 -10e-4,36.829 -29.963,66.791 -66.792,66.791 z"
   id="path254"
   inkscape:connector-curvature="0"
   style="fill:#f6adca" />
			<path
   d="m 900.416,654.178 c -18.415,0 -33.396,-14.981 -33.396,-33.395 0,-18.415 14.981,-33.396 33.396,-33.396 18.415,0 33.396,14.981 33.396,33.396 -10e-4,18.413 -14.982,33.395 -33.396,33.395 z"
   id="path256"
   inkscape:connector-curvature="0"
   style="fill:#70569e" />
		</g>
	</g>
	<g
   id="g270">
		<g
   id="g268">
			<circle
   cx="523.46899"
   cy="599.09802"
   r="14.121"
   id="circle262"
   style="fill:#8dc641" />
			<circle
   cx="523.46899"
   cy="570.85699"
   r="14.121"
   id="circle264"
   style="fill:#ffde11" />
			<circle
   cx="523.46899"
   cy="542.61499"
   r="14.121"
   id="circle266"
   style="fill:#f26724" />
		</g>
	</g>
</g>
<g
   id="g436"
   transform="translate(0,-517.62)">
	<g
   id="g330">
		<g
   id="g328">
			<g
   id="g304">
				<path
   d="m 420.496,702.49 c 1.534,1.245 2.495,2.941 2.882,5.088 h -4.798 c -0.193,-0.944 -0.634,-1.691 -1.32,-2.238 -0.688,-0.548 -1.557,-0.821 -2.608,-0.821 -1.202,0 -2.206,0.446 -3.011,1.337 -0.805,0.891 -1.208,2.194 -1.208,3.912 0,1.718 0.403,3.021 1.208,3.912 0.805,0.892 1.809,1.337 3.011,1.337 1.052,0 1.921,-0.274 2.608,-0.821 0.687,-0.548 1.127,-1.293 1.32,-2.238 h 4.798 c -0.387,2.147 -1.348,3.843 -2.882,5.088 -1.535,1.245 -3.451,1.868 -5.748,1.868 -1.739,0 -3.284,-0.371 -4.637,-1.111 -1.353,-0.74 -2.405,-1.798 -3.156,-3.172 -0.752,-1.374 -1.127,-2.995 -1.127,-4.862 0,-1.868 0.375,-3.494 1.127,-4.879 0.751,-1.385 1.804,-2.441 3.156,-3.172 1.353,-0.729 2.897,-1.095 4.637,-1.095 2.297,-0.001 4.213,0.622 5.748,1.867 z"
   id="path274"
   inkscape:connector-curvature="0"
   style="fill:#ffffff" />
				<path
   d="m 427.409,693.94 c 0.516,-0.461 1.191,-0.692 2.029,-0.692 0.837,0 1.513,0.231 2.028,0.692 0.515,0.462 0.772,1.058 0.772,1.787 0,0.709 -0.258,1.294 -0.772,1.755 -0.516,0.462 -1.191,0.692 -2.028,0.692 -0.838,0 -1.514,-0.23 -2.029,-0.692 -0.515,-0.461 -0.772,-1.046 -0.772,-1.755 0,-0.729 0.258,-1.325 0.772,-1.787 z m 4.284,6.908 v 17.84 h -4.541 v -17.84 z"
   id="path276"
   inkscape:connector-curvature="0"
   style="fill:#ffffff" />
				<path
   d="m 453.621,700.848 v 17.84 h -4.541 v -3.606 c -0.472,1.202 -1.251,2.141 -2.334,2.817 -1.085,0.676 -2.335,1.015 -3.752,1.015 -2.061,0 -3.703,-0.677 -4.927,-2.029 -1.224,-1.352 -1.835,-3.241 -1.835,-5.667 v -10.369 h 4.508 v 9.854 c 0,1.417 0.365,2.518 1.095,3.301 0.729,0.784 1.718,1.176 2.963,1.176 1.309,0 2.351,-0.419 3.123,-1.256 0.773,-0.838 1.159,-2.04 1.159,-3.607 v -9.467 h 4.541 z"
   id="path278"
   inkscape:connector-curvature="0"
   style="fill:#ffffff" />
				<path
   d="m 469.335,701.685 c 1.063,0.709 1.83,1.664 2.303,2.866 v -9.692 h 4.508 v 23.829 h -4.508 v -3.735 c -0.473,1.202 -1.24,2.163 -2.303,2.882 -1.063,0.72 -2.346,1.079 -3.848,1.079 -1.503,0 -2.855,-0.365 -4.058,-1.096 -1.202,-0.729 -2.142,-1.787 -2.817,-3.172 -0.677,-1.384 -1.015,-3.011 -1.015,-4.878 0,-1.868 0.338,-3.494 1.015,-4.879 0.676,-1.385 1.615,-2.441 2.817,-3.172 1.202,-0.729 2.555,-1.095 4.058,-1.095 1.502,0 2.786,0.355 3.848,1.063 z m -5.845,4.283 c -0.858,0.923 -1.288,2.189 -1.288,3.8 0,1.611 0.43,2.871 1.288,3.783 0.858,0.913 1.997,1.369 3.414,1.369 1.373,0 2.506,-0.467 3.396,-1.401 0.891,-0.934 1.337,-2.184 1.337,-3.751 0,-1.589 -0.446,-2.85 -1.337,-3.784 -0.891,-0.934 -2.023,-1.4 -3.396,-1.4 -1.417,-10e-4 -2.555,0.461 -3.414,1.384 z"
   id="path280"
   inkscape:connector-curvature="0"
   style="fill:#ffffff" />
				<path
   d="m 491.876,701.685 c 1.074,0.709 1.835,1.664 2.287,2.866 v -3.703 h 4.508 v 17.84 h -4.508 v -3.735 c -0.451,1.202 -1.213,2.163 -2.287,2.882 -1.074,0.72 -2.362,1.079 -3.864,1.079 -1.503,0 -2.855,-0.365 -4.058,-1.096 -1.202,-0.729 -2.142,-1.787 -2.817,-3.172 -0.677,-1.384 -1.015,-3.011 -1.015,-4.878 0,-1.868 0.338,-3.494 1.015,-4.879 0.676,-1.385 1.615,-2.441 2.817,-3.172 1.202,-0.729 2.555,-1.095 4.058,-1.095 1.502,0 2.79,0.355 3.864,1.063 z m -5.861,4.283 c -0.858,0.923 -1.288,2.189 -1.288,3.8 0,1.611 0.43,2.871 1.288,3.783 0.858,0.913 1.997,1.369 3.414,1.369 1.373,0 2.506,-0.467 3.397,-1.401 0.891,-0.934 1.337,-2.184 1.337,-3.751 0,-1.589 -0.446,-2.85 -1.337,-3.784 -0.891,-0.934 -2.024,-1.4 -3.397,-1.4 -1.417,-10e-4 -2.556,0.461 -3.414,1.384 z"
   id="path282"
   inkscape:connector-curvature="0"
   style="fill:#ffffff" />
				<path
   d="m 514.384,701.685 c 1.063,0.709 1.83,1.664 2.303,2.866 v -9.692 h 4.508 v 23.829 h -4.508 v -3.735 c -0.473,1.202 -1.24,2.163 -2.303,2.882 -1.063,0.72 -2.346,1.079 -3.848,1.079 -1.503,0 -2.855,-0.365 -4.058,-1.096 -1.202,-0.729 -2.142,-1.787 -2.817,-3.172 -0.677,-1.384 -1.015,-3.011 -1.015,-4.878 0,-1.868 0.338,-3.494 1.015,-4.879 0.676,-1.385 1.615,-2.441 2.817,-3.172 1.202,-0.729 2.555,-1.095 4.058,-1.095 1.503,0 2.786,0.355 3.848,1.063 z m -5.844,4.283 c -0.858,0.923 -1.288,2.189 -1.288,3.8 0,1.611 0.43,2.871 1.288,3.783 0.858,0.913 1.997,1.369 3.414,1.369 1.373,0 2.506,-0.467 3.396,-1.401 0.891,-0.934 1.337,-2.184 1.337,-3.751 0,-1.589 -0.446,-2.85 -1.337,-3.784 -0.891,-0.934 -2.023,-1.4 -3.396,-1.4 -1.417,-10e-4 -2.556,0.461 -3.414,1.384 z"
   id="path284"
   inkscape:connector-curvature="0"
   style="fill:#ffffff" />
				<path
   d="m 542.69,710.637 h -13.073 c 0.063,1.589 0.493,2.759 1.287,3.51 0.795,0.752 1.782,1.127 2.963,1.127 1.052,0 1.927,-0.257 2.625,-0.772 0.697,-0.515 1.143,-1.213 1.336,-2.093 h 4.798 c -0.236,1.245 -0.74,2.361 -1.514,3.349 -0.772,0.987 -1.766,1.761 -2.979,2.318 -1.213,0.559 -2.56,0.838 -4.041,0.838 -1.739,0 -3.284,-0.371 -4.637,-1.111 -1.353,-0.74 -2.405,-1.798 -3.156,-3.172 -0.752,-1.374 -1.127,-2.995 -1.127,-4.862 0,-1.868 0.375,-3.494 1.127,-4.879 0.751,-1.385 1.804,-2.441 3.156,-3.172 1.353,-0.729 2.897,-1.095 4.637,-1.095 1.76,0 3.301,0.365 4.621,1.095 1.32,0.73 2.34,1.734 3.059,3.011 0.72,1.278 1.079,2.732 1.079,4.363 0,0.45 -0.054,0.966 -0.161,1.545 z m -5.555,-5.314 c -0.827,-0.751 -1.841,-1.127 -3.043,-1.127 -1.224,0 -2.254,0.376 -3.092,1.127 -0.837,0.752 -1.299,1.857 -1.384,3.317 h 8.662 c 0.065,-1.459 -0.316,-2.565 -1.143,-3.317 z"
   id="path286"
   inkscape:connector-curvature="0"
   style="fill:#ffffff" />
				<path
   d="m 557.93,702.265 c 1.31,1.095 2.126,2.555 2.447,4.379 h -4.25 c -0.173,-0.858 -0.559,-1.545 -1.159,-2.061 -0.602,-0.516 -1.385,-0.772 -2.351,-0.772 -0.773,0 -1.375,0.183 -1.804,0.547 -0.43,0.365 -0.645,0.859 -0.645,1.481 0,0.494 0.172,0.891 0.516,1.191 0.343,0.301 0.772,0.537 1.288,0.709 0.516,0.172 1.256,0.375 2.222,0.611 1.353,0.301 2.452,0.617 3.301,0.95 0.848,0.333 1.578,0.858 2.189,1.578 0.612,0.719 0.918,1.69 0.918,2.914 0,1.524 -0.596,2.759 -1.787,3.703 -1.191,0.944 -2.797,1.417 -4.814,1.417 -2.318,0 -4.175,-0.521 -5.57,-1.563 -1.396,-1.041 -2.244,-2.527 -2.544,-4.46 h 4.347 c 0.107,0.881 0.494,1.573 1.159,2.077 0.666,0.505 1.535,0.757 2.608,0.757 0.773,0 1.363,-0.188 1.771,-0.563 0.407,-0.375 0.611,-0.864 0.611,-1.465 0,-0.516 -0.177,-0.935 -0.531,-1.256 -0.354,-0.322 -0.794,-0.568 -1.32,-0.741 -0.525,-0.171 -1.271,-0.375 -2.237,-0.611 -1.332,-0.301 -2.41,-0.606 -3.236,-0.918 -0.827,-0.311 -1.535,-0.81 -2.125,-1.497 -0.591,-0.688 -0.886,-1.632 -0.886,-2.834 0,-1.546 0.59,-2.802 1.771,-3.768 1.181,-0.966 2.813,-1.449 4.895,-1.449 2.168,10e-4 3.907,0.549 5.216,1.644 z"
   id="path288"
   inkscape:connector-curvature="0"
   style="fill:#ffffff" />
				<path
   d="m 420.496,734.422 c 1.534,1.245 2.495,2.941 2.882,5.088 h -4.798 c -0.193,-0.944 -0.634,-1.69 -1.32,-2.238 -0.688,-0.547 -1.557,-0.82 -2.608,-0.82 -1.202,0 -2.206,0.445 -3.011,1.336 -0.805,0.891 -1.208,2.195 -1.208,3.912 0,1.718 0.403,3.022 1.208,3.913 0.805,0.891 1.809,1.336 3.011,1.336 1.052,0 1.921,-0.273 2.608,-0.821 0.687,-0.547 1.127,-1.293 1.32,-2.237 h 4.798 c -0.387,2.146 -1.348,3.843 -2.882,5.088 -1.535,1.245 -3.451,1.867 -5.748,1.867 -1.739,0 -3.284,-0.37 -4.637,-1.111 -1.353,-0.74 -2.405,-1.797 -3.156,-3.172 -0.752,-1.373 -1.127,-2.994 -1.127,-4.862 0,-1.867 0.375,-3.493 1.127,-4.878 0.751,-1.385 1.804,-2.442 3.156,-3.172 1.352,-0.73 2.897,-1.095 4.637,-1.095 2.297,-0.001 4.213,0.622 5.748,1.866 z"
   id="path290"
   inkscape:connector-curvature="0"
   style="fill:#ffffff" />
				<path
   d="m 440.069,733.649 c 1.384,0.729 2.474,1.787 3.268,3.172 0.794,1.385 1.191,3.011 1.191,4.878 0,1.868 -0.397,3.489 -1.191,4.862 -0.794,1.375 -1.884,2.432 -3.268,3.172 -1.385,0.741 -2.947,1.111 -4.686,1.111 -1.739,0 -3.301,-0.37 -4.686,-1.111 -1.385,-0.74 -2.475,-1.797 -3.269,-3.172 -0.794,-1.373 -1.191,-2.994 -1.191,-4.862 0,-1.867 0.397,-3.493 1.191,-4.878 0.794,-1.385 1.884,-2.442 3.269,-3.172 1.385,-0.73 2.946,-1.095 4.686,-1.095 1.738,10e-4 3.301,0.366 4.686,1.095 z m -7.907,4.17 c -0.88,0.891 -1.32,2.185 -1.32,3.88 0,1.696 0.44,2.99 1.32,3.881 0.88,0.891 1.953,1.336 3.221,1.336 1.267,0 2.34,-0.445 3.22,-1.336 0.88,-0.891 1.32,-2.185 1.32,-3.881 0,-1.695 -0.44,-2.989 -1.32,-3.88 -0.88,-0.891 -1.953,-1.336 -3.22,-1.336 -1.268,0 -2.341,0.446 -3.221,1.336 z"
   id="path292"
   inkscape:connector-curvature="0"
   style="fill:#ffffff" />
				<path
   d="m 476.288,734.535 c 1.256,1.342 1.884,3.247 1.884,5.716 v 10.368 h -4.509 v -9.854 c 0,-1.373 -0.349,-2.431 -1.046,-3.172 -0.698,-0.74 -1.659,-1.11 -2.883,-1.11 -1.267,0 -2.275,0.397 -3.026,1.191 -0.752,0.794 -1.127,1.953 -1.127,3.478 v 9.467 h -4.509 v -9.854 c 0,-1.373 -0.349,-2.431 -1.046,-3.172 -0.698,-0.74 -1.659,-1.11 -2.883,-1.11 -1.267,0 -2.275,0.397 -3.026,1.191 -0.752,0.794 -1.127,1.953 -1.127,3.478 v 9.467 h -4.541 V 732.78 h 4.541 v 3.381 c 0.472,-1.159 1.218,-2.056 2.237,-2.689 1.02,-0.633 2.206,-0.949 3.559,-0.949 1.438,0 2.688,0.344 3.752,1.03 1.063,0.688 1.861,1.675 2.398,2.963 0.559,-1.224 1.39,-2.195 2.496,-2.915 1.105,-0.719 2.345,-1.078 3.719,-1.078 2.168,-10e-4 3.881,0.67 5.137,2.012 z"
   id="path294"
   inkscape:connector-curvature="0"
   style="fill:#ffffff" />
				<path
   d="m 499.944,732.78 v 17.839 h -4.541 v -3.606 c -0.472,1.203 -1.251,2.142 -2.334,2.817 -1.085,0.677 -2.335,1.015 -3.752,1.015 -2.061,0 -3.703,-0.676 -4.927,-2.028 -1.224,-1.352 -1.835,-3.241 -1.835,-5.668 V 732.78 h 4.508 v 9.854 c 0,1.417 0.365,2.517 1.095,3.301 0.729,0.783 1.718,1.175 2.963,1.175 1.309,0 2.351,-0.419 3.124,-1.256 0.773,-0.837 1.159,-2.039 1.159,-3.606 v -9.467 h 4.54 z"
   id="path296"
   inkscape:connector-curvature="0"
   style="fill:#ffffff" />
				<path
   d="m 520.33,734.551 c 1.224,1.353 1.835,3.253 1.835,5.7 v 10.368 h -4.508 v -9.854 c 0,-1.417 -0.365,-2.517 -1.095,-3.301 -0.73,-0.783 -1.729,-1.175 -2.995,-1.175 -1.288,0 -2.318,0.418 -3.091,1.256 -0.773,0.837 -1.159,2.039 -1.159,3.606 v 9.467 h -4.541 V 732.78 h 4.541 v 3.574 c 0.472,-1.202 1.25,-2.142 2.334,-2.818 1.084,-0.676 2.335,-1.014 3.752,-1.014 2.061,0 3.703,0.676 4.927,2.029 z"
   id="path298"
   inkscape:connector-curvature="0"
   style="fill:#ffffff" />
				<path
   d="m 543.485,742.569 h -13.073 c 0.063,1.589 0.493,2.759 1.287,3.51 0.795,0.752 1.782,1.127 2.963,1.127 1.052,0 1.927,-0.258 2.625,-0.772 0.697,-0.516 1.143,-1.213 1.336,-2.094 h 4.798 c -0.236,1.245 -0.74,2.362 -1.514,3.35 -0.772,0.987 -1.766,1.76 -2.979,2.318 -1.213,0.558 -2.56,0.837 -4.041,0.837 -1.739,0 -3.284,-0.37 -4.637,-1.111 -1.353,-0.74 -2.405,-1.797 -3.156,-3.172 -0.752,-1.373 -1.127,-2.994 -1.127,-4.862 0,-1.867 0.375,-3.493 1.127,-4.878 0.751,-1.385 1.804,-2.442 3.156,-3.172 1.352,-0.73 2.897,-1.095 4.637,-1.095 1.76,0 3.301,0.365 4.621,1.095 1.32,0.73 2.34,1.733 3.059,3.011 0.72,1.277 1.079,2.732 1.079,4.363 0,0.451 -0.054,0.965 -0.161,1.545 z m -5.555,-5.313 c -0.827,-0.751 -1.841,-1.127 -3.043,-1.127 -1.224,0 -2.254,0.376 -3.092,1.127 -0.837,0.752 -1.299,1.857 -1.384,3.316 h 8.662 c 0.065,-1.459 -0.317,-2.564 -1.143,-3.316 z"
   id="path300"
   inkscape:connector-curvature="0"
   style="fill:#ffffff" />
				<path
   d="m 558.725,734.196 c 1.31,1.096 2.126,2.556 2.447,4.38 h -4.25 c -0.173,-0.858 -0.559,-1.546 -1.159,-2.061 -0.602,-0.516 -1.385,-0.773 -2.351,-0.773 -0.773,0 -1.375,0.183 -1.804,0.548 -0.43,0.365 -0.645,0.858 -0.645,1.481 0,0.493 0.172,0.891 0.516,1.191 0.343,0.301 0.772,0.536 1.288,0.708 0.516,0.172 1.256,0.376 2.222,0.612 1.353,0.301 2.452,0.617 3.301,0.949 0.848,0.333 1.578,0.859 2.189,1.578 0.612,0.72 0.918,1.69 0.918,2.914 0,1.524 -0.596,2.759 -1.787,3.703 -1.191,0.945 -2.797,1.417 -4.814,1.417 -2.318,0 -4.175,-0.521 -5.57,-1.562 -1.395,-1.041 -2.244,-2.528 -2.544,-4.46 h 4.347 c 0.107,0.881 0.494,1.572 1.159,2.077 0.666,0.504 1.535,0.757 2.608,0.757 0.773,0 1.363,-0.188 1.771,-0.563 0.407,-0.376 0.611,-0.864 0.611,-1.466 0,-0.515 -0.177,-0.934 -0.531,-1.256 -0.354,-0.321 -0.794,-0.568 -1.32,-0.74 -0.525,-0.172 -1.271,-0.376 -2.237,-0.612 -1.332,-0.3 -2.41,-0.606 -3.236,-0.917 -0.827,-0.312 -1.535,-0.811 -2.125,-1.498 -0.591,-0.687 -0.886,-1.631 -0.886,-2.833 0,-1.546 0.59,-2.802 1.771,-3.768 1.181,-0.967 2.813,-1.449 4.895,-1.449 2.168,0.002 3.907,0.549 5.216,1.643 z"
   id="path302"
   inkscape:connector-curvature="0"
   style="fill:#ffffff" />
			</g>
			<g
   id="g316">
				<g
   id="g314">
					<path
   d="m 591.246,702.555 c 0,-1.009 -0.241,-1.804 -0.725,-2.383 -0.482,-0.58 -1.239,-0.87 -2.27,-0.87 -2.126,0 -3.253,1.449 -3.382,4.348 h -4.411 c 0.129,-2.684 0.944,-4.718 2.447,-6.103 1.502,-1.385 3.402,-2.077 5.699,-2.077 2.34,0 4.139,0.607 5.395,1.819 1.256,1.214 1.884,2.829 1.884,4.847 0,1.589 -0.468,3.183 -1.401,4.782 -0.933,1.599 -2.12,3.07 -3.558,4.411 -1.438,1.342 -2.952,2.496 -4.541,3.462 h 9.95 v 3.703 H 580.33 v -3.381 c 7.277,-5.045 10.916,-9.231 10.916,-12.558 z"
   id="path306"
   inkscape:connector-curvature="0"
   style="fill:#ffffff" />
					<path
   d="m 599.667,707.127 c 0,-7.686 2.897,-11.528 8.694,-11.528 3.069,0 5.281,1.03 6.634,3.092 1.352,2.061 2.028,4.873 2.028,8.437 0,3.585 -0.677,6.408 -2.028,8.469 -1.353,2.062 -3.564,3.092 -6.634,3.092 -5.797,-10e-4 -8.694,-3.855 -8.694,-11.562 z m 12.88,0 c 0,-2.318 -0.284,-4.105 -0.853,-5.361 -0.569,-1.256 -1.681,-1.884 -3.333,-1.884 -1.675,0 -2.797,0.628 -3.365,1.884 -0.569,1.256 -0.854,3.043 -0.854,5.361 0,2.34 0.284,4.138 0.854,5.394 0.568,1.256 1.69,1.884 3.365,1.884 1.652,0 2.764,-0.628 3.333,-1.884 0.568,-1.256 0.853,-3.054 0.853,-5.394 z"
   id="path308"
   inkscape:connector-curvature="0"
   style="fill:#ffffff" />
					<path
   d="m 591.246,734.486 c 0,-1.009 -0.241,-1.803 -0.725,-2.383 -0.482,-0.579 -1.239,-0.869 -2.27,-0.869 -2.126,0 -3.253,1.449 -3.382,4.347 h -4.411 c 0.129,-2.683 0.944,-4.717 2.447,-6.102 1.502,-1.385 3.402,-2.077 5.699,-2.077 2.34,0 4.139,0.606 5.395,1.819 1.256,1.213 1.884,2.828 1.884,4.846 0,1.59 -0.468,3.184 -1.401,4.782 -0.934,1.6 -2.12,3.07 -3.558,4.412 -1.438,1.342 -2.952,2.495 -4.541,3.461 h 9.95 v 3.703 H 580.33 v -3.381 c 7.277,-5.044 10.916,-9.23 10.916,-12.558 z"
   id="path310"
   inkscape:connector-curvature="0"
   style="fill:#ffffff" />
					<path
   d="m 599.667,739.06 c 0,-7.686 2.897,-11.528 8.694,-11.528 3.069,0 5.281,1.03 6.634,3.091 1.352,2.062 2.028,4.874 2.028,8.438 0,3.585 -0.677,6.407 -2.028,8.469 -1.353,2.061 -3.564,3.091 -6.634,3.091 -5.797,-0.002 -8.694,-3.854 -8.694,-11.561 z m 12.88,0 c 0,-2.319 -0.284,-4.106 -0.853,-5.362 -0.569,-1.256 -1.681,-1.884 -3.333,-1.884 -1.675,0 -2.797,0.628 -3.365,1.884 -0.569,1.256 -0.854,3.043 -0.854,5.362 0,2.34 0.284,4.138 0.854,5.394 0.568,1.256 1.69,1.884 3.365,1.884 1.652,0 2.764,-0.628 3.333,-1.884 0.568,-1.257 0.853,-3.055 0.853,-5.394 z"
   id="path312"
   inkscape:connector-curvature="0"
   style="fill:#ffffff" />
				</g>
			</g>
			<rect
   x="568.56097"
   y="693.83099"
   width="2.3239999"
   height="57.636002"
   id="rect318"
   style="fill:#ffffff" />
			<rect
   x="394.724"
   y="693.83099"
   width="2.3239999"
   height="57.636002"
   id="rect320"
   style="fill:#ffffff" />
			<g
   id="g324">
				<path
   d="m 367.034,705.174 c -5.698,0 -9.672,4.24 -9.672,10.467 0,6.36 3.974,10.599 9.672,10.599 4.107,0 7.42,-1.391 9.539,-4.174 l 5.365,4.439 c -3.113,4.504 -8.413,7.155 -15.368,7.155 -10.599,0 -17.887,-7.287 -17.887,-17.953 0,-10.797 7.353,-18.084 18.019,-18.084 6.492,0 11.659,2.385 14.839,6.492 l -5.233,4.968 c -2.253,-2.452 -5.366,-3.909 -9.274,-3.909 z"
   id="path322"
   inkscape:connector-curvature="0"
   style="fill:#ffffff" />
			</g>
			<rect
   x="350.151"
   y="743.76599"
   width="29.84"
   height="6.3590002"
   id="rect326"
   style="fill:#ffffff" />
		</g>
	</g>
	<g
   id="g434">
		<g
   id="g382">
			<path
   d="m 719.276,695.165 h -6.081 v 14.884 h 3.274 v -4.465 h 2.488 c 3.338,0 6.017,-1.786 6.017,-5.23 v -0.042 c 0,-3.042 -2.147,-5.147 -5.698,-5.147 z m 2.381,5.252 c 0,1.276 -0.957,2.254 -2.594,2.254 h -2.594 v -4.55 h 2.53 c 1.637,0 2.658,0.787 2.658,2.254 z"
   id="path332"
   inkscape:connector-curvature="0"
   style="fill:#ffffff" />
			<polygon
   points="730.67,695.165 727.396,695.165 727.396,710.049 738.091,710.049 738.091,707.072 730.67,707.072 "
   id="polygon334"
   style="fill:#ffffff" />
			<path
   d="m 745.658,695.059 -6.379,14.99 h 3.338 l 1.361,-3.338 h 6.294 l 1.361,3.338 h 3.423 l -6.379,-14.99 z m -0.51,8.76 1.977,-4.827 1.977,4.827 z"
   id="path336"
   inkscape:connector-curvature="0"
   style="fill:#ffffff" />
			<path
   d="m 763.368,710.304 c 2.87,0 4.571,-1.021 6.102,-2.658 l -2.084,-2.105 c -1.169,1.063 -2.211,1.744 -3.912,1.744 -2.552,0 -4.316,-2.126 -4.316,-4.678 v -0.042 c 0,-2.552 1.807,-4.635 4.316,-4.635 1.488,0 2.658,0.638 3.806,1.68 l 2.084,-2.403 c -1.382,-1.361 -3.062,-2.296 -5.868,-2.296 -4.571,0 -7.761,3.466 -7.761,7.697 v 0.043 c -10e-4,4.272 3.252,7.653 7.633,7.653 z"
   id="path338"
   inkscape:connector-curvature="0"
   style="fill:#ffffff" />
			<polygon
   points="775.336,704.011 782.352,704.011 782.352,701.098 775.336,701.098 775.336,698.078 783.309,698.078 783.309,695.165 772.083,695.165 772.083,710.049 783.415,710.049 783.415,707.136 775.336,707.136 "
   id="polygon340"
   style="fill:#ffffff" />
			<polygon
   points="793.768,706.69 797.957,700.332 797.957,710.049 801.21,710.049 801.21,695.165 797.68,695.165 793.768,701.459 789.856,695.165 786.327,695.165 786.327,710.049 789.537,710.049 789.537,700.396 793.683,706.69 "
   id="polygon342"
   style="fill:#ffffff" />
			<path
   d="m 808.203,706.711 h 6.294 l 1.361,3.338 h 3.423 l -6.379,-14.99 h -3.019 l -6.379,14.99 h 3.338 z m 3.147,-7.718 1.977,4.827 h -3.955 z"
   id="path344"
   inkscape:connector-curvature="0"
   style="fill:#ffffff" />
			<polygon
   points="830.887,695.165 824.849,701.672 824.849,695.165 821.574,695.165 821.574,710.049 824.849,710.049 824.849,705.499 826.571,703.713 831.185,710.049 835.118,710.049 828.782,701.48 834.842,695.165 "
   id="polygon346"
   style="fill:#ffffff" />
			<rect
   x="837.242"
   y="695.16498"
   width="3.2739999"
   height="14.884"
   id="rect348"
   style="fill:#ffffff" />
			<polygon
   points="857.462,710.049 857.462,695.165 854.23,695.165 854.23,704.33 847.256,695.165 844.237,695.165 844.237,710.049 847.468,710.049 847.468,700.587 854.676,710.049 "
   id="polygon350"
   style="fill:#ffffff" />
			<path
   d="m 868.197,710.304 c 2.722,0 4.826,-1.063 6.357,-2.36 v -6.464 h -6.464 v 2.828 h 3.296 v 2.126 c -0.829,0.595 -1.892,0.893 -3.083,0.893 -2.636,0 -4.508,-1.999 -4.508,-4.72 v -0.042 c 0,-2.53 1.892,-4.635 4.274,-4.635 1.722,0 2.743,0.553 3.891,1.51 l 2.062,-2.487 c -1.552,-1.318 -3.168,-2.041 -5.847,-2.041 -4.508,0 -7.803,3.466 -7.803,7.697 v 0.043 c 0,4.399 3.189,7.652 7.825,7.652 z"
   id="path352"
   inkscape:connector-curvature="0"
   style="fill:#ffffff" />
			<polygon
   points="713.195,730.028 723.89,730.028 723.89,727.052 716.469,727.052 716.469,715.145 713.195,715.145 "
   id="polygon354"
   style="fill:#ffffff" />
			<path
   d="m 731.457,715.038 -6.379,14.99 h 3.338 l 1.361,-3.338 h 6.294 l 1.361,3.338 h 3.423 l -6.379,-14.99 z m -0.51,8.761 1.977,-4.826 1.977,4.826 z"
   id="path356"
   inkscape:connector-curvature="0"
   style="fill:#ffffff" />
			<polygon
   points="744.701,730.028 747.976,730.028 747.976,718.164 752.505,718.164 752.505,715.145 740.173,715.145 740.173,718.164 744.701,718.164 "
   id="polygon358"
   style="fill:#ffffff" />
			<rect
   x="755.16101"
   y="715.14502"
   width="3.2739999"
   height="14.884"
   id="rect360"
   style="fill:#ffffff" />
			<polygon
   points="762.155,715.145 762.155,730.028 765.386,730.028 765.386,720.567 772.594,730.028 775.38,730.028 775.38,715.145 772.148,715.145 772.148,724.309 765.174,715.145 "
   id="polygon362"
   style="fill:#ffffff" />
			<path
   d="m 786.221,714.89 c -4.593,0 -7.931,3.466 -7.931,7.697 v 0.043 c 0,4.231 3.296,7.654 7.888,7.654 4.593,0 7.931,-3.466 7.931,-7.697 v -0.042 c 0,-4.232 -3.295,-7.655 -7.888,-7.655 z m 4.465,7.739 c 0,2.551 -1.829,4.635 -4.465,4.635 -2.637,0 -4.508,-2.126 -4.508,-4.678 v -0.042 c 0,-2.552 1.828,-4.635 4.465,-4.635 2.637,0 4.508,2.126 4.508,4.678 z"
   id="path364"
   inkscape:connector-curvature="0"
   style="fill:#ffffff" />
			<path
   d="m 801.166,715.038 -6.379,14.99 h 3.338 l 1.361,-3.338 h 6.294 l 1.361,3.338 h 3.423 l -6.379,-14.99 z m -0.51,8.761 1.977,-4.826 1.977,4.826 z"
   id="path366"
   inkscape:connector-curvature="0"
   style="fill:#ffffff" />
			<polygon
   points="812.858,715.145 812.858,730.028 816.068,730.028 816.068,720.375 820.214,726.669 820.3,726.669 824.488,720.312 824.488,730.028 827.741,730.028 827.741,715.145 824.212,715.145 820.3,721.438 816.387,715.145 "
   id="polygon368"
   style="fill:#ffffff" />
			<polygon
   points="841.581,721.077 834.564,721.077 834.564,718.058 842.537,718.058 842.537,715.145 831.311,715.145 831.311,730.028 842.644,730.028 842.644,727.115 834.564,727.115 834.564,723.99 841.581,723.99 "
   id="polygon370"
   style="fill:#ffffff" />
			<path
   d="m 857.972,720.099 v -0.042 c 0,-1.403 -0.447,-2.573 -1.276,-3.402 -0.978,-0.978 -2.445,-1.51 -4.337,-1.51 h -6.804 v 14.884 h 3.274 v -4.763 h 2.53 0.043 l 3.189,4.763 h 3.827 l -3.636,-5.316 c 1.893,-0.702 3.19,-2.211 3.19,-4.614 z m -3.317,0.17 c 0,1.255 -0.914,2.105 -2.509,2.105 h -3.317 V 718.1 h 3.253 c 1.595,0 2.573,0.723 2.573,2.126 z"
   id="path372"
   inkscape:connector-curvature="0"
   style="fill:#ffffff" />
			<rect
   x="861.07397"
   y="715.14502"
   width="3.2739999"
   height="14.884"
   id="rect374"
   style="fill:#ffffff" />
			<path
   d="m 875.149,727.264 c -2.552,0 -4.316,-2.126 -4.316,-4.678 v -0.042 c 0,-2.552 1.807,-4.635 4.316,-4.635 1.488,0 2.658,0.638 3.806,1.68 l 2.084,-2.403 c -1.382,-1.361 -3.062,-2.296 -5.868,-2.296 -4.571,0 -7.761,3.466 -7.761,7.697 v 0.043 c 0,4.274 3.253,7.654 7.633,7.654 2.871,0 4.571,-1.021 6.102,-2.658 l -2.083,-2.105 c -1.17,1.063 -2.212,1.743 -3.913,1.743 z"
   id="path376"
   inkscape:connector-curvature="0"
   style="fill:#ffffff" />
			<path
   d="m 891.88,715.038 h -3.019 l -6.379,14.99 h 3.338 l 1.361,-3.338 h 6.294 l 1.361,3.338 h 3.423 z m -3.53,8.761 1.977,-4.826 1.977,4.826 z"
   id="path378"
   inkscape:connector-curvature="0"
   style="fill:#ffffff" />
			<rect
   x="834.71002"
   y="712.23798"
   width="7.7210002"
   height="1.864"
   id="rect380"
   style="fill:#ffffff" />
		</g>
		<g
   id="g432">
			<path
   d="m 712.967,694.952 h 6.168 c 3.602,0 5.78,2.135 5.78,5.219 v 0.043 c 0,3.494 -2.717,5.305 -6.103,5.305 h -2.523 v 4.529 h -3.321 v -15.096 z m 5.953,7.613 c 1.661,0 2.631,-0.992 2.631,-2.286 v -0.043 c 0,-1.488 -1.035,-2.286 -2.696,-2.286 h -2.567 v 4.615 z"
   id="path384"
   inkscape:connector-curvature="0"
   style="fill:#ffffff" />
			<path
   d="m 727.151,694.952 h 3.321 V 707.03 H 738 v 3.019 h -10.848 v -15.097 z"
   id="path386"
   inkscape:connector-curvature="0"
   style="fill:#ffffff" />
			<path
   d="m 745.933,694.844 h 3.063 l 6.47,15.205 h -3.472 l -1.38,-3.386 h -6.384 l -1.38,3.386 h -3.386 z m 3.494,8.886 -2.006,-4.896 -2.006,4.896 z"
   id="path388"
   inkscape:connector-curvature="0"
   style="fill:#ffffff" />
			<path
   d="m 755.919,702.544 v -0.043 c 0,-4.292 3.235,-7.807 7.872,-7.807 2.847,0 4.551,0.949 5.953,2.329 l -2.114,2.437 c -1.165,-1.057 -2.351,-1.704 -3.86,-1.704 -2.545,0 -4.378,2.114 -4.378,4.702 v 0.043 c 0,2.588 1.79,4.745 4.378,4.745 1.725,0 2.782,-0.69 3.968,-1.769 l 2.114,2.135 c -1.553,1.661 -3.278,2.696 -6.19,2.696 -4.444,0 -7.743,-3.429 -7.743,-7.764 z"
   id="path390"
   inkscape:connector-curvature="0"
   style="fill:#ffffff" />
			<path
   d="m 772.117,694.952 h 11.387 v 2.955 h -8.088 v 3.063 h 7.117 v 2.955 h -7.117 v 3.17 h 8.195 v 2.955 h -11.495 v -15.098 z"
   id="path392"
   inkscape:connector-curvature="0"
   style="fill:#ffffff" />
			<path
   d="m 712.967,714.921 h 3.321 v 12.078 h 7.527 v 3.019 h -10.848 z"
   id="path394"
   inkscape:connector-curvature="0"
   style="fill:#ffffff" />
			<path
   d="m 731.749,714.813 h 3.063 l 6.47,15.205 h -3.472 l -1.38,-3.386 h -6.384 l -1.38,3.386 h -3.386 z m 3.494,8.886 -2.006,-4.896 -2.006,4.896 z"
   id="path396"
   inkscape:connector-curvature="0"
   style="fill:#ffffff" />
			<path
   d="m 744.903,717.984 h -4.594 v -3.063 h 12.509 v 3.063 h -4.594 v 12.034 h -3.321 z"
   id="path398"
   inkscape:connector-curvature="0"
   style="fill:#ffffff" />
			<path
   d="m 754.974,714.921 h 3.321 v 15.097 h -3.321 z"
   id="path400"
   inkscape:connector-curvature="0"
   style="fill:#ffffff" />
			<path
   d="m 761.882,714.921 h 3.062 l 7.074,9.295 v -9.295 h 3.278 v 15.097 h -2.825 l -7.311,-9.597 v 9.597 h -3.278 z"
   id="path402"
   inkscape:connector-curvature="0"
   style="fill:#ffffff" />
			<path
   d="m 778.082,722.513 v -0.043 c 0,-4.292 3.386,-7.807 8.045,-7.807 4.658,0 8.001,3.472 8.001,7.764 v 0.043 c 0,4.292 -3.386,7.807 -8.044,7.807 -4.659,0 -8.002,-3.472 -8.002,-7.764 z m 12.574,0 v -0.043 c 0,-2.588 -1.898,-4.745 -4.572,-4.745 -2.674,0 -4.529,2.114 -4.529,4.702 v 0.043 c 0,2.588 1.898,4.745 4.572,4.745 2.674,0 4.529,-2.114 4.529,-4.702 z"
   id="path404"
   inkscape:connector-curvature="0"
   style="fill:#ffffff" />
			<path
   d="m 718.143,734.783 h 3.063 l 6.47,15.205 h -3.472 l -1.38,-3.386 h -6.384 l -1.38,3.386 h -3.386 z m 3.494,8.885 -2.006,-4.896 -2.006,4.896 z"
   id="path406"
   inkscape:connector-curvature="0"
   style="fill:#ffffff" />
			<path
   d="m 729.673,734.89 h 6.901 c 1.919,0 3.408,0.539 4.4,1.531 0.841,0.841 1.294,2.027 1.294,3.451 v 0.043 c 0,2.437 -1.316,3.968 -3.235,4.68 l 3.688,5.392 h -3.882 l -3.235,-4.831 h -2.61 v 4.831 h -3.321 z m 6.685,7.333 c 1.617,0 2.545,-0.863 2.545,-2.135 v -0.043 c 0,-1.423 -0.992,-2.157 -2.61,-2.157 h -3.3 v 4.335 z"
   id="path408"
   inkscape:connector-curvature="0"
   style="fill:#ffffff" />
			<path
   d="m 744.208,742.482 v -0.043 c 0,-4.292 3.343,-7.807 7.915,-7.807 2.717,0 4.357,0.733 5.931,2.07 l -2.092,2.523 c -1.165,-0.971 -2.2,-1.531 -3.947,-1.531 -2.415,0 -4.335,2.135 -4.335,4.702 v 0.043 c 0,2.761 1.898,4.788 4.572,4.788 1.208,0 2.286,-0.302 3.127,-0.906 v -2.157 h -3.343 v -2.868 h 6.556 v 6.556 c -1.553,1.316 -3.688,2.394 -6.449,2.394 -4.7,0 -7.935,-3.3 -7.935,-7.764 z"
   id="path410"
   inkscape:connector-curvature="0"
   style="fill:#ffffff" />
			<path
   d="m 761.796,734.89 h 11.387 v 2.955 h -8.087 v 3.062 h 7.117 v 2.955 h -7.117 v 3.17 h 8.195 v 2.955 h -11.495 z"
   id="path412"
   inkscape:connector-curvature="0"
   style="fill:#ffffff" />
			<path
   d="m 776.28,734.89 h 3.062 l 7.074,9.295 v -9.295 h 3.278 v 15.097 h -2.825 l -7.311,-9.597 v 9.597 h -3.278 z"
   id="path414"
   inkscape:connector-curvature="0"
   style="fill:#ffffff" />
			<path
   d="m 796.373,737.953 h -4.594 v -3.063 h 12.509 v 3.063 h -4.594 v 12.034 h -3.321 z"
   id="path416"
   inkscape:connector-curvature="0"
   style="fill:#ffffff" />
			<path
   d="m 806.445,734.89 h 3.321 v 15.097 h -3.321 z"
   id="path418"
   inkscape:connector-curvature="0"
   style="fill:#ffffff" />
			<path
   d="m 813.353,734.89 h 3.062 l 7.074,9.295 v -9.295 h 3.278 v 15.097 h -2.825 l -7.311,-9.597 v 9.597 h -3.278 z"
   id="path420"
   inkscape:connector-curvature="0"
   style="fill:#ffffff" />
			<path
   d="m 835.223,734.783 h 3.063 l 6.47,15.205 h -3.472 l -1.38,-3.386 h -6.384 l -1.38,3.386 h -3.386 z m 3.494,8.885 -2.006,-4.896 -2.006,4.896 z"
   id="path422"
   inkscape:connector-curvature="0"
   style="fill:#ffffff" />
			<path
   d="m 852.8,747.356 5.025,-4.119 c 1.876,-1.553 2.61,-2.372 2.61,-3.623 0,-1.272 -0.841,-1.963 -2.027,-1.963 -1.165,0 -1.963,0.647 -3.084,2.027 l -2.329,-1.876 c 1.488,-2.027 2.933,-3.127 5.629,-3.127 3.127,0 5.198,1.833 5.198,4.659 v 0.043 c 0,2.523 -1.294,3.774 -3.968,5.845 l -2.458,1.898 h 6.578 v 2.868 H 852.8 Z"
   id="path424"
   inkscape:connector-curvature="0"
   style="fill:#ffffff" />
			<path
   d="m 866.041,742.482 v -0.043 c 0,-4.378 2.717,-7.807 6.729,-7.807 3.99,0 6.686,3.386 6.686,7.764 v 0.043 c 0,4.378 -2.696,7.807 -6.729,7.807 -4.033,0 -6.686,-3.386 -6.686,-7.764 z m 10.007,0 v -0.043 c 0,-2.739 -1.337,-4.809 -3.321,-4.809 -1.984,0 -3.278,2.006 -3.278,4.766 v 0.043 c 0,2.761 1.316,4.81 3.321,4.81 2.006,-10e-4 3.278,-2.028 3.278,-4.767 z"
   id="path426"
   inkscape:connector-curvature="0"
   style="fill:#ffffff" />
			<path
   d="m 881.028,747.356 5.025,-4.119 c 1.876,-1.553 2.61,-2.372 2.61,-3.623 0,-1.272 -0.841,-1.963 -2.027,-1.963 -1.165,0 -1.963,0.647 -3.084,2.027 l -2.329,-1.876 c 1.488,-2.027 2.933,-3.127 5.629,-3.127 3.127,0 5.198,1.833 5.198,4.659 v 0.043 c 0,2.523 -1.294,3.774 -3.968,5.845 l -2.458,1.898 h 6.578 v 2.868 H 881.03 v -2.632 z"
   id="path428"
   inkscape:connector-curvature="0"
   style="fill:#ffffff" />
			<path
   d="m 894.269,742.482 v -0.043 c 0,-4.378 2.718,-7.807 6.729,-7.807 3.99,0 6.686,3.386 6.686,7.764 v 0.043 c 0,4.378 -2.696,7.807 -6.729,7.807 -4.033,0 -6.686,-3.386 -6.686,-7.764 z m 10.007,0 v -0.043 c 0,-2.739 -1.337,-4.809 -3.321,-4.809 -1.984,0 -3.278,2.006 -3.278,4.766 v 0.043 c 0,2.761 1.316,4.81 3.321,4.81 2.006,-10e-4 3.278,-2.028 3.278,-4.767 z"
   id="path430"
   inkscape:connector-curvature="0"
   style="fill:#ffffff" />
		</g>
	</g>
</g>
<g
   id="g446"
   transform="translate(0,-517.62)">
	<path
   d="M 139.328,710.553 V 699.14 h 12.771 c 3.719,0 8.151,0.956 8.151,5.523 v 0.182 c 0,3.786 -3.049,5.708 -9.06,5.708 z m 15.578,25.534 h -15.578 v -11.954 h 15.124 c 6.189,0 9.328,1.979 9.328,5.886 v 0.182 c 0,3.908 -2.985,5.886 -8.874,5.886 m 14.04,-20.097 c 4.809,-3.258 7.151,-7.689 7.151,-13.498 v -0.182 c 0,-4.606 -1.518,-8.362 -4.641,-11.482 -3.863,-3.863 -9.837,-5.905 -17.274,-5.905 h -30.429 l 0.003,65.384 h 31.149 c 15.709,0 24.721,-6.7 24.721,-18.384 v -0.179 c 0.001,-7.516 -3.31,-12.436 -10.68,-15.754"
   id="path438"
   inkscape:connector-curvature="0"
   style="fill:#ffffff" />
	<path
   d="m 250.113,717.613 v 0.181 c 0,10.726 -7.279,17.934 -18.112,17.934 h -9.783 v -36.224 h 9.783 c 10.833,0 18.112,7.275 18.112,18.109 M 232.001,684.922 H 206.28 l 0.016,65.387 25.705,-0.004 c 9.786,0 18.663,-3.352 25.004,-9.435 6.243,-5.991 9.678,-14.252 9.678,-23.257 v -0.182 c 0.001,-18.836 -14.588,-32.509 -34.682,-32.509"
   id="path440"
   inkscape:connector-curvature="0"
   style="fill:#ffffff" />
	<path
   d="m 191.992,684.818 c 4.401,0 7.972,3.568 7.972,7.968 v 57.533 h -15.938 v -65.503 z"
   id="path442"
   inkscape:connector-curvature="0"
   style="fill:#ffffff" />
	<path
   d="m 78.907,708.551 c -2.282,-0.094 -2.689,1.284 0.737,2.008 4.838,1.021 1.544,-1.912 -0.737,-2.008 m -7.158,-5.372 c -6.859,-2.222 -2.345,3.267 0.918,3.631 3.261,0.36 3.942,-2.057 -0.918,-3.631 m -20.195,-4.967 c -1.998,1.049 1.579,5.693 10.729,5.942 9.154,0.252 -2.645,-10.187 -10.729,-5.942 m 17.587,67.222 c 2.878,-5.355 9.144,-13.163 22.541,-28.903 20.034,-23.54 -39.334,-15.635 -49.507,-33.451 -8.379,-14.679 22.803,-25.229 41.647,-33.396 12.249,8.073 21.137,21.13 23.425,36.789 3.916,26.754 -12.781,51.759 -38.106,58.961 M 57.225,727.489 c -8.407,13.612 18.599,13.817 6.105,39.253 -0.367,0.06 -0.73,0.131 -1.104,0.185 C 33.1,771.191 6.033,751.036 1.768,721.91 c -2.018,-13.811 1.457,-27.158 8.767,-37.83 -1.36,30.735 54.541,30.702 46.69,43.409"
   id="path444"
   inkscape:connector-curvature="0"
   style="fill:#ffffff" />
</g>
</svg>