<?xml version="1.0" encoding="utf-8"?>
<!-- Generator: Adobe Illustrator 17.0.0, SVG Export Plug-In . SVG Version: 6.00 Build 0)  -->
<!DOCTYPE svg PUBLIC "-//W3C//DTD SVG 1.1//EN" "http://www.w3.org/Graphics/SVG/1.1/DTD/svg11.dtd">
<svg version="1.1" id="Layer_1" xmlns="http://www.w3.org/2000/svg" xmlns:xlink="http://www.w3.org/1999/xlink" x="0px" y="0px"
	 width="100%" height="100%" viewBox="0 0 1256.65 330.569" enable-background="new 0 0 1256.65 330.569"
	 xml:space="preserve">
<g>
	<g>
		<path fill="#FFFFFF" d="M1140.899,4.383h3.04v13.822h-3.04V4.383z"/>
		<path fill="#FFFFFF" d="M1151.34,4.383h5.391c4.344,0,7.345,2.982,7.345,6.872v0.039c0,3.89-3.001,6.911-7.345,6.911h-5.391V4.383
			z M1156.731,15.46c2.487,0,4.166-1.678,4.166-4.126v-0.04c0-2.448-1.679-4.166-4.166-4.166h-2.35v8.332H1156.731z"/>
		<path fill="#FFFFFF" d="M1170.724,4.383h10.425v2.705h-7.404v2.804h6.516v2.705h-6.516V15.5h7.504v2.705h-10.524V4.383z"/>
		<path fill="#FFFFFF" d="M1192.635,4.285h2.805l5.923,13.92h-3.179l-1.264-3.1h-5.845l-1.264,3.1h-3.1L1192.635,4.285z
			 M1195.834,12.42l-1.836-4.482l-1.837,4.482H1195.834z"/>
		<path fill="#FFFFFF" d="M1208.88,7.188h-4.206V4.383h11.453v2.804h-4.207v11.018h-3.04V7.188z"/>
		<path fill="#FFFFFF" d="M1221.196,11.333v-0.04c0-3.929,3.101-7.147,7.365-7.147c4.266,0,7.326,3.179,7.326,7.108v0.039
			c0,3.93-3.101,7.148-7.365,7.148C1224.256,18.442,1221.196,15.263,1221.196,11.333z M1232.708,11.333v-0.04
			c0-2.369-1.737-4.344-4.186-4.344c-2.449,0-4.146,1.935-4.146,4.305v0.039c0,2.37,1.737,4.344,4.186,4.344
			C1231.01,15.638,1232.708,13.703,1232.708,11.333z M1229.707,0l2.587,1.125l-2.686,1.975h-2.291L1229.707,0z"/>
		<path fill="#FFFFFF" d="M1242.535,4.383h2.804l6.477,8.51v-8.51h3.001v13.822h-2.587l-6.693-8.787v8.787h-3.001V4.383z"/>
	</g>
</g>
<g>
	<g>
		<path fill="#FFFFFF" d="M0.667,11.333v-0.04c0-3.929,2.962-7.147,7.207-7.147c2.606,0,4.166,0.869,5.45,2.132L11.389,8.51
			c-1.066-0.967-2.152-1.56-3.534-1.56c-2.33,0-4.008,1.935-4.008,4.305v0.039c0,2.37,1.639,4.344,4.008,4.344
			c1.58,0,2.547-0.632,3.633-1.619l1.936,1.955c-1.422,1.521-3.001,2.468-5.667,2.468C3.689,18.442,0.667,15.302,0.667,11.333z"/>
		<path fill="#FFFFFF" d="M18.788,11.333v-0.04c0-3.929,3.1-7.147,7.365-7.147c4.265,0,7.325,3.179,7.325,7.108v0.039
			c0,3.93-3.1,7.148-7.364,7.148C21.849,18.442,18.788,15.263,18.788,11.333z M30.299,11.333v-0.04c0-2.369-1.737-4.344-4.186-4.344
			c-2.449,0-4.146,1.935-4.146,4.305v0.039c0,2.37,1.737,4.344,4.186,4.344S30.299,13.703,30.299,11.333z"/>
		<path fill="#FFFFFF" d="M40.126,4.383h2.804l6.476,8.51v-8.51h3.001v13.822h-2.586l-6.694-8.787v8.787h-3.001V4.383z"/>
		<path fill="#FFFFFF" d="M58.483,4.383h3.356l3.613,9.734l3.613-9.734h3.278l-5.587,13.92h-2.686L58.483,4.383z"/>
		<path fill="#FFFFFF" d="M76.919,11.333v-0.04c0-3.929,3.1-7.147,7.365-7.147s7.325,3.179,7.325,7.108v0.039
			c0,3.93-3.1,7.148-7.365,7.148S76.919,15.263,76.919,11.333z M88.431,11.333v-0.04c0-2.369-1.738-4.344-4.186-4.344
			s-4.146,1.935-4.146,4.305v0.039c0,2.37,1.737,4.344,4.186,4.344C86.732,15.638,88.431,13.703,88.431,11.333z"/>
		<path fill="#FFFFFF" d="M97.645,11.333v-0.04c0-3.929,2.962-7.147,7.207-7.147c2.606,0,4.166,0.869,5.449,2.132l-1.935,2.231
			c-1.066-0.967-2.152-1.56-3.534-1.56c-2.33,0-4.008,1.935-4.008,4.305v0.039c0,2.37,1.639,4.344,4.008,4.344
			c1.58,0,2.547-0.632,3.633-1.619l1.935,1.955c-1.421,1.521-3.001,2.468-5.667,2.468C100.666,18.442,97.645,15.302,97.645,11.333z"
			/>
		<path fill="#FFFFFF" d="M121.511,4.285h2.804l5.923,13.92h-3.179l-1.264-3.1h-5.845l-1.264,3.1h-3.1L121.511,4.285z
			 M124.709,12.42l-1.836-4.482l-1.836,4.482H124.709z"/>
		<path fill="#FFFFFF" d="M137.755,7.188h-4.206V4.383h11.452v2.804h-4.206v11.018h-3.041V7.188z"/>
		<path fill="#FFFFFF" d="M150.071,11.333v-0.04c0-3.929,3.101-7.147,7.365-7.147s7.325,3.179,7.325,7.108v0.039
			c0,3.93-3.1,7.148-7.365,7.148S150.071,15.263,150.071,11.333z M161.583,11.333v-0.04c0-2.369-1.738-4.344-4.186-4.344
			s-4.146,1.935-4.146,4.305v0.039c0,2.37,1.738,4.344,4.186,4.344S161.583,13.703,161.583,11.333z"/>
		<path fill="#FFFFFF" d="M171.409,4.383h6.318c1.757,0,3.12,0.494,4.028,1.402c0.77,0.771,1.185,1.856,1.185,3.159v0.04
			c0,2.231-1.204,3.633-2.962,4.285l3.377,4.937H179.8l-2.961-4.423h-2.389v4.423h-3.041V4.383z M177.53,11.097
			c1.481,0,2.33-0.79,2.33-1.955V9.103c0-1.303-0.908-1.975-2.389-1.975h-3.021v3.969H177.53z"/>
		<path fill="#FFFFFF" d="M189.766,4.383h3.041v13.822h-3.041V4.383z"/>
		<path fill="#FFFFFF" d="M204.947,4.285h2.804l5.924,13.92h-3.179l-1.264-3.1h-5.844l-1.264,3.1h-3.1L204.947,4.285z
			 M208.146,12.42l-1.836-4.482l-1.836,4.482H208.146z"/>
		<path fill="#FFFFFF" d="M229.619,4.383h5.391c4.344,0,7.345,2.982,7.345,6.872v0.039c0,3.89-3.001,6.911-7.345,6.911h-5.391V4.383
			z M235.009,15.46c2.488,0,4.166-1.678,4.166-4.126v-0.04c0-2.448-1.678-4.166-4.166-4.166h-2.35v8.332H235.009z"/>
		<path fill="#FFFFFF" d="M249.002,4.383h10.425v2.705h-7.404v2.804h6.516v2.705h-6.516V15.5h7.503v2.705h-10.524V4.383z"/>
		<path fill="#FFFFFF" d="M276.183,4.383h3.04v13.822h-3.04V4.383z"/>
		<path fill="#FFFFFF" d="M286.625,4.383h5.391c4.344,0,7.345,2.982,7.345,6.872v0.039c0,3.89-3.001,6.911-7.345,6.911h-5.391V4.383
			z M292.015,15.46c2.488,0,4.166-1.678,4.166-4.126v-0.04c0-2.448-1.678-4.166-4.166-4.166h-2.35v8.332H292.015z"/>
		<path fill="#FFFFFF" d="M306.008,4.383h10.425v2.705h-7.405v2.804h6.516v2.705h-6.516V15.5h7.503v2.705h-10.524V4.383z"/>
		<path fill="#FFFFFF" d="M327.92,4.285h2.804l5.923,13.92h-3.179l-1.264-3.1h-5.845l-1.264,3.1h-3.1L327.92,4.285z M331.119,12.42
			l-1.836-4.482l-1.836,4.482H331.119z"/>
		<path fill="#FFFFFF" d="M341.578,16.191l1.797-2.152c1.244,1.027,2.547,1.678,4.127,1.678c1.244,0,1.994-0.493,1.994-1.303v-0.04
			c0-0.77-0.474-1.165-2.784-1.757c-2.784-0.711-4.581-1.481-4.581-4.226v-0.04c0-2.507,2.014-4.166,4.838-4.166
			c2.014,0,3.731,0.632,5.134,1.757l-1.58,2.29c-1.224-0.849-2.429-1.362-3.593-1.362c-1.165,0-1.777,0.533-1.777,1.205v0.04
			c0,0.908,0.592,1.204,2.981,1.816c2.804,0.73,4.383,1.737,4.383,4.146v0.04c0,2.745-2.093,4.285-5.074,4.285
			C345.349,18.402,343.236,17.672,341.578,16.191z"/>
	</g>
</g>
<rect x="368.892" y="10.023" fill="#FFFFFF" width="759.718" height="2.367"/>
<g>
	<path fill="#FFFFFF" d="M0,56.624h12.773l19.816,50.528l19.723-50.528h12.491l-27.33,66.212H27.33L0,56.624z"/>
	<path fill="#FFFFFF" d="M84.521,89.683v-0.188c0-18.502,14.275-33.998,34.468-33.998s34.28,15.309,34.28,33.811v0.188
		c0,18.502-14.275,33.998-34.468,33.998S84.521,108.185,84.521,89.683z M141.153,89.683v-0.188c0-12.772-9.298-23.386-22.353-23.386
		S96.636,76.535,96.636,89.308v0.188c0,12.773,9.298,23.386,22.353,23.386C132.042,112.881,141.153,102.456,141.153,89.683z"/>
	<path fill="#FFFFFF" d="M182.657,56.624h11.552v55.224h34.562v10.519h-46.114V56.624z"/>
	<path fill="#FFFFFF" d="M239.754,56.624h12.773l19.817,50.528l19.723-50.528h12.491l-27.33,66.212h-10.144L239.754,56.624z"/>
	<path fill="#FFFFFF" d="M331.224,56.624h48.744v10.331h-37.192v17.093h32.966v10.331h-32.966v17.656h37.661v10.331h-49.213V56.624z
		"/>
	<path fill="#FFFFFF" d="M409.546,56.624h29.302c8.265,0,14.745,2.442,18.971,6.574c3.476,3.569,5.447,8.453,5.447,14.182v0.188
		c0,10.801-6.48,17.281-15.684,19.911l17.75,24.888h-13.618L435.562,99.45h-14.463v22.916h-11.552V56.624z M438.003,89.213
		c8.265,0,13.524-4.32,13.524-10.988v-0.188c0-7.044-5.072-10.895-13.618-10.895h-16.812v22.071H438.003z"/>
	<path fill="#FFFFFF" d="M559.71,56.154h10.707l28.927,66.212h-12.209l-6.668-15.872h-31.086l-6.763,15.872h-11.833L559.71,56.154z
		 M576.24,96.257L564.875,69.96l-11.27,26.297H576.24z"/>
	<path fill="#FFFFFF" d="M661.225,56.624h11.552v55.224h34.562v10.519h-46.113V56.624z"/>
	<path fill="#FFFFFF" d="M760.301,56.154h10.707l28.927,66.212h-12.209l-6.669-15.872h-31.086l-6.763,15.872h-11.833L760.301,56.154
		z M776.832,96.257L765.467,69.96l-11.27,26.297H776.832z"/>
	<path fill="#FFFFFF" d="M871.77,89.683v-0.188c0-18.689,13.994-33.998,33.904-33.998c12.116,0,19.441,4.226,25.734,10.237
		l-7.42,8.546c-5.26-4.884-10.895-8.171-18.408-8.171c-12.584,0-21.694,10.331-21.694,23.198v0.188
		c0,12.867,9.11,23.386,21.694,23.386c8.078,0,13.243-3.287,18.878-8.547l7.419,7.514c-6.855,7.138-14.369,11.646-26.672,11.646
		C886.046,123.493,871.77,108.561,871.77,89.683z"/>
	<path fill="#FFFFFF" d="M984.935,56.154h10.706l28.928,66.212h-12.209l-6.669-15.872h-31.087l-6.762,15.872h-11.834L984.935,56.154
		z M1001.465,96.257L990.1,69.96l-11.27,26.297H1001.465z"/>
	<path fill="#FFFFFF" d="M1053.489,56.624h11.551v55.224h34.563v10.519h-46.113V56.624z"/>
	<path fill="#FFFFFF" d="M1129.274,56.624h11.551v55.224h34.563v10.519h-46.113V56.624z"/>
	<path fill="#FFFFFF" d="M1205.059,56.624h48.742v10.331h-37.191v17.093h32.966v10.331h-32.966v17.656h37.662v10.331h-49.213V56.624
		z"/>
</g>
<g>
	<path fill="#F79421" d="M741.73,302.293c-4.674,0.001-9.348-0.009-14.021,0.023c-0.35,0.002-0.926,0.233-1.011,0.487
		c-0.555,1.662-1.884,2.262-3.393,2.615c-1.165,0.273-2.346,0.489-3.529,0.671c-3.966,0.611-5.603,3.041-6.168,6.81
		c-0.388,2.585-0.525,5.239-1.223,7.736c-0.798,2.855-2.622,5.079-5.702,5.839c-5.089,1.255-11.968-1.89-11.085-9.509
		c0.395-3.407,1.853-6.282,4.468-8.566c2.548-2.225,3.657-5.234,4.005-8.457c0.504-4.665-1.031-8.698-4.389-12.014
		c-2.58-2.548-4.325-5.516-4.29-9.254c0.04-4.278,2.783-6.885,6.744-8.097c4.952-1.515,8.905,1.233,10.267,5.672
		c0.565,1.844,0.606,3.843,0.992,5.75c0.369,1.823,0.659,3.709,1.376,5.401c0.938,2.212,3.099,2.907,5.302,3.326
		c1.251,0.239,2.524,0.388,3.756,0.702c1.277,0.326,2.306,0.995,2.799,2.362c0.113,0.314,0.787,0.602,1.205,0.604
		c6.746,0.039,1.75,0.032,8.497,0.034c2.526,0.001,5.051-0.005,7.576,0.002c1.425,0.004,1.62,0.199,1.614,1.605
		c-0.007,1.695-0.04,3.391-0.033,5.086c0.004,0.872-0.401,1.183-1.252,1.179C739.484,302.281,746.479,302.292,741.73,302.293z
		 M699.571,317.529c-0.022,2.714,2.182,5.003,4.825,5.011c2.497,0.009,4.876-2.36,4.902-4.88c0.028-2.678-2.235-4.985-4.893-4.99
		C701.717,312.666,699.594,314.8,699.571,317.529z M704.637,273.534c-2.202-0.168-5.049,1.921-4.881,5.157
		c0.129,2.478,2.456,4.743,5.075,4.713c2.59-0.03,4.71-2.765,4.666-4.896C709.432,275.37,706.95,273.39,704.637,273.534z"/>
</g>
<g>
	<rect x="627.558" y="307.752" fill="#70569E" width="14.573" height="22.65"/>
	<path fill="#70569E" d="M661.412,289.402c0-6.709-5.439-12.148-12.148-12.148c-0.797,0-1.575,0.079-2.329,0.226
		c-0.588-6.16-5.776-10.979-12.091-10.979s-11.502,4.818-12.091,10.979c-0.754-0.146-1.532-0.226-2.329-0.226
		c-6.709,0-12.148,5.439-12.148,12.148c0,4.912,2.917,9.14,7.113,11.055c-1.183,1.874-1.87,4.093-1.87,6.473
		c0,6.709,5.439,12.148,12.148,12.148c3.38,0,6.436-1.381,8.638-3.608c2.202,2.227,5.258,3.608,8.638,3.608
		c6.709,0,12.148-5.439,12.148-12.148c0-2.231-0.604-4.319-1.653-6.116C658.091,299.111,661.412,294.644,661.412,289.402z"/>
</g>
<g>
	<g>
		<g>
			<circle fill="#F6ADCA" cx="354.113" cy="222.27" r="8.287"/>
			<circle fill="#F6ADCA" cx="381.044" cy="222.27" r="8.287"/>
		</g>
		<rect x="334.431" y="164.26" fill="#F26724" width="66.296" height="58.009"/>
		<rect x="345.826" y="175.777" fill="#FFDE11" width="16.574" height="16.574"/>
		<rect x="372.757" y="175.777" fill="#FFDE11" width="16.574" height="16.574"/>
	</g>
	<g>
		<g>
			<g>
				<polygon fill="#8DC641" points="164.321,191.985 178.664,168.682 193.007,191.985 				"/>
				<polygon fill="#8DC641" points="164.321,208.266 178.664,184.963 193.007,208.266 				"/>
				<polygon fill="#8DC641" points="164.321,226.135 178.664,202.832 193.007,226.135 				"/>
			</g>
			<g>
				<polygon fill="#8DC641" points="193.007,191.985 207.35,168.682 221.693,191.985 				"/>
				<polygon fill="#8DC641" points="193.007,208.266 207.35,184.963 221.693,208.266 				"/>
				<polygon fill="#8DC641" points="193.007,226.135 207.35,202.832 221.693,226.135 				"/>
			</g>
		</g>
	</g>
	<g>
		<g>
			<g>
				<circle fill="#F6ADCA" cx="104.743" cy="180.295" r="12.101"/>
				<circle fill="#F6ADCA" cx="121.856" cy="197.409" r="12.101"/>
				<circle fill="#F6ADCA" cx="87.63" cy="197.409" r="12.101"/>
				<circle fill="#F6ADCA" cx="104.743" cy="214.522" r="12.101"/>
			</g>
			<g>
				<circle fill="#F6ADCA" cx="92.642" cy="185.308" r="12.101"/>
				<circle fill="#F6ADCA" cx="116.844" cy="185.308" r="12.101"/>
				<circle fill="#F6ADCA" cx="92.642" cy="209.509" r="12.101"/>
				<circle fill="#F6ADCA" cx="116.844" cy="209.509" r="12.101"/>
			</g>
		</g>
		<circle fill="#F26724" cx="104.743" cy="197.409" r="12.101"/>
	</g>
	<polygon fill="#FFDE11" points="25.982,165.864 14.262,197.35 29.62,197.416 23.776,228.953 45.165,188.138 28.944,187.534 
		37.985,165.916 	"/>
	<g>
		<g>
			<g>
				<path fill="#FFDE11" d="M458.822,186.382l-4.704,2.939c-0.479,0.301-1.084,0.318-1.581,0.043l-5.865-3.225l4.816,27.513h2.611
					L458.822,186.382z"/>
				<path fill="#FFDE11" d="M452.766,163.996c-11.971,0-21.676,9.705-21.676,21.676c0,15.701,9.424,17.22,11.244,27.979h5.978
					l-5.314-30.187c-0.11-0.594,0.132-1.198,0.622-1.551c0.49-0.354,1.138-0.395,1.668-0.102l7.951,4.372l6.93-4.329
					c0.524-0.328,1.194-0.316,1.706,0.033c0.512,0.348,0.771,0.965,0.659,1.574l-5.263,30.19h5.927
					c1.82-10.76,11.244-12.278,11.244-27.979C474.442,173.7,464.738,163.996,452.766,163.996z"/>
			</g>
			<path fill="#FFDE11" d="M442.622,216.776c0.006,0.222,0.017,0.438,0.017,0.667v2.811h20.255v-2.811
				c0-0.229,0.011-0.445,0.017-0.667H442.622z"/>
			<path fill="#FFDE11" d="M442.674,223.38c0.184,4.137,3.569,7.441,7.751,7.441h4.685c4.182,0,7.567-3.305,7.751-7.441H442.674z"/>
		</g>
	</g>
	<g>
		
			<rect x="254.615" y="186.982" transform="matrix(0.7071 -0.7071 0.7071 0.7071 -60.1996 253.5885)" fill="#70569E" width="42.787" height="24.959"/>
		
			<rect x="254.615" y="195.005" transform="matrix(0.7071 -0.7071 0.7071 0.7071 -60.1996 253.5885)" fill="#F6ADCA" width="42.787" height="8.914"/>
		<polygon fill="#FFDE11" points="282.312,175.51 304.067,171.404 299.96,193.159 		"/>
		<g>
			<defs>
				<polygon id="SVGID_1_" points="282.312,175.51 304.067,171.404 299.96,193.159 				"/>
			</defs>
			<clipPath id="SVGID_2_">
				<use xlink:href="#SVGID_1_"  overflow="visible"/>
			</clipPath>
			
				<rect x="298.786" y="165.911" transform="matrix(-0.7071 0.7071 -0.7071 -0.7071 639.8965 82.814)" clip-path="url(#SVGID_2_)" fill="#70569E" width="8.023" height="16.045"/>
		</g>
	</g>
	<g>
		<path fill="#F79421" d="M531.412,168.688l-18.383,51.395c-2.005,4.648,1.048,10.026,5.691,10.026h36.765
			c4.643,0,7.696-5.378,5.691-10.026l-18.383-51.395C540.506,163.382,533.701,163.382,531.412,168.688z"/>
		<path fill="#F79421" d="M563.468,230.108h-52.729c-3.263,0-5.932-2.963-5.932-6.584v0c0-3.621,2.669-6.584,5.932-6.584h52.729
			c3.263,0,5.932,2.963,5.932,6.584v0C569.4,227.146,566.73,230.108,563.468,230.108z"/>
		<g>
			<defs>
				<path id="SVGID_3_" d="M531.412,168.688l-18.383,51.395c-2.005,4.648,1.048,10.026,5.691,10.026h36.765
					c4.643,0,7.696-5.378,5.691-10.026l-18.383-51.395C540.506,163.382,533.701,163.382,531.412,168.688z"/>
			</defs>
			<clipPath id="SVGID_4_">
				<use xlink:href="#SVGID_3_"  overflow="visible"/>
			</clipPath>
			<path clip-path="url(#SVGID_4_)" fill="#FFDE11" d="M564.184,206.7h-54.047c-2.9,0-5.273-2.633-5.273-5.852v-2.926
				c0-3.219,2.373-5.852,5.273-5.852h54.047c2.9,0,5.273,2.633,5.273,5.852v2.926C569.456,204.067,567.084,206.7,564.184,206.7z"/>
		</g>
	</g>
</g>
<polygon fill="#8DC641" points="653.36,226.15 643.482,223.584 637.738,232.02 630.184,225.157 621.178,229.957 617.679,220.371 
	607.474,220.435 608.83,210.321 599.764,205.635 605.666,197.309 599.815,188.948 608.91,184.318 607.616,174.195 617.821,174.323 
	621.379,164.758 630.355,169.613 637.951,162.797 643.643,171.268 653.536,168.763 654.64,178.908 664.564,181.288 660.826,190.784 
	668.508,197.503 660.785,204.174 664.464,213.693 654.525,216.012 "/>
<g>
	<path fill="#F6ADCA" d="M819.853,222.836l22.764-22.764c1.061-1.061,0.911-2.948-0.334-4.193c0,0-10.497-6.252-15.702-11.458
		c-5.206-5.206-3.584-1.848-4.645-0.787l-22.764,22.764c-1.061,1.061-4.872-1.013,0.787,4.645s15.123,12.037,15.123,12.037
		C817.018,223.859,818.792,223.897,819.853,222.836z"/>
	<path fill="#F26724" d="M797.582,208.667L797.582,208.667c-2.178-2.178-2.442-5.48-0.585-7.337l19.87-19.87
		c1.857-1.857,5.158-1.594,7.337,0.585v0l2.377,2.377l-26.623,26.623L797.582,208.667z"/>
	<path fill="#F26724" d="M789.28,180.882l12.19,10.886l8.463,7.558l5.016-5.016l-7.558-8.463l-10.886-12.19
		c-2.422-2.712-6.301-3.349-8.438-1.213C785.93,174.581,786.568,178.46,789.28,180.882z M791.326,175.704c0.6-0.6,1.573-0.6,2.173,0
		c0.6,0.6,0.6,1.573,0,2.173c-0.6,0.6-1.573,0.6-2.173,0C790.726,177.276,790.726,176.304,791.326,175.704z"/>
</g>
<g>
	<rect x="1019.318" y="164.823" fill="#70569E" width="65.171" height="65.171"/>
	<g>
		<rect x="1048.263" y="191.907" fill="#FFFFFF" width="2.216" height="13.178"/>
		<rect x="1048.263" y="212.013" fill="#FFFFFF" width="2.216" height="13.178"/>
		<rect x="1048.263" y="170.911" fill="#FFFFFF" width="2.216" height="13.178"/>
		<rect x="1053.328" y="166.062" fill="#FFDE11" width="2.216" height="62.694"/>
	</g>
</g>
<path fill="#8DC641" d="M1137.023,166.136c-12.244,0-22.17,9.926-22.17,22.17c0,12.244,22.17,40.376,22.17,40.376
	s22.17-28.132,22.17-40.376C1159.193,176.061,1149.267,166.136,1137.023,166.136z M1137.023,197.441
	c-4.252,0-7.698-3.447-7.698-7.698c0-4.252,3.447-7.698,7.698-7.698c4.252,0,7.698,3.447,7.698,7.698
	C1144.722,193.995,1141.275,197.441,1137.023,197.441z"/>
<path fill="#F26724" d="M450.438,267.178c-12.244,0-22.17,9.926-22.17,22.17c0,12.244,22.17,40.376,22.17,40.376
	s22.17-28.132,22.17-40.376C472.608,277.104,462.682,267.178,450.438,267.178z M450.438,298.484c-4.252,0-7.698-3.447-7.698-7.698
	c0-4.252,3.447-7.698,7.698-7.698s7.698,3.447,7.698,7.698C458.136,295.037,454.69,298.484,450.438,298.484z"/>
<g>
	<rect x="698.872" y="193.811" fill="#FFDE11" width="57.553" height="35.971"/>
	<polygon fill="#F26724" points="698.872,193.811 727.648,165.035 756.425,193.811 	"/>
	<rect x="720.454" y="201.005" fill="#70569E" width="14.388" height="14.388"/>
</g>
<g>
	<polygon fill="#F79421" points="906.708,164.389 939.728,197.409 906.708,230.428 	"/>
	<rect x="873.688" y="186.402" fill="#F79421" width="41.429" height="22.013"/>
</g>
<g>
	<polygon fill="#70569E" points="84.201,276.089 130.898,276.089 130.898,322.786 	"/>
	
		<rect x="78.134" y="297.132" transform="matrix(-0.7071 0.7071 -0.7071 -0.7071 386.6318 456.129)" fill="#70569E" width="41.429" height="22.013"/>
</g>
<g>
	<defs>
		<rect id="SVGID_5_" x="1189.557" y="163.953" width="66.912" height="66.912"/>
	</defs>
	<clipPath id="SVGID_6_">
		<use xlink:href="#SVGID_5_"  overflow="visible"/>
	</clipPath>
	<g clip-path="url(#SVGID_6_)">
		<circle fill="#F26724" cx="1256.469" cy="230.752" r="66.912"/>
		<path fill="#F6ADCA" d="M1256.469,275.36c-24.597,0-44.608-20.011-44.608-44.608c0-24.597,20.011-44.608,44.608-44.608
			s44.608,20.011,44.608,44.608C1301.077,255.349,1281.066,275.36,1256.469,275.36z"/>
		<path fill="#70569E" d="M1256.469,253.056c-12.298,0-22.304-10.005-22.304-22.304c0-12.298,10.005-22.304,22.304-22.304
			s22.304,10.005,22.304,22.304C1278.773,243.05,1268.767,253.056,1256.469,253.056z"/>
	</g>
</g>
<g>
	<g>
		<circle fill="#8DC641" cx="979.523" cy="216.27" r="9.431"/>
		<circle fill="#FFDE11" cx="979.523" cy="197.409" r="9.431"/>
		<circle fill="#F26724" cx="979.523" cy="178.547" r="9.431"/>
	</g>
</g>
<g>
	<g>
		<circle fill="#F6ADCA" cx="533.41" cy="291.321" r="13.97"/>
		<circle fill="#F6ADCA" cx="552.132" cy="291.321" r="13.97"/>
		<g>
			<circle fill="#F6ADCA" cx="516.898" cy="288.312" r="13.97"/>
			<circle fill="#F6ADCA" cx="541.44" cy="282.858" r="13.97"/>
			<circle fill="#F6ADCA" cx="565.982" cy="288.312" r="13.97"/>
		</g>
		<g>
			<circle fill="#F6ADCA" cx="517.342" cy="308.59" r="13.97"/>
			<circle fill="#F6ADCA" cx="541.884" cy="314.044" r="13.97"/>
			<circle fill="#F6ADCA" cx="566.426" cy="308.59" r="13.97"/>
		</g>
	</g>
</g>
<g>
	<g>
		<rect x="3.081" y="291.763" fill="#F79421" width="53.501" height="13.375"/>
		<rect x="23.144" y="271.701" fill="#F79421" width="13.375" height="53.501"/>
	</g>
</g>
<polygon fill="#F26724" points="190.116,265.631 197.981,289.743 223.343,289.772 202.841,304.703 210.651,328.832 190.116,313.948 
	169.581,328.832 177.391,304.703 156.889,289.772 182.251,289.743 "/>
<path fill="#8DC641" d="M386.49,312.622h-15.273l-16.896,15.746l0.643-15.746c-8.314,0-15.116-6.802-15.116-15.116V283.65
	c0-8.314,6.802-15.116,15.116-15.116h31.526c8.314,0,15.116,6.802,15.116,15.116v13.856
	C401.606,305.82,394.804,312.622,386.49,312.622z"/>
<path fill="#FFDE11" d="M295.867,268.267c-16.1,0-16.114,15.576-16.114,15.576s0.013-15.576-16.087-15.576
	c-8.892,0-16.1,7.208-16.1,16.1c0,21.411,27.072,44.267,32.201,44.267c5.128,0,32.201-21.722,32.201-44.267
	C311.967,275.476,304.759,268.267,295.867,268.267z"/>
<g>
	<g>
		<path fill="#FFFFFF" d="M855.201,296.424v-6.125h6.853c1.996,0,4.374,0.513,4.374,2.964v0.097c0,2.032-1.636,3.063-4.862,3.063
			H855.201z M863.561,310.127h-8.36v-6.415h8.116c3.321,0,5.006,1.062,5.006,3.159v0.097
			C868.323,309.065,866.721,310.127,863.561,310.127 M871.095,299.342c2.581-1.748,3.838-4.127,3.838-7.244V292
			c0-2.472-0.814-4.488-2.49-6.162c-2.073-2.073-5.279-3.169-9.27-3.169h-16.33l0.002,35.088h16.716
			c8.431,0,13.267-3.596,13.267-9.866v-0.096C876.828,303.763,875.05,301.122,871.095,299.342"/>
		<path fill="#FFFFFF" d="M914.654,300.212v0.097c0,5.756-3.907,9.624-9.72,9.624h-5.25v-19.44h5.25
			C910.748,290.494,914.654,294.399,914.654,300.212 M904.934,282.669h-13.803l0.009,35.09l13.795-0.002
			c5.252,0,10.016-1.799,13.419-5.064c3.35-3.215,5.194-7.648,5.194-12.481v-0.098C923.547,290.006,915.718,282.669,904.934,282.669
			"/>
		<path fill="#FFFFFF" d="M883.463,282.613c2.362,0,4.278,1.915,4.278,4.276v30.875h-8.553v-35.152L883.463,282.613z"/>
		<path fill="#FFFFFF" d="M822.776,295.349c-1.225-0.05-1.443,0.689,0.395,1.078C825.767,296.975,824,295.401,822.776,295.349
			 M818.934,292.466c-3.681-1.192-1.259,1.754,0.493,1.948C821.177,294.608,821.542,293.311,818.934,292.466 M808.096,289.801
			c-1.072,0.563,0.847,3.055,5.758,3.189C818.767,293.125,812.435,287.523,808.096,289.801 M817.535,325.876
			c1.544-2.874,4.907-7.064,12.096-15.511c10.751-12.633-21.109-8.391-26.568-17.951c-4.497-7.878,12.238-13.539,22.35-17.922
			c6.573,4.332,11.343,11.34,12.571,19.743C840.086,308.592,831.125,322.011,817.535,325.876 M811.14,305.513
			c-4.512,7.305,9.981,7.415,3.276,21.065c-0.197,0.032-0.392,0.07-0.592,0.099c-15.631,2.288-30.156-8.528-32.445-24.159
			c-1.083-7.412,0.782-14.575,4.705-20.301C785.354,298.711,815.353,298.693,811.14,305.513"/>
	</g>
	<g>
		<g>
			<g>
				<g>
					<path fill="#FFFFFF" d="M1002.977,291.84c0.824,0.668,1.34,1.578,1.547,2.73h-2.575c-0.104-0.507-0.34-0.907-0.708-1.201
						c-0.369-0.294-0.836-0.44-1.4-0.44c-0.645,0-1.184,0.239-1.615,0.717c-0.433,0.479-0.648,1.179-0.648,2.1
						c0,0.922,0.216,1.622,0.648,2.1c0.432,0.479,0.971,0.718,1.615,0.718c0.564,0,1.031-0.147,1.4-0.441
						c0.368-0.293,0.604-0.693,0.708-1.201h2.575c-0.207,1.152-0.723,2.063-1.547,2.73c-0.824,0.669-1.852,1.003-3.084,1.003
						c-0.934,0-1.764-0.199-2.489-0.597s-1.29-0.965-1.693-1.702s-0.604-1.606-0.604-2.609c0-1.002,0.201-1.875,0.604-2.618
						c0.403-0.742,0.968-1.311,1.693-1.702s1.556-0.587,2.489-0.587C1001.125,290.838,1002.153,291.172,1002.977,291.84z"/>
					<path fill="#FFFFFF" d="M1006.763,287.252c0.276-0.248,0.64-0.372,1.089-0.372s0.813,0.124,1.089,0.372
						s0.415,0.567,0.415,0.959c0,0.38-0.139,0.694-0.415,0.941c-0.276,0.248-0.64,0.372-1.089,0.372s-0.813-0.124-1.089-0.372
						c-0.276-0.247-0.415-0.562-0.415-0.941C1006.348,287.819,1006.487,287.5,1006.763,287.252z M1009.061,290.959v9.573h-2.436
						v-9.573H1009.061z"/>
					<path fill="#FFFFFF" d="M1020.905,290.959v9.573h-2.438v-1.936c-0.254,0.646-0.671,1.149-1.253,1.513
						c-0.581,0.362-1.253,0.544-2.013,0.544c-1.106,0-1.988-0.363-2.645-1.089s-0.984-1.739-0.984-3.041v-5.564h2.419v5.287
						c0,0.761,0.196,1.352,0.587,1.771c0.393,0.421,0.922,0.631,1.59,0.631c0.703,0,1.262-0.225,1.677-0.674
						s0.622-1.094,0.622-1.936v-5.08H1020.905z"/>
					<path fill="#FFFFFF" d="M1029.411,291.408c0.57,0.38,0.982,0.893,1.236,1.537v-5.201h2.42v12.788h-2.42v-2.005
						c-0.254,0.646-0.666,1.161-1.236,1.547c-0.57,0.387-1.258,0.579-2.064,0.579s-1.532-0.196-2.178-0.588
						c-0.645-0.392-1.148-0.959-1.512-1.702s-0.545-1.615-0.545-2.618c0-1.002,0.182-1.875,0.545-2.618
						c0.363-0.742,0.867-1.311,1.512-1.702c0.646-0.392,1.371-0.587,2.178-0.587S1028.84,291.027,1029.411,291.408z
						 M1026.275,293.706c-0.461,0.495-0.691,1.175-0.691,2.039s0.23,1.541,0.691,2.03c0.46,0.49,1.071,0.734,1.831,0.734
						c0.738,0,1.346-0.25,1.824-0.751c0.478-0.501,0.717-1.173,0.717-2.014c0-0.853-0.239-1.529-0.717-2.03
						c-0.479-0.501-1.086-0.752-1.824-0.752C1027.346,292.963,1026.735,293.211,1026.275,293.706z"/>
					<path fill="#FFFFFF" d="M1041.583,291.408c0.576,0.38,0.984,0.893,1.227,1.537v-1.986h2.42v9.573h-2.42v-2.005
						c-0.242,0.646-0.65,1.161-1.227,1.547c-0.576,0.387-1.268,0.579-2.074,0.579s-1.531-0.196-2.177-0.588
						s-1.149-0.959-1.513-1.702c-0.362-0.743-0.544-1.615-0.544-2.618c0-1.002,0.182-1.875,0.544-2.618
						c0.363-0.742,0.867-1.311,1.513-1.702s1.37-0.587,2.177-0.587S1041.006,291.027,1041.583,291.408z M1038.438,293.706
						c-0.461,0.495-0.691,1.175-0.691,2.039s0.23,1.541,0.691,2.03c0.46,0.49,1.07,0.734,1.831,0.734
						c0.737,0,1.345-0.25,1.823-0.751s0.717-1.173,0.717-2.014c0-0.853-0.238-1.529-0.717-2.03s-1.086-0.752-1.823-0.752
						C1039.508,292.963,1038.898,293.211,1038.438,293.706z"/>
					<path fill="#FFFFFF" d="M1053.736,291.408c0.57,0.38,0.982,0.893,1.235,1.537v-5.201h2.42v12.788h-2.42v-2.005
						c-0.253,0.646-0.665,1.161-1.235,1.547c-0.57,0.387-1.259,0.579-2.065,0.579s-1.531-0.196-2.177-0.588
						s-1.149-0.959-1.513-1.702c-0.362-0.743-0.544-1.615-0.544-2.618c0-1.002,0.182-1.875,0.544-2.618
						c0.363-0.742,0.867-1.311,1.513-1.702s1.37-0.587,2.177-0.587S1053.166,291.027,1053.736,291.408z M1050.6,293.706
						c-0.461,0.495-0.691,1.175-0.691,2.039s0.23,1.541,0.691,2.03c0.46,0.49,1.07,0.734,1.831,0.734
						c0.737,0,1.345-0.25,1.823-0.751s0.717-1.173,0.717-2.014c0-0.853-0.238-1.529-0.717-2.03s-1.086-0.752-1.823-0.752
						C1051.67,292.963,1051.06,293.211,1050.6,293.706z"/>
					<path fill="#FFFFFF" d="M1069,296.212h-7.017c0.034,0.853,0.265,1.48,0.691,1.884c0.426,0.403,0.956,0.604,1.59,0.604
						c0.564,0,1.034-0.138,1.408-0.415c0.374-0.275,0.614-0.65,0.718-1.123h2.574c-0.127,0.669-0.397,1.268-0.813,1.798
						c-0.414,0.53-0.947,0.944-1.598,1.244c-0.651,0.3-1.374,0.449-2.169,0.449c-0.934,0-1.763-0.199-2.489-0.597
						c-0.725-0.397-1.29-0.965-1.693-1.702c-0.402-0.737-0.604-1.606-0.604-2.609c0-1.002,0.202-1.875,0.604-2.618
						c0.403-0.742,0.969-1.311,1.693-1.702c0.727-0.392,1.556-0.587,2.489-0.587c0.944,0,1.771,0.195,2.479,0.587
						s1.256,0.931,1.642,1.616s0.579,1.466,0.579,2.342C1069.086,295.625,1069.057,295.9,1069,296.212z M1066.019,293.36
						c-0.444-0.403-0.987-0.604-1.633-0.604c-0.657,0-1.21,0.201-1.659,0.604s-0.697,0.997-0.743,1.78h4.648
						C1066.667,294.357,1066.462,293.764,1066.019,293.36z"/>
					<path fill="#FFFFFF" d="M1077.256,291.719c0.703,0.588,1.141,1.371,1.314,2.351h-2.281c-0.093-0.461-0.3-0.829-0.623-1.106
						c-0.322-0.276-0.742-0.414-1.261-0.414c-0.415,0-0.737,0.098-0.968,0.293c-0.23,0.196-0.346,0.461-0.346,0.795
						c0,0.266,0.092,0.479,0.276,0.64s0.415,0.288,0.691,0.38c0.276,0.093,0.674,0.202,1.192,0.329
						c0.726,0.161,1.316,0.331,1.771,0.51s0.847,0.461,1.175,0.847c0.329,0.386,0.493,0.907,0.493,1.563
						c0,0.818-0.32,1.48-0.959,1.987c-0.641,0.508-1.502,0.761-2.584,0.761c-1.244,0-2.241-0.279-2.99-0.838
						c-0.748-0.56-1.203-1.356-1.365-2.394h2.334c0.057,0.473,0.264,0.844,0.621,1.114s0.824,0.406,1.4,0.406
						c0.414,0,0.731-0.101,0.95-0.303c0.219-0.201,0.328-0.464,0.328-0.786c0-0.276-0.095-0.501-0.284-0.674
						c-0.191-0.173-0.428-0.305-0.709-0.397c-0.283-0.092-0.684-0.201-1.201-0.328c-0.715-0.161-1.293-0.325-1.736-0.493
						c-0.444-0.166-0.824-0.435-1.141-0.803c-0.317-0.369-0.476-0.876-0.476-1.521c0-0.829,0.316-1.503,0.95-2.021
						s1.51-0.777,2.627-0.777C1075.622,290.838,1076.554,291.131,1077.256,291.719z"/>
					<path fill="#FFFFFF" d="M1002.977,308.977c0.824,0.668,1.34,1.578,1.547,2.73h-2.575c-0.104-0.507-0.34-0.907-0.708-1.201
						c-0.369-0.294-0.836-0.441-1.4-0.441c-0.645,0-1.184,0.24-1.615,0.718c-0.433,0.479-0.648,1.178-0.648,2.1
						s0.216,1.622,0.648,2.1c0.432,0.479,0.971,0.718,1.615,0.718c0.564,0,1.031-0.147,1.4-0.441
						c0.368-0.294,0.604-0.693,0.708-1.201h2.575c-0.207,1.152-0.723,2.063-1.547,2.73s-1.852,1.002-3.084,1.002
						c-0.934,0-1.764-0.198-2.489-0.596s-1.29-0.965-1.693-1.702s-0.604-1.606-0.604-2.609c0-1.002,0.201-1.875,0.604-2.618
						s0.968-1.311,1.693-1.702s1.556-0.587,2.489-0.587C1001.125,307.975,1002.153,308.309,1002.977,308.977z"/>
					<path fill="#FFFFFF" d="M1013.558,308.562c0.743,0.392,1.327,0.959,1.754,1.702s0.64,1.616,0.64,2.618
						c0,1.003-0.213,1.872-0.64,2.609s-1.011,1.305-1.754,1.702s-1.581,0.596-2.515,0.596s-1.771-0.198-2.514-0.596
						c-0.744-0.397-1.328-0.965-1.754-1.702c-0.428-0.737-0.641-1.606-0.641-2.609c0-1.002,0.213-1.875,0.641-2.618
						c0.426-0.743,1.01-1.311,1.754-1.702c0.742-0.392,1.58-0.587,2.514-0.587S1012.815,308.17,1013.558,308.562z M1009.315,310.8
						c-0.473,0.478-0.708,1.172-0.708,2.082s0.235,1.604,0.708,2.082c0.473,0.479,1.049,0.718,1.729,0.718s1.256-0.239,1.729-0.718
						c0.473-0.478,0.708-1.172,0.708-2.082s-0.235-1.604-0.708-2.082c-0.473-0.479-1.049-0.718-1.729-0.718
						S1009.788,310.321,1009.315,310.8z"/>
					<path fill="#FFFFFF" d="M1033.07,309.037c0.674,0.72,1.011,1.742,1.011,3.067v5.564h-2.419v-5.288
						c0-0.737-0.188-1.305-0.562-1.702c-0.375-0.397-0.891-0.597-1.547-0.597c-0.68,0-1.221,0.214-1.625,0.64
						c-0.402,0.427-0.604,1.049-0.604,1.866v5.081h-2.419v-5.288c0-0.737-0.188-1.305-0.563-1.702
						c-0.374-0.397-0.889-0.597-1.546-0.597c-0.681,0-1.222,0.214-1.624,0.64c-0.404,0.427-0.605,1.049-0.605,1.866v5.081h-2.437
						v-9.574h2.437v1.814c0.254-0.622,0.654-1.103,1.201-1.442s1.184-0.51,1.91-0.51c0.771,0,1.442,0.184,2.013,0.553
						s0.999,0.898,1.288,1.59c0.299-0.656,0.745-1.178,1.338-1.564c0.594-0.385,1.26-0.578,1.996-0.578
						C1031.477,307.957,1032.396,308.316,1033.07,309.037z"/>
					<path fill="#FFFFFF" d="M1045.84,308.095v9.574h-2.437v-1.936c-0.253,0.646-0.671,1.149-1.253,1.512
						c-0.582,0.363-1.252,0.544-2.014,0.544c-1.105,0-1.986-0.362-2.644-1.088c-0.656-0.727-0.985-1.74-0.985-3.042v-5.564h2.42
						v5.288c0,0.761,0.195,1.352,0.588,1.771c0.391,0.421,0.922,0.631,1.59,0.631c0.702,0,1.262-0.225,1.676-0.674
						c0.415-0.449,0.622-1.095,0.622-1.936v-5.081H1045.84z"/>
					<path fill="#FFFFFF" d="M1056.857,309.045c0.657,0.727,0.985,1.746,0.985,3.06v5.564h-2.42v-5.288
						c0-0.761-0.195-1.351-0.588-1.771c-0.391-0.42-0.927-0.631-1.606-0.631c-0.691,0-1.244,0.225-1.659,0.674
						c-0.414,0.449-0.622,1.095-0.622,1.936v5.081h-2.437v-9.574h2.437v1.919c0.253-0.646,0.671-1.149,1.253-1.513
						c0.582-0.362,1.253-0.544,2.014-0.544C1055.319,307.957,1056.2,308.319,1056.857,309.045z"/>
					<path fill="#FFFFFF" d="M1069.36,313.349h-7.017c0.034,0.853,0.265,1.48,0.691,1.884c0.426,0.403,0.956,0.604,1.59,0.604
						c0.564,0,1.034-0.138,1.408-0.415c0.374-0.276,0.614-0.65,0.718-1.123h2.574c-0.127,0.668-0.397,1.268-0.813,1.797
						c-0.414,0.53-0.947,0.945-1.598,1.244c-0.651,0.301-1.374,0.449-2.169,0.449c-0.934,0-1.763-0.198-2.489-0.596
						c-0.725-0.397-1.29-0.965-1.693-1.702c-0.402-0.737-0.604-1.606-0.604-2.609c0-1.002,0.202-1.875,0.604-2.618
						c0.403-0.743,0.969-1.311,1.693-1.702c0.727-0.392,1.556-0.587,2.489-0.587c0.944,0,1.771,0.195,2.479,0.587
						s1.256,0.931,1.642,1.616s0.579,1.466,0.579,2.342C1069.446,312.761,1069.417,313.037,1069.36,313.349z M1066.378,310.497
						c-0.444-0.403-0.987-0.604-1.633-0.604c-0.657,0-1.21,0.201-1.659,0.604s-0.697,0.997-0.743,1.78h4.648
						C1067.026,311.494,1066.822,310.9,1066.378,310.497z"/>
					<path fill="#FFFFFF" d="M1077.616,308.855c0.703,0.588,1.141,1.371,1.314,2.35h-2.281c-0.093-0.46-0.3-0.829-0.623-1.105
						c-0.322-0.276-0.742-0.415-1.261-0.415c-0.415,0-0.737,0.099-0.968,0.294c-0.23,0.196-0.346,0.461-0.346,0.795
						c0,0.266,0.092,0.479,0.276,0.64s0.415,0.288,0.691,0.38c0.276,0.093,0.674,0.202,1.192,0.328
						c0.726,0.162,1.316,0.332,1.771,0.51c0.455,0.18,0.847,0.461,1.175,0.848c0.329,0.386,0.493,0.906,0.493,1.563
						c0,0.818-0.32,1.48-0.959,1.987c-0.641,0.507-1.502,0.76-2.584,0.76c-1.244,0-2.241-0.278-2.99-0.838
						c-0.748-0.559-1.203-1.356-1.365-2.393h2.334c0.057,0.473,0.264,0.844,0.621,1.114s0.824,0.406,1.4,0.406
						c0.414,0,0.731-0.101,0.95-0.303c0.219-0.201,0.328-0.464,0.328-0.786c0-0.276-0.095-0.501-0.284-0.674
						c-0.191-0.173-0.428-0.306-0.709-0.397c-0.283-0.093-0.684-0.202-1.201-0.329c-0.715-0.16-1.293-0.325-1.736-0.492
						c-0.444-0.167-0.824-0.435-1.141-0.804c-0.317-0.368-0.476-0.875-0.476-1.521c0-0.829,0.316-1.504,0.95-2.021
						c0.634-0.519,1.51-0.777,2.627-0.777C1075.981,307.975,1076.914,308.268,1077.616,308.855z"/>
				</g>
				<g>
					<g>
						<path fill="#FFFFFF" d="M1094.611,291.875c0-0.542-0.13-0.969-0.389-1.279s-0.665-0.467-1.218-0.467
							c-1.141,0-1.746,0.777-1.814,2.333h-2.368c0.069-1.44,0.507-2.531,1.313-3.274s1.826-1.115,3.059-1.115
							c1.256,0,2.221,0.326,2.895,0.977c0.674,0.651,1.012,1.519,1.012,2.602c0,0.852-0.252,1.707-0.752,2.565
							c-0.502,0.858-1.139,1.647-1.91,2.368c-0.771,0.72-1.584,1.339-2.437,1.857h5.34v1.987h-8.589v-1.814
							C1092.659,295.906,1094.611,293.66,1094.611,291.875z"/>
						<path fill="#FFFFFF" d="M1099.208,294.328c0-4.124,1.556-6.187,4.666-6.187c1.647,0,2.834,0.554,3.561,1.659
							c0.725,1.105,1.088,2.615,1.088,4.527c0,1.924-0.363,3.439-1.088,4.545c-0.727,1.106-1.913,1.659-3.561,1.659
							C1100.763,300.532,1099.208,298.465,1099.208,294.328z M1106.12,294.328c0-1.244-0.152-2.203-0.457-2.877
							c-0.306-0.674-0.902-1.011-1.789-1.011c-0.898,0-1.5,0.337-1.806,1.011s-0.458,1.633-0.458,2.877
							c0,1.256,0.152,2.221,0.458,2.895s0.907,1.012,1.806,1.012c0.887,0,1.483-0.338,1.789-1.012
							C1105.967,296.549,1106.12,295.584,1106.12,294.328z"/>
						<path fill="#FFFFFF" d="M1094.611,309.011c0-0.541-0.13-0.968-0.389-1.278c-0.259-0.312-0.665-0.467-1.218-0.467
							c-1.141,0-1.746,0.777-1.814,2.333h-2.368c0.069-1.44,0.507-2.532,1.313-3.274c0.807-0.744,1.826-1.115,3.059-1.115
							c1.256,0,2.221,0.326,2.895,0.977s1.012,1.518,1.012,2.601c0,0.853-0.252,1.708-0.752,2.566
							c-0.502,0.858-1.139,1.647-1.91,2.367c-0.771,0.721-1.584,1.34-2.437,1.858h5.34v1.986h-8.589v-1.814
							C1092.659,313.043,1094.611,310.797,1094.611,309.011z"/>
						<path fill="#FFFFFF" d="M1099.208,311.465c0-4.124,1.556-6.187,4.666-6.187c1.647,0,2.834,0.553,3.561,1.659
							c0.725,1.105,1.088,2.615,1.088,4.527c0,1.924-0.363,3.439-1.088,4.545c-0.727,1.105-1.913,1.659-3.561,1.659
							C1100.763,317.669,1099.208,315.601,1099.208,311.465z M1106.12,311.465c0-1.244-0.152-2.203-0.457-2.877
							c-0.306-0.674-0.902-1.012-1.789-1.012c-0.898,0-1.5,0.338-1.806,1.012s-0.458,1.633-0.458,2.877
							c0,1.256,0.152,2.221,0.458,2.895s0.907,1.011,1.806,1.011c0.887,0,1.483-0.337,1.789-1.011
							C1105.967,313.686,1106.12,312.721,1106.12,311.465z"/>
					</g>
				</g>
				<rect x="1082.436" y="287.193" fill="#FFFFFF" width="1.247" height="30.93"/>
				<rect x="989.146" y="287.193" fill="#FFFFFF" width="1.247" height="30.93"/>
				<g>
					<path fill="#FFFFFF" d="M974.286,293.281c-3.058,0-5.19,2.275-5.19,5.617c0,3.413,2.132,5.688,5.19,5.688
						c2.204,0,3.982-0.747,5.119-2.24l2.879,2.382c-1.671,2.417-4.515,3.84-8.247,3.84c-5.688,0-9.599-3.911-9.599-9.635
						c0-5.794,3.946-9.705,9.67-9.705c3.484,0,6.257,1.28,7.963,3.484l-2.808,2.666
						C978.054,294.063,976.383,293.281,974.286,293.281z"/>
				</g>
				<rect x="965.226" y="313.991" fill="#FFFFFF" width="16.014" height="3.413"/>
			</g>
		</g>
		<g>
			<g>
				<path fill="#FFFFFF" d="M1155.54,287.909h-3.263v7.987h1.757v-2.396h1.335c1.791,0,3.229-0.958,3.229-2.807v-0.023
					C1158.598,289.039,1157.446,287.909,1155.54,287.909z M1156.818,290.728c0,0.685-0.513,1.209-1.392,1.209h-1.392v-2.442h1.358
					c0.879,0,1.426,0.422,1.426,1.21V290.728z"/>
				<polygon fill="#FFFFFF" points="1165.637,294.299 1161.655,294.299 1161.655,287.909 1159.898,287.909 1159.898,295.897 
					1165.637,295.897 				"/>
				<path fill="#FFFFFF" d="M1169.698,287.852l-3.423,8.044h1.792l0.73-1.791h3.378l0.73,1.791h1.837l-3.423-8.044H1169.698z
					 M1169.424,292.554l1.061-2.59l1.061,2.59H1169.424z"/>
				<path fill="#FFFFFF" d="M1179.202,296.034c1.54,0,2.453-0.548,3.275-1.426l-1.118-1.13c-0.628,0.571-1.187,0.936-2.099,0.936
					c-1.369,0-2.316-1.141-2.316-2.51v-0.023c0-1.369,0.97-2.488,2.316-2.488c0.799,0,1.426,0.342,2.042,0.901l1.118-1.289
					c-0.742-0.73-1.643-1.232-3.149-1.232c-2.453,0-4.165,1.86-4.165,4.131v0.023
					C1175.106,294.219,1176.851,296.034,1179.202,296.034z"/>
				<polygon fill="#FFFFFF" points="1189.961,294.334 1185.625,294.334 1185.625,292.656 1189.39,292.656 1189.39,291.093 
					1185.625,291.093 1185.625,289.473 1189.904,289.473 1189.904,287.909 1183.879,287.909 1183.879,295.897 1189.961,295.897 				
					"/>
				<polygon fill="#FFFFFF" points="1193.246,290.716 1195.471,294.094 1195.517,294.094 1197.765,290.682 1197.765,295.897 
					1199.51,295.897 1199.51,287.909 1197.616,287.909 1195.517,291.287 1193.417,287.909 1191.523,287.909 1191.523,295.897 
					1193.246,295.897 				"/>
				<path fill="#FFFFFF" d="M1203.263,294.105h3.377l0.73,1.791h1.837l-3.423-8.044h-1.62l-3.423,8.044h1.792L1203.263,294.105z
					 M1204.952,289.963l1.061,2.59h-2.122L1204.952,289.963z"/>
				<polygon fill="#FFFFFF" points="1214.307,291.298 1217.559,287.909 1215.437,287.909 1212.196,291.401 1212.196,287.909 
					1210.439,287.909 1210.439,295.897 1212.196,295.897 1212.196,293.455 1213.12,292.497 1215.596,295.897 1217.707,295.897 				
					"/>
				<rect x="1218.847" y="287.909" fill="#FFFFFF" width="1.757" height="7.987"/>
				<polygon fill="#FFFFFF" points="1224.335,290.819 1228.203,295.897 1229.698,295.897 1229.698,287.909 1227.964,287.909 
					1227.964,292.827 1224.221,287.909 1222.601,287.909 1222.601,295.897 1224.335,295.897 				"/>
				<path fill="#FFFFFF" d="M1235.459,296.034c1.46,0,2.59-0.57,3.412-1.267v-3.469h-3.469v1.518h1.769v1.141
					c-0.445,0.319-1.015,0.479-1.654,0.479c-1.415,0-2.419-1.073-2.419-2.533v-0.023c0-1.358,1.016-2.488,2.294-2.488
					c0.924,0,1.472,0.297,2.088,0.81l1.107-1.335c-0.833-0.707-1.7-1.095-3.138-1.095c-2.419,0-4.188,1.86-4.188,4.131v0.023
					C1231.26,294.288,1232.971,296.034,1235.459,296.034z"/>
				<polygon fill="#FFFFFF" points="1154.034,298.631 1152.277,298.631 1152.277,306.619 1158.016,306.619 1158.016,305.021 
					1154.034,305.021 				"/>
				<path fill="#FFFFFF" d="M1162.077,298.574l-3.423,8.044h1.791l0.73-1.791h3.377l0.73,1.791h1.837l-3.423-8.044H1162.077z
					 M1161.803,303.276l1.061-2.59l1.061,2.59H1161.803z"/>
				<polygon fill="#FFFFFF" points="1166.754,300.252 1169.185,300.252 1169.185,306.619 1170.942,306.619 1170.942,300.252 
					1173.372,300.252 1173.372,298.631 1166.754,298.631 				"/>
				<rect x="1174.798" y="298.631" fill="#FFFFFF" width="1.757" height="7.987"/>
				<polygon fill="#FFFFFF" points="1183.914,303.549 1180.171,298.631 1178.551,298.631 1178.551,306.619 1180.286,306.619 
					1180.286,301.541 1184.154,306.619 1185.648,306.619 1185.648,298.631 1183.914,298.631 				"/>
				<path fill="#FFFFFF" d="M1191.466,298.495c-2.465,0-4.256,1.86-4.256,4.131v0.023c0,2.271,1.769,4.108,4.233,4.108
					c2.465,0,4.256-1.86,4.256-4.131v-0.023C1195.7,300.332,1193.931,298.495,1191.466,298.495z M1193.863,302.648
					c0,1.369-0.981,2.487-2.396,2.487s-2.419-1.141-2.419-2.51v-0.023c0-1.369,0.981-2.488,2.396-2.488s2.419,1.141,2.419,2.51
					V302.648z"/>
				<path fill="#FFFFFF" d="M1199.487,298.574l-3.423,8.044h1.792l0.73-1.791h3.378l0.73,1.791h1.837l-3.423-8.044H1199.487z
					 M1199.213,303.276l1.061-2.59l1.061,2.59H1199.213z"/>
				<polygon fill="#FFFFFF" points="1209.755,302.009 1207.655,298.631 1205.761,298.631 1205.761,306.619 1207.484,306.619 
					1207.484,301.438 1209.709,304.816 1209.755,304.816 1212.003,301.404 1212.003,306.619 1213.748,306.619 1213.748,298.631 
					1211.854,298.631 				"/>
				<polygon fill="#FFFFFF" points="1217.41,303.378 1221.175,303.378 1221.175,301.815 1217.41,301.815 1217.41,300.195 
					1221.689,300.195 1221.689,298.631 1215.664,298.631 1215.664,306.619 1221.746,306.619 1221.746,305.056 1217.41,305.056 				
					"/>
				<path fill="#FFFFFF" d="M1229.972,301.29v-0.023c0-0.753-0.24-1.381-0.685-1.826c-0.525-0.525-1.312-0.81-2.328-0.81h-3.651
					v7.987h1.757v-2.556h1.358h0.023l1.712,2.556h2.054l-1.951-2.853C1229.276,303.39,1229.972,302.579,1229.972,301.29z
					 M1228.192,301.381c0,0.673-0.491,1.13-1.346,1.13h-1.78v-2.294h1.746c0.856,0,1.381,0.388,1.381,1.141V301.381z"/>
				<rect x="1231.636" y="298.631" fill="#FFFFFF" width="1.757" height="7.987"/>
				<path fill="#FFFFFF" d="M1239.19,305.135c-1.369,0-2.316-1.141-2.316-2.51v-0.023c0-1.369,0.97-2.488,2.316-2.488
					c0.799,0,1.426,0.342,2.042,0.902l1.118-1.289c-0.742-0.73-1.643-1.232-3.149-1.232c-2.453,0-4.165,1.86-4.165,4.131v0.023
					c0,2.293,1.746,4.108,4.096,4.108c1.541,0,2.453-0.548,3.275-1.426l-1.118-1.13
					C1240.662,304.77,1240.103,305.135,1239.19,305.135z"/>
				<path fill="#FFFFFF" d="M1248.168,298.574h-1.62l-3.423,8.044h1.792l0.73-1.791h3.378l0.73,1.791h1.837L1248.168,298.574z
					 M1246.274,303.276l1.061-2.59l1.061,2.59H1246.274z"/>
				<rect x="1217.488" y="297.071" fill="#FFFFFF" width="4.144" height="1"/>
			</g>
			<g>
				<path fill="#FFFFFF" d="M1152.154,287.795h3.31c1.933,0,3.102,1.146,3.102,2.801v0.023c0,1.875-1.458,2.847-3.276,2.847h-1.354
					v2.431h-1.782V287.795z M1155.349,291.881c0.891,0,1.412-0.532,1.412-1.227v-0.023c0-0.799-0.555-1.227-1.447-1.227h-1.377
					v2.477H1155.349z"/>
				<path fill="#FFFFFF" d="M1159.766,287.795h1.782v6.482h4.039v1.62h-5.822V287.795z"/>
				<path fill="#FFFFFF" d="M1169.846,287.737h1.644l3.472,8.16h-1.863l-0.741-1.817h-3.426l-0.741,1.817h-1.817L1169.846,287.737z
					 M1171.721,292.506l-1.076-2.627l-1.076,2.627H1171.721z"/>
				<path fill="#FFFFFF" d="M1175.204,291.869v-0.023c0-2.303,1.736-4.19,4.225-4.19c1.528,0,2.442,0.509,3.194,1.25l-1.134,1.308
					c-0.625-0.567-1.262-0.914-2.072-0.914c-1.366,0-2.349,1.134-2.349,2.523v0.023c0,1.389,0.961,2.546,2.349,2.546
					c0.926,0,1.493-0.37,2.13-0.949l1.134,1.146c-0.833,0.891-1.759,1.447-3.322,1.447
					C1176.975,296.036,1175.204,294.195,1175.204,291.869z"/>
				<path fill="#FFFFFF" d="M1183.898,287.795h6.111v1.586h-4.34v1.643h3.819v1.586h-3.819v1.701h4.398v1.586h-6.169V287.795z"/>
				<path fill="#FFFFFF" d="M1152.154,298.511h1.782v6.482h4.039v1.62h-5.822V298.511z"/>
				<path fill="#FFFFFF" d="M1162.234,298.454h1.644l3.472,8.16h-1.863l-0.741-1.817h-3.426l-0.741,1.817h-1.817L1162.234,298.454z
					 M1164.109,303.222l-1.076-2.627l-1.076,2.627H1164.109z"/>
				<path fill="#FFFFFF" d="M1169.293,300.155h-2.465v-1.644h6.713v1.644h-2.465v6.458h-1.782V300.155z"/>
				<path fill="#FFFFFF" d="M1174.698,298.511h1.782v8.102h-1.782V298.511z"/>
				<path fill="#FFFFFF" d="M1178.405,298.511h1.644l3.796,4.988v-4.988h1.759v8.102h-1.516l-3.924-5.15v5.15h-1.759V298.511z"/>
				<path fill="#FFFFFF" d="M1187.099,302.586v-0.023c0-2.303,1.817-4.19,4.317-4.19c2.5,0,4.294,1.863,4.294,4.167v0.023
					c0,2.303-1.817,4.19-4.317,4.19C1188.893,306.752,1187.099,304.889,1187.099,302.586z M1193.847,302.586v-0.023
					c0-1.389-1.019-2.546-2.454-2.546c-1.435,0-2.431,1.134-2.431,2.523v0.023c0,1.389,1.018,2.546,2.454,2.546
					C1192.851,305.109,1193.847,303.974,1193.847,302.586z"/>
				<path fill="#FFFFFF" d="M1154.932,309.17h1.644l3.472,8.16h-1.863l-0.741-1.817h-3.426l-0.741,1.817h-1.817L1154.932,309.17z
					 M1156.807,313.939l-1.076-2.627l-1.076,2.627H1156.807z"/>
				<path fill="#FFFFFF" d="M1161.119,309.228h3.704c1.03,0,1.829,0.289,2.361,0.822c0.451,0.451,0.694,1.088,0.694,1.852v0.023
					c0,1.308-0.706,2.13-1.736,2.512l1.979,2.893h-2.083l-1.736-2.593h-1.401v2.593h-1.782V309.228z M1164.707,313.163
					c0.868,0,1.366-0.463,1.366-1.146v-0.023c0-0.764-0.532-1.157-1.401-1.157h-1.771v2.326H1164.707z"/>
				<path fill="#FFFFFF" d="M1168.92,313.302v-0.023c0-2.303,1.794-4.19,4.248-4.19c1.458,0,2.338,0.393,3.183,1.111l-1.123,1.354
					c-0.625-0.521-1.181-0.822-2.118-0.822c-1.296,0-2.326,1.146-2.326,2.523v0.023c0,1.481,1.018,2.569,2.454,2.569
					c0.648,0,1.227-0.162,1.678-0.486v-1.157h-1.794v-1.539h3.519v3.518c-0.833,0.706-1.979,1.285-3.461,1.285
					C1170.656,317.469,1168.92,315.698,1168.92,313.302z"/>
				<path fill="#FFFFFF" d="M1178.358,309.228h6.111v1.586h-4.34v1.643h3.819v1.586h-3.819v1.701h4.398v1.586h-6.169V309.228z"/>
				<path fill="#FFFFFF" d="M1186.131,309.228h1.643l3.796,4.988v-4.988h1.759v8.102h-1.516l-3.924-5.15v5.15h-1.759V309.228z"/>
				<path fill="#FFFFFF" d="M1196.915,310.872h-2.465v-1.644h6.713v1.644h-2.465v6.458h-1.782V310.872z"/>
				<path fill="#FFFFFF" d="M1202.32,309.228h1.782v8.102h-1.782V309.228z"/>
				<path fill="#FFFFFF" d="M1206.027,309.228h1.643l3.796,4.988v-4.988h1.759v8.102h-1.516l-3.924-5.15v5.15h-1.759V309.228z"/>
				<path fill="#FFFFFF" d="M1217.764,309.17h1.644l3.472,8.16h-1.864l-0.741-1.817h-3.426l-0.741,1.817h-1.817L1217.764,309.17z
					 M1219.639,313.939l-1.077-2.627l-1.076,2.627H1219.639z"/>
				<path fill="#FFFFFF" d="M1227.196,315.918l2.697-2.211c1.007-0.833,1.4-1.273,1.4-1.944c0-0.683-0.451-1.053-1.088-1.053
					c-0.625,0-1.053,0.347-1.655,1.088l-1.25-1.007c0.799-1.088,1.574-1.678,3.021-1.678c1.678,0,2.789,0.984,2.789,2.5v0.023
					c0,1.354-0.694,2.025-2.13,3.137l-1.319,1.018h3.53v1.539h-5.995V315.918z"/>
				<path fill="#FFFFFF" d="M1234.302,313.302v-0.023c0-2.349,1.458-4.19,3.611-4.19c2.141,0,3.588,1.817,3.588,4.167v0.023
					c0,2.35-1.447,4.19-3.611,4.19C1235.726,317.469,1234.302,315.652,1234.302,313.302z M1239.673,313.302v-0.023
					c0-1.47-0.718-2.581-1.782-2.581s-1.759,1.076-1.759,2.558v0.023c0,1.481,0.706,2.581,1.782,2.581
					S1239.673,314.772,1239.673,313.302z"/>
				<path fill="#FFFFFF" d="M1242.345,315.918l2.697-2.211c1.007-0.833,1.4-1.273,1.4-1.944c0-0.683-0.451-1.053-1.088-1.053
					c-0.625,0-1.053,0.347-1.655,1.088l-1.25-1.007c0.799-1.088,1.574-1.678,3.021-1.678c1.678,0,2.789,0.984,2.789,2.5v0.023
					c0,1.354-0.694,2.025-2.13,3.137l-1.319,1.018h3.53v1.539h-5.995V315.918z"/>
				<path fill="#FFFFFF" d="M1249.451,313.302v-0.023c0-2.349,1.458-4.19,3.611-4.19c2.141,0,3.588,1.817,3.588,4.167v0.023
					c0,2.35-1.447,4.19-3.611,4.19C1250.875,317.469,1249.451,315.652,1249.451,313.302z M1254.821,313.302v-0.023
					c0-1.47-0.718-2.581-1.782-2.581c-1.065,0-1.759,1.076-1.759,2.558v0.023c0,1.481,0.706,2.581,1.782,2.581
					S1254.821,314.772,1254.821,313.302z"/>
			</g>
		</g>
	</g>
</g>
</svg>
