<?xml version="1.0" encoding="utf-8"?>
<!-- Generator: Adobe Illustrator 17.0.0, SVG Export Plug-In . SVG Version: 6.00 Build 0)  -->
<!DOCTYPE svg PUBLIC "-//W3C//DTD SVG 1.1//EN" "http://www.w3.org/Graphics/SVG/1.1/DTD/svg11.dtd">
<svg version="1.1" id="Layer_1" xmlns="http://www.w3.org/2000/svg" xmlns:xlink="http://www.w3.org/1999/xlink" x="0px" y="0px"
	 width="1254.816px" height="123.493px" viewBox="0 0 1254.816 123.493" enable-background="new 0 0 1254.816 123.493"
	 xml:space="preserve">
<g>
	<g>
		<path fill="#FFFFFF" d="M1140.899,4.383h3.04v13.822h-3.04V4.383z"/>
		<path fill="#FFFFFF" d="M1151.34,4.383h5.391c4.344,0,7.345,2.982,7.345,6.872v0.039c0,3.89-3.001,6.911-7.345,6.911h-5.391V4.383
			z M1156.731,15.46c2.487,0,4.166-1.678,4.166-4.126v-0.04c0-2.448-1.679-4.166-4.166-4.166h-2.35v8.332H1156.731z"/>
		<path fill="#FFFFFF" d="M1170.724,4.383h10.425v2.705h-7.404v2.804h6.516v2.705h-6.516V15.5h7.504v2.705h-10.524V4.383z"/>
		<path fill="#FFFFFF" d="M1192.635,4.285h2.805l5.923,13.92h-3.179l-1.264-3.1h-5.845l-1.264,3.1h-3.1L1192.635,4.285z
			 M1195.834,12.42l-1.836-4.482l-1.837,4.482H1195.834z"/>
		<path fill="#FFFFFF" d="M1208.88,7.188h-4.206V4.383h11.453v2.804h-4.207v11.018h-3.04V7.188z"/>
		<path fill="#FFFFFF" d="M1221.196,11.333v-0.04c0-3.929,3.101-7.147,7.365-7.147c4.266,0,7.326,3.179,7.326,7.108v0.039
			c0,3.93-3.101,7.148-7.365,7.148C1224.256,18.442,1221.196,15.263,1221.196,11.333z M1232.708,11.333v-0.04
			c0-2.369-1.737-4.344-4.186-4.344c-2.449,0-4.146,1.935-4.146,4.305v0.039c0,2.37,1.737,4.344,4.186,4.344
			C1231.01,15.638,1232.708,13.703,1232.708,11.333z M1229.707,0l2.587,1.125l-2.686,1.975h-2.291L1229.707,0z"/>
		<path fill="#FFFFFF" d="M1242.535,4.383h2.804l6.477,8.51v-8.51h3.001v13.822h-2.587l-6.693-8.787v8.787h-3.001V4.383z"/>
	</g>
</g>
<g>
	<g>
		<path fill="#FFFFFF" d="M0.667,11.333v-0.04c0-3.929,2.962-7.147,7.207-7.147c2.606,0,4.166,0.869,5.45,2.132L11.389,8.51
			c-1.066-0.967-2.152-1.56-3.534-1.56c-2.33,0-4.008,1.935-4.008,4.305v0.039c0,2.37,1.639,4.344,4.008,4.344
			c1.58,0,2.547-0.632,3.633-1.619l1.936,1.955c-1.422,1.521-3.001,2.468-5.667,2.468C3.689,18.442,0.667,15.302,0.667,11.333z"/>
		<path fill="#FFFFFF" d="M18.788,11.333v-0.04c0-3.929,3.1-7.147,7.365-7.147c4.265,0,7.325,3.179,7.325,7.108v0.039
			c0,3.93-3.1,7.148-7.364,7.148C21.849,18.442,18.788,15.263,18.788,11.333z M30.299,11.333v-0.04c0-2.369-1.737-4.344-4.186-4.344
			c-2.449,0-4.146,1.935-4.146,4.305v0.039c0,2.37,1.737,4.344,4.186,4.344S30.299,13.703,30.299,11.333z"/>
		<path fill="#FFFFFF" d="M40.126,4.383h2.804l6.476,8.51v-8.51h3.001v13.822h-2.586l-6.694-8.787v8.787h-3.001V4.383z"/>
		<path fill="#FFFFFF" d="M58.483,4.383h3.356l3.613,9.734l3.613-9.734h3.278l-5.587,13.92h-2.686L58.483,4.383z"/>
		<path fill="#FFFFFF" d="M76.919,11.333v-0.04c0-3.929,3.1-7.147,7.365-7.147s7.325,3.179,7.325,7.108v0.039
			c0,3.93-3.1,7.148-7.365,7.148S76.919,15.263,76.919,11.333z M88.431,11.333v-0.04c0-2.369-1.738-4.344-4.186-4.344
			s-4.146,1.935-4.146,4.305v0.039c0,2.37,1.737,4.344,4.186,4.344C86.732,15.638,88.431,13.703,88.431,11.333z"/>
		<path fill="#FFFFFF" d="M97.645,11.333v-0.04c0-3.929,2.962-7.147,7.207-7.147c2.606,0,4.166,0.869,5.449,2.132l-1.935,2.231
			c-1.066-0.967-2.152-1.56-3.534-1.56c-2.33,0-4.008,1.935-4.008,4.305v0.039c0,2.37,1.639,4.344,4.008,4.344
			c1.58,0,2.547-0.632,3.633-1.619l1.935,1.955c-1.421,1.521-3.001,2.468-5.667,2.468C100.666,18.442,97.645,15.302,97.645,11.333z"
			/>
		<path fill="#FFFFFF" d="M121.511,4.285h2.804l5.923,13.92h-3.179l-1.264-3.1h-5.845l-1.264,3.1h-3.1L121.511,4.285z
			 M124.709,12.42l-1.836-4.482l-1.836,4.482H124.709z"/>
		<path fill="#FFFFFF" d="M137.755,7.188h-4.206V4.383h11.452v2.804h-4.206v11.018h-3.041V7.188z"/>
		<path fill="#FFFFFF" d="M150.071,11.333v-0.04c0-3.929,3.101-7.147,7.365-7.147s7.325,3.179,7.325,7.108v0.039
			c0,3.93-3.1,7.148-7.365,7.148S150.071,15.263,150.071,11.333z M161.583,11.333v-0.04c0-2.369-1.738-4.344-4.186-4.344
			s-4.146,1.935-4.146,4.305v0.039c0,2.37,1.738,4.344,4.186,4.344S161.583,13.703,161.583,11.333z"/>
		<path fill="#FFFFFF" d="M171.409,4.383h6.318c1.757,0,3.12,0.494,4.028,1.402c0.77,0.771,1.185,1.856,1.185,3.159v0.04
			c0,2.231-1.204,3.633-2.962,4.285l3.377,4.937H179.8l-2.961-4.423h-2.389v4.423h-3.041V4.383z M177.53,11.097
			c1.481,0,2.33-0.79,2.33-1.955V9.103c0-1.303-0.908-1.975-2.389-1.975h-3.021v3.969H177.53z"/>
		<path fill="#FFFFFF" d="M189.766,4.383h3.041v13.822h-3.041V4.383z"/>
		<path fill="#FFFFFF" d="M204.947,4.285h2.804l5.924,13.92h-3.179l-1.264-3.1h-5.844l-1.264,3.1h-3.1L204.947,4.285z
			 M208.146,12.42l-1.836-4.482l-1.836,4.482H208.146z"/>
		<path fill="#FFFFFF" d="M229.619,4.383h5.391c4.344,0,7.345,2.982,7.345,6.872v0.039c0,3.89-3.001,6.911-7.345,6.911h-5.391V4.383
			z M235.009,15.46c2.488,0,4.166-1.678,4.166-4.126v-0.04c0-2.448-1.678-4.166-4.166-4.166h-2.35v8.332H235.009z"/>
		<path fill="#FFFFFF" d="M249.002,4.383h10.425v2.705h-7.404v2.804h6.516v2.705h-6.516V15.5h7.503v2.705h-10.524V4.383z"/>
		<path fill="#FFFFFF" d="M276.183,4.383h3.04v13.822h-3.04V4.383z"/>
		<path fill="#FFFFFF" d="M286.625,4.383h5.391c4.344,0,7.345,2.982,7.345,6.872v0.039c0,3.89-3.001,6.911-7.345,6.911h-5.391V4.383
			z M292.015,15.46c2.488,0,4.166-1.678,4.166-4.126v-0.04c0-2.448-1.678-4.166-4.166-4.166h-2.35v8.332H292.015z"/>
		<path fill="#FFFFFF" d="M306.008,4.383h10.425v2.705h-7.405v2.804h6.516v2.705h-6.516V15.5h7.503v2.705h-10.524V4.383z"/>
		<path fill="#FFFFFF" d="M327.92,4.285h2.804l5.923,13.92h-3.179l-1.264-3.1h-5.845l-1.264,3.1h-3.1L327.92,4.285z M331.119,12.42
			l-1.836-4.482l-1.836,4.482H331.119z"/>
		<path fill="#FFFFFF" d="M341.578,16.191l1.797-2.152c1.244,1.027,2.547,1.678,4.127,1.678c1.244,0,1.994-0.493,1.994-1.303v-0.04
			c0-0.77-0.474-1.165-2.784-1.757c-2.784-0.711-4.581-1.481-4.581-4.226v-0.04c0-2.507,2.014-4.166,4.838-4.166
			c2.014,0,3.731,0.632,5.134,1.757l-1.58,2.29c-1.224-0.849-2.429-1.362-3.593-1.362c-1.165,0-1.777,0.533-1.777,1.205v0.04
			c0,0.908,0.592,1.204,2.981,1.816c2.804,0.73,4.383,1.737,4.383,4.146v0.04c0,2.745-2.093,4.285-5.074,4.285
			C345.349,18.402,343.236,17.672,341.578,16.191z"/>
	</g>
</g>
<rect x="368.892" y="10.023" fill="#FFFFFF" width="759.718" height="2.367"/>
<g>
	<path fill="#FFFFFF" d="M0,56.624h12.773l19.816,50.528l19.723-50.528h12.491l-27.33,66.212H27.33L0,56.624z"/>
	<path fill="#FFFFFF" d="M84.521,89.683v-0.188c0-18.502,14.275-33.998,34.468-33.998s34.28,15.309,34.28,33.811v0.188
		c0,18.502-14.275,33.998-34.468,33.998S84.521,108.185,84.521,89.683z M141.153,89.683v-0.188c0-12.772-9.298-23.386-22.353-23.386
		S96.636,76.535,96.636,89.308v0.188c0,12.773,9.298,23.386,22.353,23.386C132.042,112.881,141.153,102.456,141.153,89.683z"/>
	<path fill="#FFFFFF" d="M182.657,56.624h11.552v55.224h34.562v10.519h-46.114V56.624z"/>
	<path fill="#FFFFFF" d="M239.754,56.624h12.773l19.817,50.528l19.723-50.528h12.491l-27.33,66.212h-10.144L239.754,56.624z"/>
	<path fill="#FFFFFF" d="M331.224,56.624h48.744v10.331h-37.192v17.093h32.966v10.331h-32.966v17.656h37.661v10.331h-49.213V56.624z
		"/>
	<path fill="#FFFFFF" d="M409.546,56.624h29.302c8.265,0,14.745,2.442,18.971,6.574c3.476,3.569,5.447,8.453,5.447,14.182v0.188
		c0,10.801-6.48,17.281-15.684,19.911l17.75,24.888h-13.618L435.562,99.45h-14.463v22.916h-11.552V56.624z M438.003,89.213
		c8.265,0,13.524-4.32,13.524-10.988v-0.188c0-7.044-5.072-10.895-13.618-10.895h-16.812v22.071H438.003z"/>
	<path fill="#FFFFFF" d="M559.71,56.154h10.707l28.927,66.212h-12.209l-6.668-15.872h-31.086l-6.763,15.872h-11.833L559.71,56.154z
		 M576.24,96.257L564.875,69.96l-11.27,26.297H576.24z"/>
	<path fill="#FFFFFF" d="M661.225,56.624h11.552v55.224h34.562v10.519h-46.113V56.624z"/>
	<path fill="#FFFFFF" d="M760.301,56.154h10.707l28.927,66.212h-12.209l-6.669-15.872h-31.086l-6.763,15.872h-11.833L760.301,56.154
		z M776.832,96.257L765.467,69.96l-11.27,26.297H776.832z"/>
	<path fill="#FFFFFF" d="M871.77,89.683v-0.188c0-18.689,13.994-33.998,33.904-33.998c12.116,0,19.441,4.226,25.734,10.237
		l-7.42,8.546c-5.26-4.884-10.895-8.171-18.408-8.171c-12.584,0-21.694,10.331-21.694,23.198v0.188
		c0,12.867,9.11,23.386,21.694,23.386c8.078,0,13.243-3.287,18.878-8.547l7.419,7.514c-6.855,7.138-14.369,11.646-26.672,11.646
		C886.046,123.493,871.77,108.561,871.77,89.683z"/>
	<path fill="#FFFFFF" d="M984.935,56.154h10.706l28.928,66.212h-12.209l-6.669-15.872h-31.087l-6.762,15.872h-11.834L984.935,56.154
		z M1001.465,96.257L990.1,69.96l-11.27,26.297H1001.465z"/>
	<path fill="#FFFFFF" d="M1053.489,56.624h11.551v55.224h34.563v10.519h-46.113V56.624z"/>
	<path fill="#FFFFFF" d="M1129.274,56.624h11.551v55.224h34.563v10.519h-46.113V56.624z"/>
	<path fill="#FFFFFF" d="M1205.059,56.624h48.742v10.331h-37.191v17.093h32.966v10.331h-32.966v17.656h37.662v10.331h-49.213V56.624
		z"/>
</g>
</svg>
