<?xml version="1.0" encoding="UTF-8" standalone="no"?>
<!-- Generator: Adobe Illustrator 17.0.0, SVG Export Plug-In . SVG Version: 6.00 Build 0)  -->

<svg
   xmlns:dc="http://purl.org/dc/elements/1.1/"
   xmlns:cc="http://creativecommons.org/ns#"
   xmlns:rdf="http://www.w3.org/1999/02/22-rdf-syntax-ns#"
   xmlns:svg="http://www.w3.org/2000/svg"
   xmlns="http://www.w3.org/2000/svg"
   xmlns:sodipodi="http://sodipodi.sourceforge.net/DTD/sodipodi-0.dtd"
   xmlns:inkscape="http://www.inkscape.org/namespaces/inkscape"
   version="1.1"
   id="Layer_1"
   x="0px"
   y="0px"
   viewBox="0 0 904.26 325.722"
   enable-background="new 0 0 904.26 325.722"
   xml:space="preserve"
   sodipodi:docname="volver_a_la_calle_logo_mobile-5-black.svg"
   inkscape:version="0.92.3 (2405546, 2018-03-11)"><metadata
   id="metadata111"><rdf:RDF><cc:Work
       rdf:about=""><dc:format>image/svg+xml</dc:format><dc:type
         rdf:resource="http://purl.org/dc/dcmitype/StillImage" /><dc:title></dc:title></cc:Work></rdf:RDF></metadata><defs
   id="defs109" /><sodipodi:namedview
   pagecolor="#ffffff"
   bordercolor="#666666"
   borderopacity="1"
   objecttolerance="10"
   gridtolerance="10"
   guidetolerance="10"
   inkscape:pageopacity="0"
   inkscape:pageshadow="2"
   inkscape:window-width="1920"
   inkscape:window-height="1052"
   id="namedview107"
   showgrid="false"
   inkscape:zoom="0.3782098"
   inkscape:cx="452.13"
   inkscape:cy="162.86099"
   inkscape:window-x="0"
   inkscape:window-y="0"
   inkscape:window-maximized="1"
   inkscape:current-layer="Layer_1" />
<g
   id="g18"
   style="fill:#000000">
	<g
   id="g16"
   style="fill:#000000">
		<path
   fill="#FFFFFF"
   d="M759.877,5.556h3.854v17.517h-3.854V5.556z"
   id="path2"
   style="fill:#000000" />
		<path
   fill="#FFFFFF"
   d="M773.111,5.556h6.831c5.506,0,9.31,3.778,9.31,8.708v0.05c0,4.93-3.804,8.759-9.31,8.759h-6.831V5.556z     M779.942,19.594c3.153,0,5.28-2.127,5.28-5.229v-0.051c0-3.103-2.127-5.28-5.28-5.28h-2.978v10.561H779.942z"
   id="path4"
   style="fill:#000000" />
		<path
   fill="#FFFFFF"
   d="M797.679,5.556h13.213v3.428h-9.384v3.554h8.258v3.429h-8.258v3.678h9.509v3.429h-13.338V5.556z"
   id="path6"
   style="fill:#000000" />
		<path
   fill="#FFFFFF"
   d="M825.45,5.43h3.554l7.508,17.643h-4.029l-1.602-3.929h-7.407l-1.602,3.929h-3.929L825.45,5.43z     M829.505,15.74l-2.328-5.681l-2.327,5.681H829.505z"
   id="path8"
   style="fill:#000000" />
		<path
   fill="#FFFFFF"
   d="M846.04,9.108h-5.33V5.556h14.515v3.553h-5.331v13.964h-3.854V9.108z"
   id="path10"
   style="fill:#000000" />
		<path
   fill="#FFFFFF"
   d="M861.649,14.364v-0.051c0-4.979,3.93-9.059,9.335-9.059s9.283,4.029,9.283,9.009v0.05    c0,4.98-3.929,9.059-9.334,9.059S861.649,19.344,861.649,14.364z M876.239,14.364v-0.051c0-3.003-2.202-5.505-5.306-5.505    c-3.103,0-5.255,2.452-5.255,5.455v0.05c0,3.003,2.202,5.506,5.306,5.506C874.087,19.819,876.239,17.366,876.239,14.364z     M872.436,0l3.278,1.426l-3.403,2.503h-2.903L872.436,0z"
   id="path12"
   style="fill:#000000" />
		<path
   fill="#FFFFFF"
   d="M888.694,5.556h3.554l8.208,10.785V5.556h3.804v17.517h-3.278l-8.483-11.136v11.136h-3.804V5.556z"
   id="path14"
   style="fill:#000000" />
	</g>
</g>
<g
   id="g60"
   style="fill:#000000">
	<g
   id="g58"
   style="fill:#000000">
		<path
   fill="#FFFFFF"
   d="M0,14.364v-0.051c0-4.979,3.754-9.059,9.134-9.059c3.303,0,5.28,1.102,6.906,2.703l-2.452,2.827    c-1.352-1.226-2.728-1.977-4.479-1.977c-2.953,0-5.08,2.452-5.08,5.455v0.05c0,3.003,2.077,5.506,5.08,5.506    c2.002,0,3.229-0.801,4.604-2.053l2.453,2.478c-1.802,1.927-3.804,3.128-7.182,3.128C3.829,23.372,0,19.394,0,14.364z"
   id="path20"
   style="fill:#000000" />
		<path
   fill="#FFFFFF"
   d="M22.966,14.364v-0.051c0-4.979,3.929-9.059,9.334-9.059s9.284,4.029,9.284,9.009v0.05    c0,4.98-3.929,9.059-9.334,9.059S22.966,19.344,22.966,14.364z M37.556,14.364v-0.051c0-3.003-2.202-5.505-5.305-5.505    s-5.255,2.452-5.255,5.455v0.05c0,3.003,2.202,5.506,5.305,5.506C35.404,19.819,37.556,17.366,37.556,14.364z"
   id="path22"
   style="fill:#000000" />
		<path
   fill="#FFFFFF"
   d="M50.011,5.556h3.554l8.208,10.785V5.556h3.804v17.517h-3.278l-8.483-11.136v11.136h-3.804V5.556z"
   id="path24"
   style="fill:#000000" />
		<path
   fill="#FFFFFF"
   d="M73.277,5.556h4.254l4.579,12.337l4.58-12.337h4.154l-7.082,17.642h-3.403L73.277,5.556z"
   id="path26"
   style="fill:#000000" />
		<path
   fill="#FFFFFF"
   d="M96.645,14.364v-0.051c0-4.979,3.929-9.059,9.334-9.059s9.284,4.029,9.284,9.009v0.05    c0,4.98-3.929,9.059-9.334,9.059S96.645,19.344,96.645,14.364z M111.234,14.364v-0.051c0-3.003-2.202-5.505-5.305-5.505    s-5.255,2.452-5.255,5.455v0.05c0,3.003,2.202,5.506,5.306,5.506C109.082,19.819,111.234,17.366,111.234,14.364z"
   id="path28"
   style="fill:#000000" />
		<path
   fill="#FFFFFF"
   d="M122.913,14.364v-0.051c0-4.979,3.754-9.059,9.134-9.059c3.303,0,5.28,1.102,6.906,2.703l-2.452,2.827    c-1.352-1.226-2.728-1.977-4.479-1.977c-2.953,0-5.08,2.452-5.08,5.455v0.05c0,3.003,2.077,5.506,5.08,5.506    c2.002,0,3.229-0.801,4.604-2.053l2.453,2.478c-1.802,1.927-3.804,3.128-7.182,3.128    C126.742,23.372,122.913,19.394,122.913,14.364z"
   id="path30"
   style="fill:#000000" />
		<path
   fill="#FFFFFF"
   d="M153.161,5.43h3.553l7.508,17.643h-4.029l-1.602-3.929h-7.407l-1.602,3.929h-3.929L153.161,5.43z     M157.215,15.74l-2.328-5.681l-2.327,5.681H157.215z"
   id="path32"
   style="fill:#000000" />
		<path
   fill="#FFFFFF"
   d="M173.751,9.108h-5.331V5.556h14.515v3.553h-5.331v13.964h-3.854V9.108z"
   id="path34"
   style="fill:#000000" />
		<path
   fill="#FFFFFF"
   d="M189.36,14.364v-0.051c0-4.979,3.929-9.059,9.334-9.059s9.284,4.029,9.284,9.009v0.05    c0,4.98-3.929,9.059-9.334,9.059S189.36,19.344,189.36,14.364z M203.95,14.364v-0.051c0-3.003-2.202-5.505-5.305-5.505    s-5.255,2.452-5.255,5.455v0.05c0,3.003,2.202,5.506,5.306,5.506C201.797,19.819,203.95,17.366,203.95,14.364z"
   id="path36"
   style="fill:#000000" />
		<path
   fill="#FFFFFF"
   d="M216.405,5.556h8.008c2.227,0,3.954,0.625,5.105,1.776c0.976,0.976,1.501,2.353,1.501,4.004v0.05    c0,2.828-1.526,4.604-3.753,5.431l4.279,6.256h-4.504l-3.753-5.605h-3.028v5.605h-3.854V5.556z M224.163,14.063    c1.877,0,2.953-1.001,2.953-2.478v-0.05c0-1.651-1.151-2.503-3.028-2.503h-3.829v5.03H224.163z"
   id="path38"
   style="fill:#000000" />
		<path
   fill="#FFFFFF"
   d="M239.672,5.556h3.854v17.517h-3.854V5.556z"
   id="path40"
   style="fill:#000000" />
		<path
   fill="#FFFFFF"
   d="M258.912,5.43h3.553l7.508,17.643h-4.029l-1.602-3.929h-7.407l-1.602,3.929h-3.929L258.912,5.43z     M262.966,15.74l-2.328-5.681l-2.327,5.681H262.966z"
   id="path42"
   style="fill:#000000" />
		<path
   fill="#FFFFFF"
   d="M290.183,5.556h6.832c5.505,0,9.309,3.778,9.309,8.708v0.05c0,4.93-3.804,8.759-9.309,8.759h-6.832V5.556z     M297.014,19.594c3.153,0,5.28-2.127,5.28-5.229v-0.051c0-3.103-2.127-5.28-5.28-5.28h-2.978v10.561H297.014z"
   id="path44"
   style="fill:#000000" />
		<path
   fill="#FFFFFF"
   d="M314.75,5.556h13.213v3.428h-9.384v3.554h8.258v3.429h-8.258v3.678h9.509v3.429H314.75V5.556z"
   id="path46"
   style="fill:#000000" />
		<path
   fill="#FFFFFF"
   d="M349.2,5.556h3.854v17.517H349.2V5.556z"
   id="path48"
   style="fill:#000000" />
		<path
   fill="#FFFFFF"
   d="M362.435,5.556h6.832c5.505,0,9.309,3.778,9.309,8.708v0.05c0,4.93-3.804,8.759-9.309,8.759h-6.832V5.556z     M369.266,19.594c3.153,0,5.28-2.127,5.28-5.229v-0.051c0-3.103-2.127-5.28-5.28-5.28h-2.978v10.561H369.266z"
   id="path50"
   style="fill:#000000" />
		<path
   fill="#FFFFFF"
   d="M387.002,5.556h13.213v3.428h-9.384v3.554h8.258v3.429h-8.258v3.678h9.509v3.429h-13.338V5.556z"
   id="path52"
   style="fill:#000000" />
		<path
   fill="#FFFFFF"
   d="M414.774,5.43h3.554l7.507,17.643h-4.029l-1.602-3.929h-7.407l-1.602,3.929h-3.929L414.774,5.43z     M418.828,15.74L416.5,10.06l-2.327,5.681H418.828z"
   id="path54"
   style="fill:#000000" />
		<path
   fill="#FFFFFF"
   d="M432.084,20.52l2.277-2.728c1.576,1.302,3.228,2.127,5.23,2.127c1.577,0,2.527-0.625,2.527-1.651v-0.05    c0-0.977-0.601-1.477-3.528-2.228c-3.528-0.9-5.806-1.877-5.806-5.355v-0.05c0-3.178,2.552-5.28,6.131-5.28    c2.553,0,4.73,0.801,6.506,2.228l-2.002,2.902c-1.551-1.076-3.078-1.727-4.554-1.727c-1.477,0-2.252,0.676-2.252,1.526v0.051    c0,1.15,0.751,1.526,3.779,2.302c3.553,0.926,5.555,2.202,5.555,5.255v0.051c0,3.478-2.652,5.43-6.431,5.43    C436.864,23.322,434.187,22.396,432.084,20.52z"
   id="path56"
   style="fill:#000000" />
	</g>
</g>
<rect
   x="458.356"
   y="15.331"
   fill="#FFFFFF"
   width="289"
   height="3"
   id="rect62"
   style="fill:#000000" />
<g
   id="g94"
   style="fill:#000000">
	<g
   id="g92"
   style="fill:#000000">
		<path
   fill="#FFFFFF"
   d="M2.893,73.607h19.123l29.668,75.647l29.528-75.647h18.701l-40.917,99.13H43.81L2.893,73.607z"
   id="path64"
   style="fill:#000000" />
		<path
   fill="#FFFFFF"
   d="M129.445,123.102v-0.281c0-27.7,21.373-50.9,51.604-50.9c30.231,0,51.322,22.919,51.322,50.619v0.281    c0,27.7-21.373,50.901-51.604,50.901C150.536,173.721,129.445,150.802,129.445,123.102z M214.232,123.102v-0.281    c0-19.123-13.92-35.012-33.465-35.012c-19.545,0-33.184,15.607-33.184,34.73v0.281c0,19.123,13.92,35.012,33.465,35.012    C200.593,157.832,214.232,142.225,214.232,123.102z"
   id="path66"
   style="fill:#000000" />
		<path
   fill="#FFFFFF"
   d="M276.385,73.607h17.295v82.678h51.745v15.749h-69.04V73.607z"
   id="path68"
   style="fill:#000000" />
		<path
   fill="#FFFFFF"
   d="M361.878,73.607h19.123l29.668,75.647l29.528-75.647h18.701l-40.917,99.13h-15.186L361.878,73.607z"
   id="path70"
   style="fill:#000000" />
		<path
   fill="#FFFFFF"
   d="M498.836,73.607h72.977v15.467h-55.682v25.591h49.354v15.467h-49.354v26.435h56.385v15.467h-73.68V73.607z    "
   id="path72"
   style="fill:#000000" />
		<path
   fill="#FFFFFF"
   d="M616.107,73.607h43.87c12.374,0,22.076,3.655,28.403,9.842c5.203,5.343,8.155,12.655,8.155,21.232v0.281    c0,16.17-9.702,25.872-23.481,29.81l26.575,37.262h-20.389l-24.185-34.309h-21.654v34.309h-17.295V73.607z M658.713,122.398    c12.373,0,20.247-6.468,20.247-16.451v-0.281c0-10.546-7.593-16.311-20.388-16.311h-25.17v33.043H658.713z"
   id="path74"
   style="fill:#000000" />
		<path
   fill="#FFFFFF"
   d="M840.945,72.904h16.03l43.308,99.13h-18.279l-9.983-23.763h-46.542l-10.124,23.763h-17.717L840.945,72.904    z M865.693,132.944L848.68,93.574l-16.874,39.371H865.693z"
   id="path76"
   style="fill:#000000" />
		<path
   fill="#FFFFFF"
   d="M11.328,225.607h17.295v82.678h51.745v15.749h-69.04V225.607z"
   id="path78"
   style="fill:#000000" />
		<path
   fill="#FFFFFF"
   d="M159.673,224.904h16.03l43.308,99.13h-18.279l-9.983-23.764h-46.542l-10.124,23.764h-17.717    L159.673,224.904z M184.42,284.944l-17.014-39.371l-16.874,39.371H184.42z"
   id="path80"
   style="fill:#000000" />
		<path
   fill="#FFFFFF"
   d="M326.58,275.102v-0.281c0-27.981,20.951-50.9,50.76-50.9c18.139,0,29.106,6.327,38.527,15.326    l-11.108,12.796c-7.874-7.312-16.311-12.233-27.56-12.233c-18.842,0-32.481,15.467-32.481,34.73v0.281    c0,19.264,13.639,35.012,32.481,35.012c12.092,0,19.826-4.921,28.263-12.795l11.108,11.248    c-10.265,10.687-21.513,17.437-39.933,17.437C347.953,325.722,326.58,303.364,326.58,275.102z"
   id="path82"
   style="fill:#000000" />
		<path
   fill="#FFFFFF"
   d="M496.018,224.904h16.03l43.308,99.13h-18.279l-9.983-23.764h-46.542l-10.124,23.764H452.71    L496.018,224.904z M520.766,284.944l-17.014-39.371l-16.874,39.371H520.766z"
   id="path84"
   style="fill:#000000" />
		<path
   fill="#FFFFFF"
   d="M598.666,225.607h17.295v82.678h51.745v15.749h-69.04V225.607z"
   id="path86"
   style="fill:#000000" />
		<path
   fill="#FFFFFF"
   d="M712.14,225.607h17.295v82.678h51.744v15.749H712.14V225.607z"
   id="path88"
   style="fill:#000000" />
		<path
   fill="#FFFFFF"
   d="M825.613,225.607h72.977v15.467h-55.682v25.591h49.354v15.467h-49.354v26.435h56.385v15.468h-73.68    V225.607z"
   id="path90"
   style="fill:#000000" />
	</g>
</g>
<g
   id="g104">
	<g
   id="g102">
		<g
   id="g100">
			<path
   fill="#F26724"
   d="M899.088,720.969"
   id="path96" />
			<path
   fill="#F26724"
   d="M999.275,620.782"
   id="path98" />
		</g>
	</g>
</g>
</svg>