<?xml version="1.0" encoding="utf-8"?>
<!-- Generator: Adobe Illustrator 17.0.0, SVG Export Plug-In . SVG Version: 6.00 Build 0)  -->
<!DOCTYPE svg PUBLIC "-//W3C//DTD SVG 1.1//EN" "http://www.w3.org/Graphics/SVG/1.1/DTD/svg11.dtd">
<svg version="1.1" id="Layer_1" xmlns="http://www.w3.org/2000/svg" xmlns:xlink="http://www.w3.org/1999/xlink" x="0px" y="0px"
	 width="907.684px" height="477.263px" viewBox="0 0 907.684 477.263" enable-background="new 0 0 907.684 477.263"
	 xml:space="preserve">
<g>
	<g>
		<path fill="#FFFFFF" d="M761.205,5.556h3.854v17.517h-3.854V5.556z"/>
		<path fill="#FFFFFF" d="M774.439,5.556h6.831c5.506,0,9.31,3.778,9.31,8.708v0.05c0,4.93-3.804,8.759-9.31,8.759h-6.831V5.556z
			 M781.27,19.594c3.153,0,5.28-2.127,5.28-5.229v-0.051c0-3.103-2.127-5.28-5.28-5.28h-2.978v10.561H781.27z"/>
		<path fill="#FFFFFF" d="M799.006,5.556h13.213v3.428h-9.384v3.554h8.258v3.429h-8.258v3.678h9.509v3.429h-13.338V5.556z"/>
		<path fill="#FFFFFF" d="M826.778,5.43h3.554l7.508,17.643h-4.029l-1.602-3.929h-7.407l-1.602,3.929h-3.929L826.778,5.43z
			 M830.833,15.74l-2.328-5.681l-2.327,5.681H830.833z"/>
		<path fill="#FFFFFF" d="M847.368,9.108h-5.33V5.556h14.515v3.553h-5.331v13.964h-3.854V9.108z"/>
		<path fill="#FFFFFF" d="M862.977,14.364v-0.051c0-4.979,3.93-9.059,9.335-9.059s9.283,4.029,9.283,9.009v0.05
			c0,4.98-3.929,9.059-9.334,9.059S862.977,19.344,862.977,14.364z M877.567,14.364v-0.051c0-3.003-2.202-5.505-5.306-5.505
			c-3.103,0-5.255,2.452-5.255,5.455v0.05c0,3.003,2.202,5.506,5.306,5.506C875.415,19.819,877.567,17.366,877.567,14.364z
			 M873.763,0l3.278,1.426l-3.403,2.503h-2.903L873.763,0z"/>
		<path fill="#FFFFFF" d="M890.022,5.556h3.554l8.208,10.785V5.556h3.804v17.517h-3.278l-8.483-11.136v11.136h-3.804V5.556z"/>
	</g>
</g>
<g>
	<g>
		<path fill="#FFFFFF" d="M1.328,14.364v-0.051c0-4.979,3.754-9.059,9.134-9.059c3.303,0,5.28,1.102,6.906,2.703l-2.452,2.827
			c-1.352-1.226-2.728-1.977-4.479-1.977c-2.953,0-5.08,2.452-5.08,5.455v0.05c0,3.003,2.077,5.506,5.08,5.506
			c2.002,0,3.229-0.801,4.604-2.053l2.453,2.478c-1.802,1.927-3.804,3.128-7.182,3.128C5.156,23.372,1.328,19.394,1.328,14.364z"/>
		<path fill="#FFFFFF" d="M24.294,14.364v-0.051c0-4.979,3.929-9.059,9.334-9.059s9.284,4.029,9.284,9.009v0.05
			c0,4.98-3.929,9.059-9.334,9.059S24.294,19.344,24.294,14.364z M38.883,14.364v-0.051c0-3.003-2.202-5.505-5.305-5.505
			s-5.255,2.452-5.255,5.455v0.05c0,3.003,2.202,5.506,5.305,5.506C36.732,19.819,38.883,17.366,38.883,14.364z"/>
		<path fill="#FFFFFF" d="M51.339,5.556h3.554l8.208,10.785V5.556h3.804v17.517h-3.278l-8.483-11.136v11.136h-3.804V5.556z"/>
		<path fill="#FFFFFF" d="M74.605,5.556h4.254l4.579,12.337l4.58-12.337h4.154L85.09,23.197h-3.403L74.605,5.556z"/>
		<path fill="#FFFFFF" d="M97.972,14.364v-0.051c0-4.979,3.929-9.059,9.334-9.059s9.284,4.029,9.284,9.009v0.05
			c0,4.98-3.929,9.059-9.334,9.059S97.972,19.344,97.972,14.364z M112.562,14.364v-0.051c0-3.003-2.202-5.505-5.305-5.505
			s-5.255,2.452-5.255,5.455v0.05c0,3.003,2.202,5.506,5.306,5.506C110.409,19.819,112.562,17.366,112.562,14.364z"/>
		<path fill="#FFFFFF" d="M124.241,14.364v-0.051c0-4.979,3.754-9.059,9.134-9.059c3.303,0,5.28,1.102,6.906,2.703l-2.452,2.827
			c-1.352-1.226-2.728-1.977-4.479-1.977c-2.953,0-5.08,2.452-5.08,5.455v0.05c0,3.003,2.077,5.506,5.08,5.506
			c2.002,0,3.229-0.801,4.604-2.053l2.453,2.478c-1.802,1.927-3.804,3.128-7.182,3.128
			C128.069,23.372,124.241,19.394,124.241,14.364z"/>
		<path fill="#FFFFFF" d="M154.489,5.43h3.553l7.508,17.643h-4.029l-1.602-3.929h-7.407l-1.602,3.929h-3.929L154.489,5.43z
			 M158.543,15.74l-2.328-5.681l-2.327,5.681H158.543z"/>
		<path fill="#FFFFFF" d="M175.079,9.108h-5.331V5.556h14.515v3.553h-5.331v13.964h-3.854V9.108z"/>
		<path fill="#FFFFFF" d="M190.688,14.364v-0.051c0-4.979,3.929-9.059,9.334-9.059s9.284,4.029,9.284,9.009v0.05
			c0,4.98-3.929,9.059-9.334,9.059S190.688,19.344,190.688,14.364z M205.277,14.364v-0.051c0-3.003-2.202-5.505-5.305-5.505
			s-5.255,2.452-5.255,5.455v0.05c0,3.003,2.202,5.506,5.306,5.506C203.125,19.819,205.277,17.366,205.277,14.364z"/>
		<path fill="#FFFFFF" d="M217.733,5.556h8.008c2.227,0,3.954,0.625,5.105,1.776c0.976,0.976,1.501,2.353,1.501,4.004v0.05
			c0,2.828-1.526,4.604-3.753,5.431l4.279,6.256h-4.504l-3.753-5.605h-3.028v5.605h-3.854V5.556z M225.49,14.063
			c1.877,0,2.953-1.001,2.953-2.478v-0.05c0-1.651-1.151-2.503-3.028-2.503h-3.829v5.03H225.49z"/>
		<path fill="#FFFFFF" d="M241,5.556h3.854v17.517H241V5.556z"/>
		<path fill="#FFFFFF" d="M260.24,5.43h3.553l7.508,17.643h-4.029l-1.602-3.929h-7.407l-1.602,3.929h-3.929L260.24,5.43z
			 M264.294,15.74l-2.328-5.681l-2.327,5.681H264.294z"/>
		<path fill="#FFFFFF" d="M291.51,5.556h6.832c5.505,0,9.309,3.778,9.309,8.708v0.05c0,4.93-3.804,8.759-9.309,8.759h-6.832V5.556z
			 M298.342,19.594c3.153,0,5.28-2.127,5.28-5.229v-0.051c0-3.103-2.127-5.28-5.28-5.28h-2.978v10.561H298.342z"/>
		<path fill="#FFFFFF" d="M316.078,5.556h13.213v3.428h-9.384v3.554h8.258v3.429h-8.258v3.678h9.509v3.429h-13.338V5.556z"/>
		<path fill="#FFFFFF" d="M350.527,5.556h3.854v17.517h-3.854V5.556z"/>
		<path fill="#FFFFFF" d="M363.762,5.556h6.832c5.505,0,9.309,3.778,9.309,8.708v0.05c0,4.93-3.804,8.759-9.309,8.759h-6.832V5.556z
			 M370.594,19.594c3.153,0,5.28-2.127,5.28-5.229v-0.051c0-3.103-2.127-5.28-5.28-5.28h-2.978v10.561H370.594z"/>
		<path fill="#FFFFFF" d="M388.33,5.556h13.213v3.428h-9.384v3.554h8.258v3.429h-8.258v3.678h9.509v3.429H388.33V5.556z"/>
		<path fill="#FFFFFF" d="M416.102,5.43h3.554l7.507,17.643h-4.029l-1.602-3.929h-7.407l-1.602,3.929h-3.929L416.102,5.43z
			 M420.155,15.74l-2.327-5.681l-2.327,5.681H420.155z"/>
		<path fill="#FFFFFF" d="M433.412,20.52l2.277-2.728c1.576,1.302,3.228,2.127,5.23,2.127c1.577,0,2.527-0.625,2.527-1.651v-0.05
			c0-0.977-0.601-1.477-3.528-2.228c-3.528-0.9-5.806-1.877-5.806-5.355v-0.05c0-3.178,2.552-5.28,6.131-5.28
			c2.553,0,4.73,0.801,6.506,2.228l-2.002,2.902c-1.551-1.076-3.078-1.727-4.554-1.727c-1.477,0-2.252,0.676-2.252,1.526v0.051
			c0,1.15,0.751,1.526,3.779,2.302c3.553,0.926,5.555,2.202,5.555,5.255v0.051c0,3.478-2.652,5.43-6.431,5.43
			C438.192,23.322,435.514,22.396,433.412,20.52z"/>
	</g>
</g>
<rect x="459.684" y="15.331" fill="#FFFFFF" width="289" height="3"/>
<g>
	<g>
		<circle fill="#F6ADCA" cx="558.608" cy="159.415" r="12.746"/>
		<circle fill="#F6ADCA" cx="600.032" cy="159.415" r="12.746"/>
	</g>
	<rect x="528.335" y="70.19" fill="#F26724" width="101.971" height="89.225"/>
	<rect x="545.862" y="87.905" fill="#FFDE11" width="25.493" height="25.493"/>
	<rect x="587.286" y="87.905" fill="#FFDE11" width="25.493" height="25.493"/>
</g>
<g>
	<g>
		<path fill="#FFFFFF" d="M4.22,225.148h19.123l29.668,75.647l29.528-75.647h18.701l-40.917,99.13H45.138L4.22,225.148z"/>
		<path fill="#FFFFFF" d="M130.773,274.643v-0.281c0-27.7,21.373-50.9,51.604-50.9c30.231,0,51.322,22.919,51.322,50.619v0.281
			c0,27.7-21.373,50.901-51.604,50.901C151.864,325.262,130.773,302.343,130.773,274.643z M215.56,274.643v-0.281
			c0-19.123-13.92-35.012-33.465-35.012c-19.545,0-33.184,15.607-33.184,34.73v0.281c0,19.123,13.92,35.012,33.465,35.012
			C201.921,309.373,215.56,293.766,215.56,274.643z"/>
		<path fill="#FFFFFF" d="M277.713,225.148h17.295v82.678h51.745v15.749h-69.04V225.148z"/>
		<path fill="#FFFFFF" d="M363.206,225.148h19.123l29.668,75.647l29.528-75.647h18.701l-40.917,99.13h-15.186L363.206,225.148z"/>
		<path fill="#FFFFFF" d="M500.164,225.148h72.977v15.467h-55.682v25.591h49.354v15.467h-49.354v26.435h56.385v15.467h-73.68
			V225.148z"/>
		<path fill="#FFFFFF" d="M617.435,225.148h43.87c12.374,0,22.076,3.655,28.403,9.842c5.203,5.343,8.155,12.655,8.155,21.232v0.281
			c0,16.17-9.702,25.872-23.481,29.81l26.575,37.262h-20.389l-24.185-34.309H634.73v34.309h-17.295V225.148z M660.041,273.939
			c12.373,0,20.247-6.468,20.247-16.451v-0.281c0-10.546-7.593-16.311-20.388-16.311h-25.17v33.043H660.041z"/>
		<path fill="#FFFFFF" d="M842.273,224.445h16.03l43.308,99.13h-18.279l-9.983-23.763h-46.542l-10.124,23.763h-17.717
			L842.273,224.445z M867.021,284.485l-17.014-39.371l-16.874,39.371H867.021z"/>
		<path fill="#FFFFFF" d="M12.656,377.148h17.295v82.678h51.745v15.749h-69.04V377.148z"/>
		<path fill="#FFFFFF" d="M161.001,376.445h16.03l43.308,99.13h-18.279l-9.983-23.764h-46.542l-10.124,23.764h-17.717
			L161.001,376.445z M185.748,436.485l-17.014-39.371l-16.874,39.371H185.748z"/>
		<path fill="#FFFFFF" d="M327.908,426.643v-0.281c0-27.981,20.951-50.9,50.76-50.9c18.139,0,29.106,6.327,38.527,15.326
			l-11.108,12.796c-7.874-7.312-16.311-12.233-27.56-12.233c-18.842,0-32.481,15.467-32.481,34.73v0.281
			c0,19.264,13.639,35.012,32.481,35.012c12.092,0,19.826-4.921,28.263-12.795l11.108,11.248
			c-10.265,10.687-21.513,17.437-39.933,17.437C349.28,477.263,327.908,454.905,327.908,426.643z"/>
		<path fill="#FFFFFF" d="M497.345,376.445h16.03l43.308,99.13h-18.279l-9.983-23.764h-46.542l-10.124,23.764h-17.717
			L497.345,376.445z M522.093,436.485l-17.014-39.371l-16.874,39.371H522.093z"/>
		<path fill="#FFFFFF" d="M599.994,377.148h17.295v82.678h51.745v15.749h-69.04V377.148z"/>
		<path fill="#FFFFFF" d="M713.467,377.148h17.295v82.678h51.744v15.749h-69.039V377.148z"/>
		<path fill="#FFFFFF" d="M826.941,377.148h72.977v15.467h-55.682v25.591h49.354v15.467h-49.354v26.435h56.385v15.468h-73.68
			V377.148z"/>
	</g>
</g>
<g>
	<g>
		<g>
			<polygon fill="#8DC641" points="248.748,112.834 270.808,76.991 292.869,112.834 			"/>
			<polygon fill="#8DC641" points="248.748,137.876 270.808,102.033 292.869,137.876 			"/>
			<polygon fill="#8DC641" points="248.748,165.361 270.808,129.518 292.869,165.361 			"/>
		</g>
		<g>
			<polygon fill="#8DC641" points="292.869,112.834 314.93,76.991 336.991,112.834 			"/>
			<polygon fill="#8DC641" points="292.869,137.876 314.93,102.033 336.991,137.876 			"/>
			<polygon fill="#8DC641" points="292.869,165.361 314.93,129.518 336.991,165.361 			"/>
		</g>
	</g>
</g>
<g>
	<g>
		<g>
			<circle fill="#F6ADCA" cx="148.139" cy="94.854" r="18.613"/>
			<circle fill="#F6ADCA" cx="174.462" cy="121.176" r="18.613"/>
			<circle fill="#F6ADCA" cx="121.817" cy="121.176" r="18.613"/>
			<circle fill="#F6ADCA" cx="148.139" cy="147.498" r="18.613"/>
		</g>
		<g>
			<circle fill="#F6ADCA" cx="129.527" cy="102.563" r="18.613"/>
			<circle fill="#F6ADCA" cx="166.752" cy="102.563" r="18.613"/>
			<circle fill="#F6ADCA" cx="129.527" cy="139.789" r="18.613"/>
			<circle fill="#F6ADCA" cx="166.752" cy="139.789" r="18.613"/>
		</g>
	</g>
	<circle fill="#F26724" cx="148.139" cy="121.176" r="18.613"/>
</g>
<polygon fill="#FFDE11" points="18.026,72.658 0,121.085 23.622,121.187 14.634,169.694 47.531,106.917 22.582,105.988 
	36.489,72.737 "/>
<g>
	<g>
		<g>
			<path fill="#FFDE11" d="M728.633,104.215l-7.236,4.52c-0.737,0.462-1.668,0.489-2.432,0.067l-9.021-4.961l7.407,42.318h4.016
				L728.633,104.215z"/>
			<path fill="#FFDE11" d="M719.319,69.783c-18.413,0-33.34,14.927-33.34,33.34c0,24.15,14.495,26.486,17.294,43.036h9.195
				l-8.173-46.43c-0.169-0.913,0.203-1.843,0.957-2.386c0.754-0.545,1.751-0.607,2.566-0.157l12.23,6.725l10.659-6.658
				c0.806-0.505,1.837-0.486,2.624,0.05c0.788,0.535,1.185,1.485,1.013,2.421l-8.094,46.435h9.116
				c2.799-16.55,17.294-18.886,17.294-43.036C752.659,84.71,737.732,69.783,719.319,69.783z"/>
		</g>
		<path fill="#FFDE11" d="M703.716,150.966c0.009,0.342,0.026,0.673,0.026,1.026v4.324h31.155v-4.324
			c0-0.353,0.017-0.684,0.026-1.026H703.716z"/>
		<path fill="#FFDE11" d="M703.795,161.123c0.283,6.362,5.489,11.446,11.921,11.446h7.205c6.432,0,11.639-5.083,11.922-11.446
			H703.795z"/>
	</g>
</g>
<g>
	
		<rect x="396.599" y="105.139" transform="matrix(0.7071 -0.7071 0.7071 0.7071 37.8819 340.1226)" fill="#F6ADCA" width="65.811" height="38.39"/>
	
		<rect x="396.599" y="117.478" transform="matrix(0.7071 -0.7071 0.7071 0.7071 37.8819 340.1226)" fill="#F26724" width="65.811" height="13.711"/>
	<polygon fill="#FFDE11" points="439.2,87.493 472.662,81.177 466.346,114.639 	"/>
	<g>
		<defs>
			<polygon id="SVGID_1_" points="439.2,87.493 472.662,81.177 466.346,114.639 			"/>
		</defs>
		<clipPath id="SVGID_2_">
			<use xlink:href="#SVGID_1_"  overflow="visible"/>
		</clipPath>
		
			<rect x="464.539" y="72.73" transform="matrix(-0.7071 0.7071 -0.7071 -0.7071 863.7031 -187.619)" clip-path="url(#SVGID_2_)" fill="#70569E" width="12.34" height="24.679"/>
	</g>
</g>
<g>
	<path fill="#F79421" d="M849.254,77l-28.275,79.051c-3.084,7.149,1.612,15.422,8.753,15.422h56.55
		c7.142,0,11.837-8.272,8.753-15.422L866.761,77C863.241,68.84,852.774,68.84,849.254,77z"/>
	<path fill="#F79421" d="M898.56,171.472h-81.104c-5.018,0-9.124-4.557-9.124-10.126v0c0-5.569,4.106-10.126,9.124-10.126h81.104
		c5.018,0,9.124,4.557,9.124,10.126v0C907.684,166.915,903.578,171.472,898.56,171.472z"/>
	<g>
		<defs>
			<path id="SVGID_3_" d="M849.254,77l-28.275,79.051c-3.084,7.149,1.612,15.422,8.753,15.422h56.55
				c7.142,0,11.837-8.272,8.753-15.422L866.761,77C863.241,68.84,852.774,68.84,849.254,77z"/>
		</defs>
		<clipPath id="SVGID_4_">
			<use xlink:href="#SVGID_3_"  overflow="visible"/>
		</clipPath>
		<path clip-path="url(#SVGID_4_)" fill="#FFDE11" d="M899.661,135.467h-83.131c-4.461,0-8.11-4.051-8.11-9.001v-4.501
			c0-4.951,3.65-9.001,8.11-9.001h83.131c4.461,0,8.11,4.051,8.11,9.001v4.501C907.771,131.417,904.121,135.467,899.661,135.467z"/>
	</g>
</g>
<g>
	<g>
		<g>
			<path fill="#F26724" d="M900.416,720.969"/>
			<path fill="#F26724" d="M1000.603,620.782"/>
		</g>
	</g>
</g>
</svg>
