<?xml version="1.0" encoding="UTF-8" standalone="no"?>
<!-- Generator: Adobe Illustrator 17.0.0, SVG Export Plug-In . SVG Version: 6.00 Build 0)  -->

<svg
   xmlns:dc="http://purl.org/dc/elements/1.1/"
   xmlns:cc="http://creativecommons.org/ns#"
   xmlns:rdf="http://www.w3.org/1999/02/22-rdf-syntax-ns#"
   xmlns:svg="http://www.w3.org/2000/svg"
   xmlns="http://www.w3.org/2000/svg"
   xmlns:xlink="http://www.w3.org/1999/xlink"
   xmlns:sodipodi="http://sodipodi.sourceforge.net/DTD/sodipodi-0.dtd"
   xmlns:inkscape="http://www.inkscape.org/namespaces/inkscape"
   version="1.1"
   id="Layer_1"
   x="0px"
   y="0px"
   viewBox="0 0 1256.469 232.02"
   enable-background="new 0 0 1256.65 330.569"
   xml:space="preserve"
   sodipodi:docname="volver_a_la_calle_logo_top_wide.svg"
   inkscape:version="0.92.3 (2405546, 2018-03-11)"><metadata
   id="metadata509"><rdf:RDF><cc:Work
       rdf:about=""><dc:format>image/svg+xml</dc:format><dc:type
         rdf:resource="http://purl.org/dc/dcmitype/StillImage" /><dc:title></dc:title></cc:Work></rdf:RDF></metadata><defs
   id="defs507" /><sodipodi:namedview
   pagecolor="#ffffff"
   bordercolor="#666666"
   borderopacity="1"
   objecttolerance="10"
   gridtolerance="10"
   guidetolerance="10"
   inkscape:pageopacity="0"
   inkscape:pageshadow="2"
   inkscape:window-width="1920"
   inkscape:window-height="1052"
   id="namedview505"
   showgrid="false"
   fit-margin-top="0"
   fit-margin-left="0"
   fit-margin-right="0"
   fit-margin-bottom="0"
   inkscape:zoom="0.27215215"
   inkscape:cx="628.325"
   inkscape:cy="66.7355"
   inkscape:window-x="0"
   inkscape:window-y="0"
   inkscape:window-maximized="1"
   inkscape:current-layer="Layer_1" />
<g
   id="g18">
	<g
   id="g16">
		<path
   d="m 1140.899,4.383 h 3.04 v 13.822 h -3.04 z"
   id="path2"
   inkscape:connector-curvature="0"
   style="fill:#ffffff" />
		<path
   d="m 1151.34,4.383 h 5.391 c 4.344,0 7.345,2.982 7.345,6.872 v 0.039 c 0,3.89 -3.001,6.911 -7.345,6.911 h -5.391 z m 5.391,11.077 c 2.487,0 4.166,-1.678 4.166,-4.126 v -0.04 c 0,-2.448 -1.679,-4.166 -4.166,-4.166 h -2.35 v 8.332 z"
   id="path4"
   inkscape:connector-curvature="0"
   style="fill:#ffffff" />
		<path
   d="m 1170.724,4.383 h 10.425 v 2.705 h -7.404 v 2.804 h 6.516 v 2.705 h -6.516 V 15.5 h 7.504 v 2.705 h -10.524 V 4.383 Z"
   id="path6"
   inkscape:connector-curvature="0"
   style="fill:#ffffff" />
		<path
   d="m 1192.635,4.285 h 2.805 l 5.923,13.92 h -3.179 l -1.264,-3.1 h -5.845 l -1.264,3.1 h -3.1 z m 3.199,8.135 -1.836,-4.482 -1.837,4.482 z"
   id="path8"
   inkscape:connector-curvature="0"
   style="fill:#ffffff" />
		<path
   d="m 1208.88,7.188 h -4.206 V 4.383 h 11.453 v 2.804 h -4.207 v 11.018 h -3.04 z"
   id="path10"
   inkscape:connector-curvature="0"
   style="fill:#ffffff" />
		<path
   d="m 1221.196,11.333 v -0.04 c 0,-3.929 3.101,-7.147 7.365,-7.147 4.266,0 7.326,3.179 7.326,7.108 v 0.039 c 0,3.93 -3.101,7.148 -7.365,7.148 -4.266,0.001 -7.326,-3.178 -7.326,-7.108 z m 11.512,0 v -0.04 c 0,-2.369 -1.737,-4.344 -4.186,-4.344 -2.449,0 -4.146,1.935 -4.146,4.305 v 0.039 c 0,2.37 1.737,4.344 4.186,4.344 2.448,10e-4 4.146,-1.934 4.146,-4.304 z M 1229.707,0 l 2.587,1.125 -2.686,1.975 h -2.291 z"
   id="path12"
   inkscape:connector-curvature="0"
   style="fill:#ffffff" />
		<path
   d="m 1242.535,4.383 h 2.804 l 6.477,8.51 v -8.51 h 3.001 v 13.822 h -2.587 l -6.693,-8.787 v 8.787 h -3.001 V 4.383 Z"
   id="path14"
   inkscape:connector-curvature="0"
   style="fill:#ffffff" />
	</g>
</g>
<g
   id="g60">
	<g
   id="g58">
		<path
   d="m 0.667,11.333 v -0.04 c 0,-3.929 2.962,-7.147 7.207,-7.147 2.606,0 4.166,0.869 5.45,2.132 L 11.389,8.51 C 10.323,7.543 9.237,6.95 7.855,6.95 c -2.33,0 -4.008,1.935 -4.008,4.305 v 0.039 c 0,2.37 1.639,4.344 4.008,4.344 1.58,0 2.547,-0.632 3.633,-1.619 l 1.936,1.955 c -1.422,1.521 -3.001,2.468 -5.667,2.468 -4.068,0 -7.09,-3.14 -7.09,-7.109 z"
   id="path20"
   inkscape:connector-curvature="0"
   style="fill:#ffffff" />
		<path
   d="m 18.788,11.333 v -0.04 c 0,-3.929 3.1,-7.147 7.365,-7.147 4.265,0 7.325,3.179 7.325,7.108 v 0.039 c 0,3.93 -3.1,7.148 -7.364,7.148 -4.265,0.001 -7.326,-3.178 -7.326,-7.108 z m 11.511,0 v -0.04 c 0,-2.369 -1.737,-4.344 -4.186,-4.344 -2.449,0 -4.146,1.935 -4.146,4.305 v 0.039 c 0,2.37 1.737,4.344 4.186,4.344 2.449,0 4.146,-1.934 4.146,-4.304 z"
   id="path22"
   inkscape:connector-curvature="0"
   style="fill:#ffffff" />
		<path
   d="m 40.126,4.383 h 2.804 l 6.476,8.51 v -8.51 h 3.001 V 18.205 H 49.821 L 43.127,9.418 v 8.787 h -3.001 z"
   id="path24"
   inkscape:connector-curvature="0"
   style="fill:#ffffff" />
		<path
   d="m 58.483,4.383 h 3.356 l 3.613,9.734 3.613,-9.734 h 3.278 l -5.587,13.92 H 64.07 Z"
   id="path26"
   inkscape:connector-curvature="0"
   style="fill:#ffffff" />
		<path
   d="m 76.919,11.333 v -0.04 c 0,-3.929 3.1,-7.147 7.365,-7.147 4.265,0 7.325,3.179 7.325,7.108 v 0.039 c 0,3.93 -3.1,7.148 -7.365,7.148 -4.265,0 -7.325,-3.178 -7.325,-7.108 z m 11.512,0 v -0.04 c 0,-2.369 -1.738,-4.344 -4.186,-4.344 -2.448,0 -4.146,1.935 -4.146,4.305 v 0.039 c 0,2.37 1.737,4.344 4.186,4.344 2.447,10e-4 4.146,-1.934 4.146,-4.304 z"
   id="path28"
   inkscape:connector-curvature="0"
   style="fill:#ffffff" />
		<path
   d="m 97.645,11.333 v -0.04 c 0,-3.929 2.962,-7.147 7.207,-7.147 2.606,0 4.166,0.869 5.449,2.132 l -1.935,2.231 c -1.066,-0.967 -2.152,-1.56 -3.534,-1.56 -2.33,0 -4.008,1.935 -4.008,4.305 v 0.039 c 0,2.37 1.639,4.344 4.008,4.344 1.58,0 2.547,-0.632 3.633,-1.619 l 1.935,1.955 c -1.421,1.521 -3.001,2.468 -5.667,2.468 -4.067,0.001 -7.088,-3.139 -7.088,-7.108 z"
   id="path30"
   inkscape:connector-curvature="0"
   style="fill:#ffffff" />
		<path
   d="m 121.511,4.285 h 2.804 l 5.923,13.92 h -3.179 l -1.264,-3.1 h -5.845 l -1.264,3.1 h -3.1 z m 3.198,8.135 -1.836,-4.482 -1.836,4.482 z"
   id="path32"
   inkscape:connector-curvature="0"
   style="fill:#ffffff" />
		<path
   d="m 137.755,7.188 h -4.206 V 4.383 h 11.452 v 2.804 h -4.206 v 11.018 h -3.041 V 7.188 Z"
   id="path34"
   inkscape:connector-curvature="0"
   style="fill:#ffffff" />
		<path
   d="m 150.071,11.333 v -0.04 c 0,-3.929 3.101,-7.147 7.365,-7.147 4.264,0 7.325,3.179 7.325,7.108 v 0.039 c 0,3.93 -3.1,7.148 -7.365,7.148 -4.265,0 -7.325,-3.178 -7.325,-7.108 z m 11.512,0 v -0.04 c 0,-2.369 -1.738,-4.344 -4.186,-4.344 -2.448,0 -4.146,1.935 -4.146,4.305 v 0.039 c 0,2.37 1.738,4.344 4.186,4.344 2.448,0 4.146,-1.934 4.146,-4.304 z"
   id="path36"
   inkscape:connector-curvature="0"
   style="fill:#ffffff" />
		<path
   d="m 171.409,4.383 h 6.318 c 1.757,0 3.12,0.494 4.028,1.402 0.77,0.771 1.185,1.856 1.185,3.159 v 0.04 c 0,2.231 -1.204,3.633 -2.962,4.285 l 3.377,4.937 H 179.8 l -2.961,-4.423 h -2.389 v 4.423 h -3.041 z m 6.121,6.714 c 1.481,0 2.33,-0.79 2.33,-1.955 V 9.103 c 0,-1.303 -0.908,-1.975 -2.389,-1.975 h -3.021 v 3.969 z"
   id="path38"
   inkscape:connector-curvature="0"
   style="fill:#ffffff" />
		<path
   d="m 189.766,4.383 h 3.041 v 13.822 h -3.041 z"
   id="path40"
   inkscape:connector-curvature="0"
   style="fill:#ffffff" />
		<path
   d="m 204.947,4.285 h 2.804 l 5.924,13.92 h -3.179 l -1.264,-3.1 h -5.844 l -1.264,3.1 h -3.1 z m 3.199,8.135 -1.836,-4.482 -1.836,4.482 z"
   id="path42"
   inkscape:connector-curvature="0"
   style="fill:#ffffff" />
		<path
   d="m 229.619,4.383 h 5.391 c 4.344,0 7.345,2.982 7.345,6.872 v 0.039 c 0,3.89 -3.001,6.911 -7.345,6.911 h -5.391 z m 5.39,11.077 c 2.488,0 4.166,-1.678 4.166,-4.126 v -0.04 c 0,-2.448 -1.678,-4.166 -4.166,-4.166 h -2.35 v 8.332 z"
   id="path44"
   inkscape:connector-curvature="0"
   style="fill:#ffffff" />
		<path
   d="m 249.002,4.383 h 10.425 v 2.705 h -7.404 v 2.804 h 6.516 v 2.705 h -6.516 V 15.5 h 7.503 v 2.705 h -10.524 z"
   id="path46"
   inkscape:connector-curvature="0"
   style="fill:#ffffff" />
		<path
   d="m 276.183,4.383 h 3.04 v 13.822 h -3.04 z"
   id="path48"
   inkscape:connector-curvature="0"
   style="fill:#ffffff" />
		<path
   d="m 286.625,4.383 h 5.391 c 4.344,0 7.345,2.982 7.345,6.872 v 0.039 c 0,3.89 -3.001,6.911 -7.345,6.911 h -5.391 z m 5.39,11.077 c 2.488,0 4.166,-1.678 4.166,-4.126 v -0.04 c 0,-2.448 -1.678,-4.166 -4.166,-4.166 h -2.35 v 8.332 z"
   id="path50"
   inkscape:connector-curvature="0"
   style="fill:#ffffff" />
		<path
   d="m 306.008,4.383 h 10.425 v 2.705 h -7.405 v 2.804 h 6.516 v 2.705 h -6.516 V 15.5 h 7.503 v 2.705 H 306.007 V 4.383 Z"
   id="path52"
   inkscape:connector-curvature="0"
   style="fill:#ffffff" />
		<path
   d="m 327.92,4.285 h 2.804 l 5.923,13.92 h -3.179 l -1.264,-3.1 h -5.845 l -1.264,3.1 h -3.1 z m 3.199,8.135 -1.836,-4.482 -1.836,4.482 z"
   id="path54"
   inkscape:connector-curvature="0"
   style="fill:#ffffff" />
		<path
   d="m 341.578,16.191 1.797,-2.152 c 1.244,1.027 2.547,1.678 4.127,1.678 1.244,0 1.994,-0.493 1.994,-1.303 v -0.04 c 0,-0.77 -0.474,-1.165 -2.784,-1.757 -2.784,-0.711 -4.581,-1.481 -4.581,-4.226 v -0.04 c 0,-2.507 2.014,-4.166 4.838,-4.166 2.014,0 3.731,0.632 5.134,1.757 l -1.58,2.29 C 349.299,7.383 348.094,6.87 346.93,6.87 c -1.165,0 -1.777,0.533 -1.777,1.205 v 0.04 c 0,0.908 0.592,1.204 2.981,1.816 2.804,0.73 4.383,1.737 4.383,4.146 v 0.04 c 0,2.745 -2.093,4.285 -5.074,4.285 -2.094,0 -4.207,-0.73 -5.865,-2.211 z"
   id="path56"
   inkscape:connector-curvature="0"
   style="fill:#ffffff" />
	</g>
</g>
<rect
   x="368.892"
   y="10.023"
   width="759.71802"
   height="2.3670001"
   id="rect62"
   style="fill:#ffffff" />
<g
   id="g92">
	<path
   d="m 0,56.624 h 12.773 l 19.816,50.528 19.723,-50.528 h 12.491 l -27.33,66.212 H 27.33 Z"
   id="path64"
   inkscape:connector-curvature="0"
   style="fill:#ffffff" />
	<path
   d="m 84.521,89.683 v -0.188 c 0,-18.502 14.275,-33.998 34.468,-33.998 20.193,0 34.28,15.309 34.28,33.811 v 0.188 c 0,18.502 -14.275,33.998 -34.468,33.998 -20.193,0 -34.28,-15.309 -34.28,-33.811 z m 56.632,0 v -0.188 c 0,-12.772 -9.298,-23.386 -22.353,-23.386 -13.055,0 -22.164,10.426 -22.164,23.199 v 0.188 c 0,12.773 9.298,23.386 22.353,23.386 13.053,-0.001 22.164,-10.426 22.164,-23.199 z"
   id="path66"
   inkscape:connector-curvature="0"
   style="fill:#ffffff" />
	<path
   d="m 182.657,56.624 h 11.552 v 55.224 h 34.562 v 10.519 h -46.114 z"
   id="path68"
   inkscape:connector-curvature="0"
   style="fill:#ffffff" />
	<path
   d="m 239.754,56.624 h 12.773 l 19.817,50.528 19.723,-50.528 h 12.491 l -27.33,66.212 h -10.144 z"
   id="path70"
   inkscape:connector-curvature="0"
   style="fill:#ffffff" />
	<path
   d="m 331.224,56.624 h 48.744 v 10.331 h -37.192 v 17.093 h 32.966 v 10.331 h -32.966 v 17.656 h 37.661 v 10.331 h -49.213 z"
   id="path72"
   inkscape:connector-curvature="0"
   style="fill:#ffffff" />
	<path
   d="m 409.546,56.624 h 29.302 c 8.265,0 14.745,2.442 18.971,6.574 3.476,3.569 5.447,8.453 5.447,14.182 v 0.188 c 0,10.801 -6.48,17.281 -15.684,19.911 l 17.75,24.888 H 451.714 L 435.562,99.45 h -14.463 v 22.916 H 409.547 V 56.624 Z m 28.457,32.589 c 8.265,0 13.524,-4.32 13.524,-10.988 v -0.188 c 0,-7.044 -5.072,-10.895 -13.618,-10.895 h -16.812 v 22.071 z"
   id="path74"
   inkscape:connector-curvature="0"
   style="fill:#ffffff" />
	<path
   d="m 559.71,56.154 h 10.707 l 28.927,66.212 h -12.209 l -6.668,-15.872 h -31.086 l -6.763,15.872 h -11.833 z m 16.53,40.103 -11.365,-26.297 -11.27,26.297 z"
   id="path76"
   inkscape:connector-curvature="0"
   style="fill:#ffffff" />
	<path
   d="m 661.225,56.624 h 11.552 v 55.224 h 34.562 v 10.519 H 661.226 V 56.624 Z"
   id="path78"
   inkscape:connector-curvature="0"
   style="fill:#ffffff" />
	<path
   d="m 760.301,56.154 h 10.707 l 28.927,66.212 h -12.209 l -6.669,-15.872 h -31.086 l -6.763,15.872 h -11.833 z m 16.531,40.103 -11.365,-26.297 -11.27,26.297 z"
   id="path80"
   inkscape:connector-curvature="0"
   style="fill:#ffffff" />
	<path
   d="m 871.77,89.683 v -0.188 c 0,-18.689 13.994,-33.998 33.904,-33.998 12.116,0 19.441,4.226 25.734,10.237 l -7.42,8.546 c -5.26,-4.884 -10.895,-8.171 -18.408,-8.171 -12.584,0 -21.694,10.331 -21.694,23.198 v 0.188 c 0,12.867 9.11,23.386 21.694,23.386 8.078,0 13.243,-3.287 18.878,-8.547 l 7.419,7.514 c -6.855,7.138 -14.369,11.646 -26.672,11.646 -19.159,-0.001 -33.435,-14.933 -33.435,-33.811 z"
   id="path82"
   inkscape:connector-curvature="0"
   style="fill:#ffffff" />
	<path
   d="m 984.935,56.154 h 10.706 l 28.928,66.212 h -12.209 l -6.669,-15.872 h -31.087 l -6.762,15.872 h -11.834 z m 16.53,40.103 L 990.1,69.96 978.83,96.257 Z"
   id="path84"
   inkscape:connector-curvature="0"
   style="fill:#ffffff" />
	<path
   d="m 1053.489,56.624 h 11.551 v 55.224 h 34.563 v 10.519 H 1053.49 V 56.624 Z"
   id="path86"
   inkscape:connector-curvature="0"
   style="fill:#ffffff" />
	<path
   d="m 1129.274,56.624 h 11.551 v 55.224 h 34.563 v 10.519 h -46.113 V 56.624 Z"
   id="path88"
   inkscape:connector-curvature="0"
   style="fill:#ffffff" />
	<path
   d="m 1205.059,56.624 h 48.742 v 10.331 h -37.191 v 17.093 h 32.966 v 10.331 h -32.966 v 17.656 h 37.662 v 10.331 h -49.213 z"
   id="path90"
   inkscape:connector-curvature="0"
   style="fill:#ffffff" />
</g>


<g
   id="g214">
	<g
   id="g116">
		<g
   id="g108">
			<circle
   cx="354.11301"
   cy="222.27"
   r="8.2869997"
   id="circle104"
   style="fill:#f6adca" />
			<circle
   cx="381.04401"
   cy="222.27"
   r="8.2869997"
   id="circle106"
   style="fill:#f6adca" />
		</g>
		<rect
   x="334.431"
   y="164.25999"
   width="66.295998"
   height="58.008999"
   id="rect110"
   style="fill:#f26724" />
		<rect
   x="345.82599"
   y="175.77699"
   width="16.573999"
   height="16.573999"
   id="rect112"
   style="fill:#ffde11" />
		<rect
   x="372.75699"
   y="175.77699"
   width="16.573999"
   height="16.573999"
   id="rect114"
   style="fill:#ffde11" />
	</g>
	<g
   id="g136">
		<g
   id="g134">
			<g
   id="g124">
				<polygon
   points="193.007,191.985 164.321,191.985 178.664,168.682 "
   id="polygon118"
   style="fill:#8dc641" />
				<polygon
   points="193.007,208.266 164.321,208.266 178.664,184.963 "
   id="polygon120"
   style="fill:#8dc641" />
				<polygon
   points="193.007,226.135 164.321,226.135 178.664,202.832 "
   id="polygon122"
   style="fill:#8dc641" />
			</g>
			<g
   id="g132">
				<polygon
   points="221.693,191.985 193.007,191.985 207.35,168.682 "
   id="polygon126"
   style="fill:#8dc641" />
				<polygon
   points="221.693,208.266 193.007,208.266 207.35,184.963 "
   id="polygon128"
   style="fill:#8dc641" />
				<polygon
   points="221.693,226.135 193.007,226.135 207.35,202.832 "
   id="polygon130"
   style="fill:#8dc641" />
			</g>
		</g>
	</g>
	<g
   id="g162">
		<g
   id="g158">
			<g
   id="g146">
				<circle
   cx="104.743"
   cy="180.295"
   r="12.101"
   id="circle138"
   style="fill:#f6adca" />
				<circle
   cx="121.856"
   cy="197.409"
   r="12.101"
   id="circle140"
   style="fill:#f6adca" />
				<circle
   cx="87.629997"
   cy="197.409"
   r="12.101"
   id="circle142"
   style="fill:#f6adca" />
				<circle
   cx="104.743"
   cy="214.522"
   r="12.101"
   id="circle144"
   style="fill:#f6adca" />
			</g>
			<g
   id="g156">
				<circle
   cx="92.641998"
   cy="185.308"
   r="12.101"
   id="circle148"
   style="fill:#f6adca" />
				<circle
   cx="116.844"
   cy="185.308"
   r="12.101"
   id="circle150"
   style="fill:#f6adca" />
				<circle
   cx="92.641998"
   cy="209.509"
   r="12.101"
   id="circle152"
   style="fill:#f6adca" />
				<circle
   cx="116.844"
   cy="209.509"
   r="12.101"
   id="circle154"
   style="fill:#f6adca" />
			</g>
		</g>
		<circle
   cx="104.743"
   cy="197.409"
   r="12.101"
   id="circle160"
   style="fill:#f26724" />
	</g>
	<polygon
   points="29.62,197.416 23.776,228.953 45.165,188.138 28.944,187.534 37.985,165.916 25.982,165.864 14.262,197.35 "
   id="polygon164"
   style="fill:#ffde11" />
	<g
   id="g178">
		<g
   id="g176">
			<g
   id="g170">
				<path
   d="m 458.822,186.382 -4.704,2.939 c -0.479,0.301 -1.084,0.318 -1.581,0.043 l -5.865,-3.225 4.816,27.513 h 2.611 z"
   id="path166"
   inkscape:connector-curvature="0"
   style="fill:#ffde11" />
				<path
   d="m 452.766,163.996 c -11.971,0 -21.676,9.705 -21.676,21.676 0,15.701 9.424,17.22 11.244,27.979 h 5.978 l -5.314,-30.187 c -0.11,-0.594 0.132,-1.198 0.622,-1.551 0.49,-0.354 1.138,-0.395 1.668,-0.102 l 7.951,4.372 6.93,-4.329 c 0.524,-0.328 1.194,-0.316 1.706,0.033 0.512,0.348 0.771,0.965 0.659,1.574 l -5.263,30.19 h 5.927 c 1.82,-10.76 11.244,-12.278 11.244,-27.979 0,-11.972 -9.704,-21.676 -21.676,-21.676 z"
   id="path168"
   inkscape:connector-curvature="0"
   style="fill:#ffde11" />
			</g>
			<path
   d="m 442.622,216.776 c 0.006,0.222 0.017,0.438 0.017,0.667 v 2.811 h 20.255 v -2.811 c 0,-0.229 0.011,-0.445 0.017,-0.667 z"
   id="path172"
   inkscape:connector-curvature="0"
   style="fill:#ffde11" />
			<path
   d="m 442.674,223.38 c 0.184,4.137 3.569,7.441 7.751,7.441 h 4.685 c 4.182,0 7.567,-3.305 7.751,-7.441 z"
   id="path174"
   inkscape:connector-curvature="0"
   style="fill:#ffde11" />
		</g>
	</g>
	<g
   id="g196">
		
			<rect
   x="254.61501"
   y="186.98199"
   transform="matrix(0.7071,-0.7071,0.7071,0.7071,-60.1996,253.5885)"
   width="42.786999"
   height="24.959"
   id="rect180"
   style="fill:#70569e" />
		
			<rect
   x="254.61501"
   y="195.005"
   transform="matrix(0.7071,-0.7071,0.7071,0.7071,-60.1996,253.5885)"
   width="42.786999"
   height="8.9139996"
   id="rect182"
   style="fill:#f6adca" />
		<polygon
   points="299.96,193.159 282.312,175.51 304.067,171.404 "
   id="polygon184"
   style="fill:#ffde11" />
		<g
   id="g194">
			<defs
   id="defs187">
				<polygon
   id="SVGID_1_"
   points="299.96,193.159 282.312,175.51 304.067,171.404 " />
			</defs>
			<clipPath
   id="SVGID_2_">
				<use
   xlink:href="#SVGID_1_"
   overflow="visible"
   id="use189"
   style="overflow:visible"
   x="0"
   y="0"
   width="100%"
   height="100%" />
			</clipPath>
			
				<rect
   x="298.78601"
   y="165.911"
   transform="matrix(-0.7071,0.7071,-0.7071,-0.7071,639.8965,82.814)"
   clip-path="url(#SVGID_2_)"
   width="8.0229998"
   height="16.045"
   id="rect192"
   style="fill:#70569e" />
		</g>
	</g>
	<g
   id="g212">
		<path
   d="m 531.412,168.688 -18.383,51.395 c -2.005,4.648 1.048,10.026 5.691,10.026 h 36.765 c 4.643,0 7.696,-5.378 5.691,-10.026 l -18.383,-51.395 c -2.287,-5.306 -9.092,-5.306 -11.381,0 z"
   id="path198"
   inkscape:connector-curvature="0"
   style="fill:#f79421" />
		<path
   d="m 563.468,230.108 h -52.729 c -3.263,0 -5.932,-2.963 -5.932,-6.584 v 0 c 0,-3.621 2.669,-6.584 5.932,-6.584 h 52.729 c 3.263,0 5.932,2.963 5.932,6.584 v 0 c 0,3.622 -2.67,6.584 -5.932,6.584 z"
   id="path200"
   inkscape:connector-curvature="0"
   style="fill:#f79421" />
		<g
   id="g210">
			<defs
   id="defs203">
				<path
   id="SVGID_3_"
   d="m 531.412,168.688 -18.383,51.395 c -2.005,4.648 1.048,10.026 5.691,10.026 h 36.765 c 4.643,0 7.696,-5.378 5.691,-10.026 l -18.383,-51.395 c -2.287,-5.306 -9.092,-5.306 -11.381,0 z"
   inkscape:connector-curvature="0" />
			</defs>
			<clipPath
   id="SVGID_4_">
				<use
   xlink:href="#SVGID_3_"
   overflow="visible"
   id="use205"
   style="overflow:visible"
   x="0"
   y="0"
   width="100%"
   height="100%" />
			</clipPath>
			<path
   clip-path="url(#SVGID_4_)"
   d="m 564.184,206.7 h -54.047 c -2.9,0 -5.273,-2.633 -5.273,-5.852 v -2.926 c 0,-3.219 2.373,-5.852 5.273,-5.852 h 54.047 c 2.9,0 5.273,2.633 5.273,5.852 v 2.926 c -10e-4,3.219 -2.373,5.852 -5.273,5.852 z"
   id="path208"
   inkscape:connector-curvature="0"
   style="fill:#ffde11" />
		</g>
	</g>
</g>
<polygon
   points="637.738,232.02 630.184,225.157 621.178,229.957 617.679,220.371 607.474,220.435 608.83,210.321 599.764,205.635 605.666,197.309 599.815,188.948 608.91,184.318 607.616,174.195 617.821,174.323 621.379,164.758 630.355,169.613 637.951,162.797 643.643,171.268 653.536,168.763 654.64,178.908 664.564,181.288 660.826,190.784 668.508,197.503 660.785,204.174 664.464,213.693 654.525,216.012 653.36,226.15 643.482,223.584 "
   id="polygon216"
   style="fill:#8dc641" />
<g
   id="g224">
	<path
   d="m 819.853,222.836 22.764,-22.764 c 1.061,-1.061 0.911,-2.948 -0.334,-4.193 0,0 -10.497,-6.252 -15.702,-11.458 -5.206,-5.206 -3.584,-1.848 -4.645,-0.787 l -22.764,22.764 c -1.061,1.061 -4.872,-1.013 0.787,4.645 5.659,5.658 15.123,12.037 15.123,12.037 1.936,0.779 3.71,0.817 4.771,-0.244 z"
   id="path218"
   inkscape:connector-curvature="0"
   style="fill:#f6adca" />
	<path
   d="m 797.582,208.667 v 0 c -2.178,-2.178 -2.442,-5.48 -0.585,-7.337 l 19.87,-19.87 c 1.857,-1.857 5.158,-1.594 7.337,0.585 v 0 l 2.377,2.377 -26.623,26.623 z"
   id="path220"
   inkscape:connector-curvature="0"
   style="fill:#f26724" />
	<path
   d="m 789.28,180.882 12.19,10.886 8.463,7.558 5.016,-5.016 -7.558,-8.463 -10.886,-12.19 c -2.422,-2.712 -6.301,-3.349 -8.438,-1.213 -2.137,2.137 -1.499,6.016 1.213,8.438 z m 2.046,-5.178 c 0.6,-0.6 1.573,-0.6 2.173,0 0.6,0.6 0.6,1.573 0,2.173 -0.6,0.6 -1.573,0.6 -2.173,0 -0.6,-0.601 -0.6,-1.573 0,-2.173 z"
   id="path222"
   inkscape:connector-curvature="0"
   style="fill:#f26724" />
</g>
<g
   id="g238">
	<rect
   x="1019.318"
   y="164.823"
   width="65.170998"
   height="65.170998"
   id="rect226"
   style="fill:#70569e" />
	<g
   id="g236">
		<rect
   x="1048.2629"
   y="191.907"
   width="2.2160001"
   height="13.178"
   id="rect228"
   style="fill:#ffffff" />
		<rect
   x="1048.2629"
   y="212.013"
   width="2.2160001"
   height="13.178"
   id="rect230"
   style="fill:#ffffff" />
		<rect
   x="1048.2629"
   y="170.911"
   width="2.2160001"
   height="13.178"
   id="rect232"
   style="fill:#ffffff" />
		<rect
   x="1053.328"
   y="166.062"
   width="2.2160001"
   height="62.694"
   id="rect234"
   style="fill:#ffde11" />
	</g>
</g>
<path
   d="m 1137.023,166.136 c -12.244,0 -22.17,9.926 -22.17,22.17 0,12.244 22.17,40.376 22.17,40.376 0,0 22.17,-28.132 22.17,-40.376 0,-12.245 -9.926,-22.17 -22.17,-22.17 z m 0,31.305 c -4.252,0 -7.698,-3.447 -7.698,-7.698 0,-4.252 3.447,-7.698 7.698,-7.698 4.252,0 7.698,3.447 7.698,7.698 10e-4,4.252 -3.446,7.698 -7.698,7.698 z"
   id="path240"
   inkscape:connector-curvature="0"
   style="fill:#8dc641" />

<g
   id="g250">
	<rect
   x="698.87201"
   y="193.811"
   width="57.553001"
   height="35.971001"
   id="rect244"
   style="fill:#ffde11" />
	<polygon
   points="756.425,193.811 698.872,193.811 727.648,165.035 "
   id="polygon246"
   style="fill:#f26724" />
	<rect
   x="720.45398"
   y="201.005"
   width="14.388"
   height="14.388"
   id="rect248"
   style="fill:#70569e" />
</g>
<g
   id="g256">
	<polygon
   points="906.708,230.428 906.708,164.389 939.728,197.409 "
   id="polygon252"
   style="fill:#f79421" />
	<rect
   x="873.68799"
   y="186.40199"
   width="41.429001"
   height="22.013"
   id="rect254"
   style="fill:#f79421" />
</g>

<g
   id="g278">
	<defs
   id="defs265">
		<rect
   id="SVGID_5_"
   x="1189.557"
   y="163.953"
   width="66.912003"
   height="66.912003" />
	</defs>
	<clipPath
   id="SVGID_6_">
		<use
   xlink:href="#SVGID_5_"
   overflow="visible"
   id="use267"
   style="overflow:visible"
   x="0"
   y="0"
   width="100%"
   height="100%" />
	</clipPath>
	<g
   clip-path="url(#SVGID_6_)"
   id="g276">
		<circle
   cx="1256.469"
   cy="230.752"
   r="66.912003"
   id="circle270"
   style="fill:#f26724" />
		<path
   d="m 1256.469,275.36 c -24.597,0 -44.608,-20.011 -44.608,-44.608 0,-24.597 20.011,-44.608 44.608,-44.608 24.597,0 44.608,20.011 44.608,44.608 0,24.597 -20.011,44.608 -44.608,44.608 z"
   id="path272"
   inkscape:connector-curvature="0"
   style="fill:#f6adca" />
		<path
   d="m 1256.469,253.056 c -12.298,0 -22.304,-10.005 -22.304,-22.304 0,-12.298 10.005,-22.304 22.304,-22.304 12.299,0 22.304,10.005 22.304,22.304 0,12.298 -10.006,22.304 -22.304,22.304 z"
   id="path274"
   inkscape:connector-curvature="0"
   style="fill:#70569e" />
	</g>
</g>
<g
   id="g288">
	<g
   id="g286">
		<circle
   cx="979.52301"
   cy="216.27"
   r="9.4309998"
   id="circle280"
   style="fill:#8dc641" />
		<circle
   cx="979.52301"
   cy="197.409"
   r="9.4309998"
   id="circle282"
   style="fill:#ffde11" />
		<circle
   cx="979.52301"
   cy="178.547"
   r="9.4309998"
   id="circle284"
   style="fill:#f26724" />
	</g>
</g>






</svg>