<?xml version="1.0" encoding="UTF-8" standalone="no"?>
<!-- Generator: Adobe Illustrator 17.0.0, SVG Export Plug-In . SVG Version: 6.00 Build 0)  -->

<svg
   xmlns:dc="http://purl.org/dc/elements/1.1/"
   xmlns:cc="http://creativecommons.org/ns#"
   xmlns:rdf="http://www.w3.org/1999/02/22-rdf-syntax-ns#"
   xmlns:svg="http://www.w3.org/2000/svg"
   xmlns="http://www.w3.org/2000/svg"
   xmlns:sodipodi="http://sodipodi.sourceforge.net/DTD/sodipodi-0.dtd"
   xmlns:inkscape="http://www.inkscape.org/namespaces/inkscape"
   version="1.1"
   id="Layer_1"
   x="0px"
   y="0px"
   viewBox="0 0 1253.5689 64.938972"
   enable-background="new 0 0 1256.65 330.569"
   xml:space="preserve"
   sodipodi:docname="volver_a_la_calle_logo_bottom_wide.svg"
   inkscape:version="0.92.3 (2405546, 2018-03-11)"><metadata
   id="metadata509"><rdf:RDF><cc:Work
       rdf:about=""><dc:format>image/svg+xml</dc:format><dc:type
         rdf:resource="http://purl.org/dc/dcmitype/StillImage" /><dc:title></dc:title></cc:Work></rdf:RDF></metadata><defs
   id="defs507" /><sodipodi:namedview
   pagecolor="#ffffff"
   bordercolor="#666666"
   borderopacity="1"
   objecttolerance="10"
   gridtolerance="10"
   guidetolerance="10"
   inkscape:pageopacity="0"
   inkscape:pageshadow="2"
   inkscape:window-width="1920"
   inkscape:window-height="1052"
   id="namedview505"
   showgrid="false"
   inkscape:zoom="0.27215215"
   inkscape:cx="625.244"
   inkscape:cy="66.736471"
   inkscape:window-x="0"
   inkscape:window-y="0"
   inkscape:window-maximized="1"
   inkscape:current-layer="Layer_1"
   fit-margin-top="0"
   fit-margin-left="0"
   fit-margin-right="0"
   fit-margin-bottom="0" />




<g
   id="g96"
   transform="translate(-3.0810001,-265.631)">
	<path
   d="m 741.73,302.293 c -4.674,10e-4 -9.348,-0.009 -14.021,0.023 -0.35,0.002 -0.926,0.233 -1.011,0.487 -0.555,1.662 -1.884,2.262 -3.393,2.615 -1.165,0.273 -2.346,0.489 -3.529,0.671 -3.966,0.611 -5.603,3.041 -6.168,6.81 -0.388,2.585 -0.525,5.239 -1.223,7.736 -0.798,2.855 -2.622,5.079 -5.702,5.839 -5.089,1.255 -11.968,-1.89 -11.085,-9.509 0.395,-3.407 1.853,-6.282 4.468,-8.566 2.548,-2.225 3.657,-5.234 4.005,-8.457 0.504,-4.665 -1.031,-8.698 -4.389,-12.014 -2.58,-2.548 -4.325,-5.516 -4.29,-9.254 0.04,-4.278 2.783,-6.885 6.744,-8.097 4.952,-1.515 8.905,1.233 10.267,5.672 0.565,1.844 0.606,3.843 0.992,5.75 0.369,1.823 0.659,3.709 1.376,5.401 0.938,2.212 3.099,2.907 5.302,3.326 1.251,0.239 2.524,0.388 3.756,0.702 1.277,0.326 2.306,0.995 2.799,2.362 0.113,0.314 0.787,0.602 1.205,0.604 6.746,0.039 1.75,0.032 8.497,0.034 2.526,10e-4 5.051,-0.005 7.576,0.002 1.425,0.004 1.62,0.199 1.614,1.605 -0.007,1.695 -0.04,3.391 -0.033,5.086 0.004,0.872 -0.401,1.183 -1.252,1.179 -4.751,-0.019 2.244,-0.008 -2.505,-0.007 z m -42.159,15.236 c -0.022,2.714 2.182,5.003 4.825,5.011 2.497,0.009 4.876,-2.36 4.902,-4.88 0.028,-2.678 -2.235,-4.985 -4.893,-4.99 -2.688,-0.004 -4.811,2.13 -4.834,4.859 z m 5.066,-43.995 c -2.202,-0.168 -5.049,1.921 -4.881,5.157 0.129,2.478 2.456,4.743 5.075,4.713 2.59,-0.03 4.71,-2.765 4.666,-4.896 -0.065,-3.138 -2.547,-5.118 -4.86,-4.974 z"
   id="path94"
   inkscape:connector-curvature="0"
   style="fill:#f79421" />
</g>
<g
   id="g102"
   transform="translate(-3.0810001,-265.631)">
	<rect
   x="627.55798"
   y="307.75201"
   width="14.573"
   height="22.65"
   id="rect98"
   style="fill:#70569e" />
	<path
   d="m 661.412,289.402 c 0,-6.709 -5.439,-12.148 -12.148,-12.148 -0.797,0 -1.575,0.079 -2.329,0.226 -0.588,-6.16 -5.776,-10.979 -12.091,-10.979 -6.315,0 -11.502,4.818 -12.091,10.979 -0.754,-0.146 -1.532,-0.226 -2.329,-0.226 -6.709,0 -12.148,5.439 -12.148,12.148 0,4.912 2.917,9.14 7.113,11.055 -1.183,1.874 -1.87,4.093 -1.87,6.473 0,6.709 5.439,12.148 12.148,12.148 3.38,0 6.436,-1.381 8.638,-3.608 2.202,2.227 5.258,3.608 8.638,3.608 6.709,0 12.148,-5.439 12.148,-12.148 0,-2.231 -0.604,-4.319 -1.653,-6.116 4.653,-1.703 7.974,-6.17 7.974,-11.412 z"
   id="path100"
   inkscape:connector-curvature="0"
   style="fill:#70569e" />
</g>





<path
   d="m 447.357,1.547 c -12.244,0 -22.17,9.926 -22.17,22.17 0,12.244 22.17,40.376 22.17,40.376 0,0 22.17,-28.132 22.17,-40.376 0,-12.244 -9.926,-22.17 -22.17,-22.17 z m 0,31.306 c -4.252,0 -7.698,-3.447 -7.698,-7.698 0,-4.252 3.447,-7.698 7.698,-7.698 4.251,0 7.698,3.447 7.698,7.698 0,4.251 -3.446,7.698 -7.698,7.698 z"
   id="path242"
   inkscape:connector-curvature="0"
   style="fill:#f26724" />


<g
   id="g262"
   transform="translate(-3.0810001,-265.631)">
	<polygon
   points="130.898,322.786 84.201,276.089 130.898,276.089 "
   id="polygon258"
   style="fill:#70569e" />
	
		<rect
   x="78.134003"
   y="297.13199"
   transform="matrix(-0.7071,0.7071,-0.7071,-0.7071,386.6318,456.129)"
   width="41.429001"
   height="22.013"
   id="rect260"
   style="fill:#70569e" />
</g>


<g
   id="g312"
   transform="translate(-3.0810001,-265.631)">
	<g
   id="g310">
		<circle
   cx="533.40997"
   cy="291.32101"
   r="13.97"
   id="circle290"
   style="fill:#f6adca" />
		<circle
   cx="552.13202"
   cy="291.32101"
   r="13.97"
   id="circle292"
   style="fill:#f6adca" />
		<g
   id="g300">
			<circle
   cx="516.89801"
   cy="288.31201"
   r="13.97"
   id="circle294"
   style="fill:#f6adca" />
			<circle
   cx="541.44"
   cy="282.858"
   r="13.97"
   id="circle296"
   style="fill:#f6adca" />
			<circle
   cx="565.98199"
   cy="288.31201"
   r="13.97"
   id="circle298"
   style="fill:#f6adca" />
		</g>
		<g
   id="g308">
			<circle
   cx="517.34198"
   cy="308.59"
   r="13.97"
   id="circle302"
   style="fill:#f6adca" />
			<circle
   cx="541.88397"
   cy="314.04401"
   r="13.97"
   id="circle304"
   style="fill:#f6adca" />
			<circle
   cx="566.42603"
   cy="308.59"
   r="13.97"
   id="circle306"
   style="fill:#f6adca" />
		</g>
	</g>
</g>
<g
   id="g320"
   transform="translate(-3.0810001,-265.631)">
	<g
   id="g318">
		<rect
   x="3.0810001"
   y="291.763"
   width="53.500999"
   height="13.375"
   id="rect314"
   style="fill:#f79421" />
		<rect
   x="23.143999"
   y="271.70099"
   width="13.375"
   height="53.500999"
   id="rect316"
   style="fill:#f79421" />
	</g>
</g>
<polygon
   points="223.343,289.772 202.841,304.703 210.651,328.832 190.116,313.948 169.581,328.832 177.391,304.703 156.889,289.772 182.251,289.743 190.116,265.631 197.981,289.743 "
   id="polygon322"
   style="fill:#f26724"
   transform="translate(-3.0810001,-265.631)" />
<path
   d="m 383.409,46.991 h -15.273 l -16.896,15.746 0.643,-15.746 c -8.314,0 -15.116,-6.802 -15.116,-15.116 V 18.019 c 0,-8.314 6.802,-15.116 15.116,-15.116 h 31.526 c 8.314,0 15.116,6.802 15.116,15.116 v 13.856 c 0,8.314 -6.802,15.116 -15.116,15.116 z"
   id="path324"
   inkscape:connector-curvature="0"
   style="fill:#8dc641" />
<path
   d="m 292.786,2.636 c -16.1,0 -16.114,15.576 -16.114,15.576 0,0 0.013,-15.576 -16.087,-15.576 -8.892,0 -16.1,7.208 -16.1,16.1 0,21.411 27.072,44.267 32.201,44.267 5.128,0 32.201,-21.722 32.201,-44.267 -10e-4,-8.891 -7.209,-16.1 -16.101,-16.1 z"
   id="path326"
   inkscape:connector-curvature="0"
   style="fill:#ffde11" />
<g
   id="g502"
   transform="translate(-3.0810001,-265.631)">
	<g
   id="g336">
		<path
   d="m 855.201,296.424 v -6.125 h 6.853 c 1.996,0 4.374,0.513 4.374,2.964 v 0.097 c 0,2.032 -1.636,3.063 -4.862,3.063 h -6.365 z m 8.36,13.703 h -8.36 v -6.415 h 8.116 c 3.321,0 5.006,1.062 5.006,3.159 v 0.097 c 0,2.097 -1.602,3.159 -4.762,3.159 m 7.534,-10.785 c 2.581,-1.748 3.838,-4.127 3.838,-7.244 V 292 c 0,-2.472 -0.814,-4.488 -2.49,-6.162 -2.073,-2.073 -5.279,-3.169 -9.27,-3.169 h -16.33 l 0.002,35.088 h 16.716 c 8.431,0 13.267,-3.596 13.267,-9.866 v -0.096 c 0,-4.032 -1.778,-6.673 -5.733,-8.453"
   id="path328"
   inkscape:connector-curvature="0"
   style="fill:#ffffff" />
		<path
   d="m 914.654,300.212 v 0.097 c 0,5.756 -3.907,9.624 -9.72,9.624 h -5.25 v -19.44 h 5.25 c 5.814,0.001 9.72,3.906 9.72,9.719 m -9.72,-17.543 h -13.803 l 0.009,35.09 13.795,-0.002 c 5.252,0 10.016,-1.799 13.419,-5.064 3.35,-3.215 5.194,-7.648 5.194,-12.481 v -0.098 c -10e-4,-10.108 -7.83,-17.445 -18.614,-17.445"
   id="path330"
   inkscape:connector-curvature="0"
   style="fill:#ffffff" />
		<path
   d="m 883.463,282.613 c 2.362,0 4.278,1.915 4.278,4.276 v 30.875 h -8.553 v -35.152 z"
   id="path332"
   inkscape:connector-curvature="0"
   style="fill:#ffffff" />
		<path
   d="m 822.776,295.349 c -1.225,-0.05 -1.443,0.689 0.395,1.078 2.596,0.548 0.829,-1.026 -0.395,-1.078 m -3.842,-2.883 c -3.681,-1.192 -1.259,1.754 0.493,1.948 1.75,0.194 2.115,-1.103 -0.493,-1.948 m -10.838,-2.665 c -1.072,0.563 0.847,3.055 5.758,3.189 4.913,0.135 -1.419,-5.467 -5.758,-3.189 m 9.439,36.075 c 1.544,-2.874 4.907,-7.064 12.096,-15.511 10.751,-12.633 -21.109,-8.391 -26.568,-17.951 -4.497,-7.878 12.238,-13.539 22.35,-17.922 6.573,4.332 11.343,11.34 12.571,19.743 2.102,14.357 -6.859,27.776 -20.449,31.641 m -6.395,-20.363 c -4.512,7.305 9.981,7.415 3.276,21.065 -0.197,0.032 -0.392,0.07 -0.592,0.099 -15.631,2.288 -30.156,-8.528 -32.445,-24.159 -1.083,-7.412 0.782,-14.575 4.705,-20.301 -0.73,16.494 29.269,16.476 25.056,23.296"
   id="path334"
   inkscape:connector-curvature="0"
   style="fill:#ffffff" />
	</g>
	<g
   id="g500">
		<g
   id="g394">
			<g
   id="g392">
				<g
   id="g368">
					<path
   d="m 1002.977,291.84 c 0.824,0.668 1.34,1.578 1.547,2.73 h -2.575 c -0.104,-0.507 -0.34,-0.907 -0.708,-1.201 -0.369,-0.294 -0.836,-0.44 -1.4,-0.44 -0.645,0 -1.184,0.239 -1.615,0.717 -0.433,0.479 -0.648,1.179 -0.648,2.1 0,0.922 0.216,1.622 0.648,2.1 0.432,0.479 0.971,0.718 1.615,0.718 0.564,0 1.031,-0.147 1.4,-0.441 0.368,-0.293 0.604,-0.693 0.708,-1.201 h 2.575 c -0.207,1.152 -0.723,2.063 -1.547,2.73 -0.824,0.669 -1.852,1.003 -3.084,1.003 -0.934,0 -1.764,-0.199 -2.489,-0.597 -0.725,-0.398 -1.29,-0.965 -1.693,-1.702 -0.403,-0.737 -0.604,-1.606 -0.604,-2.609 0,-1.002 0.201,-1.875 0.604,-2.618 0.403,-0.742 0.968,-1.311 1.693,-1.702 0.725,-0.391 1.556,-0.587 2.489,-0.587 1.232,-0.002 2.26,0.332 3.084,1 z"
   id="path338"
   inkscape:connector-curvature="0"
   style="fill:#ffffff" />
					<path
   d="m 1006.763,287.252 c 0.276,-0.248 0.64,-0.372 1.089,-0.372 0.449,0 0.813,0.124 1.089,0.372 0.276,0.248 0.415,0.567 0.415,0.959 0,0.38 -0.139,0.694 -0.415,0.941 -0.276,0.248 -0.64,0.372 -1.089,0.372 -0.449,0 -0.813,-0.124 -1.089,-0.372 -0.276,-0.247 -0.415,-0.562 -0.415,-0.941 0,-0.392 0.139,-0.711 0.415,-0.959 z m 2.298,3.707 v 9.573 h -2.436 v -9.573 z"
   id="path340"
   inkscape:connector-curvature="0"
   style="fill:#ffffff" />
					<path
   d="m 1020.905,290.959 v 9.573 h -2.438 v -1.936 c -0.254,0.646 -0.671,1.149 -1.253,1.513 -0.581,0.362 -1.253,0.544 -2.013,0.544 -1.106,0 -1.988,-0.363 -2.645,-1.089 -0.657,-0.726 -0.984,-1.739 -0.984,-3.041 v -5.564 h 2.419 v 5.287 c 0,0.761 0.196,1.352 0.587,1.771 0.393,0.421 0.922,0.631 1.59,0.631 0.703,0 1.262,-0.225 1.677,-0.674 0.415,-0.449 0.622,-1.094 0.622,-1.936 v -5.08 h 2.438 z"
   id="path342"
   inkscape:connector-curvature="0"
   style="fill:#ffffff" />
					<path
   d="m 1029.411,291.408 c 0.57,0.38 0.982,0.893 1.236,1.537 v -5.201 h 2.42 v 12.788 h -2.42 v -2.005 c -0.254,0.646 -0.666,1.161 -1.236,1.547 -0.57,0.387 -1.258,0.579 -2.064,0.579 -0.806,0 -1.532,-0.196 -2.178,-0.588 -0.645,-0.392 -1.148,-0.959 -1.512,-1.702 -0.364,-0.743 -0.545,-1.615 -0.545,-2.618 0,-1.002 0.182,-1.875 0.545,-2.618 0.363,-0.742 0.867,-1.311 1.512,-1.702 0.646,-0.392 1.371,-0.587 2.178,-0.587 0.807,0 1.493,0.189 2.064,0.57 z m -3.136,2.298 c -0.461,0.495 -0.691,1.175 -0.691,2.039 0,0.864 0.23,1.541 0.691,2.03 0.46,0.49 1.071,0.734 1.831,0.734 0.738,0 1.346,-0.25 1.824,-0.751 0.478,-0.501 0.717,-1.173 0.717,-2.014 0,-0.853 -0.239,-1.529 -0.717,-2.03 -0.479,-0.501 -1.086,-0.752 -1.824,-0.752 -0.76,0.001 -1.371,0.249 -1.831,0.744 z"
   id="path344"
   inkscape:connector-curvature="0"
   style="fill:#ffffff" />
					<path
   d="m 1041.583,291.408 c 0.576,0.38 0.984,0.893 1.227,1.537 v -1.986 h 2.42 v 9.573 h -2.42 v -2.005 c -0.242,0.646 -0.65,1.161 -1.227,1.547 -0.576,0.387 -1.268,0.579 -2.074,0.579 -0.806,0 -1.531,-0.196 -2.177,-0.588 -0.646,-0.392 -1.149,-0.959 -1.513,-1.702 -0.362,-0.743 -0.544,-1.615 -0.544,-2.618 0,-1.002 0.182,-1.875 0.544,-2.618 0.363,-0.742 0.867,-1.311 1.513,-1.702 0.646,-0.391 1.37,-0.587 2.177,-0.587 0.807,0 1.497,0.189 2.074,0.57 z m -3.145,2.298 c -0.461,0.495 -0.691,1.175 -0.691,2.039 0,0.864 0.23,1.541 0.691,2.03 0.46,0.49 1.07,0.734 1.831,0.734 0.737,0 1.345,-0.25 1.823,-0.751 0.478,-0.501 0.717,-1.173 0.717,-2.014 0,-0.853 -0.238,-1.529 -0.717,-2.03 -0.479,-0.501 -1.086,-0.752 -1.823,-0.752 -0.761,0.001 -1.371,0.249 -1.831,0.744 z"
   id="path346"
   inkscape:connector-curvature="0"
   style="fill:#ffffff" />
					<path
   d="m 1053.736,291.408 c 0.57,0.38 0.982,0.893 1.235,1.537 v -5.201 h 2.42 v 12.788 h -2.42 v -2.005 c -0.253,0.646 -0.665,1.161 -1.235,1.547 -0.57,0.387 -1.259,0.579 -2.065,0.579 -0.806,0 -1.531,-0.196 -2.177,-0.588 -0.646,-0.392 -1.149,-0.959 -1.513,-1.702 -0.362,-0.743 -0.544,-1.615 -0.544,-2.618 0,-1.002 0.182,-1.875 0.544,-2.618 0.363,-0.742 0.867,-1.311 1.513,-1.702 0.646,-0.391 1.37,-0.587 2.177,-0.587 0.807,0 1.495,0.189 2.065,0.57 z m -3.136,2.298 c -0.461,0.495 -0.691,1.175 -0.691,2.039 0,0.864 0.23,1.541 0.691,2.03 0.46,0.49 1.07,0.734 1.831,0.734 0.737,0 1.345,-0.25 1.823,-0.751 0.478,-0.501 0.717,-1.173 0.717,-2.014 0,-0.853 -0.238,-1.529 -0.717,-2.03 -0.479,-0.501 -1.086,-0.752 -1.823,-0.752 -0.761,0.001 -1.371,0.249 -1.831,0.744 z"
   id="path348"
   inkscape:connector-curvature="0"
   style="fill:#ffffff" />
					<path
   d="m 1069,296.212 h -7.017 c 0.034,0.853 0.265,1.48 0.691,1.884 0.426,0.403 0.956,0.604 1.59,0.604 0.564,0 1.034,-0.138 1.408,-0.415 0.374,-0.275 0.614,-0.65 0.718,-1.123 h 2.574 c -0.127,0.669 -0.397,1.268 -0.813,1.798 -0.414,0.53 -0.947,0.944 -1.598,1.244 -0.651,0.3 -1.374,0.449 -2.169,0.449 -0.934,0 -1.763,-0.199 -2.489,-0.597 -0.725,-0.397 -1.29,-0.965 -1.693,-1.702 -0.402,-0.737 -0.604,-1.606 -0.604,-2.609 0,-1.002 0.202,-1.875 0.604,-2.618 0.403,-0.742 0.969,-1.311 1.693,-1.702 0.727,-0.392 1.556,-0.587 2.489,-0.587 0.944,0 1.771,0.195 2.479,0.587 0.708,0.392 1.256,0.931 1.642,1.616 0.386,0.685 0.579,1.466 0.579,2.342 0,0.242 -0.027,0.517 -0.084,0.829 z m -2.981,-2.852 c -0.444,-0.403 -0.987,-0.604 -1.633,-0.604 -0.657,0 -1.21,0.201 -1.659,0.604 -0.449,0.403 -0.697,0.997 -0.743,1.78 h 4.648 c 0.035,-0.783 -0.17,-1.376 -0.613,-1.78 z"
   id="path350"
   inkscape:connector-curvature="0"
   style="fill:#ffffff" />
					<path
   d="m 1077.256,291.719 c 0.703,0.588 1.141,1.371 1.314,2.351 h -2.281 c -0.093,-0.461 -0.3,-0.829 -0.623,-1.106 -0.322,-0.276 -0.742,-0.414 -1.261,-0.414 -0.415,0 -0.737,0.098 -0.968,0.293 -0.23,0.196 -0.346,0.461 -0.346,0.795 0,0.266 0.092,0.479 0.276,0.64 0.184,0.161 0.415,0.288 0.691,0.38 0.276,0.093 0.674,0.202 1.192,0.329 0.726,0.161 1.316,0.331 1.771,0.51 0.455,0.179 0.847,0.461 1.175,0.847 0.329,0.386 0.493,0.907 0.493,1.563 0,0.818 -0.32,1.48 -0.959,1.987 -0.641,0.508 -1.502,0.761 -2.584,0.761 -1.244,0 -2.241,-0.279 -2.99,-0.838 -0.748,-0.56 -1.203,-1.356 -1.365,-2.394 h 2.334 c 0.057,0.473 0.264,0.844 0.621,1.114 0.357,0.27 0.824,0.406 1.4,0.406 0.414,0 0.731,-0.101 0.95,-0.303 0.219,-0.201 0.328,-0.464 0.328,-0.786 0,-0.276 -0.095,-0.501 -0.284,-0.674 -0.191,-0.173 -0.428,-0.305 -0.709,-0.397 -0.283,-0.092 -0.684,-0.201 -1.201,-0.328 -0.715,-0.161 -1.293,-0.325 -1.736,-0.493 -0.444,-0.166 -0.824,-0.435 -1.141,-0.803 -0.317,-0.369 -0.476,-0.876 -0.476,-1.521 0,-0.829 0.316,-1.503 0.95,-2.021 0.634,-0.518 1.51,-0.777 2.627,-0.777 1.168,-0.002 2.1,0.291 2.802,0.879 z"
   id="path352"
   inkscape:connector-curvature="0"
   style="fill:#ffffff" />
					<path
   d="m 1002.977,308.977 c 0.824,0.668 1.34,1.578 1.547,2.73 h -2.575 c -0.104,-0.507 -0.34,-0.907 -0.708,-1.201 -0.369,-0.294 -0.836,-0.441 -1.4,-0.441 -0.645,0 -1.184,0.24 -1.615,0.718 -0.433,0.479 -0.648,1.178 -0.648,2.1 0,0.922 0.216,1.622 0.648,2.1 0.432,0.479 0.971,0.718 1.615,0.718 0.564,0 1.031,-0.147 1.4,-0.441 0.368,-0.294 0.604,-0.693 0.708,-1.201 h 2.575 c -0.207,1.152 -0.723,2.063 -1.547,2.73 -0.824,0.667 -1.852,1.002 -3.084,1.002 -0.934,0 -1.764,-0.198 -2.489,-0.596 -0.725,-0.398 -1.29,-0.965 -1.693,-1.702 -0.403,-0.737 -0.604,-1.606 -0.604,-2.609 0,-1.002 0.201,-1.875 0.604,-2.618 0.403,-0.743 0.968,-1.311 1.693,-1.702 0.725,-0.391 1.556,-0.587 2.489,-0.587 1.232,-0.002 2.26,0.332 3.084,1 z"
   id="path354"
   inkscape:connector-curvature="0"
   style="fill:#ffffff" />
					<path
   d="m 1013.558,308.562 c 0.743,0.392 1.327,0.959 1.754,1.702 0.427,0.743 0.64,1.616 0.64,2.618 0,1.003 -0.213,1.872 -0.64,2.609 -0.427,0.737 -1.011,1.305 -1.754,1.702 -0.743,0.397 -1.581,0.596 -2.515,0.596 -0.934,0 -1.771,-0.198 -2.514,-0.596 -0.744,-0.397 -1.328,-0.965 -1.754,-1.702 -0.428,-0.737 -0.641,-1.606 -0.641,-2.609 0,-1.002 0.213,-1.875 0.641,-2.618 0.426,-0.743 1.01,-1.311 1.754,-1.702 0.742,-0.392 1.58,-0.587 2.514,-0.587 0.934,0 1.772,0.195 2.515,0.587 z m -4.243,2.238 c -0.473,0.478 -0.708,1.172 -0.708,2.082 0,0.91 0.235,1.604 0.708,2.082 0.473,0.479 1.049,0.718 1.729,0.718 0.68,0 1.256,-0.239 1.729,-0.718 0.473,-0.478 0.708,-1.172 0.708,-2.082 0,-0.91 -0.235,-1.604 -0.708,-2.082 -0.473,-0.479 -1.049,-0.718 -1.729,-0.718 -0.68,0 -1.256,0.239 -1.729,0.718 z"
   id="path356"
   inkscape:connector-curvature="0"
   style="fill:#ffffff" />
					<path
   d="m 1033.07,309.037 c 0.674,0.72 1.011,1.742 1.011,3.067 v 5.564 h -2.419 v -5.288 c 0,-0.737 -0.188,-1.305 -0.562,-1.702 -0.375,-0.397 -0.891,-0.597 -1.547,-0.597 -0.68,0 -1.221,0.214 -1.625,0.64 -0.402,0.427 -0.604,1.049 -0.604,1.866 v 5.081 h -2.419 v -5.288 c 0,-0.737 -0.188,-1.305 -0.563,-1.702 -0.374,-0.397 -0.889,-0.597 -1.546,-0.597 -0.681,0 -1.222,0.214 -1.624,0.64 -0.404,0.427 -0.605,1.049 -0.605,1.866 v 5.081 h -2.437 v -9.574 h 2.437 v 1.814 c 0.254,-0.622 0.654,-1.103 1.201,-1.442 0.547,-0.339 1.184,-0.51 1.91,-0.51 0.771,0 1.442,0.184 2.013,0.553 0.571,0.369 0.999,0.898 1.288,1.59 0.299,-0.656 0.745,-1.178 1.338,-1.564 0.594,-0.385 1.26,-0.578 1.996,-0.578 1.164,0 2.083,0.359 2.757,1.08 z"
   id="path358"
   inkscape:connector-curvature="0"
   style="fill:#ffffff" />
					<path
   d="m 1045.84,308.095 v 9.574 h -2.437 v -1.936 c -0.253,0.646 -0.671,1.149 -1.253,1.512 -0.582,0.363 -1.252,0.544 -2.014,0.544 -1.105,0 -1.986,-0.362 -2.644,-1.088 -0.656,-0.727 -0.985,-1.74 -0.985,-3.042 v -5.564 h 2.42 v 5.288 c 0,0.761 0.195,1.352 0.588,1.771 0.391,0.421 0.922,0.631 1.59,0.631 0.702,0 1.262,-0.225 1.676,-0.674 0.415,-0.449 0.622,-1.095 0.622,-1.936 v -5.081 h 2.437 z"
   id="path360"
   inkscape:connector-curvature="0"
   style="fill:#ffffff" />
					<path
   d="m 1056.857,309.045 c 0.657,0.727 0.985,1.746 0.985,3.06 v 5.564 h -2.42 v -5.288 c 0,-0.761 -0.195,-1.351 -0.588,-1.771 -0.391,-0.42 -0.927,-0.631 -1.606,-0.631 -0.691,0 -1.244,0.225 -1.659,0.674 -0.414,0.449 -0.622,1.095 -0.622,1.936 v 5.081 h -2.437 v -9.574 h 2.437 v 1.919 c 0.253,-0.646 0.671,-1.149 1.253,-1.513 0.582,-0.362 1.253,-0.544 2.014,-0.544 1.105,-0.001 1.986,0.361 2.643,1.087 z"
   id="path362"
   inkscape:connector-curvature="0"
   style="fill:#ffffff" />
					<path
   d="m 1069.36,313.349 h -7.017 c 0.034,0.853 0.265,1.48 0.691,1.884 0.426,0.403 0.956,0.604 1.59,0.604 0.564,0 1.034,-0.138 1.408,-0.415 0.374,-0.276 0.614,-0.65 0.718,-1.123 h 2.574 c -0.127,0.668 -0.397,1.268 -0.813,1.797 -0.414,0.53 -0.947,0.945 -1.598,1.244 -0.651,0.301 -1.374,0.449 -2.169,0.449 -0.934,0 -1.763,-0.198 -2.489,-0.596 -0.725,-0.397 -1.29,-0.965 -1.693,-1.702 -0.402,-0.737 -0.604,-1.606 -0.604,-2.609 0,-1.002 0.202,-1.875 0.604,-2.618 0.403,-0.743 0.969,-1.311 1.693,-1.702 0.727,-0.392 1.556,-0.587 2.489,-0.587 0.944,0 1.771,0.195 2.479,0.587 0.708,0.392 1.256,0.931 1.642,1.616 0.386,0.685 0.579,1.466 0.579,2.342 0,0.241 -0.027,0.517 -0.084,0.829 z m -2.982,-2.852 c -0.444,-0.403 -0.987,-0.604 -1.633,-0.604 -0.657,0 -1.21,0.201 -1.659,0.604 -0.449,0.403 -0.697,0.997 -0.743,1.78 h 4.648 c 0.035,-0.783 -0.169,-1.377 -0.613,-1.78 z"
   id="path364"
   inkscape:connector-curvature="0"
   style="fill:#ffffff" />
					<path
   d="m 1077.616,308.855 c 0.703,0.588 1.141,1.371 1.314,2.35 h -2.281 c -0.093,-0.46 -0.3,-0.829 -0.623,-1.105 -0.322,-0.276 -0.742,-0.415 -1.261,-0.415 -0.415,0 -0.737,0.099 -0.968,0.294 -0.23,0.196 -0.346,0.461 -0.346,0.795 0,0.266 0.092,0.479 0.276,0.64 0.184,0.161 0.415,0.288 0.691,0.38 0.276,0.093 0.674,0.202 1.192,0.328 0.726,0.162 1.316,0.332 1.771,0.51 0.455,0.18 0.847,0.461 1.175,0.848 0.329,0.386 0.493,0.906 0.493,1.563 0,0.818 -0.32,1.48 -0.959,1.987 -0.641,0.507 -1.502,0.76 -2.584,0.76 -1.244,0 -2.241,-0.278 -2.99,-0.838 -0.748,-0.559 -1.203,-1.356 -1.365,-2.393 h 2.334 c 0.057,0.473 0.264,0.844 0.621,1.114 0.357,0.27 0.824,0.406 1.4,0.406 0.414,0 0.731,-0.101 0.95,-0.303 0.219,-0.201 0.328,-0.464 0.328,-0.786 0,-0.276 -0.095,-0.501 -0.284,-0.674 -0.191,-0.173 -0.428,-0.306 -0.709,-0.397 -0.283,-0.093 -0.684,-0.202 -1.201,-0.329 -0.715,-0.16 -1.293,-0.325 -1.736,-0.492 -0.444,-0.167 -0.824,-0.435 -1.141,-0.804 -0.317,-0.368 -0.476,-0.875 -0.476,-1.521 0,-0.829 0.316,-1.504 0.95,-2.021 0.634,-0.519 1.51,-0.777 2.627,-0.777 1.167,0 2.1,0.293 2.802,0.88 z"
   id="path366"
   inkscape:connector-curvature="0"
   style="fill:#ffffff" />
				</g>
				<g
   id="g380">
					<g
   id="g378">
						<path
   d="m 1094.611,291.875 c 0,-0.542 -0.13,-0.969 -0.389,-1.279 -0.259,-0.31 -0.665,-0.467 -1.218,-0.467 -1.141,0 -1.746,0.777 -1.814,2.333 h -2.368 c 0.069,-1.44 0.507,-2.531 1.313,-3.274 0.806,-0.743 1.826,-1.115 3.059,-1.115 1.256,0 2.221,0.326 2.895,0.977 0.674,0.651 1.012,1.519 1.012,2.602 0,0.852 -0.252,1.707 -0.752,2.565 -0.502,0.858 -1.139,1.647 -1.91,2.368 -0.771,0.72 -1.584,1.339 -2.437,1.857 h 5.34 v 1.987 h -8.589 v -1.814 c 3.906,-2.709 5.858,-4.955 5.858,-6.74 z"
   id="path370"
   inkscape:connector-curvature="0"
   style="fill:#ffffff" />
						<path
   d="m 1099.208,294.328 c 0,-4.124 1.556,-6.187 4.666,-6.187 1.647,0 2.834,0.554 3.561,1.659 0.725,1.105 1.088,2.615 1.088,4.527 0,1.924 -0.363,3.439 -1.088,4.545 -0.727,1.106 -1.913,1.659 -3.561,1.659 -3.111,10e-4 -4.666,-2.066 -4.666,-6.203 z m 6.912,0 c 0,-1.244 -0.152,-2.203 -0.457,-2.877 -0.306,-0.674 -0.902,-1.011 -1.789,-1.011 -0.898,0 -1.5,0.337 -1.806,1.011 -0.306,0.674 -0.458,1.633 -0.458,2.877 0,1.256 0.152,2.221 0.458,2.895 0.306,0.674 0.907,1.012 1.806,1.012 0.887,0 1.483,-0.338 1.789,-1.012 0.304,-0.674 0.457,-1.639 0.457,-2.895 z"
   id="path372"
   inkscape:connector-curvature="0"
   style="fill:#ffffff" />
						<path
   d="m 1094.611,309.011 c 0,-0.541 -0.13,-0.968 -0.389,-1.278 -0.259,-0.312 -0.665,-0.467 -1.218,-0.467 -1.141,0 -1.746,0.777 -1.814,2.333 h -2.368 c 0.069,-1.44 0.507,-2.532 1.313,-3.274 0.807,-0.744 1.826,-1.115 3.059,-1.115 1.256,0 2.221,0.326 2.895,0.977 0.674,0.651 1.012,1.518 1.012,2.601 0,0.853 -0.252,1.708 -0.752,2.566 -0.502,0.858 -1.139,1.647 -1.91,2.367 -0.771,0.721 -1.584,1.34 -2.437,1.858 h 5.34 v 1.986 h -8.589 v -1.814 c 3.906,-2.708 5.858,-4.954 5.858,-6.74 z"
   id="path374"
   inkscape:connector-curvature="0"
   style="fill:#ffffff" />
						<path
   d="m 1099.208,311.465 c 0,-4.124 1.556,-6.187 4.666,-6.187 1.647,0 2.834,0.553 3.561,1.659 0.725,1.105 1.088,2.615 1.088,4.527 0,1.924 -0.363,3.439 -1.088,4.545 -0.727,1.105 -1.913,1.659 -3.561,1.659 -3.111,10e-4 -4.666,-2.067 -4.666,-6.203 z m 6.912,0 c 0,-1.244 -0.152,-2.203 -0.457,-2.877 -0.306,-0.674 -0.902,-1.012 -1.789,-1.012 -0.898,0 -1.5,0.338 -1.806,1.012 -0.306,0.674 -0.458,1.633 -0.458,2.877 0,1.256 0.152,2.221 0.458,2.895 0.306,0.674 0.907,1.011 1.806,1.011 0.887,0 1.483,-0.337 1.789,-1.011 0.304,-0.674 0.457,-1.639 0.457,-2.895 z"
   id="path376"
   inkscape:connector-curvature="0"
   style="fill:#ffffff" />
					</g>
				</g>
				<rect
   x="1082.436"
   y="287.19299"
   width="1.247"
   height="30.93"
   id="rect382"
   style="fill:#ffffff" />
				<rect
   x="989.146"
   y="287.19299"
   width="1.247"
   height="30.93"
   id="rect384"
   style="fill:#ffffff" />
				<g
   id="g388">
					<path
   d="m 974.286,293.281 c -3.058,0 -5.19,2.275 -5.19,5.617 0,3.413 2.132,5.688 5.19,5.688 2.204,0 3.982,-0.747 5.119,-2.24 l 2.879,2.382 c -1.671,2.417 -4.515,3.84 -8.247,3.84 -5.688,0 -9.599,-3.911 -9.599,-9.635 0,-5.794 3.946,-9.705 9.67,-9.705 3.484,0 6.257,1.28 7.963,3.484 l -2.808,2.666 c -1.209,-1.315 -2.88,-2.097 -4.977,-2.097 z"
   id="path386"
   inkscape:connector-curvature="0"
   style="fill:#ffffff" />
				</g>
				<rect
   x="965.22601"
   y="313.991"
   width="16.014"
   height="3.4130001"
   id="rect390"
   style="fill:#ffffff" />
			</g>
		</g>
		<g
   id="g498">
			<g
   id="g446">
				<path
   d="m 1155.54,287.909 h -3.263 v 7.987 h 1.757 V 293.5 h 1.335 c 1.791,0 3.229,-0.958 3.229,-2.807 v -0.023 c 0,-1.631 -1.152,-2.761 -3.058,-2.761 z m 1.278,2.819 c 0,0.685 -0.513,1.209 -1.392,1.209 h -1.392 v -2.442 h 1.358 c 0.879,0 1.426,0.422 1.426,1.21 z"
   id="path396"
   inkscape:connector-curvature="0"
   style="fill:#ffffff" />
				<polygon
   points="1161.655,287.909 1159.898,287.909 1159.898,295.897 1165.637,295.897 1165.637,294.299 1161.655,294.299 "
   id="polygon398"
   style="fill:#ffffff" />
				<path
   d="m 1169.698,287.852 -3.423,8.044 h 1.792 l 0.73,-1.791 h 3.378 l 0.73,1.791 h 1.837 l -3.423,-8.044 z m -0.274,4.702 1.061,-2.59 1.061,2.59 z"
   id="path400"
   inkscape:connector-curvature="0"
   style="fill:#ffffff" />
				<path
   d="m 1179.202,296.034 c 1.54,0 2.453,-0.548 3.275,-1.426 l -1.118,-1.13 c -0.628,0.571 -1.187,0.936 -2.099,0.936 -1.369,0 -2.316,-1.141 -2.316,-2.51 v -0.023 c 0,-1.369 0.97,-2.488 2.316,-2.488 0.799,0 1.426,0.342 2.042,0.901 l 1.118,-1.289 c -0.742,-0.73 -1.643,-1.232 -3.149,-1.232 -2.453,0 -4.165,1.86 -4.165,4.131 v 0.023 c 0,2.292 1.745,4.107 4.096,4.107 z"
   id="path402"
   inkscape:connector-curvature="0"
   style="fill:#ffffff" />
				<polygon
   points="1185.625,292.656 1189.39,292.656 1189.39,291.093 1185.625,291.093 1185.625,289.473 1189.904,289.473 1189.904,287.909 1183.879,287.909 1183.879,295.897 1189.961,295.897 1189.961,294.334 1185.625,294.334 "
   id="polygon404"
   style="fill:#ffffff" />
				<polygon
   points="1195.517,294.094 1197.765,290.682 1197.765,295.897 1199.51,295.897 1199.51,287.909 1197.616,287.909 1195.517,291.287 1193.417,287.909 1191.523,287.909 1191.523,295.897 1193.246,295.897 1193.246,290.716 1195.471,294.094 "
   id="polygon406"
   style="fill:#ffffff" />
				<path
   d="m 1203.263,294.105 h 3.377 l 0.73,1.791 h 1.837 l -3.423,-8.044 h -1.62 l -3.423,8.044 h 1.792 z m 1.689,-4.142 1.061,2.59 h -2.122 z"
   id="path408"
   inkscape:connector-curvature="0"
   style="fill:#ffffff" />
				<polygon
   points="1215.437,287.909 1212.196,291.401 1212.196,287.909 1210.439,287.909 1210.439,295.897 1212.196,295.897 1212.196,293.455 1213.12,292.497 1215.596,295.897 1217.707,295.897 1214.307,291.298 1217.559,287.909 "
   id="polygon410"
   style="fill:#ffffff" />
				<rect
   x="1218.847"
   y="287.909"
   width="1.757"
   height="7.987"
   id="rect412"
   style="fill:#ffffff" />
				<polygon
   points="1229.698,295.897 1229.698,287.909 1227.964,287.909 1227.964,292.827 1224.221,287.909 1222.601,287.909 1222.601,295.897 1224.335,295.897 1224.335,290.819 1228.203,295.897 "
   id="polygon414"
   style="fill:#ffffff" />
				<path
   d="m 1235.459,296.034 c 1.46,0 2.59,-0.57 3.412,-1.267 v -3.469 h -3.469 v 1.518 h 1.769 v 1.141 c -0.445,0.319 -1.015,0.479 -1.654,0.479 -1.415,0 -2.419,-1.073 -2.419,-2.533 v -0.023 c 0,-1.358 1.016,-2.488 2.294,-2.488 0.924,0 1.472,0.297 2.088,0.81 l 1.107,-1.335 c -0.833,-0.707 -1.7,-1.095 -3.138,-1.095 -2.419,0 -4.188,1.86 -4.188,4.131 v 0.023 c -10e-4,2.362 1.71,4.108 4.198,4.108 z"
   id="path416"
   inkscape:connector-curvature="0"
   style="fill:#ffffff" />
				<polygon
   points="1152.277,306.619 1158.016,306.619 1158.016,305.021 1154.034,305.021 1154.034,298.631 1152.277,298.631 "
   id="polygon418"
   style="fill:#ffffff" />
				<path
   d="m 1162.077,298.574 -3.423,8.044 h 1.791 l 0.73,-1.791 h 3.377 l 0.73,1.791 h 1.837 l -3.423,-8.044 z m -0.274,4.702 1.061,-2.59 1.061,2.59 z"
   id="path420"
   inkscape:connector-curvature="0"
   style="fill:#ffffff" />
				<polygon
   points="1169.185,306.619 1170.942,306.619 1170.942,300.252 1173.372,300.252 1173.372,298.631 1166.754,298.631 1166.754,300.252 1169.185,300.252 "
   id="polygon422"
   style="fill:#ffffff" />
				<rect
   x="1174.798"
   y="298.63101"
   width="1.757"
   height="7.987"
   id="rect424"
   style="fill:#ffffff" />
				<polygon
   points="1178.551,298.631 1178.551,306.619 1180.286,306.619 1180.286,301.541 1184.154,306.619 1185.648,306.619 1185.648,298.631 1183.914,298.631 1183.914,303.549 1180.171,298.631 "
   id="polygon426"
   style="fill:#ffffff" />
				<path
   d="m 1191.466,298.495 c -2.465,0 -4.256,1.86 -4.256,4.131 v 0.023 c 0,2.271 1.769,4.108 4.233,4.108 2.465,0 4.256,-1.86 4.256,-4.131 v -0.023 c 10e-4,-2.271 -1.768,-4.108 -4.233,-4.108 z m 2.397,4.153 c 0,1.369 -0.981,2.487 -2.396,2.487 -1.415,0 -2.419,-1.141 -2.419,-2.51 v -0.023 c 0,-1.369 0.981,-2.488 2.396,-2.488 1.415,0 2.419,1.141 2.419,2.51 z"
   id="path428"
   inkscape:connector-curvature="0"
   style="fill:#ffffff" />
				<path
   d="m 1199.487,298.574 -3.423,8.044 h 1.792 l 0.73,-1.791 h 3.378 l 0.73,1.791 h 1.837 l -3.423,-8.044 z m -0.274,4.702 1.061,-2.59 1.061,2.59 z"
   id="path430"
   inkscape:connector-curvature="0"
   style="fill:#ffffff" />
				<polygon
   points="1205.761,298.631 1205.761,306.619 1207.484,306.619 1207.484,301.438 1209.709,304.816 1209.755,304.816 1212.003,301.404 1212.003,306.619 1213.748,306.619 1213.748,298.631 1211.854,298.631 1209.755,302.009 1207.655,298.631 "
   id="polygon432"
   style="fill:#ffffff" />
				<polygon
   points="1221.175,301.815 1217.41,301.815 1217.41,300.195 1221.689,300.195 1221.689,298.631 1215.664,298.631 1215.664,306.619 1221.746,306.619 1221.746,305.056 1217.41,305.056 1217.41,303.378 1221.175,303.378 "
   id="polygon434"
   style="fill:#ffffff" />
				<path
   d="m 1229.972,301.29 v -0.023 c 0,-0.753 -0.24,-1.381 -0.685,-1.826 -0.525,-0.525 -1.312,-0.81 -2.328,-0.81 h -3.651 v 7.987 h 1.757 v -2.556 h 1.358 0.023 l 1.712,2.556 h 2.054 l -1.951,-2.853 c 1.015,-0.375 1.711,-1.186 1.711,-2.475 z m -1.78,0.091 c 0,0.673 -0.491,1.13 -1.346,1.13 h -1.78 v -2.294 h 1.746 c 0.856,0 1.381,0.388 1.381,1.141 v 0.023 z"
   id="path436"
   inkscape:connector-curvature="0"
   style="fill:#ffffff" />
				<rect
   x="1231.636"
   y="298.63101"
   width="1.757"
   height="7.987"
   id="rect438"
   style="fill:#ffffff" />
				<path
   d="m 1239.19,305.135 c -1.369,0 -2.316,-1.141 -2.316,-2.51 v -0.023 c 0,-1.369 0.97,-2.488 2.316,-2.488 0.799,0 1.426,0.342 2.042,0.902 l 1.118,-1.289 c -0.742,-0.73 -1.643,-1.232 -3.149,-1.232 -2.453,0 -4.165,1.86 -4.165,4.131 v 0.023 c 0,2.293 1.746,4.108 4.096,4.108 1.541,0 2.453,-0.548 3.275,-1.426 l -1.118,-1.13 c -0.627,0.569 -1.186,0.934 -2.099,0.934 z"
   id="path440"
   inkscape:connector-curvature="0"
   style="fill:#ffffff" />
				<path
   d="m 1248.168,298.574 h -1.62 l -3.423,8.044 h 1.792 l 0.73,-1.791 h 3.378 l 0.73,1.791 h 1.837 z m -1.894,4.702 1.061,-2.59 1.061,2.59 z"
   id="path442"
   inkscape:connector-curvature="0"
   style="fill:#ffffff" />
				<rect
   x="1217.488"
   y="297.07101"
   width="4.1440001"
   height="1"
   id="rect444"
   style="fill:#ffffff" />
			</g>
			<g
   id="g496">
				<path
   d="m 1152.154,287.795 h 3.31 c 1.933,0 3.102,1.146 3.102,2.801 v 0.023 c 0,1.875 -1.458,2.847 -3.276,2.847 h -1.354 v 2.431 h -1.782 z m 3.195,4.086 c 0.891,0 1.412,-0.532 1.412,-1.227 v -0.023 c 0,-0.799 -0.555,-1.227 -1.447,-1.227 h -1.377 v 2.477 z"
   id="path448"
   inkscape:connector-curvature="0"
   style="fill:#ffffff" />
				<path
   d="m 1159.766,287.795 h 1.782 v 6.482 h 4.039 v 1.62 h -5.822 v -8.102 z"
   id="path450"
   inkscape:connector-curvature="0"
   style="fill:#ffffff" />
				<path
   d="m 1169.846,287.737 h 1.644 l 3.472,8.16 h -1.863 l -0.741,-1.817 h -3.426 l -0.741,1.817 h -1.817 z m 1.875,4.769 -1.076,-2.627 -1.076,2.627 z"
   id="path452"
   inkscape:connector-curvature="0"
   style="fill:#ffffff" />
				<path
   d="m 1175.204,291.869 v -0.023 c 0,-2.303 1.736,-4.19 4.225,-4.19 1.528,0 2.442,0.509 3.194,1.25 l -1.134,1.308 c -0.625,-0.567 -1.262,-0.914 -2.072,-0.914 -1.366,0 -2.349,1.134 -2.349,2.523 v 0.023 c 0,1.389 0.961,2.546 2.349,2.546 0.926,0 1.493,-0.37 2.13,-0.949 l 1.134,1.146 c -0.833,0.891 -1.759,1.447 -3.322,1.447 -2.384,0 -4.155,-1.841 -4.155,-4.167 z"
   id="path454"
   inkscape:connector-curvature="0"
   style="fill:#ffffff" />
				<path
   d="m 1183.898,287.795 h 6.111 v 1.586 h -4.34 v 1.643 h 3.819 v 1.586 h -3.819 v 1.701 h 4.398 v 1.586 h -6.169 z"
   id="path456"
   inkscape:connector-curvature="0"
   style="fill:#ffffff" />
				<path
   d="m 1152.154,298.511 h 1.782 v 6.482 h 4.039 v 1.62 h -5.822 v -8.102 z"
   id="path458"
   inkscape:connector-curvature="0"
   style="fill:#ffffff" />
				<path
   d="m 1162.234,298.454 h 1.644 l 3.472,8.16 h -1.863 l -0.741,-1.817 h -3.426 l -0.741,1.817 h -1.817 z m 1.875,4.768 -1.076,-2.627 -1.076,2.627 z"
   id="path460"
   inkscape:connector-curvature="0"
   style="fill:#ffffff" />
				<path
   d="m 1169.293,300.155 h -2.465 v -1.644 h 6.713 v 1.644 h -2.465 v 6.458 h -1.782 v -6.458 z"
   id="path462"
   inkscape:connector-curvature="0"
   style="fill:#ffffff" />
				<path
   d="m 1174.698,298.511 h 1.782 v 8.102 h -1.782 z"
   id="path464"
   inkscape:connector-curvature="0"
   style="fill:#ffffff" />
				<path
   d="m 1178.405,298.511 h 1.644 l 3.796,4.988 v -4.988 h 1.759 v 8.102 h -1.516 l -3.924,-5.15 v 5.15 h -1.759 z"
   id="path466"
   inkscape:connector-curvature="0"
   style="fill:#ffffff" />
				<path
   d="m 1187.099,302.586 v -0.023 c 0,-2.303 1.817,-4.19 4.317,-4.19 2.5,0 4.294,1.863 4.294,4.167 v 0.023 c 0,2.303 -1.817,4.19 -4.317,4.19 -2.5,-10e-4 -4.294,-1.864 -4.294,-4.167 z m 6.748,0 v -0.023 c 0,-1.389 -1.019,-2.546 -2.454,-2.546 -1.435,0 -2.431,1.134 -2.431,2.523 v 0.023 c 0,1.389 1.018,2.546 2.454,2.546 1.435,0 2.431,-1.135 2.431,-2.523 z"
   id="path468"
   inkscape:connector-curvature="0"
   style="fill:#ffffff" />
				<path
   d="m 1154.932,309.17 h 1.644 l 3.472,8.16 h -1.863 l -0.741,-1.817 h -3.426 l -0.741,1.817 h -1.817 z m 1.875,4.769 -1.076,-2.627 -1.076,2.627 z"
   id="path470"
   inkscape:connector-curvature="0"
   style="fill:#ffffff" />
				<path
   d="m 1161.119,309.228 h 3.704 c 1.03,0 1.829,0.289 2.361,0.822 0.451,0.451 0.694,1.088 0.694,1.852 v 0.023 c 0,1.308 -0.706,2.13 -1.736,2.512 l 1.979,2.893 h -2.083 l -1.736,-2.593 h -1.401 v 2.593 h -1.782 z m 3.588,3.935 c 0.868,0 1.366,-0.463 1.366,-1.146 v -0.023 c 0,-0.764 -0.532,-1.157 -1.401,-1.157 h -1.771 v 2.326 z"
   id="path472"
   inkscape:connector-curvature="0"
   style="fill:#ffffff" />
				<path
   d="m 1168.92,313.302 v -0.023 c 0,-2.303 1.794,-4.19 4.248,-4.19 1.458,0 2.338,0.393 3.183,1.111 l -1.123,1.354 c -0.625,-0.521 -1.181,-0.822 -2.118,-0.822 -1.296,0 -2.326,1.146 -2.326,2.523 v 0.023 c 0,1.481 1.018,2.569 2.454,2.569 0.648,0 1.227,-0.162 1.678,-0.486 v -1.157 h -1.794 v -1.539 h 3.519 v 3.518 c -0.833,0.706 -1.979,1.285 -3.461,1.285 -2.524,10e-4 -4.26,-1.77 -4.26,-4.166 z"
   id="path474"
   inkscape:connector-curvature="0"
   style="fill:#ffffff" />
				<path
   d="m 1178.358,309.228 h 6.111 v 1.586 h -4.34 v 1.643 h 3.819 v 1.586 h -3.819 v 1.701 h 4.398 v 1.586 h -6.169 z"
   id="path476"
   inkscape:connector-curvature="0"
   style="fill:#ffffff" />
				<path
   d="m 1186.131,309.228 h 1.643 l 3.796,4.988 v -4.988 h 1.759 v 8.102 h -1.516 l -3.924,-5.15 v 5.15 h -1.759 v -8.102 z"
   id="path478"
   inkscape:connector-curvature="0"
   style="fill:#ffffff" />
				<path
   d="m 1196.915,310.872 h -2.465 v -1.644 h 6.713 v 1.644 h -2.465 v 6.458 h -1.782 v -6.458 z"
   id="path480"
   inkscape:connector-curvature="0"
   style="fill:#ffffff" />
				<path
   d="m 1202.32,309.228 h 1.782 v 8.102 h -1.782 z"
   id="path482"
   inkscape:connector-curvature="0"
   style="fill:#ffffff" />
				<path
   d="m 1206.027,309.228 h 1.643 l 3.796,4.988 v -4.988 h 1.759 v 8.102 h -1.516 l -3.924,-5.15 v 5.15 h -1.759 v -8.102 z"
   id="path484"
   inkscape:connector-curvature="0"
   style="fill:#ffffff" />
				<path
   d="m 1217.764,309.17 h 1.644 l 3.472,8.16 h -1.864 l -0.741,-1.817 h -3.426 l -0.741,1.817 h -1.817 z m 1.875,4.769 -1.077,-2.627 -1.076,2.627 z"
   id="path486"
   inkscape:connector-curvature="0"
   style="fill:#ffffff" />
				<path
   d="m 1227.196,315.918 2.697,-2.211 c 1.007,-0.833 1.4,-1.273 1.4,-1.944 0,-0.683 -0.451,-1.053 -1.088,-1.053 -0.625,0 -1.053,0.347 -1.655,1.088 l -1.25,-1.007 c 0.799,-1.088 1.574,-1.678 3.021,-1.678 1.678,0 2.789,0.984 2.789,2.5 v 0.023 c 0,1.354 -0.694,2.025 -2.13,3.137 l -1.319,1.018 h 3.53 v 1.539 h -5.995 z"
   id="path488"
   inkscape:connector-curvature="0"
   style="fill:#ffffff" />
				<path
   d="m 1234.302,313.302 v -0.023 c 0,-2.349 1.458,-4.19 3.611,-4.19 2.141,0 3.588,1.817 3.588,4.167 v 0.023 c 0,2.35 -1.447,4.19 -3.611,4.19 -2.164,0 -3.588,-1.817 -3.588,-4.167 z m 5.371,0 v -0.023 c 0,-1.47 -0.718,-2.581 -1.782,-2.581 -1.064,0 -1.759,1.076 -1.759,2.558 v 0.023 c 0,1.481 0.706,2.581 1.782,2.581 1.076,0 1.759,-1.088 1.759,-2.558 z"
   id="path490"
   inkscape:connector-curvature="0"
   style="fill:#ffffff" />
				<path
   d="m 1242.345,315.918 2.697,-2.211 c 1.007,-0.833 1.4,-1.273 1.4,-1.944 0,-0.683 -0.451,-1.053 -1.088,-1.053 -0.625,0 -1.053,0.347 -1.655,1.088 l -1.25,-1.007 c 0.799,-1.088 1.574,-1.678 3.021,-1.678 1.678,0 2.789,0.984 2.789,2.5 v 0.023 c 0,1.354 -0.694,2.025 -2.13,3.137 l -1.319,1.018 h 3.53 v 1.539 h -5.995 z"
   id="path492"
   inkscape:connector-curvature="0"
   style="fill:#ffffff" />
				<path
   d="m 1249.451,313.302 v -0.023 c 0,-2.349 1.458,-4.19 3.611,-4.19 2.141,0 3.588,1.817 3.588,4.167 v 0.023 c 0,2.35 -1.447,4.19 -3.611,4.19 -2.164,0 -3.588,-1.817 -3.588,-4.167 z m 5.37,0 v -0.023 c 0,-1.47 -0.718,-2.581 -1.782,-2.581 -1.065,0 -1.759,1.076 -1.759,2.558 v 0.023 c 0,1.481 0.706,2.581 1.782,2.581 1.076,0 1.759,-1.088 1.759,-2.558 z"
   id="path494"
   inkscape:connector-curvature="0"
   style="fill:#ffffff" />
			</g>
		</g>
	</g>
</g>
</svg>