<?xml version="1.0" encoding="utf-8"?>
<!-- Generator: Adobe Illustrator 17.0.0, SVG Export Plug-In . SVG Version: 6.00 Build 0)  -->
<!DOCTYPE svg PUBLIC "-//W3C//DTD SVG 1.1//EN" "http://www.w3.org/Graphics/SVG/1.1/DTD/svg11.dtd">
<svg version="1.1" id="Layer_1" xmlns="http://www.w3.org/2000/svg" xmlns:xlink="http://www.w3.org/1999/xlink" x="0px" y="0px"
	 width="1256.469px" height="232.02px" viewBox="0 0 1256.469 232.02" enable-background="new 0 0 1256.469 232.02"
	 xml:space="preserve">
<g>
	<g>
		<path fill="#FFFFFF" d="M1140.899,4.383h3.04v13.822h-3.04V4.383z"/>
		<path fill="#FFFFFF" d="M1151.34,4.383h5.391c4.344,0,7.345,2.982,7.345,6.872v0.039c0,3.89-3.001,6.911-7.345,6.911h-5.391V4.383
			z M1156.731,15.46c2.487,0,4.166-1.678,4.166-4.126v-0.04c0-2.448-1.679-4.166-4.166-4.166h-2.35v8.332H1156.731z"/>
		<path fill="#FFFFFF" d="M1170.724,4.383h10.425v2.705h-7.404v2.804h6.516v2.705h-6.516V15.5h7.504v2.705h-10.524V4.383z"/>
		<path fill="#FFFFFF" d="M1192.635,4.285h2.805l5.923,13.92h-3.179l-1.264-3.1h-5.845l-1.264,3.1h-3.1L1192.635,4.285z
			 M1195.834,12.42l-1.836-4.482l-1.837,4.482H1195.834z"/>
		<path fill="#FFFFFF" d="M1208.88,7.188h-4.206V4.383h11.453v2.804h-4.207v11.018h-3.04V7.188z"/>
		<path fill="#FFFFFF" d="M1221.196,11.333v-0.04c0-3.929,3.101-7.147,7.365-7.147c4.266,0,7.326,3.179,7.326,7.108v0.039
			c0,3.93-3.101,7.148-7.365,7.148C1224.256,18.442,1221.196,15.263,1221.196,11.333z M1232.708,11.333v-0.04
			c0-2.369-1.737-4.344-4.186-4.344c-2.449,0-4.146,1.935-4.146,4.305v0.039c0,2.37,1.737,4.344,4.186,4.344
			C1231.01,15.638,1232.708,13.703,1232.708,11.333z M1229.707,0l2.587,1.125l-2.686,1.975h-2.291L1229.707,0z"/>
		<path fill="#FFFFFF" d="M1242.535,4.383h2.804l6.477,8.51v-8.51h3.001v13.822h-2.587l-6.693-8.787v8.787h-3.001V4.383z"/>
	</g>
</g>
<g>
	<g>
		<path fill="#FFFFFF" d="M0.667,11.333v-0.04c0-3.929,2.962-7.147,7.207-7.147c2.606,0,4.166,0.869,5.45,2.132L11.389,8.51
			c-1.066-0.967-2.152-1.56-3.534-1.56c-2.33,0-4.008,1.935-4.008,4.305v0.039c0,2.37,1.639,4.344,4.008,4.344
			c1.58,0,2.547-0.632,3.633-1.619l1.936,1.955c-1.422,1.521-3.001,2.468-5.667,2.468C3.689,18.442,0.667,15.302,0.667,11.333z"/>
		<path fill="#FFFFFF" d="M18.788,11.333v-0.04c0-3.929,3.1-7.147,7.365-7.147c4.265,0,7.325,3.179,7.325,7.108v0.039
			c0,3.93-3.1,7.148-7.364,7.148C21.849,18.442,18.788,15.263,18.788,11.333z M30.299,11.333v-0.04c0-2.369-1.737-4.344-4.186-4.344
			c-2.449,0-4.146,1.935-4.146,4.305v0.039c0,2.37,1.737,4.344,4.186,4.344S30.299,13.703,30.299,11.333z"/>
		<path fill="#FFFFFF" d="M40.126,4.383h2.804l6.476,8.51v-8.51h3.001v13.822h-2.586l-6.694-8.787v8.787h-3.001V4.383z"/>
		<path fill="#FFFFFF" d="M58.483,4.383h3.356l3.613,9.734l3.613-9.734h3.278l-5.587,13.92h-2.686L58.483,4.383z"/>
		<path fill="#FFFFFF" d="M76.919,11.333v-0.04c0-3.929,3.1-7.147,7.365-7.147s7.325,3.179,7.325,7.108v0.039
			c0,3.93-3.1,7.148-7.365,7.148S76.919,15.263,76.919,11.333z M88.431,11.333v-0.04c0-2.369-1.738-4.344-4.186-4.344
			s-4.146,1.935-4.146,4.305v0.039c0,2.37,1.737,4.344,4.186,4.344C86.732,15.638,88.431,13.703,88.431,11.333z"/>
		<path fill="#FFFFFF" d="M97.645,11.333v-0.04c0-3.929,2.962-7.147,7.207-7.147c2.606,0,4.166,0.869,5.449,2.132l-1.935,2.231
			c-1.066-0.967-2.152-1.56-3.534-1.56c-2.33,0-4.008,1.935-4.008,4.305v0.039c0,2.37,1.639,4.344,4.008,4.344
			c1.58,0,2.547-0.632,3.633-1.619l1.935,1.955c-1.421,1.521-3.001,2.468-5.667,2.468C100.666,18.442,97.645,15.302,97.645,11.333z"
			/>
		<path fill="#FFFFFF" d="M121.511,4.285h2.804l5.923,13.92h-3.179l-1.264-3.1h-5.845l-1.264,3.1h-3.1L121.511,4.285z
			 M124.709,12.42l-1.836-4.482l-1.836,4.482H124.709z"/>
		<path fill="#FFFFFF" d="M137.755,7.188h-4.206V4.383h11.452v2.804h-4.206v11.018h-3.041V7.188z"/>
		<path fill="#FFFFFF" d="M150.071,11.333v-0.04c0-3.929,3.101-7.147,7.365-7.147s7.325,3.179,7.325,7.108v0.039
			c0,3.93-3.1,7.148-7.365,7.148S150.071,15.263,150.071,11.333z M161.583,11.333v-0.04c0-2.369-1.738-4.344-4.186-4.344
			s-4.146,1.935-4.146,4.305v0.039c0,2.37,1.738,4.344,4.186,4.344S161.583,13.703,161.583,11.333z"/>
		<path fill="#FFFFFF" d="M171.409,4.383h6.318c1.757,0,3.12,0.494,4.028,1.402c0.77,0.771,1.185,1.856,1.185,3.159v0.04
			c0,2.231-1.204,3.633-2.962,4.285l3.377,4.937H179.8l-2.961-4.423h-2.389v4.423h-3.041V4.383z M177.53,11.097
			c1.481,0,2.33-0.79,2.33-1.955V9.103c0-1.303-0.908-1.975-2.389-1.975h-3.021v3.969H177.53z"/>
		<path fill="#FFFFFF" d="M189.766,4.383h3.041v13.822h-3.041V4.383z"/>
		<path fill="#FFFFFF" d="M204.947,4.285h2.804l5.924,13.92h-3.179l-1.264-3.1h-5.844l-1.264,3.1h-3.1L204.947,4.285z
			 M208.146,12.42l-1.836-4.482l-1.836,4.482H208.146z"/>
		<path fill="#FFFFFF" d="M229.619,4.383h5.391c4.344,0,7.345,2.982,7.345,6.872v0.039c0,3.89-3.001,6.911-7.345,6.911h-5.391V4.383
			z M235.009,15.46c2.488,0,4.166-1.678,4.166-4.126v-0.04c0-2.448-1.678-4.166-4.166-4.166h-2.35v8.332H235.009z"/>
		<path fill="#FFFFFF" d="M249.002,4.383h10.425v2.705h-7.404v2.804h6.516v2.705h-6.516V15.5h7.503v2.705h-10.524V4.383z"/>
		<path fill="#FFFFFF" d="M276.183,4.383h3.04v13.822h-3.04V4.383z"/>
		<path fill="#FFFFFF" d="M286.625,4.383h5.391c4.344,0,7.345,2.982,7.345,6.872v0.039c0,3.89-3.001,6.911-7.345,6.911h-5.391V4.383
			z M292.015,15.46c2.488,0,4.166-1.678,4.166-4.126v-0.04c0-2.448-1.678-4.166-4.166-4.166h-2.35v8.332H292.015z"/>
		<path fill="#FFFFFF" d="M306.008,4.383h10.425v2.705h-7.405v2.804h6.516v2.705h-6.516V15.5h7.503v2.705h-10.524V4.383z"/>
		<path fill="#FFFFFF" d="M327.92,4.285h2.804l5.923,13.92h-3.179l-1.264-3.1h-5.845l-1.264,3.1h-3.1L327.92,4.285z M331.119,12.42
			l-1.836-4.482l-1.836,4.482H331.119z"/>
		<path fill="#FFFFFF" d="M341.578,16.191l1.797-2.152c1.244,1.027,2.547,1.678,4.127,1.678c1.244,0,1.994-0.493,1.994-1.303v-0.04
			c0-0.77-0.474-1.165-2.784-1.757c-2.784-0.711-4.581-1.481-4.581-4.226v-0.04c0-2.507,2.014-4.166,4.838-4.166
			c2.014,0,3.731,0.632,5.134,1.757l-1.58,2.29c-1.224-0.849-2.429-1.362-3.593-1.362c-1.165,0-1.777,0.533-1.777,1.205v0.04
			c0,0.908,0.592,1.204,2.981,1.816c2.804,0.73,4.383,1.737,4.383,4.146v0.04c0,2.745-2.093,4.285-5.074,4.285
			C345.349,18.402,343.236,17.672,341.578,16.191z"/>
	</g>
</g>
<rect x="368.892" y="10.023" fill="#FFFFFF" width="759.718" height="2.367"/>
<g>
	<path fill="#FFFFFF" d="M0,56.624h12.773l19.816,50.528l19.723-50.528h12.491l-27.33,66.212H27.33L0,56.624z"/>
	<path fill="#FFFFFF" d="M84.521,89.683v-0.188c0-18.502,14.275-33.998,34.468-33.998s34.28,15.309,34.28,33.811v0.188
		c0,18.502-14.275,33.998-34.468,33.998S84.521,108.185,84.521,89.683z M141.153,89.683v-0.188c0-12.772-9.298-23.386-22.353-23.386
		S96.636,76.535,96.636,89.308v0.188c0,12.773,9.298,23.386,22.353,23.386C132.042,112.881,141.153,102.456,141.153,89.683z"/>
	<path fill="#FFFFFF" d="M182.657,56.624h11.552v55.224h34.562v10.519h-46.114V56.624z"/>
	<path fill="#FFFFFF" d="M239.754,56.624h12.773l19.817,50.528l19.723-50.528h12.491l-27.33,66.212h-10.144L239.754,56.624z"/>
	<path fill="#FFFFFF" d="M331.224,56.624h48.744v10.331h-37.192v17.093h32.966v10.331h-32.966v17.656h37.661v10.331h-49.213V56.624z
		"/>
	<path fill="#FFFFFF" d="M409.546,56.624h29.302c8.265,0,14.745,2.442,18.971,6.574c3.476,3.569,5.447,8.453,5.447,14.182v0.188
		c0,10.801-6.48,17.281-15.684,19.911l17.75,24.888h-13.618L435.562,99.45h-14.463v22.916h-11.552V56.624z M438.003,89.213
		c8.265,0,13.524-4.32,13.524-10.988v-0.188c0-7.044-5.072-10.895-13.618-10.895h-16.812v22.071H438.003z"/>
	<path fill="#FFFFFF" d="M559.71,56.154h10.707l28.927,66.212h-12.209l-6.668-15.872h-31.086l-6.763,15.872h-11.833L559.71,56.154z
		 M576.24,96.257L564.875,69.96l-11.27,26.297H576.24z"/>
	<path fill="#FFFFFF" d="M661.225,56.624h11.552v55.224h34.562v10.519h-46.113V56.624z"/>
	<path fill="#FFFFFF" d="M760.301,56.154h10.707l28.927,66.212h-12.209l-6.669-15.872h-31.086l-6.763,15.872h-11.833L760.301,56.154
		z M776.832,96.257L765.467,69.96l-11.27,26.297H776.832z"/>
	<path fill="#FFFFFF" d="M871.77,89.683v-0.188c0-18.689,13.994-33.998,33.904-33.998c12.116,0,19.441,4.226,25.734,10.237
		l-7.42,8.546c-5.26-4.884-10.895-8.171-18.408-8.171c-12.584,0-21.694,10.331-21.694,23.198v0.188
		c0,12.867,9.11,23.386,21.694,23.386c8.078,0,13.243-3.287,18.878-8.547l7.419,7.514c-6.855,7.138-14.369,11.646-26.672,11.646
		C886.046,123.493,871.77,108.561,871.77,89.683z"/>
	<path fill="#FFFFFF" d="M984.935,56.154h10.706l28.928,66.212h-12.209l-6.669-15.872h-31.087l-6.762,15.872h-11.834L984.935,56.154
		z M1001.465,96.257L990.1,69.96l-11.27,26.297H1001.465z"/>
	<path fill="#FFFFFF" d="M1053.489,56.624h11.551v55.224h34.563v10.519h-46.113V56.624z"/>
	<path fill="#FFFFFF" d="M1129.274,56.624h11.551v55.224h34.563v10.519h-46.113V56.624z"/>
	<path fill="#FFFFFF" d="M1205.059,56.624h48.742v10.331h-37.191v17.093h32.966v10.331h-32.966v17.656h37.662v10.331h-49.213V56.624
		z"/>
</g>
<g>
	<g>
		<g>
			<circle fill="#F6ADCA" cx="354.113" cy="222.27" r="8.287"/>
			<circle fill="#F6ADCA" cx="381.044" cy="222.27" r="8.287"/>
		</g>
		<rect x="334.431" y="164.26" fill="#F26724" width="66.296" height="58.009"/>
		<rect x="345.826" y="175.777" fill="#FFDE11" width="16.574" height="16.574"/>
		<rect x="372.757" y="175.777" fill="#FFDE11" width="16.574" height="16.574"/>
	</g>
	<g>
		<g>
			<g>
				<polygon fill="#8DC641" points="164.321,191.985 178.664,168.682 193.007,191.985 				"/>
				<polygon fill="#8DC641" points="164.321,208.266 178.664,184.963 193.007,208.266 				"/>
				<polygon fill="#8DC641" points="164.321,226.135 178.664,202.832 193.007,226.135 				"/>
			</g>
			<g>
				<polygon fill="#8DC641" points="193.007,191.985 207.35,168.682 221.693,191.985 				"/>
				<polygon fill="#8DC641" points="193.007,208.266 207.35,184.963 221.693,208.266 				"/>
				<polygon fill="#8DC641" points="193.007,226.135 207.35,202.832 221.693,226.135 				"/>
			</g>
		</g>
	</g>
	<g>
		<g>
			<g>
				<circle fill="#F6ADCA" cx="104.743" cy="180.295" r="12.101"/>
				<circle fill="#F6ADCA" cx="121.856" cy="197.409" r="12.101"/>
				<circle fill="#F6ADCA" cx="87.63" cy="197.409" r="12.101"/>
				<circle fill="#F6ADCA" cx="104.743" cy="214.522" r="12.101"/>
			</g>
			<g>
				<circle fill="#F6ADCA" cx="92.642" cy="185.308" r="12.101"/>
				<circle fill="#F6ADCA" cx="116.844" cy="185.308" r="12.101"/>
				<circle fill="#F6ADCA" cx="92.642" cy="209.509" r="12.101"/>
				<circle fill="#F6ADCA" cx="116.844" cy="209.509" r="12.101"/>
			</g>
		</g>
		<circle fill="#F26724" cx="104.743" cy="197.409" r="12.101"/>
	</g>
	<polygon fill="#FFDE11" points="25.982,165.864 14.262,197.35 29.62,197.416 23.776,228.953 45.165,188.138 28.944,187.534 
		37.985,165.916 	"/>
	<g>
		<g>
			<g>
				<path fill="#FFDE11" d="M458.822,186.382l-4.704,2.939c-0.479,0.301-1.084,0.318-1.581,0.043l-5.865-3.225l4.816,27.513h2.611
					L458.822,186.382z"/>
				<path fill="#FFDE11" d="M452.766,163.996c-11.971,0-21.676,9.705-21.676,21.676c0,15.701,9.424,17.22,11.244,27.979h5.978
					l-5.314-30.187c-0.11-0.594,0.132-1.198,0.622-1.551c0.49-0.354,1.138-0.395,1.668-0.102l7.951,4.372l6.93-4.329
					c0.524-0.328,1.194-0.316,1.706,0.033c0.512,0.348,0.771,0.965,0.659,1.574l-5.263,30.19h5.927
					c1.82-10.76,11.244-12.278,11.244-27.979C474.442,173.7,464.738,163.996,452.766,163.996z"/>
			</g>
			<path fill="#FFDE11" d="M442.622,216.776c0.006,0.222,0.017,0.438,0.017,0.667v2.811h20.255v-2.811
				c0-0.229,0.011-0.445,0.017-0.667H442.622z"/>
			<path fill="#FFDE11" d="M442.674,223.38c0.184,4.137,3.569,7.441,7.751,7.441h4.685c4.182,0,7.567-3.305,7.751-7.441H442.674z"/>
		</g>
	</g>
	<g>
		
			<rect x="254.615" y="186.982" transform="matrix(0.7071 -0.7071 0.7071 0.7071 -60.1996 253.5885)" fill="#70569E" width="42.787" height="24.959"/>
		
			<rect x="254.615" y="195.005" transform="matrix(0.7071 -0.7071 0.7071 0.7071 -60.1996 253.5885)" fill="#F6ADCA" width="42.787" height="8.914"/>
		<polygon fill="#FFDE11" points="282.312,175.51 304.067,171.404 299.96,193.159 		"/>
		<g>
			<defs>
				<polygon id="SVGID_1_" points="282.312,175.51 304.067,171.404 299.96,193.159 				"/>
			</defs>
			<clipPath id="SVGID_2_">
				<use xlink:href="#SVGID_1_"  overflow="visible"/>
			</clipPath>
			
				<rect x="298.786" y="165.911" transform="matrix(-0.7071 0.7071 -0.7071 -0.7071 639.8965 82.814)" clip-path="url(#SVGID_2_)" fill="#70569E" width="8.023" height="16.045"/>
		</g>
	</g>
	<g>
		<path fill="#F79421" d="M531.412,168.688l-18.383,51.395c-2.005,4.648,1.048,10.026,5.691,10.026h36.765
			c4.643,0,7.696-5.378,5.691-10.026l-18.383-51.395C540.506,163.382,533.701,163.382,531.412,168.688z"/>
		<path fill="#F79421" d="M563.468,230.108h-52.729c-3.263,0-5.932-2.963-5.932-6.584v0c0-3.621,2.669-6.584,5.932-6.584h52.729
			c3.263,0,5.932,2.963,5.932,6.584v0C569.4,227.146,566.73,230.108,563.468,230.108z"/>
		<g>
			<defs>
				<path id="SVGID_3_" d="M531.412,168.688l-18.383,51.395c-2.005,4.648,1.048,10.026,5.691,10.026h36.765
					c4.643,0,7.696-5.378,5.691-10.026l-18.383-51.395C540.506,163.382,533.701,163.382,531.412,168.688z"/>
			</defs>
			<clipPath id="SVGID_4_">
				<use xlink:href="#SVGID_3_"  overflow="visible"/>
			</clipPath>
			<path clip-path="url(#SVGID_4_)" fill="#FFDE11" d="M564.184,206.7h-54.047c-2.9,0-5.273-2.633-5.273-5.852v-2.926
				c0-3.219,2.373-5.852,5.273-5.852h54.047c2.9,0,5.273,2.633,5.273,5.852v2.926C569.456,204.067,567.084,206.7,564.184,206.7z"/>
		</g>
	</g>
</g>
<polygon fill="#8DC641" points="653.36,226.15 643.482,223.584 637.738,232.02 630.184,225.157 621.178,229.957 617.679,220.371 
	607.474,220.435 608.83,210.321 599.764,205.635 605.666,197.309 599.815,188.948 608.91,184.318 607.616,174.195 617.821,174.323 
	621.379,164.758 630.355,169.613 637.951,162.797 643.643,171.268 653.536,168.763 654.64,178.908 664.564,181.288 660.826,190.784 
	668.508,197.503 660.785,204.174 664.464,213.693 654.525,216.012 "/>
<g>
	<path fill="#F6ADCA" d="M819.853,222.836l22.764-22.764c1.061-1.061,0.911-2.948-0.334-4.193c0,0-10.497-6.252-15.702-11.458
		c-5.206-5.206-3.584-1.848-4.645-0.787l-22.764,22.764c-1.061,1.061-4.872-1.013,0.787,4.645s15.123,12.037,15.123,12.037
		C817.018,223.859,818.792,223.897,819.853,222.836z"/>
	<path fill="#F26724" d="M797.582,208.667L797.582,208.667c-2.178-2.178-2.442-5.48-0.585-7.337l19.87-19.87
		c1.857-1.857,5.158-1.594,7.337,0.585v0l2.377,2.377l-26.623,26.623L797.582,208.667z"/>
	<path fill="#F26724" d="M789.28,180.882l12.19,10.886l8.463,7.558l5.016-5.016l-7.558-8.463l-10.886-12.19
		c-2.422-2.712-6.301-3.349-8.438-1.213C785.93,174.581,786.568,178.46,789.28,180.882z M791.326,175.704c0.6-0.6,1.573-0.6,2.173,0
		c0.6,0.6,0.6,1.573,0,2.173c-0.6,0.6-1.573,0.6-2.173,0C790.726,177.276,790.726,176.304,791.326,175.704z"/>
</g>
<g>
	<rect x="1019.318" y="164.823" fill="#70569E" width="65.171" height="65.171"/>
	<g>
		<rect x="1048.263" y="191.907" fill="#FFFFFF" width="2.216" height="13.178"/>
		<rect x="1048.263" y="212.013" fill="#FFFFFF" width="2.216" height="13.178"/>
		<rect x="1048.263" y="170.911" fill="#FFFFFF" width="2.216" height="13.178"/>
		<rect x="1053.328" y="166.062" fill="#FFDE11" width="2.216" height="62.694"/>
	</g>
</g>
<path fill="#8DC641" d="M1137.023,166.136c-12.244,0-22.17,9.926-22.17,22.17c0,12.244,22.17,40.376,22.17,40.376
	s22.17-28.132,22.17-40.376C1159.193,176.061,1149.267,166.136,1137.023,166.136z M1137.023,197.441
	c-4.252,0-7.698-3.447-7.698-7.698c0-4.252,3.447-7.698,7.698-7.698c4.252,0,7.698,3.447,7.698,7.698
	C1144.722,193.995,1141.275,197.441,1137.023,197.441z"/>
<g>
	<rect x="698.872" y="193.811" fill="#FFDE11" width="57.553" height="35.971"/>
	<polygon fill="#F26724" points="698.872,193.811 727.648,165.035 756.425,193.811 	"/>
	<rect x="720.454" y="201.005" fill="#70569E" width="14.388" height="14.388"/>
</g>
<g>
	<polygon fill="#F79421" points="906.708,164.389 939.728,197.409 906.708,230.428 	"/>
	<rect x="873.688" y="186.402" fill="#F79421" width="41.429" height="22.013"/>
</g>
<g>
	<defs>
		<rect id="SVGID_5_" x="1189.557" y="163.953" width="66.912" height="66.912"/>
	</defs>
	<clipPath id="SVGID_6_">
		<use xlink:href="#SVGID_5_"  overflow="visible"/>
	</clipPath>
	<g clip-path="url(#SVGID_6_)">
		<circle fill="#F26724" cx="1256.469" cy="230.752" r="66.912"/>
		<path fill="#F6ADCA" d="M1256.469,275.36c-24.597,0-44.608-20.011-44.608-44.608c0-24.597,20.011-44.608,44.608-44.608
			s44.608,20.011,44.608,44.608C1301.077,255.349,1281.066,275.36,1256.469,275.36z"/>
		<path fill="#70569E" d="M1256.469,253.056c-12.298,0-22.304-10.005-22.304-22.304c0-12.298,10.005-22.304,22.304-22.304
			s22.304,10.005,22.304,22.304C1278.773,243.05,1268.767,253.056,1256.469,253.056z"/>
	</g>
</g>
<g>
	<g>
		<circle fill="#8DC641" cx="979.523" cy="216.27" r="9.431"/>
		<circle fill="#FFDE11" cx="979.523" cy="197.409" r="9.431"/>
		<circle fill="#F26724" cx="979.523" cy="178.547" r="9.431"/>
	</g>
</g>
</svg>
