<?xml version="1.0" encoding="UTF-8" standalone="no"?>
<!-- Generator: Adobe Illustrator 17.0.0, SVG Export Plug-In . SVG Version: 6.00 Build 0)  -->

<svg
   xmlns:dc="http://purl.org/dc/elements/1.1/"
   xmlns:cc="http://creativecommons.org/ns#"
   xmlns:rdf="http://www.w3.org/1999/02/22-rdf-syntax-ns#"
   xmlns:svg="http://www.w3.org/2000/svg"
   xmlns="http://www.w3.org/2000/svg"
   xmlns:xlink="http://www.w3.org/1999/xlink"
   xmlns:sodipodi="http://sodipodi.sourceforge.net/DTD/sodipodi-0.dtd"
   xmlns:inkscape="http://www.inkscape.org/namespaces/inkscape"
   version="1.1"
   id="Layer_1"
   x="0px"
   y="0px"
   viewBox="0 0 907.684 477.26399"
   enable-background="new 0 0 907.684 769.715"
   xml:space="preserve"
   sodipodi:docname="volver_a_la_calle_logo_top_mobile.svg"
   inkscape:version="0.92.3 (2405546, 2018-03-11)"><metadata
   id="metadata453"><rdf:RDF><cc:Work
       rdf:about=""><dc:format>image/svg+xml</dc:format><dc:type
         rdf:resource="http://purl.org/dc/dcmitype/StillImage" /><dc:title></dc:title></cc:Work></rdf:RDF></metadata><defs
   id="defs451" /><sodipodi:namedview
   pagecolor="#ffffff"
   bordercolor="#666666"
   borderopacity="1"
   objecttolerance="10"
   gridtolerance="10"
   guidetolerance="10"
   inkscape:pageopacity="0"
   inkscape:pageshadow="2"
   inkscape:window-width="1920"
   inkscape:window-height="1052"
   id="namedview449"
   showgrid="false"
   fit-margin-top="0"
   fit-margin-left="0"
   fit-margin-right="0"
   fit-margin-bottom="0"
   inkscape:zoom="0.30660699"
   inkscape:cx="453.842"
   inkscape:cy="92.4065"
   inkscape:window-x="0"
   inkscape:window-y="0"
   inkscape:window-maximized="1"
   inkscape:current-layer="Layer_1" />
<g
   id="g18">
	<g
   id="g16">
		<path
   d="m 761.205,5.556 h 3.854 v 17.517 h -3.854 z"
   id="path2"
   inkscape:connector-curvature="0"
   style="fill:#ffffff" />
		<path
   d="m 774.439,5.556 h 6.831 c 5.506,0 9.31,3.778 9.31,8.708 v 0.05 c 0,4.93 -3.804,8.759 -9.31,8.759 h -6.831 z m 6.831,14.038 c 3.153,0 5.28,-2.127 5.28,-5.229 v -0.051 c 0,-3.103 -2.127,-5.28 -5.28,-5.28 h -2.978 v 10.561 h 2.978 z"
   id="path4"
   inkscape:connector-curvature="0"
   style="fill:#ffffff" />
		<path
   d="m 799.006,5.556 h 13.213 v 3.428 h -9.384 v 3.554 h 8.258 v 3.429 h -8.258 v 3.678 h 9.509 v 3.429 h -13.338 z"
   id="path6"
   inkscape:connector-curvature="0"
   style="fill:#ffffff" />
		<path
   d="m 826.778,5.43 h 3.554 l 7.508,17.643 h -4.029 l -1.602,-3.929 h -7.407 l -1.602,3.929 h -3.929 z m 4.055,10.31 -2.328,-5.681 -2.327,5.681 z"
   id="path8"
   inkscape:connector-curvature="0"
   style="fill:#ffffff" />
		<path
   d="m 847.368,9.108 h -5.33 V 5.556 h 14.515 v 3.553 h -5.331 v 13.964 h -3.854 z"
   id="path10"
   inkscape:connector-curvature="0"
   style="fill:#ffffff" />
		<path
   d="m 862.977,14.364 v -0.051 c 0,-4.979 3.93,-9.059 9.335,-9.059 5.405,0 9.283,4.029 9.283,9.009 v 0.05 c 0,4.98 -3.929,9.059 -9.334,9.059 -5.405,0 -9.284,-4.028 -9.284,-9.008 z m 14.59,0 v -0.051 c 0,-3.003 -2.202,-5.505 -5.306,-5.505 -3.103,0 -5.255,2.452 -5.255,5.455 v 0.05 c 0,3.003 2.202,5.506 5.306,5.506 3.103,0 5.255,-2.453 5.255,-5.455 z M 873.763,0 l 3.278,1.426 -3.403,2.503 h -2.903 z"
   id="path12"
   inkscape:connector-curvature="0"
   style="fill:#ffffff" />
		<path
   d="m 890.022,5.556 h 3.554 l 8.208,10.785 V 5.556 h 3.804 v 17.517 h -3.278 l -8.483,-11.136 v 11.136 h -3.804 V 5.556 Z"
   id="path14"
   inkscape:connector-curvature="0"
   style="fill:#ffffff" />
	</g>
</g>
<g
   id="g60">
	<g
   id="g58">
		<path
   d="m 1.328,14.364 v -0.051 c 0,-4.979 3.754,-9.059 9.134,-9.059 3.303,0 5.28,1.102 6.906,2.703 l -2.452,2.827 C 13.564,9.558 12.188,8.807 10.437,8.807 c -2.953,0 -5.08,2.452 -5.08,5.455 v 0.05 c 0,3.003 2.077,5.506 5.08,5.506 2.002,0 3.229,-0.801 4.604,-2.053 l 2.453,2.478 C 15.692,22.17 13.69,23.371 10.312,23.371 5.156,23.372 1.328,19.394 1.328,14.364 Z"
   id="path20"
   inkscape:connector-curvature="0"
   style="fill:#ffffff" />
		<path
   d="m 24.294,14.364 v -0.051 c 0,-4.979 3.929,-9.059 9.334,-9.059 5.405,0 9.284,4.029 9.284,9.009 v 0.05 c 0,4.98 -3.929,9.059 -9.334,9.059 -5.405,0 -9.284,-4.028 -9.284,-9.008 z m 14.589,0 v -0.051 c 0,-3.003 -2.202,-5.505 -5.305,-5.505 -3.103,0 -5.255,2.452 -5.255,5.455 v 0.05 c 0,3.003 2.202,5.506 5.305,5.506 3.104,0 5.255,-2.453 5.255,-5.455 z"
   id="path22"
   inkscape:connector-curvature="0"
   style="fill:#ffffff" />
		<path
   d="m 51.339,5.556 h 3.554 l 8.208,10.785 V 5.556 h 3.804 V 23.073 H 63.627 L 55.144,11.937 V 23.073 H 51.34 V 5.556 Z"
   id="path24"
   inkscape:connector-curvature="0"
   style="fill:#ffffff" />
		<path
   d="m 74.605,5.556 h 4.254 l 4.579,12.337 4.58,-12.337 h 4.154 L 85.09,23.197 h -3.403 z"
   id="path26"
   inkscape:connector-curvature="0"
   style="fill:#ffffff" />
		<path
   d="m 97.972,14.364 v -0.051 c 0,-4.979 3.929,-9.059 9.334,-9.059 5.405,0 9.284,4.029 9.284,9.009 v 0.05 c 0,4.98 -3.929,9.059 -9.334,9.059 -5.405,0 -9.284,-4.028 -9.284,-9.008 z m 14.59,0 v -0.051 c 0,-3.003 -2.202,-5.505 -5.305,-5.505 -3.103,0 -5.255,2.452 -5.255,5.455 v 0.05 c 0,3.003 2.202,5.506 5.306,5.506 3.101,0 5.254,-2.453 5.254,-5.455 z"
   id="path28"
   inkscape:connector-curvature="0"
   style="fill:#ffffff" />
		<path
   d="m 124.241,14.364 v -0.051 c 0,-4.979 3.754,-9.059 9.134,-9.059 3.303,0 5.28,1.102 6.906,2.703 l -2.452,2.827 c -1.352,-1.226 -2.728,-1.977 -4.479,-1.977 -2.953,0 -5.08,2.452 -5.08,5.455 v 0.05 c 0,3.003 2.077,5.506 5.08,5.506 2.002,0 3.229,-0.801 4.604,-2.053 l 2.453,2.478 c -1.802,1.927 -3.804,3.128 -7.182,3.128 -5.156,0.001 -8.984,-3.977 -8.984,-9.007 z"
   id="path30"
   inkscape:connector-curvature="0"
   style="fill:#ffffff" />
		<path
   d="m 154.489,5.43 h 3.553 l 7.508,17.643 h -4.029 l -1.602,-3.929 h -7.407 l -1.602,3.929 h -3.929 z m 4.054,10.31 -2.328,-5.681 -2.327,5.681 z"
   id="path32"
   inkscape:connector-curvature="0"
   style="fill:#ffffff" />
		<path
   d="m 175.079,9.108 h -5.331 V 5.556 h 14.515 v 3.553 h -5.331 v 13.964 h -3.854 V 9.108 Z"
   id="path34"
   inkscape:connector-curvature="0"
   style="fill:#ffffff" />
		<path
   d="m 190.688,14.364 v -0.051 c 0,-4.979 3.929,-9.059 9.334,-9.059 5.405,0 9.284,4.029 9.284,9.009 v 0.05 c 0,4.98 -3.929,9.059 -9.334,9.059 -5.405,0 -9.284,-4.028 -9.284,-9.008 z m 14.589,0 v -0.051 c 0,-3.003 -2.202,-5.505 -5.305,-5.505 -3.103,0 -5.255,2.452 -5.255,5.455 v 0.05 c 0,3.003 2.202,5.506 5.306,5.506 3.102,0 5.254,-2.453 5.254,-5.455 z"
   id="path36"
   inkscape:connector-curvature="0"
   style="fill:#ffffff" />
		<path
   d="m 217.733,5.556 h 8.008 c 2.227,0 3.954,0.625 5.105,1.776 0.976,0.976 1.501,2.353 1.501,4.004 v 0.05 c 0,2.828 -1.526,4.604 -3.753,5.431 l 4.279,6.256 h -4.504 l -3.753,-5.605 h -3.028 v 5.605 h -3.854 V 5.556 Z m 7.757,8.507 c 1.877,0 2.953,-1.001 2.953,-2.478 v -0.05 c 0,-1.651 -1.151,-2.503 -3.028,-2.503 h -3.829 v 5.03 h 3.904 z"
   id="path38"
   inkscape:connector-curvature="0"
   style="fill:#ffffff" />
		<path
   d="m 241,5.556 h 3.854 V 23.073 H 241 Z"
   id="path40"
   inkscape:connector-curvature="0"
   style="fill:#ffffff" />
		<path
   d="m 260.24,5.43 h 3.553 l 7.508,17.643 h -4.029 l -1.602,-3.929 h -7.407 l -1.602,3.929 h -3.929 z m 4.054,10.31 -2.328,-5.681 -2.327,5.681 z"
   id="path42"
   inkscape:connector-curvature="0"
   style="fill:#ffffff" />
		<path
   d="m 291.51,5.556 h 6.832 c 5.505,0 9.309,3.778 9.309,8.708 v 0.05 c 0,4.93 -3.804,8.759 -9.309,8.759 h -6.832 z m 6.832,14.038 c 3.153,0 5.28,-2.127 5.28,-5.229 v -0.051 c 0,-3.103 -2.127,-5.28 -5.28,-5.28 h -2.978 v 10.561 h 2.978 z"
   id="path44"
   inkscape:connector-curvature="0"
   style="fill:#ffffff" />
		<path
   d="m 316.078,5.556 h 13.213 v 3.428 h -9.384 v 3.554 h 8.258 v 3.429 h -8.258 v 3.678 h 9.509 v 3.429 h -13.338 z"
   id="path46"
   inkscape:connector-curvature="0"
   style="fill:#ffffff" />
		<path
   d="m 350.527,5.556 h 3.854 v 17.517 h -3.854 z"
   id="path48"
   inkscape:connector-curvature="0"
   style="fill:#ffffff" />
		<path
   d="m 363.762,5.556 h 6.832 c 5.505,0 9.309,3.778 9.309,8.708 v 0.05 c 0,4.93 -3.804,8.759 -9.309,8.759 h -6.832 z m 6.832,14.038 c 3.153,0 5.28,-2.127 5.28,-5.229 v -0.051 c 0,-3.103 -2.127,-5.28 -5.28,-5.28 h -2.978 v 10.561 h 2.978 z"
   id="path50"
   inkscape:connector-curvature="0"
   style="fill:#ffffff" />
		<path
   d="m 388.33,5.556 h 13.213 v 3.428 h -9.384 v 3.554 h 8.258 v 3.429 h -8.258 v 3.678 h 9.509 v 3.429 H 388.33 Z"
   id="path52"
   inkscape:connector-curvature="0"
   style="fill:#ffffff" />
		<path
   d="m 416.102,5.43 h 3.554 l 7.507,17.643 h -4.029 l -1.602,-3.929 h -7.407 l -1.602,3.929 h -3.929 z m 4.053,10.31 -2.327,-5.681 -2.327,5.681 z"
   id="path54"
   inkscape:connector-curvature="0"
   style="fill:#ffffff" />
		<path
   d="m 433.412,20.52 2.277,-2.728 c 1.576,1.302 3.228,2.127 5.23,2.127 1.577,0 2.527,-0.625 2.527,-1.651 v -0.05 c 0,-0.977 -0.601,-1.477 -3.528,-2.228 -3.528,-0.9 -5.806,-1.877 -5.806,-5.355 v -0.05 c 0,-3.178 2.552,-5.28 6.131,-5.28 2.553,0 4.73,0.801 6.506,2.228 l -2.002,2.902 c -1.551,-1.076 -3.078,-1.727 -4.554,-1.727 -1.477,0 -2.252,0.676 -2.252,1.526 v 0.051 c 0,1.15 0.751,1.526 3.779,2.302 3.553,0.926 5.555,2.202 5.555,5.255 v 0.051 c 0,3.478 -2.652,5.43 -6.431,5.43 -2.652,-0.001 -5.33,-0.927 -7.432,-2.803 z"
   id="path56"
   inkscape:connector-curvature="0"
   style="fill:#ffffff" />
	</g>
</g>
<rect
   x="459.68399"
   y="15.331"
   width="289"
   height="3"
   id="rect62"
   style="fill:#ffffff" />
<g
   id="g76">
	<g
   id="g68">
		<circle
   cx="558.60797"
   cy="159.41499"
   r="12.746"
   id="circle64"
   style="fill:#f6adca" />
		<circle
   cx="600.03198"
   cy="159.41499"
   r="12.746"
   id="circle66"
   style="fill:#f6adca" />
	</g>
	<rect
   x="528.33502"
   y="70.190002"
   width="101.971"
   height="89.224998"
   id="rect70"
   style="fill:#f26724" />
	<rect
   x="545.862"
   y="87.904999"
   width="25.493"
   height="25.493"
   id="rect72"
   style="fill:#ffde11" />
	<rect
   x="587.28601"
   y="87.904999"
   width="25.493"
   height="25.493"
   id="rect74"
   style="fill:#ffde11" />
</g>
<g
   id="g108">
	<g
   id="g106">
		<path
   d="m 4.22,225.148 h 19.123 l 29.668,75.647 29.528,-75.647 h 18.701 l -40.917,99.13 H 45.138 Z"
   id="path78"
   inkscape:connector-curvature="0"
   style="fill:#ffffff" />
		<path
   d="m 130.773,274.643 v -0.281 c 0,-27.7 21.373,-50.9 51.604,-50.9 30.231,0 51.322,22.919 51.322,50.619 v 0.281 c 0,27.7 -21.373,50.901 -51.604,50.901 -30.231,-10e-4 -51.322,-22.92 -51.322,-50.62 z m 84.787,0 v -0.281 c 0,-19.123 -13.92,-35.012 -33.465,-35.012 -19.545,0 -33.184,15.607 -33.184,34.73 v 0.281 c 0,19.123 13.92,35.012 33.465,35.012 19.545,0 33.184,-15.607 33.184,-34.73 z"
   id="path80"
   inkscape:connector-curvature="0"
   style="fill:#ffffff" />
		<path
   d="m 277.713,225.148 h 17.295 v 82.678 h 51.745 v 15.749 h -69.04 z"
   id="path82"
   inkscape:connector-curvature="0"
   style="fill:#ffffff" />
		<path
   d="m 363.206,225.148 h 19.123 l 29.668,75.647 29.528,-75.647 h 18.701 l -40.917,99.13 h -15.186 z"
   id="path84"
   inkscape:connector-curvature="0"
   style="fill:#ffffff" />
		<path
   d="m 500.164,225.148 h 72.977 v 15.467 h -55.682 v 25.591 h 49.354 v 15.467 h -49.354 v 26.435 h 56.385 v 15.467 h -73.68 z"
   id="path86"
   inkscape:connector-curvature="0"
   style="fill:#ffffff" />
		<path
   d="m 617.435,225.148 h 43.87 c 12.374,0 22.076,3.655 28.403,9.842 5.203,5.343 8.155,12.655 8.155,21.232 v 0.281 c 0,16.17 -9.702,25.872 -23.481,29.81 l 26.575,37.262 H 680.568 L 656.383,289.266 H 634.73 v 34.309 h -17.295 z m 42.606,48.791 c 12.373,0 20.247,-6.468 20.247,-16.451 v -0.281 c 0,-10.546 -7.593,-16.311 -20.388,-16.311 h -25.17 v 33.043 z"
   id="path88"
   inkscape:connector-curvature="0"
   style="fill:#ffffff" />
		<path
   d="m 842.273,224.445 h 16.03 l 43.308,99.13 h -18.279 l -9.983,-23.763 h -46.542 l -10.124,23.763 h -17.717 z m 24.748,60.04 -17.014,-39.371 -16.874,39.371 z"
   id="path90"
   inkscape:connector-curvature="0"
   style="fill:#ffffff" />
		<path
   d="m 12.656,377.148 h 17.295 v 82.678 h 51.745 v 15.749 h -69.04 z"
   id="path92"
   inkscape:connector-curvature="0"
   style="fill:#ffffff" />
		<path
   d="m 161.001,376.445 h 16.03 l 43.308,99.13 H 202.06 l -9.983,-23.764 h -46.542 l -10.124,23.764 h -17.717 z m 24.747,60.04 -17.014,-39.371 -16.874,39.371 z"
   id="path94"
   inkscape:connector-curvature="0"
   style="fill:#ffffff" />
		<path
   d="m 327.908,426.643 v -0.281 c 0,-27.981 20.951,-50.9 50.76,-50.9 18.139,0 29.106,6.327 38.527,15.326 l -11.108,12.796 c -7.874,-7.312 -16.311,-12.233 -27.56,-12.233 -18.842,0 -32.481,15.467 -32.481,34.73 v 0.281 c 0,19.264 13.639,35.012 32.481,35.012 12.092,0 19.826,-4.921 28.263,-12.795 l 11.108,11.248 c -10.265,10.687 -21.513,17.437 -39.933,17.437 -28.685,-0.001 -50.057,-22.359 -50.057,-50.621 z"
   id="path96"
   inkscape:connector-curvature="0"
   style="fill:#ffffff" />
		<path
   d="m 497.345,376.445 h 16.03 l 43.308,99.13 h -18.279 l -9.983,-23.764 h -46.542 l -10.124,23.764 h -17.717 z m 24.748,60.04 -17.014,-39.371 -16.874,39.371 z"
   id="path98"
   inkscape:connector-curvature="0"
   style="fill:#ffffff" />
		<path
   d="m 599.994,377.148 h 17.295 v 82.678 h 51.745 v 15.749 h -69.04 z"
   id="path100"
   inkscape:connector-curvature="0"
   style="fill:#ffffff" />
		<path
   d="m 713.467,377.148 h 17.295 v 82.678 h 51.744 v 15.749 h -69.039 z"
   id="path102"
   inkscape:connector-curvature="0"
   style="fill:#ffffff" />
		<path
   d="m 826.941,377.148 h 72.977 v 15.467 h -55.682 v 25.591 h 49.354 v 15.467 h -49.354 v 26.435 h 56.385 v 15.468 h -73.68 z"
   id="path104"
   inkscape:connector-curvature="0"
   style="fill:#ffffff" />
	</g>
</g>
<g
   id="g128">
	<g
   id="g126">
		<g
   id="g116">
			<polygon
   points="292.869,112.834 248.748,112.834 270.808,76.991 "
   id="polygon110"
   style="fill:#8dc641" />
			<polygon
   points="292.869,137.876 248.748,137.876 270.808,102.033 "
   id="polygon112"
   style="fill:#8dc641" />
			<polygon
   points="292.869,165.361 248.748,165.361 270.808,129.518 "
   id="polygon114"
   style="fill:#8dc641" />
		</g>
		<g
   id="g124">
			<polygon
   points="336.991,112.834 292.869,112.834 314.93,76.991 "
   id="polygon118"
   style="fill:#8dc641" />
			<polygon
   points="336.991,137.876 292.869,137.876 314.93,102.033 "
   id="polygon120"
   style="fill:#8dc641" />
			<polygon
   points="336.991,165.361 292.869,165.361 314.93,129.518 "
   id="polygon122"
   style="fill:#8dc641" />
		</g>
	</g>
</g>
<g
   id="g154">
	<g
   id="g150">
		<g
   id="g138">
			<circle
   cx="148.13901"
   cy="94.853996"
   r="18.613001"
   id="circle130"
   style="fill:#f6adca" />
			<circle
   cx="174.46201"
   cy="121.176"
   r="18.613001"
   id="circle132"
   style="fill:#f6adca" />
			<circle
   cx="121.817"
   cy="121.176"
   r="18.613001"
   id="circle134"
   style="fill:#f6adca" />
			<circle
   cx="148.13901"
   cy="147.498"
   r="18.613001"
   id="circle136"
   style="fill:#f6adca" />
		</g>
		<g
   id="g148">
			<circle
   cx="129.52699"
   cy="102.563"
   r="18.613001"
   id="circle140"
   style="fill:#f6adca" />
			<circle
   cx="166.752"
   cy="102.563"
   r="18.613001"
   id="circle142"
   style="fill:#f6adca" />
			<circle
   cx="129.52699"
   cy="139.789"
   r="18.613001"
   id="circle144"
   style="fill:#f6adca" />
			<circle
   cx="166.752"
   cy="139.789"
   r="18.613001"
   id="circle146"
   style="fill:#f6adca" />
		</g>
	</g>
	<circle
   cx="148.13901"
   cy="121.176"
   r="18.613001"
   id="circle152"
   style="fill:#f26724" />
</g>
<polygon
   points="23.622,121.187 14.634,169.694 47.531,106.917 22.582,105.988 36.489,72.737 18.026,72.658 0,121.085 "
   id="polygon156"
   style="fill:#ffde11" />
<g
   id="g170">
	<g
   id="g168">
		<g
   id="g162">
			<path
   d="m 728.633,104.215 -7.236,4.52 c -0.737,0.462 -1.668,0.489 -2.432,0.067 l -9.021,-4.961 7.407,42.318 h 4.016 z"
   id="path158"
   inkscape:connector-curvature="0"
   style="fill:#ffde11" />
			<path
   d="m 719.319,69.783 c -18.413,0 -33.34,14.927 -33.34,33.34 0,24.15 14.495,26.486 17.294,43.036 h 9.195 l -8.173,-46.43 c -0.169,-0.913 0.203,-1.843 0.957,-2.386 0.753,-0.545 1.751,-0.607 2.566,-0.157 l 12.23,6.725 10.659,-6.658 c 0.806,-0.505 1.837,-0.486 2.624,0.05 0.787,0.535 1.185,1.485 1.013,2.421 l -8.094,46.435 h 9.116 c 2.799,-16.55 17.294,-18.886 17.294,-43.036 -10e-4,-18.413 -14.928,-33.34 -33.341,-33.34 z"
   id="path160"
   inkscape:connector-curvature="0"
   style="fill:#ffde11" />
		</g>
		<path
   d="m 703.716,150.966 c 0.009,0.342 0.026,0.673 0.026,1.026 v 4.324 h 31.155 v -4.324 c 0,-0.353 0.017,-0.684 0.026,-1.026 z"
   id="path164"
   inkscape:connector-curvature="0"
   style="fill:#ffde11" />
		<path
   d="m 703.795,161.123 c 0.283,6.362 5.489,11.446 11.921,11.446 h 7.205 c 6.432,0 11.639,-5.083 11.922,-11.446 z"
   id="path166"
   inkscape:connector-curvature="0"
   style="fill:#ffde11" />
	</g>
</g>
<g
   id="g188">
	
		<rect
   x="396.599"
   y="105.139"
   transform="matrix(0.7071,-0.7071,0.7071,0.7071,37.8819,340.1226)"
   width="65.810997"
   height="38.389999"
   id="rect172"
   style="fill:#f6adca" />
	
		<rect
   x="396.599"
   y="117.478"
   transform="matrix(0.7071,-0.7071,0.7071,0.7071,37.8819,340.1226)"
   width="65.810997"
   height="13.711"
   id="rect174"
   style="fill:#f26724" />
	<polygon
   points="466.346,114.639 439.2,87.493 472.662,81.177 "
   id="polygon176"
   style="fill:#ffde11" />
	<g
   id="g186">
		<defs
   id="defs179">
			<polygon
   id="SVGID_1_"
   points="466.346,114.639 439.2,87.493 472.662,81.177 " />
		</defs>
		<clipPath
   id="SVGID_2_">
			<use
   xlink:href="#SVGID_1_"
   overflow="visible"
   id="use181"
   style="overflow:visible"
   x="0"
   y="0"
   width="100%"
   height="100%" />
		</clipPath>
		
			<rect
   x="464.539"
   y="72.730003"
   transform="matrix(-0.7071,0.7071,-0.7071,-0.7071,863.7031,-187.6191)"
   clip-path="url(#SVGID_2_)"
   width="12.34"
   height="24.679001"
   id="rect184"
   style="fill:#70569e" />
	</g>
</g>
<g
   id="g204">
	<path
   d="m 849.254,77 -28.275,79.051 c -3.084,7.149 1.612,15.422 8.753,15.422 h 56.549 c 7.142,0 11.837,-8.272 8.753,-15.422 L 866.761,77 c -3.52,-8.16 -13.987,-8.16 -17.507,0 z"
   id="path190"
   inkscape:connector-curvature="0"
   style="fill:#f79421" />
	<path
   d="m 898.56,171.472 h -81.104 c -5.018,0 -9.124,-4.557 -9.124,-10.126 v 0 c 0,-5.569 4.106,-10.126 9.124,-10.126 h 81.104 c 5.018,0 9.124,4.557 9.124,10.126 v 0 c 0,5.569 -4.106,10.126 -9.124,10.126 z"
   id="path192"
   inkscape:connector-curvature="0"
   style="fill:#f79421" />
	<g
   id="g202">
		<defs
   id="defs195">
			<path
   id="SVGID_3_"
   d="m 849.254,77 -28.275,79.051 c -3.084,7.149 1.612,15.422 8.753,15.422 h 56.549 c 7.142,0 11.837,-8.272 8.753,-15.422 L 866.761,77 c -3.52,-8.16 -13.987,-8.16 -17.507,0 z"
   inkscape:connector-curvature="0" />
		</defs>
		<clipPath
   id="SVGID_4_">
			<use
   xlink:href="#SVGID_3_"
   overflow="visible"
   id="use197"
   style="overflow:visible"
   x="0"
   y="0"
   width="100%"
   height="100%" />
		</clipPath>
		<path
   clip-path="url(#SVGID_4_)"
   d="M 899.661,135.467 H 816.53 c -4.461,0 -8.11,-4.051 -8.11,-9.001 v -4.501 c 0,-4.951 3.65,-9.001 8.11,-9.001 h 83.131 c 4.461,0 8.11,4.051 8.11,9.001 v 4.501 c 0,4.951 -3.65,9.001 -8.11,9.001 z"
   id="path200"
   inkscape:connector-curvature="0"
   style="fill:#ffde11" />
	</g>
</g>



</svg>