<?xml version="1.0" encoding="utf-8"?>
<!-- Generator: Adobe Illustrator 17.0.0, SVG Export Plug-In . SVG Version: 6.00 Build 0)  -->
<!DOCTYPE svg PUBLIC "-//W3C//DTD SVG 1.1//EN" "http://www.w3.org/Graphics/SVG/1.1/DTD/svg11.dtd">
<svg version="1.1" id="Layer_1" xmlns="http://www.w3.org/2000/svg" xmlns:xlink="http://www.w3.org/1999/xlink" x="0px" y="0px"
	 width="100%" height="100%" viewBox="0 0 907.684 769.715" enable-background="new 0 0 907.684 769.715"
	 xml:space="preserve">
<g>
	<g>
		<path fill="#FFFFFF" d="M761.205,5.556h3.854v17.517h-3.854V5.556z"/>
		<path fill="#FFFFFF" d="M774.439,5.556h6.831c5.506,0,9.31,3.778,9.31,8.708v0.05c0,4.93-3.804,8.759-9.31,8.759h-6.831V5.556z
			 M781.27,19.594c3.153,0,5.28-2.127,5.28-5.229v-0.051c0-3.103-2.127-5.28-5.28-5.28h-2.978v10.561H781.27z"/>
		<path fill="#FFFFFF" d="M799.006,5.556h13.213v3.428h-9.384v3.554h8.258v3.429h-8.258v3.678h9.509v3.429h-13.338V5.556z"/>
		<path fill="#FFFFFF" d="M826.778,5.43h3.554l7.508,17.643h-4.029l-1.602-3.929h-7.407l-1.602,3.929h-3.929L826.778,5.43z
			 M830.833,15.74l-2.328-5.681l-2.327,5.681H830.833z"/>
		<path fill="#FFFFFF" d="M847.368,9.108h-5.33V5.556h14.515v3.553h-5.331v13.964h-3.854V9.108z"/>
		<path fill="#FFFFFF" d="M862.977,14.364v-0.051c0-4.979,3.93-9.059,9.335-9.059s9.283,4.029,9.283,9.009v0.05
			c0,4.98-3.929,9.059-9.334,9.059S862.977,19.344,862.977,14.364z M877.567,14.364v-0.051c0-3.003-2.202-5.505-5.306-5.505
			c-3.103,0-5.255,2.452-5.255,5.455v0.05c0,3.003,2.202,5.506,5.306,5.506C875.415,19.819,877.567,17.366,877.567,14.364z
			 M873.763,0l3.278,1.426l-3.403,2.503h-2.903L873.763,0z"/>
		<path fill="#FFFFFF" d="M890.022,5.556h3.554l8.208,10.785V5.556h3.804v17.517h-3.278l-8.483-11.136v11.136h-3.804V5.556z"/>
	</g>
</g>
<g>
	<g>
		<path fill="#FFFFFF" d="M1.328,14.364v-0.051c0-4.979,3.754-9.059,9.134-9.059c3.303,0,5.28,1.102,6.906,2.703l-2.452,2.827
			c-1.352-1.226-2.728-1.977-4.479-1.977c-2.953,0-5.08,2.452-5.08,5.455v0.05c0,3.003,2.077,5.506,5.08,5.506
			c2.002,0,3.229-0.801,4.604-2.053l2.453,2.478c-1.802,1.927-3.804,3.128-7.182,3.128C5.156,23.372,1.328,19.394,1.328,14.364z"/>
		<path fill="#FFFFFF" d="M24.294,14.364v-0.051c0-4.979,3.929-9.059,9.334-9.059s9.284,4.029,9.284,9.009v0.05
			c0,4.98-3.929,9.059-9.334,9.059S24.294,19.344,24.294,14.364z M38.883,14.364v-0.051c0-3.003-2.202-5.505-5.305-5.505
			s-5.255,2.452-5.255,5.455v0.05c0,3.003,2.202,5.506,5.305,5.506C36.732,19.819,38.883,17.366,38.883,14.364z"/>
		<path fill="#FFFFFF" d="M51.339,5.556h3.554l8.208,10.785V5.556h3.804v17.517h-3.278l-8.483-11.136v11.136h-3.804V5.556z"/>
		<path fill="#FFFFFF" d="M74.605,5.556h4.254l4.579,12.337l4.58-12.337h4.154L85.09,23.197h-3.403L74.605,5.556z"/>
		<path fill="#FFFFFF" d="M97.972,14.364v-0.051c0-4.979,3.929-9.059,9.334-9.059s9.284,4.029,9.284,9.009v0.05
			c0,4.98-3.929,9.059-9.334,9.059S97.972,19.344,97.972,14.364z M112.562,14.364v-0.051c0-3.003-2.202-5.505-5.305-5.505
			s-5.255,2.452-5.255,5.455v0.05c0,3.003,2.202,5.506,5.306,5.506C110.409,19.819,112.562,17.366,112.562,14.364z"/>
		<path fill="#FFFFFF" d="M124.241,14.364v-0.051c0-4.979,3.754-9.059,9.134-9.059c3.303,0,5.28,1.102,6.906,2.703l-2.452,2.827
			c-1.352-1.226-2.728-1.977-4.479-1.977c-2.953,0-5.08,2.452-5.08,5.455v0.05c0,3.003,2.077,5.506,5.08,5.506
			c2.002,0,3.229-0.801,4.604-2.053l2.453,2.478c-1.802,1.927-3.804,3.128-7.182,3.128
			C128.069,23.372,124.241,19.394,124.241,14.364z"/>
		<path fill="#FFFFFF" d="M154.489,5.43h3.553l7.508,17.643h-4.029l-1.602-3.929h-7.407l-1.602,3.929h-3.929L154.489,5.43z
			 M158.543,15.74l-2.328-5.681l-2.327,5.681H158.543z"/>
		<path fill="#FFFFFF" d="M175.079,9.108h-5.331V5.556h14.515v3.553h-5.331v13.964h-3.854V9.108z"/>
		<path fill="#FFFFFF" d="M190.688,14.364v-0.051c0-4.979,3.929-9.059,9.334-9.059s9.284,4.029,9.284,9.009v0.05
			c0,4.98-3.929,9.059-9.334,9.059S190.688,19.344,190.688,14.364z M205.277,14.364v-0.051c0-3.003-2.202-5.505-5.305-5.505
			s-5.255,2.452-5.255,5.455v0.05c0,3.003,2.202,5.506,5.306,5.506C203.125,19.819,205.277,17.366,205.277,14.364z"/>
		<path fill="#FFFFFF" d="M217.733,5.556h8.008c2.227,0,3.954,0.625,5.105,1.776c0.976,0.976,1.501,2.353,1.501,4.004v0.05
			c0,2.828-1.526,4.604-3.753,5.431l4.279,6.256h-4.504l-3.753-5.605h-3.028v5.605h-3.854V5.556z M225.49,14.063
			c1.877,0,2.953-1.001,2.953-2.478v-0.05c0-1.651-1.151-2.503-3.028-2.503h-3.829v5.03H225.49z"/>
		<path fill="#FFFFFF" d="M241,5.556h3.854v17.517H241V5.556z"/>
		<path fill="#FFFFFF" d="M260.24,5.43h3.553l7.508,17.643h-4.029l-1.602-3.929h-7.407l-1.602,3.929h-3.929L260.24,5.43z
			 M264.294,15.74l-2.328-5.681l-2.327,5.681H264.294z"/>
		<path fill="#FFFFFF" d="M291.51,5.556h6.832c5.505,0,9.309,3.778,9.309,8.708v0.05c0,4.93-3.804,8.759-9.309,8.759h-6.832V5.556z
			 M298.342,19.594c3.153,0,5.28-2.127,5.28-5.229v-0.051c0-3.103-2.127-5.28-5.28-5.28h-2.978v10.561H298.342z"/>
		<path fill="#FFFFFF" d="M316.078,5.556h13.213v3.428h-9.384v3.554h8.258v3.429h-8.258v3.678h9.509v3.429h-13.338V5.556z"/>
		<path fill="#FFFFFF" d="M350.527,5.556h3.854v17.517h-3.854V5.556z"/>
		<path fill="#FFFFFF" d="M363.762,5.556h6.832c5.505,0,9.309,3.778,9.309,8.708v0.05c0,4.93-3.804,8.759-9.309,8.759h-6.832V5.556z
			 M370.594,19.594c3.153,0,5.28-2.127,5.28-5.229v-0.051c0-3.103-2.127-5.28-5.28-5.28h-2.978v10.561H370.594z"/>
		<path fill="#FFFFFF" d="M388.33,5.556h13.213v3.428h-9.384v3.554h8.258v3.429h-8.258v3.678h9.509v3.429H388.33V5.556z"/>
		<path fill="#FFFFFF" d="M416.102,5.43h3.554l7.507,17.643h-4.029l-1.602-3.929h-7.407l-1.602,3.929h-3.929L416.102,5.43z
			 M420.155,15.74l-2.327-5.681l-2.327,5.681H420.155z"/>
		<path fill="#FFFFFF" d="M433.412,20.52l2.277-2.728c1.576,1.302,3.228,2.127,5.23,2.127c1.577,0,2.527-0.625,2.527-1.651v-0.05
			c0-0.977-0.601-1.477-3.528-2.228c-3.528-0.9-5.806-1.877-5.806-5.355v-0.05c0-3.178,2.552-5.28,6.131-5.28
			c2.553,0,4.73,0.801,6.506,2.228l-2.002,2.902c-1.551-1.076-3.078-1.727-4.554-1.727c-1.477,0-2.252,0.676-2.252,1.526v0.051
			c0,1.15,0.751,1.526,3.779,2.302c3.553,0.926,5.555,2.202,5.555,5.255v0.051c0,3.478-2.652,5.43-6.431,5.43
			C438.192,23.322,435.514,22.396,433.412,20.52z"/>
	</g>
</g>
<rect x="459.684" y="15.331" fill="#FFFFFF" width="289" height="3"/>
<g>
	<g>
		<circle fill="#F6ADCA" cx="558.608" cy="159.415" r="12.746"/>
		<circle fill="#F6ADCA" cx="600.032" cy="159.415" r="12.746"/>
	</g>
	<rect x="528.335" y="70.19" fill="#F26724" width="101.971" height="89.225"/>
	<rect x="545.862" y="87.905" fill="#FFDE11" width="25.493" height="25.493"/>
	<rect x="587.286" y="87.905" fill="#FFDE11" width="25.493" height="25.493"/>
</g>
<g>
	<g>
		<path fill="#FFFFFF" d="M4.22,225.148h19.123l29.668,75.647l29.528-75.647h18.701l-40.917,99.13H45.138L4.22,225.148z"/>
		<path fill="#FFFFFF" d="M130.773,274.643v-0.281c0-27.7,21.373-50.9,51.604-50.9c30.231,0,51.322,22.919,51.322,50.619v0.281
			c0,27.7-21.373,50.901-51.604,50.901C151.864,325.262,130.773,302.343,130.773,274.643z M215.56,274.643v-0.281
			c0-19.123-13.92-35.012-33.465-35.012c-19.545,0-33.184,15.607-33.184,34.73v0.281c0,19.123,13.92,35.012,33.465,35.012
			C201.921,309.373,215.56,293.766,215.56,274.643z"/>
		<path fill="#FFFFFF" d="M277.713,225.148h17.295v82.678h51.745v15.749h-69.04V225.148z"/>
		<path fill="#FFFFFF" d="M363.206,225.148h19.123l29.668,75.647l29.528-75.647h18.701l-40.917,99.13h-15.186L363.206,225.148z"/>
		<path fill="#FFFFFF" d="M500.164,225.148h72.977v15.467h-55.682v25.591h49.354v15.467h-49.354v26.435h56.385v15.467h-73.68
			V225.148z"/>
		<path fill="#FFFFFF" d="M617.435,225.148h43.87c12.374,0,22.076,3.655,28.403,9.842c5.203,5.343,8.155,12.655,8.155,21.232v0.281
			c0,16.17-9.702,25.872-23.481,29.81l26.575,37.262h-20.389l-24.185-34.309H634.73v34.309h-17.295V225.148z M660.041,273.939
			c12.373,0,20.247-6.468,20.247-16.451v-0.281c0-10.546-7.593-16.311-20.388-16.311h-25.17v33.043H660.041z"/>
		<path fill="#FFFFFF" d="M842.273,224.445h16.03l43.308,99.13h-18.279l-9.983-23.763h-46.542l-10.124,23.763h-17.717
			L842.273,224.445z M867.021,284.485l-17.014-39.371l-16.874,39.371H867.021z"/>
		<path fill="#FFFFFF" d="M12.656,377.148h17.295v82.678h51.745v15.749h-69.04V377.148z"/>
		<path fill="#FFFFFF" d="M161.001,376.445h16.03l43.308,99.13h-18.279l-9.983-23.764h-46.542l-10.124,23.764h-17.717
			L161.001,376.445z M185.748,436.485l-17.014-39.371l-16.874,39.371H185.748z"/>
		<path fill="#FFFFFF" d="M327.908,426.643v-0.281c0-27.981,20.951-50.9,50.76-50.9c18.139,0,29.106,6.327,38.527,15.326
			l-11.108,12.796c-7.874-7.312-16.311-12.233-27.56-12.233c-18.842,0-32.481,15.467-32.481,34.73v0.281
			c0,19.264,13.639,35.012,32.481,35.012c12.092,0,19.826-4.921,28.263-12.795l11.108,11.248
			c-10.265,10.687-21.513,17.437-39.933,17.437C349.28,477.263,327.908,454.905,327.908,426.643z"/>
		<path fill="#FFFFFF" d="M497.345,376.445h16.03l43.308,99.13h-18.279l-9.983-23.764h-46.542l-10.124,23.764h-17.717
			L497.345,376.445z M522.093,436.485l-17.014-39.371l-16.874,39.371H522.093z"/>
		<path fill="#FFFFFF" d="M599.994,377.148h17.295v82.678h51.745v15.749h-69.04V377.148z"/>
		<path fill="#FFFFFF" d="M713.467,377.148h17.295v82.678h51.744v15.749h-69.039V377.148z"/>
		<path fill="#FFFFFF" d="M826.941,377.148h72.977v15.467h-55.682v25.591h49.354v15.467h-49.354v26.435h56.385v15.468h-73.68
			V377.148z"/>
	</g>
</g>
<g>
	<g>
		<g>
			<polygon fill="#8DC641" points="248.748,112.834 270.808,76.991 292.869,112.834 			"/>
			<polygon fill="#8DC641" points="248.748,137.876 270.808,102.033 292.869,137.876 			"/>
			<polygon fill="#8DC641" points="248.748,165.361 270.808,129.518 292.869,165.361 			"/>
		</g>
		<g>
			<polygon fill="#8DC641" points="292.869,112.834 314.93,76.991 336.991,112.834 			"/>
			<polygon fill="#8DC641" points="292.869,137.876 314.93,102.033 336.991,137.876 			"/>
			<polygon fill="#8DC641" points="292.869,165.361 314.93,129.518 336.991,165.361 			"/>
		</g>
	</g>
</g>
<g>
	<g>
		<g>
			<circle fill="#F6ADCA" cx="148.139" cy="94.854" r="18.613"/>
			<circle fill="#F6ADCA" cx="174.462" cy="121.176" r="18.613"/>
			<circle fill="#F6ADCA" cx="121.817" cy="121.176" r="18.613"/>
			<circle fill="#F6ADCA" cx="148.139" cy="147.498" r="18.613"/>
		</g>
		<g>
			<circle fill="#F6ADCA" cx="129.527" cy="102.563" r="18.613"/>
			<circle fill="#F6ADCA" cx="166.752" cy="102.563" r="18.613"/>
			<circle fill="#F6ADCA" cx="129.527" cy="139.789" r="18.613"/>
			<circle fill="#F6ADCA" cx="166.752" cy="139.789" r="18.613"/>
		</g>
	</g>
	<circle fill="#F26724" cx="148.139" cy="121.176" r="18.613"/>
</g>
<polygon fill="#FFDE11" points="18.026,72.658 0,121.085 23.622,121.187 14.634,169.694 47.531,106.917 22.582,105.988 
	36.489,72.737 "/>
<g>
	<g>
		<g>
			<path fill="#FFDE11" d="M728.633,104.215l-7.236,4.52c-0.737,0.462-1.668,0.489-2.432,0.067l-9.021-4.961l7.407,42.318h4.016
				L728.633,104.215z"/>
			<path fill="#FFDE11" d="M719.319,69.783c-18.413,0-33.34,14.927-33.34,33.34c0,24.15,14.495,26.486,17.294,43.036h9.195
				l-8.173-46.43c-0.169-0.913,0.203-1.843,0.957-2.386c0.753-0.545,1.751-0.607,2.566-0.157l12.23,6.725l10.659-6.658
				c0.806-0.505,1.837-0.486,2.624,0.05c0.787,0.535,1.185,1.485,1.013,2.421l-8.094,46.435h9.116
				c2.799-16.55,17.294-18.886,17.294-43.036C752.659,84.71,737.732,69.783,719.319,69.783z"/>
		</g>
		<path fill="#FFDE11" d="M703.716,150.966c0.009,0.342,0.026,0.673,0.026,1.026v4.324h31.155v-4.324
			c0-0.353,0.017-0.684,0.026-1.026H703.716z"/>
		<path fill="#FFDE11" d="M703.795,161.123c0.283,6.362,5.489,11.446,11.921,11.446h7.205c6.432,0,11.639-5.083,11.922-11.446
			H703.795z"/>
	</g>
</g>
<g>
	
		<rect x="396.599" y="105.139" transform="matrix(0.7071 -0.7071 0.7071 0.7071 37.8819 340.1226)" fill="#F6ADCA" width="65.811" height="38.39"/>
	
		<rect x="396.599" y="117.478" transform="matrix(0.7071 -0.7071 0.7071 0.7071 37.8819 340.1226)" fill="#F26724" width="65.811" height="13.711"/>
	<polygon fill="#FFDE11" points="439.2,87.493 472.662,81.177 466.346,114.639 	"/>
	<g>
		<defs>
			<polygon id="SVGID_1_" points="439.2,87.493 472.662,81.177 466.346,114.639 			"/>
		</defs>
		<clipPath id="SVGID_2_">
			<use xlink:href="#SVGID_1_"  overflow="visible"/>
		</clipPath>
		
			<rect x="464.539" y="72.73" transform="matrix(-0.7071 0.7071 -0.7071 -0.7071 863.7031 -187.6191)" clip-path="url(#SVGID_2_)" fill="#70569E" width="12.34" height="24.679"/>
	</g>
</g>
<g>
	<path fill="#F79421" d="M849.254,77l-28.275,79.051c-3.084,7.149,1.612,15.422,8.753,15.422h56.549
		c7.142,0,11.837-8.272,8.753-15.422L866.761,77C863.241,68.84,852.774,68.84,849.254,77z"/>
	<path fill="#F79421" d="M898.56,171.472h-81.104c-5.018,0-9.124-4.557-9.124-10.126v0c0-5.569,4.106-10.126,9.124-10.126h81.104
		c5.018,0,9.124,4.557,9.124,10.126v0C907.684,166.915,903.578,171.472,898.56,171.472z"/>
	<g>
		<defs>
			<path id="SVGID_3_" d="M849.254,77l-28.275,79.051c-3.084,7.149,1.612,15.422,8.753,15.422h56.549
				c7.142,0,11.837-8.272,8.753-15.422L866.761,77C863.241,68.84,852.774,68.84,849.254,77z"/>
		</defs>
		<clipPath id="SVGID_4_">
			<use xlink:href="#SVGID_3_"  overflow="visible"/>
		</clipPath>
		<path clip-path="url(#SVGID_4_)" fill="#FFDE11" d="M899.661,135.467h-83.131c-4.461,0-8.11-4.051-8.11-9.001v-4.501
			c0-4.951,3.65-9.001,8.11-9.001h83.131c4.461,0,8.11,4.051,8.11,9.001v4.501C907.771,131.417,904.121,135.467,899.661,135.467z"/>
	</g>
</g>
<g>
	<polygon fill="#8DC641" points="82.436,615.065 67.243,611.118 58.409,624.093 46.79,613.538 32.938,620.92 27.555,606.175 
		11.858,606.274 13.945,590.717 0,583.51 9.078,570.704 0.079,557.842 14.068,550.722 12.077,535.152 27.773,535.348 
		33.246,520.636 47.053,528.104 58.736,517.62 67.491,530.649 82.708,526.796 84.405,542.401 99.67,546.061 93.92,560.667 
		105.736,571.002 93.857,581.263 99.516,595.905 84.229,599.47 	"/>
	<g>
		<path fill="#F6ADCA" d="M309.544,608.929l34.085-34.085c1.589-1.589,1.364-4.414-0.5-6.278c0,0-15.716-9.362-23.511-17.156
			s-5.367-2.767-6.955-1.178l-34.085,34.085c-1.589,1.589-7.294-1.517,1.178,6.955c8.472,8.472,22.644,18.023,22.644,18.023
			C305.3,610.462,307.956,610.517,309.544,608.929z"/>
		<path fill="#F26724" d="M276.198,587.714L276.198,587.714c-3.262-3.262-3.656-8.205-0.876-10.986l29.752-29.752
			c2.78-2.78,7.724-2.386,10.986,0.876l0,0l3.558,3.558l-39.862,39.862L276.198,587.714z"/>
		<path fill="#F26724" d="M263.767,546.111l18.252,16.3l12.672,11.317l7.51-7.51l-11.317-12.672l-16.3-18.252
			c-3.626-4.06-9.434-5.015-12.633-1.816C258.751,536.677,259.706,542.485,263.767,546.111z M266.831,538.358
			c0.898-0.898,2.355-0.898,3.253,0c0.898,0.898,0.898,2.355,0,3.253c-0.898,0.898-2.355,0.898-3.253,0
			C265.932,540.713,265.932,539.256,266.831,538.358z"/>
	</g>
	<g>
		<rect x="570.479" y="522.066" fill="#70569E" width="97.581" height="97.581"/>
		<g>
			<rect x="613.818" y="562.619" fill="#FFFFFF" width="3.319" height="19.732"/>
			<rect x="613.818" y="592.724" fill="#FFFFFF" width="3.319" height="19.732"/>
			<rect x="613.818" y="531.181" fill="#FFFFFF" width="3.319" height="19.732"/>
			<rect x="621.402" y="523.921" fill="#FFDE11" width="3.319" height="93.872"/>
		</g>
	</g>
	<path fill="#8DC641" d="M734.144,524.031c-18.333,0-33.195,14.862-33.195,33.195c0,18.333,33.195,60.455,33.195,60.455
		s33.195-42.122,33.195-60.455C767.339,538.893,752.477,524.031,734.144,524.031z M734.144,570.906
		c-6.366,0-11.527-5.161-11.527-11.527c0-6.366,5.161-11.527,11.527-11.527c6.366,0,11.527,5.161,11.527,11.527
		C745.671,565.745,740.51,570.906,734.144,570.906z"/>
	<g>
		<rect x="138.625" y="565.323" fill="#FFDE11" width="88.524" height="55.328"/>
		<polygon fill="#F26724" points="138.625,565.324 182.887,521.062 227.149,565.324 		"/>
		<rect x="171.822" y="576.389" fill="#70569E" width="22.131" height="22.131"/>
	</g>
	<g>
		<polygon fill="#F79421" points="427.018,521.416 476.459,570.857 427.018,620.297 		"/>
		<rect x="377.577" y="554.376" fill="#F79421" width="62.032" height="32.961"/>
	</g>
	<g>
		<defs>
			<rect id="SVGID_5_" x="800.228" y="520.763" width="100.187" height="100.187"/>
		</defs>
		<clipPath id="SVGID_6_">
			<use xlink:href="#SVGID_5_"  overflow="visible"/>
		</clipPath>
		<g clip-path="url(#SVGID_6_)">
			<circle fill="#F26724" cx="900.416" cy="620.782" r="100.187"/>
			<path fill="#F6ADCA" d="M900.416,687.573c-36.829,0-66.792-29.962-66.792-66.791c0-36.829,29.963-66.792,66.792-66.792
				s66.792,29.962,66.792,66.792C967.207,657.611,937.245,687.573,900.416,687.573z"/>
			<path fill="#70569E" d="M900.416,654.178c-18.415,0-33.396-14.981-33.396-33.395c0-18.415,14.981-33.396,33.396-33.396
				s33.396,14.981,33.396,33.396C933.811,639.196,918.83,654.178,900.416,654.178z"/>
		</g>
	</g>
	<g>
		<g>
			<circle fill="#8DC641" cx="523.469" cy="599.098" r="14.121"/>
			<circle fill="#FFDE11" cx="523.469" cy="570.857" r="14.121"/>
			<circle fill="#F26724" cx="523.469" cy="542.615" r="14.121"/>
		</g>
	</g>
</g>
<g>
	<g>
		<g>
			<g>
				<path fill="#FFFFFF" d="M420.496,702.49c1.534,1.245,2.495,2.941,2.882,5.088h-4.798c-0.193-0.944-0.634-1.691-1.32-2.238
					c-0.688-0.548-1.557-0.821-2.608-0.821c-1.202,0-2.206,0.446-3.011,1.337s-1.208,2.194-1.208,3.912s0.403,3.021,1.208,3.912
					c0.805,0.892,1.809,1.337,3.011,1.337c1.052,0,1.921-0.274,2.608-0.821c0.687-0.548,1.127-1.293,1.32-2.238h4.798
					c-0.387,2.147-1.348,3.843-2.882,5.088c-1.535,1.245-3.451,1.868-5.748,1.868c-1.739,0-3.284-0.371-4.637-1.111
					s-2.405-1.798-3.156-3.172c-0.752-1.374-1.127-2.995-1.127-4.862c0-1.868,0.375-3.494,1.127-4.879
					c0.751-1.385,1.804-2.441,3.156-3.172c1.353-0.729,2.897-1.095,4.637-1.095C417.045,700.622,418.961,701.245,420.496,702.49z"/>
				<path fill="#FFFFFF" d="M427.409,693.94c0.516-0.461,1.191-0.692,2.029-0.692c0.837,0,1.513,0.231,2.028,0.692
					c0.515,0.462,0.772,1.058,0.772,1.787c0,0.709-0.258,1.294-0.772,1.755c-0.516,0.462-1.191,0.692-2.028,0.692
					c-0.838,0-1.514-0.23-2.029-0.692c-0.515-0.461-0.772-1.046-0.772-1.755C426.637,694.998,426.895,694.402,427.409,693.94z
					 M431.693,700.848v17.84h-4.541v-17.84H431.693z"/>
				<path fill="#FFFFFF" d="M453.621,700.848v17.84h-4.541v-3.606c-0.472,1.202-1.251,2.141-2.334,2.817
					c-1.085,0.676-2.335,1.015-3.752,1.015c-2.061,0-3.703-0.677-4.927-2.029s-1.835-3.241-1.835-5.667v-10.369h4.508v9.854
					c0,1.417,0.365,2.518,1.095,3.301c0.729,0.784,1.718,1.176,2.963,1.176c1.309,0,2.351-0.419,3.123-1.256
					c0.773-0.838,1.159-2.04,1.159-3.607v-9.467H453.621z"/>
				<path fill="#FFFFFF" d="M469.335,701.685c1.063,0.709,1.83,1.664,2.303,2.866v-9.692h4.508v23.829h-4.508v-3.735
					c-0.473,1.202-1.24,2.163-2.303,2.882c-1.063,0.72-2.346,1.079-3.848,1.079c-1.503,0-2.855-0.365-4.058-1.096
					c-1.202-0.729-2.142-1.787-2.817-3.172c-0.677-1.384-1.015-3.011-1.015-4.878c0-1.868,0.338-3.494,1.015-4.879
					c0.676-1.385,1.615-2.441,2.817-3.172c1.202-0.729,2.555-1.095,4.058-1.095C466.989,700.622,468.273,700.977,469.335,701.685z
					 M463.49,705.968c-0.858,0.923-1.288,2.189-1.288,3.8s0.43,2.871,1.288,3.783c0.858,0.913,1.997,1.369,3.414,1.369
					c1.373,0,2.506-0.467,3.396-1.401c0.891-0.934,1.337-2.184,1.337-3.751c0-1.589-0.446-2.85-1.337-3.784
					c-0.891-0.934-2.023-1.4-3.396-1.4C465.487,704.583,464.349,705.045,463.49,705.968z"/>
				<path fill="#FFFFFF" d="M491.876,701.685c1.074,0.709,1.835,1.664,2.287,2.866v-3.703h4.508v17.84h-4.508v-3.735
					c-0.451,1.202-1.213,2.163-2.287,2.882c-1.074,0.72-2.362,1.079-3.864,1.079c-1.503,0-2.855-0.365-4.058-1.096
					c-1.202-0.729-2.142-1.787-2.817-3.172c-0.677-1.384-1.015-3.011-1.015-4.878c0-1.868,0.338-3.494,1.015-4.879
					c0.676-1.385,1.615-2.441,2.817-3.172c1.202-0.729,2.555-1.095,4.058-1.095C489.514,700.622,490.802,700.977,491.876,701.685z
					 M486.015,705.968c-0.858,0.923-1.288,2.189-1.288,3.8s0.43,2.871,1.288,3.783c0.858,0.913,1.997,1.369,3.414,1.369
					c1.373,0,2.506-0.467,3.397-1.401c0.891-0.934,1.337-2.184,1.337-3.751c0-1.589-0.446-2.85-1.337-3.784
					c-0.891-0.934-2.024-1.4-3.397-1.4C488.012,704.583,486.873,705.045,486.015,705.968z"/>
				<path fill="#FFFFFF" d="M514.384,701.685c1.063,0.709,1.83,1.664,2.303,2.866v-9.692h4.508v23.829h-4.508v-3.735
					c-0.473,1.202-1.24,2.163-2.303,2.882c-1.063,0.72-2.346,1.079-3.848,1.079c-1.503,0-2.855-0.365-4.058-1.096
					c-1.202-0.729-2.142-1.787-2.817-3.172c-0.677-1.384-1.015-3.011-1.015-4.878c0-1.868,0.338-3.494,1.015-4.879
					c0.676-1.385,1.615-2.441,2.817-3.172c1.202-0.729,2.555-1.095,4.058-1.095C512.039,700.622,513.322,700.977,514.384,701.685z
					 M508.54,705.968c-0.858,0.923-1.288,2.189-1.288,3.8s0.43,2.871,1.288,3.783c0.858,0.913,1.997,1.369,3.414,1.369
					c1.373,0,2.506-0.467,3.396-1.401c0.891-0.934,1.337-2.184,1.337-3.751c0-1.589-0.446-2.85-1.337-3.784
					c-0.891-0.934-2.023-1.4-3.396-1.4C510.537,704.583,509.398,705.045,508.54,705.968z"/>
				<path fill="#FFFFFF" d="M542.69,710.637h-13.073c0.063,1.589,0.493,2.759,1.287,3.51c0.795,0.752,1.782,1.127,2.963,1.127
					c1.052,0,1.927-0.257,2.625-0.772c0.697-0.515,1.143-1.213,1.336-2.093h4.798c-0.236,1.245-0.74,2.361-1.514,3.349
					c-0.772,0.987-1.766,1.761-2.979,2.318c-1.213,0.559-2.56,0.838-4.041,0.838c-1.739,0-3.284-0.371-4.637-1.111
					s-2.405-1.798-3.156-3.172c-0.752-1.374-1.127-2.995-1.127-4.862c0-1.868,0.375-3.494,1.127-4.879
					c0.751-1.385,1.804-2.441,3.156-3.172c1.353-0.729,2.897-1.095,4.637-1.095c1.76,0,3.301,0.365,4.621,1.095
					c1.32,0.73,2.34,1.734,3.059,3.011c0.72,1.278,1.079,2.732,1.079,4.363C542.851,709.542,542.797,710.058,542.69,710.637z
					 M537.135,705.323c-0.827-0.751-1.841-1.127-3.043-1.127c-1.224,0-2.254,0.376-3.092,1.127
					c-0.837,0.752-1.299,1.857-1.384,3.317h8.662C538.343,707.181,537.962,706.075,537.135,705.323z"/>
				<path fill="#FFFFFF" d="M557.93,702.265c1.31,1.095,2.126,2.555,2.447,4.379h-4.25c-0.173-0.858-0.559-1.545-1.159-2.061
					c-0.602-0.516-1.385-0.772-2.351-0.772c-0.773,0-1.375,0.183-1.804,0.547c-0.43,0.365-0.645,0.859-0.645,1.481
					c0,0.494,0.172,0.891,0.516,1.191c0.343,0.301,0.772,0.537,1.288,0.709s1.256,0.375,2.222,0.611
					c1.353,0.301,2.452,0.617,3.301,0.95c0.848,0.333,1.578,0.858,2.189,1.578c0.612,0.719,0.918,1.69,0.918,2.914
					c0,1.524-0.596,2.759-1.787,3.703s-2.797,1.417-4.814,1.417c-2.318,0-4.175-0.521-5.57-1.563
					c-1.396-1.041-2.244-2.527-2.544-4.46h4.347c0.107,0.881,0.494,1.573,1.159,2.077c0.666,0.505,1.535,0.757,2.608,0.757
					c0.773,0,1.363-0.188,1.771-0.563c0.407-0.375,0.611-0.864,0.611-1.465c0-0.516-0.177-0.935-0.531-1.256
					c-0.354-0.322-0.794-0.568-1.32-0.741c-0.525-0.171-1.271-0.375-2.237-0.611c-1.332-0.301-2.41-0.606-3.236-0.918
					c-0.827-0.311-1.535-0.81-2.125-1.497c-0.591-0.688-0.886-1.632-0.886-2.834c0-1.546,0.59-2.802,1.771-3.768
					s2.813-1.449,4.895-1.449C554.882,700.622,556.621,701.17,557.93,702.265z"/>
				<path fill="#FFFFFF" d="M420.496,734.422c1.534,1.245,2.495,2.941,2.882,5.088h-4.798c-0.193-0.944-0.634-1.69-1.32-2.238
					c-0.688-0.547-1.557-0.82-2.608-0.82c-1.202,0-2.206,0.445-3.011,1.336s-1.208,2.195-1.208,3.912
					c0,1.718,0.403,3.022,1.208,3.913s1.809,1.336,3.011,1.336c1.052,0,1.921-0.273,2.608-0.821c0.687-0.547,1.127-1.293,1.32-2.237
					h4.798c-0.387,2.146-1.348,3.843-2.882,5.088c-1.535,1.245-3.451,1.867-5.748,1.867c-1.739,0-3.284-0.37-4.637-1.111
					c-1.353-0.74-2.405-1.797-3.156-3.172c-0.752-1.373-1.127-2.994-1.127-4.862c0-1.867,0.375-3.493,1.127-4.878
					c0.751-1.385,1.804-2.442,3.156-3.172s2.897-1.095,4.637-1.095C417.045,732.555,418.961,733.178,420.496,734.422z"/>
				<path fill="#FFFFFF" d="M440.069,733.649c1.384,0.729,2.474,1.787,3.268,3.172s1.191,3.011,1.191,4.878
					c0,1.868-0.397,3.489-1.191,4.862c-0.794,1.375-1.884,2.432-3.268,3.172c-1.385,0.741-2.947,1.111-4.686,1.111
					c-1.739,0-3.301-0.37-4.686-1.111c-1.385-0.74-2.475-1.797-3.269-3.172c-0.794-1.373-1.191-2.994-1.191-4.862
					c0-1.867,0.397-3.493,1.191-4.878s1.884-2.442,3.269-3.172s2.946-1.095,4.686-1.095
					C437.121,732.555,438.684,732.92,440.069,733.649z M432.162,737.819c-0.88,0.891-1.32,2.185-1.32,3.88
					c0,1.696,0.44,2.99,1.32,3.881s1.953,1.336,3.221,1.336c1.267,0,2.34-0.445,3.22-1.336s1.32-2.185,1.32-3.881
					c0-1.695-0.44-2.989-1.32-3.88s-1.953-1.336-3.22-1.336C434.115,736.483,433.042,736.929,432.162,737.819z"/>
				<path fill="#FFFFFF" d="M476.288,734.535c1.256,1.342,1.884,3.247,1.884,5.716v10.368h-4.509v-9.854
					c0-1.373-0.349-2.431-1.046-3.172c-0.698-0.74-1.659-1.11-2.883-1.11c-1.267,0-2.275,0.397-3.026,1.191
					c-0.752,0.794-1.127,1.953-1.127,3.478v9.467h-4.509v-9.854c0-1.373-0.349-2.431-1.046-3.172c-0.698-0.74-1.659-1.11-2.883-1.11
					c-1.267,0-2.275,0.397-3.026,1.191c-0.752,0.794-1.127,1.953-1.127,3.478v9.467h-4.541V732.78h4.541v3.381
					c0.472-1.159,1.218-2.056,2.237-2.689c1.02-0.633,2.206-0.949,3.559-0.949c1.438,0,2.688,0.344,3.752,1.03
					c1.063,0.688,1.861,1.675,2.398,2.963c0.559-1.224,1.39-2.195,2.496-2.915c1.105-0.719,2.345-1.078,3.719-1.078
					C473.319,732.522,475.032,733.193,476.288,734.535z"/>
				<path fill="#FFFFFF" d="M499.944,732.78v17.839h-4.541v-3.606c-0.472,1.203-1.251,2.142-2.334,2.817
					c-1.085,0.677-2.335,1.015-3.752,1.015c-2.061,0-3.703-0.676-4.927-2.028s-1.835-3.241-1.835-5.668V732.78h4.508v9.854
					c0,1.417,0.365,2.517,1.095,3.301c0.729,0.783,1.718,1.175,2.963,1.175c1.309,0,2.351-0.419,3.124-1.256
					c0.773-0.837,1.159-2.039,1.159-3.606v-9.467H499.944z"/>
				<path fill="#FFFFFF" d="M520.33,734.551c1.224,1.353,1.835,3.253,1.835,5.7v10.368h-4.508v-9.854
					c0-1.417-0.365-2.517-1.095-3.301c-0.73-0.783-1.729-1.175-2.995-1.175c-1.288,0-2.318,0.418-3.091,1.256
					c-0.773,0.837-1.159,2.039-1.159,3.606v9.467h-4.541V732.78h4.541v3.574c0.472-1.202,1.25-2.142,2.334-2.818
					c1.084-0.676,2.335-1.014,3.752-1.014C517.464,732.522,519.106,733.198,520.33,734.551z"/>
				<path fill="#FFFFFF" d="M543.485,742.569h-13.073c0.063,1.589,0.493,2.759,1.287,3.51c0.795,0.752,1.782,1.127,2.963,1.127
					c1.052,0,1.927-0.258,2.625-0.772c0.697-0.516,1.143-1.213,1.336-2.094h4.798c-0.236,1.245-0.74,2.362-1.514,3.35
					c-0.772,0.987-1.766,1.76-2.979,2.318s-2.56,0.837-4.041,0.837c-1.739,0-3.284-0.37-4.637-1.111
					c-1.353-0.74-2.405-1.797-3.156-3.172c-0.752-1.373-1.127-2.994-1.127-4.862c0-1.867,0.375-3.493,1.127-4.878
					c0.751-1.385,1.804-2.442,3.156-3.172s2.897-1.095,4.637-1.095c1.76,0,3.301,0.365,4.621,1.095s2.34,1.733,3.059,3.011
					c0.72,1.277,1.079,2.732,1.079,4.363C543.646,741.475,543.592,741.989,543.485,742.569z M537.93,737.256
					c-0.827-0.751-1.841-1.127-3.043-1.127c-1.224,0-2.254,0.376-3.092,1.127c-0.837,0.752-1.299,1.857-1.384,3.316h8.662
					C539.138,739.113,538.756,738.008,537.93,737.256z"/>
				<path fill="#FFFFFF" d="M558.725,734.196c1.31,1.096,2.126,2.556,2.447,4.38h-4.25c-0.173-0.858-0.559-1.546-1.159-2.061
					c-0.602-0.516-1.385-0.773-2.351-0.773c-0.773,0-1.375,0.183-1.804,0.548c-0.43,0.365-0.645,0.858-0.645,1.481
					c0,0.493,0.172,0.891,0.516,1.191c0.343,0.301,0.772,0.536,1.288,0.708s1.256,0.376,2.222,0.612
					c1.353,0.301,2.452,0.617,3.301,0.949c0.848,0.333,1.578,0.859,2.189,1.578c0.612,0.72,0.918,1.69,0.918,2.914
					c0,1.524-0.596,2.759-1.787,3.703c-1.191,0.945-2.797,1.417-4.814,1.417c-2.318,0-4.175-0.521-5.57-1.562
					s-2.244-2.528-2.544-4.46h4.347c0.107,0.881,0.494,1.572,1.159,2.077c0.666,0.504,1.535,0.757,2.608,0.757
					c0.773,0,1.363-0.188,1.771-0.563c0.407-0.376,0.611-0.864,0.611-1.466c0-0.515-0.177-0.934-0.531-1.256
					c-0.354-0.321-0.794-0.568-1.32-0.74c-0.525-0.172-1.271-0.376-2.237-0.612c-1.332-0.3-2.41-0.606-3.236-0.917
					c-0.827-0.312-1.535-0.811-2.125-1.498c-0.591-0.687-0.886-1.631-0.886-2.833c0-1.546,0.59-2.802,1.771-3.768
					c1.181-0.967,2.813-1.449,4.895-1.449C555.677,732.555,557.416,733.102,558.725,734.196z"/>
			</g>
			<g>
				<g>
					<path fill="#FFFFFF" d="M591.246,702.555c0-1.009-0.241-1.804-0.725-2.383c-0.482-0.58-1.239-0.87-2.27-0.87
						c-2.126,0-3.253,1.449-3.382,4.348h-4.411c0.129-2.684,0.944-4.718,2.447-6.103c1.502-1.385,3.402-2.077,5.699-2.077
						c2.34,0,4.139,0.607,5.395,1.819c1.256,1.214,1.884,2.829,1.884,4.847c0,1.589-0.468,3.183-1.401,4.782s-2.12,3.07-3.558,4.411
						c-1.438,1.342-2.952,2.496-4.541,3.462h9.95v3.703H580.33v-3.381C587.607,710.068,591.246,705.882,591.246,702.555z"/>
					<path fill="#FFFFFF" d="M599.667,707.127c0-7.686,2.897-11.528,8.694-11.528c3.069,0,5.281,1.03,6.634,3.092
						c1.352,2.061,2.028,4.873,2.028,8.437c0,3.585-0.677,6.408-2.028,8.469c-1.353,2.062-3.564,3.092-6.634,3.092
						C602.564,718.688,599.667,714.834,599.667,707.127z M612.547,707.127c0-2.318-0.284-4.105-0.853-5.361
						c-0.569-1.256-1.681-1.884-3.333-1.884c-1.675,0-2.797,0.628-3.365,1.884c-0.569,1.256-0.854,3.043-0.854,5.361
						c0,2.34,0.284,4.138,0.854,5.394c0.568,1.256,1.69,1.884,3.365,1.884c1.652,0,2.764-0.628,3.333-1.884
						C612.262,711.265,612.547,709.467,612.547,707.127z"/>
					<path fill="#FFFFFF" d="M591.246,734.486c0-1.009-0.241-1.803-0.725-2.383c-0.482-0.579-1.239-0.869-2.27-0.869
						c-2.126,0-3.253,1.449-3.382,4.347h-4.411c0.129-2.683,0.944-4.717,2.447-6.102c1.502-1.385,3.402-2.077,5.699-2.077
						c2.34,0,4.139,0.606,5.395,1.819s1.884,2.828,1.884,4.846c0,1.59-0.468,3.184-1.401,4.782c-0.934,1.6-2.12,3.07-3.558,4.412
						c-1.438,1.342-2.952,2.495-4.541,3.461h9.95v3.703H580.33v-3.381C587.607,742,591.246,737.814,591.246,734.486z"/>
					<path fill="#FFFFFF" d="M599.667,739.06c0-7.686,2.897-11.528,8.694-11.528c3.069,0,5.281,1.03,6.634,3.091
						c1.352,2.062,2.028,4.874,2.028,8.438c0,3.585-0.677,6.407-2.028,8.469c-1.353,2.061-3.564,3.091-6.634,3.091
						C602.564,750.619,599.667,746.767,599.667,739.06z M612.547,739.06c0-2.319-0.284-4.106-0.853-5.362
						c-0.569-1.256-1.681-1.884-3.333-1.884c-1.675,0-2.797,0.628-3.365,1.884c-0.569,1.256-0.854,3.043-0.854,5.362
						c0,2.34,0.284,4.138,0.854,5.394c0.568,1.256,1.69,1.884,3.365,1.884c1.652,0,2.764-0.628,3.333-1.884
						C612.262,743.197,612.547,741.399,612.547,739.06z"/>
				</g>
			</g>
			<rect x="568.561" y="693.831" fill="#FFFFFF" width="2.324" height="57.636"/>
			<rect x="394.724" y="693.831" fill="#FFFFFF" width="2.324" height="57.636"/>
			<g>
				<path fill="#FFFFFF" d="M367.034,705.174c-5.698,0-9.672,4.24-9.672,10.467c0,6.36,3.974,10.599,9.672,10.599
					c4.107,0,7.42-1.391,9.539-4.174l5.365,4.439c-3.113,4.504-8.413,7.155-15.368,7.155c-10.599,0-17.887-7.287-17.887-17.953
					c0-10.797,7.353-18.084,18.019-18.084c6.492,0,11.659,2.385,14.839,6.492l-5.233,4.968
					C374.055,706.631,370.942,705.174,367.034,705.174z"/>
			</g>
			<rect x="350.151" y="743.766" fill="#FFFFFF" width="29.84" height="6.359"/>
		</g>
	</g>
	<g>
		<g>
			<path fill="#FFFFFF" d="M719.276,695.165h-6.081v14.884h3.274v-4.465h2.488c3.338,0,6.017-1.786,6.017-5.23v-0.042
				C724.974,697.27,722.827,695.165,719.276,695.165z M721.657,700.417c0,1.276-0.957,2.254-2.594,2.254h-2.594v-4.55h2.53
				c1.637,0,2.658,0.787,2.658,2.254V700.417z"/>
			<polygon fill="#FFFFFF" points="738.091,707.072 730.67,707.072 730.67,695.165 727.396,695.165 727.396,710.049 
				738.091,710.049 			"/>
			<path fill="#FFFFFF" d="M745.658,695.059l-6.379,14.99h3.338l1.361-3.338h6.294l1.361,3.338h3.423l-6.379-14.99H745.658z
				 M745.148,703.819l1.977-4.827l1.977,4.827H745.148z"/>
			<path fill="#FFFFFF" d="M763.368,710.304c2.87,0,4.571-1.021,6.102-2.658l-2.084-2.105c-1.169,1.063-2.211,1.744-3.912,1.744
				c-2.552,0-4.316-2.126-4.316-4.678v-0.042c0-2.552,1.807-4.635,4.316-4.635c1.488,0,2.658,0.638,3.806,1.68l2.084-2.403
				c-1.382-1.361-3.062-2.296-5.868-2.296c-4.571,0-7.761,3.466-7.761,7.697v0.043C755.734,706.923,758.987,710.304,763.368,710.304
				z"/>
			<polygon fill="#FFFFFF" points="783.415,707.136 775.336,707.136 775.336,704.011 782.352,704.011 782.352,701.098 
				775.336,701.098 775.336,698.078 783.309,698.078 783.309,695.165 772.083,695.165 772.083,710.049 783.415,710.049 			"/>
			<polygon fill="#FFFFFF" points="789.537,700.396 793.683,706.69 793.768,706.69 797.957,700.332 797.957,710.049 801.21,710.049 
				801.21,695.165 797.68,695.165 793.768,701.459 789.856,695.165 786.327,695.165 786.327,710.049 789.537,710.049 			"/>
			<path fill="#FFFFFF" d="M808.203,706.711h6.294l1.361,3.338h3.423l-6.379-14.99h-3.019l-6.379,14.99h3.338L808.203,706.711z
				 M811.35,698.993l1.977,4.827h-3.955L811.35,698.993z"/>
			<polygon fill="#FFFFFF" points="828.782,701.48 834.842,695.165 830.887,695.165 824.849,701.672 824.849,695.165 
				821.574,695.165 821.574,710.049 824.849,710.049 824.849,705.499 826.571,703.713 831.185,710.049 835.118,710.049 			"/>
			<rect x="837.242" y="695.165" fill="#FFFFFF" width="3.274" height="14.884"/>
			<polygon fill="#FFFFFF" points="847.468,700.587 854.676,710.049 857.462,710.049 857.462,695.165 854.23,695.165 854.23,704.33 
				847.256,695.165 844.237,695.165 844.237,710.049 847.468,710.049 			"/>
			<path fill="#FFFFFF" d="M868.197,710.304c2.722,0,4.826-1.063,6.357-2.36v-6.464h-6.464v2.828h3.296v2.126
				c-0.829,0.595-1.892,0.893-3.083,0.893c-2.636,0-4.508-1.999-4.508-4.72v-0.042c0-2.53,1.892-4.635,4.274-4.635
				c1.722,0,2.743,0.553,3.891,1.51l2.062-2.487c-1.552-1.318-3.168-2.041-5.847-2.041c-4.508,0-7.803,3.466-7.803,7.697v0.043
				C860.372,707.051,863.561,710.304,868.197,710.304z"/>
			<polygon fill="#FFFFFF" points="716.469,715.145 713.195,715.145 713.195,730.028 723.89,730.028 723.89,727.052 
				716.469,727.052 			"/>
			<path fill="#FFFFFF" d="M731.457,715.038l-6.379,14.99h3.338l1.361-3.338h6.294l1.361,3.338h3.423l-6.379-14.99H731.457z
				 M730.947,723.799l1.977-4.826l1.977,4.826H730.947z"/>
			<polygon fill="#FFFFFF" points="740.173,718.164 744.701,718.164 744.701,730.028 747.976,730.028 747.976,718.164 
				752.505,718.164 752.505,715.145 740.173,715.145 			"/>
			<rect x="755.161" y="715.145" fill="#FFFFFF" width="3.274" height="14.884"/>
			<polygon fill="#FFFFFF" points="772.148,724.309 765.174,715.145 762.155,715.145 762.155,730.028 765.386,730.028 
				765.386,720.567 772.594,730.028 775.38,730.028 775.38,715.145 772.148,715.145 			"/>
			<path fill="#FFFFFF" d="M786.221,714.89c-4.593,0-7.931,3.466-7.931,7.697v0.043c0,4.231,3.296,7.654,7.888,7.654
				c4.593,0,7.931-3.466,7.931-7.697v-0.042C794.109,718.313,790.814,714.89,786.221,714.89z M790.686,722.629
				c0,2.551-1.829,4.635-4.465,4.635c-2.637,0-4.508-2.126-4.508-4.678v-0.042c0-2.552,1.828-4.635,4.465-4.635
				c2.637,0,4.508,2.126,4.508,4.678V722.629z"/>
			<path fill="#FFFFFF" d="M801.166,715.038l-6.379,14.99h3.338l1.361-3.338h6.294l1.361,3.338h3.423l-6.379-14.99H801.166z
				 M800.656,723.799l1.977-4.826l1.977,4.826H800.656z"/>
			<polygon fill="#FFFFFF" points="820.3,721.438 816.387,715.145 812.858,715.145 812.858,730.028 816.068,730.028 
				816.068,720.375 820.214,726.669 820.3,726.669 824.488,720.312 824.488,730.028 827.741,730.028 827.741,715.145 
				824.212,715.145 			"/>
			<polygon fill="#FFFFFF" points="834.564,723.99 841.581,723.99 841.581,721.077 834.564,721.077 834.564,718.058 
				842.537,718.058 842.537,715.145 831.311,715.145 831.311,730.028 842.644,730.028 842.644,727.115 834.564,727.115 			"/>
			<path fill="#FFFFFF" d="M857.972,720.099v-0.042c0-1.403-0.447-2.573-1.276-3.402c-0.978-0.978-2.445-1.51-4.337-1.51h-6.804
				v14.884h3.274v-4.763h2.53h0.043l3.189,4.763h3.827l-3.636-5.316C856.675,724.011,857.972,722.502,857.972,720.099z
				 M854.655,720.269c0,1.255-0.914,2.105-2.509,2.105h-3.317V718.1h3.253c1.595,0,2.573,0.723,2.573,2.126V720.269z"/>
			<rect x="861.074" y="715.145" fill="#FFFFFF" width="3.274" height="14.884"/>
			<path fill="#FFFFFF" d="M875.149,727.264c-2.552,0-4.316-2.126-4.316-4.678v-0.042c0-2.552,1.807-4.635,4.316-4.635
				c1.488,0,2.658,0.638,3.806,1.68l2.084-2.403c-1.382-1.361-3.062-2.296-5.868-2.296c-4.571,0-7.761,3.466-7.761,7.697v0.043
				c0,4.274,3.253,7.654,7.633,7.654c2.871,0,4.571-1.021,6.102-2.658l-2.083-2.105C877.892,726.584,876.85,727.264,875.149,727.264
				z"/>
			<path fill="#FFFFFF" d="M891.88,715.038h-3.019l-6.379,14.99h3.338l1.361-3.338h6.294l1.361,3.338h3.423L891.88,715.038z
				 M888.35,723.799l1.977-4.826l1.977,4.826H888.35z"/>
			<rect x="834.71" y="712.238" fill="#FFFFFF" width="7.721" height="1.864"/>
		</g>
		<g>
			<path fill="#FFFFFF" d="M712.967,694.952h6.168c3.602,0,5.78,2.135,5.78,5.219v0.043c0,3.494-2.717,5.305-6.103,5.305h-2.523
				v4.529h-3.321V694.952z M718.92,702.565c1.661,0,2.631-0.992,2.631-2.286v-0.043c0-1.488-1.035-2.286-2.696-2.286h-2.567v4.615
				H718.92z"/>
			<path fill="#FFFFFF" d="M727.151,694.952h3.321v12.078H738v3.019h-10.848V694.952z"/>
			<path fill="#FFFFFF" d="M745.933,694.844h3.063l6.47,15.205h-3.472l-1.38-3.386h-6.384l-1.38,3.386h-3.386L745.933,694.844z
				 M749.427,703.73l-2.006-4.896l-2.006,4.896H749.427z"/>
			<path fill="#FFFFFF" d="M755.919,702.544v-0.043c0-4.292,3.235-7.807,7.872-7.807c2.847,0,4.551,0.949,5.953,2.329l-2.114,2.437
				c-1.165-1.057-2.351-1.704-3.86-1.704c-2.545,0-4.378,2.114-4.378,4.702v0.043c0,2.588,1.79,4.745,4.378,4.745
				c1.725,0,2.782-0.69,3.968-1.769l2.114,2.135c-1.553,1.661-3.278,2.696-6.19,2.696
				C759.218,710.308,755.919,706.879,755.919,702.544z"/>
			<path fill="#FFFFFF" d="M772.117,694.952h11.387v2.955h-8.088v3.063h7.117v2.955h-7.117v3.17h8.195v2.955h-11.495V694.952z"/>
			<path fill="#FFFFFF" d="M712.967,714.921h3.321v12.078h7.527v3.019h-10.848V714.921z"/>
			<path fill="#FFFFFF" d="M731.749,714.813h3.063l6.47,15.205h-3.472l-1.38-3.386h-6.384l-1.38,3.386h-3.386L731.749,714.813z
				 M735.243,723.699l-2.006-4.896l-2.006,4.896H735.243z"/>
			<path fill="#FFFFFF" d="M744.903,717.984h-4.594v-3.063h12.509v3.063h-4.594v12.034h-3.321V717.984z"/>
			<path fill="#FFFFFF" d="M754.974,714.921h3.321v15.097h-3.321V714.921z"/>
			<path fill="#FFFFFF" d="M761.882,714.921h3.062l7.074,9.295v-9.295h3.278v15.097h-2.825l-7.311-9.597v9.597h-3.278V714.921z"/>
			<path fill="#FFFFFF" d="M778.082,722.513v-0.043c0-4.292,3.386-7.807,8.045-7.807c4.658,0,8.001,3.472,8.001,7.764v0.043
				c0,4.292-3.386,7.807-8.044,7.807C781.425,730.277,778.082,726.805,778.082,722.513z M790.656,722.513v-0.043
				c0-2.588-1.898-4.745-4.572-4.745c-2.674,0-4.529,2.114-4.529,4.702v0.043c0,2.588,1.898,4.745,4.572,4.745
				C788.801,727.215,790.656,725.101,790.656,722.513z"/>
			<path fill="#FFFFFF" d="M718.143,734.783h3.063l6.47,15.205h-3.472l-1.38-3.386h-6.384l-1.38,3.386h-3.386L718.143,734.783z
				 M721.637,743.668l-2.006-4.896l-2.006,4.896H721.637z"/>
			<path fill="#FFFFFF" d="M729.673,734.89h6.901c1.919,0,3.408,0.539,4.4,1.531c0.841,0.841,1.294,2.027,1.294,3.451v0.043
				c0,2.437-1.316,3.968-3.235,4.68l3.688,5.392h-3.882l-3.235-4.831h-2.61v4.831h-3.321V734.89z M736.358,742.223
				c1.617,0,2.545-0.863,2.545-2.135v-0.043c0-1.423-0.992-2.157-2.61-2.157h-3.3v4.335H736.358z"/>
			<path fill="#FFFFFF" d="M744.208,742.482v-0.043c0-4.292,3.343-7.807,7.915-7.807c2.717,0,4.357,0.733,5.931,2.07l-2.092,2.523
				c-1.165-0.971-2.2-1.531-3.947-1.531c-2.415,0-4.335,2.135-4.335,4.702v0.043c0,2.761,1.898,4.788,4.572,4.788
				c1.208,0,2.286-0.302,3.127-0.906v-2.157h-3.343v-2.868h6.556v6.556c-1.553,1.316-3.688,2.394-6.449,2.394
				C747.443,750.246,744.208,746.946,744.208,742.482z"/>
			<path fill="#FFFFFF" d="M761.796,734.89h11.387v2.955h-8.087v3.062h7.117v2.955h-7.117v3.17h8.195v2.955h-11.495V734.89z"/>
			<path fill="#FFFFFF" d="M776.28,734.89h3.062l7.074,9.295v-9.295h3.278v15.097h-2.825l-7.311-9.597v9.597h-3.278V734.89z"/>
			<path fill="#FFFFFF" d="M796.373,737.953h-4.594v-3.063h12.509v3.063h-4.594v12.034h-3.321V737.953z"/>
			<path fill="#FFFFFF" d="M806.445,734.89h3.321v15.097h-3.321V734.89z"/>
			<path fill="#FFFFFF" d="M813.353,734.89h3.062l7.074,9.295v-9.295h3.278v15.097h-2.825l-7.311-9.597v9.597h-3.278V734.89z"/>
			<path fill="#FFFFFF" d="M835.223,734.783h3.063l6.47,15.205h-3.472l-1.38-3.386h-6.384l-1.38,3.386h-3.386L835.223,734.783z
				 M838.717,743.668l-2.006-4.896l-2.006,4.896H838.717z"/>
			<path fill="#FFFFFF" d="M852.8,747.356l5.025-4.119c1.876-1.553,2.61-2.372,2.61-3.623c0-1.272-0.841-1.963-2.027-1.963
				c-1.165,0-1.963,0.647-3.084,2.027l-2.329-1.876c1.488-2.027,2.933-3.127,5.629-3.127c3.127,0,5.198,1.833,5.198,4.659v0.043
				c0,2.523-1.294,3.774-3.968,5.845l-2.458,1.898h6.578v2.868H852.8V747.356z"/>
			<path fill="#FFFFFF" d="M866.041,742.482v-0.043c0-4.378,2.717-7.807,6.729-7.807c3.99,0,6.686,3.386,6.686,7.764v0.043
				c0,4.378-2.696,7.807-6.729,7.807S866.041,746.86,866.041,742.482z M876.048,742.482v-0.043c0-2.739-1.337-4.809-3.321-4.809
				c-1.984,0-3.278,2.006-3.278,4.766v0.043c0,2.761,1.316,4.81,3.321,4.81C874.776,747.248,876.048,745.221,876.048,742.482z"/>
			<path fill="#FFFFFF" d="M881.028,747.356l5.025-4.119c1.876-1.553,2.61-2.372,2.61-3.623c0-1.272-0.841-1.963-2.027-1.963
				c-1.165,0-1.963,0.647-3.084,2.027l-2.329-1.876c1.488-2.027,2.933-3.127,5.629-3.127c3.127,0,5.198,1.833,5.198,4.659v0.043
				c0,2.523-1.294,3.774-3.968,5.845l-2.458,1.898h6.578v2.868h-11.172V747.356z"/>
			<path fill="#FFFFFF" d="M894.269,742.482v-0.043c0-4.378,2.718-7.807,6.729-7.807c3.99,0,6.686,3.386,6.686,7.764v0.043
				c0,4.378-2.696,7.807-6.729,7.807S894.269,746.86,894.269,742.482z M904.276,742.482v-0.043c0-2.739-1.337-4.809-3.321-4.809
				c-1.984,0-3.278,2.006-3.278,4.766v0.043c0,2.761,1.316,4.81,3.321,4.81C903.004,747.248,904.276,745.221,904.276,742.482z"/>
		</g>
	</g>
</g>
<g>
	<path fill="#FFFFFF" d="M139.328,710.553V699.14h12.771c3.719,0,8.151,0.956,8.151,5.523v0.182c0,3.786-3.049,5.708-9.06,5.708
		H139.328z M154.906,736.087h-15.578v-11.954h15.124c6.189,0,9.328,1.979,9.328,5.886v0.182
		C163.78,734.109,160.795,736.087,154.906,736.087 M168.946,715.99c4.809-3.258,7.151-7.689,7.151-13.498v-0.182
		c0-4.606-1.518-8.362-4.641-11.482c-3.863-3.863-9.837-5.905-17.274-5.905h-30.429l0.003,65.384h31.149
		c15.709,0,24.721-6.7,24.721-18.384v-0.179C179.627,724.228,176.316,719.308,168.946,715.99"/>
	<path fill="#FFFFFF" d="M250.113,717.613v0.181c0,10.726-7.279,17.934-18.112,17.934h-9.783v-36.224h9.783
		C242.834,699.504,250.113,706.779,250.113,717.613 M232.001,684.922H206.28l0.016,65.387l25.705-0.004
		c9.786,0,18.663-3.352,25.004-9.435c6.243-5.991,9.678-14.252,9.678-23.257v-0.182
		C266.684,698.595,252.095,684.922,232.001,684.922"/>
	<path fill="#FFFFFF" d="M191.992,684.818c4.401,0,7.972,3.568,7.972,7.968v57.533h-15.938v-65.503L191.992,684.818z"/>
	<path fill="#FFFFFF" d="M78.907,708.551c-2.282-0.094-2.689,1.284,0.737,2.008C84.482,711.58,81.188,708.647,78.907,708.551
		 M71.749,703.179c-6.859-2.222-2.345,3.267,0.918,3.631C75.928,707.17,76.609,704.753,71.749,703.179 M51.554,698.212
		c-1.998,1.049,1.579,5.693,10.729,5.942C71.437,704.406,59.638,693.967,51.554,698.212 M69.141,765.434
		c2.878-5.355,9.144-13.163,22.541-28.903c20.034-23.54-39.334-15.635-49.507-33.451c-8.379-14.679,22.803-25.229,41.647-33.396
		c12.249,8.073,21.137,21.13,23.425,36.789C111.163,733.227,94.466,758.232,69.141,765.434 M57.225,727.489
		c-8.407,13.612,18.599,13.817,6.105,39.253c-0.367,0.06-0.73,0.131-1.104,0.185C33.1,771.191,6.033,751.036,1.768,721.91
		c-2.018-13.811,1.457-27.158,8.767-37.83C9.175,714.815,65.076,714.782,57.225,727.489"/>
</g>
</svg>
