<?xml version="1.0" encoding="UTF-8" standalone="no"?>
<!-- Created with Inkscape (http://www.inkscape.org/) -->

<svg
   xmlns:dc="http://purl.org/dc/elements/1.1/"
   xmlns:cc="http://creativecommons.org/ns#"
   xmlns:rdf="http://www.w3.org/1999/02/22-rdf-syntax-ns#"
   xmlns:svg="http://www.w3.org/2000/svg"
   xmlns="http://www.w3.org/2000/svg"
   xmlns:sodipodi="http://sodipodi.sourceforge.net/DTD/sodipodi-0.dtd"
   xmlns:inkscape="http://www.inkscape.org/namespaces/inkscape"
   width="90mm"
   height="90mm"
   viewBox="0 0 90 90"
   version="1.1"
   id="svg3532"
   inkscape:version="0.92.3 (2405546, 2018-03-11)"
   sodipodi:docname="ba.svg">
  <defs
     id="defs3526" />
  <sodipodi:namedview
     id="base"
     pagecolor="#ffffff"
     bordercolor="#666666"
     borderopacity="1.0"
     inkscape:pageopacity="0.0"
     inkscape:pageshadow="2"
     inkscape:zoom="0.7"
     inkscape:cx="72.019686"
     inkscape:cy="264.61492"
     inkscape:document-units="mm"
     inkscape:current-layer="layer1"
     showgrid="false"
     inkscape:window-width="1366"
     inkscape:window-height="740"
     inkscape:window-x="1920"
     inkscape:window-y="316"
     inkscape:window-maximized="1" />
  <metadata
     id="metadata3529">
    <rdf:RDF>
      <cc:Work
         rdf:about="">
        <dc:format>image/svg+xml</dc:format>
        <dc:type
           rdf:resource="http://purl.org/dc/dcmitype/StillImage" />
        <dc:title></dc:title>
      </cc:Work>
    </rdf:RDF>
  </metadata>
  <g
     inkscape:label="Layer 1"
     inkscape:groupmode="layer"
     id="layer1"
     transform="translate(0,-207)">
    <g
       id="g4174"
       transform="translate(-0.54612845,0.924105)">
      <path
         inkscape:connector-curvature="0"
         id="path12"
         style="fill:#1f1a14;fill-opacity:1;fill-rule:nonzero;stroke:none;stroke-width:0.23370795"
         d="M 5.8184647,290.80333 H 85.273794 V 211.348 H 5.8184647 Z M 88.20449,293.73426 H 2.8877669 V 208.41753 H 88.20449 Z" />
      <g
         transform="matrix(0.23370797,0,0,-0.23370797,17.209531,258.15538)"
         id="g22">
        <path
           inkscape:connector-curvature="0"
           id="path24"
           style="fill:#1f1a14;fill-opacity:1;fill-rule:nonzero;stroke:none"
           d="m 0,0 c 4.175,0 6.692,1.474 6.692,4.666 v 0.123 c 0,2.886 -2.149,4.666 -6.999,4.666 H -11.236 V 0 Z m -2.518,17.314 c 4.176,0 6.816,1.351 6.816,4.544 v 0.122 c 0,2.825 -2.211,4.421 -6.201,4.421 h -9.333 v -9.087 z m -17.927,12.648 c 0,2.64 2.087,4.728 4.727,4.728 h 15.227 c 4.911,0 8.78,-1.351 11.236,-3.807 1.964,-1.965 2.947,-4.359 2.947,-7.306 v -0.123 c 0,-4.85 -2.579,-7.552 -5.649,-9.271 4.974,-1.903 8.043,-4.789 8.043,-10.56 V 3.5 C 16.086,-4.359 9.701,-8.289 0,-8.289 h -15.718 c -2.64,0 -4.727,2.088 -4.727,4.728 z" />
      </g>
      <g
         transform="matrix(0.23370797,0,0,-0.23370797,27.884446,255.8882)"
         id="g26">
        <path
           inkscape:connector-curvature="0"
           id="path28"
           style="fill:#1f1a14;fill-opacity:1;fill-rule:nonzero;stroke:none"
           d="M 0,0 -5.955,14.183 -11.911,0 Z m -26.585,-11.911 14.981,33.83 c 1.043,2.333 2.947,3.745 5.526,3.745 h 0.553 c 2.578,0 4.42,-1.412 5.464,-3.745 l 14.981,-33.83 c 0.307,-0.676 0.491,-1.29 0.491,-1.903 0,-2.518 -1.965,-4.544 -4.482,-4.544 -2.21,0 -3.684,1.289 -4.543,3.254 L 3.5,-8.35 h -18.911 l -3.008,-7.061 c -0.798,-1.842 -2.395,-2.947 -4.359,-2.947 -2.456,0 -4.36,1.965 -4.36,4.421 0,0.675 0.246,1.35 0.553,2.026" />
      </g>
      <g
         transform="matrix(0.23370797,0,0,-0.23370797,11.828663,268.06981)"
         id="g30">
        <path
           inkscape:connector-curvature="0"
           id="path32"
           style="fill:#1f1a14;fill-opacity:1;fill-rule:nonzero;stroke:none"
           d="m 0,0 v 0.123 c 0,9.394 7.184,17.13 17.252,17.13 4.974,0 8.474,-1.351 11.236,-3.684 0.615,-0.491 1.474,-1.597 1.474,-3.193 0,-2.333 -1.903,-4.175 -4.236,-4.175 -1.228,0 -2.149,0.491 -2.702,0.921 C 21.366,8.411 19.647,9.21 17.191,9.21 12.525,9.21 9.209,5.096 9.209,0.246 V 0.123 c 0,-5.035 3.254,-9.087 8.351,-9.087 2.455,0 4.359,0.86 6.14,2.272 0.49,0.368 1.411,0.859 2.517,0.859 2.21,0 3.929,-1.78 3.929,-3.991 0,-1.228 -0.552,-2.21 -1.351,-2.947 -2.763,-2.517 -6.262,-4.236 -11.666,-4.236 C 7.245,-17.007 0,-9.394 0,0" />
      </g>
      <g
         transform="matrix(0.23370797,0,0,-0.23370797,26.822945,270.86793)"
         id="g34">
        <path
           inkscape:connector-curvature="0"
           id="path36"
           style="fill:#1f1a14;fill-opacity:1;fill-rule:nonzero;stroke:none"
           d="m 0,0 c 0,-2.579 -2.087,-4.666 -4.666,-4.666 -2.579,0 -4.666,2.087 -4.666,4.666 v 0.368 c -2.149,-2.763 -4.912,-5.28 -9.64,-5.28 -7.061,0 -11.174,4.667 -11.174,12.218 v 17.007 c 0,2.579 2.087,4.667 4.666,4.667 2.579,0 4.666,-2.088 4.666,-4.667 v -14.06 c 0,-4.42 2.088,-6.692 5.649,-6.692 3.561,0 5.833,2.272 5.833,6.692 v 14.06 c 0,2.579 2.087,4.667 4.666,4.667 C -2.087,28.98 0,26.892 0,24.313 Z" />
      </g>
      <g
         transform="matrix(0.23370797,0,0,-0.23370797,28.314539,262.40194)"
         id="g38">
        <path
           inkscape:connector-curvature="0"
           id="path40"
           style="fill:#1f1a14;fill-opacity:1;fill-rule:nonzero;stroke:none"
           d="M 0,0 C 0,2.579 2.087,4.666 4.666,4.666 7.245,4.666 9.332,2.579 9.332,0 v -36.225 c 0,-2.578 -2.087,-4.666 -4.666,-4.666 -2.579,0 -4.666,2.088 -4.666,4.666 z" />
      </g>
      <g
         transform="matrix(0.23370797,0,0,-0.23370797,32.346236,269.69128)"
         id="g42">
        <path
           inkscape:connector-curvature="0"
           id="path44"
           style="fill:#1f1a14;fill-opacity:1;fill-rule:nonzero;stroke:none"
           d="m 0,0 v 15.595 h -0.307 c -2.211,0 -3.991,1.78 -3.991,3.991 0,2.21 1.78,3.991 3.991,3.991 H 0 v 4.113 c 0,2.579 2.088,4.667 4.666,4.667 2.579,0 4.667,-2.088 4.667,-4.667 v -4.113 h 4.113 c 2.21,0 3.991,-1.781 3.991,-3.991 0,-2.211 -1.781,-3.991 -3.991,-3.991 H 9.333 V 1.535 c 0,-2.149 0.92,-3.193 3.008,-3.193 0.307,0 0.921,0.062 1.105,0.062 2.088,0 3.868,-1.719 3.868,-3.868 0,-1.658 -1.105,-3.009 -2.394,-3.5 C 13.2,-9.639 11.604,-9.885 9.578,-9.885 3.868,-9.885 0,-7.613 0,0" />
      </g>
      <g
         transform="matrix(0.23370797,0,0,-0.23370797,44.370323,270.86793)"
         id="g46">
        <path
           inkscape:connector-curvature="0"
           id="path48"
           style="fill:#1f1a14;fill-opacity:1;fill-rule:nonzero;stroke:none"
           d="m 0,0 c 0,-2.579 -2.087,-4.666 -4.666,-4.666 -2.579,0 -4.667,2.087 -4.667,4.666 v 0.368 c -2.148,-2.763 -4.912,-5.28 -9.639,-5.28 -7.061,0 -11.174,4.667 -11.174,12.218 v 17.007 c 0,2.579 2.087,4.667 4.666,4.667 2.579,0 4.666,-2.088 4.666,-4.667 v -14.06 c 0,-4.42 2.087,-6.692 5.648,-6.692 3.562,0 5.833,2.272 5.833,6.692 v 14.06 c 0,2.579 2.088,4.667 4.667,4.667 C -2.087,28.98 0,26.892 0,24.313 Z" />
      </g>
      <g
         transform="matrix(0.23370797,0,0,-0.23370797,45.761496,265.18567)"
         id="g50">
        <path
           inkscape:connector-curvature="0"
           id="path52"
           style="fill:#1f1a14;fill-opacity:1;fill-rule:nonzero;stroke:none"
           d="M 0,0 C 0,2.579 2.087,4.666 4.666,4.666 7.245,4.666 9.333,2.579 9.333,0 v -1.473 c 1.35,3.192 3.561,6.139 6.323,6.139 2.886,0 4.544,-1.903 4.544,-4.543 0,-2.456 -1.596,-3.93 -3.5,-4.359 -4.727,-1.106 -7.367,-4.728 -7.367,-11.359 v -8.718 c 0,-2.579 -2.088,-4.666 -4.667,-4.666 -2.579,0 -4.666,2.087 -4.666,4.666 z" />
      </g>
      <g
         transform="matrix(0.23370797,0,0,-0.23370797,55.3894,269.16036)"
         id="g54">
        <path
           inkscape:connector-curvature="0"
           id="path56"
           style="fill:#1f1a14;fill-opacity:1;fill-rule:nonzero;stroke:none"
           d="m 0,0 v 1.658 c -1.596,0.737 -3.684,1.228 -5.956,1.228 -3.99,0 -6.446,-1.597 -6.446,-4.544 v -0.123 c 0,-2.517 2.088,-3.99 5.096,-3.99 C -2.947,-5.771 0,-3.377 0,0 m -21.428,-2.149 v 0.123 c 0,7.183 5.465,10.499 13.262,10.499 3.315,0 5.71,-0.553 8.043,-1.351 v 0.553 c 0,3.868 -2.395,6.017 -7.06,6.017 -2.579,0 -4.667,-0.369 -6.447,-0.921 -0.553,-0.184 -0.921,-0.246 -1.351,-0.246 -2.149,0 -3.868,1.658 -3.868,3.807 0,1.658 1.044,3.07 2.517,3.622 2.947,1.105 6.14,1.719 10.499,1.719 5.096,0 8.78,-1.35 11.113,-3.683 2.456,-2.456 3.561,-6.079 3.561,-10.5 V -7.49 c 0,-2.518 -2.026,-4.482 -4.543,-4.482 -2.701,0 -4.482,1.903 -4.482,3.868 v 0.061 c -2.272,-2.517 -5.403,-4.175 -9.946,-4.175 -6.202,0 -11.298,3.561 -11.298,10.069" />
      </g>
      <g
         transform="matrix(0.23370797,0,0,-0.23370797,17.252556,279.20398)"
         id="g58">
        <path
           inkscape:connector-curvature="0"
           id="path60"
           style="fill:#1f1a14;fill-opacity:1;fill-rule:nonzero;stroke:none"
           d="m 0,0 c -0.552,4.175 -3.008,7 -6.938,7 -3.868,0 -6.385,-2.763 -7.122,-7 z m -6.017,-19.77 c -9.885,0 -17.191,6.938 -17.191,17.007 v 0.123 c 0,9.394 6.692,17.13 16.27,17.13 10.99,0 15.841,-9.025 15.841,-15.841 0,-2.701 -1.903,-4.482 -4.359,-4.482 h -18.482 c 0.922,-4.236 3.869,-6.447 8.044,-6.447 2.579,0 4.727,0.799 6.631,2.211 0.676,0.491 1.289,0.737 2.272,0.737 2.087,0 3.622,-1.597 3.622,-3.684 0,-1.228 -0.552,-2.149 -1.228,-2.763 -2.885,-2.456 -6.631,-3.991 -11.42,-3.991" />
      </g>
      <g
         transform="matrix(0.23370797,0,0,-0.23370797,20.437506,276.9655)"
         id="g62">
        <path
           inkscape:connector-curvature="0"
           id="path64"
           style="fill:#1f1a14;fill-opacity:1;fill-rule:nonzero;stroke:none"
           d="M 0,0 C 0,2.579 2.087,4.666 4.666,4.666 7.245,4.666 9.332,2.579 9.332,0 v -0.368 c 2.149,2.763 4.912,5.28 9.64,5.28 7.061,0 11.174,-4.666 11.174,-12.218 v -17.007 c 0,-2.579 -2.087,-4.667 -4.667,-4.667 -2.578,0 -4.666,2.088 -4.666,4.667 v 14.06 c 0,4.42 -2.087,6.692 -5.648,6.692 -3.561,0 -5.833,-2.272 -5.833,-6.692 v -14.06 c 0,-2.579 -2.087,-4.667 -4.666,-4.667 -2.579,0 -4.666,2.088 -4.666,4.667 z" />
      </g>
      <g
         transform="matrix(0.23370797,0,0,-0.23370797,32.188296,279.84965)"
         id="g66">
        <path
           inkscape:connector-curvature="0"
           id="path68"
           style="fill:#1f1a14;fill-opacity:1;fill-rule:nonzero;stroke:none"
           d="m 0,0 v 0.123 c 0,9.394 7.184,17.13 17.252,17.13 4.974,0 8.473,-1.351 11.236,-3.684 0.614,-0.491 1.473,-1.597 1.473,-3.193 0,-2.333 -1.902,-4.175 -4.236,-4.175 -1.227,0 -2.148,0.491 -2.702,0.921 -1.657,1.289 -3.376,2.087 -5.832,2.087 -4.666,0 -7.982,-4.113 -7.982,-8.963 V 0.123 c 0,-5.035 3.254,-9.087 8.351,-9.087 2.456,0 4.358,0.86 6.139,2.272 0.491,0.368 1.412,0.859 2.518,0.859 2.21,0 3.929,-1.781 3.929,-3.991 0,-1.228 -0.552,-2.21 -1.351,-2.947 -2.763,-2.517 -6.262,-4.236 -11.666,-4.236 C 7.245,-17.007 0,-9.394 0,0" />
      </g>
      <g
         transform="matrix(0.23370797,0,0,-0.23370797,44.728876,280.9402)"
         id="g70">
        <path
           inkscape:connector-curvature="0"
           id="path72"
           style="fill:#1f1a14;fill-opacity:1;fill-rule:nonzero;stroke:none"
           d="m 0,0 v 1.658 c -1.596,0.737 -3.684,1.227 -5.956,1.227 -3.99,0 -6.446,-1.596 -6.446,-4.543 v -0.123 c 0,-2.517 2.088,-3.99 5.096,-3.99 C -2.947,-5.771 0,-3.377 0,0 m -21.428,-2.149 v 0.123 c 0,7.183 5.465,10.499 13.262,10.499 3.315,0 5.71,-0.553 8.043,-1.351 v 0.553 c 0,3.868 -2.394,6.017 -7.06,6.017 -2.579,0 -4.667,-0.369 -6.447,-0.921 -0.553,-0.185 -0.921,-0.246 -1.351,-0.246 -2.148,0 -3.868,1.658 -3.868,3.807 0,1.658 1.044,3.07 2.517,3.622 2.947,1.105 6.141,1.719 10.499,1.719 5.097,0 8.78,-1.35 11.113,-3.683 2.456,-2.456 3.561,-6.079 3.561,-10.5 V -7.49 c 0,-2.518 -2.026,-4.483 -4.543,-4.483 -2.701,0 -4.482,1.904 -4.482,3.869 v 0.061 c -2.272,-2.517 -5.403,-4.175 -9.946,-4.175 -6.202,0 -11.298,3.561 -11.298,10.069" />
      </g>
      <g
         transform="matrix(0.23370797,0,0,-0.23370797,47.913824,282.92038)"
         id="g74">
        <path
           inkscape:connector-curvature="0"
           id="path76"
           style="fill:#1f1a14;fill-opacity:1;fill-rule:nonzero;stroke:none"
           d="m 0,0 c -0.982,0.614 -1.78,1.719 -1.78,3.193 0,2.087 1.596,3.683 3.684,3.683 0.675,0 1.35,-0.184 1.842,-0.491 3.131,-1.964 6.262,-2.947 8.902,-2.947 2.702,0 3.93,0.983 3.93,2.456 v 0.123 c 0,2.026 -3.193,2.702 -6.815,3.807 -4.605,1.35 -9.824,3.499 -9.824,9.885 v 0.122 c 0,6.693 5.403,10.438 12.034,10.438 3.438,0 6.999,-0.921 10.192,-2.517 1.351,-0.676 2.21,-1.904 2.21,-3.5 0,-2.087 -1.658,-3.684 -3.745,-3.684 -0.675,0 -1.106,0.123 -1.719,0.43 -2.64,1.289 -5.158,2.087 -7.122,2.087 -2.272,0 -3.439,-0.982 -3.439,-2.271 v -0.123 c 0,-1.842 3.131,-2.701 6.692,-3.93 4.605,-1.534 9.947,-3.745 9.947,-9.762 V 6.876 C 24.989,-0.43 19.524,-3.745 12.402,-3.745 8.35,-3.745 3.991,-2.579 0,0" />
      </g>
      <g
         transform="matrix(0.23370797,0,0,-0.23370797,59.292158,280.9402)"
         id="g78">
        <path
           inkscape:connector-curvature="0"
           id="path80"
           style="fill:#1f1a14;fill-opacity:1;fill-rule:nonzero;stroke:none"
           d="m 0,0 v 1.658 c -1.596,0.737 -3.684,1.227 -5.955,1.227 -3.991,0 -6.447,-1.596 -6.447,-4.543 v -0.123 c 0,-2.517 2.088,-3.99 5.096,-3.99 C -2.947,-5.771 0,-3.377 0,0 m -21.427,-2.149 v 0.123 c 0,7.183 5.464,10.499 13.261,10.499 3.316,0 5.71,-0.553 8.044,-1.351 v 0.553 c 0,3.868 -2.395,6.017 -7.061,6.017 -2.579,0 -4.666,-0.369 -6.447,-0.921 -0.553,-0.185 -0.921,-0.246 -1.35,-0.246 -2.149,0 -3.869,1.658 -3.869,3.807 0,1.658 1.044,3.07 2.518,3.622 2.947,1.105 6.14,1.719 10.498,1.719 5.097,0 8.781,-1.35 11.114,-3.683 2.456,-2.456 3.561,-6.079 3.561,-10.5 V -7.49 c 0,-2.518 -2.026,-4.483 -4.544,-4.483 -2.701,0 -4.482,1.904 -4.482,3.869 v 0.061 c -2.272,-2.517 -5.403,-4.175 -9.946,-4.175 -6.201,0 -11.297,3.561 -11.297,10.069" />
      </g>
    </g>
  </g>
</svg>
